<svg width="19" height="7" viewBox="0 0 19 7" fill="none" xmlns="http://www.w3.org/2000/svg">
<path fill-rule="evenodd" clip-rule="evenodd" d="M19 0H0V7H19V0ZM1.7761 4.011L2.0881 3.972C2.07943 4.08467 2.06643 4.19733 2.0491 4.31C2.03176 4.41833 2.0231 4.5245 2.0231 4.6285C2.0231 4.68917 2.0296 4.74767 2.0426 4.804C2.0556 4.86033 2.07943 4.91233 2.1141 4.96C2.1531 5.00333 2.2051 5.04017 2.2701 5.0705C2.3351 5.0965 2.41743 5.1095 2.5171 5.1095C2.61676 5.1095 2.69693 5.0965 2.7576 5.0705C2.8226 5.0445 2.87243 5.00983 2.9071 4.9665C2.9461 4.92317 2.9721 4.87333 2.9851 4.817C3.00243 4.76067 3.0111 4.70217 3.0111 4.6415C3.0111 4.51583 3.0046 4.39883 2.9916 4.2905C2.9786 4.18217 2.9656 4.076 2.9526 3.972C3.0566 3.985 3.15843 3.998 3.2581 4.011C3.3621 4.024 3.46393 4.0305 3.5636 4.0305C3.68493 4.0305 3.79326 3.99583 3.8886 3.9265C3.98826 3.85283 4.04026 3.71633 4.0446 3.517C4.0446 3.41733 4.0316 3.335 4.0056 3.27C3.9796 3.205 3.94493 3.153 3.9016 3.114C3.85826 3.075 3.80843 3.04683 3.7521 3.0295C3.69576 3.01217 3.63726 3.0035 3.5766 3.0035C3.46393 3.0035 3.35776 3.01 3.2581 3.023L2.9591 3.062C2.9721 2.96667 2.98293 2.87133 2.9916 2.776C3.0046 2.67633 3.0111 2.57017 3.0111 2.4575C3.0111 2.39683 3.00243 2.33833 2.9851 2.282C2.9721 2.22567 2.9461 2.17583 2.9071 2.1325C2.87243 2.08917 2.8226 2.0545 2.7576 2.0285C2.69693 2.0025 2.61676 1.9895 2.5171 1.9895C2.41743 1.9895 2.3351 2.00467 2.2701 2.035C2.2051 2.061 2.1531 2.09783 2.1141 2.1455C2.07943 2.18883 2.0556 2.23867 2.0426 2.295C2.0296 2.35133 2.0231 2.40983 2.0231 2.4705C2.0231 2.5615 2.0296 2.659 2.0426 2.763L2.0816 3.062C1.98193 3.049 1.8801 3.036 1.7761 3.023C1.67643 3.01 1.57026 3.0035 1.4576 3.0035C1.39693 3.0035 1.33843 3.01217 1.2821 3.0295C1.22576 3.04683 1.17593 3.075 1.1326 3.114C1.08926 3.153 1.0546 3.205 1.0286 3.27C1.0026 3.335 0.989595 3.41733 0.989595 3.517C0.993929 3.71633 1.04376 3.85283 1.1391 3.9265C1.23876 3.99583 1.34926 4.0305 1.4706 4.0305C1.57026 4.0305 1.6721 4.024 1.7761 4.011ZM5.04529 2.555C4.96729 2.86267 4.92829 3.1985 4.92829 3.5625C4.92829 3.96983 4.96296 4.3295 5.03229 4.6415C5.10596 4.94917 5.22079 5.20917 5.37679 5.4215C5.53712 5.63383 5.74079 5.79417 5.98779 5.9025C6.23912 6.01083 6.54246 6.065 6.89779 6.065C7.24879 6.065 7.54779 6.01083 7.79479 5.9025C8.04612 5.79417 8.24979 5.63383 8.40579 5.4215C8.56612 5.20917 8.68096 4.94917 8.75029 4.6415C8.82396 4.3295 8.86079 3.96983 8.86079 3.5625C8.86079 3.1985 8.81962 2.86267 8.73729 2.555C8.65929 2.24733 8.53796 1.983 8.37329 1.762C8.21296 1.541 8.00929 1.36983 7.76229 1.2485C7.51962 1.12283 7.23146 1.06 6.89779 1.06C6.55979 1.06 6.26729 1.12283 6.02029 1.2485C5.77329 1.36983 5.56746 1.541 5.40279 1.762C5.24246 1.983 5.12329 2.24733 5.04529 2.555ZM6.09829 4.1605C6.07662 3.9785 6.06579 3.777 6.06579 3.556C6.06579 3.335 6.07446 3.12917 6.09179 2.9385C6.10912 2.74783 6.14596 2.581 6.20229 2.438C6.26296 2.295 6.34746 2.18233 6.45579 2.1C6.56846 2.01767 6.71579 1.9765 6.89779 1.9765C7.07979 1.9765 7.22496 2.01767 7.33329 2.1C7.44596 2.18233 7.53046 2.295 7.58679 2.438C7.64746 2.581 7.68646 2.74783 7.70379 2.9385C7.72112 3.12917 7.72979 3.335 7.72979 3.556C7.72979 3.777 7.71679 3.9785 7.69079 4.1605C7.66912 4.33817 7.62579 4.48983 7.56079 4.6155C7.50012 4.74117 7.41562 4.83867 7.30729 4.908C7.20329 4.97733 7.06679 5.012 6.89779 5.012C6.72879 5.012 6.59012 4.97733 6.48179 4.908C6.37779 4.83867 6.29329 4.74117 6.22829 4.6155C6.16762 4.48983 6.12429 4.33817 6.09829 4.1605ZM12.2572 1.541C12.2572 1.762 12.2681 1.97 12.2897 2.165C12.3157 2.36 12.3396 2.555 12.3612 2.75C12.3699 2.81933 12.3417 2.83233 12.2767 2.789C12.1381 2.68933 11.9799 2.61133 11.8022 2.555C11.6246 2.49433 11.4231 2.464 11.1977 2.464C11.0114 2.464 10.8294 2.50083 10.6517 2.5745C10.4784 2.64817 10.3246 2.763 10.1902 2.919C10.0559 3.075 9.94758 3.27433 9.86524 3.517C9.78724 3.75967 9.74824 4.05217 9.74824 4.3945C9.74824 4.76283 9.80241 5.0575 9.91074 5.2785C10.0191 5.49517 10.1491 5.662 10.3007 5.779C10.4567 5.896 10.6171 5.97183 10.7817 6.0065C10.9464 6.0455 11.0851 6.065 11.1977 6.065C11.4231 6.065 11.6246 6.026 11.8022 5.948C11.9842 5.86567 12.1424 5.76167 12.2767 5.636C12.2984 5.73133 12.3526 5.81583 12.4392 5.8895C12.5259 5.95883 12.6711 5.99567 12.8747 6C13.0047 6 13.1109 5.98483 13.1932 5.9545C13.2756 5.91983 13.3384 5.8765 13.3817 5.8245C13.4251 5.7725 13.4532 5.71617 13.4662 5.6555C13.4836 5.5905 13.4922 5.52767 13.4922 5.467C13.4922 5.298 13.4857 5.13983 13.4727 4.9925C13.4597 4.84517 13.4446 4.70433 13.4272 4.57C13.4099 4.43133 13.3947 4.297 13.3817 4.167C13.3687 4.03267 13.3622 3.89617 13.3622 3.7575V3.2375C13.3622 3.09883 13.3687 2.9645 13.3817 2.8345C13.3947 2.70017 13.4099 2.56583 13.4272 2.4315C13.4446 2.29283 13.4597 2.14983 13.4727 2.0025C13.4857 1.85517 13.4922 1.697 13.4922 1.528C13.4922 1.46733 13.4836 1.40667 13.4662 1.346C13.4532 1.281 13.4251 1.2225 13.3817 1.1705C13.3384 1.1185 13.2756 1.07733 13.1932 1.047C13.1109 1.01233 13.0047 0.995 12.8747 0.995C12.7404 0.995 12.6321 1.01233 12.5497 1.047C12.4717 1.08167 12.4111 1.12717 12.3677 1.1835C12.3244 1.2355 12.2941 1.294 12.2767 1.359C12.2637 1.41967 12.2572 1.48033 12.2572 1.541ZM10.8142 4.5895C10.7926 4.48983 10.7817 4.38367 10.7817 4.271C10.7817 3.946 10.8467 3.70767 10.9767 3.556C11.1111 3.40433 11.2952 3.3285 11.5292 3.3285C11.6289 3.3285 11.7307 3.35017 11.8347 3.3935C11.9387 3.43683 12.0341 3.49967 12.1207 3.582C12.2074 3.66433 12.2767 3.764 12.3287 3.881C12.3851 3.998 12.4111 4.128 12.4067 4.271C12.3981 4.55267 12.3157 4.76283 12.1597 4.9015C12.0037 5.03583 11.7936 5.103 11.5292 5.103C11.3819 5.103 11.2584 5.08133 11.1587 5.038C11.0634 4.99033 10.9876 4.92967 10.9312 4.856C10.8749 4.778 10.8359 4.68917 10.8142 4.5895ZM14.5471 2.958C14.5601 3.09233 14.5666 3.22883 14.5666 3.3675V3.7575C14.5666 3.89617 14.5601 4.03483 14.5471 4.1735C14.5341 4.30783 14.5189 4.4465 14.5016 4.5895C14.4842 4.72817 14.4691 4.869 14.4561 5.012C14.4431 5.155 14.4366 5.30233 14.4366 5.454C14.4366 5.51467 14.4452 5.5775 14.4626 5.6425C14.4799 5.70317 14.5124 5.76167 14.5601 5.818C14.6121 5.87 14.6792 5.91333 14.7616 5.948C14.8482 5.98267 14.9587 6 15.0931 6H15.9381C16.2717 6 16.5642 5.974 16.8156 5.922C17.0712 5.87 17.2857 5.78767 17.4591 5.675C17.6324 5.558 17.7624 5.40633 17.8491 5.22C17.9401 5.03367 17.9856 4.80617 17.9856 4.5375C17.9856 4.26883 17.9227 4.02833 17.7971 3.816C17.6757 3.60367 17.5046 3.42817 17.2836 3.2895C17.4352 3.17683 17.5566 3.04467 17.6476 2.893C17.7429 2.74133 17.7906 2.5745 17.7906 2.3925C17.7906 2.1715 17.7364 1.983 17.6281 1.827C17.5241 1.66667 17.3789 1.5345 17.1926 1.4305C17.0062 1.3265 16.7874 1.25067 16.5361 1.203C16.2891 1.151 16.0247 1.125 15.7431 1.125H15.0931C14.9587 1.125 14.8482 1.14233 14.7616 1.177C14.6792 1.21167 14.6121 1.25717 14.5601 1.3135C14.5124 1.3655 14.4799 1.424 14.4626 1.489C14.4452 1.54967 14.4366 1.61033 14.4366 1.671C14.4366 1.82267 14.4431 1.97 14.4561 2.113C14.4691 2.256 14.4842 2.399 14.5016 2.542C14.5189 2.68067 14.5341 2.81933 14.5471 2.958ZM16.4516 2.8215C16.3172 2.88217 16.0854 2.9125 15.7561 2.9125C15.6737 2.9125 15.6369 2.87133 15.6456 2.789C15.6542 2.68933 15.6651 2.58967 15.6781 2.49C15.6954 2.386 15.7084 2.27767 15.7171 2.165C15.7257 2.08267 15.7691 2.0415 15.8471 2.0415C16.0074 2.04583 16.1396 2.05667 16.2436 2.074C16.3476 2.09133 16.4299 2.11733 16.4906 2.152C16.5556 2.18233 16.5989 2.2235 16.6206 2.2755C16.6466 2.32317 16.6596 2.38167 16.6596 2.451C16.6596 2.633 16.5902 2.7565 16.4516 2.8215ZM16.3866 4.908C16.2696 4.93833 16.1201 4.9535 15.9381 4.9535H15.8341C15.7517 4.9535 15.7062 4.91233 15.6976 4.83C15.6802 4.67833 15.6629 4.531 15.6456 4.388C15.6326 4.24067 15.6217 4.09333 15.6131 3.946C15.6044 3.86367 15.6434 3.8225 15.7301 3.8225H15.9381C16.2717 3.8225 16.5079 3.87233 16.6466 3.972C16.7852 4.07167 16.8546 4.19733 16.8546 4.349C16.8546 4.44 16.8416 4.52233 16.8156 4.596C16.7896 4.66967 16.7419 4.7325 16.6726 4.7845C16.6032 4.8365 16.5079 4.87767 16.3866 4.908Z" fill="black"/>
</svg>
