<svg width="18" height="6" viewBox="0 0 18 6" fill="none" xmlns="http://www.w3.org/2000/svg">
<path d="M1.2025 2.972C1.0985 2.985 0.9945 2.998 0.8905 3.011C0.7865 3.024 0.684667 3.0305 0.585 3.0305C0.463667 3.0305 0.353167 2.99583 0.2535 2.9265C0.158167 2.85283 0.108333 2.71633 0.104 2.517C0.104 2.41733 0.117 2.335 0.143 2.27C0.169 2.205 0.203667 2.153 0.247 2.114C0.290333 2.075 0.340167 2.04683 0.3965 2.0295C0.452833 2.01217 0.511333 2.0035 0.572 2.0035C0.684667 2.0035 0.790833 2.01 0.8905 2.023C0.9945 2.036 1.09633 2.049 1.196 2.062C1.183 1.96233 1.17 1.86267 1.157 1.763C1.144 1.659 1.1375 1.5615 1.1375 1.4705C1.1375 1.40983 1.144 1.35133 1.157 1.295C1.17 1.23867 1.19383 1.18883 1.2285 1.1455C1.2675 1.09783 1.3195 1.061 1.3845 1.035C1.4495 1.00467 1.53183 0.9895 1.6315 0.9895C1.73117 0.9895 1.81133 1.0025 1.872 1.0285C1.937 1.0545 1.98683 1.08917 2.0215 1.1325C2.0605 1.17583 2.0865 1.22567 2.0995 1.282C2.11683 1.33833 2.1255 1.39683 2.1255 1.4575C2.1255 1.57017 2.119 1.67633 2.106 1.776C2.09733 1.87133 2.0865 1.96667 2.0735 2.062C2.17317 2.049 2.27283 2.036 2.3725 2.023C2.47217 2.01 2.57833 2.0035 2.691 2.0035C2.75167 2.0035 2.81017 2.01217 2.8665 2.0295C2.92283 2.04683 2.97267 2.075 3.016 2.114C3.05933 2.153 3.094 2.205 3.12 2.27C3.146 2.335 3.159 2.41733 3.159 2.517C3.15467 2.71633 3.10267 2.85283 3.003 2.9265C2.90767 2.99583 2.79933 3.0305 2.678 3.0305C2.57833 3.0305 2.4765 3.024 2.3725 3.011C2.27283 2.998 2.171 2.985 2.067 2.972C2.08 3.076 2.093 3.18217 2.106 3.2905C2.119 3.39883 2.1255 3.51583 2.1255 3.6415C2.1255 3.70217 2.11683 3.76067 2.0995 3.817C2.0865 3.87333 2.0605 3.92317 2.0215 3.9665C1.98683 4.00983 1.937 4.0445 1.872 4.0705C1.81133 4.0965 1.73117 4.1095 1.6315 4.1095C1.53183 4.1095 1.4495 4.0965 1.3845 4.0705C1.3195 4.04017 1.2675 4.00333 1.2285 3.96C1.19383 3.91233 1.17 3.86033 1.157 3.804C1.144 3.74767 1.1375 3.68917 1.1375 3.6285C1.1375 3.5245 1.14617 3.41833 1.1635 3.31C1.18083 3.19733 1.19383 3.08467 1.2025 2.972ZM4.0427 2.5625C4.0427 2.1985 4.0817 1.86267 4.1597 1.555C4.2377 1.24733 4.35686 0.983 4.5172 0.762C4.68186 0.541 4.8877 0.369833 5.1347 0.2485C5.3817 0.122833 5.6742 0.0599997 6.0122 0.0599997C6.34586 0.0599997 6.63403 0.122833 6.8767 0.2485C7.1237 0.369833 7.32736 0.541 7.4877 0.762C7.65236 0.983 7.7737 1.24733 7.8517 1.555C7.93403 1.86267 7.9752 2.1985 7.9752 2.5625C7.9752 2.96983 7.93836 3.3295 7.8647 3.6415C7.79536 3.94917 7.68053 4.20917 7.5202 4.4215C7.3642 4.63383 7.16053 4.79417 6.9092 4.9025C6.6622 5.01083 6.3632 5.065 6.0122 5.065C5.65686 5.065 5.35353 5.01083 5.1022 4.9025C4.8552 4.79417 4.65153 4.63383 4.4912 4.4215C4.3352 4.20917 4.22036 3.94917 4.1467 3.6415C4.07736 3.3295 4.0427 2.96983 4.0427 2.5625ZM5.1802 2.556C5.1802 2.777 5.19103 2.9785 5.2127 3.1605C5.2387 3.33817 5.28203 3.48983 5.3427 3.6155C5.4077 3.74117 5.4922 3.83867 5.5962 3.908C5.70453 3.97733 5.8432 4.012 6.0122 4.012C6.1812 4.012 6.3177 3.97733 6.4217 3.908C6.53003 3.83867 6.61453 3.74117 6.6752 3.6155C6.7402 3.48983 6.78353 3.33817 6.8052 3.1605C6.8312 2.9785 6.8442 2.777 6.8442 2.556C6.8442 2.335 6.83553 2.12917 6.8182 1.9385C6.80086 1.74783 6.76186 1.581 6.7012 1.438C6.64486 1.295 6.56036 1.18233 6.4477 1.1C6.33936 1.01767 6.1942 0.9765 6.0122 0.9765C5.8302 0.9765 5.68286 1.01767 5.5702 1.1C5.46186 1.18233 5.37736 1.295 5.3167 1.438C5.26036 1.581 5.22353 1.74783 5.2062 1.9385C5.18886 2.12917 5.1802 2.335 5.1802 2.556ZM11.4756 1.75C11.454 1.555 11.4301 1.36 11.4041 1.165C11.3825 0.97 11.3716 0.762 11.3716 0.541C11.3716 0.480333 11.3781 0.419666 11.3911 0.359C11.4085 0.294 11.4388 0.2355 11.4821 0.1835C11.5255 0.127167 11.5861 0.0816666 11.6641 0.0469998C11.7465 0.0123331 11.8548 -0.00500026 11.9891 -0.00500026C12.1191 -0.00500026 12.2253 0.0123331 12.3076 0.0469998C12.39 0.077333 12.4528 0.1185 12.4961 0.1705C12.5395 0.2225 12.5676 0.281 12.5806 0.346C12.598 0.406667 12.6066 0.467333 12.6066 0.528C12.6066 0.697 12.6001 0.855166 12.5871 1.0025C12.5741 1.14983 12.559 1.29283 12.5416 1.4315C12.5243 1.56583 12.5091 1.70017 12.4961 1.8345C12.4831 1.9645 12.4766 2.09883 12.4766 2.2375V2.7575C12.4766 2.89617 12.4831 3.03267 12.4961 3.167C12.5091 3.297 12.5243 3.43133 12.5416 3.57C12.559 3.70433 12.5741 3.84517 12.5871 3.9925C12.6001 4.13983 12.6066 4.298 12.6066 4.467C12.6066 4.52767 12.598 4.5905 12.5806 4.6555C12.5676 4.71617 12.5395 4.7725 12.4961 4.8245C12.4528 4.8765 12.39 4.91983 12.3076 4.9545C12.2253 4.98483 12.1191 5 11.9891 5C11.7855 4.99567 11.6403 4.95883 11.5536 4.8895C11.467 4.81583 11.4128 4.73133 11.3911 4.636C11.2568 4.76167 11.0986 4.86567 10.9166 4.948C10.739 5.026 10.5375 5.065 10.3121 5.065C10.1995 5.065 10.0608 5.0455 9.89615 5.0065C9.73148 4.97183 9.57115 4.896 9.41515 4.779C9.26348 4.662 9.13348 4.49517 9.02515 4.2785C8.91682 4.0575 8.86265 3.76283 8.86265 3.3945C8.86265 3.05217 8.90165 2.75967 8.97965 2.517C9.06198 2.27433 9.17032 2.075 9.30465 1.919C9.43898 1.763 9.59282 1.64817 9.76615 1.5745C9.94382 1.50083 10.1258 1.464 10.3121 1.464C10.5375 1.464 10.739 1.49433 10.9166 1.555C11.0943 1.61133 11.2525 1.68933 11.3911 1.789C11.4561 1.83233 11.4843 1.81933 11.4756 1.75ZM9.89615 3.271C9.89615 3.38367 9.90698 3.48983 9.92865 3.5895C9.95032 3.68917 9.98932 3.778 10.0456 3.856C10.102 3.92967 10.1778 3.99033 10.2731 4.038C10.3728 4.08133 10.4963 4.103 10.6436 4.103C10.908 4.103 11.1181 4.03583 11.2741 3.9015C11.4301 3.76283 11.5125 3.55267 11.5211 3.271C11.5255 3.128 11.4995 2.998 11.4431 2.881C11.3911 2.764 11.3218 2.66433 11.2351 2.582C11.1485 2.49967 11.0531 2.43683 10.9491 2.3935C10.8451 2.35017 10.7433 2.3285 10.6436 2.3285C10.4096 2.3285 10.2255 2.40433 10.0911 2.556C9.96115 2.70767 9.89615 2.946 9.89615 3.271ZM13.681 2.3675C13.681 2.22883 13.6745 2.09233 13.6615 1.958C13.6485 1.81933 13.6333 1.68067 13.616 1.542C13.5986 1.399 13.5835 1.256 13.5705 1.113C13.5575 0.97 13.551 0.822666 13.551 0.671C13.551 0.610333 13.5596 0.549667 13.577 0.489C13.5943 0.424 13.6268 0.3655 13.6745 0.3135C13.7265 0.257167 13.7936 0.211666 13.876 0.177C13.9626 0.142333 14.0731 0.125 14.2075 0.125H14.8575C15.1391 0.125 15.4035 0.151 15.6505 0.203C15.9018 0.250666 16.1206 0.3265 16.307 0.4305C16.4933 0.5345 16.6385 0.666667 16.7425 0.827C16.8508 0.983 16.905 1.1715 16.905 1.3925C16.905 1.5745 16.8573 1.74133 16.762 1.893C16.671 2.04467 16.5496 2.17683 16.398 2.2895C16.619 2.42817 16.7901 2.60367 16.9115 2.816C17.0371 3.02833 17.1 3.26883 17.1 3.5375C17.1 3.80617 17.0545 4.03367 16.9635 4.22C16.8768 4.40633 16.7468 4.558 16.5735 4.675C16.4001 4.78767 16.1856 4.87 15.93 4.922C15.6786 4.974 15.3861 5 15.0525 5H14.2075C14.0731 5 13.9626 4.98267 13.876 4.948C13.7936 4.91333 13.7265 4.87 13.6745 4.818C13.6268 4.76167 13.5943 4.70317 13.577 4.6425C13.5596 4.5775 13.551 4.51467 13.551 4.454C13.551 4.30233 13.5575 4.155 13.5705 4.012C13.5835 3.869 13.5986 3.72817 13.616 3.5895C13.6333 3.4465 13.6485 3.30783 13.6615 3.1735C13.6745 3.03483 13.681 2.89617 13.681 2.7575V2.3675ZM14.8705 1.9125C15.1998 1.9125 15.4316 1.88217 15.566 1.8215C15.7046 1.7565 15.774 1.633 15.774 1.451C15.774 1.38167 15.761 1.32317 15.735 1.2755C15.7133 1.2235 15.67 1.18233 15.605 1.152C15.5443 1.11733 15.462 1.09133 15.358 1.074C15.254 1.05667 15.1218 1.04583 14.9615 1.0415C14.8835 1.0415 14.8401 1.08267 14.8315 1.165C14.8228 1.27767 14.8098 1.386 14.7925 1.49C14.7795 1.58967 14.7686 1.68933 14.76 1.789C14.7513 1.87133 14.7881 1.9125 14.8705 1.9125ZM15.0525 3.9535C15.2345 3.9535 15.384 3.93833 15.501 3.908C15.6223 3.87767 15.7176 3.8365 15.787 3.7845C15.8563 3.7325 15.904 3.66967 15.93 3.596C15.956 3.52233 15.969 3.44 15.969 3.349C15.969 3.19733 15.8996 3.07167 15.761 2.972C15.6223 2.87233 15.3861 2.8225 15.0525 2.8225H14.8445C14.7578 2.8225 14.7188 2.86367 14.7275 2.946C14.7361 3.09333 14.747 3.24067 14.76 3.388C14.7773 3.531 14.7946 3.67833 14.812 3.83C14.8206 3.91233 14.8661 3.9535 14.9485 3.9535H15.0525Z" fill="black"/>
</svg>
