<svg width="19" height="6" viewBox="0 0 19 6" fill="none" xmlns="http://www.w3.org/2000/svg">
<path fill-rule="evenodd" clip-rule="evenodd" d="M1.7761 3.011L2.0881 2.972C2.07943 3.08467 2.06643 3.19733 2.0491 3.31C2.03176 3.41833 2.0231 3.5245 2.0231 3.6285C2.0231 3.68917 2.0296 3.74767 2.0426 3.804C2.0556 3.86033 2.07943 3.91233 2.1141 3.96C2.1531 4.00333 2.2051 4.04017 2.2701 4.0705C2.3351 4.0965 2.41743 4.1095 2.5171 4.1095C2.61676 4.1095 2.69693 4.0965 2.7576 4.0705C2.8226 4.0445 2.87243 4.00983 2.9071 3.9665C2.9461 3.92317 2.9721 3.87333 2.9851 3.817C3.00243 3.76067 3.0111 3.70217 3.0111 3.6415C3.0111 3.51583 3.0046 3.39883 2.9916 3.2905C2.9786 3.18217 2.9656 3.076 2.9526 2.972C3.0566 2.985 3.15843 2.998 3.2581 3.011C3.3621 3.024 3.46393 3.0305 3.5636 3.0305C3.68493 3.0305 3.79326 2.99583 3.8886 2.9265C3.98826 2.85283 4.04026 2.71633 4.0446 2.517C4.0446 2.41733 4.0316 2.335 4.0056 2.27C3.9796 2.205 3.94493 2.153 3.9016 2.114C3.85826 2.075 3.80843 2.04683 3.7521 2.0295C3.69576 2.01217 3.63726 2.0035 3.5766 2.0035C3.46393 2.0035 3.35776 2.01 3.2581 2.023L2.9591 2.062C2.9721 1.96667 2.98293 1.87133 2.9916 1.776C3.0046 1.67633 3.0111 1.57017 3.0111 1.4575C3.0111 1.39683 3.00243 1.33833 2.9851 1.282C2.9721 1.22567 2.9461 1.17583 2.9071 1.1325C2.87243 1.08917 2.8226 1.0545 2.7576 1.0285C2.69693 1.0025 2.61676 0.9895 2.5171 0.9895C2.41743 0.9895 2.3351 1.00467 2.2701 1.035C2.2051 1.061 2.1531 1.09783 2.1141 1.1455C2.07943 1.18883 2.0556 1.23867 2.0426 1.295C2.0296 1.35133 2.0231 1.40983 2.0231 1.4705C2.0231 1.5615 2.0296 1.659 2.0426 1.763L2.0816 2.062C1.98193 2.049 1.8801 2.036 1.7761 2.023C1.67643 2.01 1.57026 2.0035 1.4576 2.0035C1.39693 2.0035 1.33843 2.01217 1.2821 2.0295C1.22576 2.04683 1.17593 2.075 1.1326 2.114C1.08926 2.153 1.0546 2.205 1.0286 2.27C1.0026 2.335 0.989595 2.41733 0.989595 2.517C0.993929 2.71633 1.04376 2.85283 1.1391 2.9265C1.23876 2.99583 1.34926 3.0305 1.4706 3.0305C1.57026 3.0305 1.6721 3.024 1.7761 3.011ZM5.04529 1.555C4.96729 1.86267 4.92829 2.1985 4.92829 2.5625C4.92829 2.96983 4.96296 3.3295 5.03229 3.6415C5.10596 3.94917 5.22079 4.20917 5.37679 4.4215C5.53712 4.63383 5.74079 4.79417 5.98779 4.9025C6.23912 5.01083 6.54246 5.065 6.89779 5.065C7.24879 5.065 7.54779 5.01083 7.79479 4.9025C8.04612 4.79417 8.24979 4.63383 8.40579 4.4215C8.56612 4.20917 8.68096 3.94917 8.75029 3.6415C8.82396 3.3295 8.86079 2.96983 8.86079 2.5625C8.86079 2.1985 8.81962 1.86267 8.73729 1.555C8.65929 1.24733 8.53796 0.983 8.37329 0.762C8.21296 0.541 8.00929 0.369833 7.76229 0.2485C7.51962 0.122833 7.23146 0.0599997 6.89779 0.0599997C6.55979 0.0599997 6.26729 0.122833 6.02029 0.2485C5.77329 0.369833 5.56746 0.541 5.40279 0.762C5.24246 0.983 5.12329 1.24733 5.04529 1.555ZM6.09829 3.1605C6.07662 2.9785 6.06579 2.777 6.06579 2.556C6.06579 2.335 6.07446 2.12917 6.09179 1.9385C6.10912 1.74783 6.14596 1.581 6.20229 1.438C6.26296 1.295 6.34746 1.18233 6.45579 1.1C6.56846 1.01767 6.71579 0.9765 6.89779 0.9765C7.07979 0.9765 7.22496 1.01767 7.33329 1.1C7.44596 1.18233 7.53046 1.295 7.58679 1.438C7.64746 1.581 7.68646 1.74783 7.70379 1.9385C7.72112 2.12917 7.72979 2.335 7.72979 2.556C7.72979 2.777 7.71679 2.9785 7.69079 3.1605C7.66912 3.33817 7.62579 3.48983 7.56079 3.6155C7.50012 3.74117 7.41562 3.83867 7.30729 3.908C7.20329 3.97733 7.06679 4.012 6.89779 4.012C6.72879 4.012 6.59012 3.97733 6.48179 3.908C6.37779 3.83867 6.29329 3.74117 6.22829 3.6155C6.16762 3.48983 6.12429 3.33817 6.09829 3.1605ZM12.2572 0.541C12.2572 0.762 12.2681 0.97 12.2897 1.165C12.3157 1.36 12.3396 1.555 12.3612 1.75C12.3699 1.81933 12.3417 1.83233 12.2767 1.789C12.1381 1.68933 11.9799 1.61133 11.8022 1.555C11.6246 1.49433 11.4231 1.464 11.1977 1.464C11.0114 1.464 10.8294 1.50083 10.6517 1.5745C10.4784 1.64817 10.3246 1.763 10.1902 1.919C10.0559 2.075 9.94758 2.27433 9.86524 2.517C9.78724 2.75967 9.74824 3.05217 9.74824 3.3945C9.74824 3.76283 9.80241 4.0575 9.91074 4.2785C10.0191 4.49517 10.1491 4.662 10.3007 4.779C10.4567 4.896 10.6171 4.97183 10.7817 5.0065C10.9464 5.0455 11.0851 5.065 11.1977 5.065C11.4231 5.065 11.6246 5.026 11.8022 4.948C11.9842 4.86567 12.1424 4.76167 12.2767 4.636C12.2984 4.73133 12.3526 4.81583 12.4392 4.8895C12.5259 4.95883 12.6711 4.99567 12.8747 5C13.0047 5 13.1109 4.98483 13.1932 4.9545C13.2756 4.91983 13.3384 4.8765 13.3817 4.8245C13.4251 4.7725 13.4532 4.71617 13.4662 4.6555C13.4836 4.5905 13.4922 4.52767 13.4922 4.467C13.4922 4.298 13.4857 4.13983 13.4727 3.9925C13.4597 3.84517 13.4446 3.70433 13.4272 3.57C13.4099 3.43133 13.3947 3.297 13.3817 3.167C13.3687 3.03267 13.3622 2.89617 13.3622 2.7575V2.2375C13.3622 2.09883 13.3687 1.9645 13.3817 1.8345C13.3947 1.70017 13.4099 1.56583 13.4272 1.4315C13.4446 1.29283 13.4597 1.14983 13.4727 1.0025C13.4857 0.855166 13.4922 0.697 13.4922 0.528C13.4922 0.467333 13.4836 0.406667 13.4662 0.346C13.4532 0.281 13.4251 0.2225 13.3817 0.1705C13.3384 0.1185 13.2756 0.077333 13.1932 0.0469998C13.1364 0.0230831 13.0683 0.00741656 12.9888 6.61503e-08L19 0V6H0V0L12.7573 3.05818e-10C12.6757 0.00741646 12.6065 0.0230831 12.5497 0.0469998C12.4717 0.0816666 12.4111 0.127167 12.3677 0.1835C12.3244 0.2355 12.2941 0.294 12.2767 0.359C12.2637 0.419666 12.2572 0.480333 12.2572 0.541ZM10.8142 3.5895C10.7926 3.48983 10.7817 3.38367 10.7817 3.271C10.7817 2.946 10.8467 2.70767 10.9767 2.556C11.1111 2.40433 11.2952 2.3285 11.5292 2.3285C11.6289 2.3285 11.7307 2.35017 11.8347 2.3935C11.9387 2.43683 12.0341 2.49967 12.1207 2.582C12.2074 2.66433 12.2767 2.764 12.3287 2.881C12.3851 2.998 12.4111 3.128 12.4067 3.271C12.3981 3.55267 12.3157 3.76283 12.1597 3.9015C12.0037 4.03583 11.7936 4.103 11.5292 4.103C11.3819 4.103 11.2584 4.08133 11.1587 4.038C11.0634 3.99033 10.9876 3.92967 10.9312 3.856C10.8749 3.778 10.8359 3.68917 10.8142 3.5895ZM14.5471 1.958C14.5601 2.09233 14.5666 2.22883 14.5666 2.3675V2.7575C14.5666 2.89617 14.5601 3.03483 14.5471 3.1735C14.5341 3.30783 14.5189 3.4465 14.5016 3.5895C14.4842 3.72817 14.4691 3.869 14.4561 4.012C14.4431 4.155 14.4366 4.30233 14.4366 4.454C14.4366 4.51467 14.4452 4.5775 14.4626 4.6425C14.4799 4.70317 14.5124 4.76167 14.5601 4.818C14.6121 4.87 14.6792 4.91333 14.7616 4.948C14.8482 4.98267 14.9587 5 15.0931 5H15.9381C16.2717 5 16.5642 4.974 16.8156 4.922C17.0712 4.87 17.2857 4.78767 17.4591 4.675C17.6324 4.558 17.7624 4.40633 17.8491 4.22C17.9401 4.03367 17.9856 3.80617 17.9856 3.5375C17.9856 3.26883 17.9227 3.02833 17.7971 2.816C17.6757 2.60367 17.5046 2.42817 17.2836 2.2895C17.4352 2.17683 17.5566 2.04467 17.6476 1.893C17.7429 1.74133 17.7906 1.5745 17.7906 1.3925C17.7906 1.1715 17.7364 0.983 17.6281 0.827C17.5241 0.666667 17.3789 0.5345 17.1926 0.4305C17.0062 0.3265 16.7874 0.250666 16.5361 0.203C16.2891 0.151 16.0247 0.125 15.7431 0.125H15.0931C14.9587 0.125 14.8482 0.142333 14.7616 0.177C14.6792 0.211666 14.6121 0.257167 14.5601 0.3135C14.5124 0.3655 14.4799 0.424 14.4626 0.489C14.4452 0.549667 14.4366 0.610333 14.4366 0.671C14.4366 0.822666 14.4431 0.97 14.4561 1.113C14.4691 1.256 14.4842 1.399 14.5016 1.542C14.5189 1.68067 14.5341 1.81933 14.5471 1.958ZM16.4516 1.8215C16.3172 1.88217 16.0854 1.9125 15.7561 1.9125C15.6737 1.9125 15.6369 1.87133 15.6456 1.789C15.6542 1.68933 15.6651 1.58967 15.6781 1.49C15.6954 1.386 15.7084 1.27767 15.7171 1.165C15.7257 1.08267 15.7691 1.0415 15.8471 1.0415C16.0074 1.04583 16.1396 1.05667 16.2436 1.074C16.3476 1.09133 16.4299 1.11733 16.4906 1.152C16.5556 1.18233 16.5989 1.2235 16.6206 1.2755C16.6466 1.32317 16.6596 1.38167 16.6596 1.451C16.6596 1.633 16.5902 1.7565 16.4516 1.8215ZM16.3866 3.908C16.2696 3.93833 16.1201 3.9535 15.9381 3.9535H15.8341C15.7517 3.9535 15.7062 3.91233 15.6976 3.83C15.6802 3.67833 15.6629 3.531 15.6456 3.388C15.6326 3.24067 15.6217 3.09333 15.6131 2.946C15.6044 2.86367 15.6434 2.8225 15.7301 2.8225H15.9381C16.2717 2.8225 16.5079 2.87233 16.6466 2.972C16.7852 3.07167 16.8546 3.19733 16.8546 3.349C16.8546 3.44 16.8416 3.52233 16.8156 3.596C16.7896 3.66967 16.7419 3.7325 16.6726 3.7845C16.6032 3.8365 16.5079 3.87767 16.3866 3.908Z" fill="black"/>
</svg>
