<svg width="22" height="7" viewBox="0 0 22 7" fill="none" xmlns="http://www.w3.org/2000/svg">
<path fill-rule="evenodd" clip-rule="evenodd" d="M22 0H0V7H22V0ZM1.76408 4.011L2.07608 3.972C2.06742 4.08467 2.05442 4.19733 2.03708 4.31C2.01975 4.41833 2.01108 4.5245 2.01108 4.6285C2.01108 4.68917 2.01758 4.74767 2.03058 4.804C2.04358 4.86033 2.06742 4.91233 2.10208 4.96C2.14108 5.00333 2.19308 5.04017 2.25808 5.0705C2.32308 5.0965 2.40542 5.1095 2.50508 5.1095C2.60475 5.1095 2.68492 5.0965 2.74558 5.0705C2.81058 5.0445 2.86042 5.00983 2.89508 4.9665C2.93408 4.92317 2.96008 4.87333 2.97308 4.817C2.99042 4.76067 2.99908 4.70217 2.99908 4.6415C2.99908 4.51583 2.99258 4.39883 2.97958 4.2905C2.96658 4.18217 2.95358 4.076 2.94058 3.972C3.04458 3.985 3.14642 3.998 3.24608 4.011C3.35008 4.024 3.45192 4.0305 3.55158 4.0305C3.67292 4.0305 3.78125 3.99583 3.87658 3.9265C3.97625 3.85283 4.02825 3.71633 4.03258 3.517C4.03258 3.41733 4.01958 3.335 3.99358 3.27C3.96758 3.205 3.93292 3.153 3.88958 3.114C3.84625 3.075 3.79642 3.04683 3.74008 3.0295C3.68375 3.01217 3.62525 3.0035 3.56458 3.0035C3.45192 3.0035 3.34575 3.01 3.24608 3.023L2.94708 3.062C2.96008 2.96667 2.97092 2.87133 2.97958 2.776C2.99258 2.67633 2.99908 2.57017 2.99908 2.4575C2.99908 2.39683 2.99042 2.33833 2.97308 2.282C2.96008 2.22567 2.93408 2.17583 2.89508 2.1325C2.86042 2.08917 2.81058 2.0545 2.74558 2.0285C2.68492 2.0025 2.60475 1.9895 2.50508 1.9895C2.40542 1.9895 2.32308 2.00467 2.25808 2.035C2.19308 2.061 2.14108 2.09783 2.10208 2.1455C2.06742 2.18883 2.04358 2.23867 2.03058 2.295C2.01758 2.35133 2.01108 2.40983 2.01108 2.4705C2.01108 2.5615 2.01758 2.659 2.03058 2.763L2.06958 3.062C1.96992 3.049 1.86808 3.036 1.76408 3.023C1.66442 3.01 1.55825 3.0035 1.44558 3.0035C1.38492 3.0035 1.32642 3.01217 1.27008 3.0295C1.21375 3.04683 1.16392 3.075 1.12058 3.114C1.07725 3.153 1.04258 3.205 1.01658 3.27C0.990584 3.335 0.977584 3.41733 0.977584 3.517C0.981917 3.71633 1.03175 3.85283 1.12708 3.9265C1.22675 3.99583 1.33725 4.0305 1.45858 4.0305C1.55825 4.0305 1.66008 4.024 1.76408 4.011ZM5.80678 2.958C5.81978 3.09233 5.82628 3.22883 5.82628 3.3675V3.7575C5.82628 3.89617 5.81978 4.03483 5.80678 4.1735C5.79378 4.30783 5.77861 4.4465 5.76128 4.5895C5.74395 4.72817 5.72878 4.869 5.71578 5.012C5.70278 5.155 5.69628 5.30233 5.69628 5.454C5.69628 5.51467 5.70495 5.5775 5.72228 5.6425C5.73961 5.70317 5.77211 5.76167 5.81978 5.818C5.86745 5.87 5.93245 5.91333 6.01478 5.948C6.10145 5.98267 6.21195 6 6.34628 6C6.47628 6 6.58245 5.98483 6.66478 5.9545C6.75145 5.91983 6.81861 5.8765 6.86628 5.8245C6.91828 5.7725 6.95295 5.71617 6.97028 5.6555C6.98761 5.5905 6.99628 5.52767 6.99628 5.467C6.99628 5.298 6.98978 5.13983 6.97678 4.9925C6.96378 4.84517 6.94861 4.70433 6.93128 4.57C6.91395 4.43133 6.89878 4.297 6.88578 4.167C6.87278 4.03267 6.86628 3.89617 6.86628 3.7575V3.3675C6.86628 3.22883 6.87278 3.0945 6.88578 2.9645C6.89878 2.83017 6.91395 2.69583 6.93128 2.5615C6.94861 2.42283 6.96378 2.27983 6.97678 2.1325C6.98978 1.98517 6.99628 1.827 6.99628 1.658C6.99628 1.59733 6.98761 1.53667 6.97028 1.476C6.95295 1.411 6.91828 1.3525 6.86628 1.3005C6.81861 1.2485 6.75145 1.20733 6.66478 1.177C6.58245 1.14233 6.47628 1.125 6.34628 1.125C6.22928 1.125 6.12961 1.138 6.04728 1.164C5.96928 1.19 5.90645 1.22467 5.85878 1.268C5.79811 1.31133 5.74828 1.35467 5.70928 1.398C5.67461 1.44133 5.64211 1.48467 5.61178 1.528L5.53378 1.645C5.50778 1.67967 5.47311 1.71433 5.42978 1.749C5.36911 1.79667 5.30628 1.84 5.24128 1.879C5.18061 1.91367 5.11561 1.95917 5.04628 2.0155C5.03328 2.02417 5.01161 2.04367 4.98128 2.074C4.95528 2.10433 4.93145 2.14333 4.90978 2.191C4.89245 2.23867 4.88595 2.295 4.89028 2.36C4.89461 2.42067 4.92278 2.48783 4.97478 2.5615C5.02678 2.63517 5.07878 2.68717 5.13078 2.7175C5.18711 2.74783 5.23911 2.76517 5.28678 2.7695C5.33878 2.7695 5.38211 2.76517 5.41678 2.7565C5.45145 2.7435 5.47528 2.7305 5.48828 2.7175C5.53161 2.68283 5.57495 2.65033 5.61828 2.62C5.66595 2.58967 5.71361 2.56367 5.76128 2.542C5.77861 2.68067 5.79378 2.81933 5.80678 2.958ZM8.0573 2.555C7.9793 2.86267 7.9403 3.1985 7.9403 3.5625C7.9403 3.96983 7.97497 4.3295 8.0443 4.6415C8.11797 4.94917 8.2328 5.20917 8.3888 5.4215C8.54914 5.63383 8.7528 5.79417 8.9998 5.9025C9.25114 6.01083 9.55447 6.065 9.9098 6.065C10.2608 6.065 10.5598 6.01083 10.8068 5.9025C11.0581 5.79417 11.2618 5.63383 11.4178 5.4215C11.5781 5.20917 11.693 4.94917 11.7623 4.6415C11.836 4.3295 11.8728 3.96983 11.8728 3.5625C11.8728 3.1985 11.8316 2.86267 11.7493 2.555C11.6713 2.24733 11.55 1.983 11.3853 1.762C11.225 1.541 11.0213 1.36983 10.7743 1.2485C10.5316 1.12283 10.2435 1.06 9.9098 1.06C9.5718 1.06 9.2793 1.12283 9.0323 1.2485C8.7853 1.36983 8.57947 1.541 8.4148 1.762C8.25447 1.983 8.1353 2.24733 8.0573 2.555ZM9.1103 4.1605C9.08864 3.9785 9.0778 3.777 9.0778 3.556C9.0778 3.335 9.08647 3.12917 9.1038 2.9385C9.12114 2.74783 9.15797 2.581 9.2143 2.438C9.27497 2.295 9.35947 2.18233 9.4678 2.1C9.58047 2.01767 9.7278 1.9765 9.9098 1.9765C10.0918 1.9765 10.237 2.01767 10.3453 2.1C10.458 2.18233 10.5425 2.295 10.5988 2.438C10.6595 2.581 10.6985 2.74783 10.7158 2.9385C10.7331 3.12917 10.7418 3.335 10.7418 3.556C10.7418 3.777 10.7288 3.9785 10.7028 4.1605C10.6811 4.33817 10.6378 4.48983 10.5728 4.6155C10.5121 4.74117 10.4276 4.83867 10.3193 4.908C10.2153 4.97733 10.0788 5.012 9.9098 5.012C9.7408 5.012 9.60214 4.97733 9.4938 4.908C9.3898 4.83867 9.3053 4.74117 9.2403 4.6155C9.17964 4.48983 9.1363 4.33817 9.1103 4.1605ZM15.2693 1.541C15.2693 1.762 15.2801 1.97 15.3018 2.165C15.3278 2.36 15.3516 2.555 15.3733 2.75C15.3819 2.81933 15.3538 2.83233 15.2888 2.789C15.1501 2.68933 14.9919 2.61133 14.8143 2.555C14.6366 2.49433 14.4351 2.464 14.2098 2.464C14.0234 2.464 13.8414 2.50083 13.6638 2.5745C13.4904 2.64817 13.3366 2.763 13.2023 2.919C13.0679 3.075 12.9596 3.27433 12.8773 3.517C12.7993 3.75967 12.7603 4.05217 12.7603 4.3945C12.7603 4.76283 12.8144 5.0575 12.9228 5.2785C13.0311 5.49517 13.1611 5.662 13.3128 5.779C13.4688 5.896 13.6291 5.97183 13.7938 6.0065C13.9584 6.0455 14.0971 6.065 14.2098 6.065C14.4351 6.065 14.6366 6.026 14.8143 5.948C14.9963 5.86567 15.1544 5.76167 15.2888 5.636C15.3104 5.73133 15.3646 5.81583 15.4513 5.8895C15.5379 5.95883 15.6831 5.99567 15.8868 6C16.0168 6 16.1229 5.98483 16.2053 5.9545C16.2876 5.91983 16.3504 5.8765 16.3938 5.8245C16.4371 5.7725 16.4653 5.71617 16.4783 5.6555C16.4956 5.5905 16.5043 5.52767 16.5043 5.467C16.5043 5.298 16.4978 5.13983 16.4848 4.9925C16.4718 4.84517 16.4566 4.70433 16.4393 4.57C16.4219 4.43133 16.4068 4.297 16.3938 4.167C16.3808 4.03267 16.3743 3.89617 16.3743 3.7575V3.2375C16.3743 3.09883 16.3808 2.9645 16.3938 2.8345C16.4068 2.70017 16.4219 2.56583 16.4393 2.4315C16.4566 2.29283 16.4718 2.14983 16.4848 2.0025C16.4978 1.85517 16.5043 1.697 16.5043 1.528C16.5043 1.46733 16.4956 1.40667 16.4783 1.346C16.4653 1.281 16.4371 1.2225 16.3938 1.1705C16.3504 1.1185 16.2876 1.07733 16.2053 1.047C16.1229 1.01233 16.0168 0.995 15.8868 0.995C15.7524 0.995 15.6441 1.01233 15.5618 1.047C15.4838 1.08167 15.4231 1.12717 15.3798 1.1835C15.3364 1.2355 15.3061 1.294 15.2888 1.359C15.2758 1.41967 15.2693 1.48033 15.2693 1.541ZM13.8263 4.5895C13.8046 4.48983 13.7938 4.38367 13.7938 4.271C13.7938 3.946 13.8588 3.70767 13.9888 3.556C14.1231 3.40433 14.3073 3.3285 14.5413 3.3285C14.6409 3.3285 14.7428 3.35017 14.8468 3.3935C14.9508 3.43683 15.0461 3.49967 15.1328 3.582C15.2194 3.66433 15.2888 3.764 15.3408 3.881C15.3971 3.998 15.4231 4.128 15.4188 4.271C15.4101 4.55267 15.3278 4.76283 15.1718 4.9015C15.0158 5.03583 14.8056 5.103 14.5413 5.103C14.3939 5.103 14.2704 5.08133 14.1708 5.038C14.0754 4.99033 13.9996 4.92967 13.9433 4.856C13.8869 4.778 13.8479 4.68917 13.8263 4.5895ZM17.5591 2.958C17.5721 3.09233 17.5786 3.22883 17.5786 3.3675V3.7575C17.5786 3.89617 17.5721 4.03483 17.5591 4.1735C17.5461 4.30783 17.5309 4.4465 17.5136 4.5895C17.4963 4.72817 17.4811 4.869 17.4681 5.012C17.4551 5.155 17.4486 5.30233 17.4486 5.454C17.4486 5.51467 17.4573 5.5775 17.4746 5.6425C17.4919 5.70317 17.5244 5.76167 17.5721 5.818C17.6241 5.87 17.6912 5.91333 17.7736 5.948C17.8603 5.98267 17.9708 6 18.1051 6H18.9501C19.2838 6 19.5763 5.974 19.8276 5.922C20.0833 5.87 20.2978 5.78767 20.4711 5.675C20.6444 5.558 20.7744 5.40633 20.8611 5.22C20.9521 5.03367 20.9976 4.80617 20.9976 4.5375C20.9976 4.26883 20.9347 4.02833 20.8091 3.816C20.6877 3.60367 20.5166 3.42817 20.2956 3.2895C20.4473 3.17683 20.5686 3.04467 20.6596 2.893C20.7549 2.74133 20.8026 2.5745 20.8026 2.3925C20.8026 2.1715 20.7484 1.983 20.6401 1.827C20.5361 1.66667 20.3909 1.5345 20.2046 1.4305C20.0182 1.3265 19.7994 1.25067 19.5481 1.203C19.3011 1.151 19.0368 1.125 18.7551 1.125H18.1051C17.9708 1.125 17.8603 1.14233 17.7736 1.177C17.6912 1.21167 17.6241 1.25717 17.5721 1.3135C17.5244 1.3655 17.4919 1.424 17.4746 1.489C17.4573 1.54967 17.4486 1.61033 17.4486 1.671C17.4486 1.82267 17.4551 1.97 17.4681 2.113C17.4811 2.256 17.4963 2.399 17.5136 2.542C17.5309 2.68067 17.5461 2.81933 17.5591 2.958ZM19.4636 2.8215C19.3293 2.88217 19.0974 2.9125 18.7681 2.9125C18.6857 2.9125 18.6489 2.87133 18.6576 2.789C18.6663 2.68933 18.6771 2.58967 18.6901 2.49C18.7074 2.386 18.7204 2.27767 18.7291 2.165C18.7377 2.08267 18.7811 2.0415 18.8591 2.0415C19.0194 2.04583 19.1516 2.05667 19.2556 2.074C19.3596 2.09133 19.4419 2.11733 19.5026 2.152C19.5676 2.18233 19.6109 2.2235 19.6326 2.2755C19.6586 2.32317 19.6716 2.38167 19.6716 2.451C19.6716 2.633 19.6022 2.7565 19.4636 2.8215ZM19.3986 4.908C19.2816 4.93833 19.1321 4.9535 18.9501 4.9535H18.8461C18.7638 4.9535 18.7183 4.91233 18.7096 4.83C18.6922 4.67833 18.6749 4.531 18.6576 4.388C18.6446 4.24067 18.6337 4.09333 18.6251 3.946C18.6164 3.86367 18.6554 3.8225 18.7421 3.8225H18.9501C19.2838 3.8225 19.5199 3.87233 19.6586 3.972C19.7973 4.07167 19.8666 4.19733 19.8666 4.349C19.8666 4.44 19.8536 4.52233 19.8276 4.596C19.8016 4.66967 19.7539 4.7325 19.6846 4.7845C19.6152 4.8365 19.5199 4.87767 19.3986 4.908Z" fill="black"/>
</svg>
