<svg width="21" height="6" viewBox="0 0 21 6" fill="none" xmlns="http://www.w3.org/2000/svg">
<path d="M1.2025 2.972C1.0985 2.985 0.9945 2.998 0.8905 3.011C0.7865 3.024 0.684667 3.0305 0.585 3.0305C0.463667 3.0305 0.353167 2.99583 0.2535 2.9265C0.158167 2.85283 0.108333 2.71633 0.104 2.517C0.104 2.41733 0.117 2.335 0.143 2.27C0.169 2.205 0.203667 2.153 0.247 2.114C0.290333 2.075 0.340167 2.04683 0.3965 2.0295C0.452833 2.01217 0.511333 2.0035 0.572 2.0035C0.684667 2.0035 0.790833 2.01 0.8905 2.023C0.9945 2.036 1.09633 2.049 1.196 2.062C1.183 1.96233 1.17 1.86267 1.157 1.763C1.144 1.659 1.1375 1.5615 1.1375 1.4705C1.1375 1.40983 1.144 1.35133 1.157 1.295C1.17 1.23867 1.19383 1.18883 1.2285 1.1455C1.2675 1.09783 1.3195 1.061 1.3845 1.035C1.4495 1.00467 1.53183 0.9895 1.6315 0.9895C1.73117 0.9895 1.81133 1.0025 1.872 1.0285C1.937 1.0545 1.98683 1.08917 2.0215 1.1325C2.0605 1.17583 2.0865 1.22567 2.0995 1.282C2.11683 1.33833 2.1255 1.39683 2.1255 1.4575C2.1255 1.57017 2.119 1.67633 2.106 1.776C2.09733 1.87133 2.0865 1.96667 2.0735 2.062C2.17317 2.049 2.27283 2.036 2.3725 2.023C2.47217 2.01 2.57833 2.0035 2.691 2.0035C2.75167 2.0035 2.81017 2.01217 2.8665 2.0295C2.92283 2.04683 2.97267 2.075 3.016 2.114C3.05933 2.153 3.094 2.205 3.12 2.27C3.146 2.335 3.159 2.41733 3.159 2.517C3.15467 2.71633 3.10267 2.85283 3.003 2.9265C2.90767 2.99583 2.79933 3.0305 2.678 3.0305C2.57833 3.0305 2.4765 3.024 2.3725 3.011C2.27283 2.998 2.171 2.985 2.067 2.972C2.08 3.076 2.093 3.18217 2.106 3.2905C2.119 3.39883 2.1255 3.51583 2.1255 3.6415C2.1255 3.70217 2.11683 3.76067 2.0995 3.817C2.0865 3.87333 2.0605 3.92317 2.0215 3.9665C1.98683 4.00983 1.937 4.0445 1.872 4.0705C1.81133 4.0965 1.73117 4.1095 1.6315 4.1095C1.53183 4.1095 1.4495 4.0965 1.3845 4.0705C1.3195 4.04017 1.2675 4.00333 1.2285 3.96C1.19383 3.91233 1.17 3.86033 1.157 3.804C1.144 3.74767 1.1375 3.68917 1.1375 3.6285C1.1375 3.5245 1.14617 3.41833 1.1635 3.31C1.18083 3.19733 1.19383 3.08467 1.2025 2.972ZM4.9527 2.3675C4.9527 2.22883 4.9462 2.09233 4.9332 1.958C4.9202 1.81933 4.90503 1.68067 4.8877 1.542C4.84003 1.56367 4.79236 1.58967 4.7447 1.62C4.70136 1.65033 4.65803 1.68283 4.6147 1.7175C4.6017 1.7305 4.57786 1.7435 4.5432 1.7565C4.50853 1.76517 4.4652 1.7695 4.4132 1.7695C4.36553 1.76517 4.31353 1.74783 4.2572 1.7175C4.2052 1.68717 4.1532 1.63517 4.1012 1.5615C4.0492 1.48783 4.02103 1.42067 4.0167 1.36C4.01236 1.295 4.01886 1.23867 4.0362 1.191C4.05786 1.14333 4.0817 1.10433 4.1077 1.074C4.13803 1.04367 4.1597 1.02417 4.1727 1.0155C4.24203 0.959166 4.30703 0.913666 4.3677 0.879C4.4327 0.84 4.49553 0.796667 4.5562 0.749C4.59953 0.714333 4.6342 0.679666 4.6602 0.645C4.6862 0.606 4.7122 0.567 4.7382 0.528C4.76853 0.484667 4.80103 0.441333 4.8357 0.398C4.8747 0.354666 4.92453 0.311333 4.9852 0.268C5.03286 0.224666 5.0957 0.19 5.1737 0.164C5.25603 0.138 5.3557 0.125 5.4727 0.125C5.6027 0.125 5.70886 0.142333 5.7912 0.177C5.87786 0.207333 5.94503 0.2485 5.9927 0.3005C6.0447 0.3525 6.07936 0.411 6.0967 0.476C6.11403 0.536666 6.1227 0.597333 6.1227 0.658C6.1227 0.827 6.1162 0.985167 6.1032 1.1325C6.0902 1.27983 6.07503 1.42283 6.0577 1.5615C6.04036 1.69583 6.0252 1.83017 6.0122 1.9645C5.9992 2.0945 5.9927 2.22883 5.9927 2.3675V2.7575C5.9927 2.89617 5.9992 3.03267 6.0122 3.167C6.0252 3.297 6.04036 3.43133 6.0577 3.57C6.07503 3.70433 6.0902 3.84517 6.1032 3.9925C6.1162 4.13983 6.1227 4.298 6.1227 4.467C6.1227 4.52767 6.11403 4.5905 6.0967 4.6555C6.07936 4.71617 6.0447 4.7725 5.9927 4.8245C5.94503 4.8765 5.87786 4.91983 5.7912 4.9545C5.70886 4.98483 5.6027 5 5.4727 5C5.33836 5 5.22786 4.98267 5.1412 4.948C5.05886 4.91333 4.99386 4.87 4.9462 4.818C4.89853 4.76167 4.86603 4.70317 4.8487 4.6425C4.83136 4.5775 4.8227 4.51467 4.8227 4.454C4.8227 4.30233 4.8292 4.155 4.8422 4.012C4.8552 3.869 4.87036 3.72817 4.8877 3.5895C4.90503 3.4465 4.9202 3.30783 4.9332 3.1735C4.9462 3.03483 4.9527 2.89617 4.9527 2.7575V2.3675ZM7.06672 2.5625C7.06672 2.1985 7.10572 1.86267 7.18372 1.555C7.26172 1.24733 7.38089 0.983 7.54122 0.762C7.70589 0.541 7.91172 0.369833 8.15872 0.2485C8.40572 0.122833 8.69822 0.0599997 9.03622 0.0599997C9.36989 0.0599997 9.65805 0.122833 9.90072 0.2485C10.1477 0.369833 10.3514 0.541 10.5117 0.762C10.6764 0.983 10.7977 1.24733 10.8757 1.555C10.9581 1.86267 10.9992 2.1985 10.9992 2.5625C10.9992 2.96983 10.9624 3.3295 10.8887 3.6415C10.8194 3.94917 10.7046 4.20917 10.5442 4.4215C10.3882 4.63383 10.1846 4.79417 9.93322 4.9025C9.68622 5.01083 9.38722 5.065 9.03622 5.065C8.68089 5.065 8.37755 5.01083 8.12622 4.9025C7.87922 4.79417 7.67555 4.63383 7.51522 4.4215C7.35922 4.20917 7.24439 3.94917 7.17072 3.6415C7.10139 3.3295 7.06672 2.96983 7.06672 2.5625ZM8.20422 2.556C8.20422 2.777 8.21505 2.9785 8.23672 3.1605C8.26272 3.33817 8.30605 3.48983 8.36672 3.6155C8.43172 3.74117 8.51622 3.83867 8.62022 3.908C8.72855 3.97733 8.86722 4.012 9.03622 4.012C9.20522 4.012 9.34172 3.97733 9.44572 3.908C9.55405 3.83867 9.63855 3.74117 9.69922 3.6155C9.76422 3.48983 9.80755 3.33817 9.82922 3.1605C9.85522 2.9785 9.86822 2.777 9.86822 2.556C9.86822 2.335 9.85955 2.12917 9.84222 1.9385C9.82489 1.74783 9.78589 1.581 9.72522 1.438C9.66889 1.295 9.58439 1.18233 9.47172 1.1C9.36339 1.01767 9.21822 0.9765 9.03622 0.9765C8.85422 0.9765 8.70689 1.01767 8.59422 1.1C8.48589 1.18233 8.40139 1.295 8.34072 1.438C8.28439 1.581 8.24755 1.74783 8.23022 1.9385C8.21289 2.12917 8.20422 2.335 8.20422 2.556ZM14.4997 1.75C14.478 1.555 14.4542 1.36 14.4282 1.165C14.4065 0.97 14.3957 0.762 14.3957 0.541C14.3957 0.480333 14.4022 0.419666 14.4152 0.359C14.4325 0.294 14.4628 0.2355 14.5062 0.1835C14.5495 0.127167 14.6102 0.0816666 14.6882 0.0469998C14.7705 0.0123331 14.8788 -0.00500026 15.0132 -0.00500026C15.1432 -0.00500026 15.2493 0.0123331 15.3317 0.0469998C15.414 0.077333 15.4768 0.1185 15.5202 0.1705C15.5635 0.2225 15.5917 0.281 15.6047 0.346C15.622 0.406667 15.6307 0.467333 15.6307 0.528C15.6307 0.697 15.6242 0.855166 15.6112 1.0025C15.5982 1.14983 15.583 1.29283 15.5657 1.4315C15.5483 1.56583 15.5332 1.70017 15.5202 1.8345C15.5072 1.9645 15.5007 2.09883 15.5007 2.2375V2.7575C15.5007 2.89617 15.5072 3.03267 15.5202 3.167C15.5332 3.297 15.5483 3.43133 15.5657 3.57C15.583 3.70433 15.5982 3.84517 15.6112 3.9925C15.6242 4.13983 15.6307 4.298 15.6307 4.467C15.6307 4.52767 15.622 4.5905 15.6047 4.6555C15.5917 4.71617 15.5635 4.7725 15.5202 4.8245C15.4768 4.8765 15.414 4.91983 15.3317 4.9545C15.2493 4.98483 15.1432 5 15.0132 5C14.8095 4.99567 14.6643 4.95883 14.5777 4.8895C14.491 4.81583 14.4368 4.73133 14.4152 4.636C14.2808 4.76167 14.1227 4.86567 13.9407 4.948C13.763 5.026 13.5615 5.065 13.3362 5.065C13.2235 5.065 13.0848 5.0455 12.9202 5.0065C12.7555 4.97183 12.5952 4.896 12.4392 4.779C12.2875 4.662 12.1575 4.49517 12.0492 4.2785C11.9408 4.0575 11.8867 3.76283 11.8867 3.3945C11.8867 3.05217 11.9257 2.75967 12.0037 2.517C12.086 2.27433 12.1943 2.075 12.3287 1.919C12.463 1.763 12.6168 1.64817 12.7902 1.5745C12.9678 1.50083 13.1498 1.464 13.3362 1.464C13.5615 1.464 13.763 1.49433 13.9407 1.555C14.1183 1.61133 14.2765 1.68933 14.4152 1.789C14.4802 1.83233 14.5083 1.81933 14.4997 1.75ZM12.9202 3.271C12.9202 3.38367 12.931 3.48983 12.9527 3.5895C12.9743 3.68917 13.0133 3.778 13.0697 3.856C13.126 3.92967 13.2018 3.99033 13.2972 4.038C13.3968 4.08133 13.5203 4.103 13.6677 4.103C13.932 4.103 14.1422 4.03583 14.2982 3.9015C14.4542 3.76283 14.5365 3.55267 14.5452 3.271C14.5495 3.128 14.5235 2.998 14.4672 2.881C14.4152 2.764 14.3458 2.66433 14.2592 2.582C14.1725 2.49967 14.0772 2.43683 13.9732 2.3935C13.8692 2.35017 13.7673 2.3285 13.6677 2.3285C13.4337 2.3285 13.2495 2.40433 13.1152 2.556C12.9852 2.70767 12.9202 2.946 12.9202 3.271ZM16.705 2.3675C16.705 2.22883 16.6985 2.09233 16.6855 1.958C16.6725 1.81933 16.6573 1.68067 16.64 1.542C16.6227 1.399 16.6075 1.256 16.5945 1.113C16.5815 0.97 16.575 0.822666 16.575 0.671C16.575 0.610333 16.5837 0.549667 16.601 0.489C16.6183 0.424 16.6508 0.3655 16.6985 0.3135C16.7505 0.257167 16.8177 0.211666 16.9 0.177C16.9867 0.142333 17.0972 0.125 17.2315 0.125H17.8815C18.1632 0.125 18.4275 0.151 18.6745 0.203C18.9258 0.250666 19.1447 0.3265 19.331 0.4305C19.5173 0.5345 19.6625 0.666667 19.7665 0.827C19.8748 0.983 19.929 1.1715 19.929 1.3925C19.929 1.5745 19.8813 1.74133 19.786 1.893C19.695 2.04467 19.5737 2.17683 19.422 2.2895C19.643 2.42817 19.8142 2.60367 19.9355 2.816C20.0612 3.02833 20.124 3.26883 20.124 3.5375C20.124 3.80617 20.0785 4.03367 19.9875 4.22C19.9008 4.40633 19.7708 4.558 19.5975 4.675C19.4242 4.78767 19.2097 4.87 18.954 4.922C18.7027 4.974 18.4102 5 18.0765 5H17.2315C17.0972 5 16.9867 4.98267 16.9 4.948C16.8177 4.91333 16.7505 4.87 16.6985 4.818C16.6508 4.76167 16.6183 4.70317 16.601 4.6425C16.5837 4.5775 16.575 4.51467 16.575 4.454C16.575 4.30233 16.5815 4.155 16.5945 4.012C16.6075 3.869 16.6227 3.72817 16.64 3.5895C16.6573 3.4465 16.6725 3.30783 16.6855 3.1735C16.6985 3.03483 16.705 2.89617 16.705 2.7575V2.3675ZM17.8945 1.9125C18.2238 1.9125 18.4557 1.88217 18.59 1.8215C18.7287 1.7565 18.798 1.633 18.798 1.451C18.798 1.38167 18.785 1.32317 18.759 1.2755C18.7373 1.2235 18.694 1.18233 18.629 1.152C18.5683 1.11733 18.486 1.09133 18.382 1.074C18.278 1.05667 18.1458 1.04583 17.9855 1.0415C17.9075 1.0415 17.8642 1.08267 17.8555 1.165C17.8468 1.27767 17.8338 1.386 17.8165 1.49C17.8035 1.58967 17.7927 1.68933 17.784 1.789C17.7753 1.87133 17.8122 1.9125 17.8945 1.9125ZM18.0765 3.9535C18.2585 3.9535 18.408 3.93833 18.525 3.908C18.6463 3.87767 18.7417 3.8365 18.811 3.7845C18.8803 3.7325 18.928 3.66967 18.954 3.596C18.98 3.52233 18.993 3.44 18.993 3.349C18.993 3.19733 18.9237 3.07167 18.785 2.972C18.6463 2.87233 18.4102 2.8225 18.0765 2.8225H17.8685C17.7818 2.8225 17.7428 2.86367 17.7515 2.946C17.7602 3.09333 17.771 3.24067 17.784 3.388C17.8013 3.531 17.8187 3.67833 17.836 3.83C17.8447 3.91233 17.8902 3.9535 17.9725 3.9535H18.0765Z" fill="black"/>
</svg>
