<svg width="20" height="6" viewBox="0 0 20 6" fill="none" xmlns="http://www.w3.org/2000/svg">
<path d="M1.404 3.31C1.25667 3.31 1.1245 3.323 1.0075 3.349C0.8905 3.375 0.7605 3.388 0.6175 3.388C0.496167 3.388 0.385667 3.349 0.286 3.271C0.190667 3.18867 0.140833 3.04567 0.1365 2.842C0.1365 2.74233 0.1495 2.65783 0.1755 2.5885C0.2015 2.51917 0.236167 2.46283 0.2795 2.4195C0.322833 2.37617 0.372667 2.34583 0.429 2.3285C0.485333 2.30683 0.543833 2.296 0.6045 2.296C0.691167 2.296 0.767 2.30033 0.832 2.309C0.901333 2.31767 0.964167 2.32633 1.0205 2.335C1.08117 2.34367 1.14183 2.35233 1.2025 2.361C1.26317 2.36967 1.33033 2.374 1.404 2.374C1.47767 2.374 1.54483 2.36967 1.6055 2.361C1.66617 2.35233 1.72467 2.34367 1.781 2.335C1.84167 2.32633 1.9045 2.31767 1.9695 2.309C2.03883 2.30033 2.11683 2.296 2.2035 2.296C2.26417 2.296 2.32267 2.30683 2.379 2.3285C2.43533 2.34583 2.48517 2.37617 2.5285 2.4195C2.57183 2.46283 2.6065 2.51917 2.6325 2.5885C2.6585 2.65783 2.6715 2.74233 2.6715 2.842C2.66717 3.04567 2.61517 3.18867 2.5155 3.271C2.42017 3.349 2.31183 3.388 2.1905 3.388C2.12117 3.388 2.054 3.38367 1.989 3.375C1.92833 3.36633 1.8655 3.35767 1.8005 3.349C1.73983 3.34033 1.677 3.33167 1.612 3.323C1.547 3.31433 1.47767 3.31 1.404 3.31ZM4.49566 2.3675C4.49566 2.22883 4.48916 2.09233 4.47616 1.958C4.46316 1.81933 4.448 1.68067 4.43066 1.542C4.383 1.56367 4.33533 1.58967 4.28766 1.62C4.24433 1.65033 4.201 1.68283 4.15766 1.7175C4.14466 1.7305 4.12083 1.7435 4.08616 1.7565C4.0515 1.76517 4.00816 1.7695 3.95616 1.7695C3.9085 1.76517 3.8565 1.74783 3.80016 1.7175C3.74816 1.68717 3.69616 1.63517 3.64416 1.5615C3.59216 1.48783 3.564 1.42067 3.55966 1.36C3.55533 1.295 3.56183 1.23867 3.57916 1.191C3.60083 1.14333 3.62466 1.10433 3.65066 1.074C3.681 1.04367 3.70266 1.02417 3.71566 1.0155C3.785 0.959166 3.85 0.913666 3.91066 0.879C3.97566 0.84 4.0385 0.796667 4.09916 0.749C4.1425 0.714333 4.17716 0.679666 4.20316 0.645C4.22916 0.606 4.25516 0.567 4.28116 0.528C4.3115 0.484667 4.344 0.441333 4.37866 0.398C4.41766 0.354666 4.4675 0.311333 4.52816 0.268C4.57583 0.224666 4.63866 0.19 4.71666 0.164C4.799 0.138 4.89866 0.125 5.01566 0.125C5.14566 0.125 5.25183 0.142333 5.33416 0.177C5.42083 0.207333 5.488 0.2485 5.53566 0.3005C5.58766 0.3525 5.62233 0.411 5.63966 0.476C5.657 0.536666 5.66566 0.597333 5.66566 0.658C5.66566 0.827 5.65916 0.985167 5.64616 1.1325C5.63316 1.27983 5.618 1.42283 5.60066 1.5615C5.58333 1.69583 5.56816 1.83017 5.55516 1.9645C5.54216 2.0945 5.53566 2.22883 5.53566 2.3675V2.7575C5.53566 2.89617 5.54216 3.03267 5.55516 3.167C5.56816 3.297 5.58333 3.43133 5.60066 3.57C5.618 3.70433 5.63316 3.84517 5.64616 3.9925C5.65916 4.13983 5.66566 4.298 5.66566 4.467C5.66566 4.52767 5.657 4.5905 5.63966 4.6555C5.62233 4.71617 5.58766 4.7725 5.53566 4.8245C5.488 4.8765 5.42083 4.91983 5.33416 4.9545C5.25183 4.98483 5.14566 5 5.01566 5C4.88133 5 4.77083 4.98267 4.68416 4.948C4.60183 4.91333 4.53683 4.87 4.48916 4.818C4.4415 4.76167 4.409 4.70317 4.39166 4.6425C4.37433 4.5775 4.36566 4.51467 4.36566 4.454C4.36566 4.30233 4.37216 4.155 4.38516 4.012C4.39816 3.869 4.41333 3.72817 4.43066 3.5895C4.448 3.4465 4.46316 3.30783 4.47616 3.1735C4.48916 3.03483 4.49566 2.89617 4.49566 2.7575V2.3675ZM6.60969 2.5625C6.60969 2.1985 6.64869 1.86267 6.72669 1.555C6.80469 1.24733 6.92385 0.983 7.08419 0.762C7.24885 0.541 7.45469 0.369833 7.70169 0.2485C7.94869 0.122833 8.24119 0.0599997 8.57919 0.0599997C8.91285 0.0599997 9.20102 0.122833 9.44369 0.2485C9.69069 0.369833 9.89435 0.541 10.0547 0.762C10.2194 0.983 10.3407 1.24733 10.4187 1.555C10.501 1.86267 10.5422 2.1985 10.5422 2.5625C10.5422 2.96983 10.5054 3.3295 10.4317 3.6415C10.3624 3.94917 10.2475 4.20917 10.0872 4.4215C9.93119 4.63383 9.72752 4.79417 9.47619 4.9025C9.22919 5.01083 8.93019 5.065 8.57919 5.065C8.22385 5.065 7.92052 5.01083 7.66919 4.9025C7.42219 4.79417 7.21852 4.63383 7.05819 4.4215C6.90219 4.20917 6.78735 3.94917 6.71369 3.6415C6.64435 3.3295 6.60969 2.96983 6.60969 2.5625ZM7.74719 2.556C7.74719 2.777 7.75802 2.9785 7.77969 3.1605C7.80569 3.33817 7.84902 3.48983 7.90969 3.6155C7.97469 3.74117 8.05919 3.83867 8.16319 3.908C8.27152 3.97733 8.41019 4.012 8.57919 4.012C8.74819 4.012 8.88469 3.97733 8.98869 3.908C9.09702 3.83867 9.18152 3.74117 9.24219 3.6155C9.30719 3.48983 9.35052 3.33817 9.37219 3.1605C9.39819 2.9785 9.41119 2.777 9.41119 2.556C9.41119 2.335 9.40252 2.12917 9.38519 1.9385C9.36785 1.74783 9.32885 1.581 9.26819 1.438C9.21185 1.295 9.12735 1.18233 9.01469 1.1C8.90635 1.01767 8.76119 0.9765 8.57919 0.9765C8.39719 0.9765 8.24985 1.01767 8.13719 1.1C8.02885 1.18233 7.94435 1.295 7.88369 1.438C7.82735 1.581 7.79052 1.74783 7.77319 1.9385C7.75585 2.12917 7.74719 2.335 7.74719 2.556ZM14.0426 1.75C14.021 1.555 13.9971 1.36 13.9711 1.165C13.9495 0.97 13.9386 0.762 13.9386 0.541C13.9386 0.480333 13.9451 0.419666 13.9581 0.359C13.9755 0.294 14.0058 0.2355 14.0491 0.1835C14.0925 0.127167 14.1531 0.0816666 14.2311 0.0469998C14.3135 0.0123331 14.4218 -0.00500026 14.5561 -0.00500026C14.6861 -0.00500026 14.7923 0.0123331 14.8746 0.0469998C14.957 0.077333 15.0198 0.1185 15.0631 0.1705C15.1065 0.2225 15.1346 0.281 15.1476 0.346C15.165 0.406667 15.1736 0.467333 15.1736 0.528C15.1736 0.697 15.1671 0.855166 15.1541 1.0025C15.1411 1.14983 15.126 1.29283 15.1086 1.4315C15.0913 1.56583 15.0761 1.70017 15.0631 1.8345C15.0501 1.9645 15.0436 2.09883 15.0436 2.2375V2.7575C15.0436 2.89617 15.0501 3.03267 15.0631 3.167C15.0761 3.297 15.0913 3.43133 15.1086 3.57C15.126 3.70433 15.1411 3.84517 15.1541 3.9925C15.1671 4.13983 15.1736 4.298 15.1736 4.467C15.1736 4.52767 15.165 4.5905 15.1476 4.6555C15.1346 4.71617 15.1065 4.7725 15.0631 4.8245C15.0198 4.8765 14.957 4.91983 14.8746 4.9545C14.7923 4.98483 14.6861 5 14.5561 5C14.3525 4.99567 14.2073 4.95883 14.1206 4.8895C14.034 4.81583 13.9798 4.73133 13.9581 4.636C13.8238 4.76167 13.6656 4.86567 13.4836 4.948C13.306 5.026 13.1045 5.065 12.8791 5.065C12.7665 5.065 12.6278 5.0455 12.4631 5.0065C12.2985 4.97183 12.1381 4.896 11.9821 4.779C11.8305 4.662 11.7005 4.49517 11.5921 4.2785C11.4838 4.0575 11.4296 3.76283 11.4296 3.3945C11.4296 3.05217 11.4686 2.75967 11.5466 2.517C11.629 2.27433 11.7373 2.075 11.8716 1.919C12.006 1.763 12.1598 1.64817 12.3331 1.5745C12.5108 1.50083 12.6928 1.464 12.8791 1.464C13.1045 1.464 13.306 1.49433 13.4836 1.555C13.6613 1.61133 13.8195 1.68933 13.9581 1.789C14.0231 1.83233 14.0513 1.81933 14.0426 1.75ZM12.4631 3.271C12.4631 3.38367 12.474 3.48983 12.4956 3.5895C12.5173 3.68917 12.5563 3.778 12.6126 3.856C12.669 3.92967 12.7448 3.99033 12.8401 4.038C12.9398 4.08133 13.0633 4.103 13.2106 4.103C13.475 4.103 13.6851 4.03583 13.8411 3.9015C13.9971 3.76283 14.0795 3.55267 14.0881 3.271C14.0925 3.128 14.0665 2.998 14.0101 2.881C13.9581 2.764 13.8888 2.66433 13.8021 2.582C13.7155 2.49967 13.6201 2.43683 13.5161 2.3935C13.4121 2.35017 13.3103 2.3285 13.2106 2.3285C12.9766 2.3285 12.7925 2.40433 12.6581 2.556C12.5281 2.70767 12.4631 2.946 12.4631 3.271ZM16.248 2.3675C16.248 2.22883 16.2415 2.09233 16.2285 1.958C16.2155 1.81933 16.2003 1.68067 16.183 1.542C16.1656 1.399 16.1505 1.256 16.1375 1.113C16.1245 0.97 16.118 0.822666 16.118 0.671C16.118 0.610333 16.1266 0.549667 16.144 0.489C16.1613 0.424 16.1938 0.3655 16.2415 0.3135C16.2935 0.257167 16.3606 0.211666 16.443 0.177C16.5296 0.142333 16.6401 0.125 16.7745 0.125H17.4245C17.7061 0.125 17.9705 0.151 18.2175 0.203C18.4688 0.250666 18.6876 0.3265 18.874 0.4305C19.0603 0.5345 19.2055 0.666667 19.3095 0.827C19.4178 0.983 19.472 1.1715 19.472 1.3925C19.472 1.5745 19.4243 1.74133 19.329 1.893C19.238 2.04467 19.1166 2.17683 18.965 2.2895C19.186 2.42817 19.3571 2.60367 19.4785 2.816C19.6041 3.02833 19.667 3.26883 19.667 3.5375C19.667 3.80617 19.6215 4.03367 19.5305 4.22C19.4438 4.40633 19.3138 4.558 19.1405 4.675C18.9671 4.78767 18.7526 4.87 18.497 4.922C18.2456 4.974 17.9531 5 17.6195 5H16.7745C16.6401 5 16.5296 4.98267 16.443 4.948C16.3606 4.91333 16.2935 4.87 16.2415 4.818C16.1938 4.76167 16.1613 4.70317 16.144 4.6425C16.1266 4.5775 16.118 4.51467 16.118 4.454C16.118 4.30233 16.1245 4.155 16.1375 4.012C16.1505 3.869 16.1656 3.72817 16.183 3.5895C16.2003 3.4465 16.2155 3.30783 16.2285 3.1735C16.2415 3.03483 16.248 2.89617 16.248 2.7575V2.3675ZM17.4375 1.9125C17.7668 1.9125 17.9986 1.88217 18.133 1.8215C18.2716 1.7565 18.341 1.633 18.341 1.451C18.341 1.38167 18.328 1.32317 18.302 1.2755C18.2803 1.2235 18.237 1.18233 18.172 1.152C18.1113 1.11733 18.029 1.09133 17.925 1.074C17.821 1.05667 17.6888 1.04583 17.5285 1.0415C17.4505 1.0415 17.4071 1.08267 17.3985 1.165C17.3898 1.27767 17.3768 1.386 17.3595 1.49C17.3465 1.58967 17.3356 1.68933 17.327 1.789C17.3183 1.87133 17.3551 1.9125 17.4375 1.9125ZM17.6195 3.9535C17.8015 3.9535 17.951 3.93833 18.068 3.908C18.1893 3.87767 18.2846 3.8365 18.354 3.7845C18.4233 3.7325 18.471 3.66967 18.497 3.596C18.523 3.52233 18.536 3.44 18.536 3.349C18.536 3.19733 18.4666 3.07167 18.328 2.972C18.1893 2.87233 17.9531 2.8225 17.6195 2.8225H17.4115C17.3248 2.8225 17.2858 2.86367 17.2945 2.946C17.3031 3.09333 17.314 3.24067 17.327 3.388C17.3443 3.531 17.3616 3.67833 17.379 3.83C17.3876 3.91233 17.4331 3.9535 17.5155 3.9535H17.6195Z" fill="black"/>
</svg>
