<svg width="16" height="8" viewBox="0 0 16 8" fill="none" xmlns="http://www.w3.org/2000/svg">
<path d="M0.16 4C0.16 3.552 0.208 3.13867 0.304 2.76C0.4 2.38133 0.546667 2.056 0.744 1.784C0.946667 1.512 1.2 1.30133 1.504 1.152C1.808 0.997333 2.168 0.92 2.584 0.92C2.99467 0.92 3.34933 0.997333 3.648 1.152C3.952 1.30133 4.20267 1.512 4.4 1.784C4.60267 2.056 4.752 2.38133 4.848 2.76C4.94933 3.13867 5 3.552 5 4C5 4.50133 4.95467 4.944 4.864 5.328C4.77867 5.70667 4.63733 6.02667 4.44 6.288C4.248 6.54933 3.99733 6.74667 3.688 6.88C3.384 7.01333 3.016 7.08 2.584 7.08C2.14667 7.08 1.77333 7.01333 1.464 6.88C1.16 6.74667 0.909333 6.54933 0.712 6.288C0.52 6.02667 0.378667 5.70667 0.288 5.328C0.202667 4.944 0.16 4.50133 0.16 4ZM1.56 3.992C1.56 4.264 1.57333 4.512 1.6 4.736C1.632 4.95467 1.68533 5.14133 1.76 5.296C1.84 5.45067 1.944 5.57067 2.072 5.656C2.20533 5.74133 2.376 5.784 2.584 5.784C2.792 5.784 2.96 5.74133 3.088 5.656C3.22133 5.57067 3.32533 5.45067 3.4 5.296C3.48 5.14133 3.53333 4.95467 3.56 4.736C3.592 4.512 3.608 4.264 3.608 3.992C3.608 3.72 3.59733 3.46667 3.576 3.232C3.55467 2.99733 3.50667 2.792 3.432 2.616C3.36267 2.44 3.25867 2.30133 3.12 2.2C2.98667 2.09867 2.808 2.048 2.584 2.048C2.36 2.048 2.17867 2.09867 2.04 2.2C1.90667 2.30133 1.80267 2.44 1.728 2.616C1.65867 2.792 1.61333 2.99733 1.592 3.232C1.57067 3.46667 1.56 3.72 1.56 3.992ZM7.68425 5.344C7.70025 5.49867 7.71625 5.65867 7.73225 5.824C7.74825 5.984 7.75625 6.15733 7.75625 6.344C7.75625 6.41867 7.74558 6.496 7.72425 6.576C7.70292 6.65067 7.66292 6.72 7.60425 6.784C7.54558 6.848 7.46558 6.90133 7.36425 6.944C7.26292 6.98133 7.13492 7 6.98025 7C6.75092 7 6.55625 6.94933 6.39625 6.848C6.23625 6.74667 6.15625 6.57333 6.15625 6.328C6.15625 6.14133 6.16425 5.96 6.18025 5.784C6.19625 5.608 6.21492 5.43467 6.23625 5.264C6.25758 5.088 6.27625 4.91733 6.29225 4.752C6.30825 4.58133 6.31625 4.41067 6.31625 4.24V3.76C6.31625 3.58933 6.30825 3.42133 6.29225 3.256C6.27625 3.08533 6.25758 2.91467 6.23625 2.744C6.21492 2.568 6.19625 2.392 6.18025 2.216C6.16425 2.04 6.15625 1.85867 6.15625 1.672C6.15625 1.54933 6.17758 1.44533 6.22025 1.36C6.26292 1.27467 6.32158 1.20533 6.39625 1.152C6.47092 1.09867 6.55892 1.06133 6.66025 1.04C6.76158 1.01333 6.86825 1 6.98025 1C7.13492 1 7.26292 1.02133 7.36425 1.064C7.46558 1.10133 7.54558 1.152 7.60425 1.216C7.66292 1.28 7.70292 1.352 7.72425 1.432C7.74558 1.50667 7.75625 1.58133 7.75625 1.656C7.75625 1.864 7.74825 2.05867 7.73225 2.24C7.71625 2.42133 7.69758 2.59733 7.67625 2.768C7.65492 2.93333 7.63625 3.09867 7.62025 3.264C7.60425 3.424 7.59625 3.58933 7.59625 3.76V3.928C7.59625 4.02933 7.64692 4.08533 7.74825 4.096C7.78558 4.10133 7.82558 4.104 7.86825 4.104C7.91092 4.104 7.95358 4.104 7.99625 4.104H8.31625C8.38025 4.104 8.43892 4.104 8.49225 4.104C8.54558 4.09867 8.59625 4.09333 8.64425 4.088C8.74558 4.07733 8.79625 4.02133 8.79625 3.92V3.76C8.79625 3.58933 8.78825 3.42133 8.77225 3.256C8.75625 3.08533 8.73758 2.91467 8.71625 2.744C8.69492 2.568 8.67625 2.392 8.66025 2.216C8.64425 2.04 8.63625 1.85867 8.63625 1.672C8.63625 1.54933 8.65758 1.44533 8.70025 1.36C8.74292 1.27467 8.80158 1.20533 8.87625 1.152C8.95092 1.09867 9.03892 1.06133 9.14025 1.04C9.24158 1.01333 9.34825 1 9.46025 1C9.61492 1 9.74292 1.02133 9.84425 1.064C9.94558 1.10133 10.0256 1.152 10.0843 1.216C10.1429 1.28 10.1829 1.352 10.2043 1.432C10.2256 1.50667 10.2363 1.58133 10.2363 1.656C10.2363 1.864 10.2283 2.05867 10.2123 2.24C10.1963 2.42133 10.1776 2.59733 10.1563 2.768C10.1349 2.93333 10.1163 3.09867 10.1003 3.264C10.0843 3.424 10.0763 3.58933 10.0763 3.76V4.24C10.0763 4.41067 10.0843 4.57867 10.1003 4.744C10.1163 4.904 10.1349 5.06933 10.1563 5.24C10.1776 5.40533 10.1963 5.57867 10.2123 5.76C10.2283 5.94133 10.2363 6.136 10.2363 6.344C10.2363 6.41867 10.2256 6.496 10.2043 6.576C10.1829 6.65067 10.1429 6.72 10.0843 6.784C10.0256 6.848 9.94558 6.90133 9.84425 6.944C9.74292 6.98133 9.61492 7 9.46025 7C9.23092 7 9.03625 6.94933 8.87625 6.848C8.71625 6.74667 8.63625 6.57333 8.63625 6.328C8.63625 6.15733 8.64425 5.992 8.66025 5.832C8.67625 5.66667 8.69225 5.50667 8.70825 5.352C8.71892 5.25067 8.67358 5.19467 8.57225 5.184C8.52958 5.17867 8.48692 5.176 8.44425 5.176C8.40692 5.176 8.36425 5.176 8.31625 5.176H7.99625C7.96425 5.176 7.93225 5.17867 7.90025 5.184C7.87358 5.184 7.84692 5.184 7.82025 5.184C7.71892 5.19467 7.67358 5.248 7.68425 5.344ZM13.0888 3.784C12.9075 3.784 12.7315 3.80267 12.5608 3.84C12.3955 3.87733 12.2248 3.896 12.0488 3.896C11.9741 3.896 11.9021 3.888 11.8328 3.872C11.7635 3.856 11.6995 3.82667 11.6408 3.784C11.5875 3.74133 11.5421 3.68267 11.5048 3.608C11.4728 3.528 11.4568 3.42667 11.4568 3.304C11.4568 3.18133 11.4728 3.08267 11.5048 3.008C11.5368 2.928 11.5795 2.86667 11.6328 2.824C11.6861 2.78133 11.7475 2.752 11.8168 2.736C11.8861 2.72 11.9581 2.712 12.0328 2.712C12.1395 2.712 12.2381 2.71733 12.3288 2.728C12.4195 2.73867 12.5048 2.752 12.5848 2.768C12.6701 2.784 12.7528 2.79733 12.8328 2.808C12.9181 2.81867 13.0061 2.824 13.0968 2.824H13.4968C13.5875 2.824 13.6728 2.81867 13.7528 2.808C13.8381 2.79733 13.9208 2.784 14.0008 2.768C14.0861 2.752 14.1741 2.73867 14.2648 2.728C14.3555 2.71733 14.4541 2.712 14.5608 2.712C14.6355 2.712 14.7021 2.72 14.7608 2.736C14.8248 2.752 14.8781 2.78133 14.9208 2.824C14.9688 2.86667 15.0035 2.928 15.0248 3.008C15.0461 3.08267 15.0568 3.18133 15.0568 3.304C15.0568 3.45867 15.0381 3.576 15.0008 3.656C14.9635 3.752 14.9075 3.84533 14.8328 3.936C14.6888 4.112 14.5315 4.272 14.3608 4.416C14.1955 4.56 14.0355 4.72533 13.8808 4.912L13.4248 5.472C13.3821 5.52533 13.3475 5.57067 13.3208 5.608C13.2408 5.71467 13.2675 5.768 13.4008 5.768H13.4968C13.5875 5.768 13.6728 5.76267 13.7528 5.752C13.8381 5.74133 13.9208 5.728 14.0008 5.712C14.0861 5.696 14.1741 5.68267 14.2648 5.672C14.3555 5.66133 14.4541 5.656 14.5608 5.656C14.6355 5.656 14.7075 5.66933 14.7768 5.696C14.8461 5.71733 14.9075 5.75467 14.9608 5.808C15.0141 5.86133 15.0568 5.93067 15.0888 6.016C15.1208 6.10133 15.1368 6.20533 15.1368 6.328C15.1315 6.57867 15.0675 6.75467 14.9448 6.856C14.8275 6.952 14.6941 7 14.5448 7C14.3688 7 14.1955 6.98133 14.0248 6.944C13.8595 6.90667 13.6835 6.888 13.4968 6.888H12.9368C12.7501 6.888 12.5715 6.90667 12.4008 6.944C12.2355 6.98133 12.0648 7 11.8888 7C11.7395 7 11.6168 6.952 11.5208 6.856C11.4301 6.75467 11.3821 6.57867 11.3768 6.328C11.3715 6.17867 11.3875 6.056 11.4248 5.96C11.4621 5.864 11.5128 5.792 11.5768 5.744C11.5821 5.73333 11.5928 5.72 11.6088 5.704C11.6941 5.59733 11.7768 5.504 11.8568 5.424C11.9421 5.344 12.0221 5.26667 12.0968 5.192C12.1768 5.11733 12.2541 5.04267 12.3288 4.968C12.4088 4.89333 12.4861 4.81067 12.5608 4.72L13.0168 4.16C13.0435 4.12267 13.0701 4.088 13.0968 4.056C13.1235 4.01867 13.1501 3.98133 13.1768 3.944C13.2461 3.83733 13.2168 3.784 13.0888 3.784Z" fill="black"/>
</svg>
