<svg width="16" height="8" viewBox="0 0 16 8" fill="none" xmlns="http://www.w3.org/2000/svg">
<path fill-rule="evenodd" clip-rule="evenodd" d="M16 0H0V8H16V0ZM0.664156 2.76C0.568156 3.13867 0.520156 3.552 0.520156 4C0.520156 4.50133 0.562823 4.944 0.648156 5.328C0.738823 5.70667 0.880156 6.02667 1.07216 6.288C1.26949 6.54933 1.52016 6.74667 1.82416 6.88C2.13349 7.01333 2.50682 7.08 2.94416 7.08C3.37616 7.08 3.74416 7.01333 4.04816 6.88C4.35749 6.74667 4.60816 6.54933 4.80016 6.288C4.99749 6.02667 5.13882 5.70667 5.22416 5.328C5.31482 4.944 5.36016 4.50133 5.36016 4C5.36016 3.552 5.30949 3.13867 5.20816 2.76C5.11216 2.38133 4.96282 2.056 4.76016 1.784C4.56282 1.512 4.31216 1.30133 4.00816 1.152C3.70949 0.997333 3.35482 0.92 2.94416 0.92C2.52816 0.92 2.16816 0.997333 1.86416 1.152C1.56016 1.30133 1.30682 1.512 1.10416 1.784C0.906823 2.056 0.760156 2.38133 0.664156 2.76ZM1.96016 4.736C1.93349 4.512 1.92016 4.264 1.92016 3.992C1.92016 3.72 1.93082 3.46667 1.95216 3.232C1.97349 2.99733 2.01882 2.792 2.08816 2.616C2.16282 2.44 2.26682 2.30133 2.40016 2.2C2.53882 2.09867 2.72016 2.048 2.94416 2.048C3.16816 2.048 3.34682 2.09867 3.48016 2.2C3.61882 2.30133 3.72282 2.44 3.79216 2.616C3.86682 2.792 3.91482 2.99733 3.93616 3.232C3.95749 3.46667 3.96816 3.72 3.96816 3.992C3.96816 4.264 3.95216 4.512 3.92016 4.736C3.89349 4.95467 3.84016 5.14133 3.76016 5.296C3.68549 5.45067 3.58149 5.57067 3.44816 5.656C3.32016 5.74133 3.15216 5.784 2.94416 5.784C2.73616 5.784 2.56549 5.74133 2.43216 5.656C2.30416 5.57067 2.20016 5.45067 2.12016 5.296C2.04549 5.14133 1.99216 4.95467 1.96016 4.736ZM8.09241 5.824C8.07641 5.65867 8.06041 5.49867 8.04441 5.344C8.03374 5.248 8.07907 5.19467 8.18041 5.184H8.26041C8.29241 5.17867 8.32441 5.176 8.35641 5.176H8.67641H8.80441C8.84707 5.176 8.88974 5.17867 8.93241 5.184C9.03374 5.19467 9.07907 5.25067 9.06841 5.352C9.05241 5.50667 9.03641 5.66667 9.02041 5.832C9.00441 5.992 8.99641 6.15733 8.99641 6.328C8.99641 6.57333 9.07641 6.74667 9.23641 6.848C9.39641 6.94933 9.59107 7 9.82041 7C9.97507 7 10.1031 6.98133 10.2044 6.944C10.3057 6.90133 10.3857 6.848 10.4444 6.784C10.5031 6.72 10.5431 6.65067 10.5644 6.576C10.5857 6.496 10.5964 6.41867 10.5964 6.344C10.5964 6.136 10.5884 5.94133 10.5724 5.76C10.5564 5.57867 10.5377 5.40533 10.5164 5.24C10.4951 5.06933 10.4764 4.904 10.4604 4.744C10.4444 4.57867 10.4364 4.41067 10.4364 4.24V3.76C10.4364 3.58933 10.4444 3.424 10.4604 3.264C10.4764 3.09867 10.4951 2.93333 10.5164 2.768C10.5377 2.59733 10.5564 2.42133 10.5724 2.24C10.5884 2.05867 10.5964 1.864 10.5964 1.656C10.5964 1.58133 10.5857 1.50667 10.5644 1.432C10.5431 1.352 10.5031 1.28 10.4444 1.216C10.3857 1.152 10.3057 1.10133 10.2044 1.064C10.1031 1.02133 9.97507 1 9.82041 1C9.70841 1 9.60174 1.01333 9.50041 1.04C9.39907 1.06133 9.31107 1.09867 9.23641 1.152C9.16174 1.20533 9.10307 1.27467 9.06041 1.36C9.01774 1.44533 8.99641 1.54933 8.99641 1.672C8.99641 1.85867 9.00441 2.04 9.02041 2.216C9.03641 2.392 9.05507 2.568 9.07641 2.744C9.09774 2.91467 9.11641 3.08533 9.13241 3.256C9.14841 3.42133 9.15641 3.58933 9.15641 3.76V3.92C9.15641 4.02133 9.10574 4.07733 9.00441 4.088C8.95641 4.09333 8.90574 4.09867 8.85241 4.104H8.67641H8.35641H8.22841C8.18574 4.104 8.14574 4.10133 8.10841 4.096C8.00707 4.08533 7.95641 4.02933 7.95641 3.928V3.76C7.95641 3.58933 7.96441 3.424 7.98041 3.264C7.99641 3.09867 8.01507 2.93333 8.03641 2.768C8.05774 2.59733 8.07641 2.42133 8.09241 2.24C8.10841 2.05867 8.11641 1.864 8.11641 1.656C8.11641 1.58133 8.10574 1.50667 8.08441 1.432C8.06307 1.352 8.02307 1.28 7.96441 1.216C7.90574 1.152 7.82574 1.10133 7.72441 1.064C7.62307 1.02133 7.49507 1 7.34041 1C7.22841 1 7.12174 1.01333 7.02041 1.04C6.91907 1.06133 6.83107 1.09867 6.75641 1.152C6.68174 1.20533 6.62307 1.27467 6.58041 1.36C6.53774 1.44533 6.51641 1.54933 6.51641 1.672C6.51641 1.85867 6.52441 2.04 6.54041 2.216C6.55641 2.392 6.57507 2.568 6.59641 2.744C6.61774 2.91467 6.63641 3.08533 6.65241 3.256C6.66841 3.42133 6.67641 3.58933 6.67641 3.76V4.24C6.67641 4.41067 6.66841 4.58133 6.65241 4.752C6.63641 4.91733 6.61774 5.088 6.59641 5.264C6.57507 5.43467 6.55641 5.608 6.54041 5.784C6.52441 5.96 6.51641 6.14133 6.51641 6.328C6.51641 6.57333 6.59641 6.74667 6.75641 6.848C6.91641 6.94933 7.11107 7 7.34041 7C7.49507 7 7.62307 6.98133 7.72441 6.944C7.82574 6.90133 7.90574 6.848 7.96441 6.784C8.02307 6.72 8.06307 6.65067 8.08441 6.576C8.10574 6.496 8.11641 6.41867 8.11641 6.344C8.11641 6.15733 8.10841 5.984 8.09241 5.824ZM12.921 3.84C13.0916 3.80267 13.2676 3.784 13.449 3.784C13.577 3.784 13.6063 3.83733 13.537 3.944L13.457 4.056C13.4303 4.088 13.4036 4.12267 13.377 4.16L12.921 4.72C12.8463 4.81067 12.769 4.89333 12.689 4.968C12.6143 5.04267 12.537 5.11733 12.457 5.192C12.3823 5.26667 12.3023 5.344 12.217 5.424C12.137 5.504 12.0543 5.59733 11.969 5.704C11.953 5.72 11.9423 5.73333 11.937 5.744C11.873 5.792 11.8223 5.864 11.785 5.96C11.7476 6.056 11.7316 6.17867 11.737 6.328C11.7423 6.57867 11.7903 6.75467 11.881 6.856C11.977 6.952 12.0996 7 12.249 7C12.425 7 12.5956 6.98133 12.761 6.944C12.9316 6.90667 13.1103 6.888 13.297 6.888H13.857C14.0436 6.888 14.2196 6.90667 14.385 6.944C14.5556 6.98133 14.729 7 14.905 7C15.0543 7 15.1876 6.952 15.305 6.856C15.4276 6.75467 15.4916 6.57867 15.497 6.328C15.497 6.20533 15.481 6.10133 15.449 6.016C15.417 5.93067 15.3743 5.86133 15.321 5.808C15.2676 5.75467 15.2063 5.71733 15.137 5.696C15.0676 5.66933 14.9956 5.656 14.921 5.656C14.8143 5.656 14.7156 5.66133 14.625 5.672C14.5343 5.68267 14.4463 5.696 14.361 5.712C14.281 5.728 14.1983 5.74133 14.113 5.752C14.033 5.76267 13.9476 5.768 13.857 5.768H13.761C13.6276 5.768 13.601 5.71467 13.681 5.608C13.7076 5.57067 13.7423 5.52533 13.785 5.472L14.241 4.912C14.3956 4.72533 14.5556 4.56 14.721 4.416C14.8916 4.272 15.049 4.112 15.193 3.936C15.2676 3.84533 15.3236 3.752 15.361 3.656C15.3983 3.576 15.417 3.45867 15.417 3.304C15.417 3.18133 15.4063 3.08267 15.385 3.008C15.3636 2.928 15.329 2.86667 15.281 2.824C15.2383 2.78133 15.185 2.752 15.121 2.736C15.0623 2.72 14.9956 2.712 14.921 2.712C14.8143 2.712 14.7156 2.71733 14.625 2.728C14.5343 2.73867 14.4463 2.752 14.361 2.768C14.281 2.784 14.1983 2.79733 14.113 2.808C14.033 2.81867 13.9476 2.824 13.857 2.824H13.457C13.3663 2.824 13.2783 2.81867 13.193 2.808C13.113 2.79733 13.0303 2.784 12.945 2.768C12.865 2.752 12.7796 2.73867 12.689 2.728C12.5983 2.71733 12.4996 2.712 12.393 2.712C12.3183 2.712 12.2463 2.72 12.177 2.736C12.1076 2.752 12.0463 2.78133 11.993 2.824C11.9396 2.86667 11.897 2.928 11.865 3.008C11.833 3.08267 11.817 3.18133 11.817 3.304C11.817 3.42667 11.833 3.528 11.865 3.608C11.9023 3.68267 11.9476 3.74133 12.001 3.784C12.0596 3.82667 12.1236 3.856 12.193 3.872C12.2623 3.888 12.3343 3.896 12.409 3.896C12.585 3.896 12.7556 3.87733 12.921 3.84Z" fill="black"/>
</svg>
