<svg width="31" height="8" viewBox="0 0 31 8" fill="none" xmlns="http://www.w3.org/2000/svg">
<path d="M1.28 3.76C1.28 3.58933 1.272 3.42133 1.256 3.256C1.24 3.08533 1.22133 2.91467 1.2 2.744C1.14133 2.77067 1.08267 2.80267 1.024 2.84C0.970667 2.87733 0.917333 2.91733 0.864 2.96C0.848 2.976 0.818667 2.992 0.776 3.008C0.733333 3.01867 0.68 3.024 0.616 3.024C0.557333 3.01867 0.493333 2.99733 0.424 2.96C0.36 2.92267 0.296 2.85867 0.232 2.768C0.168 2.67733 0.133333 2.59467 0.128 2.52C0.122667 2.44 0.130667 2.37067 0.152 2.312C0.178667 2.25333 0.208 2.20533 0.24 2.168C0.277333 2.13067 0.304 2.10667 0.32 2.096C0.405333 2.02667 0.485333 1.97067 0.56 1.928C0.64 1.88 0.717333 1.82667 0.792 1.768C0.845333 1.72533 0.888 1.68267 0.92 1.64C0.952 1.592 0.984 1.544 1.016 1.496C1.05333 1.44267 1.09333 1.38933 1.136 1.336C1.184 1.28267 1.24533 1.22933 1.32 1.176C1.37867 1.12267 1.456 1.08 1.552 1.048C1.65333 1.016 1.776 1 1.92 1C2.08 1 2.21067 1.02133 2.312 1.064C2.41867 1.10133 2.50133 1.152 2.56 1.216C2.624 1.28 2.66667 1.352 2.688 1.432C2.70933 1.50667 2.72 1.58133 2.72 1.656C2.72 1.864 2.712 2.05867 2.696 2.24C2.68 2.42133 2.66133 2.59733 2.64 2.768C2.61867 2.93333 2.6 3.09867 2.584 3.264C2.568 3.424 2.56 3.58933 2.56 3.76V4.24C2.56 4.41067 2.568 4.57867 2.584 4.744C2.6 4.904 2.61867 5.06933 2.64 5.24C2.66133 5.40533 2.68 5.57867 2.696 5.76C2.712 5.94133 2.72 6.136 2.72 6.344C2.72 6.41867 2.70933 6.496 2.688 6.576C2.66667 6.65067 2.624 6.72 2.56 6.784C2.50133 6.848 2.41867 6.90133 2.312 6.944C2.21067 6.98133 2.08 7 1.92 7C1.75467 7 1.61867 6.97867 1.512 6.936C1.41067 6.89333 1.33067 6.84 1.272 6.776C1.21333 6.70667 1.17333 6.63467 1.152 6.56C1.13067 6.48 1.12 6.40267 1.12 6.328C1.12 6.14133 1.128 5.96 1.144 5.784C1.16 5.608 1.17867 5.43467 1.2 5.264C1.22133 5.088 1.24 4.91733 1.256 4.752C1.272 4.58133 1.28 4.41067 1.28 4.24V3.76ZM3.88187 4C3.88187 3.552 3.92987 3.13867 4.02587 2.76C4.12187 2.38133 4.26854 2.056 4.46587 1.784C4.66854 1.512 4.92188 1.30133 5.22588 1.152C5.52988 0.997333 5.88988 0.92 6.30588 0.92C6.71654 0.92 7.07121 0.997333 7.36988 1.152C7.67388 1.30133 7.92454 1.512 8.12188 1.784C8.32454 2.056 8.47387 2.38133 8.56988 2.76C8.67121 3.13867 8.72187 3.552 8.72187 4C8.72187 4.50133 8.67654 4.944 8.58588 5.328C8.50054 5.70667 8.35921 6.02667 8.16188 6.288C7.96988 6.54933 7.71921 6.74667 7.40988 6.88C7.10588 7.01333 6.73788 7.08 6.30588 7.08C5.86854 7.08 5.49521 7.01333 5.18588 6.88C4.88187 6.74667 4.63121 6.54933 4.43387 6.288C4.24187 6.02667 4.10054 5.70667 4.00987 5.328C3.92454 4.944 3.88187 4.50133 3.88187 4ZM5.28188 3.992C5.28188 4.264 5.29521 4.512 5.32187 4.736C5.35388 4.95467 5.40721 5.14133 5.48188 5.296C5.56188 5.45067 5.66588 5.57067 5.79387 5.656C5.92721 5.74133 6.09788 5.784 6.30588 5.784C6.51388 5.784 6.68188 5.74133 6.80988 5.656C6.94321 5.57067 7.04721 5.45067 7.12188 5.296C7.20188 5.14133 7.25521 4.95467 7.28188 4.736C7.31388 4.512 7.32988 4.264 7.32988 3.992C7.32988 3.72 7.31921 3.46667 7.29788 3.232C7.27654 2.99733 7.22854 2.792 7.15388 2.616C7.08454 2.44 6.98054 2.30133 6.84188 2.2C6.70854 2.09867 6.52988 2.048 6.30588 2.048C6.08188 2.048 5.90054 2.09867 5.76188 2.2C5.62854 2.30133 5.52454 2.44 5.44987 2.616C5.38054 2.792 5.33521 2.99733 5.31388 3.232C5.29254 3.46667 5.28188 3.72 5.28188 3.992ZM9.83813 4C9.83813 3.552 9.88613 3.13867 9.98213 2.76C10.0781 2.38133 10.2248 2.056 10.4221 1.784C10.6248 1.512 10.8781 1.30133 11.1821 1.152C11.4861 0.997333 11.8461 0.92 12.2621 0.92C12.6728 0.92 13.0275 0.997333 13.3261 1.152C13.6301 1.30133 13.8808 1.512 14.0781 1.784C14.2808 2.056 14.4301 2.38133 14.5261 2.76C14.6275 3.13867 14.6781 3.552 14.6781 4C14.6781 4.50133 14.6328 4.944 14.5421 5.328C14.4568 5.70667 14.3155 6.02667 14.1181 6.288C13.9261 6.54933 13.6755 6.74667 13.3661 6.88C13.0621 7.01333 12.6941 7.08 12.2621 7.08C11.8248 7.08 11.4515 7.01333 11.1421 6.88C10.8381 6.74667 10.5875 6.54933 10.3901 6.288C10.1981 6.02667 10.0568 5.70667 9.96613 5.328C9.88079 4.944 9.83813 4.50133 9.83813 4ZM11.2381 3.992C11.2381 4.264 11.2515 4.512 11.2781 4.736C11.3101 4.95467 11.3635 5.14133 11.4381 5.296C11.5181 5.45067 11.6221 5.57067 11.7501 5.656C11.8835 5.74133 12.0541 5.784 12.2621 5.784C12.4701 5.784 12.6381 5.74133 12.7661 5.656C12.8995 5.57067 13.0035 5.45067 13.0781 5.296C13.1581 5.14133 13.2115 4.95467 13.2381 4.736C13.2701 4.512 13.2861 4.264 13.2861 3.992C13.2861 3.72 13.2755 3.46667 13.2541 3.232C13.2328 2.99733 13.1848 2.792 13.1101 2.616C13.0408 2.44 12.9368 2.30133 12.7981 2.2C12.6648 2.09867 12.4861 2.048 12.2621 2.048C12.0381 2.048 11.8568 2.09867 11.7181 2.2C11.5848 2.30133 11.4808 2.44 11.4061 2.616C11.3368 2.792 11.2915 2.99733 11.2701 3.232C11.2488 3.46667 11.2381 3.72 11.2381 3.992ZM15.7944 4C15.7944 3.552 15.8424 3.13867 15.9384 2.76C16.0344 2.38133 16.181 2.056 16.3784 1.784C16.581 1.512 16.8344 1.30133 17.1384 1.152C17.4424 0.997333 17.8024 0.92 18.2184 0.92C18.629 0.92 18.9837 0.997333 19.2824 1.152C19.5864 1.30133 19.837 1.512 20.0344 1.784C20.237 2.056 20.3864 2.38133 20.4824 2.76C20.5837 3.13867 20.6344 3.552 20.6344 4C20.6344 4.50133 20.589 4.944 20.4984 5.328C20.413 5.70667 20.2717 6.02667 20.0744 6.288C19.8824 6.54933 19.6317 6.74667 19.3224 6.88C19.0184 7.01333 18.6504 7.08 18.2184 7.08C17.781 7.08 17.4077 7.01333 17.0984 6.88C16.7944 6.74667 16.5437 6.54933 16.3464 6.288C16.1544 6.02667 16.013 5.70667 15.9224 5.328C15.837 4.944 15.7944 4.50133 15.7944 4ZM17.1944 3.992C17.1944 4.264 17.2077 4.512 17.2344 4.736C17.2664 4.95467 17.3197 5.14133 17.3944 5.296C17.4744 5.45067 17.5784 5.57067 17.7064 5.656C17.8397 5.74133 18.0104 5.784 18.2184 5.784C18.4264 5.784 18.5944 5.74133 18.7224 5.656C18.8557 5.57067 18.9597 5.45067 19.0344 5.296C19.1144 5.14133 19.1677 4.95467 19.1944 4.736C19.2264 4.512 19.2424 4.264 19.2424 3.992C19.2424 3.72 19.2317 3.46667 19.2104 3.232C19.189 2.99733 19.141 2.792 19.0664 2.616C18.997 2.44 18.893 2.30133 18.7544 2.2C18.621 2.09867 18.4424 2.048 18.2184 2.048C17.9944 2.048 17.813 2.09867 17.6744 2.2C17.541 2.30133 17.437 2.44 17.3624 2.616C17.293 2.792 17.2477 2.99733 17.2264 3.232C17.205 3.46667 17.1944 3.72 17.1944 3.992ZM23.3186 5.344C23.3346 5.49867 23.3506 5.65867 23.3666 5.824C23.3826 5.984 23.3906 6.15733 23.3906 6.344C23.3906 6.41867 23.38 6.496 23.3586 6.576C23.3373 6.65067 23.2973 6.72 23.2386 6.784C23.18 6.848 23.1 6.90133 22.9986 6.944C22.8973 6.98133 22.7693 7 22.6146 7C22.3853 7 22.1906 6.94933 22.0306 6.848C21.8706 6.74667 21.7906 6.57333 21.7906 6.328C21.7906 6.14133 21.7986 5.96 21.8146 5.784C21.8306 5.608 21.8493 5.43467 21.8706 5.264C21.892 5.088 21.9106 4.91733 21.9266 4.752C21.9426 4.58133 21.9506 4.41067 21.9506 4.24V3.76C21.9506 3.58933 21.9426 3.42133 21.9266 3.256C21.9106 3.08533 21.892 2.91467 21.8706 2.744C21.8493 2.568 21.8306 2.392 21.8146 2.216C21.7986 2.04 21.7906 1.85867 21.7906 1.672C21.7906 1.54933 21.812 1.44533 21.8546 1.36C21.8973 1.27467 21.956 1.20533 22.0306 1.152C22.1053 1.09867 22.1933 1.06133 22.2946 1.04C22.396 1.01333 22.5026 1 22.6146 1C22.7693 1 22.8973 1.02133 22.9986 1.064C23.1 1.10133 23.18 1.152 23.2386 1.216C23.2973 1.28 23.3373 1.352 23.3586 1.432C23.38 1.50667 23.3906 1.58133 23.3906 1.656C23.3906 1.864 23.3826 2.05867 23.3666 2.24C23.3506 2.42133 23.332 2.59733 23.3106 2.768C23.2893 2.93333 23.2706 3.09867 23.2546 3.264C23.2386 3.424 23.2306 3.58933 23.2306 3.76V3.928C23.2306 4.02933 23.2813 4.08533 23.3826 4.096C23.42 4.10133 23.46 4.104 23.5026 4.104C23.5453 4.104 23.588 4.104 23.6306 4.104H23.9506C24.0146 4.104 24.0733 4.104 24.1266 4.104C24.18 4.09867 24.2306 4.09333 24.2786 4.088C24.38 4.07733 24.4306 4.02133 24.4306 3.92V3.76C24.4306 3.58933 24.4226 3.42133 24.4066 3.256C24.3906 3.08533 24.372 2.91467 24.3506 2.744C24.3293 2.568 24.3106 2.392 24.2946 2.216C24.2786 2.04 24.2706 1.85867 24.2706 1.672C24.2706 1.54933 24.292 1.44533 24.3346 1.36C24.3773 1.27467 24.436 1.20533 24.5106 1.152C24.5853 1.09867 24.6733 1.06133 24.7746 1.04C24.876 1.01333 24.9826 1 25.0946 1C25.2493 1 25.3773 1.02133 25.4786 1.064C25.58 1.10133 25.66 1.152 25.7186 1.216C25.7773 1.28 25.8173 1.352 25.8386 1.432C25.86 1.50667 25.8706 1.58133 25.8706 1.656C25.8706 1.864 25.8626 2.05867 25.8466 2.24C25.8306 2.42133 25.812 2.59733 25.7906 2.768C25.7693 2.93333 25.7506 3.09867 25.7346 3.264C25.7186 3.424 25.7106 3.58933 25.7106 3.76V4.24C25.7106 4.41067 25.7186 4.57867 25.7346 4.744C25.7506 4.904 25.7693 5.06933 25.7906 5.24C25.812 5.40533 25.8306 5.57867 25.8466 5.76C25.8626 5.94133 25.8706 6.136 25.8706 6.344C25.8706 6.41867 25.86 6.496 25.8386 6.576C25.8173 6.65067 25.7773 6.72 25.7186 6.784C25.66 6.848 25.58 6.90133 25.4786 6.944C25.3773 6.98133 25.2493 7 25.0946 7C24.8653 7 24.6706 6.94933 24.5106 6.848C24.3506 6.74667 24.2706 6.57333 24.2706 6.328C24.2706 6.15733 24.2786 5.992 24.2946 5.832C24.3106 5.66667 24.3266 5.50667 24.3426 5.352C24.3533 5.25067 24.308 5.19467 24.2066 5.184C24.164 5.17867 24.1213 5.176 24.0786 5.176C24.0413 5.176 23.9986 5.176 23.9506 5.176H23.6306C23.5986 5.176 23.5666 5.17867 23.5346 5.184C23.508 5.184 23.4813 5.184 23.4546 5.184C23.3533 5.19467 23.308 5.248 23.3186 5.344ZM28.7232 3.784C28.5419 3.784 28.3659 3.80267 28.1952 3.84C28.0299 3.87733 27.8592 3.896 27.6832 3.896C27.6085 3.896 27.5365 3.888 27.4672 3.872C27.3979 3.856 27.3339 3.82667 27.2752 3.784C27.2219 3.74133 27.1765 3.68267 27.1392 3.608C27.1072 3.528 27.0912 3.42667 27.0912 3.304C27.0912 3.18133 27.1072 3.08267 27.1392 3.008C27.1712 2.928 27.2139 2.86667 27.2672 2.824C27.3205 2.78133 27.3819 2.752 27.4512 2.736C27.5205 2.72 27.5925 2.712 27.6672 2.712C27.7739 2.712 27.8725 2.71733 27.9632 2.728C28.0539 2.73867 28.1392 2.752 28.2192 2.768C28.3045 2.784 28.3872 2.79733 28.4672 2.808C28.5525 2.81867 28.6405 2.824 28.7312 2.824H29.1312C29.2219 2.824 29.3072 2.81867 29.3872 2.808C29.4725 2.79733 29.5552 2.784 29.6352 2.768C29.7205 2.752 29.8085 2.73867 29.8992 2.728C29.9899 2.71733 30.0885 2.712 30.1952 2.712C30.2699 2.712 30.3365 2.72 30.3952 2.736C30.4592 2.752 30.5125 2.78133 30.5552 2.824C30.6032 2.86667 30.6379 2.928 30.6592 3.008C30.6805 3.08267 30.6912 3.18133 30.6912 3.304C30.6912 3.45867 30.6725 3.576 30.6352 3.656C30.5979 3.752 30.5419 3.84533 30.4672 3.936C30.3232 4.112 30.1659 4.272 29.9952 4.416C29.8299 4.56 29.6699 4.72533 29.5152 4.912L29.0592 5.472C29.0165 5.52533 28.9819 5.57067 28.9552 5.608C28.8752 5.71467 28.9019 5.768 29.0352 5.768H29.1312C29.2219 5.768 29.3072 5.76267 29.3872 5.752C29.4725 5.74133 29.5552 5.728 29.6352 5.712C29.7205 5.696 29.8085 5.68267 29.8992 5.672C29.9899 5.66133 30.0885 5.656 30.1952 5.656C30.2699 5.656 30.3419 5.66933 30.4112 5.696C30.4805 5.71733 30.5419 5.75467 30.5952 5.808C30.6485 5.86133 30.6912 5.93067 30.7232 6.016C30.7552 6.10133 30.7712 6.20533 30.7712 6.328C30.7659 6.57867 30.7019 6.75467 30.5792 6.856C30.4619 6.952 30.3285 7 30.1792 7C30.0032 7 29.8299 6.98133 29.6592 6.944C29.4939 6.90667 29.3179 6.888 29.1312 6.888H28.5712C28.3845 6.888 28.2059 6.90667 28.0352 6.944C27.8699 6.98133 27.6992 7 27.5232 7C27.3739 7 27.2512 6.952 27.1552 6.856C27.0645 6.75467 27.0165 6.57867 27.0112 6.328C27.0059 6.17867 27.0219 6.056 27.0592 5.96C27.0965 5.864 27.1472 5.792 27.2112 5.744C27.2165 5.73333 27.2272 5.72 27.2432 5.704C27.3285 5.59733 27.4112 5.504 27.4912 5.424C27.5765 5.344 27.6565 5.26667 27.7312 5.192C27.8112 5.11733 27.8885 5.04267 27.9632 4.968C28.0432 4.89333 28.1205 4.81067 28.1952 4.72L28.6512 4.16C28.6779 4.12267 28.7045 4.088 28.7312 4.056C28.7579 4.01867 28.7845 3.98133 28.8112 3.944C28.8805 3.83733 28.8512 3.784 28.7232 3.784Z" fill="black"/>
</svg>
