<svg width="33" height="8" viewBox="0 0 33 8" fill="none" xmlns="http://www.w3.org/2000/svg">
<path fill-rule="evenodd" clip-rule="evenodd" d="M33 0H0V8H33V0ZM2.29897 3.256C2.31497 3.42133 2.32297 3.58933 2.32297 3.76V4.24C2.32297 4.41067 2.31497 4.58133 2.29897 4.752C2.28297 4.91733 2.2643 5.088 2.24297 5.264C2.22164 5.43467 2.20297 5.608 2.18697 5.784C2.17097 5.96 2.16297 6.14133 2.16297 6.328C2.16297 6.40267 2.17364 6.48 2.19497 6.56C2.2163 6.63467 2.2563 6.70667 2.31497 6.776C2.37364 6.84 2.45364 6.89333 2.55497 6.936C2.66164 6.97867 2.79764 7 2.96297 7C3.12297 7 3.25364 6.98133 3.35497 6.944C3.46164 6.90133 3.5443 6.848 3.60297 6.784C3.66697 6.72 3.70964 6.65067 3.73097 6.576C3.7523 6.496 3.76297 6.41867 3.76297 6.344C3.76297 6.136 3.75497 5.94133 3.73897 5.76C3.72297 5.57867 3.7043 5.40533 3.68297 5.24C3.66164 5.06933 3.64297 4.904 3.62697 4.744C3.61097 4.57867 3.60297 4.41067 3.60297 4.24V3.76C3.60297 3.58933 3.61097 3.424 3.62697 3.264C3.64297 3.09867 3.66164 2.93333 3.68297 2.768C3.7043 2.59733 3.72297 2.42133 3.73897 2.24C3.75497 2.05867 3.76297 1.864 3.76297 1.656C3.76297 1.58133 3.7523 1.50667 3.73097 1.432C3.70964 1.352 3.66697 1.28 3.60297 1.216C3.5443 1.152 3.46164 1.10133 3.35497 1.064C3.25364 1.02133 3.12297 1 2.96297 1C2.81897 1 2.6963 1.016 2.59497 1.048C2.49897 1.08 2.42164 1.12267 2.36297 1.176C2.2883 1.22933 2.22697 1.28267 2.17897 1.336C2.1363 1.38933 2.0963 1.44267 2.05897 1.496L1.96297 1.64C1.93097 1.68267 1.8883 1.72533 1.83497 1.768C1.7603 1.82667 1.68297 1.88 1.60297 1.928C1.5283 1.97067 1.4483 2.02667 1.36297 2.096C1.34697 2.10667 1.3203 2.13067 1.28297 2.168C1.25097 2.20533 1.22164 2.25333 1.19497 2.312C1.17364 2.37067 1.16564 2.44 1.17097 2.52C1.1763 2.59467 1.21097 2.67733 1.27497 2.768C1.33897 2.85867 1.40297 2.92267 1.46697 2.96C1.5363 2.99733 1.6003 3.01867 1.65897 3.024C1.72297 3.024 1.7763 3.01867 1.81897 3.008C1.86164 2.992 1.89097 2.976 1.90697 2.96C1.9603 2.91733 2.01364 2.87733 2.06697 2.84C2.12564 2.80267 2.1843 2.77067 2.24297 2.744C2.2643 2.91467 2.28297 3.08533 2.29897 3.256ZM5.06884 2.76C4.97284 3.13867 4.92484 3.552 4.92484 4C4.92484 4.50133 4.96751 4.944 5.05284 5.328C5.14351 5.70667 5.28484 6.02667 5.47684 6.288C5.67418 6.54933 5.92484 6.74667 6.22884 6.88C6.53818 7.01333 6.91151 7.08 7.34884 7.08C7.78084 7.08 8.14884 7.01333 8.45284 6.88C8.76218 6.74667 9.01284 6.54933 9.20484 6.288C9.40218 6.02667 9.54351 5.70667 9.62884 5.328C9.71951 4.944 9.76484 4.50133 9.76484 4C9.76484 3.552 9.71418 3.13867 9.61284 2.76C9.51684 2.38133 9.36751 2.056 9.16484 1.784C8.96751 1.512 8.71684 1.30133 8.41284 1.152C8.11418 0.997333 7.75951 0.92 7.34884 0.92C6.93284 0.92 6.57284 0.997333 6.26884 1.152C5.96484 1.30133 5.71151 1.512 5.50884 1.784C5.31151 2.056 5.16484 2.38133 5.06884 2.76ZM6.36484 4.736C6.33818 4.512 6.32484 4.264 6.32484 3.992C6.32484 3.72 6.33551 3.46667 6.35684 3.232C6.37818 2.99733 6.42351 2.792 6.49284 2.616C6.56751 2.44 6.67151 2.30133 6.80484 2.2C6.94351 2.09867 7.12484 2.048 7.34884 2.048C7.57284 2.048 7.75151 2.09867 7.88484 2.2C8.02351 2.30133 8.12751 2.44 8.19684 2.616C8.27151 2.792 8.31951 2.99733 8.34084 3.232C8.36218 3.46667 8.37284 3.72 8.37284 3.992C8.37284 4.264 8.35684 4.512 8.32484 4.736C8.29818 4.95467 8.24484 5.14133 8.16484 5.296C8.09018 5.45067 7.98618 5.57067 7.85284 5.656C7.72484 5.74133 7.55684 5.784 7.34884 5.784C7.14084 5.784 6.97018 5.74133 6.83684 5.656C6.70884 5.57067 6.60484 5.45067 6.52484 5.296C6.45018 5.14133 6.39684 4.95467 6.36484 4.736ZM11.0251 2.76C10.9291 3.13867 10.8811 3.552 10.8811 4C10.8811 4.50133 10.9238 4.944 11.0091 5.328C11.0998 5.70667 11.2411 6.02667 11.4331 6.288C11.6304 6.54933 11.8811 6.74667 12.1851 6.88C12.4944 7.01333 12.8678 7.08 13.3051 7.08C13.7371 7.08 14.1051 7.01333 14.4091 6.88C14.7184 6.74667 14.9691 6.54933 15.1611 6.288C15.3584 6.02667 15.4998 5.70667 15.5851 5.328C15.6758 4.944 15.7211 4.50133 15.7211 4C15.7211 3.552 15.6704 3.13867 15.5691 2.76C15.4731 2.38133 15.3238 2.056 15.1211 1.784C14.9238 1.512 14.6731 1.30133 14.3691 1.152C14.0704 0.997333 13.7158 0.92 13.3051 0.92C12.8891 0.92 12.5291 0.997333 12.2251 1.152C11.9211 1.30133 11.6678 1.512 11.4651 1.784C11.2678 2.056 11.1211 2.38133 11.0251 2.76ZM12.3211 4.736C12.2944 4.512 12.2811 4.264 12.2811 3.992C12.2811 3.72 12.2918 3.46667 12.3131 3.232C12.3344 2.99733 12.3798 2.792 12.4491 2.616C12.5238 2.44 12.6278 2.30133 12.7611 2.2C12.8998 2.09867 13.0811 2.048 13.3051 2.048C13.5291 2.048 13.7078 2.09867 13.8411 2.2C13.9798 2.30133 14.0838 2.44 14.1531 2.616C14.2278 2.792 14.2758 2.99733 14.2971 3.232C14.3184 3.46667 14.3291 3.72 14.3291 3.992C14.3291 4.264 14.3131 4.512 14.2811 4.736C14.2544 4.95467 14.2011 5.14133 14.1211 5.296C14.0464 5.45067 13.9424 5.57067 13.8091 5.656C13.6811 5.74133 13.5131 5.784 13.3051 5.784C13.0971 5.784 12.9264 5.74133 12.7931 5.656C12.6651 5.57067 12.5611 5.45067 12.4811 5.296C12.4064 5.14133 12.3531 4.95467 12.3211 4.736ZM16.9813 2.76C16.8853 3.13867 16.8373 3.552 16.8373 4C16.8373 4.50133 16.88 4.944 16.9653 5.328C17.056 5.70667 17.1973 6.02667 17.3893 6.288C17.5867 6.54933 17.8373 6.74667 18.1413 6.88C18.4507 7.01333 18.824 7.08 19.2613 7.08C19.6933 7.08 20.0613 7.01333 20.3653 6.88C20.6747 6.74667 20.9253 6.54933 21.1173 6.288C21.3147 6.02667 21.456 5.70667 21.5413 5.328C21.632 4.944 21.6773 4.50133 21.6773 4C21.6773 3.552 21.6267 3.13867 21.5253 2.76C21.4293 2.38133 21.28 2.056 21.0773 1.784C20.88 1.512 20.6293 1.30133 20.3253 1.152C20.0267 0.997333 19.672 0.92 19.2613 0.92C18.8453 0.92 18.4853 0.997333 18.1813 1.152C17.8773 1.30133 17.624 1.512 17.4213 1.784C17.224 2.056 17.0773 2.38133 16.9813 2.76ZM18.2773 4.736C18.2507 4.512 18.2373 4.264 18.2373 3.992C18.2373 3.72 18.248 3.46667 18.2693 3.232C18.2907 2.99733 18.336 2.792 18.4053 2.616C18.48 2.44 18.584 2.30133 18.7173 2.2C18.856 2.09867 19.0373 2.048 19.2613 2.048C19.4853 2.048 19.664 2.09867 19.7973 2.2C19.936 2.30133 20.04 2.44 20.1093 2.616C20.184 2.792 20.232 2.99733 20.2533 3.232C20.2747 3.46667 20.2853 3.72 20.2853 3.992C20.2853 4.264 20.2693 4.512 20.2373 4.736C20.2107 4.95467 20.1573 5.14133 20.0773 5.296C20.0027 5.45067 19.8987 5.57067 19.7653 5.656C19.6373 5.74133 19.4693 5.784 19.2613 5.784C19.0533 5.784 18.8827 5.74133 18.7493 5.656C18.6213 5.57067 18.5173 5.45067 18.4373 5.296C18.3627 5.14133 18.3093 4.95467 18.2773 4.736ZM24.4096 5.824C24.3936 5.65867 24.3776 5.49867 24.3616 5.344C24.3509 5.248 24.3963 5.19467 24.4976 5.184H24.5776C24.6096 5.17867 24.6416 5.176 24.6736 5.176H24.9936H25.1216C25.1643 5.176 25.2069 5.17867 25.2496 5.184C25.3509 5.19467 25.3963 5.25067 25.3856 5.352C25.3696 5.50667 25.3536 5.66667 25.3376 5.832C25.3216 5.992 25.3136 6.15733 25.3136 6.328C25.3136 6.57333 25.3936 6.74667 25.5536 6.848C25.7136 6.94933 25.9083 7 26.1376 7C26.2923 7 26.4203 6.98133 26.5216 6.944C26.6229 6.90133 26.7029 6.848 26.7616 6.784C26.8203 6.72 26.8603 6.65067 26.8816 6.576C26.9029 6.496 26.9136 6.41867 26.9136 6.344C26.9136 6.136 26.9056 5.94133 26.8896 5.76C26.8736 5.57867 26.8549 5.40533 26.8336 5.24C26.8123 5.06933 26.7936 4.904 26.7776 4.744C26.7616 4.57867 26.7536 4.41067 26.7536 4.24V3.76C26.7536 3.58933 26.7616 3.424 26.7776 3.264C26.7936 3.09867 26.8123 2.93333 26.8336 2.768C26.8549 2.59733 26.8736 2.42133 26.8896 2.24C26.9056 2.05867 26.9136 1.864 26.9136 1.656C26.9136 1.58133 26.9029 1.50667 26.8816 1.432C26.8603 1.352 26.8203 1.28 26.7616 1.216C26.7029 1.152 26.6229 1.10133 26.5216 1.064C26.4203 1.02133 26.2923 1 26.1376 1C26.0256 1 25.9189 1.01333 25.8176 1.04C25.7163 1.06133 25.6283 1.09867 25.5536 1.152C25.4789 1.20533 25.4203 1.27467 25.3776 1.36C25.3349 1.44533 25.3136 1.54933 25.3136 1.672C25.3136 1.85867 25.3216 2.04 25.3376 2.216C25.3536 2.392 25.3723 2.568 25.3936 2.744C25.4149 2.91467 25.4336 3.08533 25.4496 3.256C25.4656 3.42133 25.4736 3.58933 25.4736 3.76V3.92C25.4736 4.02133 25.4229 4.07733 25.3216 4.088C25.2736 4.09333 25.2229 4.09867 25.1696 4.104H24.9936H24.6736H24.5456C24.5029 4.104 24.4629 4.10133 24.4256 4.096C24.3243 4.08533 24.2736 4.02933 24.2736 3.928V3.76C24.2736 3.58933 24.2816 3.424 24.2976 3.264C24.3136 3.09867 24.3323 2.93333 24.3536 2.768C24.3749 2.59733 24.3936 2.42133 24.4096 2.24C24.4256 2.05867 24.4336 1.864 24.4336 1.656C24.4336 1.58133 24.4229 1.50667 24.4016 1.432C24.3803 1.352 24.3403 1.28 24.2816 1.216C24.2229 1.152 24.1429 1.10133 24.0416 1.064C23.9403 1.02133 23.8123 1 23.6576 1C23.5456 1 23.4389 1.01333 23.3376 1.04C23.2363 1.06133 23.1483 1.09867 23.0736 1.152C22.9989 1.20533 22.9403 1.27467 22.8976 1.36C22.8549 1.44533 22.8336 1.54933 22.8336 1.672C22.8336 1.85867 22.8416 2.04 22.8576 2.216C22.8736 2.392 22.8923 2.568 22.9136 2.744C22.9349 2.91467 22.9536 3.08533 22.9696 3.256C22.9856 3.42133 22.9936 3.58933 22.9936 3.76V4.24C22.9936 4.41067 22.9856 4.58133 22.9696 4.752C22.9536 4.91733 22.9349 5.088 22.9136 5.264C22.8923 5.43467 22.8736 5.608 22.8576 5.784C22.8416 5.96 22.8336 6.14133 22.8336 6.328C22.8336 6.57333 22.9136 6.74667 23.0736 6.848C23.2336 6.94933 23.4283 7 23.6576 7C23.8123 7 23.9403 6.98133 24.0416 6.944C24.1429 6.90133 24.2229 6.848 24.2816 6.784C24.3403 6.72 24.3803 6.65067 24.4016 6.576C24.4229 6.496 24.4336 6.41867 24.4336 6.344C24.4336 6.15733 24.4256 5.984 24.4096 5.824ZM29.2382 3.84C29.4088 3.80267 29.5848 3.784 29.7662 3.784C29.8942 3.784 29.9235 3.83733 29.8542 3.944L29.7742 4.056C29.7475 4.088 29.7208 4.12267 29.6942 4.16L29.2382 4.72C29.1635 4.81067 29.0862 4.89333 29.0062 4.968C28.9315 5.04267 28.8542 5.11733 28.7742 5.192C28.6995 5.26667 28.6195 5.344 28.5342 5.424C28.4542 5.504 28.3715 5.59733 28.2862 5.704C28.2702 5.72 28.2595 5.73333 28.2542 5.744C28.1902 5.792 28.1395 5.864 28.1022 5.96C28.0648 6.056 28.0488 6.17867 28.0542 6.328C28.0595 6.57867 28.1075 6.75467 28.1982 6.856C28.2942 6.952 28.4168 7 28.5662 7C28.7422 7 28.9128 6.98133 29.0782 6.944C29.2488 6.90667 29.4275 6.888 29.6142 6.888H30.1742C30.3608 6.888 30.5368 6.90667 30.7022 6.944C30.8728 6.98133 31.0462 7 31.2222 7C31.3715 7 31.5048 6.952 31.6222 6.856C31.7448 6.75467 31.8088 6.57867 31.8142 6.328C31.8142 6.20533 31.7982 6.10133 31.7662 6.016C31.7342 5.93067 31.6915 5.86133 31.6382 5.808C31.5848 5.75467 31.5235 5.71733 31.4542 5.696C31.3848 5.66933 31.3128 5.656 31.2382 5.656C31.1315 5.656 31.0328 5.66133 30.9422 5.672C30.8515 5.68267 30.7635 5.696 30.6782 5.712C30.5982 5.728 30.5155 5.74133 30.4302 5.752C30.3502 5.76267 30.2648 5.768 30.1742 5.768H30.0782C29.9448 5.768 29.9182 5.71467 29.9982 5.608C30.0248 5.57067 30.0595 5.52533 30.1022 5.472L30.5582 4.912C30.7128 4.72533 30.8728 4.56 31.0382 4.416C31.2088 4.272 31.3662 4.112 31.5102 3.936C31.5848 3.84533 31.6408 3.752 31.6782 3.656C31.7155 3.576 31.7342 3.45867 31.7342 3.304C31.7342 3.18133 31.7235 3.08267 31.7022 3.008C31.6808 2.928 31.6462 2.86667 31.5982 2.824C31.5555 2.78133 31.5022 2.752 31.4382 2.736C31.3795 2.72 31.3128 2.712 31.2382 2.712C31.1315 2.712 31.0328 2.71733 30.9422 2.728C30.8515 2.73867 30.7635 2.752 30.6782 2.768C30.5982 2.784 30.5155 2.79733 30.4302 2.808C30.3502 2.81867 30.2648 2.824 30.1742 2.824H29.7742C29.6835 2.824 29.5955 2.81867 29.5102 2.808C29.4302 2.79733 29.3475 2.784 29.2622 2.768C29.1822 2.752 29.0968 2.73867 29.0062 2.728C28.9155 2.71733 28.8168 2.712 28.7102 2.712C28.6355 2.712 28.5635 2.72 28.4942 2.736C28.4248 2.752 28.3635 2.78133 28.3102 2.824C28.2568 2.86667 28.2142 2.928 28.1822 3.008C28.1502 3.08267 28.1342 3.18133 28.1342 3.304C28.1342 3.42667 28.1502 3.528 28.1822 3.608C28.2195 3.68267 28.2648 3.74133 28.3182 3.784C28.3768 3.82667 28.4408 3.856 28.5102 3.872C28.5795 3.888 28.6515 3.896 28.7262 3.896C28.9022 3.896 29.0728 3.87733 29.2382 3.84Z" fill="black"/>
</svg>
