<svg width="23" height="8" viewBox="0 0 23 8" fill="none" xmlns="http://www.w3.org/2000/svg">
<path d="M1.28 3.76C1.28 3.58933 1.272 3.42133 1.256 3.256C1.24 3.08533 1.22133 2.91467 1.2 2.744C1.14133 2.77067 1.08267 2.80267 1.024 2.84C0.970667 2.87733 0.917333 2.91733 0.864 2.96C0.848 2.976 0.818667 2.992 0.776 3.008C0.733333 3.01867 0.68 3.024 0.616 3.024C0.557333 3.01867 0.493333 2.99733 0.424 2.96C0.36 2.92267 0.296 2.85867 0.232 2.768C0.168 2.67733 0.133333 2.59467 0.128 2.52C0.122667 2.44 0.130667 2.37067 0.152 2.312C0.178667 2.25333 0.208 2.20533 0.24 2.168C0.277333 2.13067 0.304 2.10667 0.32 2.096C0.405333 2.02667 0.485333 1.97067 0.56 1.928C0.64 1.88 0.717333 1.82667 0.792 1.768C0.845333 1.72533 0.888 1.68267 0.92 1.64C0.952 1.592 0.984 1.544 1.016 1.496C1.05333 1.44267 1.09333 1.38933 1.136 1.336C1.184 1.28267 1.24533 1.22933 1.32 1.176C1.37867 1.12267 1.456 1.08 1.552 1.048C1.65333 1.016 1.776 1 1.92 1C2.08 1 2.21067 1.02133 2.312 1.064C2.41867 1.10133 2.50133 1.152 2.56 1.216C2.624 1.28 2.66667 1.352 2.688 1.432C2.70933 1.50667 2.72 1.58133 2.72 1.656C2.72 1.864 2.712 2.05867 2.696 2.24C2.68 2.42133 2.66133 2.59733 2.64 2.768C2.61867 2.93333 2.6 3.09867 2.584 3.264C2.568 3.424 2.56 3.58933 2.56 3.76V4.24C2.56 4.41067 2.568 4.57867 2.584 4.744C2.6 4.904 2.61867 5.06933 2.64 5.24C2.66133 5.40533 2.68 5.57867 2.696 5.76C2.712 5.94133 2.72 6.136 2.72 6.344C2.72 6.41867 2.70933 6.496 2.688 6.576C2.66667 6.65067 2.624 6.72 2.56 6.784C2.50133 6.848 2.41867 6.90133 2.312 6.944C2.21067 6.98133 2.08 7 1.92 7C1.75467 7 1.61867 6.97867 1.512 6.936C1.41067 6.89333 1.33067 6.84 1.272 6.776C1.21333 6.70667 1.17333 6.63467 1.152 6.56C1.13067 6.48 1.12 6.40267 1.12 6.328C1.12 6.14133 1.128 5.96 1.144 5.784C1.16 5.608 1.17867 5.43467 1.2 5.264C1.22133 5.088 1.24 4.91733 1.256 4.752C1.272 4.58133 1.28 4.41067 1.28 4.24V3.76ZM5.00188 3.76C5.00188 3.58933 4.99388 3.42133 4.97787 3.256C4.96188 3.08533 4.94321 2.91467 4.92188 2.744C4.86321 2.77067 4.80454 2.80267 4.74588 2.84C4.69254 2.87733 4.63921 2.91733 4.58587 2.96C4.56987 2.976 4.54054 2.992 4.49787 3.008C4.45521 3.01867 4.40187 3.024 4.33788 3.024C4.27921 3.01867 4.21521 2.99733 4.14587 2.96C4.08187 2.92267 4.01787 2.85867 3.95387 2.768C3.88987 2.67733 3.85521 2.59467 3.84987 2.52C3.84454 2.44 3.85254 2.37067 3.87387 2.312C3.90054 2.25333 3.92987 2.20533 3.96187 2.168C3.99921 2.13067 4.02587 2.10667 4.04187 2.096C4.12721 2.02667 4.20721 1.97067 4.28187 1.928C4.36187 1.88 4.43921 1.82667 4.51388 1.768C4.56721 1.72533 4.60987 1.68267 4.64187 1.64C4.67387 1.592 4.70587 1.544 4.73787 1.496C4.77521 1.44267 4.81521 1.38933 4.85787 1.336C4.90588 1.28267 4.96721 1.22933 5.04188 1.176C5.10054 1.12267 5.17788 1.08 5.27387 1.048C5.37521 1.016 5.49788 1 5.64188 1C5.80188 1 5.93254 1.02133 6.03387 1.064C6.14054 1.10133 6.22321 1.152 6.28188 1.216C6.34588 1.28 6.38854 1.352 6.40988 1.432C6.43121 1.50667 6.44187 1.58133 6.44187 1.656C6.44187 1.864 6.43388 2.05867 6.41788 2.24C6.40188 2.42133 6.38321 2.59733 6.36188 2.768C6.34054 2.93333 6.32188 3.09867 6.30588 3.264C6.28988 3.424 6.28188 3.58933 6.28188 3.76V4.24C6.28188 4.41067 6.28988 4.57867 6.30588 4.744C6.32188 4.904 6.34054 5.06933 6.36188 5.24C6.38321 5.40533 6.40188 5.57867 6.41788 5.76C6.43388 5.94133 6.44187 6.136 6.44187 6.344C6.44187 6.41867 6.43121 6.496 6.40988 6.576C6.38854 6.65067 6.34588 6.72 6.28188 6.784C6.22321 6.848 6.14054 6.90133 6.03387 6.944C5.93254 6.98133 5.80188 7 5.64188 7C5.47654 7 5.34054 6.97867 5.23388 6.936C5.13254 6.89333 5.05254 6.84 4.99388 6.776C4.93521 6.70667 4.89521 6.63467 4.87388 6.56C4.85254 6.48 4.84187 6.40267 4.84187 6.328C4.84187 6.14133 4.84987 5.96 4.86588 5.784C4.88188 5.608 4.90054 5.43467 4.92188 5.264C4.94321 5.088 4.96188 4.91733 4.97787 4.752C4.99388 4.58133 5.00188 4.41067 5.00188 4.24V3.76ZM7.60375 4C7.60375 3.552 7.65175 3.13867 7.74775 2.76C7.84375 2.38133 7.99042 2.056 8.18775 1.784C8.39042 1.512 8.64375 1.30133 8.94775 1.152C9.25175 0.997333 9.61175 0.92 10.0278 0.92C10.4384 0.92 10.7931 0.997333 11.0918 1.152C11.3958 1.30133 11.6464 1.512 11.8438 1.784C12.0464 2.056 12.1957 2.38133 12.2917 2.76C12.3931 3.13867 12.4437 3.552 12.4437 4C12.4437 4.50133 12.3984 4.944 12.3078 5.328C12.2224 5.70667 12.0811 6.02667 11.8837 6.288C11.6918 6.54933 11.4411 6.74667 11.1318 6.88C10.8278 7.01333 10.4598 7.08 10.0278 7.08C9.59042 7.08 9.21708 7.01333 8.90775 6.88C8.60375 6.74667 8.35308 6.54933 8.15575 6.288C7.96375 6.02667 7.82242 5.70667 7.73175 5.328C7.64642 4.944 7.60375 4.50133 7.60375 4ZM9.00375 3.992C9.00375 4.264 9.01708 4.512 9.04375 4.736C9.07575 4.95467 9.12908 5.14133 9.20375 5.296C9.28375 5.45067 9.38775 5.57067 9.51575 5.656C9.64908 5.74133 9.81975 5.784 10.0278 5.784C10.2358 5.784 10.4038 5.74133 10.5317 5.656C10.6651 5.57067 10.7691 5.45067 10.8438 5.296C10.9238 5.14133 10.9771 4.95467 11.0038 4.736C11.0358 4.512 11.0518 4.264 11.0518 3.992C11.0518 3.72 11.0411 3.46667 11.0198 3.232C10.9984 2.99733 10.9504 2.792 10.8758 2.616C10.8064 2.44 10.7024 2.30133 10.5638 2.2C10.4304 2.09867 10.2517 2.048 10.0278 2.048C9.80375 2.048 9.62242 2.09867 9.48375 2.2C9.35042 2.30133 9.24642 2.44 9.17175 2.616C9.10242 2.792 9.05708 2.99733 9.03575 3.232C9.01442 3.46667 9.00375 3.72 9.00375 3.992ZM15.128 5.344C15.144 5.49867 15.16 5.65867 15.176 5.824C15.192 5.984 15.2 6.15733 15.2 6.344C15.2 6.41867 15.1893 6.496 15.168 6.576C15.1467 6.65067 15.1067 6.72 15.048 6.784C14.9893 6.848 14.9093 6.90133 14.808 6.944C14.7067 6.98133 14.5787 7 14.424 7C14.1947 7 14 6.94933 13.84 6.848C13.68 6.74667 13.6 6.57333 13.6 6.328C13.6 6.14133 13.608 5.96 13.624 5.784C13.64 5.608 13.6587 5.43467 13.68 5.264C13.7013 5.088 13.72 4.91733 13.736 4.752C13.752 4.58133 13.76 4.41067 13.76 4.24V3.76C13.76 3.58933 13.752 3.42133 13.736 3.256C13.72 3.08533 13.7013 2.91467 13.68 2.744C13.6587 2.568 13.64 2.392 13.624 2.216C13.608 2.04 13.6 1.85867 13.6 1.672C13.6 1.54933 13.6213 1.44533 13.664 1.36C13.7067 1.27467 13.7653 1.20533 13.84 1.152C13.9147 1.09867 14.0027 1.06133 14.104 1.04C14.2053 1.01333 14.312 1 14.424 1C14.5787 1 14.7067 1.02133 14.808 1.064C14.9093 1.10133 14.9893 1.152 15.048 1.216C15.1067 1.28 15.1467 1.352 15.168 1.432C15.1893 1.50667 15.2 1.58133 15.2 1.656C15.2 1.864 15.192 2.05867 15.176 2.24C15.16 2.42133 15.1413 2.59733 15.12 2.768C15.0987 2.93333 15.08 3.09867 15.064 3.264C15.048 3.424 15.04 3.58933 15.04 3.76V3.928C15.04 4.02933 15.0907 4.08533 15.192 4.096C15.2293 4.10133 15.2693 4.104 15.312 4.104C15.3547 4.104 15.3973 4.104 15.44 4.104H15.76C15.824 4.104 15.8827 4.104 15.936 4.104C15.9893 4.09867 16.04 4.09333 16.088 4.088C16.1893 4.07733 16.24 4.02133 16.24 3.92V3.76C16.24 3.58933 16.232 3.42133 16.216 3.256C16.2 3.08533 16.1813 2.91467 16.16 2.744C16.1387 2.568 16.12 2.392 16.104 2.216C16.088 2.04 16.08 1.85867 16.08 1.672C16.08 1.54933 16.1013 1.44533 16.144 1.36C16.1867 1.27467 16.2453 1.20533 16.32 1.152C16.3947 1.09867 16.4827 1.06133 16.584 1.04C16.6853 1.01333 16.792 1 16.904 1C17.0587 1 17.1867 1.02133 17.288 1.064C17.3893 1.10133 17.4693 1.152 17.528 1.216C17.5867 1.28 17.6267 1.352 17.648 1.432C17.6693 1.50667 17.68 1.58133 17.68 1.656C17.68 1.864 17.672 2.05867 17.656 2.24C17.64 2.42133 17.6213 2.59733 17.6 2.768C17.5787 2.93333 17.56 3.09867 17.544 3.264C17.528 3.424 17.52 3.58933 17.52 3.76V4.24C17.52 4.41067 17.528 4.57867 17.544 4.744C17.56 4.904 17.5787 5.06933 17.6 5.24C17.6213 5.40533 17.64 5.57867 17.656 5.76C17.672 5.94133 17.68 6.136 17.68 6.344C17.68 6.41867 17.6693 6.496 17.648 6.576C17.6267 6.65067 17.5867 6.72 17.528 6.784C17.4693 6.848 17.3893 6.90133 17.288 6.944C17.1867 6.98133 17.0587 7 16.904 7C16.6747 7 16.48 6.94933 16.32 6.848C16.16 6.74667 16.08 6.57333 16.08 6.328C16.08 6.15733 16.088 5.992 16.104 5.832C16.12 5.66667 16.136 5.50667 16.152 5.352C16.1627 5.25067 16.1173 5.19467 16.016 5.184C15.9733 5.17867 15.9307 5.176 15.888 5.176C15.8507 5.176 15.808 5.176 15.76 5.176H15.44C15.408 5.176 15.376 5.17867 15.344 5.184C15.3173 5.184 15.2907 5.184 15.264 5.184C15.1627 5.19467 15.1173 5.248 15.128 5.344ZM20.5326 3.784C20.3512 3.784 20.1752 3.80267 20.0046 3.84C19.8392 3.87733 19.6686 3.896 19.4926 3.896C19.4179 3.896 19.3459 3.888 19.2766 3.872C19.2072 3.856 19.1432 3.82667 19.0846 3.784C19.0312 3.74133 18.9859 3.68267 18.9486 3.608C18.9166 3.528 18.9006 3.42667 18.9006 3.304C18.9006 3.18133 18.9166 3.08267 18.9486 3.008C18.9806 2.928 19.0232 2.86667 19.0766 2.824C19.1299 2.78133 19.1912 2.752 19.2606 2.736C19.3299 2.72 19.4019 2.712 19.4766 2.712C19.5832 2.712 19.6819 2.71733 19.7726 2.728C19.8632 2.73867 19.9486 2.752 20.0286 2.768C20.1139 2.784 20.1966 2.79733 20.2766 2.808C20.3619 2.81867 20.4499 2.824 20.5406 2.824H20.9406C21.0312 2.824 21.1166 2.81867 21.1966 2.808C21.2819 2.79733 21.3646 2.784 21.4446 2.768C21.5299 2.752 21.6179 2.73867 21.7086 2.728C21.7992 2.71733 21.8979 2.712 22.0046 2.712C22.0792 2.712 22.1459 2.72 22.2046 2.736C22.2686 2.752 22.3219 2.78133 22.3646 2.824C22.4126 2.86667 22.4472 2.928 22.4686 3.008C22.4899 3.08267 22.5006 3.18133 22.5006 3.304C22.5006 3.45867 22.4819 3.576 22.4446 3.656C22.4072 3.752 22.3512 3.84533 22.2766 3.936C22.1326 4.112 21.9752 4.272 21.8046 4.416C21.6392 4.56 21.4792 4.72533 21.3246 4.912L20.8686 5.472C20.8259 5.52533 20.7912 5.57067 20.7646 5.608C20.6846 5.71467 20.7112 5.768 20.8446 5.768H20.9406C21.0312 5.768 21.1166 5.76267 21.1966 5.752C21.2819 5.74133 21.3646 5.728 21.4446 5.712C21.5299 5.696 21.6179 5.68267 21.7086 5.672C21.7992 5.66133 21.8979 5.656 22.0046 5.656C22.0792 5.656 22.1512 5.66933 22.2206 5.696C22.2899 5.71733 22.3512 5.75467 22.4046 5.808C22.4579 5.86133 22.5006 5.93067 22.5326 6.016C22.5646 6.10133 22.5806 6.20533 22.5806 6.328C22.5752 6.57867 22.5112 6.75467 22.3886 6.856C22.2712 6.952 22.1379 7 21.9886 7C21.8126 7 21.6392 6.98133 21.4686 6.944C21.3032 6.90667 21.1272 6.888 20.9406 6.888H20.3806C20.1939 6.888 20.0152 6.90667 19.8446 6.944C19.6792 6.98133 19.5086 7 19.3326 7C19.1832 7 19.0606 6.952 18.9646 6.856C18.8739 6.75467 18.8259 6.57867 18.8206 6.328C18.8152 6.17867 18.8312 6.056 18.8686 5.96C18.9059 5.864 18.9566 5.792 19.0206 5.744C19.0259 5.73333 19.0366 5.72 19.0526 5.704C19.1379 5.59733 19.2206 5.504 19.3006 5.424C19.3859 5.344 19.4659 5.26667 19.5406 5.192C19.6206 5.11733 19.6979 5.04267 19.7726 4.968C19.8526 4.89333 19.9299 4.81067 20.0046 4.72L20.4606 4.16C20.4872 4.12267 20.5139 4.088 20.5406 4.056C20.5672 4.01867 20.5939 3.98133 20.6206 3.944C20.6899 3.83733 20.6606 3.784 20.5326 3.784Z" fill="black"/>
</svg>
