<svg width="25" height="8" viewBox="0 0 25 8" fill="none" xmlns="http://www.w3.org/2000/svg">
<path fill-rule="evenodd" clip-rule="evenodd" d="M25 0H0V8H25V0ZM2.39428 3.256C2.41028 3.42133 2.41828 3.58933 2.41828 3.76V4.24C2.41828 4.41067 2.41028 4.58133 2.39428 4.752C2.37828 4.91733 2.35961 5.088 2.33828 5.264C2.31695 5.43467 2.29828 5.608 2.28228 5.784C2.26628 5.96 2.25828 6.14133 2.25828 6.328C2.25828 6.40267 2.26895 6.48 2.29028 6.56C2.31161 6.63467 2.35161 6.70667 2.41028 6.776C2.46895 6.84 2.54895 6.89333 2.65028 6.936C2.75695 6.97867 2.89295 7 3.05828 7C3.21828 7 3.34895 6.98133 3.45028 6.944C3.55695 6.90133 3.63961 6.848 3.69828 6.784C3.76228 6.72 3.80495 6.65067 3.82628 6.576C3.84761 6.496 3.85828 6.41867 3.85828 6.344C3.85828 6.136 3.85028 5.94133 3.83428 5.76C3.81828 5.57867 3.79961 5.40533 3.77828 5.24C3.75695 5.06933 3.73828 4.904 3.72228 4.744C3.70628 4.57867 3.69828 4.41067 3.69828 4.24V3.76C3.69828 3.58933 3.70628 3.424 3.72228 3.264C3.73828 3.09867 3.75695 2.93333 3.77828 2.768C3.79961 2.59733 3.81828 2.42133 3.83428 2.24C3.85028 2.05867 3.85828 1.864 3.85828 1.656C3.85828 1.58133 3.84761 1.50667 3.82628 1.432C3.80495 1.352 3.76228 1.28 3.69828 1.216C3.63961 1.152 3.55695 1.10133 3.45028 1.064C3.34895 1.02133 3.21828 1 3.05828 1C2.91428 1 2.79161 1.016 2.69028 1.048C2.59428 1.08 2.51695 1.12267 2.45828 1.176C2.38361 1.22933 2.32228 1.28267 2.27428 1.336C2.23161 1.38933 2.19161 1.44267 2.15428 1.496L2.05828 1.64C2.02628 1.68267 1.98361 1.72533 1.93028 1.768C1.85561 1.82667 1.77828 1.88 1.69828 1.928C1.62361 1.97067 1.54361 2.02667 1.45828 2.096C1.44228 2.10667 1.41561 2.13067 1.37828 2.168C1.34628 2.20533 1.31695 2.25333 1.29028 2.312C1.26895 2.37067 1.26095 2.44 1.26628 2.52C1.27161 2.59467 1.30628 2.67733 1.37028 2.768C1.43428 2.85867 1.49828 2.92267 1.56228 2.96C1.63161 2.99733 1.69561 3.01867 1.75428 3.024C1.81828 3.024 1.87161 3.01867 1.91428 3.008C1.95695 2.992 1.98628 2.976 2.00228 2.96C2.05561 2.91733 2.10895 2.87733 2.16228 2.84C2.22095 2.80267 2.27961 2.77067 2.33828 2.744C2.35961 2.91467 2.37828 3.08533 2.39428 3.256ZM6.11616 3.256C6.13216 3.42133 6.14016 3.58933 6.14016 3.76V4.24C6.14016 4.41067 6.13216 4.58133 6.11616 4.752C6.10016 4.91733 6.08149 5.088 6.06016 5.264C6.03882 5.43467 6.02016 5.608 6.00416 5.784C5.98816 5.96 5.98016 6.14133 5.98016 6.328C5.98016 6.40267 5.99082 6.48 6.01216 6.56C6.03349 6.63467 6.07349 6.70667 6.13216 6.776C6.19082 6.84 6.27082 6.89333 6.37216 6.936C6.47882 6.97867 6.61482 7 6.78016 7C6.94016 7 7.07082 6.98133 7.17216 6.944C7.27882 6.90133 7.36149 6.848 7.42016 6.784C7.48416 6.72 7.52682 6.65067 7.54816 6.576C7.56949 6.496 7.58016 6.41867 7.58016 6.344C7.58016 6.136 7.57216 5.94133 7.55616 5.76C7.54016 5.57867 7.52149 5.40533 7.50016 5.24C7.47882 5.06933 7.46016 4.904 7.44416 4.744C7.42816 4.57867 7.42016 4.41067 7.42016 4.24V3.76C7.42016 3.58933 7.42816 3.424 7.44416 3.264C7.46016 3.09867 7.47882 2.93333 7.50016 2.768C7.52149 2.59733 7.54016 2.42133 7.55616 2.24C7.57216 2.05867 7.58016 1.864 7.58016 1.656C7.58016 1.58133 7.56949 1.50667 7.54816 1.432C7.52682 1.352 7.48416 1.28 7.42016 1.216C7.36149 1.152 7.27882 1.10133 7.17216 1.064C7.07082 1.02133 6.94016 1 6.78016 1C6.63616 1 6.51349 1.016 6.41216 1.048C6.31616 1.08 6.23882 1.12267 6.18016 1.176C6.10549 1.22933 6.04416 1.28267 5.99616 1.336C5.95349 1.38933 5.91349 1.44267 5.87616 1.496L5.78016 1.64C5.74816 1.68267 5.70549 1.72533 5.65216 1.768C5.57749 1.82667 5.50016 1.88 5.42016 1.928C5.34549 1.97067 5.26549 2.02667 5.18016 2.096C5.16416 2.10667 5.13749 2.13067 5.10016 2.168C5.06816 2.20533 5.03882 2.25333 5.01216 2.312C4.99082 2.37067 4.98282 2.44 4.98816 2.52C4.99349 2.59467 5.02816 2.67733 5.09216 2.768C5.15616 2.85867 5.22016 2.92267 5.28416 2.96C5.35349 2.99733 5.41749 3.01867 5.47616 3.024C5.54016 3.024 5.59349 3.01867 5.63616 3.008C5.67882 2.992 5.70816 2.976 5.72416 2.96C5.77749 2.91733 5.83082 2.87733 5.88416 2.84C5.94282 2.80267 6.00149 2.77067 6.06016 2.744C6.08149 2.91467 6.10016 3.08533 6.11616 3.256ZM8.88603 2.76C8.79003 3.13867 8.74203 3.552 8.74203 4C8.74203 4.50133 8.7847 4.944 8.87003 5.328C8.9607 5.70667 9.10203 6.02667 9.29403 6.288C9.49136 6.54933 9.74203 6.74667 10.046 6.88C10.3554 7.01333 10.7287 7.08 11.166 7.08C11.598 7.08 11.966 7.01333 12.27 6.88C12.5794 6.74667 12.83 6.54933 13.022 6.288C13.2194 6.02667 13.3607 5.70667 13.446 5.328C13.5367 4.944 13.582 4.50133 13.582 4C13.582 3.552 13.5314 3.13867 13.43 2.76C13.334 2.38133 13.1847 2.056 12.982 1.784C12.7847 1.512 12.534 1.30133 12.23 1.152C11.9314 0.997333 11.5767 0.92 11.166 0.92C10.75 0.92 10.39 0.997333 10.086 1.152C9.78203 1.30133 9.5287 1.512 9.32603 1.784C9.1287 2.056 8.98203 2.38133 8.88603 2.76ZM10.182 4.736C10.1554 4.512 10.142 4.264 10.142 3.992C10.142 3.72 10.1527 3.46667 10.174 3.232C10.1954 2.99733 10.2407 2.792 10.31 2.616C10.3847 2.44 10.4887 2.30133 10.622 2.2C10.7607 2.09867 10.942 2.048 11.166 2.048C11.39 2.048 11.5687 2.09867 11.702 2.2C11.8407 2.30133 11.9447 2.44 12.014 2.616C12.0887 2.792 12.1367 2.99733 12.158 3.232C12.1794 3.46667 12.19 3.72 12.19 3.992C12.19 4.264 12.174 4.512 12.142 4.736C12.1154 4.95467 12.062 5.14133 11.982 5.296C11.9074 5.45067 11.8034 5.57067 11.67 5.656C11.542 5.74133 11.374 5.784 11.166 5.784C10.958 5.784 10.7874 5.74133 10.654 5.656C10.526 5.57067 10.422 5.45067 10.342 5.296C10.2674 5.14133 10.214 4.95467 10.182 4.736ZM16.3143 5.824C16.2983 5.65867 16.2823 5.49867 16.2663 5.344C16.2556 5.248 16.3009 5.19467 16.4023 5.184H16.4823C16.5143 5.17867 16.5463 5.176 16.5783 5.176H16.8983H17.0263C17.0689 5.176 17.1116 5.17867 17.1543 5.184C17.2556 5.19467 17.3009 5.25067 17.2903 5.352C17.2743 5.50667 17.2583 5.66667 17.2423 5.832C17.2263 5.992 17.2183 6.15733 17.2183 6.328C17.2183 6.57333 17.2983 6.74667 17.4583 6.848C17.6183 6.94933 17.8129 7 18.0423 7C18.1969 7 18.3249 6.98133 18.4263 6.944C18.5276 6.90133 18.6076 6.848 18.6663 6.784C18.7249 6.72 18.7649 6.65067 18.7863 6.576C18.8076 6.496 18.8183 6.41867 18.8183 6.344C18.8183 6.136 18.8103 5.94133 18.7943 5.76C18.7783 5.57867 18.7596 5.40533 18.7383 5.24C18.7169 5.06933 18.6983 4.904 18.6823 4.744C18.6663 4.57867 18.6583 4.41067 18.6583 4.24V3.76C18.6583 3.58933 18.6663 3.424 18.6823 3.264C18.6983 3.09867 18.7169 2.93333 18.7383 2.768C18.7596 2.59733 18.7783 2.42133 18.7943 2.24C18.8103 2.05867 18.8183 1.864 18.8183 1.656C18.8183 1.58133 18.8076 1.50667 18.7863 1.432C18.7649 1.352 18.7249 1.28 18.6663 1.216C18.6076 1.152 18.5276 1.10133 18.4263 1.064C18.3249 1.02133 18.1969 1 18.0423 1C17.9303 1 17.8236 1.01333 17.7223 1.04C17.6209 1.06133 17.5329 1.09867 17.4583 1.152C17.3836 1.20533 17.3249 1.27467 17.2823 1.36C17.2396 1.44533 17.2183 1.54933 17.2183 1.672C17.2183 1.85867 17.2263 2.04 17.2423 2.216C17.2583 2.392 17.2769 2.568 17.2983 2.744C17.3196 2.91467 17.3383 3.08533 17.3543 3.256C17.3703 3.42133 17.3783 3.58933 17.3783 3.76V3.92C17.3783 4.02133 17.3276 4.07733 17.2263 4.088C17.1783 4.09333 17.1276 4.09867 17.0743 4.104H16.8983H16.5783H16.4503C16.4076 4.104 16.3676 4.10133 16.3303 4.096C16.2289 4.08533 16.1783 4.02933 16.1783 3.928V3.76C16.1783 3.58933 16.1863 3.424 16.2023 3.264C16.2183 3.09867 16.2369 2.93333 16.2583 2.768C16.2796 2.59733 16.2983 2.42133 16.3143 2.24C16.3303 2.05867 16.3383 1.864 16.3383 1.656C16.3383 1.58133 16.3276 1.50667 16.3063 1.432C16.2849 1.352 16.2449 1.28 16.1863 1.216C16.1276 1.152 16.0476 1.10133 15.9463 1.064C15.8449 1.02133 15.7169 1 15.5623 1C15.4503 1 15.3436 1.01333 15.2423 1.04C15.1409 1.06133 15.0529 1.09867 14.9783 1.152C14.9036 1.20533 14.8449 1.27467 14.8023 1.36C14.7596 1.44533 14.7383 1.54933 14.7383 1.672C14.7383 1.85867 14.7463 2.04 14.7623 2.216C14.7783 2.392 14.7969 2.568 14.8183 2.744C14.8396 2.91467 14.8583 3.08533 14.8743 3.256C14.8903 3.42133 14.8983 3.58933 14.8983 3.76V4.24C14.8983 4.41067 14.8903 4.58133 14.8743 4.752C14.8583 4.91733 14.8396 5.088 14.8183 5.264C14.7969 5.43467 14.7783 5.608 14.7623 5.784C14.7463 5.96 14.7383 6.14133 14.7383 6.328C14.7383 6.57333 14.8183 6.74667 14.9783 6.848C15.1383 6.94933 15.3329 7 15.5623 7C15.7169 7 15.8449 6.98133 15.9463 6.944C16.0476 6.90133 16.1276 6.848 16.1863 6.784C16.2449 6.72 16.2849 6.65067 16.3063 6.576C16.3276 6.496 16.3383 6.41867 16.3383 6.344C16.3383 6.15733 16.3303 5.984 16.3143 5.824ZM21.1428 3.84C21.3135 3.80267 21.4895 3.784 21.6708 3.784C21.7988 3.784 21.8282 3.83733 21.7588 3.944L21.6788 4.056C21.6522 4.088 21.6255 4.12267 21.5988 4.16L21.1428 4.72C21.0682 4.81067 20.9908 4.89333 20.9108 4.968C20.8362 5.04267 20.7588 5.11733 20.6788 5.192C20.6042 5.26667 20.5242 5.344 20.4388 5.424C20.3588 5.504 20.2762 5.59733 20.1908 5.704C20.1748 5.72 20.1642 5.73333 20.1588 5.744C20.0948 5.792 20.0442 5.864 20.0068 5.96C19.9695 6.056 19.9535 6.17867 19.9588 6.328C19.9642 6.57867 20.0122 6.75467 20.1028 6.856C20.1988 6.952 20.3215 7 20.4708 7C20.6468 7 20.8175 6.98133 20.9828 6.944C21.1535 6.90667 21.3322 6.888 21.5188 6.888H22.0788C22.2655 6.888 22.4415 6.90667 22.6068 6.944C22.7775 6.98133 22.9508 7 23.1268 7C23.2762 7 23.4095 6.952 23.5268 6.856C23.6495 6.75467 23.7135 6.57867 23.7188 6.328C23.7188 6.20533 23.7028 6.10133 23.6708 6.016C23.6388 5.93067 23.5962 5.86133 23.5428 5.808C23.4895 5.75467 23.4282 5.71733 23.3588 5.696C23.2895 5.66933 23.2175 5.656 23.1428 5.656C23.0362 5.656 22.9375 5.66133 22.8468 5.672C22.7562 5.68267 22.6682 5.696 22.5828 5.712C22.5028 5.728 22.4202 5.74133 22.3348 5.752C22.2548 5.76267 22.1695 5.768 22.0788 5.768H21.9828C21.8495 5.768 21.8228 5.71467 21.9028 5.608C21.9295 5.57067 21.9642 5.52533 22.0068 5.472L22.4628 4.912C22.6175 4.72533 22.7775 4.56 22.9428 4.416C23.1135 4.272 23.2708 4.112 23.4148 3.936C23.4895 3.84533 23.5455 3.752 23.5828 3.656C23.6202 3.576 23.6388 3.45867 23.6388 3.304C23.6388 3.18133 23.6282 3.08267 23.6068 3.008C23.5855 2.928 23.5508 2.86667 23.5028 2.824C23.4602 2.78133 23.4068 2.752 23.3428 2.736C23.2842 2.72 23.2175 2.712 23.1428 2.712C23.0362 2.712 22.9375 2.71733 22.8468 2.728C22.7562 2.73867 22.6682 2.752 22.5828 2.768C22.5028 2.784 22.4202 2.79733 22.3348 2.808C22.2548 2.81867 22.1695 2.824 22.0788 2.824H21.6788C21.5882 2.824 21.5002 2.81867 21.4148 2.808C21.3348 2.79733 21.2522 2.784 21.1668 2.768C21.0868 2.752 21.0015 2.73867 20.9108 2.728C20.8202 2.71733 20.7215 2.712 20.6148 2.712C20.5402 2.712 20.4682 2.72 20.3988 2.736C20.3295 2.752 20.2682 2.78133 20.2148 2.824C20.1615 2.86667 20.1188 2.928 20.0868 3.008C20.0548 3.08267 20.0388 3.18133 20.0388 3.304C20.0388 3.42667 20.0548 3.528 20.0868 3.608C20.1242 3.68267 20.1695 3.74133 20.2228 3.784C20.2815 3.82667 20.3455 3.856 20.4148 3.872C20.4842 3.888 20.5562 3.896 20.6308 3.896C20.8068 3.896 20.9775 3.87733 21.1428 3.84Z" fill="black"/>
</svg>
