<svg width="26" height="8" viewBox="0 0 26 8" fill="none" xmlns="http://www.w3.org/2000/svg">
<path d="M2.008 4.296C1.91733 4.296 1.83467 4.30133 1.76 4.312C1.69067 4.32267 1.62133 4.336 1.552 4.352C1.488 4.368 1.42133 4.38133 1.352 4.392C1.288 4.40267 1.21067 4.408 1.12 4.408C0.970667 4.408 0.834667 4.36267 0.712 4.272C0.594667 4.176 0.533333 4.00533 0.528 3.76C0.528 3.63733 0.544 3.536 0.576 3.456C0.608 3.37067 0.650667 3.304 0.704 3.256C0.757333 3.20267 0.818667 3.16533 0.888 3.144C0.957333 3.12267 1.02933 3.112 1.104 3.112C1.184 3.112 1.256 3.11733 1.32 3.128C1.38933 3.13867 1.456 3.152 1.52 3.168C1.584 3.184 1.648 3.19733 1.712 3.208C1.776 3.21867 1.848 3.224 1.928 3.224C2.12 3.224 2.27467 3.208 2.392 3.176C2.50933 3.144 2.59733 3.10133 2.656 3.048C2.72 2.98933 2.76 2.91733 2.776 2.832C2.79733 2.74667 2.808 2.65333 2.808 2.552C2.808 2.456 2.78933 2.376 2.752 2.312C2.71467 2.248 2.66667 2.19733 2.608 2.16C2.55467 2.11733 2.49333 2.088 2.424 2.072C2.35467 2.056 2.288 2.048 2.224 2.048C2.11733 2.048 2.01333 2.06133 1.912 2.088C1.816 2.11467 1.72267 2.14933 1.632 2.192C1.54667 2.22933 1.46133 2.272 1.376 2.32C1.29067 2.36267 1.208 2.40267 1.128 2.44C0.968 2.50933 0.816 2.51467 0.672 2.456C0.533333 2.39733 0.426667 2.30667 0.352 2.184C0.282667 2.06133 0.264 1.92267 0.296 1.768C0.333333 1.608 0.448 1.46667 0.64 1.344C0.736 1.28 0.848 1.224 0.976 1.176C1.10933 1.12267 1.24533 1.07733 1.384 1.04C1.52267 1.00267 1.664 0.973333 1.808 0.952C1.95733 0.930666 2.096 0.92 2.224 0.92C2.496 0.92 2.74667 0.952 2.976 1.016C3.21067 1.08 3.41067 1.176 3.576 1.304C3.74667 1.432 3.88 1.592 3.976 1.784C4.072 1.97067 4.12 2.192 4.12 2.448C4.12 2.59733 4.104 2.73067 4.072 2.848C4.04533 2.96533 4.00267 3.072 3.944 3.168C3.89067 3.264 3.82133 3.352 3.736 3.432C3.656 3.50667 3.56533 3.58133 3.464 3.656C3.60267 3.69867 3.72533 3.76533 3.832 3.856C3.93867 3.94133 4.02667 4.04533 4.096 4.168C4.17067 4.29067 4.224 4.42667 4.256 4.576C4.29333 4.72533 4.312 4.88 4.312 5.04C4.312 5.33867 4.264 5.61333 4.168 5.864C4.072 6.11467 3.93333 6.33067 3.752 6.512C3.576 6.688 3.35467 6.82667 3.088 6.928C2.82667 7.02933 2.528 7.08 2.192 7.08C1.792 7.08 1.44 6.99733 1.136 6.832C0.832 6.66133 0.578667 6.45867 0.376 6.224C0.264 6.09067 0.197333 5.96 0.176 5.832C0.16 5.69867 0.173333 5.57867 0.216 5.472C0.264 5.36533 0.336 5.27467 0.432 5.2C0.533333 5.12533 0.64 5.07733 0.752 5.056C0.869333 5.02933 0.986667 5.03467 1.104 5.072C1.22667 5.10933 1.33333 5.184 1.424 5.296C1.51467 5.40267 1.62133 5.50667 1.744 5.608C1.872 5.70933 2.02133 5.76 2.192 5.76C2.256 5.76 2.33067 5.752 2.416 5.736C2.50133 5.72 2.57867 5.68533 2.648 5.632C2.72267 5.57867 2.784 5.50133 2.832 5.4C2.88533 5.29867 2.912 5.16267 2.912 4.992C2.912 4.90667 2.89067 4.824 2.848 4.744C2.80533 4.65867 2.744 4.584 2.664 4.52C2.58933 4.45067 2.496 4.39733 2.384 4.36C2.272 4.31733 2.14667 4.296 2.008 4.296ZM7.42075 4.184H6.63675C6.61008 4.18933 6.58075 4.192 6.54875 4.192C6.52208 4.192 6.49275 4.192 6.46075 4.192C6.42875 4.192 6.39942 4.192 6.37275 4.192C6.34608 4.192 6.31942 4.18933 6.29275 4.184C6.26608 4.184 6.22608 4.17867 6.17275 4.168C5.98608 4.13067 5.86075 4.06933 5.79675 3.984C5.73275 3.89867 5.70075 3.82133 5.70075 3.752C5.70075 3.624 5.72742 3.48 5.78075 3.32C5.83408 3.16 5.86075 2.99733 5.86075 2.832V2.4C5.86075 2.37867 5.86075 2.35733 5.86075 2.336C5.86075 2.31467 5.85808 2.29333 5.85275 2.272C5.80475 2.21867 5.76475 2.14933 5.73275 2.064C5.70075 1.97333 5.68475 1.85867 5.68475 1.72C5.68475 1.67733 5.68475 1.63733 5.68475 1.6C5.69008 1.55733 5.69542 1.52 5.70075 1.488C5.70075 1.392 5.73275 1.304 5.79675 1.224C5.85542 1.13333 5.93008 1.07467 6.02075 1.048C6.11142 1.02133 6.20208 1.00533 6.29275 1C6.31942 0.994666 6.34608 0.992 6.37275 0.992C6.39942 0.992 6.42875 0.992 6.46075 0.992C6.58875 0.992 6.69808 1.00533 6.78875 1.032C6.87942 1.05333 6.95408 1.08533 7.01275 1.128C7.11942 1.14933 7.27675 1.16 7.48475 1.16H7.66875C7.83942 1.16 7.97542 1.152 8.07675 1.136C8.17808 1.12 8.26342 1.10133 8.33275 1.08C8.40742 1.05867 8.47942 1.04 8.54875 1.024C8.61808 1.008 8.70608 1 8.81275 1C8.88742 1 8.96208 1.008 9.03675 1.024C9.11675 1.03467 9.18875 1.06667 9.25275 1.12C9.31675 1.168 9.36742 1.24 9.40475 1.336C9.44742 1.432 9.46875 1.56 9.46875 1.72C9.46875 1.88533 9.44742 2.016 9.40475 2.112C9.36208 2.208 9.30608 2.28 9.23675 2.328C9.17275 2.376 9.10075 2.408 9.02075 2.424C8.94608 2.43467 8.87142 2.44 8.79675 2.44C8.71142 2.44 8.63675 2.432 8.57275 2.416C8.50875 2.4 8.43675 2.38133 8.35675 2.36C8.28208 2.33867 8.19142 2.32 8.08475 2.304C7.97808 2.288 7.83942 2.28 7.66875 2.28H7.48475C7.31408 2.28 7.17275 2.288 7.06075 2.304V2.4V2.832C7.06075 2.86933 7.06075 2.90667 7.06075 2.944C7.06608 2.976 7.07142 3.01067 7.07675 3.048H7.46875C8.93008 3.048 9.66075 3.712 9.66075 5.04C9.66075 5.33867 9.61275 5.61333 9.51675 5.864C9.42075 6.11467 9.28208 6.33067 9.10075 6.512C8.92475 6.688 8.70342 6.82667 8.43675 6.928C8.17542 7.02933 7.87675 7.08 7.54075 7.08C7.34342 7.08 7.15142 7.056 6.96475 7.008C6.77808 6.96533 6.60208 6.90667 6.43675 6.832C6.27675 6.752 6.13008 6.66133 5.99675 6.56C5.86342 6.45333 5.74608 6.34133 5.64475 6.224C5.53275 6.09067 5.46608 5.96 5.44475 5.832C5.42875 5.69867 5.44208 5.57867 5.48475 5.472C5.53275 5.36533 5.60475 5.27467 5.70075 5.2C5.80208 5.12533 5.90875 5.07733 6.02075 5.056C6.13808 5.02933 6.25542 5.03467 6.37275 5.072C6.49542 5.10933 6.60208 5.184 6.69275 5.296C6.78342 5.40267 6.90342 5.50667 7.05275 5.608C7.20742 5.70933 7.37008 5.76 7.54075 5.76C7.60475 5.76 7.67942 5.752 7.76475 5.736C7.85008 5.72 7.92742 5.68533 7.99675 5.632C8.07142 5.57867 8.13275 5.50133 8.18075 5.4C8.23408 5.29867 8.26075 5.16267 8.26075 4.992C8.26075 4.90667 8.25275 4.816 8.23675 4.72C8.22608 4.624 8.19142 4.536 8.13275 4.456C8.07942 4.376 7.99675 4.312 7.88475 4.264C7.77275 4.21067 7.61808 4.184 7.42075 4.184ZM10.7834 4C10.7834 3.552 10.8314 3.13867 10.9274 2.76C11.0234 2.38133 11.1701 2.056 11.3674 1.784C11.5701 1.512 11.8234 1.30133 12.1274 1.152C12.4314 0.997333 12.7914 0.92 13.2074 0.92C13.6181 0.92 13.9728 0.997333 14.2714 1.152C14.5754 1.30133 14.8261 1.512 15.0234 1.784C15.2261 2.056 15.3754 2.38133 15.4714 2.76C15.5728 3.13867 15.6234 3.552 15.6234 4C15.6234 4.50133 15.5781 4.944 15.4874 5.328C15.4021 5.70667 15.2608 6.02667 15.0634 6.288C14.8714 6.54933 14.6208 6.74667 14.3114 6.88C14.0074 7.01333 13.6394 7.08 13.2074 7.08C12.7701 7.08 12.3968 7.01333 12.0874 6.88C11.7834 6.74667 11.5328 6.54933 11.3354 6.288C11.1434 6.02667 11.0021 5.70667 10.9114 5.328C10.8261 4.944 10.7834 4.50133 10.7834 4ZM12.1834 3.992C12.1834 4.264 12.1968 4.512 12.2234 4.736C12.2554 4.95467 12.3088 5.14133 12.3834 5.296C12.4634 5.45067 12.5674 5.57067 12.6954 5.656C12.8288 5.74133 12.9994 5.784 13.2074 5.784C13.4154 5.784 13.5834 5.74133 13.7114 5.656C13.8448 5.57067 13.9488 5.45067 14.0234 5.296C14.1034 5.14133 14.1568 4.95467 14.1834 4.736C14.2154 4.512 14.2314 4.264 14.2314 3.992C14.2314 3.72 14.2208 3.46667 14.1994 3.232C14.1781 2.99733 14.1301 2.792 14.0554 2.616C13.9861 2.44 13.8821 2.30133 13.7434 2.2C13.6101 2.09867 13.4314 2.048 13.2074 2.048C12.9834 2.048 12.8021 2.09867 12.6634 2.2C12.5301 2.30133 12.4261 2.44 12.3514 2.616C12.2821 2.792 12.2368 2.99733 12.2154 3.232C12.1941 3.46667 12.1834 3.72 12.1834 3.992ZM18.3077 5.344C18.3237 5.49867 18.3397 5.65867 18.3557 5.824C18.3717 5.984 18.3797 6.15733 18.3797 6.344C18.3797 6.41867 18.369 6.496 18.3477 6.576C18.3264 6.65067 18.2864 6.72 18.2277 6.784C18.169 6.848 18.089 6.90133 17.9877 6.944C17.8864 6.98133 17.7584 7 17.6037 7C17.3744 7 17.1797 6.94933 17.0197 6.848C16.8597 6.74667 16.7797 6.57333 16.7797 6.328C16.7797 6.14133 16.7877 5.96 16.8037 5.784C16.8197 5.608 16.8384 5.43467 16.8597 5.264C16.881 5.088 16.8997 4.91733 16.9157 4.752C16.9317 4.58133 16.9397 4.41067 16.9397 4.24V3.76C16.9397 3.58933 16.9317 3.42133 16.9157 3.256C16.8997 3.08533 16.881 2.91467 16.8597 2.744C16.8384 2.568 16.8197 2.392 16.8037 2.216C16.7877 2.04 16.7797 1.85867 16.7797 1.672C16.7797 1.54933 16.801 1.44533 16.8437 1.36C16.8864 1.27467 16.945 1.20533 17.0197 1.152C17.0944 1.09867 17.1824 1.06133 17.2837 1.04C17.385 1.01333 17.4917 1 17.6037 1C17.7584 1 17.8864 1.02133 17.9877 1.064C18.089 1.10133 18.169 1.152 18.2277 1.216C18.2864 1.28 18.3264 1.352 18.3477 1.432C18.369 1.50667 18.3797 1.58133 18.3797 1.656C18.3797 1.864 18.3717 2.05867 18.3557 2.24C18.3397 2.42133 18.321 2.59733 18.2997 2.768C18.2784 2.93333 18.2597 3.09867 18.2437 3.264C18.2277 3.424 18.2197 3.58933 18.2197 3.76V3.928C18.2197 4.02933 18.2704 4.08533 18.3717 4.096C18.409 4.10133 18.449 4.104 18.4917 4.104C18.5344 4.104 18.577 4.104 18.6197 4.104H18.9397C19.0037 4.104 19.0624 4.104 19.1157 4.104C19.169 4.09867 19.2197 4.09333 19.2677 4.088C19.369 4.07733 19.4197 4.02133 19.4197 3.92V3.76C19.4197 3.58933 19.4117 3.42133 19.3957 3.256C19.3797 3.08533 19.361 2.91467 19.3397 2.744C19.3184 2.568 19.2997 2.392 19.2837 2.216C19.2677 2.04 19.2597 1.85867 19.2597 1.672C19.2597 1.54933 19.281 1.44533 19.3237 1.36C19.3664 1.27467 19.425 1.20533 19.4997 1.152C19.5744 1.09867 19.6624 1.06133 19.7637 1.04C19.865 1.01333 19.9717 1 20.0837 1C20.2384 1 20.3664 1.02133 20.4677 1.064C20.569 1.10133 20.649 1.152 20.7077 1.216C20.7664 1.28 20.8064 1.352 20.8277 1.432C20.849 1.50667 20.8597 1.58133 20.8597 1.656C20.8597 1.864 20.8517 2.05867 20.8357 2.24C20.8197 2.42133 20.801 2.59733 20.7797 2.768C20.7584 2.93333 20.7397 3.09867 20.7237 3.264C20.7077 3.424 20.6997 3.58933 20.6997 3.76V4.24C20.6997 4.41067 20.7077 4.57867 20.7237 4.744C20.7397 4.904 20.7584 5.06933 20.7797 5.24C20.801 5.40533 20.8197 5.57867 20.8357 5.76C20.8517 5.94133 20.8597 6.136 20.8597 6.344C20.8597 6.41867 20.849 6.496 20.8277 6.576C20.8064 6.65067 20.7664 6.72 20.7077 6.784C20.649 6.848 20.569 6.90133 20.4677 6.944C20.3664 6.98133 20.2384 7 20.0837 7C19.8544 7 19.6597 6.94933 19.4997 6.848C19.3397 6.74667 19.2597 6.57333 19.2597 6.328C19.2597 6.15733 19.2677 5.992 19.2837 5.832C19.2997 5.66667 19.3157 5.50667 19.3317 5.352C19.3424 5.25067 19.297 5.19467 19.1957 5.184C19.153 5.17867 19.1104 5.176 19.0677 5.176C19.0304 5.176 18.9877 5.176 18.9397 5.176H18.6197C18.5877 5.176 18.5557 5.17867 18.5237 5.184C18.497 5.184 18.4704 5.184 18.4437 5.184C18.3424 5.19467 18.297 5.248 18.3077 5.344ZM23.7123 3.784C23.5309 3.784 23.3549 3.80267 23.1843 3.84C23.0189 3.87733 22.8483 3.896 22.6723 3.896C22.5976 3.896 22.5256 3.888 22.4563 3.872C22.3869 3.856 22.3229 3.82667 22.2643 3.784C22.2109 3.74133 22.1656 3.68267 22.1283 3.608C22.0963 3.528 22.0803 3.42667 22.0803 3.304C22.0803 3.18133 22.0963 3.08267 22.1283 3.008C22.1603 2.928 22.2029 2.86667 22.2563 2.824C22.3096 2.78133 22.3709 2.752 22.4403 2.736C22.5096 2.72 22.5816 2.712 22.6563 2.712C22.7629 2.712 22.8616 2.71733 22.9523 2.728C23.0429 2.73867 23.1283 2.752 23.2083 2.768C23.2936 2.784 23.3763 2.79733 23.4563 2.808C23.5416 2.81867 23.6296 2.824 23.7203 2.824H24.1203C24.2109 2.824 24.2963 2.81867 24.3763 2.808C24.4616 2.79733 24.5443 2.784 24.6243 2.768C24.7096 2.752 24.7976 2.73867 24.8883 2.728C24.9789 2.71733 25.0776 2.712 25.1843 2.712C25.2589 2.712 25.3256 2.72 25.3843 2.736C25.4483 2.752 25.5016 2.78133 25.5443 2.824C25.5923 2.86667 25.6269 2.928 25.6483 3.008C25.6696 3.08267 25.6803 3.18133 25.6803 3.304C25.6803 3.45867 25.6616 3.576 25.6243 3.656C25.5869 3.752 25.5309 3.84533 25.4563 3.936C25.3123 4.112 25.1549 4.272 24.9843 4.416C24.8189 4.56 24.6589 4.72533 24.5043 4.912L24.0483 5.472C24.0056 5.52533 23.9709 5.57067 23.9443 5.608C23.8643 5.71467 23.8909 5.768 24.0243 5.768H24.1203C24.2109 5.768 24.2963 5.76267 24.3763 5.752C24.4616 5.74133 24.5443 5.728 24.6243 5.712C24.7096 5.696 24.7976 5.68267 24.8883 5.672C24.9789 5.66133 25.0776 5.656 25.1843 5.656C25.2589 5.656 25.3309 5.66933 25.4003 5.696C25.4696 5.71733 25.5309 5.75467 25.5843 5.808C25.6376 5.86133 25.6803 5.93067 25.7123 6.016C25.7443 6.10133 25.7603 6.20533 25.7603 6.328C25.7549 6.57867 25.6909 6.75467 25.5683 6.856C25.4509 6.952 25.3176 7 25.1683 7C24.9923 7 24.8189 6.98133 24.6483 6.944C24.4829 6.90667 24.3069 6.888 24.1203 6.888H23.5603C23.3736 6.888 23.1949 6.90667 23.0243 6.944C22.8589 6.98133 22.6883 7 22.5123 7C22.3629 7 22.2403 6.952 22.1443 6.856C22.0536 6.75467 22.0056 6.57867 22.0003 6.328C21.9949 6.17867 22.0109 6.056 22.0483 5.96C22.0856 5.864 22.1363 5.792 22.2003 5.744C22.2056 5.73333 22.2163 5.72 22.2323 5.704C22.3176 5.59733 22.4003 5.504 22.4803 5.424C22.5656 5.344 22.6456 5.26667 22.7203 5.192C22.8003 5.11733 22.8776 5.04267 22.9523 4.968C23.0323 4.89333 23.1096 4.81067 23.1843 4.72L23.6403 4.16C23.6669 4.12267 23.6936 4.088 23.7203 4.056C23.7469 4.01867 23.7736 3.98133 23.8003 3.944C23.8696 3.83733 23.8403 3.784 23.7123 3.784Z" fill="black"/>
</svg>
