<svg width="28" height="8" viewBox="0 0 28 8" fill="none" xmlns="http://www.w3.org/2000/svg">
<path fill-rule="evenodd" clip-rule="evenodd" d="M28 0H0V8H28V0ZM2.80844 4.312C2.8831 4.30133 2.96577 4.296 3.05644 4.296C3.1951 4.296 3.32044 4.31733 3.43244 4.36C3.54444 4.39733 3.63777 4.45067 3.71244 4.52C3.79244 4.584 3.85377 4.65867 3.89644 4.744C3.9391 4.824 3.96044 4.90667 3.96044 4.992C3.96044 5.16267 3.93377 5.29867 3.88044 5.4C3.83244 5.50133 3.7711 5.57867 3.69644 5.632C3.6271 5.68533 3.54977 5.72 3.46444 5.736C3.3791 5.752 3.30444 5.76 3.24044 5.76C3.06977 5.76 2.92044 5.70933 2.79244 5.608C2.66977 5.50667 2.5631 5.40267 2.47244 5.296C2.38177 5.184 2.2751 5.10933 2.15244 5.072C2.0351 5.03467 1.91777 5.02933 1.80044 5.056C1.68844 5.07733 1.58177 5.12533 1.48044 5.2C1.38444 5.27467 1.31244 5.36533 1.26444 5.472C1.22177 5.57867 1.20844 5.69867 1.22444 5.832C1.24577 5.96 1.31244 6.09067 1.42444 6.224C1.6271 6.45867 1.88044 6.66133 2.18444 6.832C2.48844 6.99733 2.84044 7.08 3.24044 7.08C3.57644 7.08 3.8751 7.02933 4.13644 6.928C4.4031 6.82667 4.62444 6.688 4.80044 6.512C4.98177 6.33067 5.12044 6.11467 5.21644 5.864C5.31244 5.61333 5.36044 5.33867 5.36044 5.04C5.36044 4.88 5.34177 4.72533 5.30444 4.576C5.27244 4.42667 5.2191 4.29067 5.14444 4.168C5.0751 4.04533 4.9871 3.94133 4.88044 3.856C4.77377 3.76533 4.6511 3.69867 4.51244 3.656C4.61377 3.58133 4.70444 3.50667 4.78444 3.432C4.86977 3.352 4.9391 3.264 4.99244 3.168C5.0511 3.072 5.09377 2.96533 5.12044 2.848C5.15244 2.73067 5.16844 2.59733 5.16844 2.448C5.16844 2.192 5.12044 1.97067 5.02444 1.784C4.92844 1.592 4.7951 1.432 4.62444 1.304C4.4591 1.176 4.2591 1.08 4.02444 1.016C3.7951 0.952 3.54444 0.92 3.27244 0.92C3.14444 0.92 3.00577 0.930666 2.85644 0.952C2.71244 0.973333 2.5711 1.00267 2.43244 1.04C2.29377 1.07733 2.15777 1.12267 2.02444 1.176C1.89644 1.224 1.78444 1.28 1.68844 1.344C1.49644 1.46667 1.38177 1.608 1.34444 1.768C1.31244 1.92267 1.3311 2.06133 1.40044 2.184C1.4751 2.30667 1.58177 2.39733 1.72044 2.456C1.86444 2.51467 2.01644 2.50933 2.17644 2.44C2.25644 2.40267 2.3391 2.36267 2.42444 2.32C2.50977 2.272 2.5951 2.22933 2.68044 2.192C2.7711 2.14933 2.86444 2.11467 2.96044 2.088C3.06177 2.06133 3.16577 2.048 3.27244 2.048C3.33644 2.048 3.4031 2.056 3.47244 2.072C3.54177 2.088 3.6031 2.11733 3.65644 2.16C3.7151 2.19733 3.7631 2.248 3.80044 2.312C3.83777 2.376 3.85644 2.456 3.85644 2.552C3.85644 2.65333 3.84577 2.74667 3.82444 2.832C3.80844 2.91733 3.76844 2.98933 3.70444 3.048C3.64577 3.10133 3.55777 3.144 3.44044 3.176C3.3231 3.208 3.16844 3.224 2.97644 3.224C2.89644 3.224 2.82444 3.21867 2.76044 3.208C2.69644 3.19733 2.63244 3.184 2.56844 3.168C2.50444 3.152 2.43777 3.13867 2.36844 3.128C2.30444 3.11733 2.23244 3.112 2.15244 3.112C2.07777 3.112 2.00577 3.12267 1.93644 3.144C1.8671 3.16533 1.80577 3.20267 1.75244 3.256C1.6991 3.304 1.65644 3.37067 1.62444 3.456C1.59244 3.536 1.57644 3.63733 1.57644 3.76C1.58177 4.00533 1.6431 4.176 1.76044 4.272C1.8831 4.36267 2.0191 4.408 2.16844 4.408C2.2591 4.408 2.33644 4.40267 2.40044 4.392C2.46977 4.38133 2.53644 4.368 2.60044 4.352C2.66977 4.336 2.7391 4.32267 2.80844 4.312ZM7.68519 4.184H8.46919C8.66652 4.184 8.82119 4.21067 8.93319 4.264C9.04519 4.312 9.12785 4.376 9.18119 4.456C9.23985 4.536 9.27452 4.624 9.28519 4.72C9.30119 4.816 9.30919 4.90667 9.30919 4.992C9.30919 5.16267 9.28252 5.29867 9.22919 5.4C9.18119 5.50133 9.11985 5.57867 9.04519 5.632C8.97585 5.68533 8.89852 5.72 8.81319 5.736C8.72785 5.752 8.65319 5.76 8.58919 5.76C8.41852 5.76 8.25585 5.70933 8.10119 5.608C7.95185 5.50667 7.83185 5.40267 7.74119 5.296C7.65052 5.184 7.54385 5.10933 7.42119 5.072C7.30385 5.03467 7.18652 5.02933 7.06919 5.056C6.95719 5.07733 6.85052 5.12533 6.74919 5.2C6.65319 5.27467 6.58119 5.36533 6.53319 5.472C6.49052 5.57867 6.47719 5.69867 6.49319 5.832C6.51452 5.96 6.58119 6.09067 6.69319 6.224C6.79452 6.34133 6.91185 6.45333 7.04519 6.56C7.17852 6.66133 7.32519 6.752 7.48519 6.832C7.65052 6.90667 7.82652 6.96533 8.01319 7.008C8.19985 7.056 8.39185 7.08 8.58919 7.08C8.92519 7.08 9.22385 7.02933 9.48519 6.928C9.75185 6.82667 9.97319 6.688 10.1492 6.512C10.3305 6.33067 10.4692 6.11467 10.5652 5.864C10.6612 5.61333 10.7092 5.33867 10.7092 5.04C10.7092 3.712 9.97852 3.048 8.51719 3.048H8.12519C8.11985 3.01067 8.11452 2.976 8.10919 2.944V2.832V2.4V2.304C8.22119 2.288 8.36252 2.28 8.53319 2.28H8.71719C8.88785 2.28 9.02652 2.288 9.13319 2.304C9.23985 2.32 9.33052 2.33867 9.40519 2.36C9.48519 2.38133 9.55719 2.4 9.62119 2.416C9.68519 2.432 9.75985 2.44 9.84519 2.44C9.91985 2.44 9.99452 2.43467 10.0692 2.424C10.1492 2.408 10.2212 2.376 10.2852 2.328C10.3545 2.28 10.4105 2.208 10.4532 2.112C10.4959 2.016 10.5172 1.88533 10.5172 1.72C10.5172 1.56 10.4959 1.432 10.4532 1.336C10.4159 1.24 10.3652 1.168 10.3012 1.12C10.2372 1.06667 10.1652 1.03467 10.0852 1.024C10.0105 1.008 9.93585 1 9.86119 1C9.75452 1 9.66652 1.008 9.59719 1.024C9.52785 1.04 9.45585 1.05867 9.38119 1.08C9.31185 1.10133 9.22652 1.12 9.12519 1.136C9.02385 1.152 8.88785 1.16 8.71719 1.16H8.53319C8.32519 1.16 8.16785 1.14933 8.06119 1.128C8.00252 1.08533 7.92785 1.05333 7.83719 1.032C7.74652 1.00533 7.63719 0.992 7.50919 0.992H7.42119C7.39452 0.992 7.36785 0.994666 7.34119 1C7.25052 1.00533 7.15985 1.02133 7.06919 1.048C6.97852 1.07467 6.90385 1.13333 6.84519 1.224C6.78119 1.304 6.74919 1.392 6.74919 1.488C6.74385 1.52 6.73852 1.55733 6.73319 1.6V1.72C6.73319 1.85867 6.74919 1.97333 6.78119 2.064C6.81319 2.14933 6.85319 2.21867 6.90119 2.272C6.90652 2.29333 6.90919 2.31467 6.90919 2.336V2.4V2.832C6.90919 2.99733 6.88252 3.16 6.82919 3.32C6.77585 3.48 6.74919 3.624 6.74919 3.752C6.74919 3.82133 6.78119 3.89867 6.84519 3.984C6.90919 4.06933 7.03452 4.13067 7.22119 4.168C7.27452 4.17867 7.31452 4.184 7.34119 4.184C7.36785 4.18933 7.39452 4.192 7.42119 4.192H7.50919H7.59719C7.62919 4.192 7.65852 4.18933 7.68519 4.184ZM11.9759 2.76C11.8799 3.13867 11.8319 3.552 11.8319 4C11.8319 4.50133 11.8745 4.944 11.9599 5.328C12.0505 5.70667 12.1919 6.02667 12.3839 6.288C12.5812 6.54933 12.8319 6.74667 13.1359 6.88C13.4452 7.01333 13.8185 7.08 14.2559 7.08C14.6879 7.08 15.0559 7.01333 15.3599 6.88C15.6692 6.74667 15.9199 6.54933 16.1119 6.288C16.3092 6.02667 16.4505 5.70667 16.5359 5.328C16.6265 4.944 16.6719 4.50133 16.6719 4C16.6719 3.552 16.6212 3.13867 16.5199 2.76C16.4239 2.38133 16.2745 2.056 16.0719 1.784C15.8745 1.512 15.6239 1.30133 15.3199 1.152C15.0212 0.997333 14.6665 0.92 14.2559 0.92C13.8399 0.92 13.4799 0.997333 13.1759 1.152C12.8719 1.30133 12.6185 1.512 12.4159 1.784C12.2185 2.056 12.0719 2.38133 11.9759 2.76ZM13.2719 4.736C13.2452 4.512 13.2319 4.264 13.2319 3.992C13.2319 3.72 13.2425 3.46667 13.2639 3.232C13.2852 2.99733 13.3305 2.792 13.3999 2.616C13.4745 2.44 13.5785 2.30133 13.7119 2.2C13.8505 2.09867 14.0319 2.048 14.2559 2.048C14.4799 2.048 14.6585 2.09867 14.7919 2.2C14.9305 2.30133 15.0345 2.44 15.1039 2.616C15.1785 2.792 15.2265 2.99733 15.2479 3.232C15.2692 3.46667 15.2799 3.72 15.2799 3.992C15.2799 4.264 15.2639 4.512 15.2319 4.736C15.2052 4.95467 15.1519 5.14133 15.0719 5.296C14.9972 5.45067 14.8932 5.57067 14.7599 5.656C14.6319 5.74133 14.4639 5.784 14.2559 5.784C14.0479 5.784 13.8772 5.74133 13.7439 5.656C13.6159 5.57067 13.5119 5.45067 13.4319 5.296C13.3572 5.14133 13.3039 4.95467 13.2719 4.736ZM19.4041 5.824C19.3881 5.65867 19.3721 5.49867 19.3561 5.344C19.3455 5.248 19.3908 5.19467 19.4921 5.184H19.5721C19.6041 5.17867 19.6361 5.176 19.6681 5.176H19.9881H20.1161C20.1588 5.176 20.2015 5.17867 20.2441 5.184C20.3455 5.19467 20.3908 5.25067 20.3801 5.352C20.3641 5.50667 20.3481 5.66667 20.3321 5.832C20.3161 5.992 20.3081 6.15733 20.3081 6.328C20.3081 6.57333 20.3881 6.74667 20.5481 6.848C20.7081 6.94933 20.9028 7 21.1321 7C21.2868 7 21.4148 6.98133 21.5161 6.944C21.6175 6.90133 21.6975 6.848 21.7561 6.784C21.8148 6.72 21.8548 6.65067 21.8761 6.576C21.8975 6.496 21.9081 6.41867 21.9081 6.344C21.9081 6.136 21.9001 5.94133 21.8841 5.76C21.8681 5.57867 21.8495 5.40533 21.8281 5.24C21.8068 5.06933 21.7881 4.904 21.7721 4.744C21.7561 4.57867 21.7481 4.41067 21.7481 4.24V3.76C21.7481 3.58933 21.7561 3.424 21.7721 3.264C21.7881 3.09867 21.8068 2.93333 21.8281 2.768C21.8495 2.59733 21.8681 2.42133 21.8841 2.24C21.9001 2.05867 21.9081 1.864 21.9081 1.656C21.9081 1.58133 21.8975 1.50667 21.8761 1.432C21.8548 1.352 21.8148 1.28 21.7561 1.216C21.6975 1.152 21.6175 1.10133 21.5161 1.064C21.4148 1.02133 21.2868 1 21.1321 1C21.0201 1 20.9135 1.01333 20.8121 1.04C20.7108 1.06133 20.6228 1.09867 20.5481 1.152C20.4735 1.20533 20.4148 1.27467 20.3721 1.36C20.3295 1.44533 20.3081 1.54933 20.3081 1.672C20.3081 1.85867 20.3161 2.04 20.3321 2.216C20.3481 2.392 20.3668 2.568 20.3881 2.744C20.4095 2.91467 20.4281 3.08533 20.4441 3.256C20.4601 3.42133 20.4681 3.58933 20.4681 3.76V3.92C20.4681 4.02133 20.4175 4.07733 20.3161 4.088C20.2681 4.09333 20.2175 4.09867 20.1641 4.104H19.9881H19.6681H19.5401C19.4975 4.104 19.4575 4.10133 19.4201 4.096C19.3188 4.08533 19.2681 4.02933 19.2681 3.928V3.76C19.2681 3.58933 19.2761 3.424 19.2921 3.264C19.3081 3.09867 19.3268 2.93333 19.3481 2.768C19.3695 2.59733 19.3881 2.42133 19.4041 2.24C19.4201 2.05867 19.4281 1.864 19.4281 1.656C19.4281 1.58133 19.4175 1.50667 19.3961 1.432C19.3748 1.352 19.3348 1.28 19.2761 1.216C19.2175 1.152 19.1375 1.10133 19.0361 1.064C18.9348 1.02133 18.8068 1 18.6521 1C18.5401 1 18.4335 1.01333 18.3321 1.04C18.2308 1.06133 18.1428 1.09867 18.0681 1.152C17.9935 1.20533 17.9348 1.27467 17.8921 1.36C17.8495 1.44533 17.8281 1.54933 17.8281 1.672C17.8281 1.85867 17.8361 2.04 17.8521 2.216C17.8681 2.392 17.8868 2.568 17.9081 2.744C17.9295 2.91467 17.9481 3.08533 17.9641 3.256C17.9801 3.42133 17.9881 3.58933 17.9881 3.76V4.24C17.9881 4.41067 17.9801 4.58133 17.9641 4.752C17.9481 4.91733 17.9295 5.088 17.9081 5.264C17.8868 5.43467 17.8681 5.608 17.8521 5.784C17.8361 5.96 17.8281 6.14133 17.8281 6.328C17.8281 6.57333 17.9081 6.74667 18.0681 6.848C18.2281 6.94933 18.4228 7 18.6521 7C18.8068 7 18.9348 6.98133 19.0361 6.944C19.1375 6.90133 19.2175 6.848 19.2761 6.784C19.3348 6.72 19.3748 6.65067 19.3961 6.576C19.4175 6.496 19.4281 6.41867 19.4281 6.344C19.4281 6.15733 19.4201 5.984 19.4041 5.824ZM24.2327 3.84C24.4034 3.80267 24.5794 3.784 24.7607 3.784C24.8887 3.784 24.918 3.83733 24.8487 3.944L24.7687 4.056C24.742 4.088 24.7154 4.12267 24.6887 4.16L24.2327 4.72C24.158 4.81067 24.0807 4.89333 24.0007 4.968C23.926 5.04267 23.8487 5.11733 23.7687 5.192C23.694 5.26667 23.614 5.344 23.5287 5.424C23.4487 5.504 23.366 5.59733 23.2807 5.704C23.2647 5.72 23.254 5.73333 23.2487 5.744C23.1847 5.792 23.134 5.864 23.0967 5.96C23.0594 6.056 23.0434 6.17867 23.0487 6.328C23.054 6.57867 23.102 6.75467 23.1927 6.856C23.2887 6.952 23.4114 7 23.5607 7C23.7367 7 23.9074 6.98133 24.0727 6.944C24.2434 6.90667 24.422 6.888 24.6087 6.888H25.1687C25.3554 6.888 25.5314 6.90667 25.6967 6.944C25.8674 6.98133 26.0407 7 26.2167 7C26.366 7 26.4994 6.952 26.6167 6.856C26.7394 6.75467 26.8034 6.57867 26.8087 6.328C26.8087 6.20533 26.7927 6.10133 26.7607 6.016C26.7287 5.93067 26.686 5.86133 26.6327 5.808C26.5794 5.75467 26.518 5.71733 26.4487 5.696C26.3794 5.66933 26.3074 5.656 26.2327 5.656C26.126 5.656 26.0274 5.66133 25.9367 5.672C25.846 5.68267 25.758 5.696 25.6727 5.712C25.5927 5.728 25.51 5.74133 25.4247 5.752C25.3447 5.76267 25.2594 5.768 25.1687 5.768H25.0727C24.9394 5.768 24.9127 5.71467 24.9927 5.608C25.0194 5.57067 25.054 5.52533 25.0967 5.472L25.5527 4.912C25.7074 4.72533 25.8674 4.56 26.0327 4.416C26.2034 4.272 26.3607 4.112 26.5047 3.936C26.5794 3.84533 26.6354 3.752 26.6727 3.656C26.71 3.576 26.7287 3.45867 26.7287 3.304C26.7287 3.18133 26.718 3.08267 26.6967 3.008C26.6754 2.928 26.6407 2.86667 26.5927 2.824C26.55 2.78133 26.4967 2.752 26.4327 2.736C26.374 2.72 26.3074 2.712 26.2327 2.712C26.126 2.712 26.0274 2.71733 25.9367 2.728C25.846 2.73867 25.758 2.752 25.6727 2.768C25.5927 2.784 25.51 2.79733 25.4247 2.808C25.3447 2.81867 25.2594 2.824 25.1687 2.824H24.7687C24.678 2.824 24.59 2.81867 24.5047 2.808C24.4247 2.79733 24.342 2.784 24.2567 2.768C24.1767 2.752 24.0914 2.73867 24.0007 2.728C23.91 2.71733 23.8114 2.712 23.7047 2.712C23.63 2.712 23.558 2.72 23.4887 2.736C23.4194 2.752 23.358 2.78133 23.3047 2.824C23.2514 2.86667 23.2087 2.928 23.1767 3.008C23.1447 3.08267 23.1287 3.18133 23.1287 3.304C23.1287 3.42667 23.1447 3.528 23.1767 3.608C23.214 3.68267 23.2594 3.74133 23.3127 3.784C23.3714 3.82667 23.4354 3.856 23.5047 3.872C23.574 3.888 23.646 3.896 23.7207 3.896C23.8967 3.896 24.0674 3.87733 24.2327 3.84Z" fill="black"/>
</svg>
