<svg width="22" height="8" viewBox="0 0 22 8" fill="none" xmlns="http://www.w3.org/2000/svg">
<path fill-rule="evenodd" clip-rule="evenodd" d="M22 0H0V8H22V0ZM2.05081 4.184H2.83481C3.03215 4.184 3.18681 4.21067 3.29881 4.264C3.41081 4.312 3.49348 4.376 3.54681 4.456C3.60548 4.536 3.64015 4.624 3.65081 4.72C3.66681 4.816 3.67481 4.90667 3.67481 4.992C3.67481 5.16267 3.64815 5.29867 3.59481 5.4C3.54681 5.50133 3.48548 5.57867 3.41081 5.632C3.34148 5.68533 3.26415 5.72 3.17881 5.736C3.09348 5.752 3.01881 5.76 2.95481 5.76C2.78415 5.76 2.62148 5.70933 2.46681 5.608C2.31748 5.50667 2.19748 5.40267 2.10681 5.296C2.01615 5.184 1.90948 5.10933 1.78681 5.072C1.66948 5.03467 1.55215 5.02933 1.43481 5.056C1.32281 5.07733 1.21615 5.12533 1.11481 5.2C1.01881 5.27467 0.946813 5.36533 0.898813 5.472C0.856146 5.57867 0.842813 5.69867 0.858813 5.832C0.880146 5.96 0.946813 6.09067 1.05881 6.224C1.16015 6.34133 1.27748 6.45333 1.41081 6.56C1.54415 6.66133 1.69081 6.752 1.85081 6.832C2.01615 6.90667 2.19215 6.96533 2.37881 7.008C2.56548 7.056 2.75748 7.08 2.95481 7.08C3.29081 7.08 3.58948 7.02933 3.85081 6.928C4.11748 6.82667 4.33881 6.688 4.51481 6.512C4.69615 6.33067 4.83481 6.11467 4.93081 5.864C5.02681 5.61333 5.07481 5.33867 5.07481 5.04C5.07481 3.712 4.34415 3.048 2.88281 3.048H2.49081C2.48548 3.01067 2.48015 2.976 2.47481 2.944V2.832V2.4V2.304C2.58681 2.288 2.72815 2.28 2.89881 2.28H3.08281C3.25348 2.28 3.39215 2.288 3.49881 2.304C3.60548 2.32 3.69615 2.33867 3.77081 2.36C3.85081 2.38133 3.92281 2.4 3.98681 2.416C4.05081 2.432 4.12548 2.44 4.21081 2.44C4.28548 2.44 4.36015 2.43467 4.43481 2.424C4.51481 2.408 4.58681 2.376 4.65081 2.328C4.72015 2.28 4.77615 2.208 4.81881 2.112C4.86148 2.016 4.88281 1.88533 4.88281 1.72C4.88281 1.56 4.86148 1.432 4.81881 1.336C4.78148 1.24 4.73081 1.168 4.66681 1.12C4.60281 1.06667 4.53081 1.03467 4.45081 1.024C4.37615 1.008 4.30148 1 4.22681 1C4.12015 1 4.03215 1.008 3.96281 1.024C3.89348 1.04 3.82148 1.05867 3.74681 1.08C3.67748 1.10133 3.59215 1.12 3.49081 1.136C3.38948 1.152 3.25348 1.16 3.08281 1.16H2.89881C2.69081 1.16 2.53348 1.14933 2.42681 1.128C2.36815 1.08533 2.29348 1.05333 2.20281 1.032C2.11215 1.00533 2.00281 0.992 1.87481 0.992H1.78681C1.76015 0.992 1.73348 0.994666 1.70681 1C1.61615 1.00533 1.52548 1.02133 1.43481 1.048C1.34415 1.07467 1.26948 1.13333 1.21081 1.224C1.14681 1.304 1.11481 1.392 1.11481 1.488C1.10948 1.52 1.10415 1.55733 1.09881 1.6V1.72C1.09881 1.85867 1.11481 1.97333 1.14681 2.064C1.17881 2.14933 1.21881 2.21867 1.26681 2.272C1.27215 2.29333 1.27481 2.31467 1.27481 2.336V2.4V2.832C1.27481 2.99733 1.24815 3.16 1.19481 3.32C1.14148 3.48 1.11481 3.624 1.11481 3.752C1.11481 3.82133 1.14681 3.89867 1.21081 3.984C1.27481 4.06933 1.40015 4.13067 1.58681 4.168C1.64015 4.17867 1.68015 4.184 1.70681 4.184C1.73348 4.18933 1.76015 4.192 1.78681 4.192H1.87481H1.96281C1.99481 4.192 2.02415 4.18933 2.05081 4.184ZM6.3415 2.76C6.2455 3.13867 6.1975 3.552 6.1975 4C6.1975 4.50133 6.24017 4.944 6.3255 5.328C6.41617 5.70667 6.5575 6.02667 6.7495 6.288C6.94683 6.54933 7.1975 6.74667 7.5015 6.88C7.81083 7.01333 8.18417 7.08 8.6215 7.08C9.0535 7.08 9.4215 7.01333 9.7255 6.88C10.0348 6.74667 10.2855 6.54933 10.4775 6.288C10.6748 6.02667 10.8162 5.70667 10.9015 5.328C10.9922 4.944 11.0375 4.50133 11.0375 4C11.0375 3.552 10.9868 3.13867 10.8855 2.76C10.7895 2.38133 10.6402 2.056 10.4375 1.784C10.2402 1.512 9.9895 1.30133 9.6855 1.152C9.38683 0.997333 9.03217 0.92 8.6215 0.92C8.2055 0.92 7.8455 0.997333 7.5415 1.152C7.2375 1.30133 6.98417 1.512 6.7815 1.784C6.58417 2.056 6.4375 2.38133 6.3415 2.76ZM7.6375 4.736C7.61083 4.512 7.5975 4.264 7.5975 3.992C7.5975 3.72 7.60817 3.46667 7.6295 3.232C7.65083 2.99733 7.69617 2.792 7.7655 2.616C7.84017 2.44 7.94417 2.30133 8.0775 2.2C8.21617 2.09867 8.3975 2.048 8.6215 2.048C8.8455 2.048 9.02417 2.09867 9.1575 2.2C9.29617 2.30133 9.40017 2.44 9.4695 2.616C9.54417 2.792 9.59217 2.99733 9.6135 3.232C9.63483 3.46667 9.6455 3.72 9.6455 3.992C9.6455 4.264 9.6295 4.512 9.5975 4.736C9.57083 4.95467 9.5175 5.14133 9.4375 5.296C9.36283 5.45067 9.25883 5.57067 9.1255 5.656C8.9975 5.74133 8.8295 5.784 8.6215 5.784C8.4135 5.784 8.24283 5.74133 8.1095 5.656C7.9815 5.57067 7.8775 5.45067 7.7975 5.296C7.72283 5.14133 7.6695 4.95467 7.6375 4.736ZM13.7698 5.824C13.7538 5.65867 13.7378 5.49867 13.7218 5.344C13.7111 5.248 13.7564 5.19467 13.8578 5.184H13.9378C13.9698 5.17867 14.0018 5.176 14.0338 5.176H14.3538H14.4818C14.5244 5.176 14.5671 5.17867 14.6098 5.184C14.7111 5.19467 14.7564 5.25067 14.7458 5.352C14.7298 5.50667 14.7138 5.66667 14.6978 5.832C14.6818 5.992 14.6738 6.15733 14.6738 6.328C14.6738 6.57333 14.7538 6.74667 14.9138 6.848C15.0738 6.94933 15.2684 7 15.4978 7C15.6524 7 15.7804 6.98133 15.8818 6.944C15.9831 6.90133 16.0631 6.848 16.1217 6.784C16.1804 6.72 16.2204 6.65067 16.2418 6.576C16.2631 6.496 16.2738 6.41867 16.2738 6.344C16.2738 6.136 16.2658 5.94133 16.2498 5.76C16.2338 5.57867 16.2151 5.40533 16.1938 5.24C16.1724 5.06933 16.1538 4.904 16.1378 4.744C16.1217 4.57867 16.1138 4.41067 16.1138 4.24V3.76C16.1138 3.58933 16.1217 3.424 16.1378 3.264C16.1538 3.09867 16.1724 2.93333 16.1938 2.768C16.2151 2.59733 16.2338 2.42133 16.2498 2.24C16.2658 2.05867 16.2738 1.864 16.2738 1.656C16.2738 1.58133 16.2631 1.50667 16.2418 1.432C16.2204 1.352 16.1804 1.28 16.1217 1.216C16.0631 1.152 15.9831 1.10133 15.8818 1.064C15.7804 1.02133 15.6524 1 15.4978 1C15.3858 1 15.2791 1.01333 15.1778 1.04C15.0764 1.06133 14.9884 1.09867 14.9138 1.152C14.8391 1.20533 14.7804 1.27467 14.7378 1.36C14.6951 1.44533 14.6738 1.54933 14.6738 1.672C14.6738 1.85867 14.6818 2.04 14.6978 2.216C14.7138 2.392 14.7324 2.568 14.7538 2.744C14.7751 2.91467 14.7938 3.08533 14.8098 3.256C14.8258 3.42133 14.8338 3.58933 14.8338 3.76V3.92C14.8338 4.02133 14.7831 4.07733 14.6818 4.088C14.6338 4.09333 14.5831 4.09867 14.5298 4.104H14.3538H14.0338H13.9058C13.8631 4.104 13.8231 4.10133 13.7858 4.096C13.6844 4.08533 13.6338 4.02933 13.6338 3.928V3.76C13.6338 3.58933 13.6418 3.424 13.6578 3.264C13.6738 3.09867 13.6924 2.93333 13.7138 2.768C13.7351 2.59733 13.7538 2.42133 13.7698 2.24C13.7858 2.05867 13.7938 1.864 13.7938 1.656C13.7938 1.58133 13.7831 1.50667 13.7618 1.432C13.7404 1.352 13.7004 1.28 13.6418 1.216C13.5831 1.152 13.5031 1.10133 13.4018 1.064C13.3004 1.02133 13.1724 1 13.0178 1C12.9058 1 12.7991 1.01333 12.6978 1.04C12.5964 1.06133 12.5084 1.09867 12.4338 1.152C12.3591 1.20533 12.3004 1.27467 12.2578 1.36C12.2151 1.44533 12.1938 1.54933 12.1938 1.672C12.1938 1.85867 12.2018 2.04 12.2178 2.216C12.2338 2.392 12.2524 2.568 12.2738 2.744C12.2951 2.91467 12.3138 3.08533 12.3298 3.256C12.3458 3.42133 12.3538 3.58933 12.3538 3.76V4.24C12.3538 4.41067 12.3458 4.58133 12.3298 4.752C12.3138 4.91733 12.2951 5.088 12.2738 5.264C12.2524 5.43467 12.2338 5.608 12.2178 5.784C12.2018 5.96 12.1938 6.14133 12.1938 6.328C12.1938 6.57333 12.2738 6.74667 12.4338 6.848C12.5938 6.94933 12.7884 7 13.0178 7C13.1724 7 13.3004 6.98133 13.4018 6.944C13.5031 6.90133 13.5831 6.848 13.6418 6.784C13.7004 6.72 13.7404 6.65067 13.7618 6.576C13.7831 6.496 13.7938 6.41867 13.7938 6.344C13.7938 6.15733 13.7858 5.984 13.7698 5.824ZM18.5983 3.84C18.769 3.80267 18.945 3.784 19.1263 3.784C19.2543 3.784 19.2836 3.83733 19.2143 3.944L19.1343 4.056C19.1076 4.088 19.081 4.12267 19.0543 4.16L18.5983 4.72C18.5236 4.81067 18.4463 4.89333 18.3663 4.968C18.2916 5.04267 18.2143 5.11733 18.1343 5.192C18.0596 5.26667 17.9796 5.344 17.8943 5.424C17.8143 5.504 17.7316 5.59733 17.6463 5.704C17.6303 5.72 17.6196 5.73333 17.6143 5.744C17.5503 5.792 17.4996 5.864 17.4623 5.96C17.425 6.056 17.409 6.17867 17.4143 6.328C17.4196 6.57867 17.4676 6.75467 17.5583 6.856C17.6543 6.952 17.777 7 17.9263 7C18.1023 7 18.273 6.98133 18.4383 6.944C18.609 6.90667 18.7876 6.888 18.9743 6.888H19.5343C19.721 6.888 19.897 6.90667 20.0623 6.944C20.233 6.98133 20.4063 7 20.5823 7C20.7316 7 20.865 6.952 20.9823 6.856C21.105 6.75467 21.169 6.57867 21.1743 6.328C21.1743 6.20533 21.1583 6.10133 21.1263 6.016C21.0943 5.93067 21.0516 5.86133 20.9983 5.808C20.945 5.75467 20.8836 5.71733 20.8143 5.696C20.745 5.66933 20.673 5.656 20.5983 5.656C20.4916 5.656 20.393 5.66133 20.3023 5.672C20.2116 5.68267 20.1236 5.696 20.0383 5.712C19.9583 5.728 19.8756 5.74133 19.7903 5.752C19.7103 5.76267 19.625 5.768 19.5343 5.768H19.4383C19.305 5.768 19.2783 5.71467 19.3583 5.608C19.385 5.57067 19.4196 5.52533 19.4623 5.472L19.9183 4.912C20.073 4.72533 20.233 4.56 20.3983 4.416C20.569 4.272 20.7263 4.112 20.8703 3.936C20.945 3.84533 21.001 3.752 21.0383 3.656C21.0756 3.576 21.0943 3.45867 21.0943 3.304C21.0943 3.18133 21.0836 3.08267 21.0623 3.008C21.041 2.928 21.0063 2.86667 20.9583 2.824C20.9156 2.78133 20.8623 2.752 20.7983 2.736C20.7396 2.72 20.673 2.712 20.5983 2.712C20.4916 2.712 20.393 2.71733 20.3023 2.728C20.2116 2.73867 20.1236 2.752 20.0383 2.768C19.9583 2.784 19.8756 2.79733 19.7903 2.808C19.7103 2.81867 19.625 2.824 19.5343 2.824H19.1343C19.0436 2.824 18.9556 2.81867 18.8703 2.808C18.7903 2.79733 18.7076 2.784 18.6223 2.768C18.5423 2.752 18.457 2.73867 18.3663 2.728C18.2756 2.71733 18.177 2.712 18.0703 2.712C17.9956 2.712 17.9236 2.72 17.8543 2.736C17.785 2.752 17.7236 2.78133 17.6703 2.824C17.617 2.86667 17.5743 2.928 17.5423 3.008C17.5103 3.08267 17.4943 3.18133 17.4943 3.304C17.4943 3.42667 17.5103 3.528 17.5423 3.608C17.5796 3.68267 17.625 3.74133 17.6783 3.784C17.737 3.82667 17.801 3.856 17.8703 3.872C17.9396 3.888 18.0116 3.896 18.0863 3.896C18.2623 3.896 18.433 3.87733 18.5983 3.84Z" fill="black"/>
</svg>
