<svg width="21" height="8" viewBox="0 0 21 8" fill="none" xmlns="http://www.w3.org/2000/svg">
<path d="M2.152 4.184H1.368C1.34133 4.18933 1.312 4.192 1.28 4.192C1.25333 4.192 1.224 4.192 1.192 4.192C1.16 4.192 1.13067 4.192 1.104 4.192C1.07733 4.192 1.05067 4.18933 1.024 4.184C0.997333 4.184 0.957333 4.17867 0.904 4.168C0.717333 4.13067 0.592 4.06933 0.528 3.984C0.464 3.89867 0.432 3.82133 0.432 3.752C0.432 3.624 0.458667 3.48 0.512 3.32C0.565333 3.16 0.592 2.99733 0.592 2.832V2.4C0.592 2.37867 0.592 2.35733 0.592 2.336C0.592 2.31467 0.589333 2.29333 0.584 2.272C0.536 2.21867 0.496 2.14933 0.464 2.064C0.432 1.97333 0.416 1.85867 0.416 1.72C0.416 1.67733 0.416 1.63733 0.416 1.6C0.421333 1.55733 0.426667 1.52 0.432 1.488C0.432 1.392 0.464 1.304 0.528 1.224C0.586667 1.13333 0.661333 1.07467 0.752 1.048C0.842667 1.02133 0.933333 1.00533 1.024 1C1.05067 0.994666 1.07733 0.992 1.104 0.992C1.13067 0.992 1.16 0.992 1.192 0.992C1.32 0.992 1.42933 1.00533 1.52 1.032C1.61067 1.05333 1.68533 1.08533 1.744 1.128C1.85067 1.14933 2.008 1.16 2.216 1.16H2.4C2.57067 1.16 2.70667 1.152 2.808 1.136C2.90933 1.12 2.99467 1.10133 3.064 1.08C3.13867 1.05867 3.21067 1.04 3.28 1.024C3.34933 1.008 3.43733 1 3.544 1C3.61867 1 3.69333 1.008 3.768 1.024C3.848 1.03467 3.92 1.06667 3.984 1.12C4.048 1.168 4.09867 1.24 4.136 1.336C4.17867 1.432 4.2 1.56 4.2 1.72C4.2 1.88533 4.17867 2.016 4.136 2.112C4.09333 2.208 4.03733 2.28 3.968 2.328C3.904 2.376 3.832 2.408 3.752 2.424C3.67733 2.43467 3.60267 2.44 3.528 2.44C3.44267 2.44 3.368 2.432 3.304 2.416C3.24 2.4 3.168 2.38133 3.088 2.36C3.01333 2.33867 2.92267 2.32 2.816 2.304C2.70933 2.288 2.57067 2.28 2.4 2.28H2.216C2.04533 2.28 1.904 2.288 1.792 2.304V2.4V2.832C1.792 2.86933 1.792 2.90667 1.792 2.944C1.79733 2.976 1.80267 3.01067 1.808 3.048H2.2C3.66133 3.048 4.392 3.712 4.392 5.04C4.392 5.33867 4.344 5.61333 4.248 5.864C4.152 6.11467 4.01333 6.33067 3.832 6.512C3.656 6.688 3.43467 6.82667 3.168 6.928C2.90667 7.02933 2.608 7.08 2.272 7.08C2.07467 7.08 1.88267 7.056 1.696 7.008C1.50933 6.96533 1.33333 6.90667 1.168 6.832C1.008 6.752 0.861333 6.66133 0.728 6.56C0.594667 6.45333 0.477333 6.34133 0.376 6.224C0.264 6.09067 0.197333 5.96 0.176 5.832C0.16 5.69867 0.173333 5.57867 0.216 5.472C0.264 5.36533 0.336 5.27467 0.432 5.2C0.533333 5.12533 0.64 5.07733 0.752 5.056C0.869333 5.02933 0.986667 5.03467 1.104 5.072C1.22667 5.10933 1.33333 5.184 1.424 5.296C1.51467 5.40267 1.63467 5.50667 1.784 5.608C1.93867 5.70933 2.10133 5.76 2.272 5.76C2.336 5.76 2.41067 5.752 2.496 5.736C2.58133 5.72 2.65867 5.68533 2.728 5.632C2.80267 5.57867 2.864 5.50133 2.912 5.4C2.96533 5.29867 2.992 5.16267 2.992 4.992C2.992 4.90667 2.984 4.816 2.968 4.72C2.95733 4.624 2.92267 4.536 2.864 4.456C2.81067 4.376 2.728 4.312 2.616 4.264C2.504 4.21067 2.34933 4.184 2.152 4.184ZM5.51469 4C5.51469 3.552 5.56269 3.13867 5.65869 2.76C5.75469 2.38133 5.90135 2.056 6.09869 1.784C6.30135 1.512 6.55469 1.30133 6.85869 1.152C7.16269 0.997333 7.52269 0.92 7.93869 0.92C8.34935 0.92 8.70402 0.997333 9.00269 1.152C9.30669 1.30133 9.55735 1.512 9.75469 1.784C9.95735 2.056 10.1067 2.38133 10.2027 2.76C10.304 3.13867 10.3547 3.552 10.3547 4C10.3547 4.50133 10.3094 4.944 10.2187 5.328C10.1334 5.70667 9.99202 6.02667 9.79469 6.288C9.60269 6.54933 9.35202 6.74667 9.04269 6.88C8.73869 7.01333 8.37069 7.08 7.93869 7.08C7.50135 7.08 7.12802 7.01333 6.81869 6.88C6.51469 6.74667 6.26402 6.54933 6.06669 6.288C5.87469 6.02667 5.73335 5.70667 5.64269 5.328C5.55735 4.944 5.51469 4.50133 5.51469 4ZM6.91469 3.992C6.91469 4.264 6.92802 4.512 6.95469 4.736C6.98669 4.95467 7.04002 5.14133 7.11469 5.296C7.19469 5.45067 7.29869 5.57067 7.42669 5.656C7.56002 5.74133 7.73069 5.784 7.93869 5.784C8.14669 5.784 8.31469 5.74133 8.44269 5.656C8.57602 5.57067 8.68002 5.45067 8.75469 5.296C8.83469 5.14133 8.88802 4.95467 8.91469 4.736C8.94669 4.512 8.96269 4.264 8.96269 3.992C8.96269 3.72 8.95202 3.46667 8.93069 3.232C8.90935 2.99733 8.86135 2.792 8.78669 2.616C8.71735 2.44 8.61335 2.30133 8.47469 2.2C8.34135 2.09867 8.16269 2.048 7.93869 2.048C7.71469 2.048 7.53335 2.09867 7.39469 2.2C7.26135 2.30133 7.15735 2.44 7.08269 2.616C7.01335 2.792 6.96802 2.99733 6.94669 3.232C6.92535 3.46667 6.91469 3.72 6.91469 3.992ZM13.0389 5.344C13.0549 5.49867 13.0709 5.65867 13.0869 5.824C13.1029 5.984 13.1109 6.15733 13.1109 6.344C13.1109 6.41867 13.1003 6.496 13.0789 6.576C13.0576 6.65067 13.0176 6.72 12.9589 6.784C12.9003 6.848 12.8203 6.90133 12.7189 6.944C12.6176 6.98133 12.4896 7 12.3349 7C12.1056 7 11.9109 6.94933 11.7509 6.848C11.5909 6.74667 11.5109 6.57333 11.5109 6.328C11.5109 6.14133 11.5189 5.96 11.5349 5.784C11.5509 5.608 11.5696 5.43467 11.5909 5.264C11.6123 5.088 11.6309 4.91733 11.6469 4.752C11.6629 4.58133 11.6709 4.41067 11.6709 4.24V3.76C11.6709 3.58933 11.6629 3.42133 11.6469 3.256C11.6309 3.08533 11.6123 2.91467 11.5909 2.744C11.5696 2.568 11.5509 2.392 11.5349 2.216C11.5189 2.04 11.5109 1.85867 11.5109 1.672C11.5109 1.54933 11.5323 1.44533 11.5749 1.36C11.6176 1.27467 11.6763 1.20533 11.7509 1.152C11.8256 1.09867 11.9136 1.06133 12.0149 1.04C12.1163 1.01333 12.2229 1 12.3349 1C12.4896 1 12.6176 1.02133 12.7189 1.064C12.8203 1.10133 12.9003 1.152 12.9589 1.216C13.0176 1.28 13.0576 1.352 13.0789 1.432C13.1003 1.50667 13.1109 1.58133 13.1109 1.656C13.1109 1.864 13.1029 2.05867 13.0869 2.24C13.0709 2.42133 13.0523 2.59733 13.0309 2.768C13.0096 2.93333 12.9909 3.09867 12.9749 3.264C12.9589 3.424 12.9509 3.58933 12.9509 3.76V3.928C12.9509 4.02933 13.0016 4.08533 13.1029 4.096C13.1403 4.10133 13.1803 4.104 13.2229 4.104C13.2656 4.104 13.3083 4.104 13.3509 4.104H13.6709C13.7349 4.104 13.7936 4.104 13.8469 4.104C13.9003 4.09867 13.9509 4.09333 13.9989 4.088C14.1003 4.07733 14.1509 4.02133 14.1509 3.92V3.76C14.1509 3.58933 14.1429 3.42133 14.1269 3.256C14.1109 3.08533 14.0923 2.91467 14.0709 2.744C14.0496 2.568 14.0309 2.392 14.0149 2.216C13.9989 2.04 13.9909 1.85867 13.9909 1.672C13.9909 1.54933 14.0123 1.44533 14.0549 1.36C14.0976 1.27467 14.1563 1.20533 14.2309 1.152C14.3056 1.09867 14.3936 1.06133 14.4949 1.04C14.5963 1.01333 14.7029 1 14.8149 1C14.9696 1 15.0976 1.02133 15.1989 1.064C15.3003 1.10133 15.3803 1.152 15.4389 1.216C15.4976 1.28 15.5376 1.352 15.5589 1.432C15.5803 1.50667 15.5909 1.58133 15.5909 1.656C15.5909 1.864 15.5829 2.05867 15.5669 2.24C15.5509 2.42133 15.5323 2.59733 15.5109 2.768C15.4896 2.93333 15.4709 3.09867 15.4549 3.264C15.4389 3.424 15.4309 3.58933 15.4309 3.76V4.24C15.4309 4.41067 15.4389 4.57867 15.4549 4.744C15.4709 4.904 15.4896 5.06933 15.5109 5.24C15.5323 5.40533 15.5509 5.57867 15.5669 5.76C15.5829 5.94133 15.5909 6.136 15.5909 6.344C15.5909 6.41867 15.5803 6.496 15.5589 6.576C15.5376 6.65067 15.4976 6.72 15.4389 6.784C15.3803 6.848 15.3003 6.90133 15.1989 6.944C15.0976 6.98133 14.9696 7 14.8149 7C14.5856 7 14.3909 6.94933 14.2309 6.848C14.0709 6.74667 13.9909 6.57333 13.9909 6.328C13.9909 6.15733 13.9989 5.992 14.0149 5.832C14.0309 5.66667 14.0469 5.50667 14.0629 5.352C14.0736 5.25067 14.0283 5.19467 13.9269 5.184C13.8843 5.17867 13.8416 5.176 13.7989 5.176C13.7616 5.176 13.7189 5.176 13.6709 5.176H13.3509C13.3189 5.176 13.2869 5.17867 13.2549 5.184C13.2283 5.184 13.2016 5.184 13.1749 5.184C13.0736 5.19467 13.0283 5.248 13.0389 5.344ZM18.4435 3.784C18.2622 3.784 18.0862 3.80267 17.9155 3.84C17.7502 3.87733 17.5795 3.896 17.4035 3.896C17.3288 3.896 17.2568 3.888 17.1875 3.872C17.1182 3.856 17.0542 3.82667 16.9955 3.784C16.9422 3.74133 16.8968 3.68267 16.8595 3.608C16.8275 3.528 16.8115 3.42667 16.8115 3.304C16.8115 3.18133 16.8275 3.08267 16.8595 3.008C16.8915 2.928 16.9342 2.86667 16.9875 2.824C17.0408 2.78133 17.1022 2.752 17.1715 2.736C17.2408 2.72 17.3128 2.712 17.3875 2.712C17.4942 2.712 17.5928 2.71733 17.6835 2.728C17.7742 2.73867 17.8595 2.752 17.9395 2.768C18.0248 2.784 18.1075 2.79733 18.1875 2.808C18.2728 2.81867 18.3608 2.824 18.4515 2.824H18.8515C18.9422 2.824 19.0275 2.81867 19.1075 2.808C19.1928 2.79733 19.2755 2.784 19.3555 2.768C19.4408 2.752 19.5288 2.73867 19.6195 2.728C19.7102 2.71733 19.8088 2.712 19.9155 2.712C19.9902 2.712 20.0568 2.72 20.1155 2.736C20.1795 2.752 20.2328 2.78133 20.2755 2.824C20.3235 2.86667 20.3582 2.928 20.3795 3.008C20.4008 3.08267 20.4115 3.18133 20.4115 3.304C20.4115 3.45867 20.3928 3.576 20.3555 3.656C20.3182 3.752 20.2622 3.84533 20.1875 3.936C20.0435 4.112 19.8862 4.272 19.7155 4.416C19.5502 4.56 19.3902 4.72533 19.2355 4.912L18.7795 5.472C18.7368 5.52533 18.7022 5.57067 18.6755 5.608C18.5955 5.71467 18.6222 5.768 18.7555 5.768H18.8515C18.9422 5.768 19.0275 5.76267 19.1075 5.752C19.1928 5.74133 19.2755 5.728 19.3555 5.712C19.4408 5.696 19.5288 5.68267 19.6195 5.672C19.7102 5.66133 19.8088 5.656 19.9155 5.656C19.9902 5.656 20.0622 5.66933 20.1315 5.696C20.2008 5.71733 20.2622 5.75467 20.3155 5.808C20.3688 5.86133 20.4115 5.93067 20.4435 6.016C20.4755 6.10133 20.4915 6.20533 20.4915 6.328C20.4862 6.57867 20.4222 6.75467 20.2995 6.856C20.1822 6.952 20.0488 7 19.8995 7C19.7235 7 19.5502 6.98133 19.3795 6.944C19.2142 6.90667 19.0382 6.888 18.8515 6.888H18.2915C18.1048 6.888 17.9262 6.90667 17.7555 6.944C17.5902 6.98133 17.4195 7 17.2435 7C17.0942 7 16.9715 6.952 16.8755 6.856C16.7848 6.75467 16.7368 6.57867 16.7315 6.328C16.7262 6.17867 16.7422 6.056 16.7795 5.96C16.8168 5.864 16.8675 5.792 16.9315 5.744C16.9368 5.73333 16.9475 5.72 16.9635 5.704C17.0488 5.59733 17.1315 5.504 17.2115 5.424C17.2968 5.344 17.3768 5.26667 17.4515 5.192C17.5315 5.11733 17.6088 5.04267 17.6835 4.968C17.7635 4.89333 17.8408 4.81067 17.9155 4.72L18.3715 4.16C18.3982 4.12267 18.4248 4.088 18.4515 4.056C18.4782 4.01867 18.5048 3.98133 18.5315 3.944C18.6008 3.83733 18.5715 3.784 18.4435 3.784Z" fill="black"/>
</svg>
