<svg width="29" height="8" viewBox="0 0 29 8" fill="none" xmlns="http://www.w3.org/2000/svg">
<path fill-rule="evenodd" clip-rule="evenodd" d="M29 0H0V8H29V0ZM5.51969 1.704C5.46635 1.59733 5.37569 1.504 5.24769 1.424C5.15169 1.36 5.05302 1.29867 4.95169 1.24C4.85569 1.18133 4.74635 1.128 4.62369 1.08C4.50102 1.032 4.35969 0.994667 4.19969 0.968C4.03969 0.936 3.84769 0.92 3.62369 0.92C3.20769 0.92 2.84769 0.978666 2.54369 1.096C2.24502 1.21333 1.99969 1.40267 1.80769 1.664C1.61569 1.92533 1.47169 2.26933 1.37569 2.696C1.28502 3.11733 1.23969 3.632 1.23969 4.24C1.23969 4.75733 1.28769 5.19733 1.38369 5.56C1.47969 5.92267 1.62102 6.216 1.80769 6.44C1.99435 6.664 2.22369 6.82667 2.49569 6.928C2.77302 7.02933 3.09035 7.08 3.44769 7.08C4.23702 7.08 4.81302 6.896 5.17569 6.528C5.54369 6.16 5.72769 5.63733 5.72769 4.96C5.72769 4.55467 5.66369 4.22667 5.53569 3.976C5.40769 3.72533 5.23969 3.53333 5.03169 3.4C4.82369 3.26133 4.58635 3.168 4.31969 3.12C4.05835 3.072 3.79169 3.048 3.51969 3.048C3.22635 3.048 2.94635 3.136 2.67969 3.312C2.70102 3.136 2.73035 2.97067 2.76769 2.816C2.81035 2.66133 2.86635 2.528 2.93569 2.416C3.01035 2.29867 3.10369 2.208 3.21569 2.144C3.32769 2.08 3.46369 2.048 3.62369 2.048C3.71969 2.048 3.80502 2.056 3.87969 2.072C3.95969 2.08267 4.04235 2.10667 4.12769 2.144C4.21302 2.18133 4.30369 2.232 4.39969 2.296C4.50102 2.35467 4.62102 2.42933 4.75969 2.52C4.85569 2.584 4.95169 2.61333 5.04769 2.608C5.14902 2.60267 5.23969 2.57333 5.31969 2.52C5.39969 2.46133 5.46369 2.38933 5.51169 2.304C5.56502 2.21333 5.59169 2.11733 5.59169 2.016C5.59702 1.90933 5.57302 1.80533 5.51969 1.704ZM2.85569 5.528C2.74369 5.352 2.67435 5.07467 2.64769 4.696C2.77035 4.50933 2.90635 4.384 3.05569 4.32C3.21035 4.25067 3.36502 4.216 3.51969 4.216C3.61569 4.216 3.71169 4.22667 3.80769 4.248C3.90369 4.264 3.99169 4.29867 4.07169 4.352C4.15169 4.40533 4.21569 4.48 4.26369 4.576C4.31169 4.672 4.33569 4.79733 4.33569 4.952C4.33569 5.21333 4.26902 5.41867 4.13569 5.568C4.00769 5.712 3.77835 5.784 3.44769 5.784C3.17035 5.784 2.97302 5.69867 2.85569 5.528ZM6.98837 2.76C6.89237 3.13867 6.84437 3.552 6.84437 4C6.84437 4.50133 6.88704 4.944 6.97237 5.328C7.06304 5.70667 7.20437 6.02667 7.39637 6.288C7.59371 6.54933 7.84437 6.74667 8.14837 6.88C8.45771 7.01333 8.83104 7.08 9.26838 7.08C9.70037 7.08 10.0684 7.01333 10.3724 6.88C10.6817 6.74667 10.9324 6.54933 11.1244 6.288C11.3217 6.02667 11.463 5.70667 11.5484 5.328C11.639 4.944 11.6844 4.50133 11.6844 4C11.6844 3.552 11.6337 3.13867 11.5324 2.76C11.4364 2.38133 11.287 2.056 11.0844 1.784C10.887 1.512 10.6364 1.30133 10.3324 1.152C10.0337 0.997333 9.67904 0.92 9.26838 0.92C8.85238 0.92 8.49237 0.997333 8.18837 1.152C7.88438 1.30133 7.63104 1.512 7.42837 1.784C7.23104 2.056 7.08437 2.38133 6.98837 2.76ZM8.28438 4.736C8.25771 4.512 8.24438 4.264 8.24438 3.992C8.24438 3.72 8.25504 3.46667 8.27637 3.232C8.29771 2.99733 8.34304 2.792 8.41237 2.616C8.48704 2.44 8.59104 2.30133 8.72437 2.2C8.86304 2.09867 9.04437 2.048 9.26838 2.048C9.49237 2.048 9.67104 2.09867 9.80437 2.2C9.94304 2.30133 10.047 2.44 10.1164 2.616C10.191 2.792 10.239 2.99733 10.2604 3.232C10.2817 3.46667 10.2924 3.72 10.2924 3.992C10.2924 4.264 10.2764 4.512 10.2444 4.736C10.2177 4.95467 10.1644 5.14133 10.0844 5.296C10.0097 5.45067 9.90571 5.57067 9.77238 5.656C9.64437 5.74133 9.47637 5.784 9.26838 5.784C9.06038 5.784 8.88971 5.74133 8.75637 5.656C8.62838 5.57067 8.52437 5.45067 8.44438 5.296C8.36971 5.14133 8.31637 4.95467 8.28438 4.736ZM12.9446 2.76C12.8486 3.13867 12.8006 3.552 12.8006 4C12.8006 4.50133 12.8433 4.944 12.9286 5.328C13.0193 5.70667 13.1606 6.02667 13.3526 6.288C13.55 6.54933 13.8006 6.74667 14.1046 6.88C14.414 7.01333 14.7873 7.08 15.2246 7.08C15.6566 7.08 16.0246 7.01333 16.3286 6.88C16.638 6.74667 16.8886 6.54933 17.0806 6.288C17.278 6.02667 17.4193 5.70667 17.5046 5.328C17.5953 4.944 17.6406 4.50133 17.6406 4C17.6406 3.552 17.59 3.13867 17.4886 2.76C17.3926 2.38133 17.2433 2.056 17.0406 1.784C16.8433 1.512 16.5926 1.30133 16.2886 1.152C15.99 0.997333 15.6353 0.92 15.2246 0.92C14.8086 0.92 14.4486 0.997333 14.1446 1.152C13.8406 1.30133 13.5873 1.512 13.3846 1.784C13.1873 2.056 13.0406 2.38133 12.9446 2.76ZM14.2406 4.736C14.214 4.512 14.2006 4.264 14.2006 3.992C14.2006 3.72 14.2113 3.46667 14.2326 3.232C14.254 2.99733 14.2993 2.792 14.3686 2.616C14.4433 2.44 14.5473 2.30133 14.6806 2.2C14.8193 2.09867 15.0006 2.048 15.2246 2.048C15.4486 2.048 15.6273 2.09867 15.7606 2.2C15.8993 2.30133 16.0033 2.44 16.0726 2.616C16.1473 2.792 16.1953 2.99733 16.2166 3.232C16.238 3.46667 16.2486 3.72 16.2486 3.992C16.2486 4.264 16.2326 4.512 16.2006 4.736C16.174 4.95467 16.1206 5.14133 16.0406 5.296C15.966 5.45067 15.862 5.57067 15.7286 5.656C15.6006 5.74133 15.4326 5.784 15.2246 5.784C15.0166 5.784 14.846 5.74133 14.7126 5.656C14.5846 5.57067 14.4806 5.45067 14.4006 5.296C14.326 5.14133 14.2726 4.95467 14.2406 4.736ZM20.3729 5.824C20.3569 5.65867 20.3409 5.49867 20.3249 5.344C20.3142 5.248 20.3595 5.19467 20.4609 5.184H20.5409C20.5729 5.17867 20.6049 5.176 20.6369 5.176H20.9569H21.0849C21.1275 5.176 21.1702 5.17867 21.2129 5.184C21.3142 5.19467 21.3595 5.25067 21.3489 5.352C21.3329 5.50667 21.3169 5.66667 21.3009 5.832C21.2849 5.992 21.2769 6.15733 21.2769 6.328C21.2769 6.57333 21.3569 6.74667 21.5169 6.848C21.6769 6.94933 21.8715 7 22.1009 7C22.2555 7 22.3835 6.98133 22.4849 6.944C22.5862 6.90133 22.6662 6.848 22.7249 6.784C22.7835 6.72 22.8235 6.65067 22.8449 6.576C22.8662 6.496 22.8769 6.41867 22.8769 6.344C22.8769 6.136 22.8689 5.94133 22.8529 5.76C22.8369 5.57867 22.8182 5.40533 22.7969 5.24C22.7755 5.06933 22.7569 4.904 22.7409 4.744C22.7249 4.57867 22.7169 4.41067 22.7169 4.24V3.76C22.7169 3.58933 22.7249 3.424 22.7409 3.264C22.7569 3.09867 22.7755 2.93333 22.7969 2.768C22.8182 2.59733 22.8369 2.42133 22.8529 2.24C22.8689 2.05867 22.8769 1.864 22.8769 1.656C22.8769 1.58133 22.8662 1.50667 22.8449 1.432C22.8235 1.352 22.7835 1.28 22.7249 1.216C22.6662 1.152 22.5862 1.10133 22.4849 1.064C22.3835 1.02133 22.2555 1 22.1009 1C21.9889 1 21.8822 1.01333 21.7809 1.04C21.6795 1.06133 21.5915 1.09867 21.5169 1.152C21.4422 1.20533 21.3835 1.27467 21.3409 1.36C21.2982 1.44533 21.2769 1.54933 21.2769 1.672C21.2769 1.85867 21.2849 2.04 21.3009 2.216C21.3169 2.392 21.3355 2.568 21.3569 2.744C21.3782 2.91467 21.3969 3.08533 21.4129 3.256C21.4289 3.42133 21.4369 3.58933 21.4369 3.76V3.92C21.4369 4.02133 21.3862 4.07733 21.2849 4.088C21.2369 4.09333 21.1862 4.09867 21.1329 4.104H20.9569H20.6369H20.5089C20.4662 4.104 20.4262 4.10133 20.3889 4.096C20.2875 4.08533 20.2369 4.02933 20.2369 3.928V3.76C20.2369 3.58933 20.2449 3.424 20.2609 3.264C20.2769 3.09867 20.2955 2.93333 20.3169 2.768C20.3382 2.59733 20.3569 2.42133 20.3729 2.24C20.3889 2.05867 20.3969 1.864 20.3969 1.656C20.3969 1.58133 20.3862 1.50667 20.3649 1.432C20.3435 1.352 20.3035 1.28 20.2449 1.216C20.1862 1.152 20.1062 1.10133 20.0049 1.064C19.9035 1.02133 19.7755 1 19.6209 1C19.5089 1 19.4022 1.01333 19.3009 1.04C19.1995 1.06133 19.1115 1.09867 19.0369 1.152C18.9622 1.20533 18.9035 1.27467 18.8609 1.36C18.8182 1.44533 18.7969 1.54933 18.7969 1.672C18.7969 1.85867 18.8049 2.04 18.8209 2.216C18.8369 2.392 18.8555 2.568 18.8769 2.744C18.8982 2.91467 18.9169 3.08533 18.9329 3.256C18.9489 3.42133 18.9569 3.58933 18.9569 3.76V4.24C18.9569 4.41067 18.9489 4.58133 18.9329 4.752C18.9169 4.91733 18.8982 5.088 18.8769 5.264C18.8555 5.43467 18.8369 5.608 18.8209 5.784C18.8049 5.96 18.7969 6.14133 18.7969 6.328C18.7969 6.57333 18.8769 6.74667 19.0369 6.848C19.1969 6.94933 19.3915 7 19.6209 7C19.7755 7 19.9035 6.98133 20.0049 6.944C20.1062 6.90133 20.1862 6.848 20.2449 6.784C20.3035 6.72 20.3435 6.65067 20.3649 6.576C20.3862 6.496 20.3969 6.41867 20.3969 6.344C20.3969 6.15733 20.3889 5.984 20.3729 5.824ZM25.2014 3.84C25.3721 3.80267 25.5481 3.784 25.7294 3.784C25.8574 3.784 25.8868 3.83733 25.8174 3.944L25.7374 4.056C25.7108 4.088 25.6841 4.12267 25.6574 4.16L25.2014 4.72C25.1268 4.81067 25.0494 4.89333 24.9694 4.968C24.8948 5.04267 24.8174 5.11733 24.7374 5.192C24.6628 5.26667 24.5828 5.344 24.4974 5.424C24.4174 5.504 24.3348 5.59733 24.2494 5.704C24.2334 5.72 24.2228 5.73333 24.2174 5.744C24.1534 5.792 24.1028 5.864 24.0654 5.96C24.0281 6.056 24.0121 6.17867 24.0174 6.328C24.0228 6.57867 24.0708 6.75467 24.1614 6.856C24.2574 6.952 24.3801 7 24.5294 7C24.7054 7 24.8761 6.98133 25.0414 6.944C25.2121 6.90667 25.3908 6.888 25.5774 6.888H26.1374C26.3241 6.888 26.5001 6.90667 26.6654 6.944C26.8361 6.98133 27.0094 7 27.1854 7C27.3348 7 27.4681 6.952 27.5854 6.856C27.7081 6.75467 27.7721 6.57867 27.7774 6.328C27.7774 6.20533 27.7614 6.10133 27.7294 6.016C27.6974 5.93067 27.6548 5.86133 27.6014 5.808C27.5481 5.75467 27.4868 5.71733 27.4174 5.696C27.3481 5.66933 27.2761 5.656 27.2014 5.656C27.0948 5.656 26.9961 5.66133 26.9054 5.672C26.8148 5.68267 26.7268 5.696 26.6414 5.712C26.5614 5.728 26.4788 5.74133 26.3934 5.752C26.3134 5.76267 26.2281 5.768 26.1374 5.768H26.0414C25.9081 5.768 25.8814 5.71467 25.9614 5.608C25.9881 5.57067 26.0228 5.52533 26.0654 5.472L26.5214 4.912C26.6761 4.72533 26.8361 4.56 27.0014 4.416C27.1721 4.272 27.3294 4.112 27.4734 3.936C27.5481 3.84533 27.6041 3.752 27.6414 3.656C27.6788 3.576 27.6974 3.45867 27.6974 3.304C27.6974 3.18133 27.6868 3.08267 27.6654 3.008C27.6441 2.928 27.6094 2.86667 27.5614 2.824C27.5188 2.78133 27.4654 2.752 27.4014 2.736C27.3428 2.72 27.2761 2.712 27.2014 2.712C27.0948 2.712 26.9961 2.71733 26.9054 2.728C26.8148 2.73867 26.7268 2.752 26.6414 2.768C26.5614 2.784 26.4788 2.79733 26.3934 2.808C26.3134 2.81867 26.2281 2.824 26.1374 2.824H25.7374C25.6468 2.824 25.5588 2.81867 25.4734 2.808C25.3934 2.79733 25.3108 2.784 25.2254 2.768C25.1454 2.752 25.0601 2.73867 24.9694 2.728C24.8788 2.71733 24.7801 2.712 24.6734 2.712C24.5988 2.712 24.5268 2.72 24.4574 2.736C24.3881 2.752 24.3268 2.78133 24.2734 2.824C24.2201 2.86667 24.1774 2.928 24.1454 3.008C24.1134 3.08267 24.0974 3.18133 24.0974 3.304C24.0974 3.42667 24.1134 3.528 24.1454 3.608C24.1828 3.68267 24.2281 3.74133 24.2814 3.784C24.3401 3.82667 24.4041 3.856 24.4734 3.872C24.5428 3.888 24.6148 3.896 24.6894 3.896C24.8654 3.896 25.0361 3.87733 25.2014 3.84Z" fill="black"/>
</svg>
