<svg width="27" height="8" viewBox="0 0 27 8" fill="none" xmlns="http://www.w3.org/2000/svg">
<path d="M4.168 1.424C4.296 1.504 4.38667 1.59733 4.44 1.704C4.49333 1.80533 4.51733 1.90933 4.512 2.016C4.512 2.11733 4.48533 2.21333 4.432 2.304C4.384 2.38933 4.32 2.46133 4.24 2.52C4.16 2.57333 4.06933 2.60267 3.968 2.608C3.872 2.61333 3.776 2.584 3.68 2.52C3.54133 2.42933 3.42133 2.35467 3.32 2.296C3.224 2.232 3.13333 2.18133 3.048 2.144C2.96267 2.10667 2.88 2.08267 2.8 2.072C2.72533 2.056 2.64 2.048 2.544 2.048C2.384 2.048 2.248 2.08 2.136 2.144C2.024 2.208 1.93067 2.29867 1.856 2.416C1.78667 2.528 1.73067 2.66133 1.688 2.816C1.65067 2.97067 1.62133 3.136 1.6 3.312C1.86667 3.136 2.14667 3.048 2.44 3.048C2.712 3.048 2.97867 3.072 3.24 3.12C3.50667 3.168 3.744 3.26133 3.952 3.4C4.16 3.53333 4.328 3.72533 4.456 3.976C4.584 4.22667 4.648 4.55467 4.648 4.96C4.648 5.63733 4.464 6.16 4.096 6.528C3.73333 6.896 3.15733 7.08 2.368 7.08C2.01067 7.08 1.69333 7.02933 1.416 6.928C1.144 6.82667 0.914667 6.664 0.728 6.44C0.541333 6.216 0.4 5.92267 0.304 5.56C0.208 5.19733 0.16 4.75733 0.16 4.24C0.16 3.632 0.205333 3.11733 0.296 2.696C0.392 2.26933 0.536 1.92533 0.728 1.664C0.92 1.40267 1.16533 1.21333 1.464 1.096C1.768 0.978666 2.128 0.92 2.544 0.92C2.768 0.92 2.96 0.936 3.12 0.968C3.28 0.994667 3.42133 1.032 3.544 1.08C3.66667 1.128 3.776 1.18133 3.872 1.24C3.97333 1.29867 4.072 1.36 4.168 1.424ZM1.568 4.696C1.59467 5.07467 1.664 5.352 1.776 5.528C1.89333 5.69867 2.09067 5.784 2.368 5.784C2.69867 5.784 2.928 5.712 3.056 5.568C3.18933 5.41867 3.256 5.21333 3.256 4.952C3.256 4.79733 3.232 4.672 3.184 4.576C3.136 4.48 3.072 4.40533 2.992 4.352C2.912 4.29867 2.824 4.264 2.728 4.248C2.632 4.22667 2.536 4.216 2.44 4.216C2.28533 4.216 2.13067 4.25067 1.976 4.32C1.82667 4.384 1.69067 4.50933 1.568 4.696ZM5.76469 4C5.76469 3.552 5.81269 3.13867 5.90869 2.76C6.00469 2.38133 6.15135 2.056 6.34869 1.784C6.55135 1.512 6.80469 1.30133 7.10869 1.152C7.41269 0.997333 7.77269 0.92 8.18869 0.92C8.59935 0.92 8.95402 0.997333 9.25269 1.152C9.55669 1.30133 9.80735 1.512 10.0047 1.784C10.2074 2.056 10.3567 2.38133 10.4527 2.76C10.554 3.13867 10.6047 3.552 10.6047 4C10.6047 4.50133 10.5594 4.944 10.4687 5.328C10.3834 5.70667 10.242 6.02667 10.0447 6.288C9.85269 6.54933 9.60202 6.74667 9.29269 6.88C8.98869 7.01333 8.62069 7.08 8.18869 7.08C7.75135 7.08 7.37802 7.01333 7.06869 6.88C6.76469 6.74667 6.51402 6.54933 6.31669 6.288C6.12469 6.02667 5.98335 5.70667 5.89269 5.328C5.80735 4.944 5.76469 4.50133 5.76469 4ZM7.16469 3.992C7.16469 4.264 7.17802 4.512 7.20469 4.736C7.23669 4.95467 7.29002 5.14133 7.36469 5.296C7.44469 5.45067 7.54869 5.57067 7.67669 5.656C7.81002 5.74133 7.98069 5.784 8.18869 5.784C8.39669 5.784 8.56469 5.74133 8.69269 5.656C8.82602 5.57067 8.93002 5.45067 9.00469 5.296C9.08469 5.14133 9.13802 4.95467 9.16469 4.736C9.19669 4.512 9.21269 4.264 9.21269 3.992C9.21269 3.72 9.20202 3.46667 9.18069 3.232C9.15935 2.99733 9.11135 2.792 9.03669 2.616C8.96735 2.44 8.86335 2.30133 8.72469 2.2C8.59135 2.09867 8.41269 2.048 8.18869 2.048C7.96469 2.048 7.78335 2.09867 7.64469 2.2C7.51135 2.30133 7.40735 2.44 7.33269 2.616C7.26335 2.792 7.21802 2.99733 7.19669 3.232C7.17535 3.46667 7.16469 3.72 7.16469 3.992ZM11.7209 4C11.7209 3.552 11.7689 3.13867 11.8649 2.76C11.9609 2.38133 12.1076 2.056 12.3049 1.784C12.5076 1.512 12.7609 1.30133 13.0649 1.152C13.3689 0.997333 13.7289 0.92 14.1449 0.92C14.5556 0.92 14.9103 0.997333 15.2089 1.152C15.5129 1.30133 15.7636 1.512 15.9609 1.784C16.1636 2.056 16.3129 2.38133 16.4089 2.76C16.5103 3.13867 16.5609 3.552 16.5609 4C16.5609 4.50133 16.5156 4.944 16.4249 5.328C16.3396 5.70667 16.1983 6.02667 16.0009 6.288C15.8089 6.54933 15.5583 6.74667 15.2489 6.88C14.9449 7.01333 14.5769 7.08 14.1449 7.08C13.7076 7.08 13.3343 7.01333 13.0249 6.88C12.7209 6.74667 12.4703 6.54933 12.2729 6.288C12.0809 6.02667 11.9396 5.70667 11.8489 5.328C11.7636 4.944 11.7209 4.50133 11.7209 4ZM13.1209 3.992C13.1209 4.264 13.1343 4.512 13.1609 4.736C13.1929 4.95467 13.2463 5.14133 13.3209 5.296C13.4009 5.45067 13.5049 5.57067 13.6329 5.656C13.7663 5.74133 13.9369 5.784 14.1449 5.784C14.3529 5.784 14.5209 5.74133 14.6489 5.656C14.7823 5.57067 14.8863 5.45067 14.9609 5.296C15.0409 5.14133 15.0943 4.95467 15.1209 4.736C15.1529 4.512 15.1689 4.264 15.1689 3.992C15.1689 3.72 15.1583 3.46667 15.1369 3.232C15.1156 2.99733 15.0676 2.792 14.9929 2.616C14.9236 2.44 14.8196 2.30133 14.6809 2.2C14.5476 2.09867 14.3689 2.048 14.1449 2.048C13.9209 2.048 13.7396 2.09867 13.6009 2.2C13.4676 2.30133 13.3636 2.44 13.2889 2.616C13.2196 2.792 13.1743 2.99733 13.1529 3.232C13.1316 3.46667 13.1209 3.72 13.1209 3.992ZM19.2452 5.344C19.2612 5.49867 19.2772 5.65867 19.2932 5.824C19.3092 5.984 19.3172 6.15733 19.3172 6.344C19.3172 6.41867 19.3065 6.496 19.2852 6.576C19.2639 6.65067 19.2239 6.72 19.1652 6.784C19.1065 6.848 19.0265 6.90133 18.9252 6.944C18.8239 6.98133 18.6959 7 18.5412 7C18.3119 7 18.1172 6.94933 17.9572 6.848C17.7972 6.74667 17.7172 6.57333 17.7172 6.328C17.7172 6.14133 17.7252 5.96 17.7412 5.784C17.7572 5.608 17.7759 5.43467 17.7972 5.264C17.8185 5.088 17.8372 4.91733 17.8532 4.752C17.8692 4.58133 17.8772 4.41067 17.8772 4.24V3.76C17.8772 3.58933 17.8692 3.42133 17.8532 3.256C17.8372 3.08533 17.8185 2.91467 17.7972 2.744C17.7759 2.568 17.7572 2.392 17.7412 2.216C17.7252 2.04 17.7172 1.85867 17.7172 1.672C17.7172 1.54933 17.7385 1.44533 17.7812 1.36C17.8239 1.27467 17.8825 1.20533 17.9572 1.152C18.0319 1.09867 18.1199 1.06133 18.2212 1.04C18.3225 1.01333 18.4292 1 18.5412 1C18.6959 1 18.8239 1.02133 18.9252 1.064C19.0265 1.10133 19.1065 1.152 19.1652 1.216C19.2239 1.28 19.2639 1.352 19.2852 1.432C19.3065 1.50667 19.3172 1.58133 19.3172 1.656C19.3172 1.864 19.3092 2.05867 19.2932 2.24C19.2772 2.42133 19.2585 2.59733 19.2372 2.768C19.2159 2.93333 19.1972 3.09867 19.1812 3.264C19.1652 3.424 19.1572 3.58933 19.1572 3.76V3.928C19.1572 4.02933 19.2079 4.08533 19.3092 4.096C19.3465 4.10133 19.3865 4.104 19.4292 4.104C19.4719 4.104 19.5145 4.104 19.5572 4.104H19.8772C19.9412 4.104 19.9999 4.104 20.0532 4.104C20.1065 4.09867 20.1572 4.09333 20.2052 4.088C20.3065 4.07733 20.3572 4.02133 20.3572 3.92V3.76C20.3572 3.58933 20.3492 3.42133 20.3332 3.256C20.3172 3.08533 20.2985 2.91467 20.2772 2.744C20.2559 2.568 20.2372 2.392 20.2212 2.216C20.2052 2.04 20.1972 1.85867 20.1972 1.672C20.1972 1.54933 20.2185 1.44533 20.2612 1.36C20.3039 1.27467 20.3625 1.20533 20.4372 1.152C20.5119 1.09867 20.5999 1.06133 20.7012 1.04C20.8025 1.01333 20.9092 1 21.0212 1C21.1759 1 21.3039 1.02133 21.4052 1.064C21.5065 1.10133 21.5865 1.152 21.6452 1.216C21.7039 1.28 21.7439 1.352 21.7652 1.432C21.7865 1.50667 21.7972 1.58133 21.7972 1.656C21.7972 1.864 21.7892 2.05867 21.7732 2.24C21.7572 2.42133 21.7385 2.59733 21.7172 2.768C21.6959 2.93333 21.6772 3.09867 21.6612 3.264C21.6452 3.424 21.6372 3.58933 21.6372 3.76V4.24C21.6372 4.41067 21.6452 4.57867 21.6612 4.744C21.6772 4.904 21.6959 5.06933 21.7172 5.24C21.7385 5.40533 21.7572 5.57867 21.7732 5.76C21.7892 5.94133 21.7972 6.136 21.7972 6.344C21.7972 6.41867 21.7865 6.496 21.7652 6.576C21.7439 6.65067 21.7039 6.72 21.6452 6.784C21.5865 6.848 21.5065 6.90133 21.4052 6.944C21.3039 6.98133 21.1759 7 21.0212 7C20.7919 7 20.5972 6.94933 20.4372 6.848C20.2772 6.74667 20.1972 6.57333 20.1972 6.328C20.1972 6.15733 20.2052 5.992 20.2212 5.832C20.2372 5.66667 20.2532 5.50667 20.2692 5.352C20.2799 5.25067 20.2345 5.19467 20.1332 5.184C20.0905 5.17867 20.0479 5.176 20.0052 5.176C19.9679 5.176 19.9252 5.176 19.8772 5.176H19.5572C19.5252 5.176 19.4932 5.17867 19.4612 5.184C19.4345 5.184 19.4079 5.184 19.3812 5.184C19.2799 5.19467 19.2345 5.248 19.2452 5.344ZM24.6498 3.784C24.4684 3.784 24.2924 3.80267 24.1218 3.84C23.9564 3.87733 23.7858 3.896 23.6098 3.896C23.5351 3.896 23.4631 3.888 23.3938 3.872C23.3244 3.856 23.2604 3.82667 23.2018 3.784C23.1484 3.74133 23.1031 3.68267 23.0658 3.608C23.0338 3.528 23.0178 3.42667 23.0178 3.304C23.0178 3.18133 23.0338 3.08267 23.0658 3.008C23.0978 2.928 23.1404 2.86667 23.1938 2.824C23.2471 2.78133 23.3084 2.752 23.3778 2.736C23.4471 2.72 23.5191 2.712 23.5938 2.712C23.7004 2.712 23.7991 2.71733 23.8898 2.728C23.9804 2.73867 24.0658 2.752 24.1458 2.768C24.2311 2.784 24.3138 2.79733 24.3938 2.808C24.4791 2.81867 24.5671 2.824 24.6578 2.824H25.0578C25.1484 2.824 25.2338 2.81867 25.3138 2.808C25.3991 2.79733 25.4818 2.784 25.5618 2.768C25.6471 2.752 25.7351 2.73867 25.8258 2.728C25.9164 2.71733 26.0151 2.712 26.1218 2.712C26.1964 2.712 26.2631 2.72 26.3218 2.736C26.3858 2.752 26.4391 2.78133 26.4818 2.824C26.5298 2.86667 26.5644 2.928 26.5858 3.008C26.6071 3.08267 26.6178 3.18133 26.6178 3.304C26.6178 3.45867 26.5991 3.576 26.5618 3.656C26.5244 3.752 26.4684 3.84533 26.3938 3.936C26.2498 4.112 26.0924 4.272 25.9218 4.416C25.7564 4.56 25.5964 4.72533 25.4418 4.912L24.9858 5.472C24.9431 5.52533 24.9084 5.57067 24.8818 5.608C24.8018 5.71467 24.8284 5.768 24.9618 5.768H25.0578C25.1484 5.768 25.2338 5.76267 25.3138 5.752C25.3991 5.74133 25.4818 5.728 25.5618 5.712C25.6471 5.696 25.7351 5.68267 25.8258 5.672C25.9164 5.66133 26.0151 5.656 26.1218 5.656C26.1964 5.656 26.2684 5.66933 26.3378 5.696C26.4071 5.71733 26.4684 5.75467 26.5218 5.808C26.5751 5.86133 26.6178 5.93067 26.6498 6.016C26.6818 6.10133 26.6978 6.20533 26.6978 6.328C26.6924 6.57867 26.6284 6.75467 26.5058 6.856C26.3884 6.952 26.2551 7 26.1058 7C25.9298 7 25.7564 6.98133 25.5858 6.944C25.4204 6.90667 25.2444 6.888 25.0578 6.888H24.4978C24.3111 6.888 24.1324 6.90667 23.9618 6.944C23.7964 6.98133 23.6258 7 23.4498 7C23.3004 7 23.1778 6.952 23.0818 6.856C22.9911 6.75467 22.9431 6.57867 22.9378 6.328C22.9324 6.17867 22.9484 6.056 22.9858 5.96C23.0231 5.864 23.0738 5.792 23.1378 5.744C23.1431 5.73333 23.1538 5.72 23.1698 5.704C23.2551 5.59733 23.3378 5.504 23.4178 5.424C23.5031 5.344 23.5831 5.26667 23.6578 5.192C23.7378 5.11733 23.8151 5.04267 23.8898 4.968C23.9698 4.89333 24.0471 4.81067 24.1218 4.72L24.5778 4.16C24.6044 4.12267 24.6311 4.088 24.6578 4.056C24.6844 4.01867 24.7111 3.98133 24.7378 3.944C24.8071 3.83733 24.7778 3.784 24.6498 3.784Z" fill="black"/>
</svg>
