<svg width="20" height="7" viewBox="0 0 20 7" fill="none" xmlns="http://www.w3.org/2000/svg">
<path d="M1.984 2.512C2.05333 2.30933 2.10933 2.10667 2.152 1.904C2.19467 1.70133 2.24 1.49333 2.288 1.28H2.264H2.024C1.85333 1.28 1.70933 1.288 1.592 1.304C1.48 1.32 1.38133 1.33867 1.296 1.36C1.21067 1.38133 1.13067 1.4 1.056 1.416C0.986667 1.432 0.906667 1.44 0.816 1.44C0.741333 1.44 0.664 1.43467 0.584 1.424C0.509333 1.408 0.437333 1.376 0.368 1.328C0.304 1.28 0.250667 1.208 0.208 1.112C0.165333 1.016 0.144 0.885333 0.144 0.72C0.144 0.56 0.162667 0.432 0.2 0.336C0.242667 0.24 0.296 0.168 0.36 0.12C0.424 0.0666663 0.493333 0.0346662 0.568 0.0239997C0.648 0.00799958 0.725333 -4.76837e-07 0.8 -4.76837e-07C0.906667 -4.76837e-07 0.997333 0.00799958 1.072 0.0239997C1.152 0.0399998 1.232 0.0586665 1.312 0.0799999C1.39733 0.101333 1.49333 0.12 1.6 0.136C1.712 0.152 1.85333 0.16 2.024 0.16H2.264C2.43467 0.16 2.57333 0.152 2.68 0.136C2.792 0.12 2.888 0.101333 2.968 0.0799999C3.05333 0.0586665 3.13333 0.0399998 3.208 0.0239997C3.288 0.00799958 3.38133 -4.76837e-07 3.488 -4.76837e-07C3.55733 -4.76837e-07 3.62667 0.00533295 3.696 0.0159998C3.76533 0.0266663 3.82933 0.0506663 3.888 0.0879998C3.952 0.125333 4.00533 0.181333 4.048 0.256C4.09067 0.330666 4.12 0.429333 4.136 0.552C4.152 0.610666 4.15733 0.669333 4.152 0.728C4.14667 0.786667 4.13867 0.842667 4.128 0.896C4.112 1.024 4.07467 1.13067 4.016 1.216C3.888 1.54667 3.75733 1.84533 3.624 2.112C3.49067 2.37333 3.37067 2.65333 3.264 2.952L3.112 3.424C3.05867 3.58933 3.01067 3.75467 2.968 3.92C2.93067 4.08533 2.89333 4.256 2.856 4.432C2.81867 4.60267 2.77867 4.77867 2.736 4.96C2.69333 5.14133 2.63733 5.33333 2.568 5.536C2.54667 5.61067 2.50933 5.68267 2.456 5.752C2.40267 5.82133 2.33333 5.87733 2.248 5.92C2.168 5.95733 2.06933 5.97867 1.952 5.984C1.84 5.98933 1.70667 5.96533 1.552 5.912C1.39733 5.85867 1.27467 5.79467 1.184 5.72C1.09867 5.64 1.03733 5.56 1 5.48C0.962667 5.39467 0.944 5.30933 0.944 5.224C0.949333 5.13867 0.962667 5.05867 0.984 4.984C1.048 4.79733 1.11467 4.62133 1.184 4.456C1.25867 4.29067 1.33333 4.128 1.408 3.968C1.48267 3.80267 1.55467 3.64 1.624 3.48C1.69867 3.32 1.76267 3.15467 1.816 2.984L1.984 2.512ZM7.24888 3.184H6.46488C6.43821 3.18933 6.40888 3.192 6.37688 3.192C6.35021 3.192 6.32088 3.192 6.28888 3.192C6.25688 3.192 6.22754 3.192 6.20088 3.192C6.17421 3.192 6.14754 3.18933 6.12088 3.184C6.09421 3.184 6.05421 3.17867 6.00088 3.168C5.81421 3.13067 5.68888 3.06933 5.62488 2.984C5.56088 2.89867 5.52888 2.82133 5.52888 2.752C5.52888 2.624 5.55554 2.48 5.60888 2.32C5.66221 2.16 5.68888 1.99733 5.68888 1.832V1.4C5.68888 1.37867 5.68888 1.35733 5.68888 1.336C5.68888 1.31467 5.68621 1.29333 5.68088 1.272C5.63288 1.21867 5.59288 1.14933 5.56088 1.064C5.52888 0.973333 5.51288 0.858667 5.51288 0.72C5.51288 0.677333 5.51288 0.637333 5.51288 0.6C5.51821 0.557333 5.52354 0.52 5.52888 0.488C5.52888 0.392 5.56088 0.304 5.62488 0.224C5.68354 0.133333 5.75821 0.0746665 5.84888 0.0479999C5.93954 0.0213332 6.03021 0.00533311 6.12088 -4.76837e-07C6.14754 -0.00533374 6.17421 -0.00800037 6.20088 -0.00800037C6.22754 -0.00800037 6.25688 -0.00800037 6.28888 -0.00800037C6.41688 -0.00800037 6.52621 0.00533295 6.61688 0.0319996C6.70754 0.053333 6.78221 0.085333 6.84088 0.128C6.94754 0.149333 7.10488 0.16 7.31288 0.16H7.49688C7.66754 0.16 7.80354 0.152 7.90488 0.136C8.00621 0.12 8.09154 0.101333 8.16088 0.0799999C8.23554 0.0586665 8.30754 0.0399998 8.37688 0.0239997C8.44621 0.00799958 8.53421 -4.76837e-07 8.64088 -4.76837e-07C8.71554 -4.76837e-07 8.79021 0.00799958 8.86488 0.0239997C8.94488 0.0346662 9.01688 0.0666663 9.08088 0.12C9.14488 0.168 9.19554 0.24 9.23288 0.336C9.27554 0.432 9.29688 0.56 9.29688 0.72C9.29688 0.885333 9.27554 1.016 9.23288 1.112C9.19021 1.208 9.13421 1.28 9.06488 1.328C9.00088 1.376 8.92888 1.408 8.84888 1.424C8.77421 1.43467 8.69954 1.44 8.62488 1.44C8.53954 1.44 8.46488 1.432 8.40088 1.416C8.33688 1.4 8.26488 1.38133 8.18488 1.36C8.11021 1.33867 8.01954 1.32 7.91288 1.304C7.80621 1.288 7.66754 1.28 7.49688 1.28H7.31288C7.14221 1.28 7.00088 1.288 6.88888 1.304V1.4V1.832C6.88888 1.86933 6.88888 1.90667 6.88888 1.944C6.89421 1.976 6.89954 2.01067 6.90488 2.048H7.29688C8.75821 2.048 9.48888 2.712 9.48888 4.04C9.48888 4.33867 9.44088 4.61333 9.34488 4.864C9.24888 5.11467 9.11021 5.33067 8.92888 5.512C8.75288 5.688 8.53154 5.82667 8.26488 5.928C8.00354 6.02933 7.70488 6.08 7.36888 6.08C7.17154 6.08 6.97954 6.056 6.79288 6.008C6.60621 5.96533 6.43021 5.90667 6.26488 5.832C6.10488 5.752 5.95821 5.66133 5.82488 5.56C5.69154 5.45333 5.57421 5.34133 5.47288 5.224C5.36088 5.09067 5.29421 4.96 5.27288 4.832C5.25688 4.69867 5.27021 4.57867 5.31288 4.472C5.36088 4.36533 5.43288 4.27467 5.52888 4.2C5.63021 4.12533 5.73688 4.07733 5.84888 4.056C5.96621 4.02933 6.08354 4.03467 6.20088 4.072C6.32354 4.10933 6.43021 4.184 6.52088 4.296C6.61154 4.40267 6.73154 4.50667 6.88088 4.608C7.03554 4.70933 7.19821 4.76 7.36888 4.76C7.43288 4.76 7.50754 4.752 7.59288 4.736C7.67821 4.72 7.75554 4.68533 7.82488 4.632C7.89954 4.57867 7.96088 4.50133 8.00888 4.4C8.06221 4.29867 8.08888 4.16267 8.08888 3.992C8.08888 3.90667 8.08088 3.816 8.06488 3.72C8.05421 3.624 8.01954 3.536 7.96088 3.456C7.90754 3.376 7.82488 3.312 7.71288 3.264C7.60088 3.21067 7.44621 3.184 7.24888 3.184ZM12.1796 4.344C12.1956 4.49867 12.2116 4.65867 12.2276 4.824C12.2436 4.984 12.2516 5.15733 12.2516 5.344C12.2516 5.41867 12.2409 5.496 12.2196 5.576C12.1982 5.65067 12.1582 5.72 12.0996 5.784C12.0409 5.848 11.9609 5.90133 11.8596 5.944C11.7582 5.98133 11.6302 6 11.4756 6C11.2462 6 11.0516 5.94933 10.8916 5.848C10.7316 5.74667 10.6516 5.57333 10.6516 5.328C10.6516 5.14133 10.6596 4.96 10.6756 4.784C10.6916 4.608 10.7102 4.43467 10.7316 4.264C10.7529 4.088 10.7716 3.91733 10.7876 3.752C10.8036 3.58133 10.8116 3.41067 10.8116 3.24V2.76C10.8116 2.58933 10.8036 2.42133 10.7876 2.256C10.7716 2.08533 10.7529 1.91467 10.7316 1.744C10.7102 1.568 10.6916 1.392 10.6756 1.216C10.6596 1.04 10.6516 0.858666 10.6516 0.672C10.6516 0.549333 10.6729 0.445333 10.7156 0.36C10.7582 0.274666 10.8169 0.205333 10.8916 0.152C10.9662 0.0986664 11.0542 0.0613329 11.1556 0.0399995C11.2569 0.0133328 11.3636 -4.76837e-07 11.4756 -4.76837e-07C11.6302 -4.76837e-07 11.7582 0.0213329 11.8596 0.0639997C11.9609 0.101333 12.0409 0.152 12.0996 0.216C12.1582 0.28 12.1982 0.352 12.2196 0.432C12.2409 0.506666 12.2516 0.581333 12.2516 0.656C12.2516 0.864 12.2436 1.05867 12.2276 1.24C12.2116 1.42133 12.1929 1.59733 12.1716 1.768C12.1502 1.93333 12.1316 2.09867 12.1156 2.264C12.0996 2.424 12.0916 2.58933 12.0916 2.76V2.928C12.0916 3.02933 12.1422 3.08533 12.2436 3.096C12.2809 3.10133 12.3209 3.104 12.3636 3.104C12.4062 3.104 12.4489 3.104 12.4916 3.104H12.8116C12.8756 3.104 12.9342 3.104 12.9876 3.104C13.0409 3.09867 13.0916 3.09333 13.1396 3.088C13.2409 3.07733 13.2916 3.02133 13.2916 2.92V2.76C13.2916 2.58933 13.2836 2.42133 13.2676 2.256C13.2516 2.08533 13.2329 1.91467 13.2116 1.744C13.1902 1.568 13.1716 1.392 13.1556 1.216C13.1396 1.04 13.1316 0.858666 13.1316 0.672C13.1316 0.549333 13.1529 0.445333 13.1956 0.36C13.2382 0.274666 13.2969 0.205333 13.3716 0.152C13.4462 0.0986664 13.5342 0.0613329 13.6356 0.0399995C13.7369 0.0133328 13.8436 -4.76837e-07 13.9556 -4.76837e-07C14.1102 -4.76837e-07 14.2382 0.0213329 14.3396 0.0639997C14.4409 0.101333 14.5209 0.152 14.5796 0.216C14.6382 0.28 14.6782 0.352 14.6996 0.432C14.7209 0.506666 14.7316 0.581333 14.7316 0.656C14.7316 0.864 14.7236 1.05867 14.7076 1.24C14.6916 1.42133 14.6729 1.59733 14.6516 1.768C14.6302 1.93333 14.6116 2.09867 14.5956 2.264C14.5796 2.424 14.5716 2.58933 14.5716 2.76V3.24C14.5716 3.41067 14.5796 3.57867 14.5956 3.744C14.6116 3.904 14.6302 4.06933 14.6516 4.24C14.6729 4.40533 14.6916 4.57867 14.7076 4.76C14.7236 4.94133 14.7316 5.136 14.7316 5.344C14.7316 5.41867 14.7209 5.496 14.6996 5.576C14.6782 5.65067 14.6382 5.72 14.5796 5.784C14.5209 5.848 14.4409 5.90133 14.3396 5.944C14.2382 5.98133 14.1102 6 13.9556 6C13.7262 6 13.5316 5.94933 13.3716 5.848C13.2116 5.74667 13.1316 5.57333 13.1316 5.328C13.1316 5.15733 13.1396 4.992 13.1556 4.832C13.1716 4.66667 13.1876 4.50667 13.2036 4.352C13.2142 4.25067 13.1689 4.19467 13.0676 4.184C13.0249 4.17867 12.9822 4.176 12.9396 4.176C12.9022 4.176 12.8596 4.176 12.8116 4.176H12.4916C12.4596 4.176 12.4276 4.17867 12.3956 4.184C12.3689 4.184 12.3422 4.184 12.3156 4.184C12.2142 4.19467 12.1689 4.248 12.1796 4.344ZM17.5841 2.784C17.4028 2.784 17.2268 2.80267 17.0561 2.84C16.8908 2.87733 16.7201 2.896 16.5441 2.896C16.4695 2.896 16.3975 2.888 16.3281 2.872C16.2588 2.856 16.1948 2.82667 16.1361 2.784C16.0828 2.74133 16.0375 2.68267 16.0001 2.608C15.9681 2.528 15.9521 2.42667 15.9521 2.304C15.9521 2.18133 15.9681 2.08267 16.0001 2.008C16.0321 1.928 16.0748 1.86667 16.1281 1.824C16.1815 1.78133 16.2428 1.752 16.3121 1.736C16.3815 1.72 16.4535 1.712 16.5281 1.712C16.6348 1.712 16.7335 1.71733 16.8241 1.728C16.9148 1.73867 17.0001 1.752 17.0801 1.768C17.1655 1.784 17.2481 1.79733 17.3281 1.808C17.4135 1.81867 17.5015 1.824 17.5921 1.824H17.9921C18.0828 1.824 18.1681 1.81867 18.2481 1.808C18.3335 1.79733 18.4161 1.784 18.4961 1.768C18.5815 1.752 18.6695 1.73867 18.7601 1.728C18.8508 1.71733 18.9495 1.712 19.0561 1.712C19.1308 1.712 19.1975 1.72 19.2561 1.736C19.3201 1.752 19.3735 1.78133 19.4161 1.824C19.4641 1.86667 19.4988 1.928 19.5201 2.008C19.5415 2.08267 19.5521 2.18133 19.5521 2.304C19.5521 2.45867 19.5335 2.576 19.4961 2.656C19.4588 2.752 19.4028 2.84533 19.3281 2.936C19.1841 3.112 19.0268 3.272 18.8561 3.416C18.6908 3.56 18.5308 3.72533 18.3761 3.912L17.9201 4.472C17.8775 4.52533 17.8428 4.57067 17.8161 4.608C17.7361 4.71467 17.7628 4.768 17.8961 4.768H17.9921C18.0828 4.768 18.1681 4.76267 18.2481 4.752C18.3335 4.74133 18.4161 4.728 18.4961 4.712C18.5815 4.696 18.6695 4.68267 18.7601 4.672C18.8508 4.66133 18.9495 4.656 19.0561 4.656C19.1308 4.656 19.2028 4.66933 19.2721 4.696C19.3415 4.71733 19.4028 4.75467 19.4561 4.808C19.5095 4.86133 19.5521 4.93067 19.5841 5.016C19.6161 5.10133 19.6321 5.20533 19.6321 5.328C19.6268 5.57867 19.5628 5.75467 19.4401 5.856C19.3228 5.952 19.1895 6 19.0401 6C18.8641 6 18.6908 5.98133 18.5201 5.944C18.3548 5.90667 18.1788 5.888 17.9921 5.888H17.4321C17.2455 5.888 17.0668 5.90667 16.8961 5.944C16.7308 5.98133 16.5601 6 16.3841 6C16.2348 6 16.1121 5.952 16.0161 5.856C15.9255 5.75467 15.8775 5.57867 15.8721 5.328C15.8668 5.17867 15.8828 5.056 15.9201 4.96C15.9575 4.864 16.0081 4.792 16.0721 4.744C16.0775 4.73333 16.0881 4.72 16.1041 4.704C16.1895 4.59733 16.2721 4.504 16.3521 4.424C16.4375 4.344 16.5175 4.26667 16.5921 4.192C16.6721 4.11733 16.7495 4.04267 16.8241 3.968C16.9041 3.89333 16.9815 3.81067 17.0561 3.72L17.5121 3.16C17.5388 3.12267 17.5655 3.088 17.5921 3.056C17.6188 3.01867 17.6455 2.98133 17.6721 2.944C17.7415 2.83733 17.7121 2.784 17.5841 2.784Z" fill="black"/>
</svg>
