<svg width="22" height="8" viewBox="0 0 22 8" fill="none" xmlns="http://www.w3.org/2000/svg">
<path fill-rule="evenodd" clip-rule="evenodd" d="M22 0H0V8H22V0ZM3.2645 2.904C3.22183 3.10667 3.16583 3.30933 3.0965 3.512L2.9285 3.984C2.87517 4.15467 2.81117 4.32 2.7365 4.48C2.66717 4.64 2.59517 4.80267 2.5205 4.968C2.44583 5.128 2.37117 5.29067 2.2965 5.456C2.22717 5.62133 2.1605 5.79733 2.0965 5.984C2.07517 6.05867 2.06183 6.13867 2.0565 6.224C2.0565 6.30933 2.07517 6.39467 2.1125 6.48C2.14983 6.56 2.21117 6.64 2.2965 6.72C2.38717 6.79467 2.50983 6.85867 2.6645 6.912C2.81917 6.96533 2.9525 6.98933 3.0645 6.984C3.18183 6.97867 3.2805 6.95733 3.3605 6.92C3.44583 6.87733 3.51517 6.82133 3.5685 6.752C3.62183 6.68267 3.65917 6.61067 3.6805 6.536C3.74983 6.33333 3.80583 6.14133 3.8485 5.96C3.89117 5.77867 3.93117 5.60267 3.9685 5.432C4.00583 5.256 4.04317 5.08533 4.0805 4.92C4.12317 4.75467 4.17117 4.58933 4.2245 4.424L4.3765 3.952C4.48317 3.65333 4.60317 3.37333 4.7365 3.112C4.86983 2.84533 5.0005 2.54667 5.1285 2.216C5.18717 2.13067 5.2245 2.024 5.2405 1.896C5.25117 1.84267 5.25917 1.78667 5.2645 1.728C5.26983 1.66933 5.2645 1.61067 5.2485 1.552C5.2325 1.42933 5.20317 1.33067 5.1605 1.256C5.11783 1.18133 5.0645 1.12533 5.0005 1.088C4.94183 1.05067 4.87783 1.02667 4.8085 1.016C4.73917 1.00533 4.66983 1 4.6005 1C4.49383 1 4.4005 1.008 4.3205 1.024C4.24583 1.04 4.16583 1.05867 4.0805 1.08C4.0005 1.10133 3.9045 1.12 3.7925 1.136C3.68583 1.152 3.54717 1.16 3.3765 1.16H3.1365C2.96583 1.16 2.8245 1.152 2.7125 1.136C2.60583 1.12 2.50983 1.10133 2.4245 1.08C2.3445 1.05867 2.2645 1.04 2.1845 1.024C2.10983 1.008 2.01917 1 1.9125 1C1.83783 1 1.7605 1.008 1.6805 1.024C1.60583 1.03467 1.5365 1.06667 1.4725 1.12C1.4085 1.168 1.35517 1.24 1.3125 1.336C1.27517 1.432 1.2565 1.56 1.2565 1.72C1.2565 1.88533 1.27783 2.016 1.3205 2.112C1.36317 2.208 1.4165 2.28 1.4805 2.328C1.54983 2.376 1.62183 2.408 1.6965 2.424C1.7765 2.43467 1.85383 2.44 1.9285 2.44C2.01917 2.44 2.09917 2.432 2.1685 2.416C2.24317 2.4 2.32317 2.38133 2.4085 2.36C2.49383 2.33867 2.5925 2.32 2.7045 2.304C2.82183 2.288 2.96583 2.28 3.1365 2.28H3.3765H3.4005C3.3525 2.49333 3.30717 2.70133 3.2645 2.904ZM7.57738 4.184H8.36138C8.55871 4.184 8.71338 4.21067 8.82538 4.264C8.93738 4.312 9.02004 4.376 9.07338 4.456C9.13204 4.536 9.16671 4.624 9.17738 4.72C9.19338 4.816 9.20138 4.90667 9.20138 4.992C9.20138 5.16267 9.17471 5.29867 9.12138 5.4C9.07338 5.50133 9.01204 5.57867 8.93738 5.632C8.86804 5.68533 8.79071 5.72 8.70538 5.736C8.62004 5.752 8.54538 5.76 8.48138 5.76C8.31071 5.76 8.14804 5.70933 7.99338 5.608C7.84404 5.50667 7.72404 5.40267 7.63338 5.296C7.54271 5.184 7.43604 5.10933 7.31338 5.072C7.19604 5.03467 7.07871 5.02933 6.96138 5.056C6.84938 5.07733 6.74271 5.12533 6.64138 5.2C6.54538 5.27467 6.47338 5.36533 6.42538 5.472C6.38271 5.57867 6.36938 5.69867 6.38538 5.832C6.40671 5.96 6.47338 6.09067 6.58538 6.224C6.68671 6.34133 6.80404 6.45333 6.93738 6.56C7.07071 6.66133 7.21738 6.752 7.37738 6.832C7.54271 6.90667 7.71871 6.96533 7.90538 7.008C8.09204 7.056 8.28404 7.08 8.48138 7.08C8.81738 7.08 9.11604 7.02933 9.37738 6.928C9.64404 6.82667 9.86538 6.688 10.0414 6.512C10.2227 6.33067 10.3614 6.11467 10.4574 5.864C10.5534 5.61333 10.6014 5.33867 10.6014 5.04C10.6014 3.712 9.87071 3.048 8.40938 3.048H8.01738C8.01204 3.01067 8.00671 2.976 8.00138 2.944V2.832V2.4V2.304C8.11338 2.288 8.25471 2.28 8.42537 2.28H8.60938C8.78004 2.28 8.91871 2.288 9.02538 2.304C9.13204 2.32 9.22271 2.33867 9.29738 2.36C9.37738 2.38133 9.44938 2.4 9.51338 2.416C9.57738 2.432 9.65204 2.44 9.73738 2.44C9.81204 2.44 9.88671 2.43467 9.96138 2.424C10.0414 2.408 10.1134 2.376 10.1774 2.328C10.2467 2.28 10.3027 2.208 10.3454 2.112C10.388 2.016 10.4094 1.88533 10.4094 1.72C10.4094 1.56 10.388 1.432 10.3454 1.336C10.308 1.24 10.2574 1.168 10.1934 1.12C10.1294 1.06667 10.0574 1.03467 9.97738 1.024C9.90271 1.008 9.82804 1 9.75338 1C9.64671 1 9.55871 1.008 9.48938 1.024C9.42004 1.04 9.34804 1.05867 9.27338 1.08C9.20404 1.10133 9.11871 1.12 9.01738 1.136C8.91604 1.152 8.78004 1.16 8.60938 1.16H8.42537C8.21738 1.16 8.06004 1.14933 7.95338 1.128C7.89471 1.08533 7.82004 1.05333 7.72938 1.032C7.63871 1.00533 7.52938 0.992 7.40138 0.992H7.31338C7.28671 0.992 7.26004 0.994666 7.23338 1C7.14271 1.00533 7.05204 1.02133 6.96138 1.048C6.87071 1.07467 6.79604 1.13333 6.73738 1.224C6.67338 1.304 6.64138 1.392 6.64138 1.488C6.63604 1.52 6.63071 1.55733 6.62538 1.6V1.72C6.62538 1.85867 6.64138 1.97333 6.67338 2.064C6.70538 2.14933 6.74538 2.21867 6.79338 2.272C6.79871 2.29333 6.80138 2.31467 6.80138 2.336V2.4V2.832C6.80138 2.99733 6.77471 3.16 6.72138 3.32C6.66804 3.48 6.64138 3.624 6.64138 3.752C6.64138 3.82133 6.67338 3.89867 6.73738 3.984C6.80138 4.06933 6.92671 4.13067 7.11338 4.168C7.16671 4.17867 7.20671 4.184 7.23338 4.184C7.26004 4.18933 7.28671 4.192 7.31338 4.192H7.40138H7.48938C7.52138 4.192 7.55071 4.18933 7.57738 4.184ZM13.3401 5.824C13.3241 5.65867 13.3081 5.49867 13.2921 5.344C13.2814 5.248 13.3267 5.19467 13.4281 5.184H13.5081C13.5401 5.17867 13.5721 5.176 13.6041 5.176H13.9241H14.0521C14.0947 5.176 14.1374 5.17867 14.1801 5.184C14.2814 5.19467 14.3267 5.25067 14.3161 5.352C14.3001 5.50667 14.2841 5.66667 14.2681 5.832C14.2521 5.992 14.2441 6.15733 14.2441 6.328C14.2441 6.57333 14.3241 6.74667 14.4841 6.848C14.6441 6.94933 14.8387 7 15.0681 7C15.2227 7 15.3507 6.98133 15.4521 6.944C15.5534 6.90133 15.6334 6.848 15.6921 6.784C15.7507 6.72 15.7907 6.65067 15.8121 6.576C15.8334 6.496 15.8441 6.41867 15.8441 6.344C15.8441 6.136 15.8361 5.94133 15.8201 5.76C15.8041 5.57867 15.7854 5.40533 15.7641 5.24C15.7427 5.06933 15.7241 4.904 15.7081 4.744C15.6921 4.57867 15.6841 4.41067 15.6841 4.24V3.76C15.6841 3.58933 15.6921 3.424 15.7081 3.264C15.7241 3.09867 15.7427 2.93333 15.7641 2.768C15.7854 2.59733 15.8041 2.42133 15.8201 2.24C15.8361 2.05867 15.8441 1.864 15.8441 1.656C15.8441 1.58133 15.8334 1.50667 15.8121 1.432C15.7907 1.352 15.7507 1.28 15.6921 1.216C15.6334 1.152 15.5534 1.10133 15.4521 1.064C15.3507 1.02133 15.2227 1 15.0681 1C14.9561 1 14.8494 1.01333 14.7481 1.04C14.6467 1.06133 14.5587 1.09867 14.4841 1.152C14.4094 1.20533 14.3507 1.27467 14.3081 1.36C14.2654 1.44533 14.2441 1.54933 14.2441 1.672C14.2441 1.85867 14.2521 2.04 14.2681 2.216C14.2841 2.392 14.3027 2.568 14.3241 2.744C14.3454 2.91467 14.3641 3.08533 14.3801 3.256C14.3961 3.42133 14.4041 3.58933 14.4041 3.76V3.92C14.4041 4.02133 14.3534 4.07733 14.2521 4.088C14.2041 4.09333 14.1534 4.09867 14.1001 4.104H13.9241H13.6041H13.4761C13.4334 4.104 13.3934 4.10133 13.3561 4.096C13.2547 4.08533 13.2041 4.02933 13.2041 3.928V3.76C13.2041 3.58933 13.2121 3.424 13.2281 3.264C13.2441 3.09867 13.2627 2.93333 13.2841 2.768C13.3054 2.59733 13.3241 2.42133 13.3401 2.24C13.3561 2.05867 13.3641 1.864 13.3641 1.656C13.3641 1.58133 13.3534 1.50667 13.3321 1.432C13.3107 1.352 13.2707 1.28 13.2121 1.216C13.1534 1.152 13.0734 1.10133 12.9721 1.064C12.8707 1.02133 12.7427 1 12.5881 1C12.4761 1 12.3694 1.01333 12.2681 1.04C12.1667 1.06133 12.0787 1.09867 12.0041 1.152C11.9294 1.20533 11.8707 1.27467 11.8281 1.36C11.7854 1.44533 11.7641 1.54933 11.7641 1.672C11.7641 1.85867 11.7721 2.04 11.7881 2.216C11.8041 2.392 11.8227 2.568 11.8441 2.744C11.8654 2.91467 11.8841 3.08533 11.9001 3.256C11.9161 3.42133 11.9241 3.58933 11.9241 3.76V4.24C11.9241 4.41067 11.9161 4.58133 11.9001 4.752C11.8841 4.91733 11.8654 5.088 11.8441 5.264C11.8227 5.43467 11.8041 5.608 11.7881 5.784C11.7721 5.96 11.7641 6.14133 11.7641 6.328C11.7641 6.57333 11.8441 6.74667 12.0041 6.848C12.1641 6.94933 12.3587 7 12.5881 7C12.7427 7 12.8707 6.98133 12.9721 6.944C13.0734 6.90133 13.1534 6.848 13.2121 6.784C13.2707 6.72 13.3107 6.65067 13.3321 6.576C13.3534 6.496 13.3641 6.41867 13.3641 6.344C13.3641 6.15733 13.3561 5.984 13.3401 5.824ZM18.1686 3.84C18.3393 3.80267 18.5153 3.784 18.6966 3.784C18.8246 3.784 18.854 3.83733 18.7846 3.944L18.7046 4.056C18.678 4.088 18.6513 4.12267 18.6246 4.16L18.1686 4.72C18.094 4.81067 18.0166 4.89333 17.9366 4.968C17.862 5.04267 17.7846 5.11733 17.7046 5.192C17.63 5.26667 17.55 5.344 17.4646 5.424C17.3846 5.504 17.302 5.59733 17.2166 5.704C17.2006 5.72 17.19 5.73333 17.1846 5.744C17.1206 5.792 17.07 5.864 17.0326 5.96C16.9953 6.056 16.9793 6.17867 16.9846 6.328C16.99 6.57867 17.038 6.75467 17.1286 6.856C17.2246 6.952 17.3473 7 17.4966 7C17.6726 7 17.8433 6.98133 18.0086 6.944C18.1793 6.90667 18.358 6.888 18.5446 6.888H19.1046C19.2913 6.888 19.4673 6.90667 19.6326 6.944C19.8033 6.98133 19.9766 7 20.1526 7C20.302 7 20.4353 6.952 20.5526 6.856C20.6753 6.75467 20.7393 6.57867 20.7446 6.328C20.7446 6.20533 20.7286 6.10133 20.6966 6.016C20.6646 5.93067 20.622 5.86133 20.5686 5.808C20.5153 5.75467 20.454 5.71733 20.3846 5.696C20.3153 5.66933 20.2433 5.656 20.1686 5.656C20.062 5.656 19.9633 5.66133 19.8726 5.672C19.782 5.68267 19.694 5.696 19.6086 5.712C19.5286 5.728 19.446 5.74133 19.3606 5.752C19.2806 5.76267 19.1953 5.768 19.1046 5.768H19.0086C18.8753 5.768 18.8486 5.71467 18.9286 5.608C18.9553 5.57067 18.99 5.52533 19.0326 5.472L19.4886 4.912C19.6433 4.72533 19.8033 4.56 19.9686 4.416C20.1393 4.272 20.2966 4.112 20.4406 3.936C20.5153 3.84533 20.5713 3.752 20.6086 3.656C20.646 3.576 20.6646 3.45867 20.6646 3.304C20.6646 3.18133 20.654 3.08267 20.6326 3.008C20.6113 2.928 20.5766 2.86667 20.5286 2.824C20.486 2.78133 20.4326 2.752 20.3686 2.736C20.31 2.72 20.2433 2.712 20.1686 2.712C20.062 2.712 19.9633 2.71733 19.8726 2.728C19.782 2.73867 19.694 2.752 19.6086 2.768C19.5286 2.784 19.446 2.79733 19.3606 2.808C19.2806 2.81867 19.1953 2.824 19.1046 2.824H18.7046C18.614 2.824 18.526 2.81867 18.4406 2.808C18.3606 2.79733 18.278 2.784 18.1926 2.768C18.1126 2.752 18.0273 2.73867 17.9366 2.728C17.846 2.71733 17.7473 2.712 17.6406 2.712C17.566 2.712 17.494 2.72 17.4246 2.736C17.3553 2.752 17.294 2.78133 17.2406 2.824C17.1873 2.86667 17.1446 2.928 17.1126 3.008C17.0806 3.08267 17.0646 3.18133 17.0646 3.304C17.0646 3.42667 17.0806 3.528 17.1126 3.608C17.15 3.68267 17.1953 3.74133 17.2486 3.784C17.3073 3.82667 17.3713 3.856 17.4406 3.872C17.51 3.888 17.582 3.896 17.6566 3.896C17.8326 3.896 18.0033 3.87733 18.1686 3.84Z" fill="black"/>
</svg>
