<svg width="35" height="11" viewBox="0 0 35 11" fill="none" xmlns="http://www.w3.org/2000/svg">
<path d="M1.26041 9.311C1.05241 9.17233 0.905076 9.012 0.818409 8.83C0.740409 8.648 0.701409 8.466 0.701409 8.284C0.710076 8.09333 0.753409 7.91567 0.831409 7.751C0.909409 7.57767 1.01341 7.439 1.14341 7.335C1.27341 7.231 1.41641 7.17033 1.57241 7.153C1.73708 7.127 1.89741 7.166 2.05341 7.27C2.27874 7.41733 2.46508 7.543 2.61241 7.647C2.75974 7.74233 2.89408 7.82033 3.01541 7.881C3.13674 7.933 3.25374 7.972 3.36641 7.998C3.47908 8.024 3.61341 8.037 3.76941 8.037C4.02941 8.037 4.24608 7.99367 4.41941 7.907C4.60141 7.81167 4.75308 7.686 4.87441 7.53C4.99574 7.374 5.08674 7.18767 5.14741 6.971C5.21674 6.74567 5.26874 6.503 5.30341 6.243C4.87008 6.529 4.41508 6.672 3.93841 6.672C3.49641 6.672 3.06741 6.633 2.65141 6.555C2.24408 6.477 1.87574 6.32967 1.54641 6.113C1.22574 5.88767 0.965743 5.57133 0.766409 5.164C0.575743 4.75667 0.480409 4.22367 0.480409 3.565C0.480409 3.01033 0.536743 2.52067 0.649409 2.096C0.770743 1.66267 0.965743 1.303 1.23441 1.017C1.51174 0.722333 1.86708 0.501333 2.30041 0.353999C2.74241 0.197999 3.28408 0.119999 3.92541 0.119999C4.63608 0.119999 5.22974 0.228333 5.70641 0.445C6.18308 0.653 6.56441 0.956333 6.85041 1.355C7.13641 1.75367 7.34008 2.239 7.46141 2.811C7.58274 3.37433 7.64341 4.01567 7.64341 4.735C7.64341 5.723 7.56541 6.56367 7.40941 7.257C7.26208 7.94167 7.03241 8.49633 6.72041 8.921C6.40841 9.34567 6.00541 9.65333 5.51141 9.844C5.02608 10.0347 4.44541 10.13 3.76941 10.13C3.40541 10.13 3.09774 10.1083 2.84641 10.065C2.60374 10.0217 2.39141 9.961 2.20941 9.883C2.02741 9.805 1.86274 9.71833 1.71541 9.623C1.56808 9.519 1.41641 9.415 1.26041 9.311ZM5.35541 3.981C5.33808 3.57367 5.30341 3.24 5.25141 2.98C5.19941 2.71133 5.11708 2.50333 5.00441 2.356C4.90041 2.20867 4.76174 2.109 4.58841 2.057C4.41508 1.99633 4.19408 1.966 3.92541 1.966C3.65674 1.966 3.44441 2.00933 3.28841 2.096C3.13241 2.18267 3.01108 2.29967 2.92441 2.447C2.84641 2.59433 2.79441 2.76767 2.76841 2.967C2.75108 3.15767 2.74241 3.36133 2.74241 3.578C2.74241 3.82933 2.77274 4.033 2.83341 4.189C2.90274 4.345 2.99374 4.46633 3.10641 4.553C3.21908 4.63967 3.34474 4.70033 3.48341 4.735C3.63074 4.761 3.78241 4.774 3.93841 4.774C4.18974 4.774 4.43674 4.722 4.67941 4.618C4.93074 4.50533 5.15608 4.293 5.35541 3.981ZM13.2961 7.114C13.3481 6.94067 13.4044 6.70667 13.4651 6.412C13.5344 6.10867 13.5994 5.79667 13.6601 5.476C13.7207 5.15533 13.7771 4.85633 13.8291 4.579C13.8897 4.30167 13.9374 4.09367 13.9721 3.955C14.0414 3.669 14.0977 3.41333 14.1411 3.188C14.1931 2.954 14.2494 2.72433 14.3101 2.499C14.3707 2.27367 14.4444 2.03533 14.5311 1.784C14.6177 1.53267 14.7304 1.24233 14.8691 0.912999C14.9384 0.739666 15.0467 0.579333 15.1941 0.431999C15.3501 0.284666 15.5624 0.211 15.8311 0.211C16.0131 0.211 16.2341 0.263 16.4941 0.366999C16.7454 0.470999 16.9317 0.592333 17.0531 0.730999C17.1831 0.861 17.2697 0.999666 17.3131 1.147C17.3651 1.28567 17.3824 1.42433 17.3651 1.563C17.3477 1.693 17.3131 1.81867 17.2611 1.94C16.7411 3.15333 16.2731 4.36667 15.8571 5.58C15.4497 6.79333 15.0294 8.037 14.5961 9.311C14.5267 9.51033 14.3707 9.675 14.1281 9.805C13.8854 9.935 13.5821 10 13.2181 10C12.8541 10 12.5507 9.935 12.3081 9.805C12.0654 9.675 11.9094 9.51033 11.8401 9.311C11.4154 8.037 10.9951 6.79333 10.5791 5.58C10.1631 4.358 9.69507 3.14467 9.17507 1.94C9.12307 1.81867 9.08841 1.693 9.07107 1.563C9.05374 1.42433 9.06674 1.28567 9.11007 1.147C9.16207 0.999666 9.25307 0.861 9.38307 0.730999C9.51307 0.592333 9.69941 0.470999 9.94207 0.366999C10.2021 0.263 10.4231 0.211 10.6051 0.211C10.8737 0.211 11.0817 0.284666 11.2291 0.431999C11.3851 0.579333 11.4977 0.739666 11.5671 0.912999C11.7057 1.24233 11.8184 1.53267 11.9051 1.784C11.9917 2.03533 12.0654 2.27367 12.1261 2.499C12.1867 2.72433 12.2387 2.954 12.2821 3.188C12.3341 3.41333 12.3947 3.669 12.4641 3.955C12.4987 4.09367 12.5421 4.30167 12.5941 4.579C12.6547 4.85633 12.7154 5.15533 12.7761 5.476C12.8367 5.79667 12.8974 6.10867 12.9581 6.412C13.0274 6.70667 13.0881 6.94067 13.1401 7.114C13.1574 7.18333 13.1834 7.218 13.2181 7.218C13.2527 7.218 13.2787 7.18333 13.2961 7.114ZM23.4716 4.735C23.4716 4.45767 23.4586 4.18467 23.4326 3.916C23.4066 3.63867 23.3763 3.36133 23.3416 3.084C23.307 2.798 23.2766 2.512 23.2506 2.226C23.2246 1.94 23.2116 1.64533 23.2116 1.342C23.2116 1.14267 23.2463 0.973666 23.3156 0.834999C23.385 0.696333 23.4803 0.583667 23.6016 0.497C23.723 0.410333 23.866 0.349666 24.0306 0.314999C24.1953 0.271666 24.3686 0.249999 24.5506 0.249999C24.802 0.249999 25.01 0.284666 25.1746 0.353999C25.3393 0.414666 25.4693 0.497 25.5646 0.600999C25.66 0.705 25.725 0.822 25.7596 0.951999C25.7943 1.07333 25.8116 1.19467 25.8116 1.316C25.8116 1.654 25.7986 1.97033 25.7726 2.265C25.7466 2.55967 25.7163 2.84567 25.6816 3.123C25.647 3.39167 25.6166 3.66033 25.5906 3.929C25.5646 4.189 25.5516 4.45767 25.5516 4.735V5.515C25.5516 5.79233 25.5646 6.06533 25.5906 6.334C25.6166 6.594 25.647 6.86267 25.6816 7.14C25.7163 7.40867 25.7466 7.69033 25.7726 7.985C25.7986 8.27967 25.8116 8.596 25.8116 8.934C25.8116 9.05533 25.7943 9.181 25.7596 9.311C25.725 9.43233 25.66 9.545 25.5646 9.649C25.4693 9.753 25.3393 9.83967 25.1746 9.909C25.01 9.96967 24.802 10 24.5506 10C24.178 10 23.8616 9.91767 23.6016 9.753C23.3416 9.58833 23.2116 9.30667 23.2116 8.908C23.2116 8.60467 23.2246 8.31 23.2506 8.024C23.2766 7.738 23.307 7.45633 23.3416 7.179C23.3763 6.893 23.4066 6.61567 23.4326 6.347C23.4586 6.06967 23.4716 5.79233 23.4716 5.515V4.735ZM32.1296 9.519C32.069 9.43233 32.0343 9.35 32.0256 9.272L29.7636 4.54C29.729 4.47067 29.6986 4.44033 29.6726 4.449C29.6553 4.449 29.6466 4.488 29.6466 4.566V4.735V5.125C29.6466 5.40233 29.664 5.697 29.6986 6.009C29.742 6.31233 29.7896 6.62433 29.8416 6.945C29.8936 7.26567 29.937 7.595 29.9716 7.933C30.015 8.26233 30.0366 8.596 30.0366 8.934C30.0366 9.05533 30.015 9.181 29.9716 9.311C29.9283 9.43233 29.8546 9.545 29.7506 9.649C29.6466 9.753 29.5036 9.83967 29.3216 9.909C29.1483 9.96967 28.9316 10 28.6716 10C28.403 10 28.1863 9.96533 28.0216 9.896C27.8656 9.82667 27.7443 9.74 27.6576 9.636C27.571 9.52333 27.5103 9.40633 27.4756 9.285C27.4496 9.155 27.4366 9.02933 27.4366 8.908C27.4366 8.60467 27.4496 8.31 27.4756 8.024C27.5016 7.738 27.532 7.45633 27.5666 7.179C27.6013 6.893 27.6316 6.61567 27.6576 6.347C27.6836 6.06967 27.6966 5.79233 27.6966 5.515V4.735C27.6966 4.45767 27.6836 4.18467 27.6576 3.916C27.6316 3.63867 27.6013 3.36133 27.5666 3.084C27.532 2.798 27.5016 2.512 27.4756 2.226C27.4496 1.94 27.4366 1.64533 27.4366 1.342C27.4366 1.22067 27.4496 1.09933 27.4756 0.978C27.5103 0.848 27.571 0.730999 27.6576 0.627C27.7443 0.514333 27.8656 0.423333 28.0216 0.353999C28.1863 0.284666 28.403 0.249999 28.6716 0.249999H29.2176C29.391 0.249999 29.5513 0.297666 29.6986 0.393C29.846 0.479666 29.9543 0.596666 30.0236 0.744L32.1296 5.034C32.1643 5.10333 32.1903 5.138 32.2076 5.138C32.2336 5.12933 32.2466 5.086 32.2466 5.008V4.735C32.2466 4.45767 32.225 4.18467 32.1816 3.916C32.147 3.63867 32.1036 3.36133 32.0516 3.084C31.9996 2.798 31.952 2.512 31.9086 2.226C31.874 1.94 31.8566 1.64533 31.8566 1.342C31.8566 1.22067 31.8783 1.09933 31.9216 0.978C31.965 0.848 32.0386 0.730999 32.1426 0.627C32.2466 0.514333 32.3853 0.423333 32.5586 0.353999C32.732 0.284666 32.953 0.249999 33.2216 0.249999C33.4816 0.249999 33.694 0.284666 33.8586 0.353999C34.0233 0.414666 34.149 0.497 34.2356 0.600999C34.3223 0.705 34.3786 0.822 34.4046 0.951999C34.4393 1.07333 34.4566 1.19467 34.4566 1.316C34.4566 1.654 34.4436 1.97033 34.4176 2.265C34.3916 2.55967 34.3613 2.84567 34.3266 3.123C34.292 3.39167 34.2616 3.66033 34.2356 3.929C34.2096 4.189 34.1966 4.45767 34.1966 4.735V5.515C34.1966 5.79233 34.2096 6.06533 34.2356 6.334C34.2616 6.594 34.292 6.86267 34.3266 7.14C34.3613 7.40867 34.3916 7.69033 34.4176 7.985C34.4436 8.27967 34.4566 8.596 34.4566 8.934C34.4566 9.04667 34.4436 9.16367 34.4176 9.285C34.3916 9.40633 34.3353 9.519 34.2486 9.623C34.1706 9.727 34.058 9.81367 33.9106 9.883C33.772 9.95233 33.5856 9.99133 33.3516 10H32.9096C32.7623 10 32.6193 9.95667 32.4806 9.87C32.342 9.78333 32.225 9.66633 32.1296 9.519Z" fill="black"/>
</svg>
