<svg width="32" height="17" viewBox="0 0 32 17" fill="none" xmlns="http://www.w3.org/2000/svg">
<path d="M1.91313 5.6C1.87579 5.73867 1.83046 5.88533 1.77713 6.04C1.72913 6.18933 1.66246 6.36533 1.57713 6.568C1.53446 6.67467 1.46513 6.77333 1.36913 6.864C1.27846 6.95467 1.15046 7 0.985125 7C0.873125 7 0.737125 6.968 0.577125 6.904C0.427792 6.84 0.313125 6.768 0.233125 6.688C0.153125 6.60267 0.097125 6.51733 0.065125 6.432C0.0384583 6.34133 0.0304583 6.25333 0.041125 6.168C0.0517917 6.08267 0.073125 6.00533 0.105125 5.936C0.425125 5.18933 0.713125 4.44267 0.969125 3.696C1.22513 2.94933 1.48379 2.184 1.74513 1.4C1.78779 1.27733 1.88379 1.176 2.03313 1.096C2.18246 1.016 2.36913 0.976 2.59313 0.976C2.81713 0.976 3.00379 1.016 3.15313 1.096C3.30246 1.176 3.39846 1.27733 3.44113 1.4C3.70779 2.184 3.96646 2.94933 4.21713 3.696C4.47313 4.44267 4.76113 5.18933 5.08113 5.936C5.11313 6.00533 5.13446 6.08267 5.14513 6.168C5.15579 6.25333 5.14513 6.34133 5.11313 6.432C5.08646 6.51733 5.03313 6.60267 4.95312 6.688C4.87846 6.768 4.76379 6.84 4.60913 6.904C4.44913 6.968 4.31313 7 4.20113 7C4.03579 7 3.90513 6.95467 3.80913 6.864C3.71846 6.77333 3.65179 6.67467 3.60913 6.568C3.52379 6.36533 3.45446 6.18667 3.40113 6.032C3.35313 5.87733 3.31046 5.73067 3.27313 5.592C3.24646 5.49067 3.18246 5.43467 3.08113 5.424C3.03313 5.41867 2.98246 5.416 2.92913 5.416C2.88113 5.416 2.82779 5.416 2.76913 5.416H2.44913C2.37979 5.416 2.31579 5.41867 2.25713 5.424C2.20379 5.424 2.15313 5.42667 2.10513 5.432C2.00379 5.44267 1.93979 5.49867 1.91313 5.6ZM2.54513 2.768C2.52379 2.84267 2.49979 2.936 2.47313 3.048C2.44646 3.16 2.41979 3.28 2.39313 3.408C2.36646 3.536 2.33979 3.66667 2.31313 3.8C2.29179 3.93333 2.26779 4.06133 2.24113 4.184C2.22513 4.29067 2.26513 4.344 2.36113 4.344H2.44913H2.76913H2.82513C2.92113 4.344 2.96113 4.29333 2.94513 4.192C2.92379 4.06933 2.89979 3.94133 2.87313 3.808C2.84646 3.67467 2.81979 3.544 2.79313 3.416C2.76646 3.288 2.73979 3.168 2.71313 3.056C2.68646 2.93867 2.66246 2.84267 2.64113 2.768C2.63046 2.72533 2.61446 2.704 2.59313 2.704C2.57179 2.704 2.55579 2.72533 2.54513 2.768ZM7.93838 5.56H8.08238C8.25304 5.56 8.38371 5.552 8.47438 5.536C8.57038 5.52 8.64771 5.50133 8.70638 5.48C8.77038 5.45867 8.83171 5.44 8.89038 5.424C8.95438 5.408 9.03971 5.4 9.14638 5.4C9.22104 5.4 9.29571 5.41067 9.37038 5.432C9.45038 5.45333 9.52238 5.496 9.58638 5.56C9.65038 5.61867 9.70104 5.70133 9.73838 5.808C9.78104 5.90933 9.80238 6.04 9.80238 6.2C9.80238 6.36533 9.78104 6.50133 9.73838 6.608C9.69571 6.70933 9.63971 6.78933 9.57038 6.848C9.50638 6.90667 9.43438 6.94667 9.35438 6.968C9.27971 6.98933 9.20504 7 9.13038 7C9.04504 7 8.97304 6.992 8.91438 6.976C8.86104 6.96 8.79971 6.94133 8.73038 6.92C8.66638 6.89867 8.58371 6.88 8.48238 6.864C8.38638 6.848 8.25304 6.84 8.08238 6.84C7.95438 6.84 7.84771 6.84533 7.76238 6.856C7.67704 6.86667 7.60504 6.87733 7.54638 6.888C7.42371 6.96267 7.25304 7 7.03438 7C6.81038 7 6.62104 6.94933 6.46638 6.848C6.31171 6.74133 6.23438 6.568 6.23438 6.328C6.23438 6.14133 6.24238 5.96 6.25838 5.784C6.27438 5.608 6.29304 5.43467 6.31438 5.264C6.33571 5.088 6.35438 4.91733 6.37038 4.752C6.38638 4.58133 6.39438 4.41067 6.39438 4.24V3.76C6.39438 3.58933 6.38638 3.42133 6.37038 3.256C6.35438 3.08533 6.33571 2.91467 6.31438 2.744C6.29304 2.568 6.27438 2.392 6.25838 2.216C6.24238 2.04 6.23438 1.85867 6.23438 1.672C6.23438 1.54933 6.25571 1.44533 6.29838 1.36C6.34104 1.27467 6.39971 1.20533 6.47438 1.152C6.54904 1.09867 6.63704 1.06133 6.73838 1.04C6.83971 1.01333 6.94638 1 7.05838 1C7.21304 1 7.34104 1.02133 7.44238 1.064C7.54371 1.10133 7.62371 1.152 7.68238 1.216C7.74104 1.28 7.78104 1.352 7.80238 1.432C7.82371 1.50667 7.83438 1.58133 7.83438 1.656C7.83438 1.864 7.82638 2.05867 7.81038 2.24C7.79438 2.42133 7.77571 2.59733 7.75438 2.768C7.73304 2.93333 7.71438 3.09867 7.69838 3.264C7.68238 3.424 7.67438 3.58933 7.67438 3.76V4.24C7.67438 4.44267 7.68238 4.63733 7.69838 4.824C7.71971 5.00533 7.74371 5.19467 7.77038 5.392C7.78104 5.49333 7.83704 5.54933 7.93838 5.56ZM13.3449 4.968C13.2649 5.23467 13.1875 5.50133 13.1129 5.768C13.0435 6.03467 12.9742 6.304 12.9049 6.576C12.8782 6.69867 12.8115 6.8 12.7049 6.88C12.6035 6.96 12.4409 7 12.2169 7C11.9929 7 11.8062 6.96 11.6569 6.88C11.5075 6.8 11.4115 6.69867 11.3689 6.576C11.2355 6.18133 11.1182 5.79467 11.0169 5.416C10.9209 5.032 10.8249 4.65333 10.7289 4.28C10.6382 3.90133 10.5395 3.528 10.4329 3.16C10.3315 2.78667 10.2115 2.41333 10.0729 2.04C10.0462 1.96533 10.0275 1.888 10.0169 1.808C10.0062 1.72267 10.0142 1.63733 10.0409 1.552C10.0675 1.46133 10.1209 1.376 10.2009 1.296C10.2809 1.21067 10.3955 1.136 10.5449 1.072C10.6942 1.008 10.8249 0.976 10.9369 0.976C11.0489 0.976 11.1449 0.997333 11.2249 1.04C11.3049 1.07733 11.3689 1.13067 11.4169 1.2C11.4702 1.264 11.5129 1.33333 11.5449 1.408C11.5929 1.51467 11.6382 1.66133 11.6809 1.848C11.7289 2.03467 11.7742 2.24533 11.8169 2.48C11.8649 2.71467 11.9102 2.96267 11.9529 3.224C11.9955 3.48 12.0329 3.73333 12.0649 3.984C12.1022 4.22933 12.1315 4.45867 12.1529 4.672C12.1795 4.88533 12.1982 5.06667 12.2089 5.216C12.2142 5.28533 12.2249 5.28533 12.2409 5.216C12.2889 4.896 12.3342 4.576 12.3769 4.256C12.4249 3.93067 12.4755 3.608 12.5289 3.288C12.5822 2.968 12.6435 2.65067 12.7129 2.336C12.7822 2.02133 12.8675 1.712 12.9689 1.408C12.9955 1.33333 13.0302 1.26133 13.0729 1.192C13.1155 1.12267 13.1715 1.06933 13.2409 1.032C13.3155 0.989333 13.4035 0.970667 13.5049 0.976C13.6115 0.976 13.7395 1.008 13.8889 1.072C14.0435 1.136 14.1529 1.21067 14.2169 1.296C14.2862 1.376 14.3289 1.45867 14.3449 1.544C14.3662 1.62933 14.3662 1.71467 14.3449 1.8C14.3289 1.88533 14.3075 1.96533 14.2809 2.04C14.2542 2.12533 14.2249 2.21067 14.1929 2.296C14.1662 2.38133 14.1395 2.46667 14.1129 2.552C14.1609 2.77067 14.2035 2.99733 14.2409 3.232C14.2835 3.46667 14.3209 3.69867 14.3529 3.928C14.3849 4.15733 14.4142 4.38133 14.4409 4.6C14.4675 4.81867 14.4942 5.024 14.5209 5.216C14.5315 5.296 14.5395 5.296 14.5449 5.216C14.5609 4.96533 14.5902 4.66667 14.6329 4.32C14.6809 3.968 14.7395 3.61067 14.8089 3.248C14.8782 2.88533 14.9529 2.53867 15.0329 2.208C15.1182 1.87733 15.2035 1.61067 15.2889 1.408C15.3209 1.33333 15.3609 1.264 15.4089 1.2C15.4622 1.13067 15.5289 1.07733 15.6089 1.04C15.6889 0.997333 15.7849 0.976 15.8969 0.976C16.0089 0.976 16.1395 1.008 16.2889 1.072C16.4435 1.136 16.5555 1.21067 16.6249 1.296C16.6942 1.376 16.7369 1.45867 16.7529 1.544C16.7742 1.62933 16.7742 1.71467 16.7529 1.8C16.7315 1.88533 16.7075 1.96533 16.6809 2.04C16.5422 2.41333 16.4169 2.78667 16.3049 3.16C16.1929 3.53333 16.0835 3.90933 15.9769 4.288C15.8755 4.66133 15.7715 5.03733 15.6649 5.416C15.5582 5.79467 15.4382 6.18133 15.3049 6.576C15.2622 6.69867 15.1795 6.8 15.0569 6.88C14.9342 6.96 14.7609 7 14.5369 7C14.3129 7 14.1529 6.96 14.0569 6.88C13.9609 6.8 13.8915 6.69867 13.8489 6.576C13.7742 6.352 13.6995 6.09867 13.6249 5.816C13.5555 5.528 13.4862 5.24533 13.4169 4.968C13.3955 4.888 13.3715 4.888 13.3449 4.968ZM18.7662 5.6C18.7289 5.73867 18.6836 5.88533 18.6302 6.04C18.5822 6.18933 18.5156 6.36533 18.4302 6.568C18.3876 6.67467 18.3182 6.77333 18.2222 6.864C18.1316 6.95467 18.0036 7 17.8382 7C17.7262 7 17.5902 6.968 17.4302 6.904C17.2809 6.84 17.1662 6.768 17.0862 6.688C17.0062 6.60267 16.9502 6.51733 16.9182 6.432C16.8916 6.34133 16.8836 6.25333 16.8942 6.168C16.9049 6.08267 16.9262 6.00533 16.9582 5.936C17.2782 5.18933 17.5662 4.44267 17.8222 3.696C18.0782 2.94933 18.3369 2.184 18.5982 1.4C18.6409 1.27733 18.7369 1.176 18.8862 1.096C19.0356 1.016 19.2222 0.976 19.4462 0.976C19.6702 0.976 19.8569 1.016 20.0062 1.096C20.1556 1.176 20.2516 1.27733 20.2942 1.4C20.5609 2.184 20.8196 2.94933 21.0703 3.696C21.3262 4.44267 21.6142 5.18933 21.9342 5.936C21.9662 6.00533 21.9876 6.08267 21.9983 6.168C22.0089 6.25333 21.9982 6.34133 21.9662 6.432C21.9396 6.51733 21.8862 6.60267 21.8062 6.688C21.7316 6.768 21.6169 6.84 21.4622 6.904C21.3022 6.968 21.1662 7 21.0542 7C20.8889 7 20.7582 6.95467 20.6622 6.864C20.5716 6.77333 20.5049 6.67467 20.4622 6.568C20.3769 6.36533 20.3076 6.18667 20.2542 6.032C20.2062 5.87733 20.1636 5.73067 20.1262 5.592C20.0996 5.49067 20.0356 5.43467 19.9342 5.424C19.8862 5.41867 19.8356 5.416 19.7822 5.416C19.7342 5.416 19.6809 5.416 19.6222 5.416H19.3022C19.2329 5.416 19.1689 5.41867 19.1102 5.424C19.0569 5.424 19.0062 5.42667 18.9582 5.432C18.8569 5.44267 18.7929 5.49867 18.7662 5.6ZM19.3982 2.768C19.3769 2.84267 19.3529 2.936 19.3262 3.048C19.2996 3.16 19.2729 3.28 19.2462 3.408C19.2196 3.536 19.1929 3.66667 19.1662 3.8C19.1449 3.93333 19.1209 4.06133 19.0942 4.184C19.0782 4.29067 19.1182 4.344 19.2142 4.344H19.3022H19.6222H19.6782C19.7742 4.344 19.8142 4.29333 19.7982 4.192C19.7769 4.06933 19.7529 3.94133 19.7262 3.808C19.6996 3.67467 19.6729 3.544 19.6462 3.416C19.6196 3.288 19.5929 3.168 19.5662 3.056C19.5396 2.93867 19.5156 2.84267 19.4942 2.768C19.4836 2.72533 19.4676 2.704 19.4462 2.704C19.4249 2.704 19.4089 2.72533 19.3982 2.768ZM23.6503 4.512C23.5276 4.29333 23.3996 4.088 23.2663 3.896C23.1383 3.704 23.005 3.512 22.8663 3.32C22.733 3.12267 22.5916 2.92 22.4423 2.712C22.293 2.504 22.1356 2.27467 21.9703 2.024C21.9276 1.96 21.8983 1.88533 21.8823 1.8C21.8716 1.71467 21.8823 1.62933 21.9143 1.544C21.9463 1.45333 22.005 1.36533 22.0903 1.28C22.1756 1.19467 22.293 1.12 22.4423 1.056C22.5916 0.992 22.7223 0.96 22.8343 0.96C22.9463 0.96 23.0423 0.981333 23.1223 1.024C23.2023 1.06133 23.2663 1.11467 23.3143 1.184C23.3676 1.248 23.4103 1.31733 23.4423 1.392C23.5543 1.65333 23.6476 1.87733 23.7223 2.064C23.797 2.24533 23.8636 2.41067 23.9223 2.56C23.9863 2.704 24.0476 2.84 24.1063 2.968C24.165 3.096 24.2343 3.23733 24.3143 3.392C24.357 3.46667 24.3996 3.46667 24.4423 3.392C24.5223 3.23733 24.5916 3.096 24.6503 2.968C24.709 2.84 24.7676 2.704 24.8263 2.56C24.8903 2.41067 24.9596 2.24533 25.0343 2.064C25.109 1.87733 25.2023 1.65333 25.3143 1.392C25.3463 1.31733 25.3863 1.248 25.4343 1.184C25.4876 1.11467 25.5543 1.06133 25.6343 1.024C25.7143 0.981333 25.8103 0.96 25.9223 0.96C26.0343 0.96 26.165 0.992 26.3143 1.056C26.469 1.12 26.5863 1.19467 26.6663 1.28C26.7516 1.36533 26.8103 1.45333 26.8423 1.544C26.8743 1.62933 26.8823 1.71467 26.8663 1.8C26.8556 1.88533 26.829 1.96 26.7863 2.024C26.621 2.27467 26.4636 2.50667 26.3143 2.72C26.165 2.928 26.021 3.13067 25.8823 3.328C25.7436 3.52 25.6076 3.71467 25.4743 3.912C25.3463 4.104 25.2183 4.312 25.0903 4.536C25.069 4.57333 25.053 4.616 25.0423 4.664C25.037 4.70667 25.037 4.74933 25.0423 4.792C25.069 5.032 25.0956 5.27467 25.1223 5.52C25.1543 5.76533 25.1703 6.04 25.1703 6.344C25.1703 6.41867 25.1596 6.496 25.1383 6.576C25.117 6.65067 25.0743 6.72 25.0103 6.784C24.9516 6.848 24.869 6.90133 24.7623 6.944C24.661 6.98133 24.5303 7 24.3703 7C24.205 7 24.069 6.97867 23.9623 6.936C23.861 6.89333 23.781 6.84 23.7223 6.776C23.6636 6.70667 23.6236 6.63467 23.6023 6.56C23.581 6.48 23.5703 6.40267 23.5703 6.328C23.5703 6.04533 23.5863 5.77867 23.6183 5.528C23.6503 5.27733 23.6796 5.024 23.7063 4.768C23.7116 4.72533 23.709 4.68267 23.6983 4.64C23.6876 4.592 23.6716 4.54933 23.6503 4.512ZM29.1581 2.36C29.1581 2.45067 29.1821 2.528 29.2301 2.592C29.2834 2.656 29.3527 2.71733 29.4381 2.776C29.5287 2.82933 29.6354 2.88533 29.7581 2.944C29.8807 3.00267 30.0167 3.06933 30.1661 3.144C30.3581 3.24 30.5501 3.34667 30.7421 3.464C30.9394 3.58133 31.1181 3.72 31.2781 3.88C31.4381 4.04 31.5687 4.22933 31.6701 4.448C31.7714 4.66133 31.8221 4.912 31.8221 5.2C31.8221 5.49867 31.7821 5.76533 31.7021 6C31.6274 6.23467 31.5074 6.432 31.3421 6.592C31.1767 6.752 30.9607 6.87467 30.6941 6.96C30.4327 7.04 30.1127 7.08 29.7341 7.08C29.5367 7.08 29.3421 7.056 29.1501 7.008C28.9634 6.96533 28.7874 6.90667 28.6221 6.832C28.4567 6.752 28.3047 6.66133 28.1661 6.56C28.0274 6.45333 27.9074 6.34133 27.8061 6.224C27.6941 6.09067 27.6274 5.96 27.6061 5.832C27.5901 5.69867 27.6034 5.57867 27.6461 5.472C27.6941 5.36533 27.7661 5.27467 27.8621 5.2C27.9634 5.12533 28.0701 5.07733 28.1821 5.056C28.2994 5.02933 28.4167 5.03467 28.5341 5.072C28.6567 5.10933 28.7634 5.184 28.8541 5.296C28.8967 5.34933 28.9501 5.40533 29.0141 5.464C29.0834 5.51733 29.1554 5.56533 29.2301 5.608C29.3101 5.65067 29.3927 5.688 29.4781 5.72C29.5634 5.74667 29.6487 5.76 29.7341 5.76C29.9474 5.76 30.1154 5.728 30.2381 5.664C30.3607 5.6 30.4221 5.47467 30.4221 5.288C30.4221 5.11733 30.3367 4.96533 30.1661 4.832C29.9954 4.69867 29.7874 4.568 29.5421 4.44C29.2861 4.30667 29.0514 4.176 28.8381 4.048C28.6301 3.92 28.4514 3.78133 28.3021 3.632C28.1527 3.47733 28.0381 3.30667 27.9581 3.12C27.8781 2.928 27.8381 2.704 27.8381 2.448C27.8381 2.192 27.8887 1.968 27.9901 1.776C28.0967 1.584 28.2381 1.42667 28.4141 1.304C28.5901 1.176 28.7954 1.08 29.0301 1.016C29.2647 0.952 29.5101 0.92 29.7661 0.92C29.9581 0.92 30.1261 0.936 30.2701 0.968C30.4194 0.994667 30.5554 1.032 30.6781 1.08C30.8007 1.128 30.9127 1.18133 31.0141 1.24C31.1207 1.29867 31.2221 1.36 31.3181 1.424C31.4461 1.504 31.5367 1.59733 31.5901 1.704C31.6434 1.80533 31.6674 1.90933 31.6621 2.016C31.6621 2.11733 31.6354 2.21333 31.5821 2.304C31.5341 2.38933 31.4701 2.46133 31.3901 2.52C31.3101 2.57333 31.2194 2.60267 31.1181 2.608C31.0221 2.61333 30.9261 2.584 30.8301 2.52C30.7554 2.472 30.6781 2.42133 30.5981 2.368C30.5181 2.30933 30.4301 2.256 30.3341 2.208C30.2434 2.16 30.1447 2.12267 30.0381 2.096C29.9314 2.064 29.8141 2.048 29.6861 2.048C29.4727 2.048 29.3314 2.08 29.2621 2.144C29.1927 2.208 29.1581 2.28 29.1581 2.36ZM21.2741 13C21.2741 12.5893 21.3274 12.2 21.4341 11.832C21.5407 11.4587 21.7007 11.1307 21.9141 10.848C22.1274 10.5653 22.3914 10.3413 22.7061 10.176C23.0207 10.0053 23.3861 9.92 23.8021 9.92C24.2127 9.92 24.5727 10.0053 24.8821 10.176C25.1967 10.3413 25.4607 10.5653 25.6741 10.848C25.8874 11.1307 26.0474 11.4587 26.1541 11.832C26.2661 12.2 26.3221 12.5893 26.3221 13C26.3221 13.48 26.2714 13.912 26.1701 14.296C26.0741 14.6747 25.9221 14.9973 25.7141 15.264C25.5061 15.5253 25.2421 15.728 24.9221 15.872C24.6074 16.0107 24.2341 16.08 23.8021 16.08C23.3647 16.08 22.9861 16.0107 22.6661 15.872C22.3514 15.728 22.0901 15.5253 21.8821 15.264C21.6741 14.9973 21.5194 14.6747 21.4181 14.296C21.3221 13.912 21.2741 13.48 21.2741 13ZM22.6741 12.992C22.6741 13.264 22.6927 13.512 22.7301 13.736C22.7727 13.9547 22.8394 14.1413 22.9301 14.296C23.0207 14.4507 23.1354 14.5707 23.2741 14.656C23.4181 14.7413 23.5941 14.784 23.8021 14.784C24.0101 14.784 24.1834 14.7413 24.3221 14.656C24.4661 14.5707 24.5834 14.4507 24.6741 14.296C24.7647 14.1413 24.8287 13.9547 24.8661 13.736C24.9087 13.512 24.9301 13.264 24.9301 12.992C24.9301 12.72 24.9141 12.4667 24.8821 12.232C24.8501 11.9973 24.7914 11.792 24.7061 11.616C24.6207 11.44 24.5034 11.3013 24.3541 11.2C24.2101 11.0987 24.0261 11.048 23.8021 11.048C23.5781 11.048 23.3914 11.0987 23.2421 11.2C23.0981 11.3013 22.9834 11.44 22.8981 11.616C22.8127 11.792 22.7541 11.9973 22.7221 12.232C22.6901 12.4667 22.6741 12.72 22.6741 12.992ZM30.3693 15.704C30.3319 15.6507 30.3106 15.6 30.3053 15.552L28.9133 12.64C28.8919 12.5973 28.8733 12.5787 28.8573 12.584C28.8466 12.584 28.8413 12.608 28.8413 12.656V12.76V13C28.8413 13.1707 28.8519 13.352 28.8733 13.544C28.8999 13.7307 28.9293 13.9227 28.9613 14.12C28.9933 14.3173 29.0199 14.52 29.0413 14.728C29.0679 14.9307 29.0813 15.136 29.0813 15.344C29.0813 15.4187 29.0679 15.496 29.0413 15.576C29.0146 15.6507 28.9693 15.72 28.9053 15.784C28.8413 15.848 28.7533 15.9013 28.6413 15.944C28.5346 15.9813 28.4013 16 28.2413 16C28.0759 16 27.9426 15.9787 27.8413 15.936C27.7453 15.8933 27.6706 15.84 27.6173 15.776C27.5639 15.7067 27.5266 15.6347 27.5053 15.56C27.4893 15.48 27.4813 15.4027 27.4813 15.328C27.4813 15.1413 27.4893 14.96 27.5053 14.784C27.5213 14.608 27.5399 14.4347 27.5613 14.264C27.5826 14.088 27.6013 13.9173 27.6173 13.752C27.6333 13.5813 27.6413 13.4107 27.6413 13.24V12.76C27.6413 12.5893 27.6333 12.4213 27.6173 12.256C27.6013 12.0853 27.5826 11.9147 27.5613 11.744C27.5399 11.568 27.5213 11.392 27.5053 11.216C27.4893 11.04 27.4813 10.8587 27.4813 10.672C27.4813 10.5973 27.4893 10.5227 27.5053 10.448C27.5266 10.368 27.5639 10.296 27.6173 10.232C27.6706 10.1627 27.7453 10.1067 27.8413 10.064C27.9426 10.0213 28.0759 10 28.2413 10H28.5773C28.6839 10 28.7826 10.0293 28.8733 10.088C28.9639 10.1413 29.0306 10.2133 29.0733 10.304L30.3693 12.944C30.3906 12.9867 30.4066 13.008 30.4173 13.008C30.4333 13.0027 30.4413 12.976 30.4413 12.928V12.76C30.4413 12.5893 30.4279 12.4213 30.4013 12.256C30.3799 12.0853 30.3533 11.9147 30.3213 11.744C30.2893 11.568 30.2599 11.392 30.2333 11.216C30.2119 11.04 30.2013 10.8587 30.2013 10.672C30.2013 10.5973 30.2146 10.5227 30.2413 10.448C30.2679 10.368 30.3133 10.296 30.3773 10.232C30.4413 10.1627 30.5266 10.1067 30.6333 10.064C30.7399 10.0213 30.8759 10 31.0413 10C31.2013 10 31.3319 10.0213 31.4333 10.064C31.5346 10.1013 31.6119 10.152 31.6653 10.216C31.7186 10.28 31.7533 10.352 31.7693 10.432C31.7906 10.5067 31.8012 10.5813 31.8012 10.656C31.8012 10.864 31.7933 11.0587 31.7773 11.24C31.7613 11.4213 31.7426 11.5973 31.7213 11.768C31.6999 11.9333 31.6813 12.0987 31.6653 12.264C31.6493 12.424 31.6413 12.5893 31.6413 12.76V13.24C31.6413 13.4107 31.6493 13.5787 31.6653 13.744C31.6813 13.904 31.6999 14.0693 31.7213 14.24C31.7426 14.4053 31.7613 14.5787 31.7773 14.76C31.7933 14.9413 31.8012 15.136 31.8012 15.344C31.8012 15.4133 31.7933 15.4853 31.7773 15.56C31.7613 15.6347 31.7266 15.704 31.6733 15.768C31.6253 15.832 31.5559 15.8853 31.4653 15.928C31.3799 15.9707 31.2653 15.9947 31.1213 16H30.8493C30.7586 16 30.6706 15.9733 30.5853 15.92C30.4999 15.8667 30.4279 15.7947 30.3693 15.704Z" fill="black"/>
</svg>
