<svg width="35" height="17" viewBox="0 0 35 17" fill="none" xmlns="http://www.w3.org/2000/svg">
<path fill-rule="evenodd" clip-rule="evenodd" d="M35 0H0V17H35V0ZM3.77713 6.04C3.83046 5.88533 3.87579 5.73867 3.91313 5.6C3.93979 5.49867 4.00379 5.44267 4.10513 5.432C4.15313 5.42667 4.20379 5.424 4.25712 5.424C4.31579 5.41867 4.37979 5.416 4.44913 5.416H4.76912H4.92912C4.98246 5.416 5.03313 5.41867 5.08113 5.424C5.18246 5.43467 5.24646 5.49067 5.27313 5.592C5.31046 5.73067 5.35313 5.87733 5.40112 6.032C5.45446 6.18667 5.52379 6.36533 5.60913 6.568C5.65179 6.67467 5.71846 6.77333 5.80912 6.864C5.90513 6.95467 6.03579 7 6.20113 7C6.31313 7 6.44913 6.968 6.60913 6.904C6.76379 6.84 6.87846 6.768 6.95312 6.688C7.03313 6.60267 7.08646 6.51733 7.11313 6.432C7.14513 6.34133 7.15579 6.25333 7.14513 6.168C7.13446 6.08267 7.11313 6.00533 7.08113 5.936C6.76113 5.18933 6.47313 4.44267 6.21713 3.696C5.96646 2.94933 5.70779 2.184 5.44112 1.4C5.39846 1.27733 5.30246 1.176 5.15312 1.096C5.00379 1.016 4.81713 0.976 4.59313 0.976C4.36913 0.976 4.18246 1.016 4.03312 1.096C3.88379 1.176 3.78779 1.27733 3.74513 1.4C3.48379 2.184 3.22513 2.94933 2.96913 3.696C2.71312 4.44267 2.42513 5.18933 2.10512 5.936C2.07312 6.00533 2.05179 6.08267 2.04113 6.168C2.03046 6.25333 2.03846 6.34133 2.06512 6.432C2.09713 6.51733 2.15313 6.60267 2.23312 6.688C2.31312 6.768 2.42779 6.84 2.57713 6.904C2.73712 6.968 2.87313 7 2.98513 7C3.15046 7 3.27846 6.95467 3.36912 6.864C3.46513 6.77333 3.53446 6.67467 3.57713 6.568C3.66246 6.36533 3.72913 6.18933 3.77713 6.04ZM4.47313 3.048C4.49979 2.936 4.52379 2.84267 4.54513 2.768C4.55579 2.72533 4.57179 2.704 4.59313 2.704C4.61446 2.704 4.63046 2.72533 4.64113 2.768C4.66246 2.84267 4.68646 2.93867 4.71313 3.056C4.73979 3.168 4.76646 3.288 4.79313 3.416C4.81979 3.544 4.84646 3.67467 4.87313 3.808C4.89979 3.94133 4.92379 4.06933 4.94513 4.192C4.96112 4.29333 4.92112 4.344 4.82513 4.344H4.76912H4.44913H4.36112C4.26513 4.344 4.22513 4.29067 4.24113 4.184C4.26779 4.06133 4.29179 3.93333 4.31313 3.8C4.33979 3.66667 4.36646 3.536 4.39313 3.408C4.41979 3.28 4.44646 3.16 4.47313 3.048ZM10.0824 5.56H9.93838C9.83704 5.54933 9.78104 5.49333 9.77038 5.392C9.74371 5.19467 9.71971 5.00533 9.69838 4.824C9.68237 4.63733 9.67438 4.44267 9.67438 4.24V3.76C9.67438 3.58933 9.68237 3.424 9.69838 3.264C9.71438 3.09867 9.73304 2.93333 9.75438 2.768C9.77571 2.59733 9.79438 2.42133 9.81038 2.24C9.82638 2.05867 9.83438 1.864 9.83438 1.656C9.83438 1.58133 9.82371 1.50667 9.80238 1.432C9.78104 1.352 9.74104 1.28 9.68237 1.216C9.62371 1.152 9.54371 1.10133 9.44238 1.064C9.34104 1.02133 9.21304 1 9.05838 1C8.94637 1 8.83971 1.01333 8.73838 1.04C8.63704 1.06133 8.54904 1.09867 8.47437 1.152C8.39971 1.20533 8.34104 1.27467 8.29838 1.36C8.25571 1.44533 8.23438 1.54933 8.23438 1.672C8.23438 1.85867 8.24238 2.04 8.25838 2.216C8.27437 2.392 8.29304 2.568 8.31437 2.744C8.33571 2.91467 8.35437 3.08533 8.37038 3.256C8.38638 3.42133 8.39437 3.58933 8.39437 3.76V4.24C8.39437 4.41067 8.38638 4.58133 8.37038 4.752C8.35437 4.91733 8.33571 5.088 8.31437 5.264C8.29304 5.43467 8.27437 5.608 8.25838 5.784C8.24238 5.96 8.23438 6.14133 8.23438 6.328C8.23438 6.568 8.31171 6.74133 8.46638 6.848C8.62104 6.94933 8.81038 7 9.03438 7C9.25304 7 9.42371 6.96267 9.54638 6.888C9.60504 6.87733 9.67704 6.86667 9.76237 6.856C9.84771 6.84533 9.95438 6.84 10.0824 6.84C10.253 6.84 10.3864 6.848 10.4824 6.864C10.5837 6.88 10.6664 6.89867 10.7304 6.92C10.7997 6.94133 10.861 6.96 10.9144 6.976C10.973 6.992 11.045 7 11.1304 7C11.205 7 11.2797 6.98933 11.3544 6.968C11.4344 6.94667 11.5064 6.90667 11.5704 6.848C11.6397 6.78933 11.6957 6.70933 11.7384 6.608C11.781 6.50133 11.8024 6.36533 11.8024 6.2C11.8024 6.04 11.781 5.90933 11.7384 5.808C11.701 5.70133 11.6504 5.61867 11.5864 5.56C11.5224 5.496 11.4504 5.45333 11.3704 5.432C11.2957 5.41067 11.221 5.4 11.1464 5.4C11.0397 5.4 10.9544 5.408 10.8904 5.424C10.8317 5.44 10.7704 5.45867 10.7064 5.48C10.6477 5.50133 10.5704 5.52 10.4744 5.536C10.3837 5.552 10.253 5.56 10.0824 5.56ZM15.1129 5.768C15.1875 5.50133 15.2649 5.23467 15.3449 4.968C15.3715 4.888 15.3955 4.888 15.4169 4.968C15.4862 5.24533 15.5555 5.528 15.6249 5.816C15.6995 6.09867 15.7742 6.352 15.8489 6.576C15.8915 6.69867 15.9609 6.8 16.0569 6.88C16.1529 6.96 16.3129 7 16.5369 7C16.7609 7 16.9342 6.96 17.0569 6.88C17.1795 6.8 17.2622 6.69867 17.3049 6.576C17.4382 6.18133 17.5582 5.79467 17.6649 5.416C17.7715 5.03733 17.8755 4.66133 17.9769 4.288C18.0835 3.90933 18.1929 3.53333 18.3049 3.16C18.4169 2.78667 18.5422 2.41333 18.6809 2.04C18.7075 1.96533 18.7315 1.88533 18.7529 1.8C18.7742 1.71467 18.7742 1.62933 18.7529 1.544C18.7369 1.45867 18.6942 1.376 18.6249 1.296C18.5555 1.21067 18.4435 1.136 18.2889 1.072C18.1395 1.008 18.0089 0.976 17.8969 0.976C17.7849 0.976 17.6889 0.997333 17.6089 1.04C17.5289 1.07733 17.4622 1.13067 17.4089 1.2C17.3609 1.264 17.3209 1.33333 17.2889 1.408C17.2035 1.61067 17.1182 1.87733 17.0329 2.208C16.9529 2.53867 16.8782 2.88533 16.8089 3.248C16.7395 3.61067 16.6809 3.968 16.6329 4.32C16.5902 4.66667 16.5609 4.96533 16.5449 5.216C16.5395 5.296 16.5315 5.296 16.5209 5.216C16.4942 5.024 16.4675 4.81867 16.4409 4.6C16.4142 4.38133 16.3849 4.15733 16.3529 3.928C16.3209 3.69867 16.2835 3.46667 16.2409 3.232C16.2035 2.99733 16.1609 2.77067 16.1129 2.552L16.1929 2.296C16.2249 2.21067 16.2542 2.12533 16.2809 2.04C16.3075 1.96533 16.3289 1.88533 16.3449 1.8C16.3662 1.71467 16.3662 1.62933 16.3449 1.544C16.3289 1.45867 16.2862 1.376 16.2169 1.296C16.1529 1.21067 16.0435 1.136 15.8889 1.072C15.7395 1.008 15.6115 0.976 15.5049 0.976C15.4035 0.970667 15.3155 0.989333 15.2409 1.032C15.1715 1.06933 15.1155 1.12267 15.0729 1.192C15.0302 1.26133 14.9955 1.33333 14.9689 1.408C14.8675 1.712 14.7822 2.02133 14.7129 2.336C14.6435 2.65067 14.5822 2.968 14.5289 3.288C14.4755 3.608 14.4249 3.93067 14.3769 4.256C14.3342 4.576 14.2889 4.896 14.2409 5.216C14.2249 5.28533 14.2142 5.28533 14.2089 5.216C14.1982 5.06667 14.1795 4.88533 14.1529 4.672C14.1315 4.45867 14.1022 4.22933 14.0649 3.984C14.0329 3.73333 13.9955 3.48 13.9529 3.224C13.9102 2.96267 13.8649 2.71467 13.8169 2.48C13.7742 2.24533 13.7289 2.03467 13.6809 1.848C13.6382 1.66133 13.5929 1.51467 13.5449 1.408C13.5129 1.33333 13.4702 1.264 13.4169 1.2C13.3689 1.13067 13.3049 1.07733 13.2249 1.04C13.1449 0.997333 13.0489 0.976 12.9369 0.976C12.8249 0.976 12.6942 1.008 12.5449 1.072C12.3955 1.136 12.2809 1.21067 12.2009 1.296C12.1209 1.376 12.0675 1.46133 12.0409 1.552C12.0142 1.63733 12.0062 1.72267 12.0169 1.808C12.0275 1.888 12.0462 1.96533 12.0729 2.04C12.2115 2.41333 12.3315 2.78667 12.4329 3.16C12.5395 3.528 12.6382 3.90133 12.7289 4.28C12.8249 4.65333 12.9209 5.032 13.0169 5.416C13.1182 5.79467 13.2355 6.18133 13.3689 6.576C13.4115 6.69867 13.5075 6.8 13.6569 6.88C13.8062 6.96 13.9929 7 14.2169 7C14.4409 7 14.6035 6.96 14.7049 6.88C14.8115 6.8 14.8782 6.69867 14.9049 6.576C14.9742 6.304 15.0435 6.03467 15.1129 5.768ZM20.6302 6.04C20.6836 5.88533 20.7289 5.73867 20.7663 5.6C20.7929 5.49867 20.8569 5.44267 20.9583 5.432C21.0063 5.42667 21.0569 5.424 21.1103 5.424C21.1689 5.41867 21.2329 5.416 21.3022 5.416H21.6222H21.7822C21.8356 5.416 21.8862 5.41867 21.9342 5.424C22.0356 5.43467 22.0996 5.49067 22.1262 5.592C22.1636 5.73067 22.2062 5.87733 22.2542 6.032C22.3076 6.18667 22.3769 6.36533 22.4622 6.568C22.5049 6.67467 22.5716 6.77333 22.6623 6.864C22.7582 6.95467 22.8889 7 23.0542 7C23.1663 7 23.3022 6.968 23.4622 6.904C23.6169 6.84 23.7316 6.768 23.8062 6.688C23.8862 6.60267 23.9396 6.51733 23.9662 6.432C23.9982 6.34133 24.0089 6.25333 23.9982 6.168C23.9876 6.08267 23.9662 6.00533 23.9342 5.936C23.6143 5.18933 23.3263 4.44267 23.0702 3.696C22.8196 2.94933 22.5609 2.184 22.2943 1.4C22.2516 1.27733 22.1556 1.176 22.0063 1.096C21.8569 1.016 21.6702 0.976 21.4462 0.976C21.2222 0.976 21.0356 1.016 20.8862 1.096C20.7369 1.176 20.6409 1.27733 20.5982 1.4C20.3369 2.184 20.0782 2.94933 19.8223 3.696C19.5662 4.44267 19.2782 5.18933 18.9583 5.936C18.9263 6.00533 18.9049 6.08267 18.8942 6.168C18.8836 6.25333 18.8916 6.34133 18.9182 6.432C18.9502 6.51733 19.0063 6.60267 19.0863 6.688C19.1663 6.768 19.2809 6.84 19.4303 6.904C19.5903 6.968 19.7262 7 19.8382 7C20.0036 7 20.1316 6.95467 20.2222 6.864C20.3182 6.77333 20.3876 6.67467 20.4303 6.568C20.5156 6.36533 20.5823 6.18933 20.6302 6.04ZM21.3263 3.048C21.3529 2.936 21.3769 2.84267 21.3983 2.768C21.4089 2.72533 21.4249 2.704 21.4462 2.704C21.4676 2.704 21.4836 2.72533 21.4942 2.768C21.5156 2.84267 21.5396 2.93867 21.5662 3.056C21.5929 3.168 21.6196 3.288 21.6462 3.416C21.6729 3.544 21.6996 3.67467 21.7262 3.808C21.7529 3.94133 21.7769 4.06933 21.7983 4.192C21.8142 4.29333 21.7743 4.344 21.6782 4.344H21.6222H21.3022H21.2143C21.1182 4.344 21.0782 4.29067 21.0942 4.184C21.1209 4.06133 21.1449 3.93333 21.1663 3.8C21.1929 3.66667 21.2196 3.536 21.2463 3.408C21.2729 3.28 21.2996 3.16 21.3263 3.048ZM25.2663 3.896C25.3996 4.088 25.5276 4.29333 25.6503 4.512C25.6716 4.54933 25.6876 4.592 25.6983 4.64C25.709 4.68267 25.7116 4.72533 25.7063 4.768C25.6796 5.024 25.6503 5.27733 25.6183 5.528C25.5863 5.77867 25.5703 6.04533 25.5703 6.328C25.5703 6.40267 25.581 6.48 25.6023 6.56C25.6236 6.63467 25.6636 6.70667 25.7223 6.776C25.781 6.84 25.861 6.89333 25.9623 6.936C26.069 6.97867 26.205 7 26.3703 7C26.5303 7 26.661 6.98133 26.7623 6.944C26.869 6.90133 26.9516 6.848 27.0103 6.784C27.0743 6.72 27.117 6.65067 27.1383 6.576C27.1596 6.496 27.1703 6.41867 27.1703 6.344C27.1703 6.04 27.1543 5.76533 27.1223 5.52C27.0956 5.27467 27.069 5.032 27.0423 4.792C27.037 4.74933 27.037 4.70667 27.0423 4.664C27.053 4.616 27.069 4.57333 27.0903 4.536C27.2183 4.312 27.3463 4.104 27.4743 3.912C27.6076 3.71467 27.7436 3.52 27.8823 3.328C28.021 3.13067 28.165 2.928 28.3143 2.72C28.4636 2.50667 28.621 2.27467 28.7863 2.024C28.829 1.96 28.8556 1.88533 28.8663 1.8C28.8823 1.71467 28.8743 1.62933 28.8423 1.544C28.8103 1.45333 28.7516 1.36533 28.6663 1.28C28.5863 1.19467 28.469 1.12 28.3143 1.056C28.165 0.992 28.0343 0.96 27.9223 0.96C27.8103 0.96 27.7143 0.981333 27.6343 1.024C27.5543 1.06133 27.4876 1.11467 27.4343 1.184C27.3863 1.248 27.3463 1.31733 27.3143 1.392C27.2023 1.65333 27.109 1.87733 27.0343 2.064C26.9596 2.24533 26.8903 2.41067 26.8263 2.56C26.7676 2.704 26.709 2.84 26.6503 2.968C26.5916 3.096 26.5223 3.23733 26.4423 3.392C26.3996 3.46667 26.357 3.46667 26.3143 3.392C26.2343 3.23733 26.165 3.096 26.1063 2.968C26.0476 2.84 25.9863 2.704 25.9223 2.56C25.8636 2.41067 25.797 2.24533 25.7223 2.064C25.6476 1.87733 25.5543 1.65333 25.4423 1.392C25.4103 1.31733 25.3676 1.248 25.3143 1.184C25.2663 1.11467 25.2023 1.06133 25.1223 1.024C25.0423 0.981333 24.9463 0.96 24.8343 0.96C24.7223 0.96 24.5916 0.992 24.4423 1.056C24.293 1.12 24.1756 1.19467 24.0903 1.28C24.005 1.36533 23.9463 1.45333 23.9143 1.544C23.8823 1.62933 23.8716 1.71467 23.8823 1.8C23.8983 1.88533 23.9276 1.96 23.9703 2.024C24.1356 2.27467 24.293 2.504 24.4423 2.712C24.5916 2.92 24.733 3.12267 24.8663 3.32C25.005 3.512 25.1383 3.704 25.2663 3.896ZM31.2301 2.592C31.1821 2.528 31.1581 2.45067 31.1581 2.36C31.1581 2.28 31.1927 2.208 31.2621 2.144C31.3314 2.08 31.4727 2.048 31.6861 2.048C31.8141 2.048 31.9314 2.064 32.0381 2.096C32.1447 2.12267 32.2434 2.16 32.3341 2.208C32.4301 2.256 32.5181 2.30933 32.5981 2.368C32.6781 2.42133 32.7554 2.472 32.8301 2.52C32.9261 2.584 33.0221 2.61333 33.1181 2.608C33.2194 2.60267 33.3101 2.57333 33.3901 2.52C33.4701 2.46133 33.5341 2.38933 33.5821 2.304C33.6354 2.21333 33.6621 2.11733 33.6621 2.016C33.6674 1.90933 33.6434 1.80533 33.5901 1.704C33.5367 1.59733 33.4461 1.504 33.3181 1.424C33.2221 1.36 33.1207 1.29867 33.0141 1.24C32.9127 1.18133 32.8007 1.128 32.6781 1.08C32.5554 1.032 32.4194 0.994667 32.2701 0.968C32.1261 0.936 31.9581 0.92 31.7661 0.92C31.5101 0.92 31.2647 0.952 31.0301 1.016C30.7954 1.08 30.5901 1.176 30.4141 1.304C30.2381 1.42667 30.0967 1.584 29.9901 1.776C29.8887 1.968 29.8381 2.192 29.8381 2.448C29.8381 2.704 29.8781 2.928 29.9581 3.12C30.0381 3.30667 30.1527 3.47733 30.3021 3.632C30.4514 3.78133 30.6301 3.92 30.8381 4.048C31.0514 4.176 31.2861 4.30667 31.5421 4.44C31.7874 4.568 31.9954 4.69867 32.1661 4.832C32.3367 4.96533 32.4221 5.11733 32.4221 5.288C32.4221 5.47467 32.3607 5.6 32.2381 5.664C32.1154 5.728 31.9474 5.76 31.7341 5.76C31.6487 5.76 31.5634 5.74667 31.4781 5.72C31.3927 5.688 31.3101 5.65067 31.2301 5.608C31.1554 5.56533 31.0834 5.51733 31.0141 5.464C30.9501 5.40533 30.8967 5.34933 30.8541 5.296C30.7634 5.184 30.6567 5.10933 30.5341 5.072C30.4167 5.03467 30.2994 5.02933 30.1821 5.056C30.0701 5.07733 29.9634 5.12533 29.8621 5.2C29.7661 5.27467 29.6941 5.36533 29.6461 5.472C29.6034 5.57867 29.5901 5.69867 29.6061 5.832C29.6274 5.96 29.6941 6.09067 29.8061 6.224C29.9074 6.34133 30.0274 6.45333 30.1661 6.56C30.3047 6.66133 30.4567 6.752 30.6221 6.832C30.7874 6.90667 30.9634 6.96533 31.1501 7.008C31.3421 7.056 31.5367 7.08 31.7341 7.08C32.1127 7.08 32.4327 7.04 32.6941 6.96C32.9607 6.87467 33.1767 6.752 33.3421 6.592C33.5074 6.432 33.6274 6.23467 33.7021 6C33.7821 5.76533 33.8221 5.49867 33.8221 5.2C33.8221 4.912 33.7714 4.66133 33.6701 4.448C33.5687 4.22933 33.4381 4.04 33.2781 3.88C33.1181 3.72 32.9394 3.58133 32.7421 3.464C32.5501 3.34667 32.3581 3.24 32.1661 3.144C32.0167 3.06933 31.8807 3.00267 31.7581 2.944C31.6354 2.88533 31.5287 2.82933 31.4381 2.776C31.3527 2.71733 31.2834 2.656 31.2301 2.592ZM23.4341 11.832C23.3274 12.2 23.2741 12.5893 23.2741 13C23.2741 13.48 23.3221 13.912 23.4181 14.296C23.5194 14.6747 23.6741 14.9973 23.8821 15.264C24.0901 15.5253 24.3514 15.728 24.6661 15.872C24.9861 16.0107 25.3647 16.08 25.8021 16.08C26.2341 16.08 26.6074 16.0107 26.9221 15.872C27.2421 15.728 27.5061 15.5253 27.7141 15.264C27.9221 14.9973 28.0741 14.6747 28.1701 14.296C28.2714 13.912 28.3221 13.48 28.3221 13C28.3221 12.5893 28.2661 12.2 28.1541 11.832C28.0474 11.4587 27.8874 11.1307 27.6741 10.848C27.4607 10.5653 27.1967 10.3413 26.8821 10.176C26.5727 10.0053 26.2127 9.92 25.8021 9.92C25.3861 9.92 25.0207 10.0053 24.7061 10.176C24.3914 10.3413 24.1274 10.5653 23.9141 10.848C23.7007 11.1307 23.5407 11.4587 23.4341 11.832ZM24.7301 13.736C24.6927 13.512 24.6741 13.264 24.6741 12.992C24.6741 12.72 24.6901 12.4667 24.7221 12.232C24.7541 11.9973 24.8127 11.792 24.8981 11.616C24.9834 11.44 25.0981 11.3013 25.2421 11.2C25.3914 11.0987 25.5781 11.048 25.8021 11.048C26.0261 11.048 26.2101 11.0987 26.3541 11.2C26.5034 11.3013 26.6207 11.44 26.7061 11.616C26.7914 11.792 26.8501 11.9973 26.8821 12.232C26.9141 12.4667 26.9301 12.72 26.9301 12.992C26.9301 13.264 26.9087 13.512 26.8661 13.736C26.8287 13.9547 26.7647 14.1413 26.6741 14.296C26.5834 14.4507 26.4661 14.5707 26.3221 14.656C26.1834 14.7413 26.0101 14.784 25.8021 14.784C25.5941 14.784 25.4181 14.7413 25.2741 14.656C25.1354 14.5707 25.0207 14.4507 24.9301 14.296C24.8394 14.1413 24.7727 13.9547 24.7301 13.736ZM32.3053 15.552C32.3106 15.6 32.3319 15.6507 32.3693 15.704C32.4279 15.7947 32.4999 15.8667 32.5853 15.92C32.6706 15.9733 32.7586 16 32.8493 16H33.1213C33.2653 15.9947 33.3799 15.9707 33.4652 15.928C33.5559 15.8853 33.6253 15.832 33.6732 15.768C33.7266 15.704 33.7612 15.6347 33.7773 15.56C33.7933 15.4853 33.8013 15.4133 33.8013 15.344C33.8013 15.136 33.7933 14.9413 33.7773 14.76C33.7612 14.5787 33.7426 14.4053 33.7212 14.24C33.6999 14.0693 33.6813 13.904 33.6652 13.744C33.6493 13.5787 33.6413 13.4107 33.6413 13.24V12.76C33.6413 12.5893 33.6493 12.424 33.6652 12.264C33.6813 12.0987 33.6999 11.9333 33.7212 11.768C33.7426 11.5973 33.7612 11.4213 33.7773 11.24C33.7933 11.0587 33.8013 10.864 33.8013 10.656C33.8013 10.5813 33.7906 10.5067 33.7692 10.432C33.7533 10.352 33.7186 10.28 33.6652 10.216C33.6119 10.152 33.5346 10.1013 33.4333 10.064C33.3319 10.0213 33.2012 10 33.0413 10C32.8759 10 32.7399 10.0213 32.6333 10.064C32.5266 10.1067 32.4412 10.1627 32.3773 10.232C32.3133 10.296 32.2679 10.368 32.2412 10.448C32.2146 10.5227 32.2012 10.5973 32.2012 10.672C32.2012 10.8587 32.2119 11.04 32.2332 11.216C32.2599 11.392 32.2892 11.568 32.3213 11.744C32.3532 11.9147 32.3799 12.0853 32.4012 12.256C32.4279 12.4213 32.4412 12.5893 32.4412 12.76V12.928C32.4412 12.976 32.4333 13.0027 32.4173 13.008C32.4066 13.008 32.3906 12.9867 32.3693 12.944L31.0732 10.304C31.0306 10.2133 30.9639 10.1413 30.8733 10.088C30.7826 10.0293 30.6839 10 30.5772 10H30.2412C30.0759 10 29.9426 10.0213 29.8412 10.064C29.7453 10.1067 29.6706 10.1627 29.6173 10.232C29.5639 10.296 29.5266 10.368 29.5053 10.448C29.4893 10.5227 29.4813 10.5973 29.4813 10.672C29.4813 10.8587 29.4893 11.04 29.5053 11.216C29.5212 11.392 29.5399 11.568 29.5613 11.744C29.5826 11.9147 29.6012 12.0853 29.6173 12.256C29.6332 12.4213 29.6413 12.5893 29.6413 12.76V13.24C29.6413 13.4107 29.6332 13.5813 29.6173 13.752C29.6012 13.9173 29.5826 14.088 29.5613 14.264C29.5399 14.4347 29.5212 14.608 29.5053 14.784C29.4893 14.96 29.4813 15.1413 29.4813 15.328C29.4813 15.4027 29.4893 15.48 29.5053 15.56C29.5266 15.6347 29.5639 15.7067 29.6173 15.776C29.6706 15.84 29.7453 15.8933 29.8412 15.936C29.9426 15.9787 30.0759 16 30.2412 16C30.4013 16 30.5346 15.9813 30.6413 15.944C30.7533 15.9013 30.8412 15.848 30.9053 15.784C30.9692 15.72 31.0146 15.6507 31.0413 15.576C31.0679 15.496 31.0812 15.4187 31.0812 15.344C31.0812 15.136 31.0679 14.9307 31.0413 14.728C31.0199 14.52 30.9932 14.3173 30.9613 14.12C30.9293 13.9227 30.8999 13.7307 30.8733 13.544C30.8519 13.352 30.8412 13.1707 30.8412 13V12.76V12.656C30.8412 12.608 30.8466 12.584 30.8573 12.584C30.8733 12.5787 30.8919 12.5973 30.9132 12.64L32.3053 15.552Z" fill="black"/>
</svg>
