<svg width="111" height="68" viewBox="0 0 111 68" fill="none" xmlns="http://www.w3.org/2000/svg">
<path d="M45.2528 10.2C45.1781 10.4773 45.0875 10.7707 44.9808 11.08C44.8848 11.3787 44.7515 11.7307 44.5808 12.136C44.4955 12.3493 44.3568 12.5467 44.1648 12.728C43.9835 12.9093 43.7275 13 43.3968 13C43.1728 13 42.9008 12.936 42.5808 12.808C42.2821 12.68 42.0528 12.536 41.8928 12.376C41.7328 12.2053 41.6208 12.0347 41.5568 11.864C41.5035 11.6827 41.4875 11.5067 41.5088 11.336C41.5301 11.1653 41.5728 11.0107 41.6368 10.872C42.2768 9.37867 42.8528 7.88533 43.3648 6.392C43.8768 4.89867 44.3941 3.368 44.9168 1.8C45.0021 1.55467 45.1941 1.352 45.4928 1.192C45.7915 1.032 46.1648 0.952 46.6128 0.952C47.0608 0.952 47.4341 1.032 47.7328 1.192C48.0315 1.352 48.2235 1.55467 48.3088 1.8C48.8421 3.368 49.3595 4.89867 49.8608 6.392C50.3728 7.88533 50.9488 9.37867 51.5888 10.872C51.6528 11.0107 51.6955 11.1653 51.7168 11.336C51.7381 11.5067 51.7168 11.6827 51.6528 11.864C51.5995 12.0347 51.4928 12.2053 51.3328 12.376C51.1835 12.536 50.9541 12.68 50.6448 12.808C50.3248 12.936 50.0528 13 49.8288 13C49.4981 13 49.2368 12.9093 49.0448 12.728C48.8635 12.5467 48.7301 12.3493 48.6448 12.136C48.4741 11.7307 48.3355 11.3733 48.2288 11.064C48.1328 10.7547 48.0475 10.4613 47.9728 10.184C47.9195 9.98133 47.7915 9.86933 47.5888 9.848C47.4928 9.83733 47.3915 9.832 47.2848 9.832C47.1888 9.832 47.0821 9.832 46.9648 9.832H46.3248C46.1861 9.832 46.0581 9.83733 45.9408 9.848C45.8341 9.848 45.7328 9.85333 45.6368 9.864C45.4341 9.88533 45.3061 9.99733 45.2528 10.2ZM46.5168 4.536C46.4741 4.68533 46.4261 4.872 46.3728 5.096C46.3195 5.32 46.2661 5.56 46.2128 5.816C46.1595 6.072 46.1061 6.33333 46.0528 6.6C46.0101 6.86667 45.9621 7.12267 45.9088 7.368C45.8768 7.58133 45.9568 7.688 46.1488 7.688H46.3248H46.9648H47.0768C47.2688 7.688 47.3488 7.58667 47.3168 7.384C47.2741 7.13867 47.2261 6.88267 47.1728 6.616C47.1195 6.34933 47.0661 6.088 47.0128 5.832C46.9595 5.576 46.9061 5.336 46.8528 5.112C46.7995 4.87733 46.7515 4.68533 46.7088 4.536C46.6875 4.45067 46.6555 4.408 46.6128 4.408C46.5701 4.408 46.5381 4.45067 46.5168 4.536ZM55.7513 8.024C55.7513 8.07733 55.746 8.136 55.7353 8.2C55.7353 8.264 55.7353 8.32267 55.7353 8.376V9.064C55.7353 9.55467 55.7886 10.0293 55.8953 10.488C56.002 10.936 56.0553 11.384 56.0553 11.832C56.0553 11.96 56.034 12.0933 55.9913 12.232C55.9486 12.36 55.8686 12.4827 55.7513 12.6C55.634 12.7173 55.4793 12.8133 55.2873 12.888C55.0953 12.9627 54.8446 13 54.5353 13C54.226 13 53.97 12.9627 53.7673 12.888C53.5753 12.8133 53.4206 12.7173 53.3033 12.6C53.1966 12.472 53.122 12.3387 53.0793 12.2C53.0366 12.0613 53.0153 11.928 53.0153 11.8C53.0153 11.608 53.0313 11.4053 53.0633 11.192C53.0953 10.9787 53.1326 10.7547 53.1753 10.52C53.218 10.2853 53.2553 10.0453 53.2873 9.8C53.3193 9.55467 53.3353 9.30933 53.3353 9.064V8.376C53.3353 8.13067 53.3193 7.88533 53.2873 7.64C53.2553 7.384 53.218 7.13867 53.1753 6.904C53.1326 6.66933 53.0953 6.44533 53.0633 6.232C53.0313 6.01867 53.0153 5.816 53.0153 5.624C53.0153 5.496 53.0366 5.36267 53.0793 5.224C53.122 5.08533 53.1966 4.95733 53.3033 4.84C53.4206 4.72267 53.5753 4.62667 53.7673 4.552C53.97 4.46667 54.226 4.424 54.5353 4.424C55.0686 4.424 55.442 4.53067 55.6553 4.744C55.8793 4.95733 56.0073 5.18667 56.0393 5.432C56.2526 5.144 56.5086 4.89867 56.8073 4.696C57.1166 4.48267 57.4793 4.376 57.8953 4.376C58.4286 4.376 58.818 4.47733 59.0633 4.68C59.3193 4.872 59.474 5.10667 59.5273 5.384C59.5913 5.65067 59.5753 5.92267 59.4793 6.2C59.3833 6.47733 59.2553 6.69067 59.0953 6.84C58.9566 6.968 58.7806 7.03733 58.5673 7.048C58.354 7.05867 58.13 7.02667 57.8953 6.952C57.7993 6.92 57.682 6.888 57.5433 6.856C57.4046 6.824 57.2553 6.81867 57.0953 6.84C56.9353 6.85067 56.7646 6.89333 56.5833 6.968C56.402 7.04267 56.2206 7.17067 56.0393 7.352C55.954 7.43733 55.8846 7.544 55.8313 7.672C55.7886 7.78933 55.762 7.90667 55.7513 8.024ZM64.8116 10.552C64.6089 10.808 64.4169 11.064 64.2356 11.32C64.0649 11.5653 63.8729 11.8 63.6596 12.024C63.5956 12.0987 63.5156 12.1947 63.4196 12.312C63.3236 12.4187 63.2169 12.5253 63.0996 12.632C62.9929 12.728 62.8702 12.8133 62.7316 12.888C62.6036 12.952 62.4649 12.984 62.3156 12.984C62.1662 12.984 62.0116 12.9467 61.8516 12.872C61.7022 12.7867 61.5369 12.648 61.3556 12.456C61.0996 12.168 60.9502 11.9067 60.9076 11.672C60.8649 11.4373 60.8756 11.224 60.9396 11.032C61.0142 10.84 61.1209 10.6693 61.2596 10.52C61.3982 10.3707 61.5209 10.2373 61.6276 10.12C61.8729 9.864 62.1076 9.62933 62.3316 9.416C62.5556 9.20267 62.7902 8.984 63.0356 8.76C63.2276 8.57867 63.2276 8.40267 63.0356 8.232C62.7262 7.95467 62.4276 7.688 62.1396 7.432C61.8622 7.16533 61.6169 6.91467 61.4036 6.68C61.3076 6.57333 61.2276 6.456 61.1636 6.328C61.1102 6.2 61.0836 6.06133 61.0836 5.912C61.0836 5.752 61.1209 5.58667 61.1956 5.416C61.2809 5.24533 61.4196 5.05867 61.6116 4.856C61.9422 4.51467 62.2729 4.344 62.6036 4.344C62.8809 4.344 63.1796 4.472 63.4996 4.728C63.7236 4.90933 63.9529 5.16533 64.1876 5.496C64.4329 5.82667 64.6889 6.16267 64.9556 6.504C65.0196 6.6 65.0996 6.648 65.1956 6.648C65.2916 6.648 65.3769 6.6 65.4516 6.504C65.6756 6.22667 65.8942 5.95467 66.1076 5.688C66.3316 5.42133 66.5822 5.16533 66.8596 4.92C66.9876 4.80267 67.1369 4.70133 67.3076 4.616C67.4889 4.52 67.6756 4.472 67.8676 4.472C68.0382 4.472 68.2036 4.51467 68.3636 4.6C68.5236 4.68533 68.6782 4.83467 68.8276 5.048C69.0196 5.32533 69.1422 5.56533 69.1956 5.768C69.2596 5.97067 69.2702 6.152 69.2276 6.312C69.1956 6.472 69.1262 6.62133 69.0196 6.76C68.9129 6.888 68.7902 7.016 68.6516 7.144C68.4382 7.34667 68.2142 7.544 67.9796 7.736C67.7556 7.928 67.5156 8.13067 67.2596 8.344C67.0676 8.504 67.0676 8.664 67.2596 8.824C67.5369 9.048 67.8089 9.272 68.0756 9.496C68.3422 9.70933 68.5822 9.93867 68.7956 10.184C68.8916 10.3013 69.0036 10.4453 69.1316 10.616C69.2596 10.7867 69.3502 10.9787 69.4036 11.192C69.4569 11.3947 69.4516 11.6133 69.3876 11.848C69.3236 12.0827 69.1476 12.3227 68.8596 12.568C68.6782 12.728 68.5022 12.8453 68.3316 12.92C68.1716 12.984 68.0169 13.016 67.8676 13.016C67.7182 13.016 67.5796 12.9893 67.4516 12.936C67.3236 12.8827 67.2062 12.8187 67.0996 12.744C67.0036 12.6587 66.9129 12.5733 66.8276 12.488C66.7422 12.392 66.6676 12.3067 66.6036 12.232C66.3902 11.9973 66.1769 11.736 65.9636 11.448C65.7609 11.16 65.5369 10.8613 65.2916 10.552C65.2276 10.456 65.1476 10.408 65.0516 10.408C64.9769 10.408 64.8969 10.456 64.8116 10.552ZM3.79 27.48C3.83267 27.8213 3.87 28.1733 3.902 28.536C3.934 28.888 3.95 29.272 3.95 29.688C3.95 29.8373 3.92867 29.992 3.886 30.152C3.84333 30.3013 3.758 30.44 3.63 30.568C3.51267 30.696 3.34733 30.8027 3.134 30.888C2.93133 30.9627 2.67 31 2.35 31C2.01933 31 1.74733 30.9573 1.534 30.872C1.33133 30.7867 1.17133 30.68 1.054 30.552C0.936665 30.4133 0.856665 30.2693 0.813998 30.12C0.771332 29.96 0.749998 29.8053 0.749998 29.656C0.749998 29.2827 0.765998 28.92 0.797998 28.568C0.829998 28.216 0.867332 27.8693 0.909998 27.528C0.952665 27.176 0.989998 26.8347 1.022 26.504C1.054 26.1627 1.07 25.8213 1.07 25.48V24.52C1.07 24.1787 1.054 23.8427 1.022 23.512C0.989998 23.1707 0.952665 22.8293 0.909998 22.488C0.867332 22.136 0.829998 21.784 0.797998 21.432C0.765998 21.08 0.749998 20.7173 0.749998 20.344C0.749998 20.1947 0.771332 20.0453 0.813998 19.896C0.856665 19.736 0.936665 19.592 1.054 19.464C1.182 19.3253 1.34733 19.2133 1.55 19.128C1.76333 19.0427 2.03533 19 2.366 19H4.446C6.08867 19 7.33667 19.3467 8.19 20.04C9.054 20.7333 9.486 21.7467 9.486 23.08C9.486 23.72 9.35267 24.296 9.086 24.808C8.83 25.32 8.47267 25.752 8.014 26.104C7.566 26.456 7.03267 26.728 6.414 26.92C5.806 27.112 5.15 27.208 4.446 27.208H4.03C3.84867 27.208 3.76867 27.2987 3.79 27.48ZM4.446 25C4.862 25 5.20867 24.9413 5.486 24.824C5.774 24.7067 6.00867 24.5573 6.19 24.376C6.37133 24.184 6.49933 23.976 6.574 23.752C6.65933 23.5173 6.702 23.288 6.702 23.064C6.702 22.84 6.67 22.6213 6.606 22.408C6.542 22.1947 6.42467 22.0027 6.254 21.832C6.08333 21.6613 5.84867 21.5227 5.55 21.416C5.262 21.3093 4.894 21.256 4.446 21.256H4.19C4.01933 21.256 3.92333 21.3467 3.902 21.528C3.84867 22.072 3.79 22.5787 3.726 23.048C3.662 23.5173 3.63 24.008 3.63 24.52V24.728C3.63 24.9093 3.72067 25 3.902 25H4.446ZM11.3071 26.376C11.3071 26.1307 11.2911 25.8853 11.2591 25.64C11.2271 25.384 11.1898 25.1387 11.1471 24.904C11.1045 24.6693 11.0671 24.4453 11.0351 24.232C11.0031 24.0187 10.9871 23.816 10.9871 23.624C10.9871 23.496 11.0085 23.3627 11.0511 23.224C11.0938 23.0853 11.1685 22.9573 11.2751 22.84C11.3925 22.7227 11.5471 22.6267 11.7391 22.552C11.9418 22.4667 12.1978 22.424 12.5071 22.424C12.8165 22.424 13.0671 22.4613 13.2591 22.536C13.4511 22.6107 13.6058 22.7067 13.7231 22.824C13.8405 22.9413 13.9205 23.0693 13.9631 23.208C14.0058 23.3467 14.0271 23.48 14.0271 23.608C14.0271 24.0453 13.9738 24.4933 13.8671 24.952C13.7605 25.4 13.7071 25.8747 13.7071 26.376V27.064C13.7071 27.5547 13.7605 28.0293 13.8671 28.488C13.9738 28.936 14.0271 29.384 14.0271 29.832C14.0271 29.96 14.0058 30.0933 13.9631 30.232C13.9205 30.36 13.8405 30.4827 13.7231 30.6C13.6058 30.7173 13.4511 30.8133 13.2591 30.888C13.0671 30.9627 12.8165 31 12.5071 31C12.1978 31 11.9418 30.9627 11.7391 30.888C11.5471 30.8133 11.3925 30.7173 11.2751 30.6C11.1685 30.472 11.0938 30.3387 11.0511 30.2C11.0085 30.0613 10.9871 29.928 10.9871 29.8C10.9871 29.608 11.0031 29.4053 11.0351 29.192C11.0671 28.9787 11.1045 28.7547 11.1471 28.52C11.1898 28.2853 11.2271 28.0453 11.2591 27.8C11.2911 27.5547 11.3071 27.3093 11.3071 27.064V26.376ZM10.9231 20.44C10.9231 20.1093 11.0618 19.8373 11.3391 19.624C11.6271 19.4 12.0058 19.288 12.4751 19.288C12.9338 19.288 13.3018 19.4 13.5791 19.624C13.8671 19.8373 14.0111 20.1093 14.0111 20.44C14.0111 20.7813 13.8671 21.0587 13.5791 21.272C13.3018 21.4853 12.9338 21.592 12.4751 21.592C12.0058 21.592 11.6271 21.4853 11.3391 21.272C11.0618 21.0587 10.9231 20.7813 10.9231 20.44ZM18.8811 28.328C18.7958 28.3493 18.7478 28.3813 18.7371 28.424C18.7371 28.4667 18.7745 28.5093 18.8491 28.552C19.1265 28.712 19.4838 28.792 19.9211 28.792C20.3265 28.792 20.6625 28.7067 20.9291 28.536C21.1958 28.3653 21.4785 28.152 21.7771 27.896C21.9905 27.7147 22.2305 27.624 22.4971 27.624C22.7425 27.624 22.9665 27.6987 23.1691 27.848C23.3825 27.9973 23.5478 28.184 23.6651 28.408C23.7931 28.632 23.8518 28.872 23.8411 29.128C23.8411 29.384 23.7451 29.624 23.5531 29.848C23.3825 30.04 23.1531 30.2213 22.8651 30.392C22.5878 30.552 22.2785 30.6907 21.9371 30.808C21.6065 30.9147 21.2651 31 20.9131 31.064C20.5611 31.128 20.2251 31.16 19.9051 31.16C19.2651 31.16 18.6731 31.08 18.1291 30.92C17.5851 30.76 17.1105 30.5093 16.7051 30.168C16.3105 29.816 15.9958 29.3733 15.7611 28.84C15.5371 28.296 15.4251 27.6453 15.4251 26.888C15.4251 26.2053 15.5478 25.5867 15.7931 25.032C16.0491 24.4667 16.3905 23.9813 16.8171 23.576C17.2545 23.1707 17.7665 22.856 18.3531 22.632C18.9398 22.408 19.5638 22.296 20.2251 22.296C20.7478 22.296 21.2118 22.3813 21.6171 22.552C22.0225 22.712 22.3531 22.9253 22.6091 23.192C22.8758 23.4587 23.0625 23.7627 23.1691 24.104C23.2865 24.4453 23.3131 24.7973 23.2491 25.16C23.1958 25.512 23.0465 25.8587 22.8011 26.2C22.5665 26.5413 22.2251 26.8453 21.7771 27.112C21.3398 27.3787 20.8758 27.6133 20.3851 27.816C19.8945 28.0187 19.3931 28.1893 18.8811 28.328ZM18.0011 26.296C17.9798 26.4773 18.0545 26.5413 18.2251 26.488C18.5131 26.392 18.8171 26.28 19.1371 26.152C19.4678 26.024 19.8198 25.8693 20.1931 25.688C20.3638 25.6027 20.4811 25.4907 20.5451 25.352C20.6198 25.2133 20.6465 25.0747 20.6251 24.936C20.6145 24.7973 20.5611 24.68 20.4651 24.584C20.3691 24.4773 20.2411 24.424 20.0811 24.424C19.5051 24.424 19.0358 24.5893 18.6731 24.92C18.3105 25.2507 18.0865 25.7093 18.0011 26.296ZM28.6339 24.568C28.2712 24.568 27.9192 24.6053 27.5779 24.68C27.2472 24.7547 26.9059 24.792 26.5539 24.792C26.4045 24.792 26.2605 24.776 26.1219 24.744C25.9832 24.712 25.8552 24.6533 25.7379 24.568C25.6312 24.4827 25.5405 24.3653 25.4659 24.216C25.4019 24.056 25.3699 23.8533 25.3699 23.608C25.3699 23.3627 25.4019 23.1653 25.4659 23.016C25.5299 22.856 25.6152 22.7333 25.7219 22.648C25.8285 22.5627 25.9512 22.504 26.0899 22.472C26.2285 22.44 26.3725 22.424 26.5219 22.424C26.7352 22.424 26.9325 22.4347 27.1139 22.456C27.2952 22.4773 27.4659 22.504 27.6259 22.536C27.7965 22.568 27.9619 22.5947 28.1219 22.616C28.2925 22.6373 28.4685 22.648 28.6499 22.648H29.4499C29.6312 22.648 29.8019 22.6373 29.9619 22.616C30.1325 22.5947 30.2979 22.568 30.4579 22.536C30.6285 22.504 30.8045 22.4773 30.9859 22.456C31.1672 22.4347 31.3645 22.424 31.5779 22.424C31.7272 22.424 31.8605 22.44 31.9779 22.472C32.1059 22.504 32.2125 22.5627 32.2979 22.648C32.3939 22.7333 32.4632 22.856 32.5059 23.016C32.5485 23.1653 32.5699 23.3627 32.5699 23.608C32.5699 23.9173 32.5325 24.152 32.4579 24.312C32.3832 24.504 32.2712 24.6907 32.1219 24.872C31.8339 25.224 31.5192 25.544 31.1779 25.832C30.8472 26.12 30.5272 26.4507 30.2179 26.824L29.3059 27.944C29.2205 28.0507 29.1512 28.1413 29.0979 28.216C28.9379 28.4293 28.9912 28.536 29.2579 28.536H29.4499C29.6312 28.536 29.8019 28.5253 29.9619 28.504C30.1325 28.4827 30.2979 28.456 30.4579 28.424C30.6285 28.392 30.8045 28.3653 30.9859 28.344C31.1672 28.3227 31.3645 28.312 31.5779 28.312C31.7272 28.312 31.8712 28.3387 32.0099 28.392C32.1485 28.4347 32.2712 28.5093 32.3779 28.616C32.4845 28.7227 32.5699 28.8613 32.6339 29.032C32.6979 29.2027 32.7299 29.4107 32.7299 29.656C32.7192 30.1573 32.5912 30.5093 32.3459 30.712C32.1112 30.904 31.8445 31 31.5459 31C31.1939 31 30.8472 30.9627 30.5059 30.888C30.1752 30.8133 29.8232 30.776 29.4499 30.776H28.3299C27.9565 30.776 27.5992 30.8133 27.2579 30.888C26.9272 30.9627 26.5859 31 26.2339 31C25.9352 31 25.6899 30.904 25.4979 30.712C25.3165 30.5093 25.2205 30.1573 25.2099 29.656C25.1992 29.3573 25.2312 29.112 25.3059 28.92C25.3805 28.728 25.4819 28.584 25.6099 28.488C25.6205 28.4667 25.6419 28.44 25.6739 28.408C25.8445 28.1947 26.0099 28.008 26.1699 27.848C26.3405 27.688 26.5005 27.5333 26.6499 27.384C26.8099 27.2347 26.9645 27.0853 27.1139 26.936C27.2739 26.7867 27.4285 26.6213 27.5779 26.44L28.4899 25.32C28.5432 25.2453 28.5965 25.176 28.6499 25.112C28.7032 25.0373 28.7565 24.9627 28.8099 24.888C28.9485 24.6747 28.8899 24.568 28.6339 24.568ZM34.0876 26.888C34.0876 26.2053 34.1996 25.5867 34.4236 25.032C34.6476 24.4667 34.9623 23.9813 35.3676 23.576C35.773 23.1707 36.253 22.856 36.8076 22.632C37.373 22.408 37.9863 22.296 38.6476 22.296C39.309 22.296 39.917 22.408 40.4716 22.632C41.0263 22.856 41.5063 23.1707 41.9116 23.576C42.317 23.9813 42.6316 24.4667 42.8556 25.032C43.0796 25.5867 43.1916 26.2053 43.1916 26.888C43.1916 27.6453 43.0796 28.296 42.8556 28.84C42.6423 29.3733 42.333 29.816 41.9276 30.168C41.533 30.5093 41.053 30.76 40.4876 30.92C39.933 31.08 39.3196 31.16 38.6476 31.16C37.9756 31.16 37.357 31.08 36.7916 30.92C36.237 30.76 35.757 30.5093 35.3516 30.168C34.957 29.816 34.6476 29.3733 34.4236 28.84C34.1996 28.296 34.0876 27.6453 34.0876 26.888ZM36.6316 26.744C36.6316 27.0213 36.6583 27.2827 36.7116 27.528C36.7756 27.7733 36.8823 27.992 37.0316 28.184C37.1916 28.3653 37.3996 28.5147 37.6556 28.632C37.9223 28.7387 38.2583 28.792 38.6636 28.792C39.069 28.792 39.3996 28.7387 39.6556 28.632C39.9223 28.5147 40.1303 28.3653 40.2796 28.184C40.4396 27.992 40.5463 27.7733 40.5996 27.528C40.6636 27.2827 40.6956 27.0213 40.6956 26.744C40.6956 26.0293 40.5196 25.464 40.1676 25.048C39.8156 24.632 39.3143 24.424 38.6636 24.424C38.013 24.424 37.5116 24.632 37.1596 25.048C36.8076 25.464 36.6316 26.0293 36.6316 26.744ZM52.6525 27.48C52.6952 27.8213 52.7325 28.1733 52.7645 28.536C52.7965 28.888 52.8125 29.272 52.8125 29.688C52.8125 29.8373 52.7912 29.992 52.7485 30.152C52.7058 30.3013 52.6205 30.44 52.4925 30.568C52.3752 30.696 52.2098 30.8027 51.9965 30.888C51.7938 30.9627 51.5325 31 51.2125 31C50.8818 31 50.6098 30.9573 50.3965 30.872C50.1938 30.7867 50.0338 30.68 49.9165 30.552C49.7992 30.4133 49.7192 30.2693 49.6765 30.12C49.6338 29.96 49.6125 29.8053 49.6125 29.656C49.6125 29.2827 49.6285 28.92 49.6605 28.568C49.6925 28.216 49.7298 27.8693 49.7725 27.528C49.8152 27.176 49.8525 26.8347 49.8845 26.504C49.9165 26.1627 49.9325 25.8213 49.9325 25.48V24.52C49.9325 24.1787 49.9165 23.8427 49.8845 23.512C49.8525 23.1707 49.8152 22.8293 49.7725 22.488C49.7298 22.136 49.6925 21.784 49.6605 21.432C49.6285 21.08 49.6125 20.7173 49.6125 20.344C49.6125 20.1947 49.6338 20.0453 49.6765 19.896C49.7192 19.736 49.7992 19.592 49.9165 19.464C50.0445 19.3253 50.2098 19.2133 50.4125 19.128C50.6258 19.0427 50.8978 19 51.2285 19H53.3085C54.9512 19 56.1992 19.3467 57.0525 20.04C57.9165 20.7333 58.3485 21.7467 58.3485 23.08C58.3485 23.72 58.2152 24.296 57.9485 24.808C57.6925 25.32 57.3352 25.752 56.8765 26.104C56.4285 26.456 55.8952 26.728 55.2765 26.92C54.6685 27.112 54.0125 27.208 53.3085 27.208H52.8925C52.7112 27.208 52.6312 27.2987 52.6525 27.48ZM53.3085 25C53.7245 25 54.0712 24.9413 54.3485 24.824C54.6365 24.7067 54.8712 24.5573 55.0525 24.376C55.2338 24.184 55.3618 23.976 55.4365 23.752C55.5218 23.5173 55.5645 23.288 55.5645 23.064C55.5645 22.84 55.5325 22.6213 55.4685 22.408C55.4045 22.1947 55.2872 22.0027 55.1165 21.832C54.9458 21.6613 54.7112 21.5227 54.4125 21.416C54.1245 21.3093 53.7565 21.256 53.3085 21.256H53.0525C52.8818 21.256 52.7858 21.3467 52.7645 21.528C52.7112 22.072 52.6525 22.5787 52.5885 23.048C52.5245 23.5173 52.4925 24.008 52.4925 24.52V24.728C52.4925 24.9093 52.5832 25 52.7645 25H53.3085ZM62.5216 26.024C62.5216 26.0773 62.5163 26.136 62.5056 26.2C62.5056 26.264 62.5056 26.3227 62.5056 26.376V27.064C62.5056 27.5547 62.559 28.0293 62.6656 28.488C62.7723 28.936 62.8256 29.384 62.8256 29.832C62.8256 29.96 62.8043 30.0933 62.7616 30.232C62.719 30.36 62.639 30.4827 62.5216 30.6C62.4043 30.7173 62.2496 30.8133 62.0576 30.888C61.8656 30.9627 61.615 31 61.3056 31C60.9963 31 60.7403 30.9627 60.5376 30.888C60.3456 30.8133 60.191 30.7173 60.0736 30.6C59.967 30.472 59.8923 30.3387 59.8496 30.2C59.807 30.0613 59.7856 29.928 59.7856 29.8C59.7856 29.608 59.8016 29.4053 59.8336 29.192C59.8656 28.9787 59.903 28.7547 59.9456 28.52C59.9883 28.2853 60.0256 28.0453 60.0576 27.8C60.0896 27.5547 60.1056 27.3093 60.1056 27.064V26.376C60.1056 26.1307 60.0896 25.8853 60.0576 25.64C60.0256 25.384 59.9883 25.1387 59.9456 24.904C59.903 24.6693 59.8656 24.4453 59.8336 24.232C59.8016 24.0187 59.7856 23.816 59.7856 23.624C59.7856 23.496 59.807 23.3627 59.8496 23.224C59.8923 23.0853 59.967 22.9573 60.0736 22.84C60.191 22.7227 60.3456 22.6267 60.5376 22.552C60.7403 22.4667 60.9963 22.424 61.3056 22.424C61.839 22.424 62.2123 22.5307 62.4256 22.744C62.6496 22.9573 62.7776 23.1867 62.8096 23.432C63.023 23.144 63.279 22.8987 63.5776 22.696C63.887 22.4827 64.2496 22.376 64.6656 22.376C65.199 22.376 65.5883 22.4773 65.8336 22.68C66.0896 22.872 66.2443 23.1067 66.2976 23.384C66.3616 23.6507 66.3456 23.9227 66.2496 24.2C66.1536 24.4773 66.0256 24.6907 65.8656 24.84C65.727 24.968 65.551 25.0373 65.3376 25.048C65.1243 25.0587 64.9003 25.0267 64.6656 24.952C64.5696 24.92 64.4523 24.888 64.3136 24.856C64.175 24.824 64.0256 24.8187 63.8656 24.84C63.7056 24.8507 63.535 24.8933 63.3536 24.968C63.1723 25.0427 62.991 25.1707 62.8096 25.352C62.7243 25.4373 62.655 25.544 62.6016 25.672C62.559 25.7893 62.5323 25.9067 62.5216 26.024ZM70.5249 28.328C70.4395 28.3493 70.3915 28.3813 70.3809 28.424C70.3809 28.4667 70.4182 28.5093 70.4929 28.552C70.7702 28.712 71.1275 28.792 71.5649 28.792C71.9702 28.792 72.3062 28.7067 72.5729 28.536C72.8395 28.3653 73.1222 28.152 73.4209 27.896C73.6342 27.7147 73.8742 27.624 74.1409 27.624C74.3862 27.624 74.6102 27.6987 74.8129 27.848C75.0262 27.9973 75.1915 28.184 75.3089 28.408C75.4369 28.632 75.4955 28.872 75.4849 29.128C75.4849 29.384 75.3889 29.624 75.1969 29.848C75.0262 30.04 74.7969 30.2213 74.5089 30.392C74.2315 30.552 73.9222 30.6907 73.5809 30.808C73.2502 30.9147 72.9089 31 72.5569 31.064C72.2049 31.128 71.8689 31.16 71.5489 31.16C70.9089 31.16 70.3169 31.08 69.7729 30.92C69.2289 30.76 68.7542 30.5093 68.3489 30.168C67.9542 29.816 67.6395 29.3733 67.4049 28.84C67.1809 28.296 67.0689 27.6453 67.0689 26.888C67.0689 26.2053 67.1915 25.5867 67.4369 25.032C67.6929 24.4667 68.0342 23.9813 68.4609 23.576C68.8982 23.1707 69.4102 22.856 69.9969 22.632C70.5835 22.408 71.2075 22.296 71.8689 22.296C72.3915 22.296 72.8555 22.3813 73.2609 22.552C73.6662 22.712 73.9969 22.9253 74.2529 23.192C74.5195 23.4587 74.7062 23.7627 74.8129 24.104C74.9302 24.4453 74.9569 24.7973 74.8929 25.16C74.8395 25.512 74.6902 25.8587 74.4449 26.2C74.2102 26.5413 73.8689 26.8453 73.4209 27.112C72.9835 27.3787 72.5195 27.6133 72.0289 27.816C71.5382 28.0187 71.0369 28.1893 70.5249 28.328ZM69.6449 26.296C69.6235 26.4773 69.6982 26.5413 69.8689 26.488C70.1569 26.392 70.4609 26.28 70.7809 26.152C71.1115 26.024 71.4635 25.8693 71.8369 25.688C72.0075 25.6027 72.1249 25.4907 72.1889 25.352C72.2635 25.2133 72.2902 25.0747 72.2689 24.936C72.2582 24.7973 72.2049 24.68 72.1089 24.584C72.0129 24.4773 71.8849 24.424 71.7249 24.424C71.1489 24.424 70.6795 24.5893 70.3169 24.92C69.9542 25.2507 69.7302 25.7093 69.6449 26.296ZM76.8376 27.528C76.8376 26.9307 76.9283 26.3227 77.1096 25.704C77.291 25.0747 77.547 24.5093 77.8776 24.008C78.219 23.5067 78.6243 23.096 79.0936 22.776C79.5736 22.456 80.107 22.296 80.6936 22.296C81.067 22.296 81.387 22.3547 81.6536 22.472C81.9203 22.5893 82.1763 22.7493 82.4216 22.952C82.5283 22.8027 82.683 22.68 82.8856 22.584C83.0883 22.4773 83.371 22.424 83.7336 22.424C84.043 22.424 84.2936 22.4613 84.4856 22.536C84.6776 22.6107 84.8323 22.7067 84.9496 22.824C85.067 22.9413 85.147 23.0693 85.1896 23.208C85.2323 23.3467 85.2536 23.48 85.2536 23.608C85.2536 24.0453 85.2003 24.4933 85.0936 24.952C84.987 25.4 84.9336 25.8747 84.9336 26.376V27.064C84.9336 27.5547 84.987 28.0293 85.0936 28.488C85.2003 28.936 85.2536 29.384 85.2536 29.832C85.2536 29.96 85.2323 30.0933 85.1896 30.232C85.147 30.36 85.067 30.4827 84.9496 30.6C84.8323 30.7173 84.6776 30.8133 84.4856 30.888C84.2936 30.9627 84.043 31 83.7336 31C83.2323 31 82.8696 30.9093 82.6456 30.728C82.4323 30.536 82.299 30.3333 82.2456 30.12C81.979 30.4293 81.6483 30.68 81.2536 30.872C80.8696 31.064 80.363 31.16 79.7336 31.16C79.2536 31.16 78.8323 31.1013 78.4696 30.984C78.1176 30.856 77.819 30.6533 77.5736 30.376C77.3283 30.088 77.1416 29.7147 77.0136 29.256C76.8963 28.7867 76.8376 28.2107 76.8376 27.528ZM79.3976 27.384C79.3976 27.6613 79.435 27.8907 79.5096 28.072C79.5843 28.2533 79.6856 28.3973 79.8136 28.504C79.9523 28.6107 80.1123 28.6853 80.2936 28.728C80.475 28.7707 80.667 28.792 80.8696 28.792C81.1576 28.792 81.403 28.7387 81.6056 28.632C81.8083 28.5147 81.9736 28.3653 82.1016 28.184C82.2403 27.992 82.3416 27.7733 82.4056 27.528C82.4696 27.2827 82.5016 27.0213 82.5016 26.744C82.5016 26.392 82.4856 26.072 82.4536 25.784C82.4216 25.496 82.3523 25.2507 82.2456 25.048C82.1496 24.8453 82.0003 24.6907 81.7976 24.584C81.6056 24.4773 81.3496 24.424 81.0296 24.424C80.7843 24.424 80.5603 24.52 80.3576 24.712C80.1656 24.904 79.995 25.144 79.8456 25.432C79.707 25.72 79.595 26.04 79.5096 26.392C79.435 26.7333 79.3976 27.064 79.3976 27.384ZM89.4372 25.896C89.4266 25.9813 89.4212 26.0613 89.4212 26.136C89.4212 26.2107 89.4212 26.2907 89.4212 26.376V27.064C89.4212 27.5547 89.4746 28.0293 89.5812 28.488C89.6879 28.936 89.7412 29.384 89.7412 29.832C89.7412 29.96 89.7199 30.0933 89.6772 30.232C89.6346 30.36 89.5546 30.4827 89.4372 30.6C89.3199 30.7173 89.1652 30.8133 88.9732 30.888C88.7812 30.9627 88.5306 31 88.2212 31C87.9119 31 87.6559 30.9627 87.4532 30.888C87.2612 30.8133 87.1066 30.7173 86.9892 30.6C86.8826 30.472 86.8079 30.3387 86.7652 30.2C86.7226 30.0613 86.7012 29.928 86.7012 29.8C86.7012 29.608 86.7172 29.4053 86.7492 29.192C86.7812 28.9787 86.8186 28.7547 86.8612 28.52C86.9039 28.2853 86.9412 28.0453 86.9732 27.8C87.0052 27.5547 87.0212 27.3093 87.0212 27.064V26.376C87.0212 26.1307 87.0052 25.8853 86.9732 25.64C86.9412 25.384 86.9039 25.1387 86.8612 24.904C86.8186 24.6693 86.7812 24.4453 86.7492 24.232C86.7172 24.0187 86.7012 23.816 86.7012 23.624C86.7012 23.496 86.7226 23.3627 86.7652 23.224C86.8079 23.0853 86.8826 22.9573 86.9892 22.84C87.1066 22.7227 87.2612 22.6267 87.4532 22.552C87.6559 22.4667 87.9119 22.424 88.2212 22.424C88.7546 22.424 89.1279 22.5307 89.3412 22.744C89.5652 22.9573 89.6932 23.1867 89.7252 23.432C89.9172 23.1867 90.1466 22.9733 90.4132 22.792C90.6799 22.6 90.9999 22.4613 91.3732 22.376C91.6292 22.3227 91.9172 22.2907 92.2372 22.28C92.5679 22.2693 92.8826 22.3067 93.1812 22.392C93.4906 22.4667 93.7679 22.6 94.0132 22.792C94.2692 22.9733 94.4506 23.224 94.5572 23.544C94.7492 23.2773 94.9839 23.0373 95.2612 22.824C95.5492 22.6107 95.8906 22.4613 96.2852 22.376C96.5839 22.312 96.9306 22.28 97.3252 22.28C97.7199 22.28 98.0932 22.344 98.4452 22.472C98.8079 22.6 99.1119 22.8027 99.3572 23.08C99.6026 23.3467 99.7252 23.72 99.7252 24.2C99.7252 24.6373 99.6719 25.0853 99.5652 25.544C99.4586 25.992 99.4052 26.4667 99.4052 26.968V27.064C99.4052 27.5547 99.4586 28.0293 99.5652 28.488C99.6719 28.936 99.7252 29.384 99.7252 29.832C99.7252 29.96 99.7039 30.0933 99.6612 30.232C99.6186 30.36 99.5386 30.4827 99.4212 30.6C99.3039 30.7173 99.1492 30.8133 98.9572 30.888C98.7652 30.9627 98.5146 31 98.2052 31C97.8959 31 97.6399 30.9627 97.4372 30.888C97.2452 30.8133 97.0906 30.7173 96.9732 30.6C96.8666 30.472 96.7919 30.3387 96.7492 30.2C96.7066 30.0613 96.6852 29.928 96.6852 29.8C96.6852 29.608 96.7012 29.4053 96.7332 29.192C96.7652 28.9787 96.8026 28.7547 96.8452 28.52C96.8879 28.2853 96.9252 28.0453 96.9572 27.8C96.9892 27.5547 97.0052 27.3093 97.0052 27.064V26.968C97.0052 25.5067 96.7599 24.7227 96.2692 24.616C96.0879 24.5733 95.8692 24.568 95.6132 24.6C95.3572 24.6213 95.0799 24.7707 94.7812 25.048C94.6959 25.1227 94.6266 25.224 94.5732 25.352C94.5199 25.4693 94.4826 25.592 94.4612 25.72C94.4292 25.9227 94.3972 26.1307 94.3652 26.344C94.3439 26.5467 94.3332 26.7547 94.3332 26.968V27.064C94.3332 27.5547 94.3866 28.0293 94.4932 28.488C94.5999 28.936 94.6532 29.384 94.6532 29.832C94.6532 29.96 94.6319 30.0933 94.5892 30.232C94.5572 30.36 94.4879 30.4827 94.3812 30.6C94.2852 30.7173 94.1412 30.8133 93.9492 30.888C93.7679 30.9627 93.5226 31 93.2132 31C92.9039 31 92.6532 30.9627 92.4612 30.888C92.2799 30.8133 92.1359 30.7173 92.0292 30.6C91.9226 30.472 91.8532 30.3387 91.8212 30.2C91.7892 30.0613 91.7732 29.928 91.7732 29.8C91.7732 29.608 91.7892 29.4053 91.8212 29.192C91.8532 28.9787 91.8906 28.7547 91.9332 28.52C91.9759 28.2853 92.0132 28.0453 92.0452 27.8C92.0772 27.5547 92.0932 27.3093 92.0932 27.064V26.968C92.0932 25.5067 91.8479 24.7227 91.3572 24.616C91.2612 24.5947 91.1492 24.584 91.0212 24.584C90.9039 24.5733 90.7759 24.584 90.6372 24.616C90.4986 24.648 90.3492 24.712 90.1892 24.808C90.0399 24.8933 89.8852 25.0267 89.7252 25.208C89.5546 25.4 89.4586 25.6293 89.4372 25.896ZM110.374 26.456C110.374 27.2987 110.272 28.0187 110.07 28.616C109.878 29.2133 109.616 29.704 109.286 30.088C108.955 30.472 108.576 30.7547 108.15 30.936C107.723 31.1173 107.275 31.208 106.806 31.208C106.187 31.208 105.638 31.1333 105.158 30.984C104.678 30.824 104.262 30.616 103.91 30.36C103.952 30.8933 104.011 31.4213 104.086 31.944C104.16 32.4773 104.198 33.0427 104.198 33.64C104.198 34.1413 104.054 34.488 103.766 34.68C103.488 34.8827 103.11 34.984 102.63 34.984C102.32 34.984 102.07 34.9413 101.878 34.856C101.686 34.7813 101.536 34.68 101.43 34.552C101.323 34.424 101.248 34.28 101.206 34.12C101.174 33.9707 101.158 33.8213 101.158 33.672C101.158 33.256 101.174 32.8667 101.206 32.504C101.238 32.1413 101.275 31.7893 101.318 31.448C101.36 31.1173 101.398 30.792 101.43 30.472C101.462 30.1413 101.478 29.8053 101.478 29.464V27.992C101.478 27.6507 101.462 27.32 101.43 27C101.398 26.6693 101.36 26.3387 101.318 26.008C101.275 25.6667 101.238 25.3147 101.206 24.952C101.174 24.5893 101.158 24.2 101.158 23.784C101.158 23.6347 101.174 23.4853 101.206 23.336C101.248 23.176 101.323 23.032 101.43 22.904C101.536 22.776 101.686 22.6747 101.878 22.6C102.07 22.5147 102.32 22.472 102.63 22.472C102.992 22.472 103.318 22.5413 103.606 22.68C103.904 22.808 104.091 23.064 104.166 23.448C104.475 23.1173 104.848 22.8507 105.286 22.648C105.723 22.4453 106.23 22.344 106.806 22.344C107.083 22.344 107.424 22.392 107.83 22.488C108.235 22.5733 108.624 22.76 108.998 23.048C109.382 23.336 109.707 23.752 109.974 24.296C110.24 24.8293 110.374 25.5493 110.374 26.456ZM107.83 26.76C107.83 26.4827 107.803 26.2213 107.75 25.976C107.696 25.7307 107.6 25.5173 107.462 25.336C107.323 25.144 107.131 24.9947 106.886 24.888C106.651 24.7707 106.352 24.712 105.99 24.712C105.67 24.712 105.376 24.7707 105.11 24.888C104.854 24.9947 104.635 25.144 104.454 25.336C104.272 25.528 104.128 25.7467 104.022 25.992C103.926 26.2373 103.872 26.4933 103.862 26.76C103.851 27.112 103.91 27.4267 104.038 27.704C104.166 27.9707 104.331 28.1947 104.534 28.376C104.747 28.5573 104.982 28.696 105.238 28.792C105.494 28.8773 105.744 28.92 105.99 28.92C106.555 28.92 107.003 28.76 107.334 28.44C107.664 28.1093 107.83 27.5493 107.83 26.76ZM45.2362 45.672C45.3429 45.3627 45.4389 45.048 45.5242 44.728C45.6202 44.408 45.7269 44.088 45.8442 43.768C46.0255 43.2773 46.2015 42.808 46.3722 42.36C46.5429 41.9013 46.7402 41.4747 46.9642 41.08C47.0495 40.9307 47.1722 40.7867 47.3322 40.648C47.5029 40.5093 47.7162 40.44 47.9722 40.44C48.2495 40.44 48.5589 40.5413 48.9002 40.744C49.1669 40.904 49.3589 41.0747 49.4762 41.256C49.5935 41.4373 49.6629 41.6187 49.6842 41.8C49.7162 41.9707 49.7109 42.136 49.6682 42.296C49.6362 42.4453 49.5882 42.5787 49.5242 42.696C49.3322 43.048 49.0869 43.4373 48.7882 43.864C48.5002 44.28 48.2335 44.712 47.9882 45.16L47.6362 45.8C47.3909 46.248 47.1775 46.7013 46.9962 47.16C46.8255 47.608 46.6442 48.0027 46.4522 48.344C46.3455 48.5253 46.1855 48.68 45.9722 48.808C45.7589 48.9253 45.4655 48.984 45.0922 48.984C44.7295 48.984 44.4415 48.9253 44.2282 48.808C44.0255 48.68 43.8709 48.5253 43.7642 48.344C43.5722 48.0027 43.3855 47.608 43.2042 47.16C43.0335 46.7013 42.8255 46.248 42.5802 45.8L42.2282 45.16C41.9829 44.712 41.7109 44.28 41.4122 43.864C41.1242 43.4373 40.8842 43.048 40.6922 42.696C40.6282 42.5787 40.5749 42.4453 40.5322 42.296C40.5002 42.136 40.4949 41.9707 40.5162 41.8C40.5482 41.6187 40.6229 41.4373 40.7402 41.256C40.8575 41.0747 41.0495 40.904 41.3162 40.744C41.6575 40.5413 41.9669 40.44 42.2442 40.44C42.5002 40.44 42.7082 40.5093 42.8682 40.648C43.0389 40.7867 43.1669 40.9307 43.2522 41.08C43.4762 41.4747 43.6735 41.9013 43.8442 42.36C44.0149 42.8187 44.1909 43.288 44.3722 43.768C44.4895 44.088 44.5909 44.408 44.6762 44.728C44.7722 45.048 44.8735 45.3627 44.9802 45.672C45.0655 45.9067 45.1509 45.9067 45.2362 45.672ZM54.7332 43.592C54.5519 43.592 54.3865 43.6027 54.2372 43.624C54.0985 43.6453 53.9599 43.672 53.8212 43.704C53.6932 43.736 53.5599 43.7627 53.4212 43.784C53.2932 43.8053 53.1385 43.816 52.9572 43.816C52.6585 43.816 52.3865 43.7253 52.1412 43.544C51.9065 43.352 51.7839 43.0107 51.7732 42.52C51.7732 42.2747 51.8052 42.072 51.8692 41.912C51.9332 41.7413 52.0185 41.608 52.1252 41.512C52.2319 41.4053 52.3545 41.3307 52.4932 41.288C52.6319 41.2453 52.7759 41.224 52.9252 41.224C53.0852 41.224 53.2292 41.2347 53.3572 41.256C53.4959 41.2773 53.6292 41.304 53.7572 41.336C53.8852 41.368 54.0132 41.3947 54.1412 41.416C54.2692 41.4373 54.4132 41.448 54.5732 41.448C54.9572 41.448 55.2665 41.416 55.5012 41.352C55.7359 41.288 55.9119 41.2027 56.0292 41.096C56.1572 40.9787 56.2372 40.8347 56.2692 40.664C56.3119 40.4933 56.3332 40.3067 56.3332 40.104C56.3332 39.912 56.2959 39.752 56.2212 39.624C56.1465 39.496 56.0505 39.3947 55.9332 39.32C55.8265 39.2347 55.7039 39.176 55.5652 39.144C55.4265 39.112 55.2932 39.096 55.1652 39.096C54.9519 39.096 54.7439 39.1227 54.5412 39.176C54.3492 39.2293 54.1625 39.2987 53.9812 39.384C53.8105 39.4587 53.6399 39.544 53.4692 39.64C53.2985 39.7253 53.1332 39.8053 52.9732 39.88C52.6532 40.0187 52.3492 40.0293 52.0612 39.912C51.7839 39.7947 51.5705 39.6133 51.4212 39.368C51.2825 39.1227 51.2452 38.8453 51.3092 38.536C51.3839 38.216 51.6132 37.9333 51.9972 37.688C52.1892 37.56 52.4132 37.448 52.6692 37.352C52.9359 37.2453 53.2079 37.1547 53.4852 37.08C53.7625 37.0053 54.0452 36.9467 54.3332 36.904C54.6319 36.8613 54.9092 36.84 55.1652 36.84C55.7092 36.84 56.2105 36.904 56.6692 37.032C57.1385 37.16 57.5385 37.352 57.8692 37.608C58.2105 37.864 58.4772 38.184 58.6692 38.568C58.8612 38.9413 58.9572 39.384 58.9572 39.896C58.9572 40.1947 58.9252 40.4613 58.8612 40.696C58.8079 40.9307 58.7225 41.144 58.6052 41.336C58.4985 41.528 58.3599 41.704 58.1892 41.864C58.0292 42.0133 57.8479 42.1627 57.6452 42.312C57.9225 42.3973 58.1679 42.5307 58.3812 42.712C58.5945 42.8827 58.7705 43.0907 58.9092 43.336C59.0585 43.5813 59.1652 43.8533 59.2292 44.152C59.3039 44.4507 59.3412 44.76 59.3412 45.08C59.3412 45.6773 59.2452 46.2267 59.0532 46.728C58.8612 47.2293 58.5839 47.6613 58.2212 48.024C57.8692 48.376 57.4265 48.6533 56.8932 48.856C56.3705 49.0587 55.7732 49.16 55.1012 49.16C54.3012 49.16 53.5972 48.9947 52.9892 48.664C52.3812 48.3227 51.8745 47.9173 51.4692 47.448C51.2452 47.1813 51.1119 46.92 51.0692 46.664C51.0372 46.3973 51.0639 46.1573 51.1492 45.944C51.2452 45.7307 51.3892 45.5493 51.5812 45.4C51.7839 45.2507 51.9972 45.1547 52.2212 45.112C52.4559 45.0587 52.6905 45.0693 52.9252 45.144C53.1705 45.2187 53.3839 45.368 53.5652 45.592C53.7465 45.8053 53.9599 46.0133 54.2052 46.216C54.4612 46.4187 54.7599 46.52 55.1012 46.52C55.2292 46.52 55.3785 46.504 55.5492 46.472C55.7199 46.44 55.8745 46.3707 56.0132 46.264C56.1625 46.1573 56.2852 46.0027 56.3812 45.8C56.4879 45.5973 56.5412 45.3253 56.5412 44.984C56.5412 44.8133 56.4985 44.648 56.4132 44.488C56.3279 44.3173 56.2052 44.168 56.0452 44.04C55.8959 43.9013 55.7092 43.7947 55.4852 43.72C55.2612 43.6347 55.0105 43.592 54.7332 43.592ZM60.6947 47.768C60.6947 47.352 60.828 47.0213 61.0947 46.776C61.3614 46.5307 61.7507 46.408 62.2627 46.408C62.7747 46.408 63.164 46.5307 63.4307 46.776C63.6974 47.0213 63.8307 47.352 63.8307 47.768C63.8307 48.1947 63.6974 48.5307 63.4307 48.776C63.164 49.0213 62.7747 49.144 62.2627 49.144C61.7507 49.144 61.3614 49.0213 61.0947 48.776C60.828 48.5307 60.6947 48.1947 60.6947 47.768ZM67.4241 42.52C67.4241 42.1787 67.4081 41.8427 67.3761 41.512C67.3441 41.1707 67.3067 40.8293 67.2641 40.488C67.1467 40.5413 67.0294 40.6053 66.9121 40.68C66.8054 40.7547 66.6987 40.8347 66.5921 40.92C66.5601 40.952 66.5014 40.984 66.4161 41.016C66.3307 41.0373 66.2241 41.048 66.0961 41.048C65.9787 41.0373 65.8507 40.9947 65.7121 40.92C65.5841 40.8453 65.4561 40.7173 65.3281 40.536C65.2001 40.3547 65.1307 40.1893 65.1201 40.04C65.1094 39.88 65.1254 39.7413 65.1681 39.624C65.2214 39.5067 65.2801 39.4107 65.3441 39.336C65.4187 39.2613 65.4721 39.2133 65.5041 39.192C65.6747 39.0533 65.8347 38.9413 65.9841 38.856C66.1441 38.76 66.2987 38.6533 66.4481 38.536C66.5547 38.4507 66.6401 38.3653 66.7041 38.28C66.7681 38.184 66.8321 38.088 66.8961 37.992C66.9707 37.8853 67.0507 37.7787 67.1361 37.672C67.2321 37.5653 67.3547 37.4587 67.5041 37.352C67.6214 37.2453 67.7761 37.16 67.9681 37.096C68.1707 37.032 68.4161 37 68.7041 37C69.0241 37 69.2854 37.0427 69.4881 37.128C69.7014 37.2027 69.8667 37.304 69.9841 37.432C70.1121 37.56 70.1974 37.704 70.2401 37.864C70.2827 38.0133 70.3041 38.1627 70.3041 38.312C70.3041 38.728 70.2881 39.1173 70.2561 39.48C70.2241 39.8427 70.1867 40.1947 70.1441 40.536C70.1014 40.8667 70.0641 41.1973 70.0321 41.528C70.0001 41.848 69.9841 42.1787 69.9841 42.52V43.48C69.9841 43.8213 70.0001 44.1573 70.0321 44.488C70.0641 44.808 70.1014 45.1387 70.1441 45.48C70.1867 45.8107 70.2241 46.1573 70.2561 46.52C70.2881 46.8827 70.3041 47.272 70.3041 47.688C70.3041 47.8373 70.2827 47.992 70.2401 48.152C70.1974 48.3013 70.1121 48.44 69.9841 48.568C69.8667 48.696 69.7014 48.8027 69.4881 48.888C69.2854 48.9627 69.0241 49 68.7041 49C68.3734 49 68.1014 48.9573 67.8881 48.872C67.6854 48.7867 67.5254 48.68 67.4081 48.552C67.2907 48.4133 67.2107 48.2693 67.1681 48.12C67.1254 47.96 67.1041 47.8053 67.1041 47.656C67.1041 47.2827 67.1201 46.92 67.1521 46.568C67.1841 46.216 67.2214 45.8693 67.2641 45.528C67.3067 45.176 67.3441 44.8347 67.3761 44.504C67.4081 44.1627 67.4241 43.8213 67.4241 43.48V42.52ZM24.9189 63.528C24.9189 62.9307 25.0095 62.3227 25.1909 61.704C25.3722 61.0747 25.6282 60.5093 25.9589 60.008C26.3002 59.5067 26.7055 59.096 27.1749 58.776C27.6549 58.456 28.1882 58.296 28.7749 58.296C29.1482 58.296 29.4682 58.3547 29.7349 58.472C30.0015 58.5893 30.2575 58.7493 30.5029 58.952C30.6095 58.8027 30.7642 58.68 30.9669 58.584C31.1695 58.4773 31.4522 58.424 31.8149 58.424C32.1242 58.424 32.3749 58.4613 32.5669 58.536C32.7589 58.6107 32.9135 58.7067 33.0309 58.824C33.1482 58.9413 33.2282 59.0693 33.2709 59.208C33.3135 59.3467 33.3349 59.48 33.3349 59.608C33.3349 60.0453 33.2815 60.4933 33.1749 60.952C33.0682 61.4 33.0149 61.8747 33.0149 62.376V63.064C33.0149 63.5547 33.0682 64.0293 33.1749 64.488C33.2815 64.936 33.3349 65.384 33.3349 65.832C33.3349 65.96 33.3135 66.0933 33.2709 66.232C33.2282 66.36 33.1482 66.4827 33.0309 66.6C32.9135 66.7173 32.7589 66.8133 32.5669 66.888C32.3749 66.9627 32.1242 67 31.8149 67C31.3135 67 30.9509 66.9093 30.7269 66.728C30.5135 66.536 30.3802 66.3333 30.3269 66.12C30.0602 66.4293 29.7295 66.68 29.3349 66.872C28.9509 67.064 28.4442 67.16 27.8149 67.16C27.3349 67.16 26.9135 67.1013 26.5509 66.984C26.1989 66.856 25.9002 66.6533 25.6549 66.376C25.4095 66.088 25.2229 65.7147 25.0949 65.256C24.9775 64.7867 24.9189 64.2107 24.9189 63.528ZM27.4789 63.384C27.4789 63.6613 27.5162 63.8907 27.5909 64.072C27.6655 64.2533 27.7669 64.3973 27.8949 64.504C28.0335 64.6107 28.1935 64.6853 28.3749 64.728C28.5562 64.7707 28.7482 64.792 28.9509 64.792C29.2389 64.792 29.4842 64.7387 29.6869 64.632C29.8895 64.5147 30.0549 64.3653 30.1829 64.184C30.3215 63.992 30.4229 63.7733 30.4869 63.528C30.5509 63.2827 30.5829 63.0213 30.5829 62.744C30.5829 62.392 30.5669 62.072 30.5349 61.784C30.5029 61.496 30.4335 61.2507 30.3269 61.048C30.2309 60.8453 30.0815 60.6907 29.8789 60.584C29.6869 60.4773 29.4309 60.424 29.1109 60.424C28.8655 60.424 28.6415 60.52 28.4389 60.712C28.2469 60.904 28.0762 61.144 27.9269 61.432C27.7882 61.72 27.6762 62.04 27.5909 62.392C27.5162 62.7333 27.4789 63.064 27.4789 63.384ZM37.5185 62.024C37.5185 62.0773 37.5132 62.136 37.5025 62.2C37.5025 62.264 37.5025 62.3227 37.5025 62.376V63.064C37.5025 63.5547 37.5558 64.0293 37.6625 64.488C37.7692 64.936 37.8225 65.384 37.8225 65.832C37.8225 65.96 37.8012 66.0933 37.7585 66.232C37.7158 66.36 37.6358 66.4827 37.5185 66.6C37.4012 66.7173 37.2465 66.8133 37.0545 66.888C36.8625 66.9627 36.6118 67 36.3025 67C35.9932 67 35.7372 66.9627 35.5345 66.888C35.3425 66.8133 35.1878 66.7173 35.0705 66.6C34.9638 66.472 34.8892 66.3387 34.8465 66.2C34.8038 66.0613 34.7825 65.928 34.7825 65.8C34.7825 65.608 34.7985 65.4053 34.8305 65.192C34.8625 64.9787 34.8998 64.7547 34.9425 64.52C34.9852 64.2853 35.0225 64.0453 35.0545 63.8C35.0865 63.5547 35.1025 63.3093 35.1025 63.064V62.376C35.1025 62.1307 35.0865 61.8853 35.0545 61.64C35.0225 61.384 34.9852 61.1387 34.9425 60.904C34.8998 60.6693 34.8625 60.4453 34.8305 60.232C34.7985 60.0187 34.7825 59.816 34.7825 59.624C34.7825 59.496 34.8038 59.3627 34.8465 59.224C34.8892 59.0853 34.9638 58.9573 35.0705 58.84C35.1878 58.7227 35.3425 58.6267 35.5345 58.552C35.7372 58.4667 35.9932 58.424 36.3025 58.424C36.8358 58.424 37.2092 58.5307 37.4225 58.744C37.6465 58.9573 37.7745 59.1867 37.8065 59.432C38.0198 59.144 38.2758 58.8987 38.5745 58.696C38.8838 58.4827 39.2465 58.376 39.6625 58.376C40.1958 58.376 40.5852 58.4773 40.8305 58.68C41.0865 58.872 41.2412 59.1067 41.2945 59.384C41.3585 59.6507 41.3425 59.9227 41.2465 60.2C41.1505 60.4773 41.0225 60.6907 40.8625 60.84C40.7238 60.968 40.5478 61.0373 40.3345 61.048C40.1212 61.0587 39.8972 61.0267 39.6625 60.952C39.5665 60.92 39.4492 60.888 39.3105 60.856C39.1718 60.824 39.0225 60.8187 38.8625 60.84C38.7025 60.8507 38.5318 60.8933 38.3505 60.968C38.1692 61.0427 37.9878 61.1707 37.8065 61.352C37.7212 61.4373 37.6518 61.544 37.5985 61.672C37.5558 61.7893 37.5292 61.9067 37.5185 62.024ZM46.5788 64.552C46.3761 64.808 46.1841 65.064 46.0028 65.32C45.8321 65.5653 45.6401 65.8 45.4268 66.024C45.3628 66.0987 45.2828 66.1947 45.1868 66.312C45.0908 66.4187 44.9841 66.5253 44.8668 66.632C44.7601 66.728 44.6374 66.8133 44.4988 66.888C44.3708 66.952 44.2321 66.984 44.0828 66.984C43.9334 66.984 43.7788 66.9467 43.6188 66.872C43.4694 66.7867 43.3041 66.648 43.1228 66.456C42.8668 66.168 42.7174 65.9067 42.6748 65.672C42.6321 65.4373 42.6428 65.224 42.7068 65.032C42.7814 64.84 42.8881 64.6693 43.0268 64.52C43.1654 64.3707 43.2881 64.2373 43.3948 64.12C43.6401 63.864 43.8748 63.6293 44.0988 63.416C44.3228 63.2027 44.5574 62.984 44.8028 62.76C44.9948 62.5787 44.9948 62.4027 44.8028 62.232C44.4934 61.9547 44.1948 61.688 43.9068 61.432C43.6294 61.1653 43.3841 60.9147 43.1708 60.68C43.0748 60.5733 42.9948 60.456 42.9308 60.328C42.8774 60.2 42.8508 60.0613 42.8508 59.912C42.8508 59.752 42.8881 59.5867 42.9628 59.416C43.0481 59.2453 43.1868 59.0587 43.3788 58.856C43.7094 58.5147 44.0401 58.344 44.3708 58.344C44.6481 58.344 44.9468 58.472 45.2668 58.728C45.4908 58.9093 45.7201 59.1653 45.9548 59.496C46.2001 59.8267 46.4561 60.1627 46.7228 60.504C46.7868 60.6 46.8668 60.648 46.9628 60.648C47.0588 60.648 47.1441 60.6 47.2188 60.504C47.4428 60.2267 47.6614 59.9547 47.8748 59.688C48.0988 59.4213 48.3494 59.1653 48.6268 58.92C48.7548 58.8027 48.9041 58.7013 49.0748 58.616C49.2561 58.52 49.4428 58.472 49.6348 58.472C49.8054 58.472 49.9708 58.5147 50.1308 58.6C50.2908 58.6853 50.4454 58.8347 50.5948 59.048C50.7868 59.3253 50.9094 59.5653 50.9628 59.768C51.0268 59.9707 51.0374 60.152 50.9948 60.312C50.9628 60.472 50.8934 60.6213 50.7868 60.76C50.6801 60.888 50.5574 61.016 50.4188 61.144C50.2054 61.3467 49.9814 61.544 49.7468 61.736C49.5228 61.928 49.2828 62.1307 49.0268 62.344C48.8348 62.504 48.8348 62.664 49.0268 62.824C49.3041 63.048 49.5761 63.272 49.8428 63.496C50.1094 63.7093 50.3494 63.9387 50.5628 64.184C50.6588 64.3013 50.7708 64.4453 50.8988 64.616C51.0268 64.7867 51.1174 64.9787 51.1708 65.192C51.2241 65.3947 51.2188 65.6133 51.1548 65.848C51.0908 66.0827 50.9148 66.3227 50.6268 66.568C50.4454 66.728 50.2694 66.8453 50.0988 66.92C49.9388 66.984 49.7841 67.016 49.6348 67.016C49.4854 67.016 49.3468 66.9893 49.2188 66.936C49.0908 66.8827 48.9734 66.8187 48.8668 66.744C48.7708 66.6587 48.6801 66.5733 48.5948 66.488C48.5094 66.392 48.4348 66.3067 48.3708 66.232C48.1574 65.9973 47.9441 65.736 47.7308 65.448C47.5281 65.16 47.3041 64.8613 47.0588 64.552C46.9948 64.456 46.9148 64.408 46.8188 64.408C46.7441 64.408 46.6641 64.456 46.5788 64.552ZM52.4744 65.768C52.4744 65.352 52.6077 65.0213 52.8744 64.776C53.141 64.5307 53.5304 64.408 54.0424 64.408C54.5544 64.408 54.9437 64.5307 55.2104 64.776C55.477 65.0213 55.6104 65.352 55.6104 65.768C55.6104 66.1947 55.477 66.5307 55.2104 66.776C54.9437 67.0213 54.5544 67.144 54.0424 67.144C53.5304 67.144 53.141 67.0213 52.8744 66.776C52.6077 66.5307 52.4744 66.1947 52.4744 65.768ZM65.5718 63.944C65.6464 63.6133 65.7104 63.288 65.7638 62.968C65.8171 62.6373 65.8864 62.3013 65.9718 61.96C66.0891 61.4693 66.2011 60.9947 66.3078 60.536C66.4251 60.0773 66.5744 59.64 66.7558 59.224C66.8304 59.0533 66.9531 58.888 67.1238 58.728C67.2944 58.568 67.5291 58.488 67.8278 58.488C68.0624 58.488 68.3291 58.552 68.6278 58.68C69.1931 58.9253 69.5344 59.192 69.6518 59.48C69.7798 59.7573 69.7638 60.0933 69.6038 60.488C69.4544 60.8507 69.2624 61.2667 69.0278 61.736C68.7931 62.1947 68.5798 62.6533 68.3878 63.112L68.1158 63.768C67.9238 64.2267 67.7744 64.648 67.6678 65.032C67.5718 65.4053 67.4491 65.768 67.2998 66.12C67.1931 66.3653 67.0278 66.5733 66.8038 66.744C66.5798 66.904 66.2064 66.984 65.6838 66.984C65.3104 66.984 64.9904 66.9307 64.7238 66.824C64.4571 66.7173 64.2651 66.536 64.1478 66.28C64.0944 66.152 64.0358 65.992 63.9718 65.8C63.9184 65.5973 63.8598 65.384 63.7958 65.16C63.7318 64.936 63.6678 64.7067 63.6038 64.472C63.5398 64.2373 63.4758 64.0187 63.4118 63.816C63.3798 63.6987 63.3424 63.64 63.2998 63.64C63.2571 63.64 63.2198 63.6987 63.1878 63.816C63.1238 64.0187 63.0598 64.2373 62.9958 64.472C62.9318 64.7067 62.8678 64.936 62.8038 65.16C62.7398 65.384 62.6758 65.5973 62.6118 65.8C62.5584 65.992 62.5051 66.152 62.4518 66.28C62.3451 66.5253 62.1691 66.7067 61.9238 66.824C61.6784 66.9307 61.3798 66.984 61.0278 66.984C60.4944 66.984 60.0998 66.9093 59.8438 66.76C59.5878 66.6107 59.4011 66.3973 59.2838 66.12C59.1344 65.768 59.0064 65.4053 58.8998 65.032C58.8038 64.648 58.6598 64.2267 58.4678 63.768L58.1958 63.112C58.0038 62.6533 57.7904 62.1947 57.5558 61.736C57.3211 61.2667 57.1291 60.8507 56.9798 60.488C56.8198 60.0933 56.8144 59.7573 56.9638 59.48C57.1131 59.192 57.4704 58.9253 58.0358 58.68C58.3451 58.552 58.6118 58.488 58.8358 58.488C59.1344 58.488 59.3691 58.568 59.5398 58.728C59.7104 58.888 59.8331 59.0533 59.9078 59.224C60.0891 59.64 60.2331 60.0773 60.3398 60.536C60.4571 60.9947 60.5744 61.4693 60.6918 61.96C60.7664 62.2693 60.8304 62.5787 60.8838 62.888C60.9371 63.1973 60.9958 63.5067 61.0598 63.816C61.1131 64.0613 61.1664 64.0613 61.2198 63.816C61.2838 63.5067 61.3424 63.1973 61.3958 62.888C61.4598 62.5787 61.5291 62.2587 61.6038 61.928C61.7211 61.4373 61.8331 60.9627 61.9398 60.504C62.0464 60.0347 62.1904 59.5973 62.3718 59.192C62.4464 59.0213 62.5531 58.8613 62.6918 58.712C62.8411 58.552 63.0438 58.472 63.2998 58.472C63.4918 58.472 63.7104 58.5253 63.9558 58.632C64.3718 58.8133 64.6438 59.0107 64.7718 59.224C64.8998 59.4267 64.8891 59.72 64.7398 60.104C64.7184 60.1573 64.6971 60.2107 64.6758 60.264C64.6651 60.3067 64.6491 60.3547 64.6278 60.408C64.6918 60.6533 64.7504 60.904 64.8038 61.16C64.8678 61.4053 64.9318 61.6613 64.9958 61.928C65.0811 62.2693 65.1504 62.6107 65.2038 62.952C65.2571 63.2827 65.3211 63.6133 65.3958 63.944C65.4171 64.0613 65.4438 64.12 65.4758 64.12C65.5184 64.12 65.5504 64.0613 65.5718 63.944ZM74.4202 60.968C74.3776 61.3627 74.3456 61.752 74.3242 62.136C74.3136 62.5093 74.3242 62.8507 74.3562 63.16C74.3989 63.4587 74.4682 63.7147 74.5642 63.928C74.6709 64.1307 74.8149 64.2587 74.9962 64.312C75.1776 64.3653 75.3376 64.376 75.4762 64.344C75.6149 64.3013 75.8176 64.1787 76.0842 63.976C76.2869 63.8267 76.4789 63.7573 76.6602 63.768C76.8522 63.768 77.0229 63.8267 77.1722 63.944C77.3216 64.0507 77.4496 64.2 77.5562 64.392C77.6629 64.5733 77.7322 64.776 77.7642 65C77.7962 65.2133 77.7856 65.4267 77.7322 65.64C77.6896 65.8533 77.5882 66.04 77.4282 66.2C77.2362 66.4027 77.0176 66.568 76.7722 66.696C76.5376 66.8133 76.2922 66.9093 76.0362 66.984C75.7909 67.048 75.5509 67.0907 75.3162 67.112C75.0816 67.1333 74.8682 67.144 74.6762 67.144C74.1109 67.144 73.6522 67.08 73.3002 66.952C72.9482 66.824 72.6709 66.648 72.4682 66.424C72.2656 66.1893 72.1269 65.9173 72.0522 65.608C71.9882 65.288 71.9509 64.9467 71.9402 64.584C71.9296 64.2213 71.9349 63.8427 71.9562 63.448C71.9882 63.0533 72.0042 62.6587 72.0042 62.264C72.0042 62.0613 72.0042 61.8747 72.0042 61.704C72.0042 61.5227 71.9989 61.3467 71.9882 61.176C71.9882 60.9733 71.8549 60.8293 71.5882 60.744C71.4069 60.6907 71.2629 60.584 71.1562 60.424C71.0496 60.2533 70.9909 59.9813 70.9802 59.608C70.9696 59.288 71.0016 59.048 71.0762 58.888C71.1616 58.7173 71.2789 58.5947 71.4282 58.52C71.6736 58.4133 71.7962 58.2533 71.7962 58.04V57.576C71.7962 57.4267 71.8122 57.2773 71.8442 57.128C71.8869 56.968 71.9616 56.824 72.0682 56.696C72.1749 56.568 72.3296 56.4667 72.5322 56.392C72.7349 56.3067 72.9962 56.264 73.3162 56.264C73.6469 56.264 73.9082 56.3067 74.1002 56.392C74.3029 56.4773 74.4576 56.5893 74.5642 56.728C74.6709 56.856 74.7402 57 74.7722 57.16C74.8149 57.3093 74.8362 57.4587 74.8362 57.608C74.8362 57.768 74.8202 57.9707 74.7882 58.216C74.7669 58.3333 74.7882 58.424 74.8522 58.488C74.9162 58.5413 75.0069 58.5573 75.1242 58.536C75.2949 58.504 75.4656 58.4773 75.6362 58.456C75.8176 58.4347 76.0149 58.424 76.2282 58.424C76.3776 58.424 76.5216 58.44 76.6602 58.472C76.7989 58.504 76.9216 58.5627 77.0282 58.648C77.1349 58.7333 77.2202 58.856 77.2842 59.016C77.3482 59.1653 77.3802 59.3627 77.3802 59.608C77.3802 59.8533 77.3429 60.056 77.2682 60.216C77.2042 60.3653 77.1136 60.4827 76.9962 60.568C76.8896 60.6533 76.7669 60.712 76.6282 60.744C76.4896 60.776 76.3456 60.792 76.1962 60.792C75.9616 60.792 75.7322 60.776 75.5082 60.744C75.2949 60.7013 75.0762 60.664 74.8522 60.632C74.7349 60.6107 74.6389 60.632 74.5642 60.696C74.4896 60.76 74.4416 60.8507 74.4202 60.968ZM80.308 58.2C80.3613 57.7093 80.452 57.2507 80.58 56.824C80.708 56.3973 80.884 56.024 81.108 55.704C81.3427 55.384 81.6413 55.1333 82.004 54.952C82.3667 54.76 82.8147 54.664 83.348 54.664C83.7213 54.664 84.1053 54.7227 84.5 54.84C84.8947 54.9467 85.284 55.1333 85.668 55.4C85.9027 55.56 86.036 55.7733 86.068 56.04C86.1107 56.3067 86.0733 56.5573 85.956 56.792C85.8493 57.016 85.684 57.1867 85.46 57.304C85.236 57.4213 84.9747 57.416 84.676 57.288C84.4413 57.1813 84.2333 57.1227 84.052 57.112C83.8707 57.1013 83.6893 57.1227 83.508 57.176C83.2947 57.24 83.124 57.384 82.996 57.608C82.8787 57.832 82.788 58.0987 82.724 58.408C82.7027 58.4933 82.7133 58.5627 82.756 58.616C82.7987 58.6587 82.8627 58.6693 82.948 58.648C83.1613 58.616 83.3853 58.5787 83.62 58.536C83.8547 58.4933 84.116 58.472 84.404 58.472C84.5533 58.472 84.6973 58.488 84.836 58.52C84.9747 58.552 85.0973 58.6107 85.204 58.696C85.3107 58.7813 85.396 58.904 85.46 59.064C85.524 59.2133 85.556 59.4107 85.556 59.656C85.556 59.9013 85.5187 60.104 85.444 60.264C85.38 60.4133 85.2893 60.5307 85.172 60.616C85.0653 60.7013 84.9427 60.76 84.804 60.792C84.6653 60.824 84.5213 60.84 84.372 60.84C84.116 60.84 83.86 60.8187 83.604 60.776C83.3587 60.7333 83.108 60.696 82.852 60.664C82.7667 60.6533 82.6973 60.6693 82.644 60.712C82.6013 60.7547 82.5853 60.8187 82.596 60.904V60.984C82.628 61.528 82.6653 62.008 82.708 62.424C82.7613 62.8293 82.8093 63.208 82.852 63.56C82.9053 63.912 82.948 64.2533 82.98 64.584C83.012 64.9147 83.028 65.2667 83.028 65.64C83.028 65.7893 83.0067 65.944 82.964 66.104C82.932 66.2533 82.8627 66.3973 82.756 66.536C82.6493 66.664 82.4947 66.7707 82.292 66.856C82.1 66.9413 81.8387 66.984 81.508 66.984C81.188 66.984 80.9267 66.9467 80.724 66.872C80.5213 66.7867 80.3667 66.68 80.26 66.552C80.1533 66.424 80.0787 66.2853 80.036 66.136C80.004 65.976 79.988 65.8213 79.988 65.672C79.988 65.256 79.9987 64.8667 80.02 64.504C80.0413 64.1413 80.0627 63.7947 80.084 63.464C80.116 63.1227 80.1427 62.792 80.164 62.472C80.1853 62.1413 80.196 61.8053 80.196 61.464V61.112C80.196 60.952 80.1053 60.856 79.924 60.824C79.7 60.792 79.5187 60.696 79.38 60.536C79.2413 60.3653 79.1667 60.072 79.156 59.656C79.1453 59.208 79.22 58.904 79.38 58.744C79.54 58.584 79.748 58.4933 80.004 58.472C80.1853 58.4507 80.2867 58.36 80.308 58.2Z" fill="black"/>
</svg>
