<svg width="115" height="70" viewBox="0 0 115 70" fill="none" xmlns="http://www.w3.org/2000/svg">
<path fill-rule="evenodd" clip-rule="evenodd" d="M115 0H0V70H115V0ZM46.9808 12.08C47.0875 11.7707 47.1781 11.4773 47.2528 11.2C47.3061 10.9973 47.4341 10.8853 47.6368 10.864C47.7328 10.8533 47.8341 10.848 47.9408 10.848C48.0581 10.8373 48.1861 10.832 48.3248 10.832H48.9648H49.2848C49.3915 10.832 49.4928 10.8373 49.5888 10.848C49.7915 10.8693 49.9195 10.9813 49.9728 11.184C50.0475 11.4613 50.1328 11.7547 50.2288 12.064C50.3355 12.3733 50.4741 12.7307 50.6448 13.136C50.7301 13.3493 50.8635 13.5467 51.0448 13.728C51.2368 13.9093 51.4981 14 51.8288 14C52.0528 14 52.3248 13.936 52.6448 13.808C52.9541 13.68 53.1835 13.536 53.3328 13.376C53.4928 13.2053 53.5995 13.0347 53.6528 12.864C53.7168 12.6827 53.7381 12.5067 53.7168 12.336C53.6955 12.1653 53.6528 12.0107 53.5888 11.872C52.9488 10.3787 52.3728 8.88533 51.8608 7.392C51.3595 5.89867 50.8421 4.368 50.3088 2.8C50.2235 2.55467 50.0315 2.352 49.7328 2.192C49.4341 2.032 49.0608 1.952 48.6128 1.952C48.1648 1.952 47.7915 2.032 47.4928 2.192C47.1941 2.352 47.0021 2.55467 46.9168 2.8C46.3941 4.368 45.8768 5.89867 45.3648 7.392C44.8528 8.88533 44.2768 10.3787 43.6368 11.872C43.5728 12.0107 43.5301 12.1653 43.5088 12.336C43.4875 12.5067 43.5035 12.6827 43.5568 12.864C43.6208 13.0347 43.7328 13.2053 43.8928 13.376C44.0528 13.536 44.2821 13.68 44.5808 13.808C44.9008 13.936 45.1728 14 45.3968 14C45.7275 14 45.9835 13.9093 46.1648 13.728C46.3568 13.5467 46.4955 13.3493 46.5808 13.136C46.7515 12.7307 46.8848 12.3787 46.9808 12.08ZM48.3728 6.096C48.4261 5.872 48.4741 5.68533 48.5168 5.536C48.5381 5.45067 48.5701 5.408 48.6128 5.408C48.6555 5.408 48.6875 5.45067 48.7088 5.536C48.7515 5.68533 48.7995 5.87733 48.8528 6.112C48.9061 6.336 48.9595 6.576 49.0128 6.832C49.0661 7.088 49.1195 7.34933 49.1728 7.616C49.2261 7.88267 49.2741 8.13867 49.3168 8.384C49.3488 8.58667 49.2688 8.688 49.0768 8.688H48.9648H48.3248H48.1488C47.9568 8.688 47.8768 8.58133 47.9088 8.368C47.9621 8.12267 48.0101 7.86667 48.0528 7.6C48.1061 7.33333 48.1595 7.072 48.2128 6.816C48.2661 6.56 48.3195 6.32 48.3728 6.096ZM57.7353 9.2C57.746 9.136 57.7513 9.07733 57.7513 9.024C57.762 8.90667 57.7886 8.78933 57.8313 8.672C57.8846 8.544 57.954 8.43733 58.0393 8.352C58.2206 8.17067 58.402 8.04267 58.5833 7.968C58.7646 7.89333 58.9353 7.85067 59.0953 7.84C59.2553 7.81867 59.4046 7.824 59.5433 7.856C59.682 7.888 59.7993 7.92 59.8953 7.952C60.13 8.02667 60.354 8.05867 60.5673 8.048C60.7806 8.03733 60.9566 7.968 61.0953 7.84C61.2553 7.69067 61.3833 7.47733 61.4793 7.2C61.5753 6.92267 61.5913 6.65067 61.5273 6.384C61.474 6.10667 61.3193 5.872 61.0633 5.68C60.818 5.47733 60.4286 5.376 59.8953 5.376C59.4793 5.376 59.1166 5.48267 58.8073 5.696C58.5086 5.89867 58.2526 6.144 58.0393 6.432C58.0073 6.18667 57.8793 5.95733 57.6553 5.744C57.442 5.53067 57.0686 5.424 56.5353 5.424C56.226 5.424 55.97 5.46667 55.7673 5.552C55.5753 5.62667 55.4206 5.72267 55.3033 5.84C55.1966 5.95733 55.122 6.08533 55.0793 6.224C55.0366 6.36267 55.0153 6.496 55.0153 6.624C55.0153 6.816 55.0313 7.01867 55.0633 7.232C55.0953 7.44533 55.1326 7.66933 55.1753 7.904C55.218 8.13867 55.2553 8.384 55.2873 8.64C55.3193 8.88533 55.3353 9.13067 55.3353 9.376V10.064C55.3353 10.3093 55.3193 10.5547 55.2873 10.8C55.2553 11.0453 55.218 11.2853 55.1753 11.52C55.1326 11.7547 55.0953 11.9787 55.0633 12.192C55.0313 12.4053 55.0153 12.608 55.0153 12.8C55.0153 12.928 55.0366 13.0613 55.0793 13.2C55.122 13.3387 55.1966 13.472 55.3033 13.6C55.4206 13.7173 55.5753 13.8133 55.7673 13.888C55.97 13.9627 56.226 14 56.5353 14C56.8446 14 57.0953 13.9627 57.2873 13.888C57.4793 13.8133 57.634 13.7173 57.7513 13.6C57.8686 13.4827 57.9486 13.36 57.9913 13.232C58.034 13.0933 58.0553 12.96 58.0553 12.832C58.0553 12.384 58.002 11.936 57.8953 11.488C57.7886 11.0293 57.7353 10.5547 57.7353 10.064V9.376V9.2ZM66.2356 12.32C66.4169 12.064 66.6089 11.808 66.8116 11.552C66.8969 11.456 66.9769 11.408 67.0516 11.408C67.1476 11.408 67.2276 11.456 67.2916 11.552C67.5369 11.8613 67.7609 12.16 67.9636 12.448C68.1769 12.736 68.3902 12.9973 68.6036 13.232C68.6676 13.3067 68.7422 13.392 68.8276 13.488C68.9129 13.5733 69.0036 13.6587 69.0996 13.744C69.2062 13.8187 69.3236 13.8827 69.4516 13.936C69.5796 13.9893 69.7182 14.016 69.8676 14.016C70.0169 14.016 70.1716 13.984 70.3316 13.92C70.5022 13.8453 70.6782 13.728 70.8596 13.568C71.1476 13.3227 71.3236 13.0827 71.3876 12.848C71.4516 12.6133 71.4569 12.3947 71.4036 12.192C71.3502 11.9787 71.2596 11.7867 71.1316 11.616C71.0036 11.4453 70.8916 11.3013 70.7956 11.184C70.5822 10.9387 70.3422 10.7093 70.0756 10.496C69.8089 10.272 69.5369 10.048 69.2596 9.824C69.0676 9.664 69.0676 9.504 69.2596 9.344C69.5156 9.13067 69.7556 8.928 69.9796 8.736C70.2142 8.544 70.4382 8.34667 70.6516 8.144C70.7902 8.016 70.9129 7.888 71.0196 7.76C71.1262 7.62133 71.1956 7.472 71.2276 7.312C71.2702 7.152 71.2596 6.97067 71.1956 6.768C71.1422 6.56533 71.0196 6.32533 70.8276 6.048C70.6782 5.83467 70.5236 5.68533 70.3636 5.6C70.2036 5.51467 70.0382 5.472 69.8676 5.472C69.6756 5.472 69.4889 5.52 69.3076 5.616C69.1369 5.70133 68.9876 5.80267 68.8596 5.92C68.5822 6.16533 68.3316 6.42133 68.1076 6.688C67.8942 6.95467 67.6756 7.22667 67.4516 7.504C67.3769 7.6 67.2916 7.648 67.1956 7.648C67.0996 7.648 67.0196 7.6 66.9556 7.504C66.6889 7.16267 66.4329 6.82667 66.1876 6.496C65.9529 6.16533 65.7236 5.90933 65.4996 5.728C65.1796 5.472 64.8809 5.344 64.6036 5.344C64.2729 5.344 63.9422 5.51467 63.6116 5.856C63.4196 6.05867 63.2809 6.24533 63.1956 6.416C63.1209 6.58667 63.0836 6.752 63.0836 6.912C63.0836 7.06133 63.1102 7.2 63.1636 7.328C63.2276 7.456 63.3076 7.57333 63.4036 7.68C63.6169 7.91467 63.8622 8.16533 64.1396 8.432C64.4276 8.688 64.7262 8.95467 65.0356 9.232C65.2276 9.40267 65.2276 9.57867 65.0356 9.76C64.7902 9.984 64.5556 10.2027 64.3316 10.416C64.1076 10.6293 63.8729 10.864 63.6276 11.12C63.5209 11.2373 63.3982 11.3707 63.2596 11.52C63.1209 11.6693 63.0142 11.84 62.9396 12.032C62.8756 12.224 62.8649 12.4373 62.9076 12.672C62.9502 12.9067 63.0996 13.168 63.3556 13.456C63.5369 13.648 63.7022 13.7867 63.8516 13.872C64.0116 13.9467 64.1662 13.984 64.3156 13.984C64.4649 13.984 64.6036 13.952 64.7316 13.888C64.8702 13.8133 64.9929 13.728 65.0996 13.632C65.2169 13.5253 65.3236 13.4187 65.4196 13.312C65.5156 13.1947 65.5956 13.0987 65.6596 13.024C65.8729 12.8 66.0649 12.5653 66.2356 12.32ZM5.902 29.536C5.87 29.1733 5.83267 28.8213 5.79 28.48C5.76867 28.2987 5.84867 28.208 6.03 28.208H6.446C7.15 28.208 7.806 28.112 8.414 27.92C9.03267 27.728 9.566 27.456 10.014 27.104C10.4727 26.752 10.83 26.32 11.086 25.808C11.3527 25.296 11.486 24.72 11.486 24.08C11.486 22.7467 11.054 21.7333 10.19 21.04C9.33667 20.3467 8.08867 20 6.446 20H4.366C4.03533 20 3.76333 20.0427 3.55 20.128C3.34733 20.2133 3.182 20.3253 3.054 20.464C2.93667 20.592 2.85667 20.736 2.814 20.896C2.77133 21.0453 2.75 21.1947 2.75 21.344C2.75 21.7173 2.766 22.08 2.798 22.432C2.83 22.784 2.86733 23.136 2.91 23.488C2.95267 23.8293 2.99 24.1707 3.022 24.512C3.054 24.8427 3.07 25.1787 3.07 25.52V26.48C3.07 26.8213 3.054 27.1627 3.022 27.504C2.99 27.8347 2.95267 28.176 2.91 28.528C2.86733 28.8693 2.83 29.216 2.798 29.568C2.766 29.92 2.75 30.2827 2.75 30.656C2.75 30.8053 2.77133 30.96 2.814 31.12C2.85667 31.2693 2.93667 31.4133 3.054 31.552C3.17133 31.68 3.33133 31.7867 3.534 31.872C3.74733 31.9573 4.01933 32 4.35 32C4.67 32 4.93133 31.9627 5.134 31.888C5.34733 31.8027 5.51267 31.696 5.63 31.568C5.758 31.44 5.84333 31.3013 5.886 31.152C5.92867 30.992 5.95 30.8373 5.95 30.688C5.95 30.272 5.934 29.888 5.902 29.536ZM7.486 25.824C7.20867 25.9413 6.862 26 6.446 26H5.902C5.72067 26 5.63 25.9093 5.63 25.728V25.52C5.63 25.008 5.662 24.5173 5.726 24.048C5.79 23.5787 5.84867 23.072 5.902 22.528C5.92333 22.3467 6.01933 22.256 6.19 22.256H6.446C6.894 22.256 7.262 22.3093 7.55 22.416C7.84867 22.5227 8.08333 22.6613 8.254 22.832C8.42467 23.0027 8.542 23.1947 8.606 23.408C8.67 23.6213 8.702 23.84 8.702 24.064C8.702 24.288 8.65933 24.5173 8.574 24.752C8.49933 24.976 8.37133 25.184 8.19 25.376C8.00867 25.5573 7.774 25.7067 7.486 25.824ZM13.2591 26.64C13.2911 26.8853 13.3071 27.1307 13.3071 27.376V28.064C13.3071 28.3093 13.2911 28.5547 13.2591 28.8C13.2271 29.0453 13.1898 29.2853 13.1471 29.52C13.1045 29.7547 13.0671 29.9787 13.0351 30.192C13.0031 30.4053 12.9871 30.608 12.9871 30.8C12.9871 30.928 13.0085 31.0613 13.0511 31.2C13.0938 31.3387 13.1685 31.472 13.2751 31.6C13.3925 31.7173 13.5471 31.8133 13.7391 31.888C13.9418 31.9627 14.1978 32 14.5071 32C14.8165 32 15.0671 31.9627 15.2591 31.888C15.4511 31.8133 15.6058 31.7173 15.7231 31.6C15.8405 31.4827 15.9205 31.36 15.9631 31.232C16.0058 31.0933 16.0271 30.96 16.0271 30.832C16.0271 30.384 15.9738 29.936 15.8671 29.488C15.7605 29.0293 15.7071 28.5547 15.7071 28.064V27.376C15.7071 26.8747 15.7605 26.4 15.8671 25.952C15.9738 25.4933 16.0271 25.0453 16.0271 24.608C16.0271 24.48 16.0058 24.3467 15.9631 24.208C15.9205 24.0693 15.8405 23.9413 15.7231 23.824C15.6058 23.7067 15.4511 23.6107 15.2591 23.536C15.0671 23.4613 14.8165 23.424 14.5071 23.424C14.1978 23.424 13.9418 23.4667 13.7391 23.552C13.5471 23.6267 13.3925 23.7227 13.2751 23.84C13.1685 23.9573 13.0938 24.0853 13.0511 24.224C13.0085 24.3627 12.9871 24.496 12.9871 24.624C12.9871 24.816 13.0031 25.0187 13.0351 25.232C13.0671 25.4453 13.1045 25.6693 13.1471 25.904C13.1898 26.1387 13.2271 26.384 13.2591 26.64ZM13.3391 20.624C13.0618 20.8373 12.9231 21.1093 12.9231 21.44C12.9231 21.7813 13.0618 22.0587 13.3391 22.272C13.6271 22.4853 14.0058 22.592 14.4751 22.592C14.9338 22.592 15.3018 22.4853 15.5791 22.272C15.8671 22.0587 16.0111 21.7813 16.0111 21.44C16.0111 21.1093 15.8671 20.8373 15.5791 20.624C15.3018 20.4 14.9338 20.288 14.4751 20.288C14.0058 20.288 13.6271 20.4 13.3391 20.624ZM20.7371 29.424C20.7478 29.3813 20.7958 29.3493 20.8811 29.328C21.3931 29.1893 21.8945 29.0187 22.3851 28.816C22.8758 28.6133 23.3398 28.3787 23.7771 28.112C24.2251 27.8453 24.5665 27.5413 24.8011 27.2C25.0465 26.8587 25.1958 26.512 25.2491 26.16C25.3131 25.7973 25.2865 25.4453 25.1691 25.104C25.0625 24.7627 24.8758 24.4587 24.6091 24.192C24.3531 23.9253 24.0225 23.712 23.6171 23.552C23.2118 23.3813 22.7478 23.296 22.2251 23.296C21.5638 23.296 20.9398 23.408 20.3531 23.632C19.7665 23.856 19.2545 24.1707 18.8171 24.576C18.3905 24.9813 18.0491 25.4667 17.7931 26.032C17.5478 26.5867 17.4251 27.2053 17.4251 27.888C17.4251 28.6453 17.5371 29.296 17.7611 29.84C17.9958 30.3733 18.3105 30.816 18.7051 31.168C19.1105 31.5093 19.5851 31.76 20.1291 31.92C20.6731 32.08 21.2651 32.16 21.9051 32.16C22.2251 32.16 22.5611 32.128 22.9131 32.064C23.2651 32 23.6065 31.9147 23.9371 31.808C24.2785 31.6907 24.5878 31.552 24.8651 31.392C25.1531 31.2213 25.3825 31.04 25.5531 30.848C25.7451 30.624 25.8411 30.384 25.8411 30.128C25.8518 29.872 25.7931 29.632 25.6651 29.408C25.5478 29.184 25.3825 28.9973 25.1691 28.848C24.9665 28.6987 24.7425 28.624 24.4971 28.624C24.2305 28.624 23.9905 28.7147 23.7771 28.896C23.4785 29.152 23.1958 29.3653 22.9291 29.536C22.6625 29.7067 22.3265 29.792 21.9211 29.792C21.4838 29.792 21.1265 29.712 20.8491 29.552C20.7745 29.5093 20.7371 29.4667 20.7371 29.424ZM20.2251 27.488C20.0545 27.5413 19.9798 27.4773 20.0011 27.296C20.0865 26.7093 20.3105 26.2507 20.6731 25.92C21.0358 25.5893 21.5051 25.424 22.0811 25.424C22.2411 25.424 22.3691 25.4773 22.4651 25.584C22.5611 25.68 22.6145 25.7973 22.6251 25.936C22.6465 26.0747 22.6198 26.2133 22.5451 26.352C22.4811 26.4907 22.3638 26.6027 22.1931 26.688C21.8198 26.8693 21.4678 27.024 21.1371 27.152C20.8171 27.28 20.5131 27.392 20.2251 27.488ZM29.5779 25.68C29.9192 25.6053 30.2712 25.568 30.6339 25.568C30.8899 25.568 30.9485 25.6747 30.8099 25.888L30.6499 26.112C30.5965 26.176 30.5432 26.2453 30.4899 26.32L29.5779 27.44C29.4285 27.6213 29.2739 27.7867 29.1139 27.936C28.9645 28.0853 28.8099 28.2347 28.6499 28.384C28.5005 28.5333 28.3405 28.688 28.1699 28.848C28.0099 29.008 27.8445 29.1947 27.6739 29.408C27.6419 29.44 27.6205 29.4667 27.6099 29.488C27.4819 29.584 27.3805 29.728 27.3059 29.92C27.2312 30.112 27.1992 30.3573 27.2099 30.656C27.2205 31.1573 27.3165 31.5093 27.4979 31.712C27.6899 31.904 27.9352 32 28.2339 32C28.5859 32 28.9272 31.9627 29.2579 31.888C29.5992 31.8133 29.9565 31.776 30.3299 31.776H31.4499C31.8232 31.776 32.1752 31.8133 32.5059 31.888C32.8472 31.9627 33.1939 32 33.5459 32C33.8445 32 34.1112 31.904 34.3459 31.712C34.5912 31.5093 34.7192 31.1573 34.7299 30.656C34.7299 30.4107 34.6979 30.2027 34.6339 30.032C34.5699 29.8613 34.4845 29.7227 34.3779 29.616C34.2712 29.5093 34.1485 29.4347 34.0099 29.392C33.8712 29.3387 33.7272 29.312 33.5779 29.312C33.3645 29.312 33.1672 29.3227 32.9859 29.344C32.8045 29.3653 32.6285 29.392 32.4579 29.424C32.2979 29.456 32.1325 29.4827 31.9619 29.504C31.8019 29.5253 31.6312 29.536 31.4499 29.536H31.2579C30.9912 29.536 30.9379 29.4293 31.0979 29.216C31.1512 29.1413 31.2205 29.0507 31.3059 28.944L32.2179 27.824C32.5272 27.4507 32.8472 27.12 33.1779 26.832C33.5192 26.544 33.8339 26.224 34.1219 25.872C34.2712 25.6907 34.3832 25.504 34.4579 25.312C34.5325 25.152 34.5699 24.9173 34.5699 24.608C34.5699 24.3627 34.5485 24.1653 34.5059 24.016C34.4632 23.856 34.3939 23.7333 34.2979 23.648C34.2125 23.5627 34.1059 23.504 33.9779 23.472C33.8605 23.44 33.7272 23.424 33.5779 23.424C33.3645 23.424 33.1672 23.4347 32.9859 23.456C32.8045 23.4773 32.6285 23.504 32.4579 23.536C32.2979 23.568 32.1325 23.5947 31.9619 23.616C31.8019 23.6373 31.6312 23.648 31.4499 23.648H30.6499C30.4685 23.648 30.2925 23.6373 30.1219 23.616C29.9619 23.5947 29.7965 23.568 29.6259 23.536C29.4659 23.504 29.2952 23.4773 29.1139 23.456C28.9325 23.4347 28.7352 23.424 28.5219 23.424C28.3725 23.424 28.2285 23.44 28.0899 23.472C27.9512 23.504 27.8285 23.5627 27.7219 23.648C27.6152 23.7333 27.5299 23.856 27.4659 24.016C27.4019 24.1653 27.3699 24.3627 27.3699 24.608C27.3699 24.8533 27.4019 25.056 27.4659 25.216C27.5405 25.3653 27.6312 25.4827 27.7379 25.568C27.8552 25.6533 27.9832 25.712 28.1219 25.744C28.2605 25.776 28.4045 25.792 28.5539 25.792C28.9059 25.792 29.2472 25.7547 29.5779 25.68ZM36.4236 26.032C36.1996 26.5867 36.0876 27.2053 36.0876 27.888C36.0876 28.6453 36.1996 29.296 36.4236 29.84C36.6476 30.3733 36.957 30.816 37.3516 31.168C37.757 31.5093 38.237 31.76 38.7916 31.92C39.357 32.08 39.9756 32.16 40.6476 32.16C41.3196 32.16 41.933 32.08 42.4876 31.92C43.053 31.76 43.533 31.5093 43.9276 31.168C44.333 30.816 44.6423 30.3733 44.8556 29.84C45.0796 29.296 45.1916 28.6453 45.1916 27.888C45.1916 27.2053 45.0796 26.5867 44.8556 26.032C44.6316 25.4667 44.317 24.9813 43.9116 24.576C43.5063 24.1707 43.0263 23.856 42.4716 23.632C41.917 23.408 41.309 23.296 40.6476 23.296C39.9863 23.296 39.373 23.408 38.8076 23.632C38.253 23.856 37.773 24.1707 37.3676 24.576C36.9623 24.9813 36.6476 25.4667 36.4236 26.032ZM38.7116 28.528C38.6583 28.2827 38.6316 28.0213 38.6316 27.744C38.6316 27.0293 38.8076 26.464 39.1596 26.048C39.5116 25.632 40.013 25.424 40.6636 25.424C41.3143 25.424 41.8156 25.632 42.1676 26.048C42.5196 26.464 42.6956 27.0293 42.6956 27.744C42.6956 28.0213 42.6636 28.2827 42.5996 28.528C42.5463 28.7733 42.4396 28.992 42.2796 29.184C42.1303 29.3653 41.9223 29.5147 41.6556 29.632C41.3996 29.7387 41.069 29.792 40.6636 29.792C40.2583 29.792 39.9223 29.7387 39.6556 29.632C39.3996 29.5147 39.1916 29.3653 39.0316 29.184C38.8823 28.992 38.7756 28.7733 38.7116 28.528ZM54.7645 29.536C54.7325 29.1733 54.6952 28.8213 54.6525 28.48C54.6312 28.2987 54.7112 28.208 54.8925 28.208H55.3085C56.0125 28.208 56.6685 28.112 57.2765 27.92C57.8952 27.728 58.4285 27.456 58.8765 27.104C59.3352 26.752 59.6925 26.32 59.9485 25.808C60.2152 25.296 60.3485 24.72 60.3485 24.08C60.3485 22.7467 59.9165 21.7333 59.0525 21.04C58.1992 20.3467 56.9512 20 55.3085 20H53.2285C52.8978 20 52.6258 20.0427 52.4125 20.128C52.2098 20.2133 52.0445 20.3253 51.9165 20.464C51.7992 20.592 51.7192 20.736 51.6765 20.896C51.6338 21.0453 51.6125 21.1947 51.6125 21.344C51.6125 21.7173 51.6285 22.08 51.6605 22.432C51.6925 22.784 51.7298 23.136 51.7725 23.488C51.8152 23.8293 51.8525 24.1707 51.8845 24.512C51.9165 24.8427 51.9325 25.1787 51.9325 25.52V26.48C51.9325 26.8213 51.9165 27.1627 51.8845 27.504C51.8525 27.8347 51.8152 28.176 51.7725 28.528C51.7298 28.8693 51.6925 29.216 51.6605 29.568C51.6285 29.92 51.6125 30.2827 51.6125 30.656C51.6125 30.8053 51.6338 30.96 51.6765 31.12C51.7192 31.2693 51.7992 31.4133 51.9165 31.552C52.0338 31.68 52.1938 31.7867 52.3965 31.872C52.6098 31.9573 52.8818 32 53.2125 32C53.5325 32 53.7938 31.9627 53.9965 31.888C54.2098 31.8027 54.3752 31.696 54.4925 31.568C54.6205 31.44 54.7058 31.3013 54.7485 31.152C54.7912 30.992 54.8125 30.8373 54.8125 30.688C54.8125 30.272 54.7965 29.888 54.7645 29.536ZM56.3485 25.824C56.0712 25.9413 55.7245 26 55.3085 26H54.7645C54.5832 26 54.4925 25.9093 54.4925 25.728V25.52C54.4925 25.008 54.5245 24.5173 54.5885 24.048C54.6525 23.5787 54.7112 23.072 54.7645 22.528C54.7858 22.3467 54.8818 22.256 55.0525 22.256H55.3085C55.7565 22.256 56.1245 22.3093 56.4125 22.416C56.7112 22.5227 56.9458 22.6613 57.1165 22.832C57.2872 23.0027 57.4045 23.1947 57.4685 23.408C57.5325 23.6213 57.5645 23.84 57.5645 24.064C57.5645 24.288 57.5218 24.5173 57.4365 24.752C57.3618 24.976 57.2338 25.184 57.0525 25.376C56.8712 25.5573 56.6365 25.7067 56.3485 25.824ZM64.5056 27.2C64.5163 27.136 64.5216 27.0773 64.5216 27.024C64.5323 26.9067 64.559 26.7893 64.6016 26.672C64.655 26.544 64.7243 26.4373 64.8096 26.352C64.991 26.1707 65.1723 26.0427 65.3536 25.968C65.535 25.8933 65.7056 25.8507 65.8656 25.84C66.0256 25.8187 66.175 25.824 66.3136 25.856C66.4523 25.888 66.5696 25.92 66.6656 25.952C66.9003 26.0267 67.1243 26.0587 67.3376 26.048C67.551 26.0373 67.727 25.968 67.8656 25.84C68.0256 25.6907 68.1536 25.4773 68.2496 25.2C68.3456 24.9227 68.3616 24.6507 68.2976 24.384C68.2443 24.1067 68.0896 23.872 67.8336 23.68C67.5883 23.4773 67.199 23.376 66.6656 23.376C66.2496 23.376 65.887 23.4827 65.5776 23.696C65.279 23.8987 65.023 24.144 64.8096 24.432C64.7776 24.1867 64.6496 23.9573 64.4256 23.744C64.2123 23.5307 63.839 23.424 63.3056 23.424C62.9963 23.424 62.7403 23.4667 62.5376 23.552C62.3456 23.6267 62.191 23.7227 62.0736 23.84C61.967 23.9573 61.8923 24.0853 61.8496 24.224C61.807 24.3627 61.7856 24.496 61.7856 24.624C61.7856 24.816 61.8016 25.0187 61.8336 25.232C61.8656 25.4453 61.903 25.6693 61.9456 25.904C61.9883 26.1387 62.0256 26.384 62.0576 26.64C62.0896 26.8853 62.1056 27.1307 62.1056 27.376V28.064C62.1056 28.3093 62.0896 28.5547 62.0576 28.8C62.0256 29.0453 61.9883 29.2853 61.9456 29.52C61.903 29.7547 61.8656 29.9787 61.8336 30.192C61.8016 30.4053 61.7856 30.608 61.7856 30.8C61.7856 30.928 61.807 31.0613 61.8496 31.2C61.8923 31.3387 61.967 31.472 62.0736 31.6C62.191 31.7173 62.3456 31.8133 62.5376 31.888C62.7403 31.9627 62.9963 32 63.3056 32C63.615 32 63.8656 31.9627 64.0576 31.888C64.2496 31.8133 64.4043 31.7173 64.5216 31.6C64.639 31.4827 64.719 31.36 64.7616 31.232C64.8043 31.0933 64.8256 30.96 64.8256 30.832C64.8256 30.384 64.7723 29.936 64.6656 29.488C64.559 29.0293 64.5056 28.5547 64.5056 28.064V27.376V27.2ZM72.3809 29.424C72.3915 29.3813 72.4395 29.3493 72.5249 29.328C73.0369 29.1893 73.5382 29.0187 74.0289 28.816C74.5195 28.6133 74.9835 28.3787 75.4209 28.112C75.8689 27.8453 76.2102 27.5413 76.4449 27.2C76.6902 26.8587 76.8395 26.512 76.8929 26.16C76.9569 25.7973 76.9302 25.4453 76.8129 25.104C76.7062 24.7627 76.5195 24.4587 76.2529 24.192C75.9969 23.9253 75.6662 23.712 75.2609 23.552C74.8555 23.3813 74.3915 23.296 73.8689 23.296C73.2075 23.296 72.5835 23.408 71.9969 23.632C71.4102 23.856 70.8982 24.1707 70.4609 24.576C70.0342 24.9813 69.6929 25.4667 69.4369 26.032C69.1915 26.5867 69.0689 27.2053 69.0689 27.888C69.0689 28.6453 69.1809 29.296 69.4049 29.84C69.6395 30.3733 69.9542 30.816 70.3489 31.168C70.7542 31.5093 71.2289 31.76 71.7729 31.92C72.3169 32.08 72.9089 32.16 73.5489 32.16C73.8689 32.16 74.2049 32.128 74.5569 32.064C74.9089 32 75.2502 31.9147 75.5809 31.808C75.9222 31.6907 76.2315 31.552 76.5089 31.392C76.7969 31.2213 77.0262 31.04 77.1969 30.848C77.3889 30.624 77.4849 30.384 77.4849 30.128C77.4955 29.872 77.4369 29.632 77.3089 29.408C77.1915 29.184 77.0262 28.9973 76.8129 28.848C76.6102 28.6987 76.3862 28.624 76.1409 28.624C75.8742 28.624 75.6342 28.7147 75.4209 28.896C75.1222 29.152 74.8395 29.3653 74.5729 29.536C74.3062 29.7067 73.9702 29.792 73.5649 29.792C73.1275 29.792 72.7702 29.712 72.4929 29.552C72.4182 29.5093 72.3809 29.4667 72.3809 29.424ZM71.8689 27.488C71.6982 27.5413 71.6235 27.4773 71.6449 27.296C71.7302 26.7093 71.9542 26.2507 72.3169 25.92C72.6795 25.5893 73.1489 25.424 73.7249 25.424C73.8849 25.424 74.0129 25.4773 74.1089 25.584C74.2049 25.68 74.2582 25.7973 74.2689 25.936C74.2902 26.0747 74.2635 26.2133 74.1889 26.352C74.1249 26.4907 74.0075 26.6027 73.8369 26.688C73.4635 26.8693 73.1115 27.024 72.7809 27.152C72.4609 27.28 72.1569 27.392 71.8689 27.488ZM79.1096 26.704C78.9283 27.3227 78.8376 27.9307 78.8376 28.528C78.8376 29.2107 78.8963 29.7867 79.0136 30.256C79.1416 30.7147 79.3283 31.088 79.5736 31.376C79.819 31.6533 80.1176 31.856 80.4696 31.984C80.8323 32.1013 81.2536 32.16 81.7336 32.16C82.363 32.16 82.8696 32.064 83.2536 31.872C83.6483 31.68 83.979 31.4293 84.2456 31.12C84.299 31.3333 84.4323 31.536 84.6456 31.728C84.8696 31.9093 85.2323 32 85.7336 32C86.043 32 86.2936 31.9627 86.4856 31.888C86.6776 31.8133 86.8323 31.7173 86.9496 31.6C87.067 31.4827 87.147 31.36 87.1896 31.232C87.2323 31.0933 87.2536 30.96 87.2536 30.832C87.2536 30.384 87.2003 29.936 87.0936 29.488C86.987 29.0293 86.9336 28.5547 86.9336 28.064V27.376C86.9336 26.8747 86.987 26.4 87.0936 25.952C87.2003 25.4933 87.2536 25.0453 87.2536 24.608C87.2536 24.48 87.2323 24.3467 87.1896 24.208C87.147 24.0693 87.067 23.9413 86.9496 23.824C86.8323 23.7067 86.6776 23.6107 86.4856 23.536C86.2936 23.4613 86.043 23.424 85.7336 23.424C85.371 23.424 85.0883 23.4773 84.8856 23.584C84.683 23.68 84.5283 23.8027 84.4216 23.952C84.1763 23.7493 83.9203 23.5893 83.6536 23.472C83.387 23.3547 83.067 23.296 82.6936 23.296C82.107 23.296 81.5736 23.456 81.0936 23.776C80.6243 24.096 80.219 24.5067 79.8776 25.008C79.547 25.5093 79.291 26.0747 79.1096 26.704ZM81.5096 29.072C81.435 28.8907 81.3976 28.6613 81.3976 28.384C81.3976 28.064 81.435 27.7333 81.5096 27.392C81.595 27.04 81.707 26.72 81.8456 26.432C81.995 26.144 82.1656 25.904 82.3576 25.712C82.5603 25.52 82.7843 25.424 83.0296 25.424C83.3496 25.424 83.6056 25.4773 83.7976 25.584C84.0003 25.6907 84.1496 25.8453 84.2456 26.048C84.3523 26.2507 84.4216 26.496 84.4536 26.784C84.4856 27.072 84.5016 27.392 84.5016 27.744C84.5016 28.0213 84.4696 28.2827 84.4056 28.528C84.3416 28.7733 84.2403 28.992 84.1016 29.184C83.9736 29.3653 83.8083 29.5147 83.6056 29.632C83.403 29.7387 83.1576 29.792 82.8696 29.792C82.667 29.792 82.475 29.7707 82.2936 29.728C82.1123 29.6853 81.9523 29.6107 81.8136 29.504C81.6856 29.3973 81.5843 29.2533 81.5096 29.072ZM91.4212 27.136C91.4212 27.0613 91.4266 26.9813 91.4372 26.896C91.4586 26.6293 91.5546 26.4 91.7253 26.208C91.8852 26.0267 92.0399 25.8933 92.1892 25.808C92.3493 25.712 92.4986 25.648 92.6372 25.616C92.7759 25.584 92.9039 25.5733 93.0212 25.584C93.1492 25.584 93.2612 25.5947 93.3572 25.616C93.8479 25.7227 94.0932 26.5067 94.0932 27.968V28.064C94.0932 28.3093 94.0772 28.5547 94.0452 28.8C94.0133 29.0453 93.9759 29.2853 93.9333 29.52C93.8906 29.7547 93.8532 29.9787 93.8213 30.192C93.7892 30.4053 93.7732 30.608 93.7732 30.8C93.7732 30.928 93.7892 31.0613 93.8213 31.2C93.8532 31.3387 93.9226 31.472 94.0293 31.6C94.1359 31.7173 94.2799 31.8133 94.4613 31.888C94.6533 31.9627 94.9039 32 95.2132 32C95.5226 32 95.7679 31.9627 95.9492 31.888C96.1413 31.8133 96.2852 31.7173 96.3812 31.6C96.4879 31.4827 96.5573 31.36 96.5892 31.232C96.6319 31.0933 96.6533 30.96 96.6533 30.832C96.6533 30.384 96.5999 29.936 96.4932 29.488C96.3866 29.0293 96.3333 28.5547 96.3333 28.064V27.968C96.3333 27.7547 96.3439 27.5467 96.3652 27.344C96.3972 27.1307 96.4292 26.9227 96.4613 26.72C96.4826 26.592 96.5199 26.4693 96.5732 26.352C96.6266 26.224 96.6959 26.1227 96.7812 26.048C97.0799 25.7707 97.3572 25.6213 97.6133 25.6C97.8692 25.568 98.0879 25.5733 98.2692 25.616C98.7599 25.7227 99.0052 26.5067 99.0052 27.968V28.064C99.0052 28.3093 98.9893 28.5547 98.9572 28.8C98.9252 29.0453 98.8879 29.2853 98.8452 29.52C98.8026 29.7547 98.7653 29.9787 98.7332 30.192C98.7012 30.4053 98.6852 30.608 98.6852 30.8C98.6852 30.928 98.7066 31.0613 98.7493 31.2C98.7919 31.3387 98.8666 31.472 98.9733 31.6C99.0906 31.7173 99.2452 31.8133 99.4372 31.888C99.6399 31.9627 99.8959 32 100.205 32C100.515 32 100.765 31.9627 100.957 31.888C101.149 31.8133 101.304 31.7173 101.421 31.6C101.539 31.4827 101.619 31.36 101.661 31.232C101.704 31.0933 101.725 30.96 101.725 30.832C101.725 30.384 101.672 29.936 101.565 29.488C101.459 29.0293 101.405 28.5547 101.405 28.064V27.968C101.405 27.4667 101.459 26.992 101.565 26.544C101.672 26.0853 101.725 25.6373 101.725 25.2C101.725 24.72 101.603 24.3467 101.357 24.08C101.112 23.8027 100.808 23.6 100.445 23.472C100.093 23.344 99.7199 23.28 99.3252 23.28C98.9306 23.28 98.5839 23.312 98.2852 23.376C97.8906 23.4613 97.5492 23.6107 97.2612 23.824C96.9839 24.0373 96.7493 24.2773 96.5573 24.544C96.4506 24.224 96.2692 23.9733 96.0133 23.792C95.7679 23.6 95.4906 23.4667 95.1813 23.392C94.8826 23.3067 94.5679 23.2693 94.2373 23.28C93.9173 23.2907 93.6292 23.3227 93.3732 23.376C92.9999 23.4613 92.6799 23.6 92.4132 23.792C92.1466 23.9733 91.9173 24.1867 91.7253 24.432C91.6932 24.1867 91.5652 23.9573 91.3412 23.744C91.1279 23.5307 90.7546 23.424 90.2212 23.424C89.9119 23.424 89.6559 23.4667 89.4532 23.552C89.2612 23.6267 89.1066 23.7227 88.9893 23.84C88.8826 23.9573 88.8079 24.0853 88.7653 24.224C88.7226 24.3627 88.7012 24.496 88.7012 24.624C88.7012 24.816 88.7172 25.0187 88.7493 25.232C88.7812 25.4453 88.8186 25.6693 88.8613 25.904C88.9039 26.1387 88.9412 26.384 88.9733 26.64C89.0052 26.8853 89.0212 27.1307 89.0212 27.376V28.064C89.0212 28.3093 89.0052 28.5547 88.9733 28.8C88.9412 29.0453 88.9039 29.2853 88.8613 29.52C88.8186 29.7547 88.7812 29.9787 88.7493 30.192C88.7172 30.4053 88.7012 30.608 88.7012 30.8C88.7012 30.928 88.7226 31.0613 88.7653 31.2C88.8079 31.3387 88.8826 31.472 88.9893 31.6C89.1066 31.7173 89.2612 31.8133 89.4532 31.888C89.6559 31.9627 89.9119 32 90.2212 32C90.5306 32 90.7812 31.9627 90.9733 31.888C91.1652 31.8133 91.3199 31.7173 91.4372 31.6C91.5546 31.4827 91.6346 31.36 91.6772 31.232C91.7199 31.0933 91.7412 30.96 91.7412 30.832C91.7412 30.384 91.6879 29.936 91.5812 29.488C91.4746 29.0293 91.4212 28.5547 91.4212 28.064V27.376V27.136ZM112.07 29.616C112.272 29.0187 112.374 28.2987 112.374 27.456C112.374 26.5493 112.24 25.8293 111.974 25.296C111.707 24.752 111.382 24.336 110.998 24.048C110.624 23.76 110.235 23.5733 109.829 23.488C109.424 23.392 109.083 23.344 108.806 23.344C108.229 23.344 107.723 23.4453 107.285 23.648C106.848 23.8507 106.475 24.1173 106.166 24.448C106.091 24.064 105.904 23.808 105.605 23.68C105.318 23.5413 104.992 23.472 104.63 23.472C104.32 23.472 104.07 23.5147 103.878 23.6C103.686 23.6747 103.536 23.776 103.43 23.904C103.323 24.032 103.248 24.176 103.206 24.336C103.174 24.4853 103.158 24.6347 103.158 24.784C103.158 25.2 103.174 25.5893 103.206 25.952C103.238 26.3147 103.275 26.6667 103.318 27.008C103.36 27.3387 103.397 27.6693 103.43 28C103.462 28.32 103.478 28.6507 103.478 28.992V30.464C103.478 30.8053 103.462 31.1413 103.43 31.472C103.397 31.792 103.36 32.1173 103.318 32.448C103.275 32.7893 103.238 33.1413 103.206 33.504C103.174 33.8667 103.158 34.256 103.158 34.672C103.158 34.8213 103.174 34.9707 103.206 35.12C103.248 35.28 103.323 35.424 103.43 35.552C103.536 35.68 103.686 35.7813 103.878 35.856C104.07 35.9413 104.32 35.984 104.63 35.984C105.11 35.984 105.488 35.8827 105.766 35.68C106.054 35.488 106.198 35.1413 106.198 34.64C106.198 34.0427 106.16 33.4773 106.086 32.944C106.011 32.4213 105.952 31.8933 105.91 31.36C106.262 31.616 106.678 31.824 107.158 31.984C107.638 32.1333 108.187 32.208 108.806 32.208C109.275 32.208 109.723 32.1173 110.15 31.936C110.576 31.7547 110.955 31.472 111.285 31.088C111.616 30.704 111.878 30.2133 112.07 29.616ZM109.75 26.976C109.803 27.2213 109.829 27.4827 109.829 27.76C109.829 28.5493 109.664 29.1093 109.334 29.44C109.003 29.76 108.555 29.92 107.99 29.92C107.744 29.92 107.493 29.8773 107.238 29.792C106.981 29.696 106.747 29.5573 106.534 29.376C106.331 29.1947 106.166 28.9707 106.037 28.704C105.91 28.4267 105.851 28.112 105.862 27.76C105.872 27.4933 105.925 27.2373 106.021 26.992C106.128 26.7467 106.272 26.528 106.453 26.336C106.635 26.144 106.854 25.9947 107.11 25.888C107.376 25.7707 107.67 25.712 107.99 25.712C108.352 25.712 108.651 25.7707 108.885 25.888C109.131 25.9947 109.323 26.144 109.462 26.336C109.6 26.5173 109.696 26.7307 109.75 26.976ZM47.5242 45.728C47.4389 46.048 47.3429 46.3627 47.2362 46.672C47.1509 46.9067 47.0655 46.9067 46.9802 46.672C46.8735 46.3627 46.7722 46.048 46.6762 45.728C46.5909 45.408 46.4895 45.088 46.3722 44.768C46.1909 44.288 46.0149 43.8187 45.8442 43.36C45.6735 42.9013 45.4762 42.4747 45.2522 42.08C45.1669 41.9307 45.0389 41.7867 44.8682 41.648C44.7082 41.5093 44.5002 41.44 44.2442 41.44C43.9669 41.44 43.6575 41.5413 43.3162 41.744C43.0495 41.904 42.8575 42.0747 42.7402 42.256C42.6229 42.4373 42.5482 42.6187 42.5162 42.8C42.4949 42.9707 42.5002 43.136 42.5322 43.296C42.5749 43.4453 42.6282 43.5787 42.6922 43.696C42.8842 44.048 43.1242 44.4373 43.4122 44.864C43.7109 45.28 43.9829 45.712 44.2282 46.16L44.5802 46.8C44.8255 47.248 45.0335 47.7013 45.2042 48.16C45.3855 48.608 45.5722 49.0027 45.7642 49.344C45.8709 49.5253 46.0255 49.68 46.2282 49.808C46.4415 49.9253 46.7295 49.984 47.0922 49.984C47.4655 49.984 47.7589 49.9253 47.9722 49.808C48.1855 49.68 48.3455 49.5253 48.4522 49.344C48.6442 49.0027 48.8255 48.608 48.9962 48.16C49.1775 47.7013 49.3909 47.248 49.6362 46.8L49.9882 46.16C50.2335 45.712 50.5002 45.28 50.7882 44.864C51.0869 44.4373 51.3322 44.048 51.5242 43.696C51.5882 43.5787 51.6362 43.4453 51.6682 43.296C51.7109 43.136 51.7162 42.9707 51.6842 42.8C51.6629 42.6187 51.5935 42.4373 51.4762 42.256C51.3589 42.0747 51.1669 41.904 50.9002 41.744C50.5589 41.5413 50.2495 41.44 49.9722 41.44C49.7162 41.44 49.5029 41.5093 49.3322 41.648C49.1722 41.7867 49.0495 41.9307 48.9642 42.08C48.7402 42.4747 48.5429 42.9013 48.3722 43.36C48.2015 43.808 48.0255 44.2773 47.8442 44.768C47.7269 45.088 47.6202 45.408 47.5242 45.728ZM56.2372 44.624C56.3865 44.6027 56.5519 44.592 56.7332 44.592C57.0105 44.592 57.2612 44.6347 57.4852 44.72C57.7092 44.7947 57.8959 44.9013 58.0452 45.04C58.2052 45.168 58.3279 45.3173 58.4132 45.488C58.4985 45.648 58.5412 45.8133 58.5412 45.984C58.5412 46.3253 58.4879 46.5973 58.3812 46.8C58.2852 47.0027 58.1625 47.1573 58.0132 47.264C57.8745 47.3707 57.7199 47.44 57.5492 47.472C57.3785 47.504 57.2292 47.52 57.1012 47.52C56.7599 47.52 56.4612 47.4187 56.2052 47.216C55.9599 47.0133 55.7465 46.8053 55.5652 46.592C55.3839 46.368 55.1705 46.2187 54.9252 46.144C54.6905 46.0693 54.4559 46.0587 54.2212 46.112C53.9972 46.1547 53.7839 46.2507 53.5812 46.4C53.3892 46.5493 53.2452 46.7307 53.1492 46.944C53.0639 47.1573 53.0372 47.3973 53.0692 47.664C53.1119 47.92 53.2452 48.1813 53.4692 48.448C53.8745 48.9173 54.3812 49.3227 54.9892 49.664C55.5972 49.9947 56.3012 50.16 57.1012 50.16C57.7732 50.16 58.3705 50.0587 58.8932 49.856C59.4265 49.6533 59.8692 49.376 60.2212 49.024C60.5839 48.6613 60.8612 48.2293 61.0532 47.728C61.2452 47.2267 61.3412 46.6773 61.3412 46.08C61.3412 45.76 61.3039 45.4507 61.2292 45.152C61.1652 44.8533 61.0585 44.5813 60.9092 44.336C60.7705 44.0907 60.5945 43.8827 60.3812 43.712C60.1679 43.5307 59.9225 43.3973 59.6452 43.312C59.8479 43.1627 60.0292 43.0133 60.1892 42.864C60.3599 42.704 60.4985 42.528 60.6052 42.336C60.7225 42.144 60.8079 41.9307 60.8612 41.696C60.9252 41.4613 60.9572 41.1947 60.9572 40.896C60.9572 40.384 60.8612 39.9413 60.6692 39.568C60.4772 39.184 60.2105 38.864 59.8692 38.608C59.5385 38.352 59.1385 38.16 58.6692 38.032C58.2105 37.904 57.7092 37.84 57.1652 37.84C56.9092 37.84 56.6319 37.8613 56.3332 37.904C56.0452 37.9467 55.7625 38.0053 55.4852 38.08C55.2079 38.1547 54.9359 38.2453 54.6692 38.352C54.4132 38.448 54.1892 38.56 53.9972 38.688C53.6132 38.9333 53.3839 39.216 53.3092 39.536C53.2452 39.8453 53.2825 40.1227 53.4212 40.368C53.5705 40.6133 53.7839 40.7947 54.0612 40.912C54.3492 41.0293 54.6532 41.0187 54.9732 40.88C55.1332 40.8053 55.2985 40.7253 55.4692 40.64C55.6399 40.544 55.8105 40.4587 55.9812 40.384C56.1625 40.2987 56.3492 40.2293 56.5412 40.176C56.7439 40.1227 56.9519 40.096 57.1652 40.096C57.2932 40.096 57.4265 40.112 57.5652 40.144C57.7039 40.176 57.8265 40.2347 57.9332 40.32C58.0505 40.3947 58.1465 40.496 58.2212 40.624C58.2959 40.752 58.3332 40.912 58.3332 41.104C58.3332 41.3067 58.3119 41.4933 58.2692 41.664C58.2372 41.8347 58.1572 41.9787 58.0292 42.096C57.9119 42.2027 57.7359 42.288 57.5012 42.352C57.2665 42.416 56.9572 42.448 56.5732 42.448C56.4132 42.448 56.2692 42.4373 56.1412 42.416C56.0132 42.3947 55.8852 42.368 55.7572 42.336C55.6292 42.304 55.4959 42.2773 55.3572 42.256C55.2292 42.2347 55.0852 42.224 54.9252 42.224C54.7759 42.224 54.6319 42.2453 54.4932 42.288C54.3545 42.3307 54.2319 42.4053 54.1252 42.512C54.0185 42.608 53.9332 42.7413 53.8692 42.912C53.8052 43.072 53.7732 43.2747 53.7732 43.52C53.7839 44.0107 53.9065 44.352 54.1412 44.544C54.3865 44.7253 54.6585 44.816 54.9572 44.816C55.1385 44.816 55.2932 44.8053 55.4212 44.784C55.5599 44.7627 55.6932 44.736 55.8212 44.704C55.9599 44.672 56.0985 44.6453 56.2372 44.624ZM63.0947 47.776C62.828 48.0213 62.6947 48.352 62.6947 48.768C62.6947 49.1947 62.828 49.5307 63.0947 49.776C63.3614 50.0213 63.7507 50.144 64.2627 50.144C64.7747 50.144 65.164 50.0213 65.4307 49.776C65.6974 49.5307 65.8307 49.1947 65.8307 48.768C65.8307 48.352 65.6974 48.0213 65.4307 47.776C65.164 47.5307 64.7747 47.408 64.2627 47.408C63.7507 47.408 63.3614 47.5307 63.0947 47.776ZM69.3761 42.512C69.4081 42.8427 69.4241 43.1787 69.4241 43.52V44.48C69.4241 44.8213 69.4081 45.1627 69.3761 45.504C69.3441 45.8347 69.3067 46.176 69.2641 46.528C69.2214 46.8693 69.1841 47.216 69.1521 47.568C69.1201 47.92 69.1041 48.2827 69.1041 48.656C69.1041 48.8053 69.1254 48.96 69.1681 49.12C69.2107 49.2693 69.2907 49.4133 69.4081 49.552C69.5254 49.68 69.6854 49.7867 69.8881 49.872C70.1014 49.9573 70.3734 50 70.7041 50C71.0241 50 71.2854 49.9627 71.4881 49.888C71.7014 49.8027 71.8667 49.696 71.9841 49.568C72.1121 49.44 72.1974 49.3013 72.2401 49.152C72.2827 48.992 72.3041 48.8373 72.3041 48.688C72.3041 48.272 72.2881 47.8827 72.2561 47.52C72.2241 47.1573 72.1867 46.8107 72.1441 46.48C72.1014 46.1387 72.0641 45.808 72.0321 45.488C72.0001 45.1573 71.9841 44.8213 71.9841 44.48V43.52C71.9841 43.1787 72.0001 42.848 72.0321 42.528C72.0641 42.1973 72.1014 41.8667 72.1441 41.536C72.1867 41.1947 72.2241 40.8427 72.2561 40.48C72.2881 40.1173 72.3041 39.728 72.3041 39.312C72.3041 39.1627 72.2827 39.0133 72.2401 38.864C72.1974 38.704 72.1121 38.56 71.9841 38.432C71.8667 38.304 71.7014 38.2027 71.4881 38.128C71.2854 38.0427 71.0241 38 70.7041 38C70.4161 38 70.1707 38.032 69.9681 38.096C69.7761 38.16 69.6214 38.2453 69.5041 38.352C69.3547 38.4587 69.2321 38.5653 69.1361 38.672C69.0507 38.7787 68.9707 38.8853 68.8961 38.992L68.7041 39.28C68.6401 39.3653 68.5547 39.4507 68.4481 39.536C68.2987 39.6533 68.1441 39.76 67.9841 39.856C67.8347 39.9413 67.6747 40.0533 67.5041 40.192C67.4721 40.2133 67.4187 40.2613 67.3441 40.336C67.2801 40.4107 67.2214 40.5067 67.1681 40.624C67.1254 40.7413 67.1094 40.88 67.1201 41.04C67.1307 41.1893 67.2001 41.3547 67.3281 41.536C67.4561 41.7173 67.5841 41.8453 67.7121 41.92C67.8507 41.9947 67.9787 42.0373 68.0961 42.048C68.2241 42.048 68.3307 42.0373 68.4161 42.016C68.5014 41.984 68.5601 41.952 68.5921 41.92C68.6987 41.8347 68.8054 41.7547 68.9121 41.68C69.0294 41.6053 69.1467 41.5413 69.2641 41.488C69.3067 41.8293 69.3441 42.1707 69.3761 42.512ZM27.1909 62.704C27.0095 63.3227 26.9189 63.9307 26.9189 64.528C26.9189 65.2107 26.9775 65.7867 27.0949 66.256C27.2229 66.7147 27.4095 67.088 27.6549 67.376C27.9002 67.6533 28.1989 67.856 28.5509 67.984C28.9135 68.1013 29.3349 68.16 29.8149 68.16C30.4442 68.16 30.9509 68.064 31.3349 67.872C31.7295 67.68 32.0602 67.4293 32.3269 67.12C32.3802 67.3333 32.5135 67.536 32.7269 67.728C32.9509 67.9093 33.3135 68 33.8149 68C34.1242 68 34.3749 67.9627 34.5669 67.888C34.7589 67.8133 34.9135 67.7173 35.0309 67.6C35.1482 67.4827 35.2282 67.36 35.2709 67.232C35.3135 67.0933 35.3349 66.96 35.3349 66.832C35.3349 66.384 35.2815 65.936 35.1749 65.488C35.0682 65.0293 35.0149 64.5547 35.0149 64.064V63.376C35.0149 62.8747 35.0682 62.4 35.1749 61.952C35.2815 61.4933 35.3349 61.0453 35.3349 60.608C35.3349 60.48 35.3135 60.3467 35.2709 60.208C35.2282 60.0693 35.1482 59.9413 35.0309 59.824C34.9135 59.7067 34.7589 59.6107 34.5669 59.536C34.3749 59.4613 34.1242 59.424 33.8149 59.424C33.4522 59.424 33.1695 59.4773 32.9669 59.584C32.7642 59.68 32.6095 59.8027 32.5029 59.952C32.2575 59.7493 32.0015 59.5893 31.7349 59.472C31.4682 59.3547 31.1482 59.296 30.7749 59.296C30.1882 59.296 29.6549 59.456 29.1749 59.776C28.7055 60.096 28.3002 60.5067 27.9589 61.008C27.6282 61.5093 27.3722 62.0747 27.1909 62.704ZM29.5909 65.072C29.5162 64.8907 29.4789 64.6613 29.4789 64.384C29.4789 64.064 29.5162 63.7333 29.5909 63.392C29.6762 63.04 29.7882 62.72 29.9269 62.432C30.0762 62.144 30.2469 61.904 30.4389 61.712C30.6415 61.52 30.8655 61.424 31.1109 61.424C31.4309 61.424 31.6869 61.4773 31.8789 61.584C32.0815 61.6907 32.2309 61.8453 32.3269 62.048C32.4335 62.2507 32.5029 62.496 32.5349 62.784C32.5669 63.072 32.5829 63.392 32.5829 63.744C32.5829 64.0213 32.5509 64.2827 32.4869 64.528C32.4229 64.7733 32.3215 64.992 32.1829 65.184C32.0549 65.3653 31.8895 65.5147 31.6869 65.632C31.4842 65.7387 31.2389 65.792 30.9509 65.792C30.7482 65.792 30.5562 65.7707 30.3749 65.728C30.1935 65.6853 30.0335 65.6107 29.8949 65.504C29.7669 65.3973 29.6655 65.2533 29.5909 65.072ZM39.5025 63.2C39.5132 63.136 39.5185 63.0773 39.5185 63.024C39.5292 62.9067 39.5558 62.7893 39.5985 62.672C39.6518 62.544 39.7212 62.4373 39.8065 62.352C39.9878 62.1707 40.1692 62.0427 40.3505 61.968C40.5318 61.8933 40.7025 61.8507 40.8625 61.84C41.0225 61.8187 41.1718 61.824 41.3105 61.856C41.4492 61.888 41.5665 61.92 41.6625 61.952C41.8972 62.0267 42.1212 62.0587 42.3345 62.048C42.5478 62.0373 42.7238 61.968 42.8625 61.84C43.0225 61.6907 43.1505 61.4773 43.2465 61.2C43.3425 60.9227 43.3585 60.6507 43.2945 60.384C43.2412 60.1067 43.0865 59.872 42.8305 59.68C42.5852 59.4773 42.1958 59.376 41.6625 59.376C41.2465 59.376 40.8838 59.4827 40.5745 59.696C40.2758 59.8987 40.0198 60.144 39.8065 60.432C39.7745 60.1867 39.6465 59.9573 39.4225 59.744C39.2092 59.5307 38.8358 59.424 38.3025 59.424C37.9932 59.424 37.7372 59.4667 37.5345 59.552C37.3425 59.6267 37.1878 59.7227 37.0705 59.84C36.9638 59.9573 36.8892 60.0853 36.8465 60.224C36.8038 60.3627 36.7825 60.496 36.7825 60.624C36.7825 60.816 36.7985 61.0187 36.8305 61.232C36.8625 61.4453 36.8998 61.6693 36.9425 61.904C36.9852 62.1387 37.0225 62.384 37.0545 62.64C37.0865 62.8853 37.1025 63.1307 37.1025 63.376V64.064C37.1025 64.3093 37.0865 64.5547 37.0545 64.8C37.0225 65.0453 36.9852 65.2853 36.9425 65.52C36.8998 65.7547 36.8625 65.9787 36.8305 66.192C36.7985 66.4053 36.7825 66.608 36.7825 66.8C36.7825 66.928 36.8038 67.0613 36.8465 67.2C36.8892 67.3387 36.9638 67.472 37.0705 67.6C37.1878 67.7173 37.3425 67.8133 37.5345 67.888C37.7372 67.9627 37.9932 68 38.3025 68C38.6118 68 38.8625 67.9627 39.0545 67.888C39.2465 67.8133 39.4012 67.7173 39.5185 67.6C39.6358 67.4827 39.7158 67.36 39.7585 67.232C39.8012 67.0933 39.8225 66.96 39.8225 66.832C39.8225 66.384 39.7692 65.936 39.6625 65.488C39.5558 65.0293 39.5025 64.5547 39.5025 64.064V63.376V63.2ZM48.0028 66.32C48.1841 66.064 48.3761 65.808 48.5788 65.552C48.6641 65.456 48.7441 65.408 48.8188 65.408C48.9147 65.408 48.9948 65.456 49.0588 65.552C49.3041 65.8613 49.5281 66.16 49.7308 66.448C49.9441 66.736 50.1574 66.9973 50.3708 67.232C50.4347 67.3067 50.5094 67.392 50.5947 67.488C50.6801 67.5733 50.7708 67.6587 50.8668 67.744C50.9734 67.8187 51.0908 67.8827 51.2188 67.936C51.3468 67.9893 51.4854 68.016 51.6348 68.016C51.7841 68.016 51.9388 67.984 52.0988 67.92C52.2694 67.8453 52.4454 67.728 52.6268 67.568C52.9147 67.3227 53.0908 67.0827 53.1548 66.848C53.2188 66.6133 53.2241 66.3947 53.1708 66.192C53.1174 65.9787 53.0268 65.7867 52.8988 65.616C52.7708 65.4453 52.6588 65.3013 52.5628 65.184C52.3494 64.9387 52.1094 64.7093 51.8428 64.496C51.5761 64.272 51.3041 64.048 51.0268 63.824C50.8348 63.664 50.8348 63.504 51.0268 63.344C51.2827 63.1307 51.5228 62.928 51.7467 62.736C51.9814 62.544 52.2054 62.3467 52.4188 62.144C52.5574 62.016 52.6801 61.888 52.7868 61.76C52.8934 61.6213 52.9628 61.472 52.9948 61.312C53.0374 61.152 53.0268 60.9707 52.9628 60.768C52.9094 60.5653 52.7868 60.3253 52.5947 60.048C52.4454 59.8347 52.2908 59.6853 52.1308 59.6C51.9708 59.5147 51.8054 59.472 51.6348 59.472C51.4428 59.472 51.2561 59.52 51.0748 59.616C50.9041 59.7013 50.7547 59.8027 50.6268 59.92C50.3494 60.1653 50.0988 60.4213 49.8748 60.688C49.6614 60.9547 49.4427 61.2267 49.2188 61.504C49.1441 61.6 49.0588 61.648 48.9627 61.648C48.8668 61.648 48.7868 61.6 48.7228 61.504C48.4561 61.1627 48.2001 60.8267 47.9548 60.496C47.7201 60.1653 47.4907 59.9093 47.2668 59.728C46.9468 59.472 46.6481 59.344 46.3708 59.344C46.0401 59.344 45.7094 59.5147 45.3787 59.856C45.1868 60.0587 45.0481 60.2453 44.9627 60.416C44.8881 60.5867 44.8507 60.752 44.8507 60.912C44.8507 61.0613 44.8774 61.2 44.9308 61.328C44.9948 61.456 45.0747 61.5733 45.1707 61.68C45.3841 61.9147 45.6294 62.1653 45.9067 62.432C46.1948 62.688 46.4934 62.9547 46.8027 63.232C46.9948 63.4027 46.9948 63.5787 46.8027 63.76C46.5574 63.984 46.3228 64.2027 46.0988 64.416C45.8748 64.6293 45.6401 64.864 45.3948 65.12C45.2881 65.2373 45.1654 65.3707 45.0268 65.52C44.8881 65.6693 44.7814 65.84 44.7067 66.032C44.6427 66.224 44.6321 66.4373 44.6748 66.672C44.7174 66.9067 44.8668 67.168 45.1227 67.456C45.3041 67.648 45.4694 67.7867 45.6188 67.872C45.7788 67.9467 45.9334 67.984 46.0828 67.984C46.2321 67.984 46.3708 67.952 46.4988 67.888C46.6374 67.8133 46.7601 67.728 46.8668 67.632C46.9841 67.5253 47.0908 67.4187 47.1868 67.312C47.2827 67.1947 47.3628 67.0987 47.4268 67.024C47.6401 66.8 47.8321 66.5653 48.0028 66.32ZM54.8744 65.776C54.6077 66.0213 54.4744 66.352 54.4744 66.768C54.4744 67.1947 54.6077 67.5307 54.8744 67.776C55.141 68.0213 55.5304 68.144 56.0424 68.144C56.5544 68.144 56.9437 68.0213 57.2104 67.776C57.477 67.5307 57.6104 67.1947 57.6104 66.768C57.6104 66.352 57.477 66.0213 57.2104 65.776C56.9437 65.5307 56.5544 65.408 56.0424 65.408C55.5304 65.408 55.141 65.5307 54.8744 65.776ZM67.7638 63.968C67.7104 64.288 67.6464 64.6133 67.5718 64.944C67.5504 65.0613 67.5184 65.12 67.4758 65.12C67.4438 65.12 67.4171 65.0613 67.3958 64.944C67.3211 64.6133 67.2571 64.2827 67.2038 63.952C67.1504 63.6107 67.0811 63.2693 66.9958 62.928C66.9318 62.6613 66.8678 62.4053 66.8038 62.16C66.7504 61.904 66.6917 61.6533 66.6278 61.408C66.6491 61.3547 66.6651 61.3067 66.6758 61.264L66.7398 61.104C66.8891 60.72 66.8997 60.4267 66.7718 60.224C66.6438 60.0107 66.3717 59.8133 65.9557 59.632C65.7104 59.5253 65.4918 59.472 65.2998 59.472C65.0438 59.472 64.8411 59.552 64.6918 59.712C64.5531 59.8613 64.4464 60.0213 64.3717 60.192C64.1904 60.5973 64.0464 61.0347 63.9398 61.504C63.8331 61.9627 63.7211 62.4373 63.6038 62.928C63.5291 63.2587 63.4598 63.5787 63.3958 63.888C63.3424 64.1973 63.2838 64.5067 63.2198 64.816C63.1664 65.0613 63.1131 65.0613 63.0598 64.816C62.9958 64.5067 62.9371 64.1973 62.8838 63.888C62.8304 63.5787 62.7664 63.2693 62.6918 62.96C62.5744 62.4693 62.4571 61.9947 62.3398 61.536C62.2331 61.0773 62.0891 60.64 61.9078 60.224C61.8331 60.0533 61.7104 59.888 61.5398 59.728C61.3691 59.568 61.1344 59.488 60.8358 59.488C60.6118 59.488 60.3451 59.552 60.0358 59.68C59.4704 59.9253 59.1131 60.192 58.9638 60.48C58.8144 60.7573 58.8198 61.0933 58.9798 61.488C59.1291 61.8507 59.3211 62.2667 59.5558 62.736C59.7904 63.1947 60.0038 63.6533 60.1958 64.112L60.4678 64.768C60.6598 65.2267 60.8038 65.648 60.8998 66.032C61.0064 66.4053 61.1344 66.768 61.2838 67.12C61.4011 67.3973 61.5878 67.6107 61.8438 67.76C62.0998 67.9093 62.4944 67.984 63.0278 67.984C63.3798 67.984 63.6784 67.9307 63.9238 67.824C64.1691 67.7067 64.3451 67.5253 64.4518 67.28C64.5051 67.152 64.5584 66.992 64.6118 66.8C64.6758 66.5973 64.7398 66.384 64.8038 66.16C64.8678 65.936 64.9318 65.7067 64.9958 65.472C65.0598 65.2373 65.1238 65.0187 65.1878 64.816C65.2198 64.6987 65.2571 64.64 65.2998 64.64C65.3424 64.64 65.3798 64.6987 65.4118 64.816C65.4758 65.0187 65.5398 65.2373 65.6038 65.472C65.6678 65.7067 65.7318 65.936 65.7958 66.16C65.8598 66.384 65.9184 66.5973 65.9718 66.8C66.0358 66.992 66.0944 67.152 66.1478 67.28C66.2651 67.536 66.4571 67.7173 66.7238 67.824C66.9904 67.9307 67.3104 67.984 67.6838 67.984C68.2064 67.984 68.5798 67.904 68.8038 67.744C69.0278 67.5733 69.1931 67.3653 69.2998 67.12C69.4491 66.768 69.5718 66.4053 69.6678 66.032C69.7744 65.648 69.9238 65.2267 70.1158 64.768L70.3878 64.112C70.5798 63.6533 70.7931 63.1947 71.0278 62.736C71.2624 62.2667 71.4544 61.8507 71.6038 61.488C71.7638 61.0933 71.7798 60.7573 71.6518 60.48C71.5344 60.192 71.1931 59.9253 70.6278 59.68C70.3291 59.552 70.0624 59.488 69.8278 59.488C69.5291 59.488 69.2944 59.568 69.1238 59.728C68.9531 59.888 68.8304 60.0533 68.7558 60.224C68.5744 60.64 68.4251 61.0773 68.3078 61.536C68.2011 61.9947 68.0891 62.4693 67.9718 62.96C67.8864 63.3013 67.8171 63.6373 67.7638 63.968ZM76.3242 63.136C76.3456 62.752 76.3776 62.3627 76.4202 61.968C76.4416 61.8507 76.4896 61.76 76.5642 61.696C76.6389 61.632 76.7349 61.6107 76.8522 61.632C77.0762 61.664 77.2949 61.7013 77.5082 61.744C77.7322 61.776 77.9616 61.792 78.1963 61.792C78.3456 61.792 78.4896 61.776 78.6283 61.744C78.7669 61.712 78.8896 61.6533 78.9962 61.568C79.1136 61.4827 79.2042 61.3653 79.2682 61.216C79.3429 61.056 79.3802 60.8533 79.3802 60.608C79.3802 60.3627 79.3483 60.1653 79.2842 60.016C79.2202 59.856 79.1349 59.7333 79.0283 59.648C78.9216 59.5627 78.7989 59.504 78.6602 59.472C78.5216 59.44 78.3776 59.424 78.2282 59.424C78.0149 59.424 77.8176 59.4347 77.6362 59.456C77.4656 59.4773 77.2949 59.504 77.1243 59.536C77.0069 59.5573 76.9163 59.5413 76.8522 59.488C76.7882 59.424 76.7669 59.3333 76.7882 59.216C76.8203 58.9707 76.8363 58.768 76.8363 58.608C76.8363 58.4587 76.8149 58.3093 76.7722 58.16C76.7402 58 76.6709 57.856 76.5642 57.728C76.4576 57.5893 76.3029 57.4773 76.1003 57.392C75.9082 57.3067 75.6469 57.264 75.3162 57.264C74.9962 57.264 74.7349 57.3067 74.5322 57.392C74.3296 57.4667 74.1749 57.568 74.0682 57.696C73.9616 57.824 73.8869 57.968 73.8442 58.128C73.8122 58.2773 73.7962 58.4267 73.7962 58.576V59.04C73.7962 59.2533 73.6736 59.4133 73.4282 59.52C73.2789 59.5947 73.1616 59.7173 73.0762 59.888C73.0016 60.048 72.9696 60.288 72.9802 60.608C72.9909 60.9813 73.0496 61.2533 73.1562 61.424C73.2629 61.584 73.4069 61.6907 73.5882 61.744C73.8549 61.8293 73.9883 61.9733 73.9883 62.176C73.9989 62.3467 74.0042 62.5227 74.0042 62.704V63.264C74.0042 63.6587 73.9883 64.0533 73.9562 64.448C73.9349 64.8427 73.9296 65.2213 73.9402 65.584C73.9509 65.9467 73.9883 66.288 74.0522 66.608C74.1269 66.9173 74.2656 67.1893 74.4682 67.424C74.6709 67.648 74.9482 67.824 75.3002 67.952C75.6523 68.08 76.1109 68.144 76.6762 68.144C76.8682 68.144 77.0816 68.1333 77.3162 68.112C77.5509 68.0907 77.7909 68.048 78.0362 67.984C78.2923 67.9093 78.5376 67.8133 78.7722 67.696C79.0176 67.568 79.2363 67.4027 79.4282 67.2C79.5882 67.04 79.6896 66.8533 79.7322 66.64C79.7856 66.4267 79.7962 66.2133 79.7643 66C79.7322 65.776 79.6629 65.5733 79.5563 65.392C79.4496 65.2 79.3216 65.0507 79.1722 64.944C79.0229 64.8267 78.8522 64.768 78.6602 64.768C78.4789 64.7573 78.2869 64.8267 78.0843 64.976C77.8176 65.1787 77.6149 65.3013 77.4762 65.344C77.3376 65.376 77.1776 65.3653 76.9962 65.312C76.8149 65.2587 76.6709 65.1307 76.5642 64.928C76.4682 64.7147 76.3989 64.4587 76.3562 64.16C76.3242 63.8507 76.3136 63.5093 76.3242 63.136ZM82.58 57.824C82.452 58.2507 82.3613 58.7093 82.308 59.2C82.2867 59.36 82.1853 59.4507 82.004 59.472C81.748 59.4933 81.54 59.584 81.38 59.744C81.22 59.904 81.1453 60.208 81.156 60.656C81.1667 61.072 81.2413 61.3653 81.38 61.536C81.5187 61.696 81.7 61.792 81.924 61.824C82.1053 61.856 82.196 61.952 82.196 62.112V62.464C82.196 62.8053 82.1853 63.1413 82.164 63.472C82.1427 63.792 82.116 64.1227 82.084 64.464C82.0627 64.7947 82.0413 65.1413 82.02 65.504C81.9987 65.8667 81.988 66.256 81.988 66.672C81.988 66.8213 82.004 66.976 82.036 67.136C82.0787 67.2853 82.1533 67.424 82.26 67.552C82.3667 67.68 82.5213 67.7867 82.724 67.872C82.9267 67.9467 83.188 67.984 83.508 67.984C83.8387 67.984 84.1 67.9413 84.292 67.856C84.4947 67.7707 84.6493 67.664 84.756 67.536C84.8627 67.3973 84.932 67.2533 84.964 67.104C85.0067 66.944 85.028 66.7893 85.028 66.64C85.028 66.2667 85.012 65.9147 84.98 65.584C84.948 65.2533 84.9053 64.912 84.852 64.56C84.8093 64.208 84.7613 63.8293 84.708 63.424C84.6653 63.008 84.628 62.528 84.596 61.984V61.904C84.5853 61.8187 84.6013 61.7547 84.644 61.712C84.6973 61.6693 84.7667 61.6533 84.852 61.664C85.108 61.696 85.3587 61.7333 85.604 61.776C85.86 61.8187 86.116 61.84 86.372 61.84C86.5213 61.84 86.6653 61.824 86.804 61.792C86.9427 61.76 87.0653 61.7013 87.172 61.616C87.2893 61.5307 87.38 61.4133 87.444 61.264C87.5187 61.104 87.556 60.9013 87.556 60.656C87.556 60.4107 87.524 60.2133 87.46 60.064C87.396 59.904 87.3107 59.7813 87.204 59.696C87.0973 59.6107 86.9747 59.552 86.836 59.52C86.6973 59.488 86.5533 59.472 86.404 59.472C86.116 59.472 85.8547 59.4933 85.62 59.536C85.3853 59.5787 85.1613 59.616 84.948 59.648C84.8627 59.6693 84.7987 59.6587 84.756 59.616C84.7133 59.5627 84.7027 59.4933 84.724 59.408C84.788 59.0987 84.8787 58.832 84.996 58.608C85.124 58.384 85.2947 58.24 85.508 58.176C85.6893 58.1227 85.8707 58.1013 86.052 58.112C86.2333 58.1227 86.4413 58.1813 86.676 58.288C86.9747 58.416 87.236 58.4213 87.46 58.304C87.684 58.1867 87.8493 58.016 87.956 57.792C88.0733 57.5573 88.1107 57.3067 88.068 57.04C88.036 56.7733 87.9027 56.56 87.668 56.4C87.284 56.1333 86.8947 55.9467 86.5 55.84C86.1053 55.7227 85.7213 55.664 85.348 55.664C84.8147 55.664 84.3667 55.76 84.004 55.952C83.6413 56.1333 83.3427 56.384 83.108 56.704C82.884 57.024 82.708 57.3973 82.58 57.824Z" fill="black"/>
</svg>
