<svg width="111" height="50" viewBox="0 0 111 50" fill="none" xmlns="http://www.w3.org/2000/svg">
<path d="M45.2528 10.2C45.1781 10.4773 45.0875 10.7707 44.9808 11.08C44.8848 11.3787 44.7515 11.7307 44.5808 12.136C44.4955 12.3493 44.3568 12.5467 44.1648 12.728C43.9835 12.9093 43.7275 13 43.3968 13C43.1728 13 42.9008 12.936 42.5808 12.808C42.2821 12.68 42.0528 12.536 41.8928 12.376C41.7328 12.2053 41.6208 12.0347 41.5568 11.864C41.5035 11.6827 41.4875 11.5067 41.5088 11.336C41.5301 11.1653 41.5728 11.0107 41.6368 10.872C42.2768 9.37867 42.8528 7.88533 43.3648 6.392C43.8768 4.89867 44.3941 3.368 44.9168 1.8C45.0021 1.55467 45.1941 1.352 45.4928 1.192C45.7915 1.032 46.1648 0.952 46.6128 0.952C47.0608 0.952 47.4341 1.032 47.7328 1.192C48.0315 1.352 48.2235 1.55467 48.3088 1.8C48.8421 3.368 49.3595 4.89867 49.8608 6.392C50.3728 7.88533 50.9488 9.37867 51.5888 10.872C51.6528 11.0107 51.6955 11.1653 51.7168 11.336C51.7381 11.5067 51.7168 11.6827 51.6528 11.864C51.5995 12.0347 51.4928 12.2053 51.3328 12.376C51.1835 12.536 50.9541 12.68 50.6448 12.808C50.3248 12.936 50.0528 13 49.8288 13C49.4981 13 49.2368 12.9093 49.0448 12.728C48.8635 12.5467 48.7301 12.3493 48.6448 12.136C48.4741 11.7307 48.3355 11.3733 48.2288 11.064C48.1328 10.7547 48.0475 10.4613 47.9728 10.184C47.9195 9.98133 47.7915 9.86933 47.5888 9.848C47.4928 9.83733 47.3915 9.832 47.2848 9.832C47.1888 9.832 47.0821 9.832 46.9648 9.832H46.3248C46.1861 9.832 46.0581 9.83733 45.9408 9.848C45.8341 9.848 45.7328 9.85333 45.6368 9.864C45.4341 9.88533 45.3061 9.99733 45.2528 10.2ZM46.5168 4.536C46.4741 4.68533 46.4261 4.872 46.3728 5.096C46.3195 5.32 46.2661 5.56 46.2128 5.816C46.1595 6.072 46.1061 6.33333 46.0528 6.6C46.0101 6.86667 45.9621 7.12267 45.9088 7.368C45.8768 7.58133 45.9568 7.688 46.1488 7.688H46.3248H46.9648H47.0768C47.2688 7.688 47.3488 7.58667 47.3168 7.384C47.2741 7.13867 47.2261 6.88267 47.1728 6.616C47.1195 6.34933 47.0661 6.088 47.0128 5.832C46.9595 5.576 46.9061 5.336 46.8528 5.112C46.7995 4.87733 46.7515 4.68533 46.7088 4.536C46.6875 4.45067 46.6555 4.408 46.6128 4.408C46.5701 4.408 46.5381 4.45067 46.5168 4.536ZM55.7513 8.024C55.7513 8.07733 55.746 8.136 55.7353 8.2C55.7353 8.264 55.7353 8.32267 55.7353 8.376V9.064C55.7353 9.55467 55.7886 10.0293 55.8953 10.488C56.002 10.936 56.0553 11.384 56.0553 11.832C56.0553 11.96 56.034 12.0933 55.9913 12.232C55.9486 12.36 55.8686 12.4827 55.7513 12.6C55.634 12.7173 55.4793 12.8133 55.2873 12.888C55.0953 12.9627 54.8446 13 54.5353 13C54.226 13 53.97 12.9627 53.7673 12.888C53.5753 12.8133 53.4206 12.7173 53.3033 12.6C53.1966 12.472 53.122 12.3387 53.0793 12.2C53.0366 12.0613 53.0153 11.928 53.0153 11.8C53.0153 11.608 53.0313 11.4053 53.0633 11.192C53.0953 10.9787 53.1326 10.7547 53.1753 10.52C53.218 10.2853 53.2553 10.0453 53.2873 9.8C53.3193 9.55467 53.3353 9.30933 53.3353 9.064V8.376C53.3353 8.13067 53.3193 7.88533 53.2873 7.64C53.2553 7.384 53.218 7.13867 53.1753 6.904C53.1326 6.66933 53.0953 6.44533 53.0633 6.232C53.0313 6.01867 53.0153 5.816 53.0153 5.624C53.0153 5.496 53.0366 5.36267 53.0793 5.224C53.122 5.08533 53.1966 4.95733 53.3033 4.84C53.4206 4.72267 53.5753 4.62667 53.7673 4.552C53.97 4.46667 54.226 4.424 54.5353 4.424C55.0686 4.424 55.442 4.53067 55.6553 4.744C55.8793 4.95733 56.0073 5.18667 56.0393 5.432C56.2526 5.144 56.5086 4.89867 56.8073 4.696C57.1166 4.48267 57.4793 4.376 57.8953 4.376C58.4286 4.376 58.818 4.47733 59.0633 4.68C59.3193 4.872 59.474 5.10667 59.5273 5.384C59.5913 5.65067 59.5753 5.92267 59.4793 6.2C59.3833 6.47733 59.2553 6.69067 59.0953 6.84C58.9566 6.968 58.7806 7.03733 58.5673 7.048C58.354 7.05867 58.13 7.02667 57.8953 6.952C57.7993 6.92 57.682 6.888 57.5433 6.856C57.4046 6.824 57.2553 6.81867 57.0953 6.84C56.9353 6.85067 56.7646 6.89333 56.5833 6.968C56.402 7.04267 56.2206 7.17067 56.0393 7.352C55.954 7.43733 55.8846 7.544 55.8313 7.672C55.7886 7.78933 55.762 7.90667 55.7513 8.024ZM64.8116 10.552C64.6089 10.808 64.4169 11.064 64.2356 11.32C64.0649 11.5653 63.8729 11.8 63.6596 12.024C63.5956 12.0987 63.5156 12.1947 63.4196 12.312C63.3236 12.4187 63.2169 12.5253 63.0996 12.632C62.9929 12.728 62.8702 12.8133 62.7316 12.888C62.6036 12.952 62.4649 12.984 62.3156 12.984C62.1662 12.984 62.0116 12.9467 61.8516 12.872C61.7022 12.7867 61.5369 12.648 61.3556 12.456C61.0996 12.168 60.9502 11.9067 60.9076 11.672C60.8649 11.4373 60.8756 11.224 60.9396 11.032C61.0142 10.84 61.1209 10.6693 61.2596 10.52C61.3982 10.3707 61.5209 10.2373 61.6276 10.12C61.8729 9.864 62.1076 9.62933 62.3316 9.416C62.5556 9.20267 62.7902 8.984 63.0356 8.76C63.2276 8.57867 63.2276 8.40267 63.0356 8.232C62.7262 7.95467 62.4276 7.688 62.1396 7.432C61.8622 7.16533 61.6169 6.91467 61.4036 6.68C61.3076 6.57333 61.2276 6.456 61.1636 6.328C61.1102 6.2 61.0836 6.06133 61.0836 5.912C61.0836 5.752 61.1209 5.58667 61.1956 5.416C61.2809 5.24533 61.4196 5.05867 61.6116 4.856C61.9422 4.51467 62.2729 4.344 62.6036 4.344C62.8809 4.344 63.1796 4.472 63.4996 4.728C63.7236 4.90933 63.9529 5.16533 64.1876 5.496C64.4329 5.82667 64.6889 6.16267 64.9556 6.504C65.0196 6.6 65.0996 6.648 65.1956 6.648C65.2916 6.648 65.3769 6.6 65.4516 6.504C65.6756 6.22667 65.8942 5.95467 66.1076 5.688C66.3316 5.42133 66.5822 5.16533 66.8596 4.92C66.9876 4.80267 67.1369 4.70133 67.3076 4.616C67.4889 4.52 67.6756 4.472 67.8676 4.472C68.0382 4.472 68.2036 4.51467 68.3636 4.6C68.5236 4.68533 68.6782 4.83467 68.8276 5.048C69.0196 5.32533 69.1422 5.56533 69.1956 5.768C69.2596 5.97067 69.2702 6.152 69.2276 6.312C69.1956 6.472 69.1262 6.62133 69.0196 6.76C68.9129 6.888 68.7902 7.016 68.6516 7.144C68.4382 7.34667 68.2142 7.544 67.9796 7.736C67.7556 7.928 67.5156 8.13067 67.2596 8.344C67.0676 8.504 67.0676 8.664 67.2596 8.824C67.5369 9.048 67.8089 9.272 68.0756 9.496C68.3422 9.70933 68.5822 9.93867 68.7956 10.184C68.8916 10.3013 69.0036 10.4453 69.1316 10.616C69.2596 10.7867 69.3502 10.9787 69.4036 11.192C69.4569 11.3947 69.4516 11.6133 69.3876 11.848C69.3236 12.0827 69.1476 12.3227 68.8596 12.568C68.6782 12.728 68.5022 12.8453 68.3316 12.92C68.1716 12.984 68.0169 13.016 67.8676 13.016C67.7182 13.016 67.5796 12.9893 67.4516 12.936C67.3236 12.8827 67.2062 12.8187 67.0996 12.744C67.0036 12.6587 66.9129 12.5733 66.8276 12.488C66.7422 12.392 66.6676 12.3067 66.6036 12.232C66.3902 11.9973 66.1769 11.736 65.9636 11.448C65.7609 11.16 65.5369 10.8613 65.2916 10.552C65.2276 10.456 65.1476 10.408 65.0516 10.408C64.9769 10.408 64.8969 10.456 64.8116 10.552ZM3.79 27.48C3.83267 27.8213 3.87 28.1733 3.902 28.536C3.934 28.888 3.95 29.272 3.95 29.688C3.95 29.8373 3.92867 29.992 3.886 30.152C3.84333 30.3013 3.758 30.44 3.63 30.568C3.51267 30.696 3.34733 30.8027 3.134 30.888C2.93133 30.9627 2.67 31 2.35 31C2.01933 31 1.74733 30.9573 1.534 30.872C1.33133 30.7867 1.17133 30.68 1.054 30.552C0.936665 30.4133 0.856665 30.2693 0.813998 30.12C0.771332 29.96 0.749998 29.8053 0.749998 29.656C0.749998 29.2827 0.765998 28.92 0.797998 28.568C0.829998 28.216 0.867332 27.8693 0.909998 27.528C0.952665 27.176 0.989998 26.8347 1.022 26.504C1.054 26.1627 1.07 25.8213 1.07 25.48V24.52C1.07 24.1787 1.054 23.8427 1.022 23.512C0.989998 23.1707 0.952665 22.8293 0.909998 22.488C0.867332 22.136 0.829998 21.784 0.797998 21.432C0.765998 21.08 0.749998 20.7173 0.749998 20.344C0.749998 20.1947 0.771332 20.0453 0.813998 19.896C0.856665 19.736 0.936665 19.592 1.054 19.464C1.182 19.3253 1.34733 19.2133 1.55 19.128C1.76333 19.0427 2.03533 19 2.366 19H4.446C6.08867 19 7.33667 19.3467 8.19 20.04C9.054 20.7333 9.486 21.7467 9.486 23.08C9.486 23.72 9.35267 24.296 9.086 24.808C8.83 25.32 8.47267 25.752 8.014 26.104C7.566 26.456 7.03267 26.728 6.414 26.92C5.806 27.112 5.15 27.208 4.446 27.208H4.03C3.84867 27.208 3.76867 27.2987 3.79 27.48ZM4.446 25C4.862 25 5.20867 24.9413 5.486 24.824C5.774 24.7067 6.00867 24.5573 6.19 24.376C6.37133 24.184 6.49933 23.976 6.574 23.752C6.65933 23.5173 6.702 23.288 6.702 23.064C6.702 22.84 6.67 22.6213 6.606 22.408C6.542 22.1947 6.42467 22.0027 6.254 21.832C6.08333 21.6613 5.84867 21.5227 5.55 21.416C5.262 21.3093 4.894 21.256 4.446 21.256H4.19C4.01933 21.256 3.92333 21.3467 3.902 21.528C3.84867 22.072 3.79 22.5787 3.726 23.048C3.662 23.5173 3.63 24.008 3.63 24.52V24.728C3.63 24.9093 3.72067 25 3.902 25H4.446ZM11.3071 26.376C11.3071 26.1307 11.2911 25.8853 11.2591 25.64C11.2271 25.384 11.1898 25.1387 11.1471 24.904C11.1045 24.6693 11.0671 24.4453 11.0351 24.232C11.0031 24.0187 10.9871 23.816 10.9871 23.624C10.9871 23.496 11.0085 23.3627 11.0511 23.224C11.0938 23.0853 11.1685 22.9573 11.2751 22.84C11.3925 22.7227 11.5471 22.6267 11.7391 22.552C11.9418 22.4667 12.1978 22.424 12.5071 22.424C12.8165 22.424 13.0671 22.4613 13.2591 22.536C13.4511 22.6107 13.6058 22.7067 13.7231 22.824C13.8405 22.9413 13.9205 23.0693 13.9631 23.208C14.0058 23.3467 14.0271 23.48 14.0271 23.608C14.0271 24.0453 13.9738 24.4933 13.8671 24.952C13.7605 25.4 13.7071 25.8747 13.7071 26.376V27.064C13.7071 27.5547 13.7605 28.0293 13.8671 28.488C13.9738 28.936 14.0271 29.384 14.0271 29.832C14.0271 29.96 14.0058 30.0933 13.9631 30.232C13.9205 30.36 13.8405 30.4827 13.7231 30.6C13.6058 30.7173 13.4511 30.8133 13.2591 30.888C13.0671 30.9627 12.8165 31 12.5071 31C12.1978 31 11.9418 30.9627 11.7391 30.888C11.5471 30.8133 11.3925 30.7173 11.2751 30.6C11.1685 30.472 11.0938 30.3387 11.0511 30.2C11.0085 30.0613 10.9871 29.928 10.9871 29.8C10.9871 29.608 11.0031 29.4053 11.0351 29.192C11.0671 28.9787 11.1045 28.7547 11.1471 28.52C11.1898 28.2853 11.2271 28.0453 11.2591 27.8C11.2911 27.5547 11.3071 27.3093 11.3071 27.064V26.376ZM10.9231 20.44C10.9231 20.1093 11.0618 19.8373 11.3391 19.624C11.6271 19.4 12.0058 19.288 12.4751 19.288C12.9338 19.288 13.3018 19.4 13.5791 19.624C13.8671 19.8373 14.0111 20.1093 14.0111 20.44C14.0111 20.7813 13.8671 21.0587 13.5791 21.272C13.3018 21.4853 12.9338 21.592 12.4751 21.592C12.0058 21.592 11.6271 21.4853 11.3391 21.272C11.0618 21.0587 10.9231 20.7813 10.9231 20.44ZM18.8811 28.328C18.7958 28.3493 18.7478 28.3813 18.7371 28.424C18.7371 28.4667 18.7745 28.5093 18.8491 28.552C19.1265 28.712 19.4838 28.792 19.9211 28.792C20.3265 28.792 20.6625 28.7067 20.9291 28.536C21.1958 28.3653 21.4785 28.152 21.7771 27.896C21.9905 27.7147 22.2305 27.624 22.4971 27.624C22.7425 27.624 22.9665 27.6987 23.1691 27.848C23.3825 27.9973 23.5478 28.184 23.6651 28.408C23.7931 28.632 23.8518 28.872 23.8411 29.128C23.8411 29.384 23.7451 29.624 23.5531 29.848C23.3825 30.04 23.1531 30.2213 22.8651 30.392C22.5878 30.552 22.2785 30.6907 21.9371 30.808C21.6065 30.9147 21.2651 31 20.9131 31.064C20.5611 31.128 20.2251 31.16 19.9051 31.16C19.2651 31.16 18.6731 31.08 18.1291 30.92C17.5851 30.76 17.1105 30.5093 16.7051 30.168C16.3105 29.816 15.9958 29.3733 15.7611 28.84C15.5371 28.296 15.4251 27.6453 15.4251 26.888C15.4251 26.2053 15.5478 25.5867 15.7931 25.032C16.0491 24.4667 16.3905 23.9813 16.8171 23.576C17.2545 23.1707 17.7665 22.856 18.3531 22.632C18.9398 22.408 19.5638 22.296 20.2251 22.296C20.7478 22.296 21.2118 22.3813 21.6171 22.552C22.0225 22.712 22.3531 22.9253 22.6091 23.192C22.8758 23.4587 23.0625 23.7627 23.1691 24.104C23.2865 24.4453 23.3131 24.7973 23.2491 25.16C23.1958 25.512 23.0465 25.8587 22.8011 26.2C22.5665 26.5413 22.2251 26.8453 21.7771 27.112C21.3398 27.3787 20.8758 27.6133 20.3851 27.816C19.8945 28.0187 19.3931 28.1893 18.8811 28.328ZM18.0011 26.296C17.9798 26.4773 18.0545 26.5413 18.2251 26.488C18.5131 26.392 18.8171 26.28 19.1371 26.152C19.4678 26.024 19.8198 25.8693 20.1931 25.688C20.3638 25.6027 20.4811 25.4907 20.5451 25.352C20.6198 25.2133 20.6465 25.0747 20.6251 24.936C20.6145 24.7973 20.5611 24.68 20.4651 24.584C20.3691 24.4773 20.2411 24.424 20.0811 24.424C19.5051 24.424 19.0358 24.5893 18.6731 24.92C18.3105 25.2507 18.0865 25.7093 18.0011 26.296ZM28.6339 24.568C28.2712 24.568 27.9192 24.6053 27.5779 24.68C27.2472 24.7547 26.9059 24.792 26.5539 24.792C26.4045 24.792 26.2605 24.776 26.1219 24.744C25.9832 24.712 25.8552 24.6533 25.7379 24.568C25.6312 24.4827 25.5405 24.3653 25.4659 24.216C25.4019 24.056 25.3699 23.8533 25.3699 23.608C25.3699 23.3627 25.4019 23.1653 25.4659 23.016C25.5299 22.856 25.6152 22.7333 25.7219 22.648C25.8285 22.5627 25.9512 22.504 26.0899 22.472C26.2285 22.44 26.3725 22.424 26.5219 22.424C26.7352 22.424 26.9325 22.4347 27.1139 22.456C27.2952 22.4773 27.4659 22.504 27.6259 22.536C27.7965 22.568 27.9619 22.5947 28.1219 22.616C28.2925 22.6373 28.4685 22.648 28.6499 22.648H29.4499C29.6312 22.648 29.8019 22.6373 29.9619 22.616C30.1325 22.5947 30.2979 22.568 30.4579 22.536C30.6285 22.504 30.8045 22.4773 30.9859 22.456C31.1672 22.4347 31.3645 22.424 31.5779 22.424C31.7272 22.424 31.8605 22.44 31.9779 22.472C32.1059 22.504 32.2125 22.5627 32.2979 22.648C32.3939 22.7333 32.4632 22.856 32.5059 23.016C32.5485 23.1653 32.5699 23.3627 32.5699 23.608C32.5699 23.9173 32.5325 24.152 32.4579 24.312C32.3832 24.504 32.2712 24.6907 32.1219 24.872C31.8339 25.224 31.5192 25.544 31.1779 25.832C30.8472 26.12 30.5272 26.4507 30.2179 26.824L29.3059 27.944C29.2205 28.0507 29.1512 28.1413 29.0979 28.216C28.9379 28.4293 28.9912 28.536 29.2579 28.536H29.4499C29.6312 28.536 29.8019 28.5253 29.9619 28.504C30.1325 28.4827 30.2979 28.456 30.4579 28.424C30.6285 28.392 30.8045 28.3653 30.9859 28.344C31.1672 28.3227 31.3645 28.312 31.5779 28.312C31.7272 28.312 31.8712 28.3387 32.0099 28.392C32.1485 28.4347 32.2712 28.5093 32.3779 28.616C32.4845 28.7227 32.5699 28.8613 32.6339 29.032C32.6979 29.2027 32.7299 29.4107 32.7299 29.656C32.7192 30.1573 32.5912 30.5093 32.3459 30.712C32.1112 30.904 31.8445 31 31.5459 31C31.1939 31 30.8472 30.9627 30.5059 30.888C30.1752 30.8133 29.8232 30.776 29.4499 30.776H28.3299C27.9565 30.776 27.5992 30.8133 27.2579 30.888C26.9272 30.9627 26.5859 31 26.2339 31C25.9352 31 25.6899 30.904 25.4979 30.712C25.3165 30.5093 25.2205 30.1573 25.2099 29.656C25.1992 29.3573 25.2312 29.112 25.3059 28.92C25.3805 28.728 25.4819 28.584 25.6099 28.488C25.6205 28.4667 25.6419 28.44 25.6739 28.408C25.8445 28.1947 26.0099 28.008 26.1699 27.848C26.3405 27.688 26.5005 27.5333 26.6499 27.384C26.8099 27.2347 26.9645 27.0853 27.1139 26.936C27.2739 26.7867 27.4285 26.6213 27.5779 26.44L28.4899 25.32C28.5432 25.2453 28.5965 25.176 28.6499 25.112C28.7032 25.0373 28.7565 24.9627 28.8099 24.888C28.9485 24.6747 28.8899 24.568 28.6339 24.568ZM34.0876 26.888C34.0876 26.2053 34.1996 25.5867 34.4236 25.032C34.6476 24.4667 34.9623 23.9813 35.3676 23.576C35.773 23.1707 36.253 22.856 36.8076 22.632C37.373 22.408 37.9863 22.296 38.6476 22.296C39.309 22.296 39.917 22.408 40.4716 22.632C41.0263 22.856 41.5063 23.1707 41.9116 23.576C42.317 23.9813 42.6316 24.4667 42.8556 25.032C43.0796 25.5867 43.1916 26.2053 43.1916 26.888C43.1916 27.6453 43.0796 28.296 42.8556 28.84C42.6423 29.3733 42.333 29.816 41.9276 30.168C41.533 30.5093 41.053 30.76 40.4876 30.92C39.933 31.08 39.3196 31.16 38.6476 31.16C37.9756 31.16 37.357 31.08 36.7916 30.92C36.237 30.76 35.757 30.5093 35.3516 30.168C34.957 29.816 34.6476 29.3733 34.4236 28.84C34.1996 28.296 34.0876 27.6453 34.0876 26.888ZM36.6316 26.744C36.6316 27.0213 36.6583 27.2827 36.7116 27.528C36.7756 27.7733 36.8823 27.992 37.0316 28.184C37.1916 28.3653 37.3996 28.5147 37.6556 28.632C37.9223 28.7387 38.2583 28.792 38.6636 28.792C39.069 28.792 39.3996 28.7387 39.6556 28.632C39.9223 28.5147 40.1303 28.3653 40.2796 28.184C40.4396 27.992 40.5463 27.7733 40.5996 27.528C40.6636 27.2827 40.6956 27.0213 40.6956 26.744C40.6956 26.0293 40.5196 25.464 40.1676 25.048C39.8156 24.632 39.3143 24.424 38.6636 24.424C38.013 24.424 37.5116 24.632 37.1596 25.048C36.8076 25.464 36.6316 26.0293 36.6316 26.744ZM52.6525 27.48C52.6952 27.8213 52.7325 28.1733 52.7645 28.536C52.7965 28.888 52.8125 29.272 52.8125 29.688C52.8125 29.8373 52.7912 29.992 52.7485 30.152C52.7058 30.3013 52.6205 30.44 52.4925 30.568C52.3752 30.696 52.2098 30.8027 51.9965 30.888C51.7938 30.9627 51.5325 31 51.2125 31C50.8818 31 50.6098 30.9573 50.3965 30.872C50.1938 30.7867 50.0338 30.68 49.9165 30.552C49.7992 30.4133 49.7192 30.2693 49.6765 30.12C49.6338 29.96 49.6125 29.8053 49.6125 29.656C49.6125 29.2827 49.6285 28.92 49.6605 28.568C49.6925 28.216 49.7298 27.8693 49.7725 27.528C49.8152 27.176 49.8525 26.8347 49.8845 26.504C49.9165 26.1627 49.9325 25.8213 49.9325 25.48V24.52C49.9325 24.1787 49.9165 23.8427 49.8845 23.512C49.8525 23.1707 49.8152 22.8293 49.7725 22.488C49.7298 22.136 49.6925 21.784 49.6605 21.432C49.6285 21.08 49.6125 20.7173 49.6125 20.344C49.6125 20.1947 49.6338 20.0453 49.6765 19.896C49.7192 19.736 49.7992 19.592 49.9165 19.464C50.0445 19.3253 50.2098 19.2133 50.4125 19.128C50.6258 19.0427 50.8978 19 51.2285 19H53.3085C54.9512 19 56.1992 19.3467 57.0525 20.04C57.9165 20.7333 58.3485 21.7467 58.3485 23.08C58.3485 23.72 58.2152 24.296 57.9485 24.808C57.6925 25.32 57.3352 25.752 56.8765 26.104C56.4285 26.456 55.8952 26.728 55.2765 26.92C54.6685 27.112 54.0125 27.208 53.3085 27.208H52.8925C52.7112 27.208 52.6312 27.2987 52.6525 27.48ZM53.3085 25C53.7245 25 54.0712 24.9413 54.3485 24.824C54.6365 24.7067 54.8712 24.5573 55.0525 24.376C55.2338 24.184 55.3618 23.976 55.4365 23.752C55.5218 23.5173 55.5645 23.288 55.5645 23.064C55.5645 22.84 55.5325 22.6213 55.4685 22.408C55.4045 22.1947 55.2872 22.0027 55.1165 21.832C54.9458 21.6613 54.7112 21.5227 54.4125 21.416C54.1245 21.3093 53.7565 21.256 53.3085 21.256H53.0525C52.8818 21.256 52.7858 21.3467 52.7645 21.528C52.7112 22.072 52.6525 22.5787 52.5885 23.048C52.5245 23.5173 52.4925 24.008 52.4925 24.52V24.728C52.4925 24.9093 52.5832 25 52.7645 25H53.3085ZM62.5216 26.024C62.5216 26.0773 62.5163 26.136 62.5056 26.2C62.5056 26.264 62.5056 26.3227 62.5056 26.376V27.064C62.5056 27.5547 62.559 28.0293 62.6656 28.488C62.7723 28.936 62.8256 29.384 62.8256 29.832C62.8256 29.96 62.8043 30.0933 62.7616 30.232C62.719 30.36 62.639 30.4827 62.5216 30.6C62.4043 30.7173 62.2496 30.8133 62.0576 30.888C61.8656 30.9627 61.615 31 61.3056 31C60.9963 31 60.7403 30.9627 60.5376 30.888C60.3456 30.8133 60.191 30.7173 60.0736 30.6C59.967 30.472 59.8923 30.3387 59.8496 30.2C59.807 30.0613 59.7856 29.928 59.7856 29.8C59.7856 29.608 59.8016 29.4053 59.8336 29.192C59.8656 28.9787 59.903 28.7547 59.9456 28.52C59.9883 28.2853 60.0256 28.0453 60.0576 27.8C60.0896 27.5547 60.1056 27.3093 60.1056 27.064V26.376C60.1056 26.1307 60.0896 25.8853 60.0576 25.64C60.0256 25.384 59.9883 25.1387 59.9456 24.904C59.903 24.6693 59.8656 24.4453 59.8336 24.232C59.8016 24.0187 59.7856 23.816 59.7856 23.624C59.7856 23.496 59.807 23.3627 59.8496 23.224C59.8923 23.0853 59.967 22.9573 60.0736 22.84C60.191 22.7227 60.3456 22.6267 60.5376 22.552C60.7403 22.4667 60.9963 22.424 61.3056 22.424C61.839 22.424 62.2123 22.5307 62.4256 22.744C62.6496 22.9573 62.7776 23.1867 62.8096 23.432C63.023 23.144 63.279 22.8987 63.5776 22.696C63.887 22.4827 64.2496 22.376 64.6656 22.376C65.199 22.376 65.5883 22.4773 65.8336 22.68C66.0896 22.872 66.2443 23.1067 66.2976 23.384C66.3616 23.6507 66.3456 23.9227 66.2496 24.2C66.1536 24.4773 66.0256 24.6907 65.8656 24.84C65.727 24.968 65.551 25.0373 65.3376 25.048C65.1243 25.0587 64.9003 25.0267 64.6656 24.952C64.5696 24.92 64.4523 24.888 64.3136 24.856C64.175 24.824 64.0256 24.8187 63.8656 24.84C63.7056 24.8507 63.535 24.8933 63.3536 24.968C63.1723 25.0427 62.991 25.1707 62.8096 25.352C62.7243 25.4373 62.655 25.544 62.6016 25.672C62.559 25.7893 62.5323 25.9067 62.5216 26.024ZM70.5249 28.328C70.4395 28.3493 70.3915 28.3813 70.3809 28.424C70.3809 28.4667 70.4182 28.5093 70.4929 28.552C70.7702 28.712 71.1275 28.792 71.5649 28.792C71.9702 28.792 72.3062 28.7067 72.5729 28.536C72.8395 28.3653 73.1222 28.152 73.4209 27.896C73.6342 27.7147 73.8742 27.624 74.1409 27.624C74.3862 27.624 74.6102 27.6987 74.8129 27.848C75.0262 27.9973 75.1915 28.184 75.3089 28.408C75.4369 28.632 75.4955 28.872 75.4849 29.128C75.4849 29.384 75.3889 29.624 75.1969 29.848C75.0262 30.04 74.7969 30.2213 74.5089 30.392C74.2315 30.552 73.9222 30.6907 73.5809 30.808C73.2502 30.9147 72.9089 31 72.5569 31.064C72.2049 31.128 71.8689 31.16 71.5489 31.16C70.9089 31.16 70.3169 31.08 69.7729 30.92C69.2289 30.76 68.7542 30.5093 68.3489 30.168C67.9542 29.816 67.6395 29.3733 67.4049 28.84C67.1809 28.296 67.0689 27.6453 67.0689 26.888C67.0689 26.2053 67.1915 25.5867 67.4369 25.032C67.6929 24.4667 68.0342 23.9813 68.4609 23.576C68.8982 23.1707 69.4102 22.856 69.9969 22.632C70.5835 22.408 71.2075 22.296 71.8689 22.296C72.3915 22.296 72.8555 22.3813 73.2609 22.552C73.6662 22.712 73.9969 22.9253 74.2529 23.192C74.5195 23.4587 74.7062 23.7627 74.8129 24.104C74.9302 24.4453 74.9569 24.7973 74.8929 25.16C74.8395 25.512 74.6902 25.8587 74.4449 26.2C74.2102 26.5413 73.8689 26.8453 73.4209 27.112C72.9835 27.3787 72.5195 27.6133 72.0289 27.816C71.5382 28.0187 71.0369 28.1893 70.5249 28.328ZM69.6449 26.296C69.6235 26.4773 69.6982 26.5413 69.8689 26.488C70.1569 26.392 70.4609 26.28 70.7809 26.152C71.1115 26.024 71.4635 25.8693 71.8369 25.688C72.0075 25.6027 72.1249 25.4907 72.1889 25.352C72.2635 25.2133 72.2902 25.0747 72.2689 24.936C72.2582 24.7973 72.2049 24.68 72.1089 24.584C72.0129 24.4773 71.8849 24.424 71.7249 24.424C71.1489 24.424 70.6795 24.5893 70.3169 24.92C69.9542 25.2507 69.7302 25.7093 69.6449 26.296ZM76.8376 27.528C76.8376 26.9307 76.9283 26.3227 77.1096 25.704C77.291 25.0747 77.547 24.5093 77.8776 24.008C78.219 23.5067 78.6243 23.096 79.0936 22.776C79.5736 22.456 80.107 22.296 80.6936 22.296C81.067 22.296 81.387 22.3547 81.6536 22.472C81.9203 22.5893 82.1763 22.7493 82.4216 22.952C82.5283 22.8027 82.683 22.68 82.8856 22.584C83.0883 22.4773 83.371 22.424 83.7336 22.424C84.043 22.424 84.2936 22.4613 84.4856 22.536C84.6776 22.6107 84.8323 22.7067 84.9496 22.824C85.067 22.9413 85.147 23.0693 85.1896 23.208C85.2323 23.3467 85.2536 23.48 85.2536 23.608C85.2536 24.0453 85.2003 24.4933 85.0936 24.952C84.987 25.4 84.9336 25.8747 84.9336 26.376V27.064C84.9336 27.5547 84.987 28.0293 85.0936 28.488C85.2003 28.936 85.2536 29.384 85.2536 29.832C85.2536 29.96 85.2323 30.0933 85.1896 30.232C85.147 30.36 85.067 30.4827 84.9496 30.6C84.8323 30.7173 84.6776 30.8133 84.4856 30.888C84.2936 30.9627 84.043 31 83.7336 31C83.2323 31 82.8696 30.9093 82.6456 30.728C82.4323 30.536 82.299 30.3333 82.2456 30.12C81.979 30.4293 81.6483 30.68 81.2536 30.872C80.8696 31.064 80.363 31.16 79.7336 31.16C79.2536 31.16 78.8323 31.1013 78.4696 30.984C78.1176 30.856 77.819 30.6533 77.5736 30.376C77.3283 30.088 77.1416 29.7147 77.0136 29.256C76.8963 28.7867 76.8376 28.2107 76.8376 27.528ZM79.3976 27.384C79.3976 27.6613 79.435 27.8907 79.5096 28.072C79.5843 28.2533 79.6856 28.3973 79.8136 28.504C79.9523 28.6107 80.1123 28.6853 80.2936 28.728C80.475 28.7707 80.667 28.792 80.8696 28.792C81.1576 28.792 81.403 28.7387 81.6056 28.632C81.8083 28.5147 81.9736 28.3653 82.1016 28.184C82.2403 27.992 82.3416 27.7733 82.4056 27.528C82.4696 27.2827 82.5016 27.0213 82.5016 26.744C82.5016 26.392 82.4856 26.072 82.4536 25.784C82.4216 25.496 82.3523 25.2507 82.2456 25.048C82.1496 24.8453 82.0003 24.6907 81.7976 24.584C81.6056 24.4773 81.3496 24.424 81.0296 24.424C80.7843 24.424 80.5603 24.52 80.3576 24.712C80.1656 24.904 79.995 25.144 79.8456 25.432C79.707 25.72 79.595 26.04 79.5096 26.392C79.435 26.7333 79.3976 27.064 79.3976 27.384ZM89.4372 25.896C89.4266 25.9813 89.4212 26.0613 89.4212 26.136C89.4212 26.2107 89.4212 26.2907 89.4212 26.376V27.064C89.4212 27.5547 89.4746 28.0293 89.5812 28.488C89.6879 28.936 89.7412 29.384 89.7412 29.832C89.7412 29.96 89.7199 30.0933 89.6772 30.232C89.6346 30.36 89.5546 30.4827 89.4372 30.6C89.3199 30.7173 89.1652 30.8133 88.9732 30.888C88.7812 30.9627 88.5306 31 88.2212 31C87.9119 31 87.6559 30.9627 87.4532 30.888C87.2612 30.8133 87.1066 30.7173 86.9892 30.6C86.8826 30.472 86.8079 30.3387 86.7652 30.2C86.7226 30.0613 86.7012 29.928 86.7012 29.8C86.7012 29.608 86.7172 29.4053 86.7492 29.192C86.7812 28.9787 86.8186 28.7547 86.8612 28.52C86.9039 28.2853 86.9412 28.0453 86.9732 27.8C87.0052 27.5547 87.0212 27.3093 87.0212 27.064V26.376C87.0212 26.1307 87.0052 25.8853 86.9732 25.64C86.9412 25.384 86.9039 25.1387 86.8612 24.904C86.8186 24.6693 86.7812 24.4453 86.7492 24.232C86.7172 24.0187 86.7012 23.816 86.7012 23.624C86.7012 23.496 86.7226 23.3627 86.7652 23.224C86.8079 23.0853 86.8826 22.9573 86.9892 22.84C87.1066 22.7227 87.2612 22.6267 87.4532 22.552C87.6559 22.4667 87.9119 22.424 88.2212 22.424C88.7546 22.424 89.1279 22.5307 89.3412 22.744C89.5652 22.9573 89.6932 23.1867 89.7252 23.432C89.9172 23.1867 90.1466 22.9733 90.4132 22.792C90.6799 22.6 90.9999 22.4613 91.3732 22.376C91.6292 22.3227 91.9172 22.2907 92.2372 22.28C92.5679 22.2693 92.8826 22.3067 93.1812 22.392C93.4906 22.4667 93.7679 22.6 94.0132 22.792C94.2692 22.9733 94.4506 23.224 94.5572 23.544C94.7492 23.2773 94.9839 23.0373 95.2612 22.824C95.5492 22.6107 95.8906 22.4613 96.2852 22.376C96.5839 22.312 96.9306 22.28 97.3252 22.28C97.7199 22.28 98.0932 22.344 98.4452 22.472C98.8079 22.6 99.1119 22.8027 99.3572 23.08C99.6026 23.3467 99.7252 23.72 99.7252 24.2C99.7252 24.6373 99.6719 25.0853 99.5652 25.544C99.4586 25.992 99.4052 26.4667 99.4052 26.968V27.064C99.4052 27.5547 99.4586 28.0293 99.5652 28.488C99.6719 28.936 99.7252 29.384 99.7252 29.832C99.7252 29.96 99.7039 30.0933 99.6612 30.232C99.6186 30.36 99.5386 30.4827 99.4212 30.6C99.3039 30.7173 99.1492 30.8133 98.9572 30.888C98.7652 30.9627 98.5146 31 98.2052 31C97.8959 31 97.6399 30.9627 97.4372 30.888C97.2452 30.8133 97.0906 30.7173 96.9732 30.6C96.8666 30.472 96.7919 30.3387 96.7492 30.2C96.7066 30.0613 96.6852 29.928 96.6852 29.8C96.6852 29.608 96.7012 29.4053 96.7332 29.192C96.7652 28.9787 96.8026 28.7547 96.8452 28.52C96.8879 28.2853 96.9252 28.0453 96.9572 27.8C96.9892 27.5547 97.0052 27.3093 97.0052 27.064V26.968C97.0052 25.5067 96.7599 24.7227 96.2692 24.616C96.0879 24.5733 95.8692 24.568 95.6132 24.6C95.3572 24.6213 95.0799 24.7707 94.7812 25.048C94.6959 25.1227 94.6266 25.224 94.5732 25.352C94.5199 25.4693 94.4826 25.592 94.4612 25.72C94.4292 25.9227 94.3972 26.1307 94.3652 26.344C94.3439 26.5467 94.3332 26.7547 94.3332 26.968V27.064C94.3332 27.5547 94.3866 28.0293 94.4932 28.488C94.5999 28.936 94.6532 29.384 94.6532 29.832C94.6532 29.96 94.6319 30.0933 94.5892 30.232C94.5572 30.36 94.4879 30.4827 94.3812 30.6C94.2852 30.7173 94.1412 30.8133 93.9492 30.888C93.7679 30.9627 93.5226 31 93.2132 31C92.9039 31 92.6532 30.9627 92.4612 30.888C92.2799 30.8133 92.1359 30.7173 92.0292 30.6C91.9226 30.472 91.8532 30.3387 91.8212 30.2C91.7892 30.0613 91.7732 29.928 91.7732 29.8C91.7732 29.608 91.7892 29.4053 91.8212 29.192C91.8532 28.9787 91.8906 28.7547 91.9332 28.52C91.9759 28.2853 92.0132 28.0453 92.0452 27.8C92.0772 27.5547 92.0932 27.3093 92.0932 27.064V26.968C92.0932 25.5067 91.8479 24.7227 91.3572 24.616C91.2612 24.5947 91.1492 24.584 91.0212 24.584C90.9039 24.5733 90.7759 24.584 90.6372 24.616C90.4986 24.648 90.3492 24.712 90.1892 24.808C90.0399 24.8933 89.8852 25.0267 89.7252 25.208C89.5546 25.4 89.4586 25.6293 89.4372 25.896ZM110.374 26.456C110.374 27.2987 110.272 28.0187 110.07 28.616C109.878 29.2133 109.616 29.704 109.286 30.088C108.955 30.472 108.576 30.7547 108.15 30.936C107.723 31.1173 107.275 31.208 106.806 31.208C106.187 31.208 105.638 31.1333 105.158 30.984C104.678 30.824 104.262 30.616 103.91 30.36C103.952 30.8933 104.011 31.4213 104.086 31.944C104.16 32.4773 104.198 33.0427 104.198 33.64C104.198 34.1413 104.054 34.488 103.766 34.68C103.488 34.8827 103.11 34.984 102.63 34.984C102.32 34.984 102.07 34.9413 101.878 34.856C101.686 34.7813 101.536 34.68 101.43 34.552C101.323 34.424 101.248 34.28 101.206 34.12C101.174 33.9707 101.158 33.8213 101.158 33.672C101.158 33.256 101.174 32.8667 101.206 32.504C101.238 32.1413 101.275 31.7893 101.318 31.448C101.36 31.1173 101.398 30.792 101.43 30.472C101.462 30.1413 101.478 29.8053 101.478 29.464V27.992C101.478 27.6507 101.462 27.32 101.43 27C101.398 26.6693 101.36 26.3387 101.318 26.008C101.275 25.6667 101.238 25.3147 101.206 24.952C101.174 24.5893 101.158 24.2 101.158 23.784C101.158 23.6347 101.174 23.4853 101.206 23.336C101.248 23.176 101.323 23.032 101.43 22.904C101.536 22.776 101.686 22.6747 101.878 22.6C102.07 22.5147 102.32 22.472 102.63 22.472C102.992 22.472 103.318 22.5413 103.606 22.68C103.904 22.808 104.091 23.064 104.166 23.448C104.475 23.1173 104.848 22.8507 105.286 22.648C105.723 22.4453 106.23 22.344 106.806 22.344C107.083 22.344 107.424 22.392 107.83 22.488C108.235 22.5733 108.624 22.76 108.998 23.048C109.382 23.336 109.707 23.752 109.974 24.296C110.24 24.8293 110.374 25.5493 110.374 26.456ZM107.83 26.76C107.83 26.4827 107.803 26.2213 107.75 25.976C107.696 25.7307 107.6 25.5173 107.462 25.336C107.323 25.144 107.131 24.9947 106.886 24.888C106.651 24.7707 106.352 24.712 105.99 24.712C105.67 24.712 105.376 24.7707 105.11 24.888C104.854 24.9947 104.635 25.144 104.454 25.336C104.272 25.528 104.128 25.7467 104.022 25.992C103.926 26.2373 103.872 26.4933 103.862 26.76C103.851 27.112 103.91 27.4267 104.038 27.704C104.166 27.9707 104.331 28.1947 104.534 28.376C104.747 28.5573 104.982 28.696 105.238 28.792C105.494 28.8773 105.744 28.92 105.99 28.92C106.555 28.92 107.003 28.76 107.334 28.44C107.664 28.1093 107.83 27.5493 107.83 26.76ZM43.0018 45.672C43.1085 45.3627 43.2045 45.048 43.2898 44.728C43.3858 44.408 43.4925 44.088 43.6098 43.768C43.7911 43.2773 43.9671 42.808 44.1378 42.36C44.3085 41.9013 44.5058 41.4747 44.7298 41.08C44.8151 40.9307 44.9378 40.7867 45.0978 40.648C45.2685 40.5093 45.4818 40.44 45.7378 40.44C46.0151 40.44 46.3245 40.5413 46.6658 40.744C46.9325 40.904 47.1245 41.0747 47.2418 41.256C47.3591 41.4373 47.4285 41.6187 47.4498 41.8C47.4818 41.9707 47.4765 42.136 47.4338 42.296C47.4018 42.4453 47.3538 42.5787 47.2898 42.696C47.0978 43.048 46.8525 43.4373 46.5538 43.864C46.2658 44.28 45.9991 44.712 45.7538 45.16L45.4018 45.8C45.1565 46.248 44.9431 46.7013 44.7618 47.16C44.5911 47.608 44.4098 48.0027 44.2178 48.344C44.1111 48.5253 43.9511 48.68 43.7378 48.808C43.5245 48.9253 43.2311 48.984 42.8578 48.984C42.4951 48.984 42.2071 48.9253 41.9938 48.808C41.7911 48.68 41.6365 48.5253 41.5298 48.344C41.3378 48.0027 41.1511 47.608 40.9698 47.16C40.7991 46.7013 40.5911 46.248 40.3458 45.8L39.9938 45.16C39.7485 44.712 39.4765 44.28 39.1778 43.864C38.8898 43.4373 38.6498 43.048 38.4578 42.696C38.3938 42.5787 38.3405 42.4453 38.2978 42.296C38.2658 42.136 38.2605 41.9707 38.2818 41.8C38.3138 41.6187 38.3885 41.4373 38.5058 41.256C38.6231 41.0747 38.8151 40.904 39.0818 40.744C39.4231 40.5413 39.7325 40.44 40.0098 40.44C40.2658 40.44 40.4738 40.5093 40.6338 40.648C40.8045 40.7867 40.9325 40.9307 41.0178 41.08C41.2418 41.4747 41.4391 41.9013 41.6098 42.36C41.7805 42.8187 41.9565 43.288 42.1378 43.768C42.2551 44.088 42.3565 44.408 42.4418 44.728C42.5378 45.048 42.6391 45.3627 42.7458 45.672C42.8311 45.9067 42.9165 45.9067 43.0018 45.672ZM52.4988 43.592C52.3175 43.592 52.1521 43.6027 52.0028 43.624C51.8641 43.6453 51.7255 43.672 51.5868 43.704C51.4588 43.736 51.3255 43.7627 51.1868 43.784C51.0588 43.8053 50.9041 43.816 50.7228 43.816C50.4241 43.816 50.1521 43.7253 49.9068 43.544C49.6721 43.352 49.5495 43.0107 49.5388 42.52C49.5388 42.2747 49.5708 42.072 49.6348 41.912C49.6988 41.7413 49.7841 41.608 49.8908 41.512C49.9975 41.4053 50.1201 41.3307 50.2588 41.288C50.3975 41.2453 50.5415 41.224 50.6908 41.224C50.8508 41.224 50.9948 41.2347 51.1228 41.256C51.2615 41.2773 51.3948 41.304 51.5228 41.336C51.6508 41.368 51.7788 41.3947 51.9068 41.416C52.0348 41.4373 52.1788 41.448 52.3388 41.448C52.7228 41.448 53.0321 41.416 53.2668 41.352C53.5015 41.288 53.6775 41.2027 53.7948 41.096C53.9228 40.9787 54.0028 40.8347 54.0348 40.664C54.0775 40.4933 54.0988 40.3067 54.0988 40.104C54.0988 39.912 54.0615 39.752 53.9868 39.624C53.9121 39.496 53.8161 39.3947 53.6988 39.32C53.5921 39.2347 53.4695 39.176 53.3308 39.144C53.1921 39.112 53.0588 39.096 52.9308 39.096C52.7175 39.096 52.5095 39.1227 52.3068 39.176C52.1148 39.2293 51.9281 39.2987 51.7468 39.384C51.5761 39.4587 51.4055 39.544 51.2348 39.64C51.0641 39.7253 50.8988 39.8053 50.7388 39.88C50.4188 40.0187 50.1148 40.0293 49.8268 39.912C49.5495 39.7947 49.3361 39.6133 49.1868 39.368C49.0481 39.1227 49.0108 38.8453 49.0748 38.536C49.1495 38.216 49.3788 37.9333 49.7628 37.688C49.9548 37.56 50.1788 37.448 50.4348 37.352C50.7015 37.2453 50.9735 37.1547 51.2508 37.08C51.5281 37.0053 51.8108 36.9467 52.0988 36.904C52.3975 36.8613 52.6748 36.84 52.9308 36.84C53.4748 36.84 53.9761 36.904 54.4348 37.032C54.9041 37.16 55.3041 37.352 55.6348 37.608C55.9761 37.864 56.2428 38.184 56.4348 38.568C56.6268 38.9413 56.7228 39.384 56.7228 39.896C56.7228 40.1947 56.6908 40.4613 56.6268 40.696C56.5735 40.9307 56.4881 41.144 56.3708 41.336C56.2641 41.528 56.1255 41.704 55.9548 41.864C55.7948 42.0133 55.6135 42.1627 55.4108 42.312C55.6881 42.3973 55.9335 42.5307 56.1468 42.712C56.3601 42.8827 56.5361 43.0907 56.6748 43.336C56.8241 43.5813 56.9308 43.8533 56.9948 44.152C57.0695 44.4507 57.1068 44.76 57.1068 45.08C57.1068 45.6773 57.0108 46.2267 56.8188 46.728C56.6268 47.2293 56.3495 47.6613 55.9868 48.024C55.6348 48.376 55.1921 48.6533 54.6588 48.856C54.1361 49.0587 53.5388 49.16 52.8668 49.16C52.0668 49.16 51.3628 48.9947 50.7548 48.664C50.1468 48.3227 49.6401 47.9173 49.2348 47.448C49.0108 47.1813 48.8775 46.92 48.8348 46.664C48.8028 46.3973 48.8295 46.1573 48.9148 45.944C49.0108 45.7307 49.1548 45.5493 49.3468 45.4C49.5495 45.2507 49.7628 45.1547 49.9868 45.112C50.2215 45.0587 50.4561 45.0693 50.6908 45.144C50.9361 45.2187 51.1495 45.368 51.3308 45.592C51.5121 45.8053 51.7255 46.0133 51.9708 46.216C52.2268 46.4187 52.5255 46.52 52.8668 46.52C52.9948 46.52 53.1441 46.504 53.3148 46.472C53.4855 46.44 53.6401 46.3707 53.7788 46.264C53.9281 46.1573 54.0508 46.0027 54.1468 45.8C54.2535 45.5973 54.3068 45.3253 54.3068 44.984C54.3068 44.8133 54.2641 44.648 54.1788 44.488C54.0935 44.3173 53.9708 44.168 53.8108 44.04C53.6615 43.9013 53.4748 43.7947 53.2508 43.72C53.0268 43.6347 52.7761 43.592 52.4988 43.592ZM58.4603 47.768C58.4603 47.352 58.5936 47.0213 58.8603 46.776C59.127 46.5307 59.5163 46.408 60.0283 46.408C60.5403 46.408 60.9296 46.5307 61.1963 46.776C61.463 47.0213 61.5963 47.352 61.5963 47.768C61.5963 48.1947 61.463 48.5307 61.1963 48.776C60.9296 49.0213 60.5403 49.144 60.0283 49.144C59.5163 49.144 59.127 49.0213 58.8603 48.776C58.5936 48.5307 58.4603 48.1947 58.4603 47.768ZM62.9497 43C62.9497 42.104 63.0457 41.2773 63.2377 40.52C63.4297 39.7627 63.723 39.112 64.1177 38.568C64.523 38.024 65.0297 37.6027 65.6377 37.304C66.2457 36.9947 66.9657 36.84 67.7977 36.84C68.619 36.84 69.3284 36.9947 69.9257 37.304C70.5337 37.6027 71.035 38.024 71.4297 38.568C71.835 39.112 72.1337 39.7627 72.3257 40.52C72.5284 41.2773 72.6297 42.104 72.6297 43C72.6297 44.0027 72.539 44.888 72.3577 45.656C72.187 46.4133 71.9044 47.0533 71.5097 47.576C71.1257 48.0987 70.6244 48.4933 70.0057 48.76C69.3977 49.0267 68.6617 49.16 67.7977 49.16C66.923 49.16 66.1764 49.0267 65.5577 48.76C64.9497 48.4933 64.4484 48.0987 64.0537 47.576C63.6697 47.0533 63.387 46.4133 63.2057 45.656C63.035 44.888 62.9497 44.0027 62.9497 43ZM65.7497 42.984C65.7497 43.528 65.7764 44.024 65.8297 44.472C65.8937 44.9093 66.0004 45.2827 66.1497 45.592C66.3097 45.9013 66.5177 46.1413 66.7737 46.312C67.0404 46.4827 67.3817 46.568 67.7977 46.568C68.2137 46.568 68.5497 46.4827 68.8057 46.312C69.0724 46.1413 69.2804 45.9013 69.4297 45.592C69.5897 45.2827 69.6964 44.9093 69.7497 44.472C69.8137 44.024 69.8457 43.528 69.8457 42.984C69.8457 42.44 69.8244 41.9333 69.7817 41.464C69.739 40.9947 69.643 40.584 69.4937 40.232C69.355 39.88 69.147 39.6027 68.8697 39.4C68.603 39.1973 68.2457 39.096 67.7977 39.096C67.3497 39.096 66.987 39.1973 66.7097 39.4C66.443 39.6027 66.235 39.88 66.0857 40.232C65.947 40.584 65.8564 40.9947 65.8137 41.464C65.771 41.9333 65.7497 42.44 65.7497 42.984Z" fill="black"/>
</svg>
