<svg width="29" height="14" viewBox="0 0 29 14" fill="none" xmlns="http://www.w3.org/2000/svg">
<path d="M3.92 10.2C3.84533 10.4773 3.75467 10.7707 3.648 11.08C3.552 11.3787 3.41867 11.7307 3.248 12.136C3.16267 12.3493 3.024 12.5467 2.832 12.728C2.65067 12.9093 2.39467 13 2.064 13C1.84 13 1.568 12.936 1.248 12.808C0.949333 12.68 0.72 12.536 0.56 12.376C0.4 12.2053 0.288 12.0347 0.224 11.864C0.170667 11.6827 0.154667 11.5067 0.176 11.336C0.197333 11.1653 0.24 11.0107 0.304 10.872C0.944 9.37867 1.52 7.88533 2.032 6.392C2.544 4.89867 3.06133 3.368 3.584 1.8C3.66933 1.55467 3.86133 1.352 4.16 1.192C4.45867 1.032 4.832 0.952 5.28 0.952C5.728 0.952 6.10133 1.032 6.4 1.192C6.69867 1.352 6.89067 1.55467 6.976 1.8C7.50933 3.368 8.02667 4.89867 8.528 6.392C9.04 7.88533 9.616 9.37867 10.256 10.872C10.32 11.0107 10.3627 11.1653 10.384 11.336C10.4053 11.5067 10.384 11.6827 10.32 11.864C10.2667 12.0347 10.16 12.2053 10 12.376C9.85067 12.536 9.62133 12.68 9.312 12.808C8.992 12.936 8.72 13 8.496 13C8.16533 13 7.904 12.9093 7.712 12.728C7.53067 12.5467 7.39733 12.3493 7.312 12.136C7.14133 11.7307 7.00267 11.3733 6.896 11.064C6.8 10.7547 6.71467 10.4613 6.64 10.184C6.58667 9.98133 6.45867 9.86933 6.256 9.848C6.16 9.83733 6.05867 9.832 5.952 9.832C5.856 9.832 5.74933 9.832 5.632 9.832H4.992C4.85333 9.832 4.72533 9.83733 4.608 9.848C4.50133 9.848 4.4 9.85333 4.304 9.864C4.10133 9.88533 3.97333 9.99733 3.92 10.2ZM5.184 4.536C5.14133 4.68533 5.09333 4.872 5.04 5.096C4.98667 5.32 4.93333 5.56 4.88 5.816C4.82667 6.072 4.77333 6.33333 4.72 6.6C4.67733 6.86667 4.62933 7.12267 4.576 7.368C4.544 7.58133 4.624 7.688 4.816 7.688H4.992H5.632H5.744C5.936 7.688 6.016 7.58667 5.984 7.384C5.94133 7.13867 5.89333 6.88267 5.84 6.616C5.78667 6.34933 5.73333 6.088 5.68 5.832C5.62667 5.576 5.57333 5.336 5.52 5.112C5.46667 4.87733 5.41867 4.68533 5.376 4.536C5.35467 4.45067 5.32267 4.408 5.28 4.408C5.23733 4.408 5.20533 4.45067 5.184 4.536ZM14.4185 8.024C14.4185 8.07733 14.4132 8.136 14.4025 8.2C14.4025 8.264 14.4025 8.32267 14.4025 8.376V9.064C14.4025 9.55467 14.4558 10.0293 14.5625 10.488C14.6692 10.936 14.7225 11.384 14.7225 11.832C14.7225 11.96 14.7012 12.0933 14.6585 12.232C14.6158 12.36 14.5358 12.4827 14.4185 12.6C14.3012 12.7173 14.1465 12.8133 13.9545 12.888C13.7625 12.9627 13.5118 13 13.2025 13C12.8932 13 12.6372 12.9627 12.4345 12.888C12.2425 12.8133 12.0878 12.7173 11.9705 12.6C11.8638 12.472 11.7892 12.3387 11.7465 12.2C11.7038 12.0613 11.6825 11.928 11.6825 11.8C11.6825 11.608 11.6985 11.4053 11.7305 11.192C11.7625 10.9787 11.7998 10.7547 11.8425 10.52C11.8852 10.2853 11.9225 10.0453 11.9545 9.8C11.9865 9.55467 12.0025 9.30933 12.0025 9.064V8.376C12.0025 8.13067 11.9865 7.88533 11.9545 7.64C11.9225 7.384 11.8852 7.13867 11.8425 6.904C11.7998 6.66933 11.7625 6.44533 11.7305 6.232C11.6985 6.01867 11.6825 5.816 11.6825 5.624C11.6825 5.496 11.7038 5.36267 11.7465 5.224C11.7892 5.08533 11.8638 4.95733 11.9705 4.84C12.0878 4.72267 12.2425 4.62667 12.4345 4.552C12.6372 4.46667 12.8932 4.424 13.2025 4.424C13.7358 4.424 14.1092 4.53067 14.3225 4.744C14.5465 4.95733 14.6745 5.18667 14.7065 5.432C14.9198 5.144 15.1758 4.89867 15.4745 4.696C15.7838 4.48267 16.1465 4.376 16.5625 4.376C17.0958 4.376 17.4852 4.47733 17.7305 4.68C17.9865 4.872 18.1412 5.10667 18.1945 5.384C18.2585 5.65067 18.2425 5.92267 18.1465 6.2C18.0505 6.47733 17.9225 6.69067 17.7625 6.84C17.6238 6.968 17.4478 7.03733 17.2345 7.048C17.0212 7.05867 16.7972 7.02667 16.5625 6.952C16.4665 6.92 16.3492 6.888 16.2105 6.856C16.0718 6.824 15.9225 6.81867 15.7625 6.84C15.6025 6.85067 15.4318 6.89333 15.2505 6.968C15.0692 7.04267 14.8878 7.17067 14.7065 7.352C14.6212 7.43733 14.5518 7.544 14.4985 7.672C14.4558 7.78933 14.4292 7.90667 14.4185 8.024ZM23.4788 10.552C23.2761 10.808 23.0841 11.064 22.9028 11.32C22.7321 11.5653 22.5401 11.8 22.3268 12.024C22.2628 12.0987 22.1828 12.1947 22.0868 12.312C21.9908 12.4187 21.8841 12.5253 21.7668 12.632C21.6601 12.728 21.5374 12.8133 21.3988 12.888C21.2708 12.952 21.1321 12.984 20.9828 12.984C20.8334 12.984 20.6788 12.9467 20.5188 12.872C20.3694 12.7867 20.2041 12.648 20.0228 12.456C19.7668 12.168 19.6174 11.9067 19.5748 11.672C19.5321 11.4373 19.5428 11.224 19.6068 11.032C19.6814 10.84 19.7881 10.6693 19.9268 10.52C20.0654 10.3707 20.1881 10.2373 20.2948 10.12C20.5401 9.864 20.7748 9.62933 20.9988 9.416C21.2228 9.20267 21.4574 8.984 21.7028 8.76C21.8948 8.57867 21.8948 8.40267 21.7028 8.232C21.3934 7.95467 21.0948 7.688 20.8068 7.432C20.5294 7.16533 20.2841 6.91467 20.0708 6.68C19.9748 6.57333 19.8948 6.456 19.8308 6.328C19.7774 6.2 19.7508 6.06133 19.7508 5.912C19.7508 5.752 19.7881 5.58667 19.8628 5.416C19.9481 5.24533 20.0868 5.05867 20.2788 4.856C20.6094 4.51467 20.9401 4.344 21.2708 4.344C21.5481 4.344 21.8468 4.472 22.1668 4.728C22.3908 4.90933 22.6201 5.16533 22.8548 5.496C23.1001 5.82667 23.3561 6.16267 23.6228 6.504C23.6868 6.6 23.7668 6.648 23.8628 6.648C23.9588 6.648 24.0441 6.6 24.1188 6.504C24.3428 6.22667 24.5614 5.95467 24.7748 5.688C24.9988 5.42133 25.2494 5.16533 25.5268 4.92C25.6548 4.80267 25.8041 4.70133 25.9748 4.616C26.1561 4.52 26.3428 4.472 26.5348 4.472C26.7054 4.472 26.8708 4.51467 27.0308 4.6C27.1908 4.68533 27.3454 4.83467 27.4948 5.048C27.6868 5.32533 27.8094 5.56533 27.8628 5.768C27.9268 5.97067 27.9374 6.152 27.8948 6.312C27.8628 6.472 27.7934 6.62133 27.6868 6.76C27.5801 6.888 27.4574 7.016 27.3188 7.144C27.1054 7.34667 26.8814 7.544 26.6468 7.736C26.4228 7.928 26.1828 8.13067 25.9268 8.344C25.7348 8.504 25.7348 8.664 25.9268 8.824C26.2041 9.048 26.4761 9.272 26.7428 9.496C27.0094 9.70933 27.2494 9.93867 27.4628 10.184C27.5588 10.3013 27.6708 10.4453 27.7988 10.616C27.9268 10.7867 28.0174 10.9787 28.0708 11.192C28.1241 11.3947 28.1188 11.6133 28.0548 11.848C27.9908 12.0827 27.8148 12.3227 27.5268 12.568C27.3454 12.728 27.1694 12.8453 26.9988 12.92C26.8388 12.984 26.6841 13.016 26.5348 13.016C26.3854 13.016 26.2468 12.9893 26.1188 12.936C25.9908 12.8827 25.8734 12.8187 25.7668 12.744C25.6708 12.6587 25.5801 12.5733 25.4948 12.488C25.4094 12.392 25.3348 12.3067 25.2708 12.232C25.0574 11.9973 24.8441 11.736 24.6308 11.448C24.4281 11.16 24.2041 10.8613 23.9588 10.552C23.8948 10.456 23.8148 10.408 23.7188 10.408C23.6441 10.408 23.5641 10.456 23.4788 10.552Z" fill="black"/>
</svg>
