<svg width="26" height="11" viewBox="0 0 26 11" fill="none" xmlns="http://www.w3.org/2000/svg">
<path d="M19.1787 1.27287e-07C18.9322 0.000136984 18.6733 0.106337 18.3791 0.300564C17.5136 0.872118 17.3192 1.67179 17.9877 1.91162C18.5141 2.10048 18.8102 2.43779 19.3631 3.48166C20.2825 5.2173 20.2912 5.0643 19.1765 6.62035C17.2272 9.34144 17.1001 9.8361 18.1465 10.6254C19.1849 11.4086 19.9068 10.946 20.9114 8.85375C21.2719 8.10288 21.5966 7.45755 21.633 7.4195C21.6694 7.38146 21.9973 7.90187 22.3619 8.57653C23.1753 10.0816 23.5131 10.574 23.8992 10.8191C24.9281 11.4724 26.3693 10.2315 25.9132 9.08502C25.7998 8.80007 25.5301 8.62937 25.3629 8.73708C25.0464 8.94075 24.2034 7.82641 23.5355 6.32118C23.1362 5.42125 23.1214 5.49597 23.8723 4.59485C26.2041 1.79626 26.4132 0.96474 24.9766 0.20156C23.9924 -0.321205 23.3813 0.196085 22.1564 2.58845C21.7371 3.40729 21.7803 3.41781 21.2248 2.3508C20.3597 0.689035 19.8087 -0.000342014 19.1787 1.27287e-07ZM3.83704 0.0368163C3.25319 0.0368163 2.72279 0.191751 2.24508 0.500745C1.77799 0.80974 1.37477 1.20622 1.03507 1.69031C0.705986 2.17439 0.450896 2.72055 0.27043 3.32824C0.0899497 3.92563 0 4.51245 0 5.08925C0 5.74843 0.0581197 6.3044 0.174942 6.75759C0.302315 7.20048 0.488405 7.56084 0.732558 7.83893C0.976725 8.10672 1.27372 8.30233 1.62404 8.42592C1.98498 8.53924 2.40445 8.59637 2.88216 8.59637C3.50849 8.59637 4.0125 8.50385 4.39468 8.31842C4.78746 8.13303 5.11625 7.89081 5.38164 7.59212C5.43468 7.7981 5.56805 7.99371 5.78036 8.17911C6.00329 8.35421 6.36387 8.44148 6.86281 8.44148C7.17067 8.44148 7.42034 8.40537 7.61143 8.33325C7.80252 8.26112 7.95606 8.16859 8.07282 8.0553C8.18962 7.94198 8.26945 7.82387 8.31191 7.70027C8.35436 7.56643 8.3754 7.43773 8.3754 7.31413C8.3754 6.88154 8.32263 6.44895 8.21647 6.01636C8.11026 5.57348 8.05685 5.1146 8.05685 4.64082V3.97673C8.05685 3.49264 8.1103 3.03447 8.21647 2.6019C8.32269 2.159 8.3754 1.72642 8.3754 1.30412C8.3754 1.18054 8.35436 1.05188 8.31191 0.917981C8.26945 0.784135 8.18962 0.659977 8.07282 0.546687C7.95603 0.43337 7.80252 0.340835 7.61143 0.268739C7.42034 0.196616 7.17067 0.160483 6.86281 0.160483C6.50188 0.160483 6.22042 0.212358 6.01872 0.31537C5.81703 0.408022 5.66347 0.526204 5.55732 0.670396C5.31315 0.474705 5.05806 0.32046 4.79267 0.207156C4.52727 0.0938388 4.2086 0.0368163 3.83704 0.0368163ZM14.7862 0.114542C14.3722 0.114542 14.0109 0.217608 13.703 0.423605C13.4058 0.619296 13.1514 0.855565 12.9391 1.13366C12.9072 0.896772 12.7794 0.675564 12.5564 0.469568C12.3441 0.263571 11.9727 0.160525 11.4419 0.160525C11.134 0.160525 10.8797 0.201846 10.678 0.284234C10.4869 0.356357 10.3326 0.448879 10.2159 0.562182C10.1096 0.675499 10.0353 0.798879 9.99281 0.932766C9.95036 1.06661 9.92934 1.19602 9.92934 1.31962C9.92934 1.50502 9.94486 1.70061 9.97674 1.90661C10.0086 2.1126 10.0459 2.32855 10.0883 2.55514C10.1308 2.78173 10.168 3.01871 10.1999 3.2659C10.2318 3.50279 10.248 3.73977 10.248 3.97666V4.64075C10.248 4.87764 10.2318 5.11462 10.1999 5.35152C10.168 5.5884 10.1308 5.82011 10.0883 6.04672C10.0459 6.27331 10.0086 6.48996 9.97674 6.69594C9.94486 6.90194 9.92934 7.09755 9.92934 7.28295C9.92934 7.40653 9.95022 7.53521 9.99281 7.66909C10.0353 7.80294 10.1097 7.93163 10.2159 8.05524C10.3327 8.16855 10.4869 8.26107 10.678 8.33316C10.8797 8.40529 11.134 8.44142 11.4419 8.44142C11.7498 8.44142 11.9994 8.40529 12.1905 8.33316C12.3816 8.26104 12.5359 8.16853 12.6526 8.05524C12.7694 7.94192 12.8486 7.8238 12.891 7.70021C12.9335 7.56636 12.9552 7.43766 12.9552 7.31407C12.9552 6.88148 12.9017 6.44888 12.7956 6.01629C12.6893 5.57341 12.6367 5.11454 12.6367 4.64075V3.97666V3.80693C12.6479 3.74507 12.6527 3.688 12.6527 3.63649C12.664 3.52317 12.6897 3.41031 12.7321 3.29702C12.7852 3.17344 12.8541 3.07036 12.9391 2.98795C13.1196 2.81286 13.2996 2.68948 13.48 2.61737C13.6605 2.54525 13.831 2.5039 13.9903 2.49364C14.1495 2.47298 14.2976 2.47831 14.4356 2.50924C14.5736 2.54017 14.6907 2.57097 14.7862 2.6019C15.0198 2.67402 15.2423 2.70482 15.4547 2.69455C15.667 2.6836 15.8422 2.61723 15.9802 2.4937C16.1395 2.34951 16.2666 2.14338 16.3622 1.8756C16.4577 1.6078 16.474 1.34523 16.4103 1.08774C16.3572 0.819949 16.2036 0.593489 15.9489 0.408089C15.7047 0.212398 15.317 0.114542 14.7862 0.114542ZM4.17163 2.09194C4.49011 2.09194 4.74519 2.14313 4.93626 2.24612C5.13797 2.34917 5.28609 2.4988 5.38164 2.69449C5.48786 2.89018 5.5568 3.12718 5.58865 3.40527C5.62053 3.68337 5.63676 3.99185 5.63676 4.33173C5.63676 4.59953 5.60502 4.85227 5.54126 5.08917C5.4775 5.32605 5.37677 5.53745 5.23876 5.72285C5.11139 5.89795 4.94697 6.04165 4.74527 6.15496C4.54358 6.25801 4.29933 6.30984 4.0127 6.30984C3.81101 6.30984 3.61951 6.28876 3.43904 6.24757C3.25858 6.20638 3.09961 6.13412 2.9616 6.03116C2.83423 5.92811 2.7334 5.78969 2.65909 5.6146C2.58475 5.4395 2.54751 5.2176 2.54751 4.9498C2.54751 4.64081 2.58475 4.32181 2.65909 3.99222C2.74401 3.65234 2.85567 3.34315 2.99368 3.06505C3.1423 2.78696 3.31211 2.55523 3.50318 2.36985C3.70489 2.18445 3.92747 2.09194 4.17163 2.09194Z" fill="black"/>
</svg>
