<svg width="32" height="13" viewBox="0 0 32 13" fill="none" xmlns="http://www.w3.org/2000/svg">
<path fill-rule="evenodd" clip-rule="evenodd" d="M32 0H0V13H32V0ZM21.3791 1.30056C21.6733 1.10634 21.9322 1.00014 22.1787 1C22.8087 0.999658 23.3597 1.68904 24.2248 3.3508C24.5216 3.92082 24.6475 4.18332 24.7643 4.17934C24.8661 4.17588 24.9611 3.96984 25.1564 3.58845C26.3813 1.19608 26.9924 0.678795 27.9766 1.20156C29.4132 1.96474 29.2041 2.79626 26.8722 5.59485C26.4732 6.07374 26.2904 6.27703 26.2667 6.49746C26.2457 6.69182 26.3484 6.89951 26.5355 7.32118C27.2034 8.82641 28.0464 9.94075 28.3629 9.73708C28.5301 9.62937 28.7998 9.80007 28.9132 10.085C29.3693 11.2315 27.9281 12.4724 26.8992 11.8191C26.5131 11.574 26.1753 11.0816 25.3619 9.57653C24.9973 8.90187 24.6694 8.38146 24.633 8.41951C24.5966 8.45755 24.2719 9.10288 23.9114 9.85375C22.9068 11.946 22.1849 12.4086 21.1465 11.6254C20.1001 10.8361 20.2272 10.3414 22.1765 7.62035C22.7288 6.84942 23.0053 6.498 23.0319 6.12856C23.059 5.75232 22.827 5.3574 22.3631 4.48166C21.8102 3.43779 21.5141 3.10048 20.9877 2.91162C20.3192 2.67179 20.5136 1.87212 21.3791 1.30056ZM5.24508 1.50075C5.72279 1.19175 6.25319 1.03682 6.83704 1.03682C7.2086 1.03682 7.52727 1.09384 7.79267 1.20716C8.05806 1.32046 8.31315 1.4747 8.55732 1.6704C8.66348 1.5262 8.81703 1.40802 9.01872 1.31537C9.22042 1.21236 9.50188 1.16048 9.86281 1.16048C10.1707 1.16048 10.4203 1.19662 10.6114 1.26874C10.8025 1.34084 10.956 1.43337 11.0728 1.54669C11.1896 1.65998 11.2694 1.78414 11.3119 1.91798C11.3544 2.05188 11.3754 2.18054 11.3754 2.30412C11.3754 2.72642 11.3227 3.159 11.2165 3.6019C11.1103 4.03447 11.0569 4.49264 11.0569 4.97673V5.64082C11.0569 6.1146 11.1103 6.57348 11.2165 7.01636C11.3226 7.44895 11.3754 7.88154 11.3754 8.31413C11.3754 8.43773 11.3544 8.56643 11.3119 8.70027C11.2694 8.82387 11.1896 8.94198 11.0728 9.0553C10.9561 9.16859 10.8025 9.26112 10.6114 9.33325C10.4203 9.40537 10.1707 9.44148 9.86281 9.44148C9.36387 9.44148 9.00329 9.35421 8.78036 9.17911C8.56805 8.99371 8.43468 8.7981 8.38164 8.59212C8.11625 8.89081 7.78746 9.13303 7.39468 9.31842C7.0125 9.50385 6.50849 9.59637 5.88216 9.59637C5.40445 9.59637 4.98498 9.53924 4.62404 9.42592C4.27372 9.30233 3.97672 9.10672 3.73256 8.83893C3.4884 8.56084 3.30231 8.20048 3.17494 7.75759C3.05812 7.3044 3 6.74843 3 6.08925C3 5.51245 3.08995 4.92563 3.27043 4.32824C3.4509 3.72055 3.70599 3.17439 4.03507 2.69031C4.37477 2.20622 4.77799 1.80974 5.24508 1.50075ZM16.703 1.4236C17.0109 1.21761 17.3722 1.11454 17.7862 1.11454C18.317 1.11454 18.7047 1.2124 18.9489 1.40809C19.2036 1.59349 19.3572 1.81995 19.4103 2.08774C19.474 2.34523 19.4577 2.6078 19.3622 2.8756C19.2666 3.14338 19.1395 3.34951 18.9802 3.4937C18.8422 3.61723 18.667 3.6836 18.4547 3.69455C18.2423 3.70482 18.0198 3.67402 17.7862 3.6019C17.6907 3.57097 17.5736 3.54017 17.4356 3.50924C17.2976 3.47831 17.1495 3.47298 16.9903 3.49364C16.831 3.5039 16.6605 3.54525 16.48 3.61737C16.2996 3.68948 16.1196 3.81286 15.9391 3.98795C15.8541 4.07035 15.7852 4.17344 15.7321 4.29702C15.6897 4.41031 15.664 4.52317 15.6527 4.63649C15.6527 4.688 15.6479 4.74507 15.6367 4.80693V4.97666V5.64075C15.6367 6.11454 15.6893 6.57341 15.7956 7.01629C15.9017 7.44888 15.9552 7.88148 15.9552 8.31407C15.9552 8.43766 15.9335 8.56636 15.891 8.70021C15.8486 8.8238 15.7694 8.94192 15.6526 9.05524C15.5359 9.16853 15.3816 9.26104 15.1905 9.33316C14.9994 9.40529 14.7498 9.44142 14.4419 9.44142C14.134 9.44142 13.8797 9.40529 13.678 9.33316C13.4869 9.26107 13.3327 9.16855 13.2159 9.05524C13.1097 8.93163 13.0353 8.80294 12.9928 8.66909C12.9502 8.53521 12.9293 8.40653 12.9293 8.28295C12.9293 8.09755 12.9449 7.90194 12.9767 7.69594C13.0086 7.48996 13.0459 7.27331 13.0883 7.04672C13.1308 6.82011 13.168 6.5884 13.1999 6.35152C13.2318 6.11462 13.248 5.87764 13.248 5.64075V4.97666C13.248 4.73977 13.2318 4.50279 13.1999 4.2659C13.168 4.01871 13.1308 3.78173 13.0883 3.55514C13.0459 3.32855 13.0086 3.1126 12.9767 2.90661C12.9449 2.70061 12.9293 2.50502 12.9293 2.31962C12.9293 2.19602 12.9504 2.06661 12.9928 1.93277C13.0353 1.79888 13.1096 1.6755 13.2159 1.56218C13.3326 1.44888 13.4869 1.35636 13.678 1.28423C13.8797 1.20185 14.134 1.16053 14.4419 1.16053C14.9727 1.16053 15.3441 1.26357 15.5564 1.46957C15.7794 1.67556 15.9072 1.89677 15.9391 2.13366C16.1514 1.85556 16.4058 1.6193 16.703 1.4236ZM7.93626 3.24612C7.74519 3.14313 7.49011 3.09194 7.17163 3.09194C6.92747 3.09194 6.70489 3.18445 6.50318 3.36985C6.31211 3.55523 6.1423 3.78696 5.99368 4.06505C5.85567 4.34314 5.74401 4.65234 5.65909 4.99222C5.58475 5.32181 5.54751 5.64081 5.54751 5.9498C5.54751 6.2176 5.58475 6.4395 5.65909 6.6146C5.7334 6.78969 5.83423 6.92811 5.9616 7.03116C6.09961 7.13412 6.25858 7.20638 6.43904 7.24757C6.61951 7.28876 6.81101 7.30984 7.0127 7.30984C7.29933 7.30984 7.54358 7.25801 7.74527 7.15496C7.94697 7.04165 8.11139 6.89795 8.23876 6.72285C8.37677 6.53745 8.4775 6.32605 8.54126 6.08917C8.60502 5.85227 8.63676 5.59953 8.63676 5.33173C8.63676 4.99185 8.62053 4.68337 8.58865 4.40527C8.5568 4.12718 8.48786 3.89018 8.38164 3.69449C8.28609 3.4988 8.13797 3.34917 7.93626 3.24612Z" fill="black"/>
</svg>
