<svg width="30" height="14" viewBox="0 0 30 14" fill="none" xmlns="http://www.w3.org/2000/svg">
<path fill-rule="evenodd" clip-rule="evenodd" d="M30 0H0V14H30V0ZM4.48081 11.08C4.58748 10.7707 4.67815 10.4773 4.75281 10.2C4.80615 9.99733 4.93415 9.88533 5.13681 9.864C5.23281 9.85333 5.33415 9.848 5.44081 9.848C5.55815 9.83733 5.68615 9.832 5.82481 9.832H6.46481H6.78481C6.89148 9.832 6.99281 9.83733 7.08881 9.848C7.29148 9.86933 7.41948 9.98133 7.47281 10.184C7.54748 10.4613 7.63281 10.7547 7.72881 11.064C7.83548 11.3733 7.97415 11.7307 8.14481 12.136C8.23015 12.3493 8.36348 12.5467 8.54481 12.728C8.73681 12.9093 8.99815 13 9.32881 13C9.55281 13 9.82481 12.936 10.1448 12.808C10.4541 12.68 10.6835 12.536 10.8328 12.376C10.9928 12.2053 11.0995 12.0347 11.1528 11.864C11.2168 11.6827 11.2381 11.5067 11.2168 11.336C11.1955 11.1653 11.1528 11.0107 11.0888 10.872C10.4488 9.37867 9.87281 7.88533 9.36081 6.392C8.85948 4.89867 8.34215 3.368 7.80881 1.8C7.72348 1.55467 7.53148 1.352 7.23281 1.192C6.93415 1.032 6.56081 0.952 6.11281 0.952C5.66481 0.952 5.29148 1.032 4.99281 1.192C4.69415 1.352 4.50215 1.55467 4.41681 1.8C3.89415 3.368 3.37681 4.89867 2.86481 6.392C2.35281 7.88533 1.77681 9.37867 1.13681 10.872C1.07281 11.0107 1.03015 11.1653 1.00881 11.336C0.987479 11.5067 1.00348 11.6827 1.05681 11.864C1.12081 12.0347 1.23281 12.2053 1.39281 12.376C1.55281 12.536 1.78215 12.68 2.08081 12.808C2.40081 12.936 2.67281 13 2.89681 13C3.22748 13 3.48348 12.9093 3.66481 12.728C3.85681 12.5467 3.99548 12.3493 4.08081 12.136C4.25148 11.7307 4.38481 11.3787 4.48081 11.08ZM5.87281 5.096C5.92615 4.872 5.97415 4.68533 6.01681 4.536C6.03815 4.45067 6.07015 4.408 6.11281 4.408C6.15548 4.408 6.18748 4.45067 6.20881 4.536C6.25148 4.68533 6.29948 4.87733 6.35281 5.112C6.40615 5.336 6.45948 5.576 6.51281 5.832C6.56615 6.088 6.61948 6.34933 6.67281 6.616C6.72615 6.88267 6.77415 7.13867 6.81681 7.384C6.84881 7.58667 6.76881 7.688 6.57681 7.688H6.46481H5.82481H5.64881C5.45681 7.688 5.37681 7.58133 5.40881 7.368C5.46215 7.12267 5.51015 6.86667 5.55281 6.6C5.60615 6.33333 5.65948 6.072 5.71281 5.816C5.76615 5.56 5.81948 5.32 5.87281 5.096ZM15.2353 8.2C15.246 8.136 15.2513 8.07733 15.2513 8.024C15.262 7.90667 15.2886 7.78933 15.3313 7.672C15.3846 7.544 15.454 7.43733 15.5393 7.352C15.7206 7.17067 15.902 7.04267 16.0833 6.968C16.2646 6.89333 16.4353 6.85067 16.5953 6.84C16.7553 6.81867 16.9046 6.824 17.0433 6.856C17.182 6.888 17.2993 6.92 17.3953 6.952C17.63 7.02667 17.854 7.05867 18.0673 7.048C18.2806 7.03733 18.4566 6.968 18.5953 6.84C18.7553 6.69067 18.8833 6.47733 18.9793 6.2C19.0753 5.92267 19.0913 5.65067 19.0273 5.384C18.974 5.10667 18.8193 4.872 18.5633 4.68C18.318 4.47733 17.9286 4.376 17.3953 4.376C16.9793 4.376 16.6166 4.48267 16.3073 4.696C16.0086 4.89867 15.7526 5.144 15.5393 5.432C15.5073 5.18667 15.3793 4.95733 15.1553 4.744C14.942 4.53067 14.5686 4.424 14.0353 4.424C13.726 4.424 13.47 4.46667 13.2673 4.552C13.0753 4.62667 12.9206 4.72267 12.8033 4.84C12.6966 4.95733 12.622 5.08533 12.5793 5.224C12.5366 5.36267 12.5153 5.496 12.5153 5.624C12.5153 5.816 12.5313 6.01867 12.5633 6.232C12.5953 6.44533 12.6326 6.66933 12.6753 6.904C12.718 7.13867 12.7553 7.384 12.7873 7.64C12.8193 7.88533 12.8353 8.13067 12.8353 8.376V9.064C12.8353 9.30933 12.8193 9.55467 12.7873 9.8C12.7553 10.0453 12.718 10.2853 12.6753 10.52C12.6326 10.7547 12.5953 10.9787 12.5633 11.192C12.5313 11.4053 12.5153 11.608 12.5153 11.8C12.5153 11.928 12.5366 12.0613 12.5793 12.2C12.622 12.3387 12.6966 12.472 12.8033 12.6C12.9206 12.7173 13.0753 12.8133 13.2673 12.888C13.47 12.9627 13.726 13 14.0353 13C14.3446 13 14.5953 12.9627 14.7873 12.888C14.9793 12.8133 15.134 12.7173 15.2513 12.6C15.3686 12.4827 15.4486 12.36 15.4913 12.232C15.534 12.0933 15.5553 11.96 15.5553 11.832C15.5553 11.384 15.502 10.936 15.3953 10.488C15.2886 10.0293 15.2353 9.55467 15.2353 9.064V8.376V8.2ZM23.7356 11.32C23.9169 11.064 24.1089 10.808 24.3116 10.552C24.3969 10.456 24.4769 10.408 24.5516 10.408C24.6476 10.408 24.7276 10.456 24.7916 10.552C25.0369 10.8613 25.2609 11.16 25.4636 11.448C25.6769 11.736 25.8902 11.9973 26.1036 12.232C26.1676 12.3067 26.2422 12.392 26.3276 12.488C26.4129 12.5733 26.5036 12.6587 26.5996 12.744C26.7062 12.8187 26.8236 12.8827 26.9516 12.936C27.0796 12.9893 27.2182 13.016 27.3676 13.016C27.5169 13.016 27.6716 12.984 27.8316 12.92C28.0022 12.8453 28.1782 12.728 28.3596 12.568C28.6476 12.3227 28.8236 12.0827 28.8876 11.848C28.9516 11.6133 28.9569 11.3947 28.9036 11.192C28.8502 10.9787 28.7596 10.7867 28.6316 10.616C28.5036 10.4453 28.3916 10.3013 28.2956 10.184C28.0822 9.93867 27.8422 9.70933 27.5756 9.496C27.3089 9.272 27.0369 9.048 26.7596 8.824C26.5676 8.664 26.5676 8.504 26.7596 8.344C27.0156 8.13067 27.2556 7.928 27.4796 7.736C27.7142 7.544 27.9382 7.34667 28.1516 7.144C28.2902 7.016 28.4129 6.888 28.5196 6.76C28.6262 6.62133 28.6956 6.472 28.7276 6.312C28.7702 6.152 28.7596 5.97067 28.6956 5.768C28.6422 5.56533 28.5196 5.32533 28.3276 5.048C28.1782 4.83467 28.0236 4.68533 27.8636 4.6C27.7036 4.51467 27.5382 4.472 27.3676 4.472C27.1756 4.472 26.9889 4.52 26.8076 4.616C26.6369 4.70133 26.4876 4.80267 26.3596 4.92C26.0822 5.16533 25.8316 5.42133 25.6076 5.688C25.3942 5.95467 25.1756 6.22667 24.9516 6.504C24.8769 6.6 24.7916 6.648 24.6956 6.648C24.5996 6.648 24.5196 6.6 24.4556 6.504C24.1889 6.16267 23.9329 5.82667 23.6876 5.496C23.4529 5.16533 23.2236 4.90933 22.9996 4.728C22.6796 4.472 22.3809 4.344 22.1036 4.344C21.7729 4.344 21.4422 4.51467 21.1116 4.856C20.9196 5.05867 20.7809 5.24533 20.6956 5.416C20.6209 5.58667 20.5836 5.752 20.5836 5.912C20.5836 6.06133 20.6102 6.2 20.6636 6.328C20.7276 6.456 20.8076 6.57333 20.9036 6.68C21.1169 6.91467 21.3622 7.16533 21.6396 7.432C21.9276 7.688 22.2262 7.95467 22.5356 8.232C22.7276 8.40267 22.7276 8.57867 22.5356 8.76C22.2902 8.984 22.0556 9.20267 21.8316 9.416C21.6076 9.62933 21.3729 9.864 21.1276 10.12C21.0209 10.2373 20.8982 10.3707 20.7596 10.52C20.6209 10.6693 20.5142 10.84 20.4396 11.032C20.3756 11.224 20.3649 11.4373 20.4076 11.672C20.4502 11.9067 20.5996 12.168 20.8556 12.456C21.0369 12.648 21.2022 12.7867 21.3516 12.872C21.5116 12.9467 21.6662 12.984 21.8156 12.984C21.9649 12.984 22.1036 12.952 22.2316 12.888C22.3702 12.8133 22.4929 12.728 22.5996 12.632C22.7169 12.5253 22.8236 12.4187 22.9196 12.312C23.0156 12.1947 23.0956 12.0987 23.1596 12.024C23.3729 11.8 23.5649 11.5653 23.7356 11.32Z" fill="black"/>
</svg>
