<svg width="48" height="32" viewBox="0 0 48 32" fill="none" xmlns="http://www.w3.org/2000/svg">
<path d="M4.29656 10.2C4.2219 10.4773 4.13123 10.7707 4.02456 11.08C3.92856 11.3787 3.79523 11.7307 3.62456 12.136C3.53923 12.3493 3.40056 12.5467 3.20856 12.728C3.02723 12.9093 2.77123 13 2.44056 13C2.21656 13 1.94456 12.936 1.62456 12.808C1.3259 12.68 1.09656 12.536 0.936562 12.376C0.776562 12.2053 0.664562 12.0347 0.600562 11.864C0.547229 11.6827 0.531229 11.5067 0.552562 11.336C0.573895 11.1653 0.616562 11.0107 0.680562 10.872C1.32056 9.37867 1.89656 7.88533 2.40856 6.392C2.92056 4.89867 3.4379 3.368 3.96056 1.8C4.0459 1.55467 4.2379 1.352 4.53656 1.192C4.83523 1.032 5.20856 0.952 5.65656 0.952C6.10456 0.952 6.4779 1.032 6.77656 1.192C7.07523 1.352 7.26723 1.55467 7.35256 1.8C7.8859 3.368 8.40323 4.89867 8.90456 6.392C9.41656 7.88533 9.99256 9.37867 10.6326 10.872C10.6966 11.0107 10.7392 11.1653 10.7606 11.336C10.7819 11.5067 10.7606 11.6827 10.6966 11.864C10.6432 12.0347 10.5366 12.2053 10.3766 12.376C10.2272 12.536 9.9979 12.68 9.68856 12.808C9.36856 12.936 9.09656 13 8.87256 13C8.5419 13 8.28056 12.9093 8.08856 12.728C7.90723 12.5467 7.7739 12.3493 7.68856 12.136C7.5179 11.7307 7.37923 11.3733 7.27256 11.064C7.17656 10.7547 7.09123 10.4613 7.01656 10.184C6.96323 9.98133 6.83523 9.86933 6.63256 9.848C6.53656 9.83733 6.43523 9.832 6.32856 9.832C6.23256 9.832 6.1259 9.832 6.00856 9.832H5.36856C5.2299 9.832 5.1019 9.83733 4.98456 9.848C4.8779 9.848 4.77656 9.85333 4.68056 9.864C4.4779 9.88533 4.3499 9.99733 4.29656 10.2ZM5.56056 4.536C5.5179 4.68533 5.4699 4.872 5.41656 5.096C5.36323 5.32 5.3099 5.56 5.25656 5.816C5.20323 6.072 5.1499 6.33333 5.09656 6.6C5.0539 6.86667 5.0059 7.12267 4.95256 7.368C4.92056 7.58133 5.00056 7.688 5.19256 7.688H5.36856H6.00856H6.12056C6.31256 7.688 6.39256 7.58667 6.36056 7.384C6.3179 7.13867 6.2699 6.88267 6.21656 6.616C6.16323 6.34933 6.1099 6.088 6.05656 5.832C6.00323 5.576 5.9499 5.336 5.89656 5.112C5.84323 4.87733 5.79523 4.68533 5.75256 4.536C5.73123 4.45067 5.69923 4.408 5.65656 4.408C5.6139 4.408 5.5819 4.45067 5.56056 4.536ZM20.2631 7C20.3057 7.96 20.2631 8.824 20.1351 9.592C20.0177 10.3493 19.7937 10.9947 19.4631 11.528C19.1431 12.0507 18.7057 12.456 18.1511 12.744C17.5964 13.0213 16.9031 13.16 16.0711 13.16C15.2391 13.16 14.5457 13.0213 13.9911 12.744C13.4471 12.456 13.0151 12.0507 12.6951 11.528C12.3751 10.9947 12.1564 10.3493 12.0391 9.592C11.9324 8.824 11.9004 7.96 11.9431 7C11.9644 6.59467 11.9591 6.19467 11.9271 5.8C11.8951 5.40533 11.8577 5.016 11.8151 4.632C11.7724 4.248 11.7297 3.86933 11.6871 3.496C11.6551 3.112 11.6391 2.728 11.6391 2.344C11.6391 2.09867 11.6817 1.89067 11.7671 1.72C11.8524 1.54933 11.9697 1.41067 12.1191 1.304C12.2684 1.19733 12.4444 1.12267 12.6471 1.08C12.8497 1.02667 13.0631 0.999999 13.2871 0.999999C13.5964 0.999999 13.8524 1.04267 14.0551 1.128C14.2577 1.20267 14.4177 1.304 14.5351 1.432C14.6524 1.56 14.7324 1.704 14.7751 1.864C14.8177 2.01333 14.8391 2.16267 14.8391 2.312C14.8391 3.10133 14.7857 3.88 14.6791 4.648C14.5724 5.416 14.5191 6.19467 14.5191 6.984C14.5191 7.528 14.5297 8.024 14.5511 8.472C14.5724 8.90933 14.6311 9.28267 14.7271 9.592C14.8337 9.90133 14.9884 10.1413 15.1911 10.312C15.4044 10.4827 15.6977 10.568 16.0711 10.568C16.4444 10.568 16.7377 10.4827 16.9511 10.312C17.1644 10.1413 17.3191 9.90133 17.4151 9.592C17.5217 9.28267 17.5857 8.90933 17.6071 8.472C17.6391 8.024 17.6551 7.528 17.6551 6.984C17.6551 6.19467 17.6017 5.416 17.4951 4.648C17.3991 3.88 17.3511 3.10133 17.3511 2.312C17.3511 2.16267 17.3724 2.01333 17.4151 1.864C17.4577 1.704 17.5377 1.56 17.6551 1.432C17.7724 1.304 17.9324 1.20267 18.1351 1.128C18.3377 1.04267 18.5937 0.999999 18.9031 0.999999C19.1271 0.999999 19.3404 1.02667 19.5431 1.08C19.7457 1.12267 19.9217 1.19733 20.0711 1.304C20.2204 1.41067 20.3377 1.54933 20.4231 1.72C20.5084 1.89067 20.5511 2.09867 20.5511 2.344C20.5511 2.728 20.5297 3.11733 20.4871 3.512C20.4551 3.896 20.4177 4.28 20.3751 4.664C20.3431 5.048 20.3111 5.43733 20.2791 5.832C20.2577 6.216 20.2524 6.60533 20.2631 7ZM22.4778 6.52C22.4778 6.17867 22.4618 5.84267 22.4298 5.512C22.3978 5.17067 22.3605 4.82933 22.3178 4.488C22.2751 4.136 22.2378 3.784 22.2058 3.432C22.1738 3.08 22.1578 2.71733 22.1578 2.344C22.1578 2.088 22.2005 1.87467 22.2858 1.704C22.3818 1.53333 22.5045 1.39467 22.6538 1.288C22.8138 1.18133 22.9951 1.10667 23.1978 1.064C23.4111 1.02133 23.6298 0.999999 23.8538 0.999999H25.9338C26.7551 0.999999 27.4751 1.16 28.0938 1.48C28.7231 1.8 29.2511 2.232 29.6778 2.776C30.1045 3.32 30.4245 3.95467 30.6378 4.68C30.8618 5.40533 30.9738 6.17867 30.9738 7C30.9738 8.92 30.5685 10.4027 29.7578 11.448C28.9471 12.4827 27.6725 13 25.9338 13H23.8378C23.6138 13 23.3951 12.9787 23.1818 12.936C22.9791 12.8933 22.8031 12.8187 22.6538 12.712C22.5045 12.6053 22.3818 12.4667 22.2858 12.296C22.2005 12.1253 22.1578 11.912 22.1578 11.656C22.1578 11.2827 22.1738 10.92 22.2058 10.568C22.2378 10.216 22.2751 9.86933 22.3178 9.528C22.3605 9.176 22.3978 8.83467 22.4298 8.504C22.4618 8.16267 22.4778 7.82133 22.4778 7.48V6.52ZM25.9338 10.408C26.7551 10.408 27.3365 10.1093 27.6778 9.512C28.0191 8.91467 28.1898 8.072 28.1898 6.984C28.1898 6.44 28.1578 5.944 28.0938 5.496C28.0298 5.03733 27.9125 4.64267 27.7418 4.312C27.5711 3.98133 27.3365 3.72533 27.0378 3.544C26.7498 3.352 26.3818 3.256 25.9338 3.256H25.6298C25.4378 3.256 25.3311 3.35733 25.3098 3.56C25.2565 4.09333 25.1978 4.59467 25.1338 5.064C25.0698 5.52267 25.0378 6.008 25.0378 6.52V7.48C25.0378 7.928 25.0591 8.36533 25.1018 8.792C25.1551 9.208 25.2085 9.64533 25.2618 10.104C25.2831 10.3067 25.3951 10.408 25.5978 10.408H25.9338ZM32.8091 6.52C32.8091 6.17867 32.7931 5.84267 32.7611 5.512C32.7291 5.17067 32.6917 4.82933 32.6491 4.488C32.6064 4.136 32.5691 3.784 32.5371 3.432C32.5051 3.08 32.4891 2.71733 32.4891 2.344C32.4891 2.09867 32.5317 1.89067 32.6171 1.72C32.7024 1.54933 32.8197 1.41067 32.9691 1.304C33.1184 1.19733 33.2944 1.12267 33.4971 1.08C33.6997 1.02667 33.9131 0.999999 34.1371 0.999999C34.4464 0.999999 34.7024 1.04267 34.9051 1.128C35.1077 1.20267 35.2677 1.304 35.3851 1.432C35.5024 1.56 35.5824 1.704 35.6251 1.864C35.6677 2.01333 35.6891 2.16267 35.6891 2.312C35.6891 2.728 35.6731 3.11733 35.6411 3.48C35.6091 3.84267 35.5717 4.19467 35.5291 4.536C35.4864 4.86667 35.4491 5.19733 35.4171 5.528C35.3851 5.848 35.3691 6.17867 35.3691 6.52V7.48C35.3691 7.82133 35.3851 8.15733 35.4171 8.488C35.4491 8.808 35.4864 9.13867 35.5291 9.48C35.5717 9.81067 35.6091 10.1573 35.6411 10.52C35.6731 10.8827 35.6891 11.272 35.6891 11.688C35.6891 11.8373 35.6677 11.992 35.6251 12.152C35.5824 12.3013 35.5024 12.44 35.3851 12.568C35.2677 12.696 35.1077 12.8027 34.9051 12.888C34.7024 12.9627 34.4464 13 34.1371 13C33.6784 13 33.2891 12.8987 32.9691 12.696C32.6491 12.4933 32.4891 12.1467 32.4891 11.656C32.4891 11.2827 32.5051 10.92 32.5371 10.568C32.5691 10.216 32.6064 9.86933 32.6491 9.528C32.6917 9.176 32.7291 8.83467 32.7611 8.504C32.7931 8.16267 32.8091 7.82133 32.8091 7.48V6.52ZM37.2091 7C37.2091 6.17867 37.3157 5.4 37.5291 4.664C37.7424 3.91733 38.0624 3.26133 38.4891 2.696C38.9157 2.13067 39.4437 1.68267 40.0731 1.352C40.7024 1.01067 41.4331 0.839999 42.2651 0.839999C43.0864 0.839999 43.8064 1.01067 44.4251 1.352C45.0544 1.68267 45.5824 2.13067 46.0091 2.696C46.4357 3.26133 46.7557 3.91733 46.9691 4.664C47.1931 5.4 47.3051 6.17867 47.3051 7C47.3051 7.96 47.2037 8.824 47.0011 9.592C46.8091 10.3493 46.5051 10.9947 46.0891 11.528C45.6731 12.0507 45.1451 12.456 44.5051 12.744C43.8757 13.0213 43.1291 13.16 42.2651 13.16C41.3904 13.16 40.6331 13.0213 39.9931 12.744C39.3637 12.456 38.8411 12.0507 38.4251 11.528C38.0091 10.9947 37.6997 10.3493 37.4971 9.592C37.3051 8.824 37.2091 7.96 37.2091 7ZM40.0091 6.984C40.0091 7.528 40.0464 8.024 40.1211 8.472C40.2064 8.90933 40.3397 9.28267 40.5211 9.592C40.7024 9.90133 40.9317 10.1413 41.2091 10.312C41.4971 10.4827 41.8491 10.568 42.2651 10.568C42.6811 10.568 43.0277 10.4827 43.3051 10.312C43.5931 10.1413 43.8277 9.90133 44.0091 9.592C44.1904 9.28267 44.3184 8.90933 44.3931 8.472C44.4784 8.024 44.5211 7.528 44.5211 6.984C44.5211 6.44 44.4891 5.93333 44.4251 5.464C44.3611 4.99467 44.2437 4.584 44.0731 4.232C43.9024 3.88 43.6677 3.60267 43.3691 3.4C43.0811 3.19733 42.7131 3.096 42.2651 3.096C41.8171 3.096 41.4437 3.19733 41.1451 3.4C40.8571 3.60267 40.6277 3.88 40.4571 4.232C40.2864 4.584 40.1691 4.99467 40.1051 5.464C40.0411 5.93333 40.0091 6.44 40.0091 6.984ZM9.03562 25C9.03562 24.1787 9.14229 23.4 9.35562 22.664C9.56896 21.9173 9.88896 21.2613 10.3156 20.696C10.7423 20.1307 11.2703 19.6827 11.8996 19.352C12.529 19.0107 13.2596 18.84 14.0916 18.84C14.913 18.84 15.633 19.0107 16.2516 19.352C16.881 19.6827 17.409 20.1307 17.8356 20.696C18.2623 21.2613 18.5823 21.9173 18.7956 22.664C19.0196 23.4 19.1316 24.1787 19.1316 25C19.1316 25.96 19.0303 26.824 18.8276 27.592C18.6356 28.3493 18.3316 28.9947 17.9156 29.528C17.4996 30.0507 16.9716 30.456 16.3316 30.744C15.7023 31.0213 14.9556 31.16 14.0916 31.16C13.217 31.16 12.4596 31.0213 11.8196 30.744C11.1903 30.456 10.6676 30.0507 10.2516 29.528C9.83562 28.9947 9.52629 28.3493 9.32362 27.592C9.13162 26.824 9.03562 25.96 9.03562 25ZM11.8356 24.984C11.8356 25.528 11.873 26.024 11.9476 26.472C12.033 26.9093 12.1663 27.2827 12.3476 27.592C12.529 27.9013 12.7583 28.1413 13.0356 28.312C13.3236 28.4827 13.6756 28.568 14.0916 28.568C14.5076 28.568 14.8543 28.4827 15.1316 28.312C15.4196 28.1413 15.6543 27.9013 15.8356 27.592C16.017 27.2827 16.145 26.9093 16.2196 26.472C16.305 26.024 16.3476 25.528 16.3476 24.984C16.3476 24.44 16.3156 23.9333 16.2516 23.464C16.1876 22.9947 16.0703 22.584 15.8996 22.232C15.729 21.88 15.4943 21.6027 15.1956 21.4C14.9076 21.1973 14.5396 21.096 14.0916 21.096C13.6436 21.096 13.2703 21.1973 12.9716 21.4C12.6836 21.6027 12.4543 21.88 12.2836 22.232C12.113 22.584 11.9956 22.9947 11.9316 23.464C11.8676 23.9333 11.8356 24.44 11.8356 24.984ZM29.274 25C29.3167 25.96 29.274 26.824 29.146 27.592C29.0287 28.3493 28.8047 28.9947 28.474 29.528C28.154 30.0507 27.7167 30.456 27.162 30.744C26.6073 31.0213 25.914 31.16 25.082 31.16C24.25 31.16 23.5567 31.0213 23.002 30.744C22.458 30.456 22.026 30.0507 21.706 29.528C21.386 28.9947 21.1673 28.3493 21.05 27.592C20.9433 26.824 20.9113 25.96 20.954 25C20.9753 24.5947 20.97 24.1947 20.938 23.8C20.906 23.4053 20.8687 23.016 20.826 22.632C20.7833 22.248 20.7407 21.8693 20.698 21.496C20.666 21.112 20.65 20.728 20.65 20.344C20.65 20.0987 20.6927 19.8907 20.778 19.72C20.8633 19.5493 20.9807 19.4107 21.13 19.304C21.2793 19.1973 21.4553 19.1227 21.658 19.08C21.8607 19.0267 22.074 19 22.298 19C22.6073 19 22.8633 19.0427 23.066 19.128C23.2687 19.2027 23.4287 19.304 23.546 19.432C23.6633 19.56 23.7433 19.704 23.786 19.864C23.8287 20.0133 23.85 20.1627 23.85 20.312C23.85 21.1013 23.7967 21.88 23.69 22.648C23.5833 23.416 23.53 24.1947 23.53 24.984C23.53 25.528 23.5407 26.024 23.562 26.472C23.5833 26.9093 23.642 27.2827 23.738 27.592C23.8447 27.9013 23.9993 28.1413 24.202 28.312C24.4153 28.4827 24.7087 28.568 25.082 28.568C25.4553 28.568 25.7487 28.4827 25.962 28.312C26.1753 28.1413 26.33 27.9013 26.426 27.592C26.5327 27.2827 26.5967 26.9093 26.618 26.472C26.65 26.024 26.666 25.528 26.666 24.984C26.666 24.1947 26.6127 23.416 26.506 22.648C26.41 21.88 26.362 21.1013 26.362 20.312C26.362 20.1627 26.3833 20.0133 26.426 19.864C26.4687 19.704 26.5487 19.56 26.666 19.432C26.7833 19.304 26.9433 19.2027 27.146 19.128C27.3487 19.0427 27.6047 19 27.914 19C28.138 19 28.3513 19.0267 28.554 19.08C28.7567 19.1227 28.9327 19.1973 29.082 19.304C29.2313 19.4107 29.3487 19.5493 29.434 19.72C29.5193 19.8907 29.562 20.0987 29.562 20.344C29.562 20.728 29.5407 21.1173 29.498 21.512C29.466 21.896 29.4287 22.28 29.386 22.664C29.354 23.048 29.322 23.4373 29.29 23.832C29.2687 24.216 29.2633 24.6053 29.274 25ZM36.4167 21.912C36.3954 22.3707 36.3687 22.808 36.3367 23.224C36.3154 23.64 36.3047 24.072 36.3047 24.52V25.48C36.3047 25.8213 36.3207 26.1573 36.3527 26.488C36.3847 26.808 36.4221 27.1387 36.4647 27.48C36.5074 27.8107 36.5447 28.1573 36.5767 28.52C36.6087 28.8827 36.6247 29.272 36.6247 29.688C36.6247 29.8373 36.6034 29.992 36.5607 30.152C36.5181 30.3013 36.4327 30.44 36.3047 30.568C36.1874 30.696 36.0221 30.8027 35.8087 30.888C35.6061 30.9627 35.3447 31 35.0247 31C34.6941 31 34.4221 30.9573 34.2087 30.872C34.0061 30.7867 33.8461 30.68 33.7287 30.552C33.6114 30.4133 33.5314 30.2693 33.4887 30.12C33.4461 29.96 33.4247 29.8053 33.4247 29.656C33.4247 29.2827 33.4407 28.92 33.4727 28.568C33.5047 28.216 33.5421 27.8693 33.5847 27.528C33.6274 27.176 33.6647 26.8347 33.6967 26.504C33.7287 26.1627 33.7447 25.8213 33.7447 25.48V24.52C33.7447 24.0827 33.7287 23.6507 33.6967 23.224C33.6754 22.7973 33.6541 22.36 33.6327 21.912C33.6114 21.7307 33.5154 21.656 33.3447 21.688C33.1421 21.7413 32.9607 21.7893 32.8007 21.832C32.6514 21.864 32.4807 21.88 32.2887 21.88C32.1394 21.88 31.9847 21.8693 31.8247 21.848C31.6754 21.816 31.5314 21.752 31.3927 21.656C31.2647 21.56 31.1581 21.416 31.0727 21.224C30.9874 21.032 30.9447 20.7707 30.9447 20.44C30.9447 20.12 30.9821 19.864 31.0567 19.672C31.1421 19.48 31.2487 19.336 31.3767 19.24C31.5047 19.1333 31.6434 19.0693 31.7927 19.048C31.9527 19.016 32.1074 19 32.2567 19C32.4701 19 32.6514 19.016 32.8007 19.048C32.9607 19.0693 33.1207 19.096 33.2807 19.128C33.4514 19.1493 33.6434 19.176 33.8567 19.208C34.0807 19.2293 34.3634 19.24 34.7047 19.24H35.3447C35.6861 19.24 35.9634 19.2293 36.1767 19.208C36.4007 19.176 36.5927 19.1493 36.7527 19.128C36.9234 19.096 37.0834 19.0693 37.2327 19.048C37.3927 19.016 37.5794 19 37.7927 19C37.9421 19 38.0914 19.016 38.2407 19.048C38.4007 19.0693 38.5447 19.1333 38.6727 19.24C38.8007 19.336 38.9021 19.48 38.9767 19.672C39.0621 19.864 39.1047 20.12 39.1047 20.44C39.1047 20.7707 39.0621 21.032 38.9767 21.224C38.8914 21.416 38.7794 21.56 38.6407 21.656C38.5127 21.752 38.3687 21.816 38.2087 21.848C38.0594 21.8693 37.9101 21.88 37.7607 21.88C37.5687 21.88 37.3927 21.864 37.2327 21.832C37.0834 21.7893 36.9074 21.7413 36.7047 21.688C36.5341 21.656 36.4381 21.7307 36.4167 21.912Z" fill="black"/>
</svg>
