<svg width="48" height="32" viewBox="0 0 48 32" fill="none" xmlns="http://www.w3.org/2000/svg">
<path d="M4.67312 10.2C4.59846 10.4773 4.50779 10.7707 4.40112 11.08C4.30512 11.3787 4.17179 11.7307 4.00112 12.136C3.91579 12.3493 3.77712 12.5467 3.58512 12.728C3.40379 12.9093 3.14779 13 2.81712 13C2.59312 13 2.32112 12.936 2.00112 12.808C1.70246 12.68 1.47312 12.536 1.31312 12.376C1.15312 12.2053 1.04112 12.0347 0.977124 11.864C0.923791 11.6827 0.907791 11.5067 0.929124 11.336C0.950458 11.1653 0.993124 11.0107 1.05712 10.872C1.69712 9.37867 2.27312 7.88533 2.78512 6.392C3.29712 4.89867 3.81446 3.368 4.33712 1.8C4.42246 1.55467 4.61446 1.352 4.91312 1.192C5.21179 1.032 5.58512 0.952 6.03312 0.952C6.48112 0.952 6.85446 1.032 7.15312 1.192C7.45179 1.352 7.64379 1.55467 7.72912 1.8C8.26246 3.368 8.77979 4.89867 9.28113 6.392C9.79312 7.88533 10.3691 9.37867 11.0091 10.872C11.0731 11.0107 11.1158 11.1653 11.1371 11.336C11.1585 11.5067 11.1371 11.6827 11.0731 11.864C11.0198 12.0347 10.9131 12.2053 10.7531 12.376C10.6038 12.536 10.3745 12.68 10.0651 12.808C9.74512 12.936 9.47312 13 9.24912 13C8.91846 13 8.65712 12.9093 8.46512 12.728C8.28379 12.5467 8.15046 12.3493 8.06512 12.136C7.89446 11.7307 7.75579 11.3733 7.64912 11.064C7.55312 10.7547 7.46779 10.4613 7.39312 10.184C7.33979 9.98133 7.21179 9.86933 7.00912 9.848C6.91312 9.83733 6.81179 9.832 6.70512 9.832C6.60912 9.832 6.50246 9.832 6.38512 9.832H5.74512C5.60646 9.832 5.47846 9.83733 5.36112 9.848C5.25446 9.848 5.15312 9.85333 5.05712 9.864C4.85446 9.88533 4.72646 9.99733 4.67312 10.2ZM5.93712 4.536C5.89446 4.68533 5.84646 4.872 5.79312 5.096C5.73979 5.32 5.68646 5.56 5.63312 5.816C5.57979 6.072 5.52646 6.33333 5.47312 6.6C5.43046 6.86667 5.38246 7.12267 5.32912 7.368C5.29712 7.58133 5.37712 7.688 5.56912 7.688H5.74512H6.38512H6.49712C6.68912 7.688 6.76912 7.58667 6.73712 7.384C6.69446 7.13867 6.64646 6.88267 6.59312 6.616C6.53979 6.34933 6.48646 6.088 6.43312 5.832C6.37979 5.576 6.32646 5.336 6.27312 5.112C6.21979 4.87733 6.17179 4.68533 6.12912 4.536C6.10779 4.45067 6.07579 4.408 6.03312 4.408C5.99046 4.408 5.95846 4.45067 5.93712 4.536ZM20.6396 7C20.6823 7.96 20.6396 8.824 20.5116 9.592C20.3943 10.3493 20.1703 10.9947 19.8396 11.528C19.5196 12.0507 19.0823 12.456 18.5276 12.744C17.973 13.0213 17.2796 13.16 16.4476 13.16C15.6156 13.16 14.9223 13.0213 14.3676 12.744C13.8236 12.456 13.3916 12.0507 13.0716 11.528C12.7516 10.9947 12.533 10.3493 12.4156 9.592C12.309 8.824 12.277 7.96 12.3196 7C12.341 6.59467 12.3356 6.19467 12.3036 5.8C12.2716 5.40533 12.2343 5.016 12.1916 4.632C12.149 4.248 12.1063 3.86933 12.0636 3.496C12.0316 3.112 12.0156 2.728 12.0156 2.344C12.0156 2.09867 12.0583 1.89067 12.1436 1.72C12.229 1.54933 12.3463 1.41067 12.4956 1.304C12.645 1.19733 12.821 1.12267 13.0236 1.08C13.2263 1.02667 13.4396 0.999999 13.6636 0.999999C13.973 0.999999 14.229 1.04267 14.4316 1.128C14.6343 1.20267 14.7943 1.304 14.9116 1.432C15.029 1.56 15.109 1.704 15.1516 1.864C15.1943 2.01333 15.2156 2.16267 15.2156 2.312C15.2156 3.10133 15.1623 3.88 15.0556 4.648C14.949 5.416 14.8956 6.19467 14.8956 6.984C14.8956 7.528 14.9063 8.024 14.9276 8.472C14.949 8.90933 15.0076 9.28267 15.1036 9.592C15.2103 9.90133 15.365 10.1413 15.5676 10.312C15.781 10.4827 16.0743 10.568 16.4476 10.568C16.821 10.568 17.1143 10.4827 17.3276 10.312C17.541 10.1413 17.6956 9.90133 17.7916 9.592C17.8983 9.28267 17.9623 8.90933 17.9836 8.472C18.0156 8.024 18.0316 7.528 18.0316 6.984C18.0316 6.19467 17.9783 5.416 17.8716 4.648C17.7756 3.88 17.7276 3.10133 17.7276 2.312C17.7276 2.16267 17.749 2.01333 17.7916 1.864C17.8343 1.704 17.9143 1.56 18.0316 1.432C18.149 1.304 18.309 1.20267 18.5116 1.128C18.7143 1.04267 18.9703 0.999999 19.2796 0.999999C19.5036 0.999999 19.717 1.02667 19.9196 1.08C20.1223 1.12267 20.2983 1.19733 20.4476 1.304C20.597 1.41067 20.7143 1.54933 20.7996 1.72C20.885 1.89067 20.9276 2.09867 20.9276 2.344C20.9276 2.728 20.9063 3.11733 20.8636 3.512C20.8316 3.896 20.7943 4.28 20.7516 4.664C20.7196 5.048 20.6876 5.43733 20.6556 5.832C20.6343 6.216 20.629 6.60533 20.6396 7ZM22.8544 6.52C22.8544 6.17867 22.8384 5.84267 22.8064 5.512C22.7744 5.17067 22.737 4.82933 22.6944 4.488C22.6517 4.136 22.6144 3.784 22.5824 3.432C22.5504 3.08 22.5344 2.71733 22.5344 2.344C22.5344 2.088 22.577 1.87467 22.6624 1.704C22.7584 1.53333 22.881 1.39467 23.0304 1.288C23.1904 1.18133 23.3717 1.10667 23.5744 1.064C23.7877 1.02133 24.0064 0.999999 24.2304 0.999999H26.3104C27.1317 0.999999 27.8517 1.16 28.4704 1.48C29.0997 1.8 29.6277 2.232 30.0544 2.776C30.481 3.32 30.801 3.95467 31.0144 4.68C31.2384 5.40533 31.3504 6.17867 31.3504 7C31.3504 8.92 30.945 10.4027 30.1344 11.448C29.3237 12.4827 28.049 13 26.3104 13H24.2144C23.9904 13 23.7717 12.9787 23.5584 12.936C23.3557 12.8933 23.1797 12.8187 23.0304 12.712C22.881 12.6053 22.7584 12.4667 22.6624 12.296C22.577 12.1253 22.5344 11.912 22.5344 11.656C22.5344 11.2827 22.5504 10.92 22.5824 10.568C22.6144 10.216 22.6517 9.86933 22.6944 9.528C22.737 9.176 22.7744 8.83467 22.8064 8.504C22.8384 8.16267 22.8544 7.82133 22.8544 7.48V6.52ZM26.3104 10.408C27.1317 10.408 27.713 10.1093 28.0544 9.512C28.3957 8.91467 28.5664 8.072 28.5664 6.984C28.5664 6.44 28.5344 5.944 28.4704 5.496C28.4064 5.03733 28.289 4.64267 28.1184 4.312C27.9477 3.98133 27.713 3.72533 27.4144 3.544C27.1264 3.352 26.7584 3.256 26.3104 3.256H26.0064C25.8144 3.256 25.7077 3.35733 25.6864 3.56C25.633 4.09333 25.5744 4.59467 25.5104 5.064C25.4464 5.52267 25.4144 6.008 25.4144 6.52V7.48C25.4144 7.928 25.4357 8.36533 25.4784 8.792C25.5317 9.208 25.585 9.64533 25.6384 10.104C25.6597 10.3067 25.7717 10.408 25.9744 10.408H26.3104ZM33.1856 6.52C33.1856 6.17867 33.1696 5.84267 33.1376 5.512C33.1056 5.17067 33.0683 4.82933 33.0256 4.488C32.983 4.136 32.9456 3.784 32.9136 3.432C32.8816 3.08 32.8656 2.71733 32.8656 2.344C32.8656 2.09867 32.9083 1.89067 32.9936 1.72C33.079 1.54933 33.1963 1.41067 33.3456 1.304C33.495 1.19733 33.671 1.12267 33.8736 1.08C34.0763 1.02667 34.2896 0.999999 34.5136 0.999999C34.823 0.999999 35.079 1.04267 35.2816 1.128C35.4843 1.20267 35.6443 1.304 35.7616 1.432C35.879 1.56 35.959 1.704 36.0016 1.864C36.0443 2.01333 36.0656 2.16267 36.0656 2.312C36.0656 2.728 36.0496 3.11733 36.0176 3.48C35.9856 3.84267 35.9483 4.19467 35.9056 4.536C35.863 4.86667 35.8256 5.19733 35.7936 5.528C35.7616 5.848 35.7456 6.17867 35.7456 6.52V7.48C35.7456 7.82133 35.7616 8.15733 35.7936 8.488C35.8256 8.808 35.863 9.13867 35.9056 9.48C35.9483 9.81067 35.9856 10.1573 36.0176 10.52C36.0496 10.8827 36.0656 11.272 36.0656 11.688C36.0656 11.8373 36.0443 11.992 36.0016 12.152C35.959 12.3013 35.879 12.44 35.7616 12.568C35.6443 12.696 35.4843 12.8027 35.2816 12.888C35.079 12.9627 34.823 13 34.5136 13C34.055 13 33.6656 12.8987 33.3456 12.696C33.0256 12.4933 32.8656 12.1467 32.8656 11.656C32.8656 11.2827 32.8816 10.92 32.9136 10.568C32.9456 10.216 32.983 9.86933 33.0256 9.528C33.0683 9.176 33.1056 8.83467 33.1376 8.504C33.1696 8.16267 33.1856 7.82133 33.1856 7.48V6.52ZM37.5856 7C37.5856 6.17867 37.6923 5.4 37.9056 4.664C38.119 3.91733 38.439 3.26133 38.8656 2.696C39.2923 2.13067 39.8203 1.68267 40.4496 1.352C41.079 1.01067 41.8096 0.839999 42.6416 0.839999C43.463 0.839999 44.183 1.01067 44.8016 1.352C45.431 1.68267 45.959 2.13067 46.3856 2.696C46.8123 3.26133 47.1323 3.91733 47.3456 4.664C47.5696 5.4 47.6816 6.17867 47.6816 7C47.6816 7.96 47.5803 8.824 47.3776 9.592C47.1856 10.3493 46.8816 10.9947 46.4656 11.528C46.0496 12.0507 45.5216 12.456 44.8816 12.744C44.2523 13.0213 43.5056 13.16 42.6416 13.16C41.767 13.16 41.0096 13.0213 40.3696 12.744C39.7403 12.456 39.2176 12.0507 38.8016 11.528C38.3856 10.9947 38.0763 10.3493 37.8736 9.592C37.6816 8.824 37.5856 7.96 37.5856 7ZM40.3856 6.984C40.3856 7.528 40.423 8.024 40.4976 8.472C40.583 8.90933 40.7163 9.28267 40.8976 9.592C41.079 9.90133 41.3083 10.1413 41.5856 10.312C41.8736 10.4827 42.2256 10.568 42.6416 10.568C43.0576 10.568 43.4043 10.4827 43.6816 10.312C43.9696 10.1413 44.2043 9.90133 44.3856 9.592C44.567 9.28267 44.695 8.90933 44.7696 8.472C44.855 8.024 44.8976 7.528 44.8976 6.984C44.8976 6.44 44.8656 5.93333 44.8016 5.464C44.7376 4.99467 44.6203 4.584 44.4496 4.232C44.279 3.88 44.0443 3.60267 43.7456 3.4C43.4576 3.19733 43.0896 3.096 42.6416 3.096C42.1936 3.096 41.8203 3.19733 41.5216 3.4C41.2336 3.60267 41.0043 3.88 40.8336 4.232C40.663 4.584 40.5456 4.99467 40.4816 5.464C40.4176 5.93333 40.3856 6.44 40.3856 6.984ZM17.7512 25C17.7512 24.1787 17.8579 23.4 18.0712 22.664C18.2846 21.9173 18.6046 21.2613 19.0312 20.696C19.4579 20.1307 19.9859 19.6827 20.6152 19.352C21.2446 19.0107 21.9752 18.84 22.8073 18.84C23.6286 18.84 24.3486 19.0107 24.9672 19.352C25.5966 19.6827 26.1246 20.1307 26.5513 20.696C26.9779 21.2613 27.2979 21.9173 27.5113 22.664C27.7353 23.4 27.8472 24.1787 27.8472 25C27.8472 25.96 27.7459 26.824 27.5433 27.592C27.3513 28.3493 27.0473 28.9947 26.6313 29.528C26.2153 30.0507 25.6872 30.456 25.0472 30.744C24.4179 31.0213 23.6713 31.16 22.8073 31.16C21.9326 31.16 21.1752 31.0213 20.5352 30.744C19.9059 30.456 19.3832 30.0507 18.9672 29.528C18.5512 28.9947 18.2419 28.3493 18.0392 27.592C17.8472 26.824 17.7512 25.96 17.7512 25ZM20.5512 24.984C20.5512 25.528 20.5886 26.024 20.6632 26.472C20.7486 26.9093 20.8819 27.2827 21.0632 27.592C21.2446 27.9013 21.4739 28.1413 21.7512 28.312C22.0392 28.4827 22.3912 28.568 22.8073 28.568C23.2233 28.568 23.5699 28.4827 23.8472 28.312C24.1353 28.1413 24.3699 27.9013 24.5512 27.592C24.7326 27.2827 24.8606 26.9093 24.9352 26.472C25.0206 26.024 25.0633 25.528 25.0633 24.984C25.0633 24.44 25.0312 23.9333 24.9672 23.464C24.9033 22.9947 24.7859 22.584 24.6153 22.232C24.4446 21.88 24.2099 21.6027 23.9113 21.4C23.6233 21.1973 23.2552 21.096 22.8073 21.096C22.3592 21.096 21.9859 21.1973 21.6872 21.4C21.3992 21.6027 21.1699 21.88 20.9992 22.232C20.8286 22.584 20.7112 22.9947 20.6472 23.464C20.5832 23.9333 20.5512 24.44 20.5512 24.984ZM37.9896 25C38.0323 25.96 37.9896 26.824 37.8616 27.592C37.7443 28.3493 37.5203 28.9947 37.1896 29.528C36.8696 30.0507 36.4323 30.456 35.8776 30.744C35.323 31.0213 34.6296 31.16 33.7976 31.16C32.9656 31.16 32.2723 31.0213 31.7176 30.744C31.1736 30.456 30.7416 30.0507 30.4216 29.528C30.1016 28.9947 29.883 28.3493 29.7656 27.592C29.659 26.824 29.627 25.96 29.6696 25C29.691 24.5947 29.6856 24.1947 29.6536 23.8C29.6216 23.4053 29.5843 23.016 29.5416 22.632C29.499 22.248 29.4563 21.8693 29.4136 21.496C29.3816 21.112 29.3656 20.728 29.3656 20.344C29.3656 20.0987 29.4083 19.8907 29.4936 19.72C29.579 19.5493 29.6963 19.4107 29.8456 19.304C29.995 19.1973 30.171 19.1227 30.3736 19.08C30.5763 19.0267 30.7896 19 31.0136 19C31.323 19 31.579 19.0427 31.7816 19.128C31.9843 19.2027 32.1443 19.304 32.2616 19.432C32.379 19.56 32.459 19.704 32.5016 19.864C32.5443 20.0133 32.5656 20.1627 32.5656 20.312C32.5656 21.1013 32.5123 21.88 32.4056 22.648C32.299 23.416 32.2456 24.1947 32.2456 24.984C32.2456 25.528 32.2563 26.024 32.2776 26.472C32.299 26.9093 32.3576 27.2827 32.4536 27.592C32.5603 27.9013 32.715 28.1413 32.9176 28.312C33.131 28.4827 33.4243 28.568 33.7976 28.568C34.171 28.568 34.4643 28.4827 34.6776 28.312C34.891 28.1413 35.0456 27.9013 35.1416 27.592C35.2483 27.2827 35.3123 26.9093 35.3336 26.472C35.3656 26.024 35.3816 25.528 35.3816 24.984C35.3816 24.1947 35.3283 23.416 35.2216 22.648C35.1256 21.88 35.0776 21.1013 35.0776 20.312C35.0776 20.1627 35.099 20.0133 35.1416 19.864C35.1843 19.704 35.2643 19.56 35.3816 19.432C35.499 19.304 35.659 19.2027 35.8616 19.128C36.0643 19.0427 36.3203 19 36.6296 19C36.8536 19 37.067 19.0267 37.2696 19.08C37.4723 19.1227 37.6483 19.1973 37.7976 19.304C37.947 19.4107 38.0643 19.5493 38.1496 19.72C38.235 19.8907 38.2776 20.0987 38.2776 20.344C38.2776 20.728 38.2563 21.1173 38.2136 21.512C38.1816 21.896 38.1443 22.28 38.1016 22.664C38.0696 23.048 38.0376 23.4373 38.0056 23.832C37.9843 24.216 37.979 24.6053 37.9896 25ZM45.1324 21.912C45.111 22.3707 45.0844 22.808 45.0524 23.224C45.031 23.64 45.0204 24.072 45.0204 24.52V25.48C45.0204 25.8213 45.0364 26.1573 45.0684 26.488C45.1004 26.808 45.1377 27.1387 45.1804 27.48C45.223 27.8107 45.2604 28.1573 45.2924 28.52C45.3244 28.8827 45.3404 29.272 45.3404 29.688C45.3404 29.8373 45.319 29.992 45.2764 30.152C45.2337 30.3013 45.1484 30.44 45.0204 30.568C44.903 30.696 44.7377 30.8027 44.5244 30.888C44.3217 30.9627 44.0604 31 43.7404 31C43.4097 31 43.1377 30.9573 42.9244 30.872C42.7217 30.7867 42.5617 30.68 42.4444 30.552C42.327 30.4133 42.247 30.2693 42.2044 30.12C42.1617 29.96 42.1404 29.8053 42.1404 29.656C42.1404 29.2827 42.1564 28.92 42.1884 28.568C42.2204 28.216 42.2577 27.8693 42.3004 27.528C42.343 27.176 42.3804 26.8347 42.4124 26.504C42.4444 26.1627 42.4604 25.8213 42.4604 25.48V24.52C42.4604 24.0827 42.4444 23.6507 42.4124 23.224C42.391 22.7973 42.3697 22.36 42.3484 21.912C42.327 21.7307 42.231 21.656 42.0604 21.688C41.8577 21.7413 41.6764 21.7893 41.5164 21.832C41.367 21.864 41.1964 21.88 41.0044 21.88C40.855 21.88 40.7004 21.8693 40.5404 21.848C40.391 21.816 40.247 21.752 40.1084 21.656C39.9804 21.56 39.8737 21.416 39.7884 21.224C39.703 21.032 39.6604 20.7707 39.6604 20.44C39.6604 20.12 39.6977 19.864 39.7724 19.672C39.8577 19.48 39.9644 19.336 40.0924 19.24C40.2204 19.1333 40.359 19.0693 40.5084 19.048C40.6684 19.016 40.823 19 40.9724 19C41.1857 19 41.367 19.016 41.5164 19.048C41.6764 19.0693 41.8364 19.096 41.9964 19.128C42.167 19.1493 42.359 19.176 42.5724 19.208C42.7964 19.2293 43.079 19.24 43.4204 19.24H44.0604C44.4017 19.24 44.679 19.2293 44.8924 19.208C45.1164 19.176 45.3084 19.1493 45.4684 19.128C45.639 19.096 45.799 19.0693 45.9484 19.048C46.1084 19.016 46.295 19 46.5084 19C46.6577 19 46.807 19.016 46.9564 19.048C47.1164 19.0693 47.2604 19.1333 47.3884 19.24C47.5164 19.336 47.6177 19.48 47.6924 19.672C47.7777 19.864 47.8204 20.12 47.8204 20.44C47.8204 20.7707 47.7777 21.032 47.6924 21.224C47.607 21.416 47.495 21.56 47.3564 21.656C47.2284 21.752 47.0844 21.816 46.9244 21.848C46.775 21.8693 46.6257 21.88 46.4764 21.88C46.2844 21.88 46.1084 21.864 45.9484 21.832C45.799 21.7893 45.623 21.7413 45.4204 21.688C45.2497 21.656 45.1537 21.7307 45.1324 21.912Z" fill="black"/>
</svg>
