<svg width="41" height="14" viewBox="0 0 41 14" fill="none" xmlns="http://www.w3.org/2000/svg">
<path d="M0.72 6.52C0.72 6.17867 0.704 5.84267 0.672 5.512C0.64 5.17067 0.602667 4.82933 0.56 4.488C0.517333 4.136 0.48 3.784 0.448 3.432C0.416 3.08 0.4 2.71733 0.4 2.344C0.4 2.19467 0.421333 2.04533 0.464 1.896C0.506667 1.736 0.586667 1.592 0.704 1.464C0.832 1.32533 0.997333 1.21333 1.2 1.128C1.41333 1.04267 1.68533 0.999999 2.016 0.999999H3.616C4.30933 0.999999 4.96 1.064 5.568 1.192C6.18667 1.30933 6.72533 1.496 7.184 1.752C7.64267 2.008 8 2.33333 8.256 2.728C8.52267 3.112 8.656 3.576 8.656 4.12C8.656 4.568 8.53867 4.97867 8.304 5.352C8.08 5.72533 7.78133 6.05067 7.408 6.328C7.952 6.66933 8.37333 7.10133 8.672 7.624C8.98133 8.14667 9.136 8.73867 9.136 9.4C9.136 10.0613 9.024 10.6213 8.8 11.08C8.58667 11.5387 8.26667 11.912 7.84 12.2C7.41333 12.4773 6.88533 12.68 6.256 12.808C5.63733 12.936 4.91733 13 4.096 13H2.016C1.68533 13 1.41333 12.9573 1.2 12.872C0.997333 12.7867 0.832 12.68 0.704 12.552C0.586667 12.4133 0.506667 12.2693 0.464 12.12C0.421333 11.96 0.4 11.8053 0.4 11.656C0.4 11.2827 0.416 10.92 0.448 10.568C0.48 10.216 0.517333 9.86933 0.56 9.528C0.602667 9.176 0.64 8.83467 0.672 8.504C0.704 8.16267 0.72 7.82133 0.72 7.48V6.52ZM3.648 5.4C4.45867 5.4 5.02933 5.32533 5.36 5.176C5.70133 5.016 5.872 4.712 5.872 4.264C5.872 4.09333 5.84 3.94933 5.776 3.832C5.72267 3.704 5.616 3.60267 5.456 3.528C5.30667 3.44267 5.104 3.37867 4.848 3.336C4.592 3.29333 4.26667 3.26667 3.872 3.256C3.68 3.256 3.57333 3.35733 3.552 3.56C3.53067 3.83733 3.49867 4.104 3.456 4.36C3.424 4.60533 3.39733 4.85067 3.376 5.096C3.35467 5.29867 3.44533 5.4 3.648 5.4ZM4.096 10.424C4.544 10.424 4.912 10.3867 5.2 10.312C5.49867 10.2373 5.73333 10.136 5.904 10.008C6.07467 9.88 6.192 9.72533 6.256 9.544C6.32 9.36267 6.352 9.16 6.352 8.936C6.352 8.56267 6.18133 8.25333 5.84 8.008C5.49867 7.76267 4.91733 7.64 4.096 7.64H3.584C3.37067 7.64 3.27467 7.74133 3.296 7.944C3.31733 8.30667 3.344 8.66933 3.376 9.032C3.41867 9.384 3.46133 9.74667 3.504 10.12C3.52533 10.3227 3.63733 10.424 3.84 10.424H4.096ZM14.1731 10.2C14.0985 10.4773 14.0078 10.7707 13.9011 11.08C13.8051 11.3787 13.6718 11.7307 13.5011 12.136C13.4158 12.3493 13.2771 12.5467 13.0851 12.728C12.9038 12.9093 12.6478 13 12.3171 13C12.0931 13 11.8211 12.936 11.5011 12.808C11.2025 12.68 10.9731 12.536 10.8131 12.376C10.6531 12.2053 10.5411 12.0347 10.4771 11.864C10.4238 11.6827 10.4078 11.5067 10.4291 11.336C10.4505 11.1653 10.4931 11.0107 10.5571 10.872C11.1971 9.37867 11.7731 7.88533 12.2851 6.392C12.7971 4.89867 13.3145 3.368 13.8371 1.8C13.9225 1.55467 14.1145 1.352 14.4131 1.192C14.7118 1.032 15.0851 0.952 15.5331 0.952C15.9811 0.952 16.3545 1.032 16.6531 1.192C16.9518 1.352 17.1438 1.55467 17.2291 1.8C17.7625 3.368 18.2798 4.89867 18.7811 6.392C19.2931 7.88533 19.8691 9.37867 20.5091 10.872C20.5731 11.0107 20.6158 11.1653 20.6371 11.336C20.6585 11.5067 20.6371 11.6827 20.5731 11.864C20.5198 12.0347 20.4131 12.2053 20.2531 12.376C20.1038 12.536 19.8745 12.68 19.5651 12.808C19.2451 12.936 18.9731 13 18.7491 13C18.4185 13 18.1571 12.9093 17.9651 12.728C17.7838 12.5467 17.6505 12.3493 17.5651 12.136C17.3945 11.7307 17.2558 11.3733 17.1491 11.064C17.0531 10.7547 16.9678 10.4613 16.8931 10.184C16.8398 9.98133 16.7118 9.86933 16.5091 9.848C16.4131 9.83733 16.3118 9.832 16.2051 9.832C16.1091 9.832 16.0025 9.832 15.8851 9.832H15.2451C15.1065 9.832 14.9785 9.83733 14.8611 9.848C14.7545 9.848 14.6531 9.85333 14.5571 9.864C14.3545 9.88533 14.2265 9.99733 14.1731 10.2ZM15.4371 4.536C15.3945 4.68533 15.3465 4.872 15.2931 5.096C15.2398 5.32 15.1865 5.56 15.1331 5.816C15.0798 6.072 15.0265 6.33333 14.9731 6.6C14.9305 6.86667 14.8825 7.12267 14.8291 7.368C14.7971 7.58133 14.8771 7.688 15.0691 7.688H15.2451H15.8851H15.9971C16.1891 7.688 16.2691 7.58667 16.2371 7.384C16.1945 7.13867 16.1465 6.88267 16.0931 6.616C16.0398 6.34933 15.9865 6.088 15.9331 5.832C15.8798 5.576 15.8265 5.336 15.7731 5.112C15.7198 4.87733 15.6718 4.68533 15.6291 4.536C15.6078 4.45067 15.5758 4.408 15.5331 4.408C15.4905 4.408 15.4585 4.45067 15.4371 4.536ZM25.1036 3.72C25.1036 3.90133 25.1516 4.056 25.2476 4.184C25.3543 4.312 25.493 4.43467 25.6636 4.552C25.845 4.65867 26.0583 4.77067 26.3036 4.888C26.549 5.00533 26.821 5.13867 27.1196 5.288C27.5036 5.48 27.8876 5.69333 28.2716 5.928C28.6663 6.16267 29.0236 6.44 29.3436 6.76C29.6636 7.08 29.925 7.45867 30.1276 7.896C30.3303 8.32267 30.4316 8.824 30.4316 9.4C30.4316 9.99733 30.3516 10.5307 30.1916 11C30.0423 11.4693 29.8023 11.864 29.4716 12.184C29.141 12.504 28.709 12.7493 28.1756 12.92C27.653 13.08 27.013 13.16 26.2556 13.16C25.861 13.16 25.4716 13.112 25.0876 13.016C24.7143 12.9307 24.3623 12.8133 24.0316 12.664C23.701 12.504 23.397 12.3227 23.1196 12.12C22.8423 11.9067 22.6023 11.6827 22.3996 11.448C22.1756 11.1813 22.0423 10.92 21.9996 10.664C21.9676 10.3973 21.9943 10.1573 22.0796 9.944C22.1756 9.73067 22.3196 9.54933 22.5116 9.4C22.7143 9.25067 22.9276 9.15467 23.1516 9.112C23.3863 9.05867 23.621 9.06933 23.8556 9.144C24.101 9.21867 24.3143 9.368 24.4956 9.592C24.581 9.69867 24.6876 9.81067 24.8156 9.928C24.9543 10.0347 25.0983 10.1307 25.2476 10.216C25.4076 10.3013 25.573 10.376 25.7436 10.44C25.9143 10.4933 26.085 10.52 26.2556 10.52C26.6823 10.52 27.0183 10.456 27.2636 10.328C27.509 10.2 27.6316 9.94933 27.6316 9.576C27.6316 9.23467 27.461 8.93067 27.1196 8.664C26.7783 8.39733 26.3623 8.136 25.8716 7.88C25.3596 7.61333 24.8903 7.352 24.4636 7.096C24.0476 6.84 23.6903 6.56267 23.3916 6.264C23.093 5.95467 22.8636 5.61333 22.7036 5.24C22.5436 4.856 22.4636 4.408 22.4636 3.896C22.4636 3.384 22.565 2.936 22.7676 2.552C22.981 2.168 23.2636 1.85333 23.6156 1.608C23.9676 1.352 24.3783 1.16 24.8476 1.032C25.317 0.903999 25.8076 0.839999 26.3196 0.839999C26.7036 0.839999 27.0396 0.871999 27.3276 0.936C27.6263 0.989333 27.8983 1.064 28.1436 1.16C28.389 1.256 28.613 1.36267 28.8156 1.48C29.029 1.59733 29.2316 1.72 29.4236 1.848C29.6796 2.008 29.861 2.19467 29.9676 2.408C30.0743 2.61067 30.1223 2.81867 30.1116 3.032C30.1116 3.23467 30.0583 3.42667 29.9516 3.608C29.8556 3.77867 29.7276 3.92267 29.5676 4.04C29.4076 4.14667 29.2263 4.20533 29.0236 4.216C28.8316 4.22667 28.6396 4.168 28.4476 4.04C28.2983 3.944 28.1436 3.84267 27.9836 3.736C27.8236 3.61867 27.6476 3.512 27.4556 3.416C27.2743 3.32 27.077 3.24533 26.8636 3.192C26.6503 3.128 26.4156 3.096 26.1596 3.096C25.733 3.096 25.4503 3.16 25.3116 3.288C25.173 3.416 25.1036 3.56 25.1036 3.72ZM35.0755 3.72C35.0755 3.90133 35.1235 4.056 35.2195 4.184C35.3262 4.312 35.4648 4.43467 35.6355 4.552C35.8168 4.65867 36.0302 4.77067 36.2755 4.888C36.5208 5.00533 36.7928 5.13867 37.0915 5.288C37.4755 5.48 37.8595 5.69333 38.2435 5.928C38.6382 6.16267 38.9955 6.44 39.3155 6.76C39.6355 7.08 39.8968 7.45867 40.0995 7.896C40.3022 8.32267 40.4035 8.824 40.4035 9.4C40.4035 9.99733 40.3235 10.5307 40.1635 11C40.0142 11.4693 39.7742 11.864 39.4435 12.184C39.1128 12.504 38.6808 12.7493 38.1475 12.92C37.6248 13.08 36.9848 13.16 36.2275 13.16C35.8328 13.16 35.4435 13.112 35.0595 13.016C34.6862 12.9307 34.3342 12.8133 34.0035 12.664C33.6728 12.504 33.3688 12.3227 33.0915 12.12C32.8142 11.9067 32.5742 11.6827 32.3715 11.448C32.1475 11.1813 32.0142 10.92 31.9715 10.664C31.9395 10.3973 31.9662 10.1573 32.0515 9.944C32.1475 9.73067 32.2915 9.54933 32.4835 9.4C32.6862 9.25067 32.8995 9.15467 33.1235 9.112C33.3582 9.05867 33.5928 9.06933 33.8275 9.144C34.0728 9.21867 34.2862 9.368 34.4675 9.592C34.5528 9.69867 34.6595 9.81067 34.7875 9.928C34.9262 10.0347 35.0702 10.1307 35.2195 10.216C35.3795 10.3013 35.5448 10.376 35.7155 10.44C35.8862 10.4933 36.0568 10.52 36.2275 10.52C36.6542 10.52 36.9902 10.456 37.2355 10.328C37.4808 10.2 37.6035 9.94933 37.6035 9.576C37.6035 9.23467 37.4328 8.93067 37.0915 8.664C36.7502 8.39733 36.3342 8.136 35.8435 7.88C35.3315 7.61333 34.8622 7.352 34.4355 7.096C34.0195 6.84 33.6622 6.56267 33.3635 6.264C33.0648 5.95467 32.8355 5.61333 32.6755 5.24C32.5155 4.856 32.4355 4.408 32.4355 3.896C32.4355 3.384 32.5368 2.936 32.7395 2.552C32.9528 2.168 33.2355 1.85333 33.5875 1.608C33.9395 1.352 34.3502 1.16 34.8195 1.032C35.2888 0.903999 35.7795 0.839999 36.2915 0.839999C36.6755 0.839999 37.0115 0.871999 37.2995 0.936C37.5982 0.989333 37.8702 1.064 38.1155 1.16C38.3608 1.256 38.5848 1.36267 38.7875 1.48C39.0008 1.59733 39.2035 1.72 39.3955 1.848C39.6515 2.008 39.8328 2.19467 39.9395 2.408C40.0462 2.61067 40.0942 2.81867 40.0835 3.032C40.0835 3.23467 40.0302 3.42667 39.9235 3.608C39.8275 3.77867 39.6995 3.92267 39.5395 4.04C39.3795 4.14667 39.1982 4.20533 38.9955 4.216C38.8035 4.22667 38.6115 4.168 38.4195 4.04C38.2702 3.944 38.1155 3.84267 37.9555 3.736C37.7955 3.61867 37.6195 3.512 37.4275 3.416C37.2462 3.32 37.0488 3.24533 36.8355 3.192C36.6222 3.128 36.3875 3.096 36.1315 3.096C35.7048 3.096 35.4222 3.16 35.2835 3.288C35.1448 3.416 35.0755 3.56 35.0755 3.72Z" fill="black"/>
</svg>
