<svg width="21" height="7" viewBox="0 0 21 7" fill="none" xmlns="http://www.w3.org/2000/svg">
<path d="M0.36 3.76C0.36 3.58933 0.352 3.42133 0.336 3.256C0.32 3.08533 0.301333 2.91467 0.28 2.744C0.258667 2.568 0.24 2.392 0.224 2.216C0.208 2.04 0.2 1.85867 0.2 1.672C0.2 1.59733 0.210667 1.52267 0.232 1.448C0.253333 1.368 0.293333 1.296 0.352 1.232C0.416 1.16267 0.498667 1.10667 0.6 1.064C0.706667 1.02133 0.842667 1 1.008 1H1.808C2.15467 1 2.48 1.032 2.784 1.096C3.09333 1.15467 3.36267 1.248 3.592 1.376C3.82133 1.504 4 1.66667 4.128 1.864C4.26133 2.056 4.328 2.288 4.328 2.56C4.328 2.784 4.26933 2.98933 4.152 3.176C4.04 3.36267 3.89067 3.52533 3.704 3.664C3.976 3.83467 4.18667 4.05067 4.336 4.312C4.49067 4.57333 4.568 4.86933 4.568 5.2C4.568 5.53067 4.512 5.81067 4.4 6.04C4.29333 6.26933 4.13333 6.456 3.92 6.6C3.70667 6.73867 3.44267 6.84 3.128 6.904C2.81867 6.968 2.45867 7 2.048 7H1.008C0.842667 7 0.706667 6.97867 0.6 6.936C0.498667 6.89333 0.416 6.84 0.352 6.776C0.293333 6.70667 0.253333 6.63467 0.232 6.56C0.210667 6.48 0.2 6.40267 0.2 6.328C0.2 6.14133 0.208 5.96 0.224 5.784C0.24 5.608 0.258667 5.43467 0.28 5.264C0.301333 5.088 0.32 4.91733 0.336 4.752C0.352 4.58133 0.36 4.41067 0.36 4.24V3.76ZM1.824 3.2C2.22933 3.2 2.51467 3.16267 2.68 3.088C2.85067 3.008 2.936 2.856 2.936 2.632C2.936 2.54667 2.92 2.47467 2.888 2.416C2.86133 2.352 2.808 2.30133 2.728 2.264C2.65333 2.22133 2.552 2.18933 2.424 2.168C2.296 2.14667 2.13333 2.13333 1.936 2.128C1.84 2.128 1.78667 2.17867 1.776 2.28C1.76533 2.41867 1.74933 2.552 1.728 2.68C1.712 2.80267 1.69867 2.92533 1.688 3.048C1.67733 3.14933 1.72267 3.2 1.824 3.2ZM2.048 5.712C2.272 5.712 2.456 5.69333 2.6 5.656C2.74933 5.61867 2.86667 5.568 2.952 5.504C3.03733 5.44 3.096 5.36267 3.128 5.272C3.16 5.18133 3.176 5.08 3.176 4.968C3.176 4.78133 3.09067 4.62667 2.92 4.504C2.74933 4.38133 2.45867 4.32 2.048 4.32H1.792C1.68533 4.32 1.63733 4.37067 1.648 4.472C1.65867 4.65333 1.672 4.83467 1.688 5.016C1.70933 5.192 1.73067 5.37333 1.752 5.56C1.76267 5.66133 1.81867 5.712 1.92 5.712H2.048ZM7.48656 5.6C7.44923 5.73867 7.4039 5.88533 7.35056 6.04C7.30256 6.18933 7.2359 6.36533 7.15056 6.568C7.1079 6.67467 7.03856 6.77333 6.94256 6.864C6.8519 6.95467 6.7239 7 6.55856 7C6.44656 7 6.31056 6.968 6.15056 6.904C6.00123 6.84 5.88656 6.768 5.80656 6.688C5.72656 6.60267 5.67056 6.51733 5.63856 6.432C5.6119 6.34133 5.6039 6.25333 5.61456 6.168C5.62523 6.08267 5.64656 6.00533 5.67856 5.936C5.99856 5.18933 6.28656 4.44267 6.54256 3.696C6.79856 2.94933 7.05723 2.184 7.31856 1.4C7.36123 1.27733 7.45723 1.176 7.60656 1.096C7.7559 1.016 7.94256 0.976 8.16656 0.976C8.39056 0.976 8.57723 1.016 8.72656 1.096C8.8759 1.176 8.9719 1.27733 9.01456 1.4C9.28123 2.184 9.5399 2.94933 9.79056 3.696C10.0466 4.44267 10.3346 5.18933 10.6546 5.936C10.6866 6.00533 10.7079 6.08267 10.7186 6.168C10.7292 6.25333 10.7186 6.34133 10.6866 6.432C10.6599 6.51733 10.6066 6.60267 10.5266 6.688C10.4519 6.768 10.3372 6.84 10.1826 6.904C10.0226 6.968 9.88656 7 9.77456 7C9.60923 7 9.47856 6.95467 9.38256 6.864C9.2919 6.77333 9.22523 6.67467 9.18256 6.568C9.09723 6.36533 9.0279 6.18667 8.97456 6.032C8.92656 5.87733 8.8839 5.73067 8.84656 5.592C8.8199 5.49067 8.7559 5.43467 8.65456 5.424C8.60656 5.41867 8.5559 5.416 8.50256 5.416C8.45456 5.416 8.40123 5.416 8.34256 5.416H8.02256C7.95323 5.416 7.88923 5.41867 7.83056 5.424C7.77723 5.424 7.72656 5.42667 7.67856 5.432C7.57723 5.44267 7.51323 5.49867 7.48656 5.6ZM8.11856 2.768C8.09723 2.84267 8.07323 2.936 8.04656 3.048C8.0199 3.16 7.99323 3.28 7.96656 3.408C7.9399 3.536 7.91323 3.66667 7.88656 3.8C7.86523 3.93333 7.84123 4.06133 7.81456 4.184C7.79856 4.29067 7.83856 4.344 7.93456 4.344H8.02256H8.34256H8.39856C8.49456 4.344 8.53456 4.29333 8.51856 4.192C8.49723 4.06933 8.47323 3.94133 8.44656 3.808C8.4199 3.67467 8.39323 3.544 8.36656 3.416C8.3399 3.288 8.31323 3.168 8.28656 3.056C8.2599 2.93867 8.2359 2.84267 8.21456 2.768C8.2039 2.72533 8.1879 2.704 8.16656 2.704C8.14523 2.704 8.12923 2.72533 8.11856 2.768ZM13.8693 2.456C13.8586 2.68533 13.8453 2.904 13.8293 3.112C13.8186 3.32 13.8133 3.536 13.8133 3.76V4.24C13.8133 4.41067 13.8213 4.57867 13.8373 4.744C13.8533 4.904 13.872 5.06933 13.8933 5.24C13.9146 5.40533 13.9333 5.57867 13.9493 5.76C13.9653 5.94133 13.9733 6.136 13.9733 6.344C13.9733 6.41867 13.9626 6.496 13.9413 6.576C13.92 6.65067 13.8773 6.72 13.8133 6.784C13.7546 6.848 13.672 6.90133 13.5653 6.944C13.464 6.98133 13.3333 7 13.1733 7C13.008 7 12.872 6.97867 12.7653 6.936C12.664 6.89333 12.584 6.84 12.5253 6.776C12.4666 6.70667 12.4266 6.63467 12.4053 6.56C12.384 6.48 12.3733 6.40267 12.3733 6.328C12.3733 6.14133 12.3813 5.96 12.3973 5.784C12.4133 5.608 12.432 5.43467 12.4533 5.264C12.4746 5.088 12.4933 4.91733 12.5093 4.752C12.5253 4.58133 12.5333 4.41067 12.5333 4.24V3.76C12.5333 3.54133 12.5253 3.32533 12.5093 3.112C12.4986 2.89867 12.488 2.68 12.4773 2.456C12.4666 2.36533 12.4186 2.328 12.3333 2.344C12.232 2.37067 12.1413 2.39467 12.0613 2.416C11.9866 2.432 11.9013 2.44 11.8053 2.44C11.7306 2.44 11.6533 2.43467 11.5733 2.424C11.4986 2.408 11.4266 2.376 11.3573 2.328C11.2933 2.28 11.24 2.208 11.1973 2.112C11.1546 2.016 11.1333 1.88533 11.1333 1.72C11.1333 1.56 11.152 1.432 11.1893 1.336C11.232 1.24 11.2853 1.168 11.3493 1.12C11.4133 1.06667 11.4826 1.03467 11.5573 1.024C11.6373 1.008 11.7146 1 11.7893 1C11.896 1 11.9866 1.008 12.0613 1.024C12.1413 1.03467 12.2213 1.048 12.3013 1.064C12.3866 1.07467 12.4826 1.088 12.5893 1.104C12.7013 1.11467 12.8426 1.12 13.0133 1.12H13.3333C13.504 1.12 13.6426 1.11467 13.7493 1.104C13.8613 1.088 13.9573 1.07467 14.0373 1.064C14.1226 1.048 14.2026 1.03467 14.2773 1.024C14.3573 1.008 14.4506 1 14.5573 1C14.632 1 14.7066 1.008 14.7813 1.024C14.8613 1.03467 14.9333 1.06667 14.9973 1.12C15.0613 1.168 15.112 1.24 15.1493 1.336C15.192 1.432 15.2133 1.56 15.2133 1.72C15.2133 1.88533 15.192 2.016 15.1493 2.112C15.1066 2.208 15.0506 2.28 14.9813 2.328C14.9173 2.376 14.8453 2.408 14.7653 2.424C14.6906 2.43467 14.616 2.44 14.5413 2.44C14.4453 2.44 14.3573 2.432 14.2773 2.416C14.2026 2.39467 14.1146 2.37067 14.0133 2.344C13.928 2.328 13.88 2.36533 13.8693 2.456ZM18.9271 2.456C18.9165 2.68533 18.9031 2.904 18.8871 3.112C18.8765 3.32 18.8711 3.536 18.8711 3.76V4.24C18.8711 4.41067 18.8791 4.57867 18.8951 4.744C18.9111 4.904 18.9298 5.06933 18.9511 5.24C18.9725 5.40533 18.9911 5.57867 19.0071 5.76C19.0231 5.94133 19.0311 6.136 19.0311 6.344C19.0311 6.41867 19.0205 6.496 18.9991 6.576C18.9778 6.65067 18.9351 6.72 18.8711 6.784C18.8125 6.848 18.7298 6.90133 18.6231 6.944C18.5218 6.98133 18.3911 7 18.2311 7C18.0658 7 17.9298 6.97867 17.8231 6.936C17.7218 6.89333 17.6418 6.84 17.5831 6.776C17.5245 6.70667 17.4845 6.63467 17.4631 6.56C17.4418 6.48 17.4311 6.40267 17.4311 6.328C17.4311 6.14133 17.4391 5.96 17.4551 5.784C17.4711 5.608 17.4898 5.43467 17.5111 5.264C17.5325 5.088 17.5511 4.91733 17.5671 4.752C17.5831 4.58133 17.5911 4.41067 17.5911 4.24V3.76C17.5911 3.54133 17.5831 3.32533 17.5671 3.112C17.5565 2.89867 17.5458 2.68 17.5351 2.456C17.5245 2.36533 17.4765 2.328 17.3911 2.344C17.2898 2.37067 17.1991 2.39467 17.1191 2.416C17.0445 2.432 16.9591 2.44 16.8631 2.44C16.7885 2.44 16.7111 2.43467 16.6311 2.424C16.5565 2.408 16.4845 2.376 16.4151 2.328C16.3511 2.28 16.2978 2.208 16.2551 2.112C16.2125 2.016 16.1911 1.88533 16.1911 1.72C16.1911 1.56 16.2098 1.432 16.2471 1.336C16.2898 1.24 16.3431 1.168 16.4071 1.12C16.4711 1.06667 16.5405 1.03467 16.6151 1.024C16.6951 1.008 16.7725 1 16.8471 1C16.9538 1 17.0445 1.008 17.1191 1.024C17.1991 1.03467 17.2791 1.048 17.3591 1.064C17.4445 1.07467 17.5405 1.088 17.6471 1.104C17.7591 1.11467 17.9005 1.12 18.0711 1.12H18.3911C18.5618 1.12 18.7005 1.11467 18.8071 1.104C18.9191 1.088 19.0151 1.07467 19.0951 1.064C19.1805 1.048 19.2605 1.03467 19.3351 1.024C19.4151 1.008 19.5085 1 19.6151 1C19.6898 1 19.7645 1.008 19.8391 1.024C19.9191 1.03467 19.9911 1.06667 20.0551 1.12C20.1191 1.168 20.1698 1.24 20.2071 1.336C20.2498 1.432 20.2711 1.56 20.2711 1.72C20.2711 1.88533 20.2498 2.016 20.2071 2.112C20.1645 2.208 20.1085 2.28 20.0391 2.328C19.9751 2.376 19.9031 2.408 19.8231 2.424C19.7485 2.43467 19.6738 2.44 19.5991 2.44C19.5031 2.44 19.4151 2.432 19.3351 2.416C19.2605 2.39467 19.1725 2.37067 19.0711 2.344C18.9858 2.328 18.9378 2.36533 18.9271 2.456Z" fill="black"/>
</svg>
