<svg width="46" height="17" viewBox="0 0 46 17" fill="none" xmlns="http://www.w3.org/2000/svg">
<path fill-rule="evenodd" clip-rule="evenodd" d="M46 0H0V17H46V0ZM1.336 3.256C1.352 3.42133 1.36 3.58933 1.36 3.76V4.24C1.36 4.41067 1.352 4.58133 1.336 4.752C1.32 4.91733 1.30133 5.088 1.28 5.264C1.25867 5.43467 1.24 5.608 1.224 5.784C1.208 5.96 1.2 6.14133 1.2 6.328C1.2 6.40267 1.21067 6.48 1.232 6.56C1.25333 6.63467 1.29333 6.70667 1.352 6.776C1.416 6.84 1.49867 6.89333 1.6 6.936C1.70667 6.97867 1.84267 7 2.008 7H3.048C3.45867 7 3.81867 6.968 4.128 6.904C4.44267 6.84 4.70667 6.73867 4.92 6.6C5.13333 6.456 5.29333 6.26933 5.4 6.04C5.512 5.81067 5.568 5.53067 5.568 5.2C5.568 4.86933 5.49067 4.57333 5.336 4.312C5.18667 4.05067 4.976 3.83467 4.704 3.664C4.89067 3.52533 5.04 3.36267 5.152 3.176C5.26933 2.98933 5.328 2.784 5.328 2.56C5.328 2.288 5.26133 2.056 5.128 1.864C5 1.66667 4.82133 1.504 4.592 1.376C4.36267 1.248 4.09333 1.15467 3.784 1.096C3.48 1.032 3.15467 1 2.808 1H2.008C1.84267 1 1.70667 1.02133 1.6 1.064C1.49867 1.10667 1.416 1.16267 1.352 1.232C1.29333 1.296 1.25333 1.368 1.232 1.448C1.21067 1.52267 1.2 1.59733 1.2 1.672C1.2 1.85867 1.208 2.04 1.224 2.216C1.24 2.392 1.25867 2.568 1.28 2.744C1.30133 2.91467 1.32 3.08533 1.336 3.256ZM3.68 3.088C3.51467 3.16267 3.22933 3.2 2.824 3.2C2.72267 3.2 2.67733 3.14933 2.688 3.048C2.69867 2.92533 2.712 2.80267 2.728 2.68C2.74933 2.552 2.76533 2.41867 2.776 2.28C2.78667 2.17867 2.84 2.128 2.936 2.128C3.13333 2.13333 3.296 2.14667 3.424 2.168C3.552 2.18933 3.65333 2.22133 3.728 2.264C3.808 2.30133 3.86133 2.352 3.888 2.416C3.92 2.47467 3.936 2.54667 3.936 2.632C3.936 2.856 3.85067 3.008 3.68 3.088ZM3.6 5.656C3.456 5.69333 3.272 5.712 3.048 5.712H2.92C2.81867 5.712 2.76267 5.66133 2.752 5.56C2.73067 5.37333 2.70933 5.192 2.688 5.016C2.672 4.83467 2.65867 4.65333 2.648 4.472C2.63733 4.37067 2.68533 4.32 2.792 4.32H3.048C3.45867 4.32 3.74933 4.38133 3.92 4.504C4.09067 4.62667 4.176 4.78133 4.176 4.968C4.176 5.08 4.16 5.18133 4.128 5.272C4.096 5.36267 4.03733 5.44 3.952 5.504C3.86667 5.568 3.74933 5.61867 3.6 5.656ZM8.35056 6.04C8.4039 5.88533 8.44923 5.73867 8.48656 5.6C8.51323 5.49867 8.57723 5.44267 8.67856 5.432C8.72656 5.42667 8.77723 5.424 8.83056 5.424C8.88923 5.41867 8.95323 5.416 9.02256 5.416H9.34256H9.50256C9.5559 5.416 9.60656 5.41867 9.65456 5.424C9.7559 5.43467 9.8199 5.49067 9.84656 5.592C9.8839 5.73067 9.92656 5.87733 9.97456 6.032C10.0279 6.18667 10.0972 6.36533 10.1826 6.568C10.2252 6.67467 10.2919 6.77333 10.3826 6.864C10.4786 6.95467 10.6092 7 10.7746 7C10.8866 7 11.0226 6.968 11.1826 6.904C11.3372 6.84 11.4519 6.768 11.5266 6.688C11.6066 6.60267 11.6599 6.51733 11.6866 6.432C11.7186 6.34133 11.7292 6.25333 11.7186 6.168C11.7079 6.08267 11.6866 6.00533 11.6546 5.936C11.3346 5.18933 11.0466 4.44267 10.7906 3.696C10.5399 2.94933 10.2812 2.184 10.0146 1.4C9.9719 1.27733 9.8759 1.176 9.72656 1.096C9.57723 1.016 9.39056 0.976 9.16656 0.976C8.94256 0.976 8.7559 1.016 8.60656 1.096C8.45723 1.176 8.36123 1.27733 8.31856 1.4C8.05723 2.184 7.79856 2.94933 7.54256 3.696C7.28656 4.44267 6.99856 5.18933 6.67856 5.936C6.64656 6.00533 6.62523 6.08267 6.61456 6.168C6.6039 6.25333 6.6119 6.34133 6.63856 6.432C6.67056 6.51733 6.72656 6.60267 6.80656 6.688C6.88656 6.768 7.00123 6.84 7.15056 6.904C7.31056 6.968 7.44656 7 7.55856 7C7.7239 7 7.8519 6.95467 7.94256 6.864C8.03856 6.77333 8.1079 6.67467 8.15056 6.568C8.2359 6.36533 8.30256 6.18933 8.35056 6.04ZM9.04656 3.048C9.07323 2.936 9.09723 2.84267 9.11856 2.768C9.12923 2.72533 9.14523 2.704 9.16656 2.704C9.1879 2.704 9.2039 2.72533 9.21456 2.768C9.2359 2.84267 9.2599 2.93867 9.28656 3.056C9.31323 3.168 9.3399 3.288 9.36656 3.416C9.39323 3.544 9.4199 3.67467 9.44656 3.808C9.47323 3.94133 9.49723 4.06933 9.51856 4.192C9.53456 4.29333 9.49456 4.344 9.39856 4.344H9.34256H9.02256H8.93456C8.83856 4.344 8.79856 4.29067 8.81456 4.184C8.84123 4.06133 8.86523 3.93333 8.88656 3.8C8.91323 3.66667 8.9399 3.536 8.96656 3.408C8.99323 3.28 9.0199 3.16 9.04656 3.048ZM14.8293 3.112C14.8453 2.904 14.8586 2.68533 14.8693 2.456C14.88 2.36533 14.928 2.328 15.0133 2.344C15.1146 2.37067 15.2026 2.39467 15.2773 2.416C15.3573 2.432 15.4453 2.44 15.5413 2.44C15.616 2.44 15.6906 2.43467 15.7653 2.424C15.8453 2.408 15.9173 2.376 15.9813 2.328C16.0506 2.28 16.1066 2.208 16.1493 2.112C16.192 2.016 16.2133 1.88533 16.2133 1.72C16.2133 1.56 16.192 1.432 16.1493 1.336C16.112 1.24 16.0613 1.168 15.9973 1.12C15.9333 1.06667 15.8613 1.03467 15.7813 1.024C15.7066 1.008 15.632 1 15.5573 1C15.4506 1 15.3573 1.008 15.2773 1.024C15.2026 1.03467 15.1226 1.048 15.0373 1.064C14.9573 1.07467 14.8613 1.088 14.7493 1.104C14.6426 1.11467 14.504 1.12 14.3333 1.12H14.0133C13.8426 1.12 13.7013 1.11467 13.5893 1.104C13.4826 1.088 13.3866 1.07467 13.3013 1.064C13.2213 1.048 13.1413 1.03467 13.0613 1.024C12.9866 1.008 12.896 1 12.7893 1C12.7146 1 12.6373 1.008 12.5573 1.024C12.4826 1.03467 12.4133 1.06667 12.3493 1.12C12.2853 1.168 12.232 1.24 12.1893 1.336C12.152 1.432 12.1333 1.56 12.1333 1.72C12.1333 1.88533 12.1546 2.016 12.1973 2.112C12.24 2.208 12.2933 2.28 12.3573 2.328C12.4266 2.376 12.4986 2.408 12.5733 2.424C12.6533 2.43467 12.7306 2.44 12.8053 2.44C12.9013 2.44 12.9866 2.432 13.0613 2.416C13.1413 2.39467 13.232 2.37067 13.3333 2.344C13.4186 2.328 13.4666 2.36533 13.4773 2.456C13.488 2.68 13.4986 2.89867 13.5093 3.112C13.5253 3.32533 13.5333 3.54133 13.5333 3.76V4.24C13.5333 4.41067 13.5253 4.58133 13.5093 4.752C13.4933 4.91733 13.4746 5.088 13.4533 5.264C13.432 5.43467 13.4133 5.608 13.3973 5.784C13.3813 5.96 13.3733 6.14133 13.3733 6.328C13.3733 6.40267 13.384 6.48 13.4053 6.56C13.4266 6.63467 13.4666 6.70667 13.5253 6.776C13.584 6.84 13.664 6.89333 13.7653 6.936C13.872 6.97867 14.008 7 14.1733 7C14.3333 7 14.464 6.98133 14.5653 6.944C14.672 6.90133 14.7546 6.848 14.8133 6.784C14.8773 6.72 14.92 6.65067 14.9413 6.576C14.9626 6.496 14.9733 6.41867 14.9733 6.344C14.9733 6.136 14.9653 5.94133 14.9493 5.76C14.9333 5.57867 14.9146 5.40533 14.8933 5.24C14.872 5.06933 14.8533 4.904 14.8373 4.744C14.8213 4.57867 14.8133 4.41067 14.8133 4.24V3.76C14.8133 3.536 14.8186 3.32 14.8293 3.112ZM19.8871 3.112C19.9031 2.904 19.9165 2.68533 19.9271 2.456C19.9378 2.36533 19.9858 2.328 20.0711 2.344C20.1725 2.37067 20.2605 2.39467 20.3351 2.416C20.4151 2.432 20.5031 2.44 20.5991 2.44C20.6738 2.44 20.7485 2.43467 20.8231 2.424C20.9031 2.408 20.9751 2.376 21.0391 2.328C21.1085 2.28 21.1645 2.208 21.2071 2.112C21.2498 2.016 21.2711 1.88533 21.2711 1.72C21.2711 1.56 21.2498 1.432 21.2071 1.336C21.1698 1.24 21.1191 1.168 21.0551 1.12C20.9911 1.06667 20.9191 1.03467 20.8391 1.024C20.7645 1.008 20.6898 1 20.6151 1C20.5085 1 20.4151 1.008 20.3351 1.024C20.2605 1.03467 20.1805 1.048 20.0951 1.064C20.0151 1.07467 19.9191 1.088 19.8071 1.104C19.7005 1.11467 19.5618 1.12 19.3911 1.12H19.0711C18.9005 1.12 18.7591 1.11467 18.6471 1.104C18.5405 1.088 18.4445 1.07467 18.3591 1.064C18.2791 1.048 18.1991 1.03467 18.1191 1.024C18.0445 1.008 17.9538 1 17.8471 1C17.7725 1 17.6951 1.008 17.6151 1.024C17.5405 1.03467 17.4711 1.06667 17.4071 1.12C17.3431 1.168 17.2898 1.24 17.2471 1.336C17.2098 1.432 17.1911 1.56 17.1911 1.72C17.1911 1.88533 17.2125 2.016 17.2551 2.112C17.2978 2.208 17.3511 2.28 17.4151 2.328C17.4845 2.376 17.5565 2.408 17.6311 2.424C17.7111 2.43467 17.7885 2.44 17.8631 2.44C17.9591 2.44 18.0445 2.432 18.1191 2.416C18.1991 2.39467 18.2898 2.37067 18.3911 2.344C18.4765 2.328 18.5245 2.36533 18.5351 2.456C18.5458 2.68 18.5565 2.89867 18.5671 3.112C18.5831 3.32533 18.5911 3.54133 18.5911 3.76V4.24C18.5911 4.41067 18.5831 4.58133 18.5671 4.752C18.5511 4.91733 18.5325 5.088 18.5111 5.264C18.4898 5.43467 18.4711 5.608 18.4551 5.784C18.4391 5.96 18.4311 6.14133 18.4311 6.328C18.4311 6.40267 18.4418 6.48 18.4631 6.56C18.4845 6.63467 18.5245 6.70667 18.5831 6.776C18.6418 6.84 18.7218 6.89333 18.8231 6.936C18.9298 6.97867 19.0658 7 19.2311 7C19.3911 7 19.5218 6.98133 19.6231 6.944C19.7298 6.90133 19.8125 6.848 19.8711 6.784C19.9351 6.72 19.9778 6.65067 19.9991 6.576C20.0205 6.496 20.0311 6.41867 20.0311 6.344C20.0311 6.136 20.0231 5.94133 20.0071 5.76C19.9911 5.57867 19.9725 5.40533 19.9511 5.24C19.9298 5.06933 19.9111 4.904 19.8951 4.744C19.8791 4.57867 19.8711 4.41067 19.8711 4.24V3.76C19.8711 3.536 19.8765 3.32 19.8871 3.112ZM24.1689 5.56C24.1316 5.56 24.0969 5.55733 24.0649 5.552C23.9636 5.54133 23.9076 5.48533 23.8969 5.384C23.8809 5.26133 23.8649 5.144 23.8489 5.032L23.8169 4.68C23.8116 4.632 23.8223 4.59467 23.8489 4.568C23.8809 4.536 23.9183 4.52 23.9609 4.52H24.0649C24.2356 4.52 24.3743 4.528 24.4809 4.544C24.5876 4.56 24.6783 4.57867 24.7529 4.6C24.8329 4.62133 24.9049 4.64 24.9689 4.656C25.0329 4.672 25.1076 4.68 25.1929 4.68C25.2676 4.68 25.3423 4.672 25.4169 4.656C25.4969 4.63467 25.5689 4.59733 25.6329 4.544C25.7023 4.49067 25.7583 4.416 25.8009 4.32C25.8436 4.21867 25.8649 4.08533 25.8649 3.92C25.8649 3.76 25.8436 3.62933 25.8009 3.528C25.7636 3.42667 25.7129 3.34933 25.6489 3.296C25.5849 3.24267 25.5129 3.208 25.4329 3.192C25.3583 3.17067 25.2836 3.16 25.2089 3.16C25.1023 3.16 25.0143 3.168 24.9449 3.184C24.8756 3.2 24.8036 3.21867 24.7289 3.24C24.6596 3.26133 24.5743 3.28 24.4729 3.296C24.3716 3.312 24.2356 3.32 24.0649 3.32H23.9769C23.8756 3.32 23.8303 3.26667 23.8409 3.16L23.8729 2.808C23.8889 2.69067 23.9023 2.57067 23.9129 2.448C23.9236 2.352 23.9796 2.29867 24.0809 2.288H24.1849C24.2223 2.28267 24.2623 2.28 24.3049 2.28C24.4756 2.28 24.6143 2.288 24.7209 2.304C24.8276 2.32 24.9183 2.33867 24.9929 2.36C25.0729 2.38133 25.1449 2.4 25.2089 2.416C25.2729 2.432 25.3476 2.44 25.4329 2.44C25.5076 2.44 25.5823 2.43467 25.6569 2.424C25.7369 2.408 25.8089 2.376 25.8729 2.328C25.9423 2.28 25.9983 2.208 26.0409 2.112C26.0836 2.016 26.1049 1.88533 26.1049 1.72C26.1049 1.56 26.0836 1.432 26.0409 1.336C26.0036 1.24 25.9529 1.168 25.8889 1.12C25.8249 1.06667 25.7529 1.03467 25.6729 1.024C25.5983 1.008 25.5236 1 25.4489 1C25.3423 1 25.2543 1.008 25.1849 1.024C25.1156 1.04 25.0436 1.05867 24.9689 1.08C24.8996 1.10133 24.8143 1.12 24.7129 1.136C24.6116 1.152 24.4756 1.16 24.3049 1.16C24.1023 1.16 23.9476 1.152 23.8409 1.136C23.7396 1.11467 23.6489 1.09067 23.5689 1.064C23.4569 1.02133 23.3209 1 23.1609 1H23.0569C23.0249 1 22.9929 1.00533 22.9609 1.016C22.8383 1.032 22.7369 1.064 22.6569 1.112C22.5823 1.16 22.5209 1.21333 22.4729 1.272C22.4303 1.33067 22.4009 1.39733 22.3849 1.472C22.3689 1.54133 22.3609 1.608 22.3609 1.672C22.3609 1.85867 22.3689 2.04 22.3849 2.216C22.4009 2.392 22.4196 2.568 22.4409 2.744C22.4623 2.91467 22.4809 3.08533 22.4969 3.256C22.5129 3.42133 22.5209 3.58933 22.5209 3.76V4.24C22.5209 4.41067 22.5129 4.58133 22.4969 4.752C22.4809 4.91733 22.4623 5.088 22.4409 5.264C22.4196 5.43467 22.4009 5.608 22.3849 5.784C22.3689 5.96 22.3609 6.14133 22.3609 6.328C22.3609 6.568 22.4383 6.74133 22.5929 6.848C22.7476 6.94933 22.9369 7 23.1609 7C23.3583 7 23.5156 6.97067 23.6329 6.912C23.7076 6.89067 23.7956 6.87467 23.8969 6.864C23.9983 6.848 24.1289 6.84 24.2889 6.84C24.4596 6.84 24.5983 6.848 24.7049 6.864C24.8116 6.88 24.9023 6.89867 24.9769 6.92C25.0569 6.94133 25.1289 6.96 25.1929 6.976C25.2569 6.992 25.3316 7 25.4169 7C25.4916 7 25.5663 6.98933 25.6409 6.968C25.7209 6.94667 25.7929 6.90667 25.8569 6.848C25.9263 6.78933 25.9823 6.70933 26.0249 6.608C26.0676 6.50133 26.0889 6.36533 26.0889 6.2C26.0889 6.04 26.0676 5.90933 26.0249 5.808C25.9876 5.70133 25.9369 5.61867 25.8729 5.56C25.8089 5.496 25.7369 5.45333 25.6569 5.432C25.5823 5.41067 25.5076 5.4 25.4329 5.4C25.3263 5.4 25.2383 5.408 25.1689 5.424C25.0996 5.44 25.0276 5.45867 24.9529 5.48C24.8836 5.50133 24.7983 5.52 24.6969 5.536C24.5956 5.552 24.4596 5.56 24.2889 5.56H24.1689ZM28.8303 5.592C28.809 5.36267 28.785 5.136 28.7583 4.912C28.7476 4.82667 28.785 4.784 28.8703 4.784C28.9556 4.784 29.025 4.816 29.0783 4.88L29.1983 5.032C29.305 5.16533 29.4036 5.30133 29.4943 5.44C29.5903 5.57867 29.6836 5.72 29.7743 5.864C29.865 6.008 29.9583 6.15467 30.0543 6.304C30.1556 6.45333 30.265 6.6 30.3823 6.744C30.4303 6.80267 30.4863 6.856 30.5503 6.904C30.6143 6.952 30.689 6.984 30.7743 7C30.865 7.01067 30.9636 7 31.0703 6.968C31.1823 6.936 31.3023 6.86933 31.4303 6.768C31.5583 6.672 31.649 6.576 31.7023 6.48C31.7556 6.37867 31.785 6.28533 31.7903 6.2C31.7956 6.10933 31.7823 6.02667 31.7503 5.952C31.7236 5.87733 31.6863 5.81067 31.6383 5.752C31.4516 5.52267 31.2676 5.32267 31.0863 5.152C30.9103 4.98133 30.7396 4.81067 30.5743 4.64C30.5156 4.58133 30.5263 4.53067 30.6063 4.488C30.9263 4.33333 31.177 4.12533 31.3583 3.864C31.545 3.59733 31.6383 3.26933 31.6383 2.88C31.6383 2.21867 31.4223 1.74133 30.9903 1.448C30.5583 1.14933 29.9343 1 29.1183 1H28.0783C27.913 1 27.777 1.02133 27.6703 1.064C27.569 1.10667 27.4863 1.16267 27.4223 1.232C27.3636 1.296 27.3236 1.368 27.3023 1.448C27.281 1.52267 27.2703 1.59733 27.2703 1.672C27.2703 1.85867 27.2783 2.04 27.2943 2.216C27.3103 2.392 27.329 2.568 27.3503 2.744C27.3716 2.91467 27.3903 3.08533 27.4063 3.256C27.4223 3.42133 27.4303 3.58933 27.4303 3.76V4.24C27.4303 4.41067 27.4223 4.58133 27.4063 4.752C27.3903 4.91733 27.3716 5.088 27.3503 5.264C27.329 5.43467 27.3103 5.608 27.2943 5.784C27.2783 5.96 27.2703 6.14133 27.2703 6.328C27.2703 6.40267 27.281 6.48 27.3023 6.56C27.3236 6.63467 27.3636 6.70667 27.4223 6.776C27.481 6.84 27.561 6.89333 27.6623 6.936C27.769 6.97867 27.905 7 28.0703 7C28.2303 7 28.361 6.98133 28.4623 6.944C28.569 6.90133 28.6516 6.848 28.7103 6.784C28.7743 6.72 28.817 6.65067 28.8383 6.576C28.8596 6.496 28.8703 6.41867 28.8703 6.344C28.8703 6.06667 28.857 5.816 28.8303 5.592ZM29.9903 3.448C29.8196 3.60267 29.529 3.68 29.1183 3.68H28.8463C28.761 3.68 28.7183 3.63467 28.7183 3.544C28.729 3.33067 28.7476 3.12267 28.7743 2.92C28.801 2.712 28.825 2.49333 28.8463 2.264C28.857 2.17333 28.905 2.128 28.9903 2.128H29.1183C29.3423 2.128 29.5263 2.14667 29.6703 2.184C29.8196 2.22133 29.937 2.272 30.0223 2.336C30.1076 2.4 30.1663 2.47733 30.1983 2.568C30.2303 2.65867 30.2463 2.76 30.2463 2.872C30.2463 3.096 30.161 3.288 29.9903 3.448ZM34.0069 3.896C34.1403 4.088 34.2683 4.29333 34.3909 4.512C34.4123 4.54933 34.4283 4.592 34.4389 4.64C34.4496 4.68267 34.4523 4.72533 34.4469 4.768C34.4203 5.024 34.3909 5.27733 34.3589 5.528C34.3269 5.77867 34.3109 6.04533 34.3109 6.328C34.3109 6.40267 34.3216 6.48 34.3429 6.56C34.3643 6.63467 34.4043 6.70667 34.4629 6.776C34.5216 6.84 34.6016 6.89333 34.7029 6.936C34.8096 6.97867 34.9456 7 35.1109 7C35.2709 7 35.4016 6.98133 35.5029 6.944C35.6096 6.90133 35.6923 6.848 35.7509 6.784C35.8149 6.72 35.8576 6.65067 35.8789 6.576C35.9003 6.496 35.9109 6.41867 35.9109 6.344C35.9109 6.04 35.8949 5.76533 35.8629 5.52C35.8363 5.27467 35.8096 5.032 35.7829 4.792C35.7776 4.74933 35.7776 4.70667 35.7829 4.664C35.7936 4.616 35.8096 4.57333 35.8309 4.536C35.9589 4.312 36.0869 4.104 36.2149 3.912C36.3483 3.71467 36.4843 3.52 36.6229 3.328C36.7616 3.13067 36.9056 2.928 37.0549 2.72C37.2043 2.50667 37.3616 2.27467 37.5269 2.024C37.5696 1.96 37.5963 1.88533 37.6069 1.8C37.6229 1.71467 37.6149 1.62933 37.5829 1.544C37.5509 1.45333 37.4923 1.36533 37.4069 1.28C37.3269 1.19467 37.2096 1.12 37.0549 1.056C36.9056 0.992 36.7749 0.96 36.6629 0.96C36.5509 0.96 36.4549 0.981333 36.3749 1.024C36.2949 1.06133 36.2283 1.11467 36.1749 1.184C36.1269 1.248 36.0869 1.31733 36.0549 1.392C35.9429 1.65333 35.8496 1.87733 35.7749 2.064C35.7003 2.24533 35.6309 2.41067 35.5669 2.56C35.5083 2.704 35.4496 2.84 35.3909 2.968C35.3323 3.096 35.2629 3.23733 35.1829 3.392C35.1403 3.46667 35.0976 3.46667 35.0549 3.392C34.9749 3.23733 34.9056 3.096 34.8469 2.968C34.7883 2.84 34.7269 2.704 34.6629 2.56C34.6043 2.41067 34.5376 2.24533 34.4629 2.064C34.3883 1.87733 34.2949 1.65333 34.1829 1.392C34.1509 1.31733 34.1083 1.248 34.0549 1.184C34.0069 1.11467 33.9429 1.06133 33.8629 1.024C33.7829 0.981333 33.6869 0.96 33.5749 0.96C33.4629 0.96 33.3323 0.992 33.1829 1.056C33.0336 1.12 32.9163 1.19467 32.8309 1.28C32.7456 1.36533 32.6869 1.45333 32.6549 1.544C32.6229 1.62933 32.6123 1.71467 32.6229 1.8C32.6389 1.88533 32.6683 1.96 32.7109 2.024C32.8763 2.27467 33.0336 2.504 33.1829 2.712C33.3323 2.92 33.4736 3.12267 33.6069 3.32C33.7456 3.512 33.8789 3.704 34.0069 3.896ZM1.336 12.256C1.352 12.4213 1.36 12.5893 1.36 12.76V13.24C1.36 13.4107 1.352 13.5813 1.336 13.752C1.32 13.9173 1.30133 14.088 1.28 14.264C1.25867 14.4347 1.24 14.608 1.224 14.784C1.208 14.96 1.2 15.1413 1.2 15.328C1.2 15.5733 1.28 15.7467 1.44 15.848C1.6 15.9493 1.79467 16 2.024 16C2.17867 16 2.30667 15.9813 2.408 15.944C2.50933 15.9013 2.58933 15.848 2.648 15.784C2.70667 15.72 2.74667 15.6507 2.768 15.576C2.78933 15.496 2.8 15.4187 2.8 15.344C2.8 15.136 2.792 14.9413 2.776 14.76C2.76 14.5787 2.74133 14.4053 2.72 14.24C2.69867 14.0693 2.68 13.904 2.664 13.744C2.648 13.5787 2.64 13.4107 2.64 13.24V12.76C2.64 12.5893 2.648 12.424 2.664 12.264C2.68 12.0987 2.69867 11.9333 2.72 11.768C2.74133 11.5973 2.76 11.4213 2.776 11.24C2.792 11.0587 2.8 10.864 2.8 10.656C2.8 10.5813 2.78933 10.5067 2.768 10.432C2.74667 10.352 2.70667 10.28 2.648 10.216C2.58933 10.152 2.50933 10.1013 2.408 10.064C2.30667 10.0213 2.17867 10 2.024 10C1.912 10 1.80533 10.0133 1.704 10.04C1.60267 10.0613 1.51467 10.0987 1.44 10.152C1.36533 10.2053 1.30667 10.2747 1.264 10.36C1.22133 10.4453 1.2 10.5493 1.2 10.672C1.2 10.8587 1.208 11.04 1.224 11.216C1.24 11.392 1.25867 11.568 1.28 11.744C1.30133 11.9147 1.32 12.0853 1.336 12.256ZM6.824 15.552C6.82933 15.6 6.85067 15.6507 6.888 15.704C6.94667 15.7947 7.01867 15.8667 7.104 15.92C7.18933 15.9733 7.27733 16 7.368 16H7.64C7.784 15.9947 7.89867 15.9707 7.984 15.928C8.07467 15.8853 8.144 15.832 8.192 15.768C8.24533 15.704 8.28 15.6347 8.296 15.56C8.312 15.4853 8.32 15.4133 8.32 15.344C8.32 15.136 8.312 14.9413 8.296 14.76C8.28 14.5787 8.26133 14.4053 8.24 14.24C8.21867 14.0693 8.2 13.904 8.184 13.744C8.168 13.5787 8.16 13.4107 8.16 13.24V12.76C8.16 12.5893 8.168 12.424 8.184 12.264C8.2 12.0987 8.21867 11.9333 8.24 11.768C8.26133 11.5973 8.28 11.4213 8.296 11.24C8.312 11.0587 8.32 10.864 8.32 10.656C8.32 10.5813 8.30933 10.5067 8.288 10.432C8.272 10.352 8.23733 10.28 8.184 10.216C8.13067 10.152 8.05333 10.1013 7.952 10.064C7.85067 10.0213 7.72 10 7.56 10C7.39467 10 7.25867 10.0213 7.152 10.064C7.04533 10.1067 6.96 10.1627 6.896 10.232C6.832 10.296 6.78667 10.368 6.76 10.448C6.73333 10.5227 6.72 10.5973 6.72 10.672C6.72 10.8587 6.73067 11.04 6.752 11.216C6.77867 11.392 6.808 11.568 6.84 11.744C6.872 11.9147 6.89867 12.0853 6.92 12.256C6.94667 12.4213 6.96 12.5893 6.96 12.76V12.928C6.96 12.976 6.952 13.0027 6.936 13.008C6.92533 13.008 6.90933 12.9867 6.888 12.944L5.592 10.304C5.54933 10.2133 5.48267 10.1413 5.392 10.088C5.30133 10.0293 5.20267 10 5.096 10H4.76C4.59467 10 4.46133 10.0213 4.36 10.064C4.264 10.1067 4.18933 10.1627 4.136 10.232C4.08267 10.296 4.04533 10.368 4.024 10.448C4.008 10.5227 4 10.5973 4 10.672C4 10.8587 4.008 11.04 4.024 11.216C4.04 11.392 4.05867 11.568 4.08 11.744C4.10133 11.9147 4.12 12.0853 4.136 12.256C4.152 12.4213 4.16 12.5893 4.16 12.76V13.24C4.16 13.4107 4.152 13.5813 4.136 13.752C4.12 13.9173 4.10133 14.088 4.08 14.264C4.05867 14.4347 4.04 14.608 4.024 14.784C4.008 14.96 4 15.1413 4 15.328C4 15.4027 4.008 15.48 4.024 15.56C4.04533 15.6347 4.08267 15.7067 4.136 15.776C4.18933 15.84 4.264 15.8933 4.36 15.936C4.46133 15.9787 4.59467 16 4.76 16C4.92 16 5.05333 15.9813 5.16 15.944C5.272 15.9013 5.36 15.848 5.424 15.784C5.488 15.72 5.53333 15.6507 5.56 15.576C5.58667 15.496 5.6 15.4187 5.6 15.344C5.6 15.136 5.58667 14.9307 5.56 14.728C5.53867 14.52 5.512 14.3173 5.48 14.12C5.448 13.9227 5.41867 13.7307 5.392 13.544C5.37067 13.352 5.36 13.1707 5.36 13V12.76V12.656C5.36 12.608 5.36533 12.584 5.376 12.584C5.392 12.5787 5.41067 12.5973 5.432 12.64L6.824 15.552ZM9.65475 12.256C9.67075 12.4213 9.67875 12.5893 9.67875 12.76V13.24C9.67875 13.4107 9.67075 13.5813 9.65475 13.752C9.63875 13.9173 9.62008 14.088 9.59875 14.264C9.57742 14.4347 9.55875 14.608 9.54275 14.784C9.52675 14.96 9.51875 15.1413 9.51875 15.328C9.51875 15.456 9.54008 15.5627 9.58275 15.648C9.63075 15.7333 9.69208 15.8027 9.76675 15.856C9.84142 15.9093 9.92942 15.9467 10.0308 15.968C10.1374 15.9893 10.2468 16 10.3588 16H11.4068C12.2761 16 12.9134 15.7413 13.3188 15.224C13.7241 14.7013 13.9268 13.96 13.9268 13C13.9268 12.5893 13.8708 12.2027 13.7588 11.84C13.6521 11.4773 13.4921 11.16 13.2788 10.888C13.0654 10.616 12.8014 10.4 12.4868 10.24C12.1774 10.08 11.8174 10 11.4068 10H10.3668C10.2548 10 10.1454 10.0107 10.0388 10.032C9.93742 10.0533 9.84675 10.0907 9.76675 10.144C9.69208 10.1973 9.63075 10.2667 9.58275 10.352C9.54008 10.4373 9.51875 10.544 9.51875 10.672C9.51875 10.8587 9.52675 11.04 9.54275 11.216C9.55875 11.392 9.57742 11.568 9.59875 11.744C9.62008 11.9147 9.63875 12.0853 9.65475 12.256ZM12.2788 14.256C12.1081 14.5547 11.8174 14.704 11.4068 14.704H11.2388C11.1374 14.704 11.0814 14.6533 11.0708 14.552C11.0441 14.3227 11.0174 14.104 10.9908 13.896C10.9694 13.6827 10.9588 13.464 10.9588 13.24V12.76C10.9588 12.504 10.9748 12.2613 11.0068 12.032C11.0388 11.7973 11.0681 11.5467 11.0948 11.28C11.1054 11.1787 11.1588 11.128 11.2548 11.128H11.4068C11.6308 11.128 11.8148 11.176 11.9588 11.272C12.1081 11.3627 12.2254 11.4907 12.3108 11.656C12.3961 11.8213 12.4548 12.0187 12.4868 12.248C12.5188 12.472 12.5347 12.72 12.5347 12.992C12.5347 13.536 12.4494 13.9573 12.2788 14.256ZM15.2204 12.256C15.2364 12.4213 15.2444 12.5893 15.2444 12.76V13.24C15.2444 13.4107 15.2364 13.5813 15.2204 13.752C15.2044 13.9173 15.1857 14.088 15.1644 14.264C15.143 14.4347 15.1244 14.608 15.1084 14.784C15.0924 14.96 15.0844 15.1413 15.0844 15.328C15.0844 15.5733 15.1644 15.7467 15.3244 15.848C15.4844 15.9493 15.679 16 15.9084 16C16.063 16 16.191 15.9813 16.2924 15.944C16.3937 15.9013 16.4737 15.848 16.5324 15.784C16.591 15.72 16.631 15.6507 16.6524 15.576C16.6737 15.496 16.6844 15.4187 16.6844 15.344C16.6844 15.136 16.6764 14.9413 16.6604 14.76C16.6444 14.5787 16.6257 14.4053 16.6044 14.24C16.583 14.0693 16.5644 13.904 16.5484 13.744C16.5324 13.5787 16.5244 13.4107 16.5244 13.24V12.76C16.5244 12.5893 16.5324 12.424 16.5484 12.264C16.5644 12.0987 16.583 11.9333 16.6044 11.768C16.6257 11.5973 16.6444 11.4213 16.6604 11.24C16.6764 11.0587 16.6844 10.864 16.6844 10.656C16.6844 10.5813 16.6737 10.5067 16.6524 10.432C16.631 10.352 16.591 10.28 16.5324 10.216C16.4737 10.152 16.3937 10.1013 16.2924 10.064C16.191 10.0213 16.063 10 15.9084 10C15.7964 10 15.6897 10.0133 15.5884 10.04C15.487 10.0613 15.399 10.0987 15.3244 10.152C15.2497 10.2053 15.191 10.2747 15.1484 10.36C15.1057 10.4453 15.0844 10.5493 15.0844 10.672C15.0844 10.8587 15.0924 11.04 15.1084 11.216C15.1244 11.392 15.143 11.568 15.1644 11.744C15.1857 11.9147 15.2044 12.0853 15.2204 12.256ZM21.2604 14.264C21.1697 14.3013 21.087 14.3653 21.0124 14.456C20.9217 14.5627 20.8284 14.6453 20.7324 14.704C20.6364 14.7573 20.503 14.784 20.3324 14.784C20.1244 14.784 19.9537 14.7413 19.8204 14.656C19.687 14.5707 19.5804 14.4507 19.5004 14.296C19.4204 14.1413 19.3644 13.9547 19.3324 13.736C19.3004 13.512 19.2844 13.264 19.2844 12.992C19.2844 12.72 19.295 12.4667 19.3164 12.232C19.343 11.9973 19.3937 11.792 19.4684 11.616C19.543 11.44 19.6497 11.3013 19.7884 11.2C19.927 11.0987 20.1084 11.048 20.3324 11.048C20.551 11.048 20.7324 11.088 20.8764 11.168C21.0204 11.248 21.167 11.3387 21.3164 11.44C21.4177 11.4987 21.511 11.528 21.5964 11.528C21.719 11.528 21.8284 11.4853 21.9244 11.4C22.0257 11.3147 22.0924 11.2107 22.1244 11.088C22.1617 10.9653 22.159 10.8373 22.1164 10.704C22.0737 10.5653 21.9697 10.4453 21.8044 10.344C21.7084 10.28 21.6124 10.224 21.5164 10.176C21.4204 10.1227 21.3164 10.0773 21.2044 10.04C21.0924 10.0027 20.967 9.97333 20.8284 9.952C20.6897 9.93067 20.5244 9.92 20.3324 9.92C19.895 9.92 19.5217 10.0053 19.2124 10.176C18.903 10.3413 18.6497 10.5653 18.4524 10.848C18.255 11.1307 18.111 11.4587 18.0204 11.832C17.9297 12.2 17.8844 12.5893 17.8844 13C17.8844 13.48 17.927 13.912 18.0124 14.296C18.0977 14.6747 18.2364 14.9973 18.4284 15.264C18.6204 15.5253 18.871 15.728 19.1804 15.872C19.495 16.0107 19.879 16.08 20.3324 16.08C20.7324 16.08 21.0684 16.024 21.3404 15.912C21.6177 15.7947 21.8577 15.6187 22.0604 15.384C22.1884 15.2347 22.2577 15.0907 22.2684 14.952C22.279 14.808 22.2524 14.68 22.1884 14.568C22.1244 14.456 22.031 14.368 21.9084 14.304C21.791 14.2347 21.6684 14.2 21.5404 14.2C21.4444 14.2 21.351 14.2213 21.2604 14.264ZM25.0584 15.04C25.1117 14.8853 25.157 14.7387 25.1944 14.6C25.221 14.4987 25.285 14.4427 25.3864 14.432C25.4344 14.4267 25.485 14.424 25.5384 14.424C25.597 14.4187 25.661 14.416 25.7304 14.416H26.0504H26.2104C26.2637 14.416 26.3144 14.4187 26.3624 14.424C26.4637 14.4347 26.5277 14.4907 26.5544 14.592C26.5917 14.7307 26.6344 14.8773 26.6824 15.032C26.7357 15.1867 26.805 15.3653 26.8904 15.568C26.933 15.6747 26.9997 15.7733 27.0904 15.864C27.1864 15.9547 27.317 16 27.4824 16C27.5944 16 27.7304 15.968 27.8904 15.904C28.045 15.84 28.1597 15.768 28.2344 15.688C28.3144 15.6027 28.3677 15.5173 28.3944 15.432C28.4264 15.3413 28.437 15.2533 28.4264 15.168C28.4157 15.0827 28.3944 15.0053 28.3624 14.936C28.0424 14.1893 27.7544 13.4427 27.4984 12.696C27.2477 11.9493 26.989 11.184 26.7224 10.4C26.6797 10.2773 26.5837 10.176 26.4344 10.096C26.285 10.016 26.0984 9.976 25.8744 9.976C25.6504 9.976 25.4637 10.016 25.3144 10.096C25.165 10.176 25.069 10.2773 25.0264 10.4C24.765 11.184 24.5064 11.9493 24.2504 12.696C23.9944 13.4427 23.7064 14.1893 23.3864 14.936C23.3544 15.0053 23.333 15.0827 23.3224 15.168C23.3117 15.2533 23.3197 15.3413 23.3464 15.432C23.3784 15.5173 23.4344 15.6027 23.5144 15.688C23.5944 15.768 23.709 15.84 23.8584 15.904C24.0184 15.968 24.1544 16 24.2664 16C24.4317 16 24.5597 15.9547 24.6504 15.864C24.7464 15.7733 24.8157 15.6747 24.8584 15.568C24.9437 15.3653 25.0104 15.1893 25.0584 15.04ZM25.7544 12.048C25.781 11.936 25.805 11.8427 25.8264 11.768C25.837 11.7253 25.853 11.704 25.8744 11.704C25.8957 11.704 25.9117 11.7253 25.9224 11.768C25.9437 11.8427 25.9677 11.9387 25.9944 12.056C26.021 12.168 26.0477 12.288 26.0744 12.416C26.101 12.544 26.1277 12.6747 26.1544 12.808C26.181 12.9413 26.205 13.0693 26.2264 13.192C26.2424 13.2933 26.2024 13.344 26.1064 13.344H26.0504H25.7304H25.6424C25.5464 13.344 25.5064 13.2907 25.5224 13.184C25.549 13.0613 25.573 12.9333 25.5944 12.8C25.621 12.6667 25.6477 12.536 25.6744 12.408C25.701 12.28 25.7277 12.16 25.7544 12.048ZM31.5371 12.112C31.5531 11.904 31.5665 11.6853 31.5771 11.456C31.5878 11.3653 31.6358 11.328 31.7211 11.344C31.8225 11.3707 31.9105 11.3947 31.9851 11.416C32.0651 11.432 32.1531 11.44 32.2491 11.44C32.3238 11.44 32.3985 11.4347 32.4731 11.424C32.5531 11.408 32.6251 11.376 32.6891 11.328C32.7585 11.28 32.8145 11.208 32.8571 11.112C32.8998 11.016 32.9211 10.8853 32.9211 10.72C32.9211 10.56 32.8998 10.432 32.8571 10.336C32.8198 10.24 32.7691 10.168 32.7051 10.12C32.6411 10.0667 32.5691 10.0347 32.4891 10.024C32.4145 10.008 32.3398 10 32.2651 10C32.1585 10 32.0651 10.008 31.9851 10.024C31.9105 10.0347 31.8305 10.048 31.7451 10.064C31.6651 10.0747 31.5691 10.088 31.4571 10.104C31.3505 10.1147 31.2118 10.12 31.0411 10.12H30.7211C30.5505 10.12 30.4091 10.1147 30.2971 10.104C30.1905 10.088 30.0945 10.0747 30.0091 10.064C29.9291 10.048 29.8491 10.0347 29.7691 10.024C29.6945 10.008 29.6038 10 29.4971 10C29.4225 10 29.3451 10.008 29.2651 10.024C29.1905 10.0347 29.1211 10.0667 29.0571 10.12C28.9931 10.168 28.9398 10.24 28.8971 10.336C28.8598 10.432 28.8411 10.56 28.8411 10.72C28.8411 10.8853 28.8625 11.016 28.9051 11.112C28.9478 11.208 29.0011 11.28 29.0651 11.328C29.1345 11.376 29.2065 11.408 29.2811 11.424C29.3611 11.4347 29.4385 11.44 29.5131 11.44C29.6091 11.44 29.6945 11.432 29.7691 11.416C29.8491 11.3947 29.9398 11.3707 30.0411 11.344C30.1265 11.328 30.1745 11.3653 30.1851 11.456C30.1958 11.68 30.2065 11.8987 30.2171 12.112C30.2331 12.3253 30.2411 12.5413 30.2411 12.76V13.24C30.2411 13.4107 30.2331 13.5813 30.2171 13.752C30.2011 13.9173 30.1825 14.088 30.1611 14.264C30.1398 14.4347 30.1211 14.608 30.1051 14.784C30.0891 14.96 30.0811 15.1413 30.0811 15.328C30.0811 15.4027 30.0918 15.48 30.1131 15.56C30.1345 15.6347 30.1745 15.7067 30.2331 15.776C30.2918 15.84 30.3718 15.8933 30.4731 15.936C30.5798 15.9787 30.7158 16 30.8811 16C31.0411 16 31.1718 15.9813 31.2731 15.944C31.3798 15.9013 31.4625 15.848 31.5211 15.784C31.5851 15.72 31.6278 15.6507 31.6491 15.576C31.6705 15.496 31.6811 15.4187 31.6811 15.344C31.6811 15.136 31.6731 14.9413 31.6571 14.76C31.6411 14.5787 31.6225 14.4053 31.6011 14.24C31.5798 14.0693 31.5611 13.904 31.5451 13.744C31.5291 13.5787 31.5211 13.4107 31.5211 13.24V12.76C31.5211 12.536 31.5265 12.32 31.5371 12.112ZM33.8809 11.832C33.7743 12.2 33.7209 12.5893 33.7209 13C33.7209 13.48 33.7689 13.912 33.8649 14.296C33.9663 14.6747 34.1209 14.9973 34.3289 15.264C34.5369 15.5253 34.7983 15.728 35.1129 15.872C35.4329 16.0107 35.8116 16.08 36.2489 16.08C36.6809 16.08 37.0543 16.0107 37.3689 15.872C37.6889 15.728 37.9529 15.5253 38.1609 15.264C38.3689 14.9973 38.5209 14.6747 38.6169 14.296C38.7183 13.912 38.7689 13.48 38.7689 13C38.7689 12.5893 38.7129 12.2 38.6009 11.832C38.4943 11.4587 38.3343 11.1307 38.1209 10.848C37.9076 10.5653 37.6436 10.3413 37.3289 10.176C37.0196 10.0053 36.6596 9.92 36.2489 9.92C35.8329 9.92 35.4676 10.0053 35.1529 10.176C34.8383 10.3413 34.5743 10.5653 34.3609 10.848C34.1476 11.1307 33.9876 11.4587 33.8809 11.832ZM35.1769 13.736C35.1396 13.512 35.1209 13.264 35.1209 12.992C35.1209 12.72 35.1369 12.4667 35.1689 12.232C35.2009 11.9973 35.2596 11.792 35.3449 11.616C35.4303 11.44 35.5449 11.3013 35.6889 11.2C35.8383 11.0987 36.0249 11.048 36.2489 11.048C36.4729 11.048 36.6569 11.0987 36.8009 11.2C36.9503 11.3013 37.0676 11.44 37.1529 11.616C37.2383 11.792 37.2969 11.9973 37.3289 12.232C37.3609 12.4667 37.3769 12.72 37.3769 12.992C37.3769 13.264 37.3556 13.512 37.3129 13.736C37.2756 13.9547 37.2116 14.1413 37.1209 14.296C37.0303 14.4507 36.9129 14.5707 36.7689 14.656C36.6303 14.7413 36.4569 14.784 36.2489 14.784C36.0409 14.784 35.8649 14.7413 35.7209 14.656C35.5823 14.5707 35.4676 14.4507 35.3769 14.296C35.2863 14.1413 35.2196 13.9547 35.1769 13.736ZM41.4881 14.592C41.4668 14.3627 41.4428 14.136 41.4161 13.912C41.4055 13.8267 41.4428 13.784 41.5281 13.784C41.6135 13.784 41.6828 13.816 41.7361 13.88L41.8561 14.032C41.9628 14.1653 42.0615 14.3013 42.1521 14.44C42.2481 14.5787 42.3415 14.72 42.4321 14.864C42.5228 15.008 42.6161 15.1547 42.7121 15.304C42.8135 15.4533 42.9228 15.6 43.0401 15.744C43.0881 15.8027 43.1441 15.856 43.2081 15.904C43.2721 15.952 43.3468 15.984 43.4321 16C43.5228 16.0107 43.6215 16 43.7281 15.968C43.8401 15.936 43.9601 15.8693 44.0881 15.768C44.2161 15.672 44.3068 15.576 44.3601 15.48C44.4135 15.3787 44.4428 15.2853 44.4481 15.2C44.4535 15.1093 44.4401 15.0267 44.4081 14.952C44.3815 14.8773 44.3441 14.8107 44.2961 14.752C44.1095 14.5227 43.9255 14.3227 43.7441 14.152C43.5681 13.9813 43.3975 13.8107 43.2321 13.64C43.1735 13.5813 43.1841 13.5307 43.2641 13.488C43.5841 13.3333 43.8348 13.1253 44.0161 12.864C44.2028 12.5973 44.2961 12.2693 44.2961 11.88C44.2961 11.2187 44.0801 10.7413 43.6481 10.448C43.2161 10.1493 42.5921 10 41.7761 10H40.7361C40.5708 10 40.4348 10.0213 40.3281 10.064C40.2268 10.1067 40.1441 10.1627 40.0801 10.232C40.0215 10.296 39.9815 10.368 39.9601 10.448C39.9388 10.5227 39.9281 10.5973 39.9281 10.672C39.9281 10.8587 39.9361 11.04 39.9521 11.216C39.9681 11.392 39.9868 11.568 40.0081 11.744C40.0295 11.9147 40.0481 12.0853 40.0641 12.256C40.0801 12.4213 40.0881 12.5893 40.0881 12.76V13.24C40.0881 13.4107 40.0801 13.5813 40.0641 13.752C40.0481 13.9173 40.0295 14.088 40.0081 14.264C39.9868 14.4347 39.9681 14.608 39.9521 14.784C39.9361 14.96 39.9281 15.1413 39.9281 15.328C39.9281 15.4027 39.9388 15.48 39.9601 15.56C39.9815 15.6347 40.0215 15.7067 40.0801 15.776C40.1388 15.84 40.2188 15.8933 40.3201 15.936C40.4268 15.9787 40.5628 16 40.7281 16C40.8881 16 41.0188 15.9813 41.1201 15.944C41.2268 15.9013 41.3095 15.848 41.3681 15.784C41.4321 15.72 41.4748 15.6507 41.4961 15.576C41.5175 15.496 41.5281 15.4187 41.5281 15.344C41.5281 15.0667 41.5148 14.816 41.4881 14.592ZM42.6481 12.448C42.4775 12.6027 42.1868 12.68 41.7761 12.68H41.5041C41.4188 12.68 41.3761 12.6347 41.3761 12.544C41.3868 12.3307 41.4055 12.1227 41.4321 11.92C41.4588 11.712 41.4828 11.4933 41.5041 11.264C41.5148 11.1733 41.5628 11.128 41.6481 11.128H41.7761C42.0001 11.128 42.1841 11.1467 42.3281 11.184C42.4775 11.2213 42.5948 11.272 42.6801 11.336C42.7655 11.4 42.8241 11.4773 42.8561 11.568C42.8881 11.6587 42.9041 11.76 42.9041 11.872C42.9041 12.096 42.8188 12.288 42.6481 12.448Z" fill="black"/>
</svg>
