<svg width="44" height="17" viewBox="0 0 44 17" fill="none" xmlns="http://www.w3.org/2000/svg">
<path d="M0.36 3.76C0.36 3.58933 0.352 3.42133 0.336 3.256C0.32 3.08533 0.301333 2.91467 0.28 2.744C0.258667 2.568 0.24 2.392 0.224 2.216C0.208 2.04 0.2 1.85867 0.2 1.672C0.2 1.59733 0.210667 1.52267 0.232 1.448C0.253333 1.368 0.293333 1.296 0.352 1.232C0.416 1.16267 0.498667 1.10667 0.6 1.064C0.706667 1.02133 0.842667 1 1.008 1H1.808C2.15467 1 2.48 1.032 2.784 1.096C3.09333 1.15467 3.36267 1.248 3.592 1.376C3.82133 1.504 4 1.66667 4.128 1.864C4.26133 2.056 4.328 2.288 4.328 2.56C4.328 2.784 4.26933 2.98933 4.152 3.176C4.04 3.36267 3.89067 3.52533 3.704 3.664C3.976 3.83467 4.18667 4.05067 4.336 4.312C4.49067 4.57333 4.568 4.86933 4.568 5.2C4.568 5.53067 4.512 5.81067 4.4 6.04C4.29333 6.26933 4.13333 6.456 3.92 6.6C3.70667 6.73867 3.44267 6.84 3.128 6.904C2.81867 6.968 2.45867 7 2.048 7H1.008C0.842667 7 0.706667 6.97867 0.6 6.936C0.498667 6.89333 0.416 6.84 0.352 6.776C0.293333 6.70667 0.253333 6.63467 0.232 6.56C0.210667 6.48 0.2 6.40267 0.2 6.328C0.2 6.14133 0.208 5.96 0.224 5.784C0.24 5.608 0.258667 5.43467 0.28 5.264C0.301333 5.088 0.32 4.91733 0.336 4.752C0.352 4.58133 0.36 4.41067 0.36 4.24V3.76ZM1.824 3.2C2.22933 3.2 2.51467 3.16267 2.68 3.088C2.85067 3.008 2.936 2.856 2.936 2.632C2.936 2.54667 2.92 2.47467 2.888 2.416C2.86133 2.352 2.808 2.30133 2.728 2.264C2.65333 2.22133 2.552 2.18933 2.424 2.168C2.296 2.14667 2.13333 2.13333 1.936 2.128C1.84 2.128 1.78667 2.17867 1.776 2.28C1.76533 2.41867 1.74933 2.552 1.728 2.68C1.712 2.80267 1.69867 2.92533 1.688 3.048C1.67733 3.14933 1.72267 3.2 1.824 3.2ZM2.048 5.712C2.272 5.712 2.456 5.69333 2.6 5.656C2.74933 5.61867 2.86667 5.568 2.952 5.504C3.03733 5.44 3.096 5.36267 3.128 5.272C3.16 5.18133 3.176 5.08 3.176 4.968C3.176 4.78133 3.09067 4.62667 2.92 4.504C2.74933 4.38133 2.45867 4.32 2.048 4.32H1.792C1.68533 4.32 1.63733 4.37067 1.648 4.472C1.65867 4.65333 1.672 4.83467 1.688 5.016C1.70933 5.192 1.73067 5.37333 1.752 5.56C1.76267 5.66133 1.81867 5.712 1.92 5.712H2.048ZM7.48656 5.6C7.44923 5.73867 7.4039 5.88533 7.35056 6.04C7.30256 6.18933 7.2359 6.36533 7.15056 6.568C7.1079 6.67467 7.03856 6.77333 6.94256 6.864C6.8519 6.95467 6.7239 7 6.55856 7C6.44656 7 6.31056 6.968 6.15056 6.904C6.00123 6.84 5.88656 6.768 5.80656 6.688C5.72656 6.60267 5.67056 6.51733 5.63856 6.432C5.6119 6.34133 5.6039 6.25333 5.61456 6.168C5.62523 6.08267 5.64656 6.00533 5.67856 5.936C5.99856 5.18933 6.28656 4.44267 6.54256 3.696C6.79856 2.94933 7.05723 2.184 7.31856 1.4C7.36123 1.27733 7.45723 1.176 7.60656 1.096C7.7559 1.016 7.94256 0.976 8.16656 0.976C8.39056 0.976 8.57723 1.016 8.72656 1.096C8.8759 1.176 8.9719 1.27733 9.01456 1.4C9.28123 2.184 9.5399 2.94933 9.79056 3.696C10.0466 4.44267 10.3346 5.18933 10.6546 5.936C10.6866 6.00533 10.7079 6.08267 10.7186 6.168C10.7292 6.25333 10.7186 6.34133 10.6866 6.432C10.6599 6.51733 10.6066 6.60267 10.5266 6.688C10.4519 6.768 10.3372 6.84 10.1826 6.904C10.0226 6.968 9.88656 7 9.77456 7C9.60923 7 9.47856 6.95467 9.38256 6.864C9.2919 6.77333 9.22523 6.67467 9.18256 6.568C9.09723 6.36533 9.0279 6.18667 8.97456 6.032C8.92656 5.87733 8.8839 5.73067 8.84656 5.592C8.8199 5.49067 8.7559 5.43467 8.65456 5.424C8.60656 5.41867 8.5559 5.416 8.50256 5.416C8.45456 5.416 8.40123 5.416 8.34256 5.416H8.02256C7.95323 5.416 7.88923 5.41867 7.83056 5.424C7.77723 5.424 7.72656 5.42667 7.67856 5.432C7.57723 5.44267 7.51323 5.49867 7.48656 5.6ZM8.11856 2.768C8.09723 2.84267 8.07323 2.936 8.04656 3.048C8.0199 3.16 7.99323 3.28 7.96656 3.408C7.9399 3.536 7.91323 3.66667 7.88656 3.8C7.86523 3.93333 7.84123 4.06133 7.81456 4.184C7.79856 4.29067 7.83856 4.344 7.93456 4.344H8.02256H8.34256H8.39856C8.49456 4.344 8.53456 4.29333 8.51856 4.192C8.49723 4.06933 8.47323 3.94133 8.44656 3.808C8.4199 3.67467 8.39323 3.544 8.36656 3.416C8.3399 3.288 8.31323 3.168 8.28656 3.056C8.2599 2.93867 8.2359 2.84267 8.21456 2.768C8.2039 2.72533 8.1879 2.704 8.16656 2.704C8.14523 2.704 8.12923 2.72533 8.11856 2.768ZM13.8693 2.456C13.8586 2.68533 13.8453 2.904 13.8293 3.112C13.8186 3.32 13.8133 3.536 13.8133 3.76V4.24C13.8133 4.41067 13.8213 4.57867 13.8373 4.744C13.8533 4.904 13.872 5.06933 13.8933 5.24C13.9146 5.40533 13.9333 5.57867 13.9493 5.76C13.9653 5.94133 13.9733 6.136 13.9733 6.344C13.9733 6.41867 13.9626 6.496 13.9413 6.576C13.92 6.65067 13.8773 6.72 13.8133 6.784C13.7546 6.848 13.672 6.90133 13.5653 6.944C13.464 6.98133 13.3333 7 13.1733 7C13.008 7 12.872 6.97867 12.7653 6.936C12.664 6.89333 12.584 6.84 12.5253 6.776C12.4666 6.70667 12.4266 6.63467 12.4053 6.56C12.384 6.48 12.3733 6.40267 12.3733 6.328C12.3733 6.14133 12.3813 5.96 12.3973 5.784C12.4133 5.608 12.432 5.43467 12.4533 5.264C12.4746 5.088 12.4933 4.91733 12.5093 4.752C12.5253 4.58133 12.5333 4.41067 12.5333 4.24V3.76C12.5333 3.54133 12.5253 3.32533 12.5093 3.112C12.4986 2.89867 12.488 2.68 12.4773 2.456C12.4666 2.36533 12.4186 2.328 12.3333 2.344C12.232 2.37067 12.1413 2.39467 12.0613 2.416C11.9866 2.432 11.9013 2.44 11.8053 2.44C11.7306 2.44 11.6533 2.43467 11.5733 2.424C11.4986 2.408 11.4266 2.376 11.3573 2.328C11.2933 2.28 11.24 2.208 11.1973 2.112C11.1546 2.016 11.1333 1.88533 11.1333 1.72C11.1333 1.56 11.152 1.432 11.1893 1.336C11.232 1.24 11.2853 1.168 11.3493 1.12C11.4133 1.06667 11.4826 1.03467 11.5573 1.024C11.6373 1.008 11.7146 1 11.7893 1C11.896 1 11.9866 1.008 12.0613 1.024C12.1413 1.03467 12.2213 1.048 12.3013 1.064C12.3866 1.07467 12.4826 1.088 12.5893 1.104C12.7013 1.11467 12.8426 1.12 13.0133 1.12H13.3333C13.504 1.12 13.6426 1.11467 13.7493 1.104C13.8613 1.088 13.9573 1.07467 14.0373 1.064C14.1226 1.048 14.2026 1.03467 14.2773 1.024C14.3573 1.008 14.4506 1 14.5573 1C14.632 1 14.7066 1.008 14.7813 1.024C14.8613 1.03467 14.9333 1.06667 14.9973 1.12C15.0613 1.168 15.112 1.24 15.1493 1.336C15.192 1.432 15.2133 1.56 15.2133 1.72C15.2133 1.88533 15.192 2.016 15.1493 2.112C15.1066 2.208 15.0506 2.28 14.9813 2.328C14.9173 2.376 14.8453 2.408 14.7653 2.424C14.6906 2.43467 14.616 2.44 14.5413 2.44C14.4453 2.44 14.3573 2.432 14.2773 2.416C14.2026 2.39467 14.1146 2.37067 14.0133 2.344C13.928 2.328 13.88 2.36533 13.8693 2.456ZM18.9271 2.456C18.9165 2.68533 18.9031 2.904 18.8871 3.112C18.8765 3.32 18.8711 3.536 18.8711 3.76V4.24C18.8711 4.41067 18.8791 4.57867 18.8951 4.744C18.9111 4.904 18.9298 5.06933 18.9511 5.24C18.9725 5.40533 18.9911 5.57867 19.0071 5.76C19.0231 5.94133 19.0311 6.136 19.0311 6.344C19.0311 6.41867 19.0205 6.496 18.9991 6.576C18.9778 6.65067 18.9351 6.72 18.8711 6.784C18.8125 6.848 18.7298 6.90133 18.6231 6.944C18.5218 6.98133 18.3911 7 18.2311 7C18.0658 7 17.9298 6.97867 17.8231 6.936C17.7218 6.89333 17.6418 6.84 17.5831 6.776C17.5245 6.70667 17.4845 6.63467 17.4631 6.56C17.4418 6.48 17.4311 6.40267 17.4311 6.328C17.4311 6.14133 17.4391 5.96 17.4551 5.784C17.4711 5.608 17.4898 5.43467 17.5111 5.264C17.5325 5.088 17.5511 4.91733 17.5671 4.752C17.5831 4.58133 17.5911 4.41067 17.5911 4.24V3.76C17.5911 3.54133 17.5831 3.32533 17.5671 3.112C17.5565 2.89867 17.5458 2.68 17.5351 2.456C17.5245 2.36533 17.4765 2.328 17.3911 2.344C17.2898 2.37067 17.1991 2.39467 17.1191 2.416C17.0445 2.432 16.9591 2.44 16.8631 2.44C16.7885 2.44 16.7111 2.43467 16.6311 2.424C16.5565 2.408 16.4845 2.376 16.4151 2.328C16.3511 2.28 16.2978 2.208 16.2551 2.112C16.2125 2.016 16.1911 1.88533 16.1911 1.72C16.1911 1.56 16.2098 1.432 16.2471 1.336C16.2898 1.24 16.3431 1.168 16.4071 1.12C16.4711 1.06667 16.5405 1.03467 16.6151 1.024C16.6951 1.008 16.7725 1 16.8471 1C16.9538 1 17.0445 1.008 17.1191 1.024C17.1991 1.03467 17.2791 1.048 17.3591 1.064C17.4445 1.07467 17.5405 1.088 17.6471 1.104C17.7591 1.11467 17.9005 1.12 18.0711 1.12H18.3911C18.5618 1.12 18.7005 1.11467 18.8071 1.104C18.9191 1.088 19.0151 1.07467 19.0951 1.064C19.1805 1.048 19.2605 1.03467 19.3351 1.024C19.4151 1.008 19.5085 1 19.6151 1C19.6898 1 19.7645 1.008 19.8391 1.024C19.9191 1.03467 19.9911 1.06667 20.0551 1.12C20.1191 1.168 20.1698 1.24 20.2071 1.336C20.2498 1.432 20.2711 1.56 20.2711 1.72C20.2711 1.88533 20.2498 2.016 20.2071 2.112C20.1645 2.208 20.1085 2.28 20.0391 2.328C19.9751 2.376 19.9031 2.408 19.8231 2.424C19.7485 2.43467 19.6738 2.44 19.5991 2.44C19.5031 2.44 19.4151 2.432 19.3351 2.416C19.2605 2.39467 19.1725 2.37067 19.0711 2.344C18.9858 2.328 18.9378 2.36533 18.9271 2.456ZM23.0649 5.552C23.0969 5.55733 23.1316 5.56 23.1689 5.56C23.2063 5.56 23.2463 5.56 23.2889 5.56C23.4596 5.56 23.5956 5.552 23.6969 5.536C23.7983 5.52 23.8836 5.50133 23.9529 5.48C24.0276 5.45867 24.0996 5.44 24.1689 5.424C24.2383 5.408 24.3263 5.4 24.4329 5.4C24.5076 5.4 24.5823 5.41067 24.6569 5.432C24.7369 5.45333 24.8089 5.496 24.8729 5.56C24.9369 5.61867 24.9876 5.70133 25.0249 5.808C25.0676 5.90933 25.0889 6.04 25.0889 6.2C25.0889 6.36533 25.0676 6.50133 25.0249 6.608C24.9823 6.70933 24.9263 6.78933 24.8569 6.848C24.7929 6.90667 24.7209 6.94667 24.6409 6.968C24.5663 6.98933 24.4916 7 24.4169 7C24.3316 7 24.2569 6.992 24.1929 6.976C24.1289 6.96 24.0569 6.94133 23.9769 6.92C23.9023 6.89867 23.8116 6.88 23.7049 6.864C23.5983 6.848 23.4596 6.84 23.2889 6.84C23.1289 6.84 22.9983 6.848 22.8969 6.864C22.7956 6.87467 22.7076 6.89067 22.6329 6.912C22.5156 6.97067 22.3583 7 22.1609 7C21.9369 7 21.7476 6.94933 21.5929 6.848C21.4383 6.74133 21.3609 6.568 21.3609 6.328C21.3609 6.14133 21.3689 5.96 21.3849 5.784C21.4009 5.608 21.4196 5.43467 21.4409 5.264C21.4623 5.088 21.4809 4.91733 21.4969 4.752C21.5129 4.58133 21.5209 4.41067 21.5209 4.24V3.76C21.5209 3.58933 21.5129 3.42133 21.4969 3.256C21.4809 3.08533 21.4623 2.91467 21.4409 2.744C21.4196 2.568 21.4009 2.392 21.3849 2.216C21.3689 2.04 21.3609 1.85867 21.3609 1.672C21.3609 1.608 21.3689 1.54133 21.3849 1.472C21.4009 1.39733 21.4303 1.33067 21.4729 1.272C21.5209 1.21333 21.5823 1.16 21.6569 1.112C21.7369 1.064 21.8383 1.032 21.9609 1.016C21.9929 1.00533 22.0249 1 22.0569 1C22.0943 1 22.1289 1 22.1609 1C22.3209 1 22.4569 1.02133 22.5689 1.064C22.6489 1.09067 22.7396 1.11467 22.8409 1.136C22.9476 1.152 23.1023 1.16 23.3049 1.16C23.4756 1.16 23.6116 1.152 23.7129 1.136C23.8143 1.12 23.8996 1.10133 23.9689 1.08C24.0436 1.05867 24.1156 1.04 24.1849 1.024C24.2543 1.008 24.3423 1 24.4489 1C24.5236 1 24.5983 1.008 24.6729 1.024C24.7529 1.03467 24.8249 1.06667 24.8889 1.12C24.9529 1.168 25.0036 1.24 25.0409 1.336C25.0836 1.432 25.1049 1.56 25.1049 1.72C25.1049 1.88533 25.0836 2.016 25.0409 2.112C24.9983 2.208 24.9423 2.28 24.8729 2.328C24.8089 2.376 24.7369 2.408 24.6569 2.424C24.5823 2.43467 24.5076 2.44 24.4329 2.44C24.3476 2.44 24.2729 2.432 24.2089 2.416C24.1449 2.4 24.0729 2.38133 23.9929 2.36C23.9183 2.33867 23.8276 2.32 23.7209 2.304C23.6143 2.288 23.4756 2.28 23.3049 2.28C23.2623 2.28 23.2223 2.28267 23.1849 2.288C23.1476 2.288 23.1129 2.288 23.0809 2.288C22.9796 2.29867 22.9236 2.352 22.9129 2.448C22.9023 2.57067 22.8889 2.69067 22.8729 2.808C22.8623 2.92533 22.8516 3.04267 22.8409 3.16C22.8303 3.26667 22.8756 3.32 22.9769 3.32H23.0649C23.2356 3.32 23.3716 3.312 23.4729 3.296C23.5743 3.28 23.6596 3.26133 23.7289 3.24C23.8036 3.21867 23.8756 3.2 23.9449 3.184C24.0143 3.168 24.1023 3.16 24.2089 3.16C24.2836 3.16 24.3583 3.17067 24.4329 3.192C24.5129 3.208 24.5849 3.24267 24.6489 3.296C24.7129 3.34933 24.7636 3.42667 24.8009 3.528C24.8436 3.62933 24.8649 3.76 24.8649 3.92C24.8649 4.08533 24.8436 4.21867 24.8009 4.32C24.7583 4.416 24.7023 4.49067 24.6329 4.544C24.5689 4.59733 24.4969 4.63467 24.4169 4.656C24.3423 4.672 24.2676 4.68 24.1929 4.68C24.1076 4.68 24.0329 4.672 23.9689 4.656C23.9049 4.64 23.8329 4.62133 23.7529 4.6C23.6783 4.57867 23.5876 4.56 23.4809 4.544C23.3743 4.528 23.2356 4.52 23.0649 4.52H22.9609C22.9183 4.52 22.8809 4.536 22.8489 4.568C22.8223 4.59467 22.8116 4.632 22.8169 4.68C22.8276 4.79733 22.8383 4.91467 22.8489 5.032C22.8649 5.144 22.8809 5.26133 22.8969 5.384C22.9076 5.48533 22.9636 5.54133 23.0649 5.552ZM27.7583 4.912C27.785 5.136 27.809 5.36267 27.8303 5.592C27.857 5.816 27.8703 6.06667 27.8703 6.344C27.8703 6.41867 27.8596 6.496 27.8383 6.576C27.817 6.65067 27.7743 6.72 27.7103 6.784C27.6516 6.848 27.569 6.90133 27.4623 6.944C27.361 6.98133 27.2303 7 27.0703 7C26.905 7 26.769 6.97867 26.6623 6.936C26.561 6.89333 26.481 6.84 26.4223 6.776C26.3636 6.70667 26.3236 6.63467 26.3023 6.56C26.281 6.48 26.2703 6.40267 26.2703 6.328C26.2703 6.14133 26.2783 5.96 26.2943 5.784C26.3103 5.608 26.329 5.43467 26.3503 5.264C26.3716 5.088 26.3903 4.91733 26.4063 4.752C26.4223 4.58133 26.4303 4.41067 26.4303 4.24V3.76C26.4303 3.58933 26.4223 3.42133 26.4063 3.256C26.3903 3.08533 26.3716 2.91467 26.3503 2.744C26.329 2.568 26.3103 2.392 26.2943 2.216C26.2783 2.04 26.2703 1.85867 26.2703 1.672C26.2703 1.59733 26.281 1.52267 26.3023 1.448C26.3236 1.368 26.3636 1.296 26.4223 1.232C26.4863 1.16267 26.569 1.10667 26.6703 1.064C26.777 1.02133 26.913 1 27.0783 1H28.1183C28.9343 1 29.5583 1.14933 29.9903 1.448C30.4223 1.74133 30.6383 2.21867 30.6383 2.88C30.6383 3.26933 30.545 3.59733 30.3583 3.864C30.177 4.12533 29.9263 4.33333 29.6063 4.488C29.5263 4.53067 29.5156 4.58133 29.5743 4.64C29.7396 4.81067 29.9103 4.98133 30.0863 5.152C30.2676 5.32267 30.4516 5.52267 30.6383 5.752C30.6863 5.81067 30.7236 5.87733 30.7503 5.952C30.7823 6.02667 30.7956 6.10933 30.7903 6.2C30.785 6.28533 30.7556 6.37867 30.7023 6.48C30.649 6.576 30.5583 6.672 30.4303 6.768C30.3023 6.86933 30.1823 6.936 30.0703 6.968C29.9636 7 29.865 7.01067 29.7743 7C29.689 6.984 29.6143 6.952 29.5503 6.904C29.4863 6.856 29.4303 6.80267 29.3823 6.744C29.265 6.6 29.1556 6.45333 29.0543 6.304C28.9583 6.15467 28.865 6.008 28.7743 5.864C28.6836 5.72 28.5903 5.57867 28.4943 5.44C28.4036 5.30133 28.305 5.16533 28.1983 5.032L28.0783 4.88C28.025 4.816 27.9556 4.784 27.8703 4.784C27.785 4.784 27.7476 4.82667 27.7583 4.912ZM28.1183 3.68C28.529 3.68 28.8196 3.60267 28.9903 3.448C29.161 3.288 29.2463 3.096 29.2463 2.872C29.2463 2.76 29.2303 2.65867 29.1983 2.568C29.1663 2.47733 29.1076 2.4 29.0223 2.336C28.937 2.272 28.8196 2.22133 28.6703 2.184C28.5263 2.14667 28.3423 2.128 28.1183 2.128H27.9903C27.905 2.128 27.857 2.17333 27.8463 2.264C27.825 2.49333 27.801 2.712 27.7743 2.92C27.7476 3.12267 27.729 3.33067 27.7183 3.544C27.7183 3.63467 27.761 3.68 27.8463 3.68H28.1183ZM33.3909 4.512C33.2683 4.29333 33.1403 4.088 33.0069 3.896C32.8789 3.704 32.7456 3.512 32.6069 3.32C32.4736 3.12267 32.3323 2.92 32.1829 2.712C32.0336 2.504 31.8763 2.27467 31.7109 2.024C31.6683 1.96 31.6389 1.88533 31.6229 1.8C31.6123 1.71467 31.6229 1.62933 31.6549 1.544C31.6869 1.45333 31.7456 1.36533 31.8309 1.28C31.9163 1.19467 32.0336 1.12 32.1829 1.056C32.3323 0.992 32.4629 0.96 32.5749 0.96C32.6869 0.96 32.7829 0.981333 32.8629 1.024C32.9429 1.06133 33.0069 1.11467 33.0549 1.184C33.1083 1.248 33.1509 1.31733 33.1829 1.392C33.2949 1.65333 33.3883 1.87733 33.4629 2.064C33.5376 2.24533 33.6043 2.41067 33.6629 2.56C33.7269 2.704 33.7883 2.84 33.8469 2.968C33.9056 3.096 33.9749 3.23733 34.0549 3.392C34.0976 3.46667 34.1403 3.46667 34.1829 3.392C34.2629 3.23733 34.3323 3.096 34.3909 2.968C34.4496 2.84 34.5083 2.704 34.5669 2.56C34.6309 2.41067 34.7003 2.24533 34.7749 2.064C34.8496 1.87733 34.9429 1.65333 35.0549 1.392C35.0869 1.31733 35.1269 1.248 35.1749 1.184C35.2283 1.11467 35.2949 1.06133 35.3749 1.024C35.4549 0.981333 35.5509 0.96 35.6629 0.96C35.7749 0.96 35.9056 0.992 36.0549 1.056C36.2096 1.12 36.3269 1.19467 36.4069 1.28C36.4923 1.36533 36.5509 1.45333 36.5829 1.544C36.6149 1.62933 36.6229 1.71467 36.6069 1.8C36.5963 1.88533 36.5696 1.96 36.5269 2.024C36.3616 2.27467 36.2043 2.50667 36.0549 2.72C35.9056 2.928 35.7616 3.13067 35.6229 3.328C35.4843 3.52 35.3483 3.71467 35.2149 3.912C35.0869 4.104 34.9589 4.312 34.8309 4.536C34.8096 4.57333 34.7936 4.616 34.7829 4.664C34.7776 4.70667 34.7776 4.74933 34.7829 4.792C34.8096 5.032 34.8363 5.27467 34.8629 5.52C34.8949 5.76533 34.9109 6.04 34.9109 6.344C34.9109 6.41867 34.9003 6.496 34.8789 6.576C34.8576 6.65067 34.8149 6.72 34.7509 6.784C34.6923 6.848 34.6096 6.90133 34.5029 6.944C34.4016 6.98133 34.2709 7 34.1109 7C33.9456 7 33.8096 6.97867 33.7029 6.936C33.6016 6.89333 33.5216 6.84 33.4629 6.776C33.4043 6.70667 33.3643 6.63467 33.3429 6.56C33.3216 6.48 33.3109 6.40267 33.3109 6.328C33.3109 6.04533 33.3269 5.77867 33.3589 5.528C33.3909 5.27733 33.4203 5.024 33.4469 4.768C33.4523 4.72533 33.4496 4.68267 33.4389 4.64C33.4283 4.592 33.4123 4.54933 33.3909 4.512ZM0.36 12.76C0.36 12.5893 0.352 12.4213 0.336 12.256C0.32 12.0853 0.301333 11.9147 0.28 11.744C0.258667 11.568 0.24 11.392 0.224 11.216C0.208 11.04 0.2 10.8587 0.2 10.672C0.2 10.5493 0.221333 10.4453 0.264 10.36C0.306667 10.2747 0.365333 10.2053 0.44 10.152C0.514667 10.0987 0.602667 10.0613 0.704 10.04C0.805333 10.0133 0.912 10 1.024 10C1.17867 10 1.30667 10.0213 1.408 10.064C1.50933 10.1013 1.58933 10.152 1.648 10.216C1.70667 10.28 1.74667 10.352 1.768 10.432C1.78933 10.5067 1.8 10.5813 1.8 10.656C1.8 10.864 1.792 11.0587 1.776 11.24C1.76 11.4213 1.74133 11.5973 1.72 11.768C1.69867 11.9333 1.68 12.0987 1.664 12.264C1.648 12.424 1.64 12.5893 1.64 12.76V13.24C1.64 13.4107 1.648 13.5787 1.664 13.744C1.68 13.904 1.69867 14.0693 1.72 14.24C1.74133 14.4053 1.76 14.5787 1.776 14.76C1.792 14.9413 1.8 15.136 1.8 15.344C1.8 15.4187 1.78933 15.496 1.768 15.576C1.74667 15.6507 1.70667 15.72 1.648 15.784C1.58933 15.848 1.50933 15.9013 1.408 15.944C1.30667 15.9813 1.17867 16 1.024 16C0.794667 16 0.6 15.9493 0.44 15.848C0.28 15.7467 0.2 15.5733 0.2 15.328C0.2 15.1413 0.208 14.96 0.224 14.784C0.24 14.608 0.258667 14.4347 0.28 14.264C0.301333 14.088 0.32 13.9173 0.336 13.752C0.352 13.5813 0.36 13.4107 0.36 13.24V12.76ZM5.888 15.704C5.85067 15.6507 5.82933 15.6 5.824 15.552L4.432 12.64C4.41067 12.5973 4.392 12.5787 4.376 12.584C4.36533 12.584 4.36 12.608 4.36 12.656V12.76V13C4.36 13.1707 4.37067 13.352 4.392 13.544C4.41867 13.7307 4.448 13.9227 4.48 14.12C4.512 14.3173 4.53867 14.52 4.56 14.728C4.58667 14.9307 4.6 15.136 4.6 15.344C4.6 15.4187 4.58667 15.496 4.56 15.576C4.53333 15.6507 4.488 15.72 4.424 15.784C4.36 15.848 4.272 15.9013 4.16 15.944C4.05333 15.9813 3.92 16 3.76 16C3.59467 16 3.46133 15.9787 3.36 15.936C3.264 15.8933 3.18933 15.84 3.136 15.776C3.08267 15.7067 3.04533 15.6347 3.024 15.56C3.008 15.48 3 15.4027 3 15.328C3 15.1413 3.008 14.96 3.024 14.784C3.04 14.608 3.05867 14.4347 3.08 14.264C3.10133 14.088 3.12 13.9173 3.136 13.752C3.152 13.5813 3.16 13.4107 3.16 13.24V12.76C3.16 12.5893 3.152 12.4213 3.136 12.256C3.12 12.0853 3.10133 11.9147 3.08 11.744C3.05867 11.568 3.04 11.392 3.024 11.216C3.008 11.04 3 10.8587 3 10.672C3 10.5973 3.008 10.5227 3.024 10.448C3.04533 10.368 3.08267 10.296 3.136 10.232C3.18933 10.1627 3.264 10.1067 3.36 10.064C3.46133 10.0213 3.59467 10 3.76 10H4.096C4.20267 10 4.30133 10.0293 4.392 10.088C4.48267 10.1413 4.54933 10.2133 4.592 10.304L5.888 12.944C5.90933 12.9867 5.92533 13.008 5.936 13.008C5.952 13.0027 5.96 12.976 5.96 12.928V12.76C5.96 12.5893 5.94667 12.4213 5.92 12.256C5.89867 12.0853 5.872 11.9147 5.84 11.744C5.808 11.568 5.77867 11.392 5.752 11.216C5.73067 11.04 5.72 10.8587 5.72 10.672C5.72 10.5973 5.73333 10.5227 5.76 10.448C5.78667 10.368 5.832 10.296 5.896 10.232C5.96 10.1627 6.04533 10.1067 6.152 10.064C6.25867 10.0213 6.39467 10 6.56 10C6.72 10 6.85067 10.0213 6.952 10.064C7.05333 10.1013 7.13067 10.152 7.184 10.216C7.23733 10.28 7.272 10.352 7.288 10.432C7.30933 10.5067 7.32 10.5813 7.32 10.656C7.32 10.864 7.312 11.0587 7.296 11.24C7.28 11.4213 7.26133 11.5973 7.24 11.768C7.21867 11.9333 7.2 12.0987 7.184 12.264C7.168 12.424 7.16 12.5893 7.16 12.76V13.24C7.16 13.4107 7.168 13.5787 7.184 13.744C7.2 13.904 7.21867 14.0693 7.24 14.24C7.26133 14.4053 7.28 14.5787 7.296 14.76C7.312 14.9413 7.32 15.136 7.32 15.344C7.32 15.4133 7.312 15.4853 7.296 15.56C7.28 15.6347 7.24533 15.704 7.192 15.768C7.144 15.832 7.07467 15.8853 6.984 15.928C6.89867 15.9707 6.784 15.9947 6.64 16H6.368C6.27733 16 6.18933 15.9733 6.104 15.92C6.01867 15.8667 5.94667 15.7947 5.888 15.704ZM8.67875 12.76C8.67875 12.5893 8.67075 12.4213 8.65475 12.256C8.63875 12.0853 8.62008 11.9147 8.59875 11.744C8.57742 11.568 8.55875 11.392 8.54275 11.216C8.52675 11.04 8.51875 10.8587 8.51875 10.672C8.51875 10.544 8.54008 10.4373 8.58275 10.352C8.63075 10.2667 8.69208 10.1973 8.76675 10.144C8.84675 10.0907 8.93742 10.0533 9.03875 10.032C9.14542 10.0107 9.25475 10 9.36675 10H10.4068C10.8174 10 11.1774 10.08 11.4868 10.24C11.8014 10.4 12.0654 10.616 12.2788 10.888C12.4921 11.16 12.6521 11.4773 12.7588 11.84C12.8708 12.2027 12.9268 12.5893 12.9268 13C12.9268 13.96 12.7241 14.7013 12.3188 15.224C11.9134 15.7413 11.2761 16 10.4068 16H9.35875C9.24675 16 9.13742 15.9893 9.03075 15.968C8.92942 15.9467 8.84142 15.9093 8.76675 15.856C8.69208 15.8027 8.63075 15.7333 8.58275 15.648C8.54008 15.5627 8.51875 15.456 8.51875 15.328C8.51875 15.1413 8.52675 14.96 8.54275 14.784C8.55875 14.608 8.57742 14.4347 8.59875 14.264C8.62008 14.088 8.63875 13.9173 8.65475 13.752C8.67075 13.5813 8.67875 13.4107 8.67875 13.24V12.76ZM10.4068 14.704C10.8174 14.704 11.1081 14.5547 11.2788 14.256C11.4494 13.9573 11.5348 13.536 11.5348 12.992C11.5348 12.72 11.5188 12.472 11.4868 12.248C11.4548 12.0187 11.3961 11.8213 11.3108 11.656C11.2254 11.4907 11.1081 11.3627 10.9588 11.272C10.8148 11.176 10.6308 11.128 10.4068 11.128H10.2548C10.1588 11.128 10.1054 11.1787 10.0948 11.28C10.0681 11.5467 10.0388 11.7973 10.0068 12.032C9.97475 12.2613 9.95875 12.504 9.95875 12.76V13.24C9.95875 13.464 9.96942 13.6827 9.99075 13.896C10.0174 14.104 10.0441 14.3227 10.0708 14.552C10.0814 14.6533 10.1374 14.704 10.2388 14.704H10.4068ZM14.2444 12.76C14.2444 12.5893 14.2364 12.4213 14.2204 12.256C14.2044 12.0853 14.1857 11.9147 14.1644 11.744C14.143 11.568 14.1244 11.392 14.1084 11.216C14.0924 11.04 14.0844 10.8587 14.0844 10.672C14.0844 10.5493 14.1057 10.4453 14.1484 10.36C14.191 10.2747 14.2497 10.2053 14.3244 10.152C14.399 10.0987 14.487 10.0613 14.5884 10.04C14.6897 10.0133 14.7964 10 14.9084 10C15.063 10 15.191 10.0213 15.2924 10.064C15.3937 10.1013 15.4737 10.152 15.5324 10.216C15.591 10.28 15.631 10.352 15.6524 10.432C15.6737 10.5067 15.6844 10.5813 15.6844 10.656C15.6844 10.864 15.6764 11.0587 15.6604 11.24C15.6444 11.4213 15.6257 11.5973 15.6044 11.768C15.583 11.9333 15.5644 12.0987 15.5484 12.264C15.5324 12.424 15.5244 12.5893 15.5244 12.76V13.24C15.5244 13.4107 15.5324 13.5787 15.5484 13.744C15.5644 13.904 15.583 14.0693 15.6044 14.24C15.6257 14.4053 15.6444 14.5787 15.6604 14.76C15.6764 14.9413 15.6844 15.136 15.6844 15.344C15.6844 15.4187 15.6737 15.496 15.6524 15.576C15.631 15.6507 15.591 15.72 15.5324 15.784C15.4737 15.848 15.3937 15.9013 15.2924 15.944C15.191 15.9813 15.063 16 14.9084 16C14.679 16 14.4844 15.9493 14.3244 15.848C14.1644 15.7467 14.0844 15.5733 14.0844 15.328C14.0844 15.1413 14.0924 14.96 14.1084 14.784C14.1244 14.608 14.143 14.4347 14.1644 14.264C14.1857 14.088 14.2044 13.9173 14.2204 13.752C14.2364 13.5813 14.2444 13.4107 14.2444 13.24V12.76ZM20.0124 14.456C20.087 14.3653 20.1697 14.3013 20.2604 14.264C20.351 14.2213 20.4444 14.2 20.5404 14.2C20.6684 14.2 20.791 14.2347 20.9084 14.304C21.031 14.368 21.1244 14.456 21.1884 14.568C21.2524 14.68 21.279 14.808 21.2684 14.952C21.2577 15.0907 21.1884 15.2347 21.0604 15.384C20.8577 15.6187 20.6177 15.7947 20.3404 15.912C20.0684 16.024 19.7324 16.08 19.3324 16.08C18.879 16.08 18.495 16.0107 18.1804 15.872C17.871 15.728 17.6204 15.5253 17.4284 15.264C17.2364 14.9973 17.0977 14.6747 17.0124 14.296C16.927 13.912 16.8844 13.48 16.8844 13C16.8844 12.5893 16.9297 12.2 17.0204 11.832C17.111 11.4587 17.255 11.1307 17.4524 10.848C17.6497 10.5653 17.903 10.3413 18.2124 10.176C18.5217 10.0053 18.895 9.92 19.3324 9.92C19.5244 9.92 19.6897 9.93067 19.8284 9.952C19.967 9.97333 20.0924 10.0027 20.2044 10.04C20.3164 10.0773 20.4204 10.1227 20.5164 10.176C20.6124 10.224 20.7084 10.28 20.8044 10.344C20.9697 10.4453 21.0737 10.5653 21.1164 10.704C21.159 10.8373 21.1617 10.9653 21.1244 11.088C21.0924 11.2107 21.0257 11.3147 20.9244 11.4C20.8284 11.4853 20.719 11.528 20.5964 11.528C20.511 11.528 20.4177 11.4987 20.3164 11.44C20.167 11.3387 20.0204 11.248 19.8764 11.168C19.7324 11.088 19.551 11.048 19.3324 11.048C19.1084 11.048 18.927 11.0987 18.7884 11.2C18.6497 11.3013 18.543 11.44 18.4684 11.616C18.3937 11.792 18.343 11.9973 18.3164 12.232C18.295 12.4667 18.2844 12.72 18.2844 12.992C18.2844 13.264 18.3004 13.512 18.3324 13.736C18.3644 13.9547 18.4204 14.1413 18.5004 14.296C18.5804 14.4507 18.687 14.5707 18.8204 14.656C18.9537 14.7413 19.1244 14.784 19.3324 14.784C19.503 14.784 19.6364 14.7573 19.7324 14.704C19.8284 14.6453 19.9217 14.5627 20.0124 14.456ZM24.1944 14.6C24.157 14.7387 24.1117 14.8853 24.0584 15.04C24.0104 15.1893 23.9437 15.3653 23.8584 15.568C23.8157 15.6747 23.7464 15.7733 23.6504 15.864C23.5597 15.9547 23.4317 16 23.2664 16C23.1544 16 23.0184 15.968 22.8584 15.904C22.709 15.84 22.5944 15.768 22.5144 15.688C22.4344 15.6027 22.3784 15.5173 22.3464 15.432C22.3197 15.3413 22.3117 15.2533 22.3224 15.168C22.333 15.0827 22.3544 15.0053 22.3864 14.936C22.7064 14.1893 22.9944 13.4427 23.2504 12.696C23.5064 11.9493 23.765 11.184 24.0264 10.4C24.069 10.2773 24.165 10.176 24.3144 10.096C24.4637 10.016 24.6504 9.976 24.8744 9.976C25.0984 9.976 25.285 10.016 25.4344 10.096C25.5837 10.176 25.6797 10.2773 25.7224 10.4C25.989 11.184 26.2477 11.9493 26.4984 12.696C26.7544 13.4427 27.0424 14.1893 27.3624 14.936C27.3944 15.0053 27.4157 15.0827 27.4264 15.168C27.437 15.2533 27.4264 15.3413 27.3944 15.432C27.3677 15.5173 27.3144 15.6027 27.2344 15.688C27.1597 15.768 27.045 15.84 26.8904 15.904C26.7304 15.968 26.5944 16 26.4824 16C26.317 16 26.1864 15.9547 26.0904 15.864C25.9997 15.7733 25.933 15.6747 25.8904 15.568C25.805 15.3653 25.7357 15.1867 25.6824 15.032C25.6344 14.8773 25.5917 14.7307 25.5544 14.592C25.5277 14.4907 25.4637 14.4347 25.3624 14.424C25.3144 14.4187 25.2637 14.416 25.2104 14.416C25.1624 14.416 25.109 14.416 25.0504 14.416H24.7304C24.661 14.416 24.597 14.4187 24.5384 14.424C24.485 14.424 24.4344 14.4267 24.3864 14.432C24.285 14.4427 24.221 14.4987 24.1944 14.6ZM24.8264 11.768C24.805 11.8427 24.781 11.936 24.7544 12.048C24.7277 12.16 24.701 12.28 24.6744 12.408C24.6477 12.536 24.621 12.6667 24.5944 12.8C24.573 12.9333 24.549 13.0613 24.5224 13.184C24.5064 13.2907 24.5464 13.344 24.6424 13.344H24.7304H25.0504H25.1064C25.2024 13.344 25.2424 13.2933 25.2264 13.192C25.205 13.0693 25.181 12.9413 25.1544 12.808C25.1277 12.6747 25.101 12.544 25.0744 12.416C25.0477 12.288 25.021 12.168 24.9944 12.056C24.9677 11.9387 24.9437 11.8427 24.9224 11.768C24.9117 11.7253 24.8957 11.704 24.8744 11.704C24.853 11.704 24.837 11.7253 24.8264 11.768ZM30.5771 11.456C30.5665 11.6853 30.5531 11.904 30.5371 12.112C30.5265 12.32 30.5211 12.536 30.5211 12.76V13.24C30.5211 13.4107 30.5291 13.5787 30.5451 13.744C30.5611 13.904 30.5798 14.0693 30.6011 14.24C30.6225 14.4053 30.6411 14.5787 30.6571 14.76C30.6731 14.9413 30.6811 15.136 30.6811 15.344C30.6811 15.4187 30.6705 15.496 30.6491 15.576C30.6278 15.6507 30.5851 15.72 30.5211 15.784C30.4625 15.848 30.3798 15.9013 30.2731 15.944C30.1718 15.9813 30.0411 16 29.8811 16C29.7158 16 29.5798 15.9787 29.4731 15.936C29.3718 15.8933 29.2918 15.84 29.2331 15.776C29.1745 15.7067 29.1345 15.6347 29.1131 15.56C29.0918 15.48 29.0811 15.4027 29.0811 15.328C29.0811 15.1413 29.0891 14.96 29.1051 14.784C29.1211 14.608 29.1398 14.4347 29.1611 14.264C29.1825 14.088 29.2011 13.9173 29.2171 13.752C29.2331 13.5813 29.2411 13.4107 29.2411 13.24V12.76C29.2411 12.5413 29.2331 12.3253 29.2171 12.112C29.2065 11.8987 29.1958 11.68 29.1851 11.456C29.1745 11.3653 29.1265 11.328 29.0411 11.344C28.9398 11.3707 28.8491 11.3947 28.7691 11.416C28.6945 11.432 28.6091 11.44 28.5131 11.44C28.4385 11.44 28.3611 11.4347 28.2811 11.424C28.2065 11.408 28.1345 11.376 28.0651 11.328C28.0011 11.28 27.9478 11.208 27.9051 11.112C27.8625 11.016 27.8411 10.8853 27.8411 10.72C27.8411 10.56 27.8598 10.432 27.8971 10.336C27.9398 10.24 27.9931 10.168 28.0571 10.12C28.1211 10.0667 28.1905 10.0347 28.2651 10.024C28.3451 10.008 28.4225 10 28.4971 10C28.6038 10 28.6945 10.008 28.7691 10.024C28.8491 10.0347 28.9291 10.048 29.0091 10.064C29.0945 10.0747 29.1905 10.088 29.2971 10.104C29.4091 10.1147 29.5505 10.12 29.7211 10.12H30.0411C30.2118 10.12 30.3505 10.1147 30.4571 10.104C30.5691 10.088 30.6651 10.0747 30.7451 10.064C30.8305 10.048 30.9105 10.0347 30.9851 10.024C31.0651 10.008 31.1585 10 31.2651 10C31.3398 10 31.4145 10.008 31.4891 10.024C31.5691 10.0347 31.6411 10.0667 31.7051 10.12C31.7691 10.168 31.8198 10.24 31.8571 10.336C31.8998 10.432 31.9211 10.56 31.9211 10.72C31.9211 10.8853 31.8998 11.016 31.8571 11.112C31.8145 11.208 31.7585 11.28 31.6891 11.328C31.6251 11.376 31.5531 11.408 31.4731 11.424C31.3985 11.4347 31.3238 11.44 31.2491 11.44C31.1531 11.44 31.0651 11.432 30.9851 11.416C30.9105 11.3947 30.8225 11.3707 30.7211 11.344C30.6358 11.328 30.5878 11.3653 30.5771 11.456ZM32.7209 13C32.7209 12.5893 32.7743 12.2 32.8809 11.832C32.9876 11.4587 33.1476 11.1307 33.3609 10.848C33.5743 10.5653 33.8383 10.3413 34.1529 10.176C34.4676 10.0053 34.8329 9.92 35.2489 9.92C35.6596 9.92 36.0196 10.0053 36.3289 10.176C36.6436 10.3413 36.9076 10.5653 37.1209 10.848C37.3343 11.1307 37.4943 11.4587 37.6009 11.832C37.7129 12.2 37.7689 12.5893 37.7689 13C37.7689 13.48 37.7183 13.912 37.6169 14.296C37.5209 14.6747 37.3689 14.9973 37.1609 15.264C36.9529 15.5253 36.6889 15.728 36.3689 15.872C36.0543 16.0107 35.6809 16.08 35.2489 16.08C34.8116 16.08 34.4329 16.0107 34.1129 15.872C33.7983 15.728 33.5369 15.5253 33.3289 15.264C33.1209 14.9973 32.9663 14.6747 32.8649 14.296C32.7689 13.912 32.7209 13.48 32.7209 13ZM34.1209 12.992C34.1209 13.264 34.1396 13.512 34.1769 13.736C34.2196 13.9547 34.2863 14.1413 34.3769 14.296C34.4676 14.4507 34.5823 14.5707 34.7209 14.656C34.8649 14.7413 35.0409 14.784 35.2489 14.784C35.4569 14.784 35.6303 14.7413 35.7689 14.656C35.9129 14.5707 36.0303 14.4507 36.1209 14.296C36.2116 14.1413 36.2756 13.9547 36.3129 13.736C36.3556 13.512 36.3769 13.264 36.3769 12.992C36.3769 12.72 36.3609 12.4667 36.3289 12.232C36.2969 11.9973 36.2383 11.792 36.1529 11.616C36.0676 11.44 35.9503 11.3013 35.8009 11.2C35.6569 11.0987 35.4729 11.048 35.2489 11.048C35.0249 11.048 34.8383 11.0987 34.6889 11.2C34.5449 11.3013 34.4303 11.44 34.3449 11.616C34.2596 11.792 34.2009 11.9973 34.1689 12.232C34.1369 12.4667 34.1209 12.72 34.1209 12.992ZM40.4161 13.912C40.4428 14.136 40.4668 14.3627 40.4881 14.592C40.5148 14.816 40.5281 15.0667 40.5281 15.344C40.5281 15.4187 40.5175 15.496 40.4961 15.576C40.4748 15.6507 40.4321 15.72 40.3681 15.784C40.3095 15.848 40.2268 15.9013 40.1201 15.944C40.0188 15.9813 39.8881 16 39.7281 16C39.5628 16 39.4268 15.9787 39.3201 15.936C39.2188 15.8933 39.1388 15.84 39.0801 15.776C39.0215 15.7067 38.9815 15.6347 38.9601 15.56C38.9388 15.48 38.9281 15.4027 38.9281 15.328C38.9281 15.1413 38.9361 14.96 38.9521 14.784C38.9681 14.608 38.9868 14.4347 39.0081 14.264C39.0295 14.088 39.0481 13.9173 39.0641 13.752C39.0801 13.5813 39.0881 13.4107 39.0881 13.24V12.76C39.0881 12.5893 39.0801 12.4213 39.0641 12.256C39.0481 12.0853 39.0295 11.9147 39.0081 11.744C38.9868 11.568 38.9681 11.392 38.9521 11.216C38.9361 11.04 38.9281 10.8587 38.9281 10.672C38.9281 10.5973 38.9388 10.5227 38.9601 10.448C38.9815 10.368 39.0215 10.296 39.0801 10.232C39.1441 10.1627 39.2268 10.1067 39.3281 10.064C39.4348 10.0213 39.5708 10 39.7361 10H40.7761C41.5921 10 42.2161 10.1493 42.6481 10.448C43.0801 10.7413 43.2961 11.2187 43.2961 11.88C43.2961 12.2693 43.2028 12.5973 43.0161 12.864C42.8348 13.1253 42.5841 13.3333 42.2641 13.488C42.1841 13.5307 42.1735 13.5813 42.2321 13.64C42.3975 13.8107 42.5681 13.9813 42.7441 14.152C42.9255 14.3227 43.1095 14.5227 43.2961 14.752C43.3441 14.8107 43.3815 14.8773 43.4081 14.952C43.4401 15.0267 43.4535 15.1093 43.4481 15.2C43.4428 15.2853 43.4135 15.3787 43.3601 15.48C43.3068 15.576 43.2161 15.672 43.0881 15.768C42.9601 15.8693 42.8401 15.936 42.7281 15.968C42.6215 16 42.5228 16.0107 42.4321 16C42.3468 15.984 42.2721 15.952 42.2081 15.904C42.1441 15.856 42.0881 15.8027 42.0401 15.744C41.9228 15.6 41.8135 15.4533 41.7121 15.304C41.6161 15.1547 41.5228 15.008 41.4321 14.864C41.3415 14.72 41.2481 14.5787 41.1521 14.44C41.0615 14.3013 40.9628 14.1653 40.8561 14.032L40.7361 13.88C40.6828 13.816 40.6135 13.784 40.5281 13.784C40.4428 13.784 40.4055 13.8267 40.4161 13.912ZM40.7761 12.68C41.1868 12.68 41.4775 12.6027 41.6481 12.448C41.8188 12.288 41.9041 12.096 41.9041 11.872C41.9041 11.76 41.8881 11.6587 41.8561 11.568C41.8241 11.4773 41.7655 11.4 41.6801 11.336C41.5948 11.272 41.4775 11.2213 41.3281 11.184C41.1841 11.1467 41.0001 11.128 40.7761 11.128H40.6481C40.5628 11.128 40.5148 11.1733 40.5041 11.264C40.4828 11.4933 40.4588 11.712 40.4321 11.92C40.4055 12.1227 40.3868 12.3307 40.3761 12.544C40.3761 12.6347 40.4188 12.68 40.5041 12.68H40.7761Z" fill="black"/>
</svg>
