<svg width="23" height="8" viewBox="0 0 23 8" fill="none" xmlns="http://www.w3.org/2000/svg">
<path fill-rule="evenodd" clip-rule="evenodd" d="M23 0H0V8H23V0ZM1.65553 3.256C1.67153 3.42133 1.67953 3.58933 1.67953 3.76V4.24C1.67953 4.41067 1.67153 4.58133 1.65553 4.752C1.63953 4.91733 1.62086 5.088 1.59953 5.264C1.5782 5.43467 1.55953 5.608 1.54353 5.784C1.52753 5.96 1.51953 6.14133 1.51953 6.328C1.51953 6.40267 1.5302 6.48 1.55153 6.56C1.57286 6.63467 1.61286 6.70667 1.67153 6.776C1.73553 6.84 1.8182 6.89333 1.91953 6.936C2.0262 6.97867 2.1622 7 2.32753 7H3.36753C3.7782 7 4.1382 6.968 4.44753 6.904C4.7622 6.84 5.0262 6.73867 5.23953 6.6C5.45287 6.456 5.61286 6.26933 5.71953 6.04C5.83153 5.81067 5.88753 5.53067 5.88753 5.2C5.88753 4.86933 5.8102 4.57333 5.65553 4.312C5.5062 4.05067 5.29553 3.83467 5.02353 3.664C5.2102 3.52533 5.35953 3.36267 5.47153 3.176C5.58886 2.98933 5.64753 2.784 5.64753 2.56C5.64753 2.288 5.58086 2.056 5.44753 1.864C5.31953 1.66667 5.14086 1.504 4.91153 1.376C4.6822 1.248 4.41286 1.15467 4.10353 1.096C3.79953 1.032 3.4742 1 3.12753 1H2.32753C2.1622 1 2.0262 1.02133 1.91953 1.064C1.8182 1.10667 1.73553 1.16267 1.67153 1.232C1.61286 1.296 1.57286 1.368 1.55153 1.448C1.5302 1.52267 1.51953 1.59733 1.51953 1.672C1.51953 1.85867 1.52753 2.04 1.54353 2.216C1.55953 2.392 1.5782 2.568 1.59953 2.744C1.62086 2.91467 1.63953 3.08533 1.65553 3.256ZM3.99953 3.088C3.8342 3.16267 3.54886 3.2 3.14353 3.2C3.0422 3.2 2.99686 3.14933 3.00753 3.048C3.0182 2.92533 3.03153 2.80267 3.04753 2.68C3.06886 2.552 3.08486 2.41867 3.09553 2.28C3.1062 2.17867 3.15953 2.128 3.25553 2.128C3.45286 2.13333 3.61553 2.14667 3.74353 2.168C3.87153 2.18933 3.97286 2.22133 4.04753 2.264C4.12753 2.30133 4.18086 2.352 4.20753 2.416C4.23953 2.47467 4.25553 2.54667 4.25553 2.632C4.25553 2.856 4.1702 3.008 3.99953 3.088ZM3.91953 5.656C3.77553 5.69333 3.59153 5.712 3.36753 5.712H3.23953C3.1382 5.712 3.0822 5.66133 3.07153 5.56C3.0502 5.37333 3.02886 5.192 3.00753 5.016C2.99153 4.83467 2.9782 4.65333 2.96753 4.472C2.95686 4.37067 3.00486 4.32 3.11153 4.32H3.36753C3.7782 4.32 4.06886 4.38133 4.23953 4.504C4.4102 4.62667 4.49553 4.78133 4.49553 4.968C4.49553 5.08 4.47953 5.18133 4.44753 5.272C4.41553 5.36267 4.35686 5.44 4.27153 5.504C4.1862 5.568 4.06886 5.61867 3.91953 5.656ZM8.67009 6.04C8.72343 5.88533 8.76876 5.73867 8.80609 5.6C8.83276 5.49867 8.89676 5.44267 8.99809 5.432C9.04609 5.42667 9.09676 5.424 9.15009 5.424C9.20876 5.41867 9.27276 5.416 9.34209 5.416H9.66209H9.82209C9.87543 5.416 9.92609 5.41867 9.97409 5.424C10.0754 5.43467 10.1394 5.49067 10.1661 5.592C10.2034 5.73067 10.2461 5.87733 10.2941 6.032C10.3474 6.18667 10.4168 6.36533 10.5021 6.568C10.5448 6.67467 10.6114 6.77333 10.7021 6.864C10.7981 6.95467 10.9288 7 11.0941 7C11.2061 7 11.3421 6.968 11.5021 6.904C11.6568 6.84 11.7714 6.768 11.8461 6.688C11.9261 6.60267 11.9794 6.51733 12.0061 6.432C12.0381 6.34133 12.0488 6.25333 12.0381 6.168C12.0274 6.08267 12.0061 6.00533 11.9741 5.936C11.6541 5.18933 11.3661 4.44267 11.1101 3.696C10.8594 2.94933 10.6008 2.184 10.3341 1.4C10.2914 1.27733 10.1954 1.176 10.0461 1.096C9.89676 1.016 9.71009 0.976 9.48609 0.976C9.26209 0.976 9.07543 1.016 8.92609 1.096C8.77676 1.176 8.68076 1.27733 8.63809 1.4C8.37676 2.184 8.11809 2.94933 7.86209 3.696C7.60609 4.44267 7.31809 5.18933 6.99809 5.936C6.96609 6.00533 6.94476 6.08267 6.93409 6.168C6.92343 6.25333 6.93143 6.34133 6.95809 6.432C6.99009 6.51733 7.04609 6.60267 7.12609 6.688C7.20609 6.768 7.32076 6.84 7.47009 6.904C7.63009 6.968 7.76609 7 7.87809 7C8.04343 7 8.17143 6.95467 8.26209 6.864C8.35809 6.77333 8.42743 6.67467 8.47009 6.568C8.55543 6.36533 8.62209 6.18933 8.67009 6.04ZM9.36609 3.048C9.39276 2.936 9.41676 2.84267 9.43809 2.768C9.44876 2.72533 9.46476 2.704 9.48609 2.704C9.50743 2.704 9.52343 2.72533 9.53409 2.768C9.55543 2.84267 9.57943 2.93867 9.60609 3.056C9.63276 3.168 9.65943 3.288 9.68609 3.416C9.71276 3.544 9.73943 3.67467 9.76609 3.808C9.79276 3.94133 9.81676 4.06933 9.83809 4.192C9.85409 4.29333 9.81409 4.344 9.71809 4.344H9.66209H9.34209H9.25409C9.15809 4.344 9.11809 4.29067 9.13409 4.184C9.16076 4.06133 9.18476 3.93333 9.20609 3.8C9.23276 3.66667 9.25943 3.536 9.28609 3.408C9.31276 3.28 9.33943 3.16 9.36609 3.048ZM15.1488 3.112C15.1648 2.904 15.1782 2.68533 15.1888 2.456C15.1995 2.36533 15.2475 2.328 15.3328 2.344C15.4342 2.37067 15.5222 2.39467 15.5968 2.416C15.6768 2.432 15.7648 2.44 15.8608 2.44C15.9355 2.44 16.0102 2.43467 16.0848 2.424C16.1648 2.408 16.2368 2.376 16.3008 2.328C16.3702 2.28 16.4262 2.208 16.4688 2.112C16.5115 2.016 16.5328 1.88533 16.5328 1.72C16.5328 1.56 16.5115 1.432 16.4688 1.336C16.4315 1.24 16.3808 1.168 16.3168 1.12C16.2528 1.06667 16.1808 1.03467 16.1008 1.024C16.0262 1.008 15.9515 1 15.8768 1C15.7702 1 15.6768 1.008 15.5968 1.024C15.5222 1.03467 15.4422 1.048 15.3568 1.064C15.2768 1.07467 15.1808 1.088 15.0688 1.104C14.9622 1.11467 14.8235 1.12 14.6528 1.12H14.3328C14.1622 1.12 14.0208 1.11467 13.9088 1.104C13.8022 1.088 13.7062 1.07467 13.6208 1.064C13.5408 1.048 13.4608 1.03467 13.3808 1.024C13.3062 1.008 13.2155 1 13.1088 1C13.0342 1 12.9568 1.008 12.8768 1.024C12.8022 1.03467 12.7328 1.06667 12.6688 1.12C12.6048 1.168 12.5515 1.24 12.5088 1.336C12.4715 1.432 12.4528 1.56 12.4528 1.72C12.4528 1.88533 12.4742 2.016 12.5168 2.112C12.5595 2.208 12.6128 2.28 12.6768 2.328C12.7462 2.376 12.8182 2.408 12.8928 2.424C12.9728 2.43467 13.0502 2.44 13.1248 2.44C13.2208 2.44 13.3062 2.432 13.3808 2.416C13.4608 2.39467 13.5515 2.37067 13.6528 2.344C13.7382 2.328 13.7862 2.36533 13.7968 2.456C13.8075 2.68 13.8182 2.89867 13.8288 3.112C13.8448 3.32533 13.8528 3.54133 13.8528 3.76V4.24C13.8528 4.41067 13.8448 4.58133 13.8288 4.752C13.8128 4.91733 13.7942 5.088 13.7728 5.264C13.7515 5.43467 13.7328 5.608 13.7168 5.784C13.7008 5.96 13.6928 6.14133 13.6928 6.328C13.6928 6.40267 13.7035 6.48 13.7248 6.56C13.7462 6.63467 13.7862 6.70667 13.8448 6.776C13.9035 6.84 13.9835 6.89333 14.0848 6.936C14.1915 6.97867 14.3275 7 14.4928 7C14.6528 7 14.7835 6.98133 14.8848 6.944C14.9915 6.90133 15.0742 6.848 15.1328 6.784C15.1968 6.72 15.2395 6.65067 15.2608 6.576C15.2822 6.496 15.2928 6.41867 15.2928 6.344C15.2928 6.136 15.2848 5.94133 15.2688 5.76C15.2528 5.57867 15.2342 5.40533 15.2128 5.24C15.1915 5.06933 15.1728 4.904 15.1568 4.744C15.1408 4.57867 15.1328 4.41067 15.1328 4.24V3.76C15.1328 3.536 15.1382 3.32 15.1488 3.112ZM20.2067 3.112C20.2227 2.904 20.236 2.68533 20.2467 2.456C20.2573 2.36533 20.3053 2.328 20.3907 2.344C20.492 2.37067 20.58 2.39467 20.6547 2.416C20.7347 2.432 20.8227 2.44 20.9187 2.44C20.9933 2.44 21.068 2.43467 21.1427 2.424C21.2227 2.408 21.2947 2.376 21.3587 2.328C21.428 2.28 21.484 2.208 21.5267 2.112C21.5693 2.016 21.5907 1.88533 21.5907 1.72C21.5907 1.56 21.5693 1.432 21.5267 1.336C21.4893 1.24 21.4387 1.168 21.3747 1.12C21.3107 1.06667 21.2387 1.03467 21.1587 1.024C21.084 1.008 21.0093 1 20.9347 1C20.828 1 20.7347 1.008 20.6547 1.024C20.58 1.03467 20.5 1.048 20.4147 1.064C20.3347 1.07467 20.2387 1.088 20.1267 1.104C20.02 1.11467 19.8813 1.12 19.7107 1.12H19.3907C19.22 1.12 19.0787 1.11467 18.9667 1.104C18.86 1.088 18.764 1.07467 18.6787 1.064C18.5987 1.048 18.5187 1.03467 18.4387 1.024C18.364 1.008 18.2733 1 18.1667 1C18.092 1 18.0147 1.008 17.9347 1.024C17.86 1.03467 17.7907 1.06667 17.7267 1.12C17.6627 1.168 17.6093 1.24 17.5667 1.336C17.5293 1.432 17.5107 1.56 17.5107 1.72C17.5107 1.88533 17.532 2.016 17.5747 2.112C17.6173 2.208 17.6707 2.28 17.7347 2.328C17.804 2.376 17.876 2.408 17.9507 2.424C18.0307 2.43467 18.108 2.44 18.1827 2.44C18.2787 2.44 18.364 2.432 18.4387 2.416C18.5187 2.39467 18.6093 2.37067 18.7107 2.344C18.796 2.328 18.844 2.36533 18.8547 2.456C18.8653 2.68 18.876 2.89867 18.8867 3.112C18.9027 3.32533 18.9107 3.54133 18.9107 3.76V4.24C18.9107 4.41067 18.9027 4.58133 18.8867 4.752C18.8707 4.91733 18.852 5.088 18.8307 5.264C18.8093 5.43467 18.7907 5.608 18.7747 5.784C18.7587 5.96 18.7507 6.14133 18.7507 6.328C18.7507 6.40267 18.7613 6.48 18.7827 6.56C18.804 6.63467 18.844 6.70667 18.9027 6.776C18.9613 6.84 19.0413 6.89333 19.1427 6.936C19.2493 6.97867 19.3853 7 19.5507 7C19.7107 7 19.8413 6.98133 19.9427 6.944C20.0493 6.90133 20.132 6.848 20.1907 6.784C20.2547 6.72 20.2973 6.65067 20.3187 6.576C20.34 6.496 20.3507 6.41867 20.3507 6.344C20.3507 6.136 20.3427 5.94133 20.3267 5.76C20.3107 5.57867 20.292 5.40533 20.2707 5.24C20.2493 5.06933 20.2307 4.904 20.2147 4.744C20.1987 4.57867 20.1907 4.41067 20.1907 4.24V3.76C20.1907 3.536 20.196 3.32 20.2067 3.112Z" fill="black"/>
</svg>
