<svg width="10" height="8" viewBox="0 0 10 8" fill="none" xmlns="http://www.w3.org/2000/svg">
<path fill-rule="evenodd" clip-rule="evenodd" d="M10 0H0V8H10V0ZM1.57272 3.256C1.58872 3.42133 1.59672 3.58933 1.59672 3.76V4.24C1.59672 4.41067 1.58872 4.58133 1.57272 4.752C1.55672 4.91733 1.53805 5.088 1.51672 5.264C1.49539 5.43467 1.47672 5.608 1.46072 5.784C1.44472 5.96 1.43672 6.14133 1.43672 6.328C1.43672 6.40267 1.44739 6.48 1.46872 6.56C1.49005 6.63467 1.53005 6.70667 1.58872 6.776C1.65272 6.84 1.73539 6.89333 1.83672 6.936C1.94339 6.97867 2.07939 7 2.24472 7H3.28472C3.69539 7 4.05539 6.968 4.36472 6.904C4.67939 6.84 4.94339 6.73867 5.15672 6.6C5.37005 6.456 5.53005 6.26933 5.63672 6.04C5.74872 5.81067 5.80472 5.53067 5.80472 5.2C5.80472 4.86933 5.72739 4.57333 5.57272 4.312C5.42339 4.05067 5.21272 3.83467 4.94072 3.664C5.12739 3.52533 5.27672 3.36267 5.38872 3.176C5.50605 2.98933 5.56472 2.784 5.56472 2.56C5.56472 2.288 5.49805 2.056 5.36472 1.864C5.23672 1.66667 5.05805 1.504 4.82872 1.376C4.59939 1.248 4.33005 1.15467 4.02072 1.096C3.71672 1.032 3.39139 1 3.04472 1H2.24472C2.07939 1 1.94339 1.02133 1.83672 1.064C1.73539 1.10667 1.65272 1.16267 1.58872 1.232C1.53005 1.296 1.49005 1.368 1.46872 1.448C1.44739 1.52267 1.43672 1.59733 1.43672 1.672C1.43672 1.85867 1.44472 2.04 1.46072 2.216C1.47672 2.392 1.49539 2.568 1.51672 2.744C1.53805 2.91467 1.55672 3.08533 1.57272 3.256ZM3.91672 3.088C3.75139 3.16267 3.46605 3.2 3.06072 3.2C2.95939 3.2 2.91405 3.14933 2.92472 3.048C2.93539 2.92533 2.94872 2.80267 2.96472 2.68C2.98605 2.552 3.00205 2.41867 3.01272 2.28C3.02339 2.17867 3.07672 2.128 3.17272 2.128C3.37005 2.13333 3.53272 2.14667 3.66072 2.168C3.78872 2.18933 3.89005 2.22133 3.96472 2.264C4.04472 2.30133 4.09805 2.352 4.12472 2.416C4.15672 2.47467 4.17272 2.54667 4.17272 2.632C4.17272 2.856 4.08739 3.008 3.91672 3.088ZM3.83672 5.656C3.69272 5.69333 3.50872 5.712 3.28472 5.712H3.15672C3.05539 5.712 2.99939 5.66133 2.98872 5.56C2.96739 5.37333 2.94605 5.192 2.92472 5.016C2.90872 4.83467 2.89539 4.65333 2.88472 4.472C2.87405 4.37067 2.92205 4.32 3.02872 4.32H3.28472C3.69539 4.32 3.98605 4.38133 4.15672 4.504C4.32739 4.62667 4.41272 4.78133 4.41272 4.968C4.41272 5.08 4.39672 5.18133 4.36472 5.272C4.33272 5.36267 4.27405 5.44 4.18872 5.504C4.10339 5.568 3.98605 5.61867 3.83672 5.656ZM7.09928 3.256C7.11528 3.42133 7.12328 3.58933 7.12328 3.76V4.24C7.12328 4.41067 7.11528 4.58133 7.09928 4.752C7.08328 4.91733 7.06461 5.088 7.04328 5.264C7.02195 5.43467 7.00328 5.608 6.98728 5.784C6.97128 5.96 6.96328 6.14133 6.96328 6.328C6.96328 6.57333 7.04328 6.74667 7.20328 6.848C7.36328 6.94933 7.55795 7 7.78728 7C7.94195 7 8.06995 6.98133 8.17128 6.944C8.27261 6.90133 8.35261 6.848 8.41128 6.784C8.46995 6.72 8.50995 6.65067 8.53128 6.576C8.55262 6.496 8.56328 6.41867 8.56328 6.344C8.56328 6.136 8.55528 5.94133 8.53928 5.76C8.52328 5.57867 8.50461 5.40533 8.48328 5.24C8.46195 5.06933 8.44328 4.904 8.42728 4.744C8.41128 4.57867 8.40328 4.41067 8.40328 4.24V3.76C8.40328 3.58933 8.41128 3.424 8.42728 3.264C8.44328 3.09867 8.46195 2.93333 8.48328 2.768C8.50461 2.59733 8.52328 2.42133 8.53928 2.24C8.55528 2.05867 8.56328 1.864 8.56328 1.656C8.56328 1.58133 8.55262 1.50667 8.53128 1.432C8.50995 1.352 8.46995 1.28 8.41128 1.216C8.35261 1.152 8.27261 1.10133 8.17128 1.064C8.06995 1.02133 7.94195 1 7.78728 1C7.67528 1 7.56861 1.01333 7.46728 1.04C7.36595 1.06133 7.27795 1.09867 7.20328 1.152C7.12861 1.20533 7.06995 1.27467 7.02728 1.36C6.98461 1.44533 6.96328 1.54933 6.96328 1.672C6.96328 1.85867 6.97128 2.04 6.98728 2.216C7.00328 2.392 7.02195 2.568 7.04328 2.744C7.06461 2.91467 7.08328 3.08533 7.09928 3.256Z" fill="black"/>
</svg>
