<svg width="11" height="8" viewBox="0 0 11 8" fill="none" xmlns="http://www.w3.org/2000/svg">
<path d="M0.16 4C0.16 3.58933 0.213333 3.2 0.32 2.832C0.426667 2.45867 0.586667 2.13067 0.8 1.848C1.01333 1.56533 1.27733 1.34133 1.592 1.176C1.90667 1.00533 2.272 0.92 2.688 0.92C3.09867 0.92 3.45867 1.00533 3.768 1.176C4.08267 1.34133 4.34667 1.56533 4.56 1.848C4.77333 2.13067 4.93333 2.45867 5.04 2.832C5.152 3.2 5.208 3.58933 5.208 4C5.208 4.48 5.15733 4.912 5.056 5.296C4.96 5.67467 4.808 5.99733 4.6 6.264C4.392 6.52533 4.128 6.728 3.808 6.872C3.49333 7.01067 3.12 7.08 2.688 7.08C2.25067 7.08 1.872 7.01067 1.552 6.872C1.23733 6.728 0.976 6.52533 0.768 6.264C0.56 5.99733 0.405333 5.67467 0.304 5.296C0.208 4.912 0.16 4.48 0.16 4ZM1.56 3.992C1.56 4.264 1.57867 4.512 1.616 4.736C1.65867 4.95467 1.72533 5.14133 1.816 5.296C1.90667 5.45067 2.02133 5.57067 2.16 5.656C2.304 5.74133 2.48 5.784 2.688 5.784C2.896 5.784 3.06933 5.74133 3.208 5.656C3.352 5.57067 3.46933 5.45067 3.56 5.296C3.65067 5.14133 3.71467 4.95467 3.752 4.736C3.79467 4.512 3.816 4.264 3.816 3.992C3.816 3.72 3.8 3.46667 3.768 3.232C3.736 2.99733 3.67733 2.792 3.592 2.616C3.50667 2.44 3.38933 2.30133 3.24 2.2C3.096 2.09867 2.912 2.048 2.688 2.048C2.464 2.048 2.27733 2.09867 2.128 2.2C1.984 2.30133 1.86933 2.44 1.784 2.616C1.69867 2.792 1.64 2.99733 1.608 3.232C1.576 3.46667 1.56 3.72 1.56 3.992ZM9.25519 6.704C9.21785 6.65067 9.19652 6.6 9.19119 6.552L7.79919 3.64C7.77785 3.59733 7.75919 3.57867 7.74319 3.584C7.73252 3.584 7.72719 3.608 7.72719 3.656V3.76V4C7.72719 4.17067 7.73785 4.352 7.75919 4.544C7.78585 4.73067 7.81519 4.92267 7.84719 5.12C7.87919 5.31733 7.90585 5.52 7.92719 5.728C7.95385 5.93067 7.96719 6.136 7.96719 6.344C7.96719 6.41867 7.95385 6.496 7.92719 6.576C7.90052 6.65067 7.85519 6.72 7.79119 6.784C7.72719 6.848 7.63919 6.90133 7.52719 6.944C7.42052 6.98133 7.28719 7 7.12719 7C6.96185 7 6.82852 6.97867 6.72719 6.936C6.63119 6.89333 6.55652 6.84 6.50319 6.776C6.44985 6.70667 6.41252 6.63467 6.39119 6.56C6.37519 6.48 6.36719 6.40267 6.36719 6.328C6.36719 6.14133 6.37519 5.96 6.39119 5.784C6.40719 5.608 6.42585 5.43467 6.44719 5.264C6.46852 5.088 6.48719 4.91733 6.50319 4.752C6.51919 4.58133 6.52719 4.41067 6.52719 4.24V3.76C6.52719 3.58933 6.51919 3.42133 6.50319 3.256C6.48719 3.08533 6.46852 2.91467 6.44719 2.744C6.42585 2.568 6.40719 2.392 6.39119 2.216C6.37519 2.04 6.36719 1.85867 6.36719 1.672C6.36719 1.59733 6.37519 1.52267 6.39119 1.448C6.41252 1.368 6.44985 1.296 6.50319 1.232C6.55652 1.16267 6.63119 1.10667 6.72719 1.064C6.82852 1.02133 6.96185 1 7.12719 1H7.46319C7.56985 1 7.66852 1.02933 7.75919 1.088C7.84985 1.14133 7.91652 1.21333 7.95919 1.304L9.25519 3.944C9.27652 3.98667 9.29252 4.008 9.30319 4.008C9.31919 4.00267 9.32719 3.976 9.32719 3.928V3.76C9.32719 3.58933 9.31385 3.42133 9.28719 3.256C9.26585 3.08533 9.23919 2.91467 9.20719 2.744C9.17519 2.568 9.14585 2.392 9.11919 2.216C9.09785 2.04 9.08719 1.85867 9.08719 1.672C9.08719 1.59733 9.10052 1.52267 9.12719 1.448C9.15385 1.368 9.19919 1.296 9.26319 1.232C9.32719 1.16267 9.41252 1.10667 9.51919 1.064C9.62585 1.02133 9.76185 1 9.92719 1C10.0872 1 10.2179 1.02133 10.3192 1.064C10.4205 1.10133 10.4979 1.152 10.5512 1.216C10.6045 1.28 10.6392 1.352 10.6552 1.432C10.6765 1.50667 10.6872 1.58133 10.6872 1.656C10.6872 1.864 10.6792 2.05867 10.6632 2.24C10.6472 2.42133 10.6285 2.59733 10.6072 2.768C10.5859 2.93333 10.5672 3.09867 10.5512 3.264C10.5352 3.424 10.5272 3.58933 10.5272 3.76V4.24C10.5272 4.41067 10.5352 4.57867 10.5512 4.744C10.5672 4.904 10.5859 5.06933 10.6072 5.24C10.6285 5.40533 10.6472 5.57867 10.6632 5.76C10.6792 5.94133 10.6872 6.136 10.6872 6.344C10.6872 6.41333 10.6792 6.48533 10.6632 6.56C10.6472 6.63467 10.6125 6.704 10.5592 6.768C10.5112 6.832 10.4419 6.88533 10.3512 6.928C10.2659 6.97067 10.1512 6.99467 10.0072 7H9.73519C9.64452 7 9.55652 6.97333 9.47119 6.92C9.38585 6.86667 9.31385 6.79467 9.25519 6.704Z" fill="black"/>
</svg>
