<svg width="8" height="6" viewBox="0 0 8 6" fill="none" xmlns="http://www.w3.org/2000/svg">
<path d="M0.36 2.76C0.36 2.58933 0.352 2.42133 0.336 2.256C0.32 2.08533 0.301333 1.91467 0.28 1.744C0.258667 1.568 0.24 1.392 0.224 1.216C0.208 1.04 0.2 0.858666 0.2 0.672C0.2 0.597333 0.210667 0.522667 0.232 0.448C0.253333 0.368 0.293333 0.296 0.352 0.232C0.416 0.162666 0.498667 0.106666 0.6 0.0639997C0.706667 0.0213329 0.842667 -4.76837e-07 1.008 -4.76837e-07H1.808C2.15467 -4.76837e-07 2.48 0.0319996 2.784 0.0959997C3.09333 0.154666 3.36267 0.248 3.592 0.376C3.82133 0.504 4 0.666667 4.128 0.864C4.26133 1.056 4.328 1.288 4.328 1.56C4.328 1.784 4.26933 1.98933 4.152 2.176C4.04 2.36267 3.89067 2.52533 3.704 2.664C3.976 2.83467 4.18667 3.05067 4.336 3.312C4.49067 3.57333 4.568 3.86933 4.568 4.2C4.568 4.53067 4.512 4.81067 4.4 5.04C4.29333 5.26933 4.13333 5.456 3.92 5.6C3.70667 5.73867 3.44267 5.84 3.128 5.904C2.81867 5.968 2.45867 6 2.048 6H1.008C0.842667 6 0.706667 5.97867 0.6 5.936C0.498667 5.89333 0.416 5.84 0.352 5.776C0.293333 5.70667 0.253333 5.63467 0.232 5.56C0.210667 5.48 0.2 5.40267 0.2 5.328C0.2 5.14133 0.208 4.96 0.224 4.784C0.24 4.608 0.258667 4.43467 0.28 4.264C0.301333 4.088 0.32 3.91733 0.336 3.752C0.352 3.58133 0.36 3.41067 0.36 3.24V2.76ZM1.824 2.2C2.22933 2.2 2.51467 2.16267 2.68 2.088C2.85067 2.008 2.936 1.856 2.936 1.632C2.936 1.54667 2.92 1.47467 2.888 1.416C2.86133 1.352 2.808 1.30133 2.728 1.264C2.65333 1.22133 2.552 1.18933 2.424 1.168C2.296 1.14667 2.13333 1.13333 1.936 1.128C1.84 1.128 1.78667 1.17867 1.776 1.28C1.76533 1.41867 1.74933 1.552 1.728 1.68C1.712 1.80267 1.69867 1.92533 1.688 2.048C1.67733 2.14933 1.72267 2.2 1.824 2.2ZM2.048 4.712C2.272 4.712 2.456 4.69333 2.6 4.656C2.74933 4.61867 2.86667 4.568 2.952 4.504C3.03733 4.44 3.096 4.36267 3.128 4.272C3.16 4.18133 3.176 4.08 3.176 3.968C3.176 3.78133 3.09067 3.62667 2.92 3.504C2.74933 3.38133 2.45867 3.32 2.048 3.32H1.792C1.68533 3.32 1.63733 3.37067 1.648 3.472C1.65867 3.65333 1.672 3.83467 1.688 4.016C1.70933 4.192 1.73067 4.37333 1.752 4.56C1.76267 4.66133 1.81867 4.712 1.92 4.712H2.048ZM5.88656 2.76C5.88656 2.58933 5.87856 2.42133 5.86256 2.256C5.84656 2.08533 5.8279 1.91467 5.80656 1.744C5.78523 1.568 5.76656 1.392 5.75056 1.216C5.73456 1.04 5.72656 0.858666 5.72656 0.672C5.72656 0.549333 5.7479 0.445333 5.79056 0.36C5.83323 0.274666 5.8919 0.205333 5.96656 0.152C6.04123 0.0986664 6.12923 0.0613329 6.23056 0.0399995C6.3319 0.0133328 6.43856 -4.76837e-07 6.55056 -4.76837e-07C6.70523 -4.76837e-07 6.83323 0.0213329 6.93456 0.0639997C7.0359 0.101333 7.1159 0.152 7.17456 0.216C7.23323 0.28 7.27323 0.352 7.29456 0.432C7.3159 0.506666 7.32656 0.581333 7.32656 0.656C7.32656 0.864 7.31856 1.05867 7.30256 1.24C7.28656 1.42133 7.2679 1.59733 7.24656 1.768C7.22523 1.93333 7.20656 2.09867 7.19056 2.264C7.17456 2.424 7.16656 2.58933 7.16656 2.76V3.24C7.16656 3.41067 7.17456 3.57867 7.19056 3.744C7.20656 3.904 7.22523 4.06933 7.24656 4.24C7.2679 4.40533 7.28656 4.57867 7.30256 4.76C7.31856 4.94133 7.32656 5.136 7.32656 5.344C7.32656 5.41867 7.3159 5.496 7.29456 5.576C7.27323 5.65067 7.23323 5.72 7.17456 5.784C7.1159 5.848 7.0359 5.90133 6.93456 5.944C6.83323 5.98133 6.70523 6 6.55056 6C6.32123 6 6.12656 5.94933 5.96656 5.848C5.80656 5.74667 5.72656 5.57333 5.72656 5.328C5.72656 5.14133 5.73456 4.96 5.75056 4.784C5.76656 4.608 5.78523 4.43467 5.80656 4.264C5.8279 4.088 5.84656 3.91733 5.86256 3.752C5.87856 3.58133 5.88656 3.41067 5.88656 3.24V2.76Z" fill="black"/>
</svg>
