<svg width="25" height="6" viewBox="0 0 25 6" fill="none" xmlns="http://www.w3.org/2000/svg">
<path d="M2.704 3.7455C2.76467 3.67183 2.83183 3.61983 2.9055 3.5895C2.97917 3.55483 3.055 3.5375 3.133 3.5375C3.237 3.5375 3.33667 3.56567 3.432 3.622C3.53167 3.674 3.6075 3.7455 3.6595 3.8365C3.7115 3.9275 3.73317 4.0315 3.7245 4.1485C3.71583 4.26117 3.6595 4.37817 3.5555 4.4995C3.39083 4.69017 3.19583 4.83317 2.9705 4.9285C2.7495 5.0195 2.4765 5.065 2.1515 5.065C1.78317 5.065 1.47117 5.00867 1.2155 4.896C0.964167 4.779 0.7605 4.61433 0.6045 4.402C0.4485 4.18533 0.335833 3.92317 0.2665 3.6155C0.197167 3.3035 0.1625 2.9525 0.1625 2.5625C0.1625 2.22883 0.199333 1.9125 0.273 1.6135C0.346667 1.31017 0.463667 1.04367 0.624 0.814C0.784333 0.584333 0.990167 0.402333 1.2415 0.268C1.49283 0.129333 1.79617 0.0599997 2.1515 0.0599997C2.3075 0.0599997 2.44183 0.0686664 2.5545 0.0859997C2.66717 0.103333 2.769 0.127166 2.86 0.1575C2.951 0.187833 3.0355 0.224666 3.1135 0.268C3.1915 0.307 3.2695 0.3525 3.3475 0.4045C3.48183 0.486833 3.56633 0.584333 3.601 0.697C3.63567 0.805333 3.63783 0.909333 3.6075 1.009C3.5815 1.10867 3.52733 1.19317 3.445 1.2625C3.367 1.33183 3.27817 1.3665 3.1785 1.3665C3.10917 1.3665 3.03333 1.34267 2.951 1.295C2.82967 1.21267 2.7105 1.139 2.5935 1.074C2.4765 1.009 2.32917 0.9765 2.1515 0.9765C1.9695 0.9765 1.82217 1.01767 1.7095 1.1C1.59683 1.18233 1.51017 1.295 1.4495 1.438C1.38883 1.581 1.34767 1.74783 1.326 1.9385C1.30867 2.12917 1.3 2.335 1.3 2.556C1.3 2.777 1.313 2.9785 1.339 3.1605C1.365 3.33817 1.4105 3.48983 1.4755 3.6155C1.5405 3.74117 1.62717 3.83867 1.7355 3.908C1.84383 3.97733 1.9825 4.012 2.1515 4.012C2.29017 4.012 2.3985 3.99033 2.4765 3.947C2.5545 3.89933 2.63033 3.83217 2.704 3.7455ZM6.05638 3.8235C6.08238 3.82783 6.11054 3.83 6.14088 3.83C6.17121 3.83 6.20371 3.83 6.23838 3.83C6.37704 3.83 6.48754 3.8235 6.56988 3.8105C6.65221 3.7975 6.72154 3.78233 6.77788 3.765C6.83854 3.74767 6.89704 3.7325 6.95338 3.7195C7.00971 3.7065 7.08121 3.7 7.16788 3.7C7.22854 3.7 7.28921 3.70867 7.34988 3.726C7.41488 3.74333 7.47338 3.778 7.52538 3.83C7.57738 3.87767 7.61854 3.94483 7.64888 4.0315C7.68354 4.11383 7.70088 4.22 7.70088 4.35C7.70088 4.48433 7.68354 4.59483 7.64888 4.6815C7.61421 4.76383 7.56871 4.82883 7.51238 4.8765C7.46038 4.92417 7.40188 4.95667 7.33688 4.974C7.27621 4.99133 7.21554 5 7.15488 5C7.08554 5 7.02488 4.9935 6.97288 4.9805C6.92088 4.9675 6.86238 4.95233 6.79738 4.935C6.73671 4.91767 6.66304 4.9025 6.57638 4.8895C6.48971 4.8765 6.37704 4.87 6.23838 4.87C6.10838 4.87 6.00221 4.8765 5.91988 4.8895C5.83754 4.89817 5.76604 4.91117 5.70538 4.9285C5.61004 4.97617 5.48221 5 5.32188 5C5.13988 5 4.98604 4.95883 4.86038 4.8765C4.73471 4.78983 4.67188 4.649 4.67188 4.454C4.67188 4.30233 4.67838 4.155 4.69138 4.012C4.70438 3.869 4.71954 3.72817 4.73688 3.5895C4.75421 3.4465 4.76938 3.30783 4.78238 3.1735C4.79538 3.03483 4.80188 2.89617 4.80188 2.7575V2.3675C4.80188 2.22883 4.79538 2.09233 4.78238 1.958C4.76938 1.81933 4.75421 1.68067 4.73688 1.542C4.71954 1.399 4.70438 1.256 4.69138 1.113C4.67838 0.97 4.67188 0.822666 4.67188 0.671C4.67188 0.619 4.67838 0.564833 4.69138 0.5085C4.70438 0.447833 4.72821 0.393666 4.76288 0.346C4.80188 0.298333 4.85171 0.255 4.91238 0.216C4.97738 0.177 5.05971 0.151 5.15938 0.138C5.18538 0.129333 5.21138 0.125 5.23738 0.125C5.26771 0.125 5.29588 0.125 5.32188 0.125C5.45188 0.125 5.56238 0.142333 5.65338 0.177C5.71838 0.198666 5.79204 0.218166 5.87438 0.2355C5.96104 0.2485 6.08671 0.255 6.25138 0.255C6.39004 0.255 6.50054 0.2485 6.58288 0.2355C6.66521 0.2225 6.73454 0.207333 6.79088 0.19C6.85154 0.172667 6.91004 0.1575 6.96638 0.1445C7.02271 0.1315 7.09421 0.125 7.18088 0.125C7.24154 0.125 7.30221 0.1315 7.36288 0.1445C7.42788 0.153166 7.48638 0.179166 7.53838 0.2225C7.59038 0.2615 7.63154 0.32 7.66188 0.398C7.69654 0.476 7.71388 0.58 7.71388 0.71C7.71388 0.844333 7.69654 0.9505 7.66188 1.0285C7.62721 1.1065 7.58171 1.165 7.52538 1.204C7.47338 1.243 7.41488 1.269 7.34988 1.282C7.28921 1.29067 7.22854 1.295 7.16788 1.295C7.09854 1.295 7.03788 1.2885 6.98588 1.2755C6.93388 1.2625 6.87538 1.24733 6.81038 1.23C6.74971 1.21267 6.67604 1.1975 6.58938 1.1845C6.50271 1.1715 6.39004 1.165 6.25138 1.165C6.21671 1.165 6.18421 1.16717 6.15388 1.1715C6.12354 1.1715 6.09538 1.1715 6.06938 1.1715C5.98704 1.18017 5.94154 1.2235 5.93288 1.3015C5.92421 1.40117 5.91338 1.49867 5.90038 1.594C5.89171 1.68933 5.88304 1.78467 5.87438 1.88C5.86571 1.96667 5.90254 2.01 5.98488 2.01H6.05638C6.19504 2.01 6.30554 2.0035 6.38788 1.9905C6.47021 1.9775 6.53954 1.96233 6.59588 1.945C6.65654 1.92767 6.71504 1.9125 6.77138 1.8995C6.82771 1.8865 6.89921 1.88 6.98588 1.88C7.04654 1.88 7.10721 1.88867 7.16788 1.906C7.23288 1.919 7.29138 1.94717 7.34338 1.9905C7.39538 2.03383 7.43654 2.09667 7.46688 2.179C7.50154 2.26133 7.51888 2.3675 7.51888 2.4975C7.51888 2.63183 7.50154 2.74017 7.46688 2.8225C7.43221 2.9005 7.38671 2.96117 7.33038 3.0045C7.27838 3.04783 7.21988 3.07817 7.15488 3.0955C7.09421 3.1085 7.03354 3.115 6.97288 3.115C6.90354 3.115 6.84288 3.1085 6.79088 3.0955C6.73888 3.0825 6.68038 3.06733 6.61538 3.05C6.55471 3.03267 6.48104 3.0175 6.39438 3.0045C6.30771 2.9915 6.19504 2.985 6.05638 2.985H5.97188C5.93721 2.985 5.90688 2.998 5.88088 3.024C5.85921 3.04567 5.85054 3.076 5.85488 3.115C5.86354 3.21033 5.87221 3.30567 5.88088 3.401C5.89388 3.492 5.90688 3.58733 5.91988 3.687C5.92854 3.76933 5.97404 3.81483 6.05638 3.8235ZM11.0072 4.7595C10.9769 4.71617 10.9596 4.675 10.9552 4.636L9.82424 2.27C9.80691 2.23533 9.79174 2.22017 9.77874 2.2245C9.77008 2.2245 9.76574 2.244 9.76574 2.283V2.3675V2.5625C9.76574 2.70117 9.77441 2.8485 9.79174 3.0045C9.81341 3.15617 9.83724 3.31217 9.86324 3.4725C9.88924 3.63283 9.91091 3.7975 9.92824 3.9665C9.94991 4.13117 9.96074 4.298 9.96074 4.467C9.96074 4.52767 9.94991 4.5905 9.92824 4.6555C9.90658 4.71617 9.86974 4.7725 9.81774 4.8245C9.76574 4.8765 9.69424 4.91983 9.60324 4.9545C9.51658 4.98483 9.40824 5 9.27824 5C9.14391 5 9.03558 4.98267 8.95324 4.948C8.87524 4.91333 8.81458 4.87 8.77124 4.818C8.72791 4.76167 8.69758 4.70317 8.68024 4.6425C8.66724 4.5775 8.66074 4.51467 8.66074 4.454C8.66074 4.30233 8.66724 4.155 8.68024 4.012C8.69324 3.869 8.70841 3.72817 8.72574 3.5895C8.74308 3.4465 8.75824 3.30783 8.77124 3.1735C8.78424 3.03483 8.79074 2.89617 8.79074 2.7575V2.3675C8.79074 2.22883 8.78424 2.09233 8.77124 1.958C8.75824 1.81933 8.74308 1.68067 8.72574 1.542C8.70841 1.399 8.69324 1.256 8.68024 1.113C8.66724 0.97 8.66074 0.822666 8.66074 0.671C8.66074 0.610333 8.66724 0.549667 8.68024 0.489C8.69758 0.424 8.72791 0.3655 8.77124 0.3135C8.81458 0.257167 8.87524 0.211666 8.95324 0.177C9.03558 0.142333 9.14391 0.125 9.27824 0.125H9.55124C9.63791 0.125 9.71808 0.148833 9.79174 0.1965C9.86541 0.239833 9.91958 0.298333 9.95424 0.372L11.0072 2.517C11.0246 2.55167 11.0376 2.569 11.0462 2.569C11.0592 2.56467 11.0657 2.543 11.0657 2.504V2.3675C11.0657 2.22883 11.0549 2.09233 11.0332 1.958C11.0159 1.81933 10.9942 1.68067 10.9682 1.542C10.9422 1.399 10.9184 1.256 10.8967 1.113C10.8794 0.97 10.8707 0.822666 10.8707 0.671C10.8707 0.610333 10.8816 0.549667 10.9032 0.489C10.9249 0.424 10.9617 0.3655 11.0137 0.3135C11.0657 0.257167 11.1351 0.211666 11.2217 0.177C11.3084 0.142333 11.4189 0.125 11.5532 0.125C11.6832 0.125 11.7894 0.142333 11.8717 0.177C11.9541 0.207333 12.0169 0.2485 12.0602 0.3005C12.1036 0.3525 12.1317 0.411 12.1447 0.476C12.1621 0.536666 12.1707 0.597333 12.1707 0.658C12.1707 0.827 12.1642 0.985167 12.1512 1.1325C12.1382 1.27983 12.1231 1.42283 12.1057 1.5615C12.0884 1.69583 12.0732 1.83017 12.0602 1.9645C12.0472 2.0945 12.0407 2.22883 12.0407 2.3675V2.7575C12.0407 2.89617 12.0472 3.03267 12.0602 3.167C12.0732 3.297 12.0884 3.43133 12.1057 3.57C12.1231 3.70433 12.1382 3.84517 12.1512 3.9925C12.1642 4.13983 12.1707 4.298 12.1707 4.467C12.1707 4.52333 12.1642 4.58183 12.1512 4.6425C12.1382 4.70317 12.1101 4.7595 12.0667 4.8115C12.0277 4.8635 11.9714 4.90683 11.8977 4.9415C11.8284 4.97617 11.7352 4.99567 11.6182 5H11.3972C11.3236 5 11.2521 4.97833 11.1827 4.935C11.1134 4.89167 11.0549 4.83317 11.0072 4.7595ZM15.2767 1.308C15.2681 1.49433 15.2572 1.672 15.2442 1.841C15.2356 2.01 15.2312 2.1855 15.2312 2.3675V2.7575C15.2312 2.89617 15.2377 3.03267 15.2507 3.167C15.2637 3.297 15.2789 3.43133 15.2962 3.57C15.3136 3.70433 15.3287 3.84517 15.3417 3.9925C15.3547 4.13983 15.3612 4.298 15.3612 4.467C15.3612 4.52767 15.3526 4.5905 15.3352 4.6555C15.3179 4.71617 15.2832 4.7725 15.2312 4.8245C15.1836 4.8765 15.1164 4.91983 15.0297 4.9545C14.9474 4.98483 14.8412 5 14.7112 5C14.5769 5 14.4664 4.98267 14.3797 4.948C14.2974 4.91333 14.2324 4.87 14.1847 4.818C14.1371 4.76167 14.1046 4.70317 14.0872 4.6425C14.0699 4.5775 14.0612 4.51467 14.0612 4.454C14.0612 4.30233 14.0677 4.155 14.0807 4.012C14.0937 3.869 14.1089 3.72817 14.1262 3.5895C14.1436 3.4465 14.1587 3.30783 14.1717 3.1735C14.1847 3.03483 14.1912 2.89617 14.1912 2.7575V2.3675C14.1912 2.18983 14.1847 2.01433 14.1717 1.841C14.1631 1.66767 14.1544 1.49 14.1457 1.308C14.1371 1.23433 14.0981 1.204 14.0287 1.217C13.9464 1.23867 13.8727 1.25817 13.8077 1.2755C13.7471 1.2885 13.6777 1.295 13.5997 1.295C13.5391 1.295 13.4762 1.29067 13.4112 1.282C13.3506 1.269 13.2921 1.243 13.2357 1.204C13.1837 1.165 13.1404 1.1065 13.1057 1.0285C13.0711 0.9505 13.0537 0.844333 13.0537 0.71C13.0537 0.58 13.0689 0.476 13.0992 0.398C13.1339 0.32 13.1772 0.2615 13.2292 0.2225C13.2812 0.179166 13.3376 0.153166 13.3982 0.1445C13.4632 0.1315 13.5261 0.125 13.5867 0.125C13.6734 0.125 13.7471 0.1315 13.8077 0.1445C13.8727 0.153166 13.9377 0.164 14.0027 0.177C14.0721 0.185667 14.1501 0.1965 14.2367 0.2095C14.3277 0.218167 14.4426 0.2225 14.5812 0.2225H14.8412C14.9799 0.2225 15.0926 0.218167 15.1792 0.2095C15.2702 0.1965 15.3482 0.185667 15.4132 0.177C15.4826 0.164 15.5476 0.153166 15.6082 0.1445C15.6732 0.1315 15.7491 0.125 15.8357 0.125C15.8964 0.125 15.9571 0.1315 16.0177 0.1445C16.0827 0.153166 16.1412 0.179166 16.1932 0.2225C16.2452 0.2615 16.2864 0.32 16.3167 0.398C16.3514 0.476 16.3687 0.58 16.3687 0.71C16.3687 0.844333 16.3514 0.9505 16.3167 1.0285C16.2821 1.1065 16.2366 1.165 16.1802 1.204C16.1282 1.243 16.0697 1.269 16.0047 1.282C15.9441 1.29067 15.8834 1.295 15.8227 1.295C15.7447 1.295 15.6732 1.2885 15.6082 1.2755C15.5476 1.25817 15.4761 1.23867 15.3937 1.217C15.3244 1.204 15.2854 1.23433 15.2767 1.308ZM18.6387 3.8235C18.6647 3.82783 18.6929 3.83 18.7232 3.83C18.7535 3.83 18.786 3.83 18.8207 3.83C18.9594 3.83 19.0699 3.8235 19.1522 3.8105C19.2345 3.7975 19.3039 3.78233 19.3602 3.765C19.4209 3.74767 19.4794 3.7325 19.5357 3.7195C19.592 3.7065 19.6635 3.7 19.7502 3.7C19.8109 3.7 19.8715 3.70867 19.9322 3.726C19.9972 3.74333 20.0557 3.778 20.1077 3.83C20.1597 3.87767 20.2009 3.94483 20.2312 4.0315C20.2659 4.11383 20.2832 4.22 20.2832 4.35C20.2832 4.48433 20.2659 4.59483 20.2312 4.6815C20.1965 4.76383 20.151 4.82883 20.0947 4.8765C20.0427 4.92417 19.9842 4.95667 19.9192 4.974C19.8585 4.99133 19.7979 5 19.7372 5C19.6679 5 19.6072 4.9935 19.5552 4.9805C19.5032 4.9675 19.4447 4.95233 19.3797 4.935C19.319 4.91767 19.2454 4.9025 19.1587 4.8895C19.072 4.8765 18.9594 4.87 18.8207 4.87C18.6907 4.87 18.5845 4.8765 18.5022 4.8895C18.4199 4.89817 18.3484 4.91117 18.2877 4.9285C18.1924 4.97617 18.0645 5 17.9042 5C17.7222 5 17.5684 4.95883 17.4427 4.8765C17.317 4.78983 17.2542 4.649 17.2542 4.454C17.2542 4.30233 17.2607 4.155 17.2737 4.012C17.2867 3.869 17.3019 3.72817 17.3192 3.5895C17.3365 3.4465 17.3517 3.30783 17.3647 3.1735C17.3777 3.03483 17.3842 2.89617 17.3842 2.7575V2.3675C17.3842 2.22883 17.3777 2.09233 17.3647 1.958C17.3517 1.81933 17.3365 1.68067 17.3192 1.542C17.3019 1.399 17.2867 1.256 17.2737 1.113C17.2607 0.97 17.2542 0.822666 17.2542 0.671C17.2542 0.619 17.2607 0.564833 17.2737 0.5085C17.2867 0.447833 17.3105 0.393666 17.3452 0.346C17.3842 0.298333 17.434 0.255 17.4947 0.216C17.5597 0.177 17.642 0.151 17.7417 0.138C17.7677 0.129333 17.7937 0.125 17.8197 0.125C17.85 0.125 17.8782 0.125 17.9042 0.125C18.0342 0.125 18.1447 0.142333 18.2357 0.177C18.3007 0.198666 18.3744 0.218166 18.4567 0.2355C18.5434 0.2485 18.669 0.255 18.8337 0.255C18.9724 0.255 19.0829 0.2485 19.1652 0.2355C19.2475 0.2225 19.3169 0.207333 19.3732 0.19C19.4339 0.172667 19.4924 0.1575 19.5487 0.1445C19.605 0.1315 19.6765 0.125 19.7632 0.125C19.8239 0.125 19.8845 0.1315 19.9452 0.1445C20.0102 0.153166 20.0687 0.179166 20.1207 0.2225C20.1727 0.2615 20.2139 0.32 20.2442 0.398C20.2789 0.476 20.2962 0.58 20.2962 0.71C20.2962 0.844333 20.2789 0.9505 20.2442 1.0285C20.2095 1.1065 20.164 1.165 20.1077 1.204C20.0557 1.243 19.9972 1.269 19.9322 1.282C19.8715 1.29067 19.8109 1.295 19.7502 1.295C19.6809 1.295 19.6202 1.2885 19.5682 1.2755C19.5162 1.2625 19.4577 1.24733 19.3927 1.23C19.332 1.21267 19.2584 1.1975 19.1717 1.1845C19.085 1.1715 18.9724 1.165 18.8337 1.165C18.799 1.165 18.7665 1.16717 18.7362 1.1715C18.7059 1.1715 18.6777 1.1715 18.6517 1.1715C18.5694 1.18017 18.5239 1.2235 18.5152 1.3015C18.5065 1.40117 18.4957 1.49867 18.4827 1.594C18.474 1.68933 18.4654 1.78467 18.4567 1.88C18.448 1.96667 18.4849 2.01 18.5672 2.01H18.6387C18.7774 2.01 18.8879 2.0035 18.9702 1.9905C19.0525 1.9775 19.1219 1.96233 19.1782 1.945C19.2389 1.92767 19.2974 1.9125 19.3537 1.8995C19.41 1.8865 19.4815 1.88 19.5682 1.88C19.6289 1.88 19.6895 1.88867 19.7502 1.906C19.8152 1.919 19.8737 1.94717 19.9257 1.9905C19.9777 2.03383 20.0189 2.09667 20.0492 2.179C20.0839 2.26133 20.1012 2.3675 20.1012 2.4975C20.1012 2.63183 20.0839 2.74017 20.0492 2.8225C20.0145 2.9005 19.969 2.96117 19.9127 3.0045C19.8607 3.04783 19.8022 3.07817 19.7372 3.0955C19.6765 3.1085 19.6159 3.115 19.5552 3.115C19.4859 3.115 19.4252 3.1085 19.3732 3.0955C19.3212 3.0825 19.2627 3.06733 19.1977 3.05C19.137 3.03267 19.0634 3.0175 18.9767 3.0045C18.89 2.9915 18.7774 2.985 18.6387 2.985H18.5542C18.5195 2.985 18.4892 2.998 18.4632 3.024C18.4415 3.04567 18.4329 3.076 18.4372 3.115C18.4459 3.21033 18.4545 3.30567 18.4632 3.401C18.4762 3.492 18.4892 3.58733 18.5022 3.687C18.5109 3.76933 18.5564 3.81483 18.6387 3.8235ZM22.4521 3.3035C22.4737 3.4855 22.4932 3.66967 22.5106 3.856C22.5322 4.038 22.5431 4.24167 22.5431 4.467C22.5431 4.52767 22.5344 4.5905 22.5171 4.6555C22.4997 4.71617 22.4651 4.7725 22.4131 4.8245C22.3654 4.8765 22.2982 4.91983 22.2116 4.9545C22.1292 4.98483 22.0231 5 21.8931 5C21.7587 5 21.6482 4.98267 21.5616 4.948C21.4792 4.91333 21.4142 4.87 21.3666 4.818C21.3189 4.76167 21.2864 4.70317 21.2691 4.6425C21.2517 4.5775 21.2431 4.51467 21.2431 4.454C21.2431 4.30233 21.2496 4.155 21.2626 4.012C21.2756 3.869 21.2907 3.72817 21.3081 3.5895C21.3254 3.4465 21.3406 3.30783 21.3536 3.1735C21.3666 3.03483 21.3731 2.89617 21.3731 2.7575V2.3675C21.3731 2.22883 21.3666 2.09233 21.3536 1.958C21.3406 1.81933 21.3254 1.68067 21.3081 1.542C21.2907 1.399 21.2756 1.256 21.2626 1.113C21.2496 0.97 21.2431 0.822666 21.2431 0.671C21.2431 0.610333 21.2517 0.549667 21.2691 0.489C21.2864 0.424 21.3189 0.3655 21.3666 0.3135C21.4186 0.257167 21.4857 0.211666 21.5681 0.177C21.6547 0.142333 21.7652 0.125 21.8996 0.125H22.7446C23.4076 0.125 23.9146 0.246333 24.2656 0.489C24.6166 0.727333 24.7921 1.11517 24.7921 1.6525C24.7921 1.96883 24.7162 2.23533 24.5646 2.452C24.4172 2.66433 24.2136 2.83333 23.9536 2.959C23.8886 2.99367 23.8799 3.03483 23.9276 3.0825C24.0619 3.22117 24.2006 3.35983 24.3436 3.4985C24.4909 3.63717 24.6404 3.79967 24.7921 3.986C24.8311 4.03367 24.8614 4.08783 24.8831 4.1485C24.9091 4.20917 24.9199 4.27633 24.9156 4.35C24.9112 4.41933 24.8874 4.49517 24.8441 4.5775C24.8007 4.6555 24.7271 4.7335 24.6231 4.8115C24.5191 4.89383 24.4216 4.948 24.3306 4.974C24.2439 5 24.1637 5.00867 24.0901 5C24.0207 4.987 23.9601 4.961 23.9081 4.922C23.8561 4.883 23.8106 4.83967 23.7716 4.792C23.6762 4.675 23.5874 4.55583 23.5051 4.4345C23.4271 4.31317 23.3512 4.194 23.2776 4.077C23.2039 3.96 23.1281 3.84517 23.0501 3.7325C22.9764 3.61983 22.8962 3.50933 22.8096 3.401L22.7121 3.2775C22.6687 3.2255 22.6124 3.1995 22.5431 3.1995C22.4737 3.1995 22.4434 3.23417 22.4521 3.3035ZM22.7446 2.3025C23.0782 2.3025 23.3144 2.23967 23.4531 2.114C23.5917 1.984 23.6611 1.828 23.6611 1.646C23.6611 1.555 23.6481 1.47267 23.6221 1.399C23.5961 1.32533 23.5484 1.2625 23.4791 1.2105C23.4097 1.1585 23.3144 1.11733 23.1931 1.087C23.0761 1.05667 22.9266 1.0415 22.7446 1.0415H22.6406C22.5712 1.0415 22.5322 1.07833 22.5236 1.152C22.5062 1.33833 22.4867 1.516 22.4651 1.685C22.4434 1.84967 22.4282 2.01867 22.4196 2.192C22.4196 2.26567 22.4542 2.3025 22.5236 2.3025H22.7446Z" fill="black"/>
</svg>
