<svg width="31" height="8" viewBox="0 0 31 8" fill="none" xmlns="http://www.w3.org/2000/svg">
<path d="M3.328 5.456C3.40267 5.36533 3.48533 5.30133 3.576 5.264C3.66667 5.22133 3.76 5.2 3.856 5.2C3.984 5.2 4.10667 5.23467 4.224 5.304C4.34667 5.368 4.44 5.456 4.504 5.568C4.568 5.68 4.59467 5.808 4.584 5.952C4.57333 6.09067 4.504 6.23467 4.376 6.384C4.17333 6.61867 3.93333 6.79467 3.656 6.912C3.384 7.024 3.048 7.08 2.648 7.08C2.19467 7.08 1.81067 7.01067 1.496 6.872C1.18667 6.728 0.936 6.52533 0.744 6.264C0.552 5.99733 0.413333 5.67467 0.328 5.296C0.242667 4.912 0.2 4.48 0.2 4C0.2 3.58933 0.245333 3.2 0.336 2.832C0.426667 2.45867 0.570667 2.13067 0.768 1.848C0.965333 1.56533 1.21867 1.34133 1.528 1.176C1.83733 1.00533 2.21067 0.92 2.648 0.92C2.84 0.92 3.00533 0.930666 3.144 0.952C3.28267 0.973333 3.408 1.00267 3.52 1.04C3.632 1.07733 3.736 1.12267 3.832 1.176C3.928 1.224 4.024 1.28 4.12 1.344C4.28533 1.44533 4.38933 1.56533 4.432 1.704C4.47467 1.83733 4.47733 1.96533 4.44 2.088C4.408 2.21067 4.34133 2.31467 4.24 2.4C4.144 2.48533 4.03467 2.528 3.912 2.528C3.82667 2.528 3.73333 2.49867 3.632 2.44C3.48267 2.33867 3.336 2.248 3.192 2.168C3.048 2.088 2.86667 2.048 2.648 2.048C2.424 2.048 2.24267 2.09867 2.104 2.2C1.96533 2.30133 1.85867 2.44 1.784 2.616C1.70933 2.792 1.65867 2.99733 1.632 3.232C1.61067 3.46667 1.6 3.72 1.6 3.992C1.6 4.264 1.616 4.512 1.648 4.736C1.68 4.95467 1.736 5.14133 1.816 5.296C1.896 5.45067 2.00267 5.57067 2.136 5.656C2.26933 5.74133 2.44 5.784 2.648 5.784C2.81867 5.784 2.952 5.75733 3.048 5.704C3.144 5.64533 3.23733 5.56267 3.328 5.456ZM7.454 5.552C7.486 5.55733 7.52067 5.56 7.558 5.56C7.59533 5.56 7.63533 5.56 7.678 5.56C7.84867 5.56 7.98467 5.552 8.086 5.536C8.18733 5.52 8.27267 5.50133 8.342 5.48C8.41667 5.45867 8.48867 5.44 8.558 5.424C8.62733 5.408 8.71533 5.4 8.822 5.4C8.89667 5.4 8.97133 5.41067 9.046 5.432C9.126 5.45333 9.198 5.496 9.262 5.56C9.326 5.61867 9.37667 5.70133 9.414 5.808C9.45667 5.90933 9.478 6.04 9.478 6.2C9.478 6.36533 9.45667 6.50133 9.414 6.608C9.37133 6.70933 9.31533 6.78933 9.246 6.848C9.182 6.90667 9.11 6.94667 9.03 6.968C8.95533 6.98933 8.88067 7 8.806 7C8.72067 7 8.646 6.992 8.582 6.976C8.518 6.96 8.446 6.94133 8.366 6.92C8.29133 6.89867 8.20067 6.88 8.094 6.864C7.98733 6.848 7.84867 6.84 7.678 6.84C7.518 6.84 7.38733 6.848 7.286 6.864C7.18467 6.87467 7.09667 6.89067 7.022 6.912C6.90467 6.97067 6.74733 7 6.55 7C6.326 7 6.13667 6.94933 5.982 6.848C5.82733 6.74133 5.75 6.568 5.75 6.328C5.75 6.14133 5.758 5.96 5.774 5.784C5.79 5.608 5.80867 5.43467 5.83 5.264C5.85133 5.088 5.87 4.91733 5.886 4.752C5.902 4.58133 5.91 4.41067 5.91 4.24V3.76C5.91 3.58933 5.902 3.42133 5.886 3.256C5.87 3.08533 5.85133 2.91467 5.83 2.744C5.80867 2.568 5.79 2.392 5.774 2.216C5.758 2.04 5.75 1.85867 5.75 1.672C5.75 1.608 5.758 1.54133 5.774 1.472C5.79 1.39733 5.81933 1.33067 5.862 1.272C5.91 1.21333 5.97133 1.16 6.046 1.112C6.126 1.064 6.22733 1.032 6.35 1.016C6.382 1.00533 6.414 1 6.446 1C6.48333 1 6.518 1 6.55 1C6.71 1 6.846 1.02133 6.958 1.064C7.038 1.09067 7.12867 1.11467 7.23 1.136C7.33667 1.152 7.49133 1.16 7.694 1.16C7.86467 1.16 8.00067 1.152 8.102 1.136C8.20333 1.12 8.28867 1.10133 8.358 1.08C8.43267 1.05867 8.50467 1.04 8.574 1.024C8.64333 1.008 8.73133 1 8.838 1C8.91267 1 8.98733 1.008 9.062 1.024C9.142 1.03467 9.214 1.06667 9.278 1.12C9.342 1.168 9.39267 1.24 9.43 1.336C9.47267 1.432 9.494 1.56 9.494 1.72C9.494 1.88533 9.47267 2.016 9.43 2.112C9.38733 2.208 9.33133 2.28 9.262 2.328C9.198 2.376 9.126 2.408 9.046 2.424C8.97133 2.43467 8.89667 2.44 8.822 2.44C8.73667 2.44 8.662 2.432 8.598 2.416C8.534 2.4 8.462 2.38133 8.382 2.36C8.30733 2.33867 8.21667 2.32 8.11 2.304C8.00333 2.288 7.86467 2.28 7.694 2.28C7.65133 2.28 7.61133 2.28267 7.574 2.288C7.53667 2.288 7.502 2.288 7.47 2.288C7.36867 2.29867 7.31267 2.352 7.302 2.448C7.29133 2.57067 7.278 2.69067 7.262 2.808C7.25133 2.92533 7.24067 3.04267 7.23 3.16C7.21933 3.26667 7.26467 3.32 7.366 3.32H7.454C7.62467 3.32 7.76067 3.312 7.862 3.296C7.96333 3.28 8.04867 3.26133 8.118 3.24C8.19267 3.21867 8.26467 3.2 8.334 3.184C8.40333 3.168 8.49133 3.16 8.598 3.16C8.67267 3.16 8.74733 3.17067 8.822 3.192C8.902 3.208 8.974 3.24267 9.038 3.296C9.102 3.34933 9.15267 3.42667 9.19 3.528C9.23267 3.62933 9.254 3.76 9.254 3.92C9.254 4.08533 9.23267 4.21867 9.19 4.32C9.14733 4.416 9.09133 4.49067 9.022 4.544C8.958 4.59733 8.886 4.63467 8.806 4.656C8.73133 4.672 8.65667 4.68 8.582 4.68C8.49667 4.68 8.422 4.672 8.358 4.656C8.294 4.64 8.222 4.62133 8.142 4.6C8.06733 4.57867 7.97667 4.56 7.87 4.544C7.76333 4.528 7.62467 4.52 7.454 4.52H7.35C7.30733 4.52 7.27 4.536 7.238 4.568C7.21133 4.59467 7.20067 4.632 7.206 4.68C7.21667 4.79733 7.22733 4.91467 7.238 5.032C7.254 5.144 7.27 5.26133 7.286 5.384C7.29667 5.48533 7.35267 5.54133 7.454 5.552ZM13.5474 6.704C13.51 6.65067 13.4887 6.6 13.4834 6.552L12.0914 3.64C12.07 3.59733 12.0514 3.57867 12.0354 3.584C12.0247 3.584 12.0194 3.608 12.0194 3.656V3.76V4C12.0194 4.17067 12.03 4.352 12.0514 4.544C12.078 4.73067 12.1074 4.92267 12.1394 5.12C12.1714 5.31733 12.198 5.52 12.2194 5.728C12.246 5.93067 12.2594 6.136 12.2594 6.344C12.2594 6.41867 12.246 6.496 12.2194 6.576C12.1927 6.65067 12.1474 6.72 12.0834 6.784C12.0194 6.848 11.9314 6.90133 11.8194 6.944C11.7127 6.98133 11.5794 7 11.4194 7C11.254 7 11.1207 6.97867 11.0194 6.936C10.9234 6.89333 10.8487 6.84 10.7954 6.776C10.742 6.70667 10.7047 6.63467 10.6834 6.56C10.6674 6.48 10.6594 6.40267 10.6594 6.328C10.6594 6.14133 10.6674 5.96 10.6834 5.784C10.6994 5.608 10.718 5.43467 10.7394 5.264C10.7607 5.088 10.7794 4.91733 10.7954 4.752C10.8114 4.58133 10.8194 4.41067 10.8194 4.24V3.76C10.8194 3.58933 10.8114 3.42133 10.7954 3.256C10.7794 3.08533 10.7607 2.91467 10.7394 2.744C10.718 2.568 10.6994 2.392 10.6834 2.216C10.6674 2.04 10.6594 1.85867 10.6594 1.672C10.6594 1.59733 10.6674 1.52267 10.6834 1.448C10.7047 1.368 10.742 1.296 10.7954 1.232C10.8487 1.16267 10.9234 1.10667 11.0194 1.064C11.1207 1.02133 11.254 1 11.4194 1H11.7554C11.862 1 11.9607 1.02933 12.0514 1.088C12.142 1.14133 12.2087 1.21333 12.2514 1.304L13.5474 3.944C13.5687 3.98667 13.5847 4.008 13.5954 4.008C13.6114 4.00267 13.6194 3.976 13.6194 3.928V3.76C13.6194 3.58933 13.606 3.42133 13.5794 3.256C13.558 3.08533 13.5314 2.91467 13.4994 2.744C13.4674 2.568 13.438 2.392 13.4114 2.216C13.39 2.04 13.3794 1.85867 13.3794 1.672C13.3794 1.59733 13.3927 1.52267 13.4194 1.448C13.446 1.368 13.4914 1.296 13.5554 1.232C13.6194 1.16267 13.7047 1.10667 13.8114 1.064C13.918 1.02133 14.054 1 14.2194 1C14.3794 1 14.51 1.02133 14.6114 1.064C14.7127 1.10133 14.79 1.152 14.8434 1.216C14.8967 1.28 14.9314 1.352 14.9474 1.432C14.9687 1.50667 14.9794 1.58133 14.9794 1.656C14.9794 1.864 14.9714 2.05867 14.9554 2.24C14.9394 2.42133 14.9207 2.59733 14.8994 2.768C14.878 2.93333 14.8594 3.09867 14.8434 3.264C14.8274 3.424 14.8194 3.58933 14.8194 3.76V4.24C14.8194 4.41067 14.8274 4.57867 14.8434 4.744C14.8594 4.904 14.878 5.06933 14.8994 5.24C14.9207 5.40533 14.9394 5.57867 14.9554 5.76C14.9714 5.94133 14.9794 6.136 14.9794 6.344C14.9794 6.41333 14.9714 6.48533 14.9554 6.56C14.9394 6.63467 14.9047 6.704 14.8514 6.768C14.8034 6.832 14.734 6.88533 14.6434 6.928C14.558 6.97067 14.4434 6.99467 14.2994 7H14.0274C13.9367 7 13.8487 6.97333 13.7634 6.92C13.678 6.86667 13.606 6.79467 13.5474 6.704ZM18.8021 2.456C18.7915 2.68533 18.7781 2.904 18.7621 3.112C18.7515 3.32 18.7461 3.536 18.7461 3.76V4.24C18.7461 4.41067 18.7541 4.57867 18.7701 4.744C18.7861 4.904 18.8048 5.06933 18.8261 5.24C18.8475 5.40533 18.8661 5.57867 18.8821 5.76C18.8981 5.94133 18.9061 6.136 18.9061 6.344C18.9061 6.41867 18.8955 6.496 18.8741 6.576C18.8528 6.65067 18.8101 6.72 18.7461 6.784C18.6875 6.848 18.6048 6.90133 18.4981 6.944C18.3968 6.98133 18.2661 7 18.1061 7C17.9408 7 17.8048 6.97867 17.6981 6.936C17.5968 6.89333 17.5168 6.84 17.4581 6.776C17.3995 6.70667 17.3595 6.63467 17.3381 6.56C17.3168 6.48 17.3061 6.40267 17.3061 6.328C17.3061 6.14133 17.3141 5.96 17.3301 5.784C17.3461 5.608 17.3648 5.43467 17.3861 5.264C17.4075 5.088 17.4261 4.91733 17.4421 4.752C17.4581 4.58133 17.4661 4.41067 17.4661 4.24V3.76C17.4661 3.54133 17.4581 3.32533 17.4421 3.112C17.4315 2.89867 17.4208 2.68 17.4101 2.456C17.3995 2.36533 17.3515 2.328 17.2661 2.344C17.1648 2.37067 17.0741 2.39467 16.9941 2.416C16.9195 2.432 16.8341 2.44 16.7381 2.44C16.6635 2.44 16.5861 2.43467 16.5061 2.424C16.4315 2.408 16.3595 2.376 16.2901 2.328C16.2261 2.28 16.1728 2.208 16.1301 2.112C16.0875 2.016 16.0661 1.88533 16.0661 1.72C16.0661 1.56 16.0848 1.432 16.1221 1.336C16.1648 1.24 16.2181 1.168 16.2821 1.12C16.3461 1.06667 16.4155 1.03467 16.4901 1.024C16.5701 1.008 16.6475 1 16.7221 1C16.8288 1 16.9195 1.008 16.9941 1.024C17.0741 1.03467 17.1541 1.048 17.2341 1.064C17.3195 1.07467 17.4155 1.088 17.5221 1.104C17.6341 1.11467 17.7755 1.12 17.9461 1.12H18.2661C18.4368 1.12 18.5755 1.11467 18.6821 1.104C18.7941 1.088 18.8901 1.07467 18.9701 1.064C19.0555 1.048 19.1355 1.03467 19.2101 1.024C19.2901 1.008 19.3835 1 19.4901 1C19.5648 1 19.6395 1.008 19.7141 1.024C19.7941 1.03467 19.8661 1.06667 19.9301 1.12C19.9941 1.168 20.0448 1.24 20.0821 1.336C20.1248 1.432 20.1461 1.56 20.1461 1.72C20.1461 1.88533 20.1248 2.016 20.0821 2.112C20.0395 2.208 19.9835 2.28 19.9141 2.328C19.8501 2.376 19.7781 2.408 19.6981 2.424C19.6235 2.43467 19.5488 2.44 19.4741 2.44C19.3781 2.44 19.2901 2.432 19.2101 2.416C19.1355 2.39467 19.0475 2.37067 18.9461 2.344C18.8608 2.328 18.8128 2.36533 18.8021 2.456ZM22.9399 5.552C22.9719 5.55733 23.0066 5.56 23.0439 5.56C23.0813 5.56 23.1213 5.56 23.1639 5.56C23.3346 5.56 23.4706 5.552 23.5719 5.536C23.6733 5.52 23.7586 5.50133 23.8279 5.48C23.9026 5.45867 23.9746 5.44 24.0439 5.424C24.1133 5.408 24.2013 5.4 24.3079 5.4C24.3826 5.4 24.4573 5.41067 24.5319 5.432C24.6119 5.45333 24.6839 5.496 24.7479 5.56C24.8119 5.61867 24.8626 5.70133 24.8999 5.808C24.9426 5.90933 24.9639 6.04 24.9639 6.2C24.9639 6.36533 24.9426 6.50133 24.8999 6.608C24.8573 6.70933 24.8013 6.78933 24.7319 6.848C24.6679 6.90667 24.5959 6.94667 24.5159 6.968C24.4413 6.98933 24.3666 7 24.2919 7C24.2066 7 24.1319 6.992 24.0679 6.976C24.0039 6.96 23.9319 6.94133 23.8519 6.92C23.7773 6.89867 23.6866 6.88 23.5799 6.864C23.4733 6.848 23.3346 6.84 23.1639 6.84C23.0039 6.84 22.8733 6.848 22.7719 6.864C22.6706 6.87467 22.5826 6.89067 22.5079 6.912C22.3906 6.97067 22.2333 7 22.0359 7C21.8119 7 21.6226 6.94933 21.4679 6.848C21.3133 6.74133 21.2359 6.568 21.2359 6.328C21.2359 6.14133 21.2439 5.96 21.2599 5.784C21.2759 5.608 21.2946 5.43467 21.3159 5.264C21.3373 5.088 21.3559 4.91733 21.3719 4.752C21.3879 4.58133 21.3959 4.41067 21.3959 4.24V3.76C21.3959 3.58933 21.3879 3.42133 21.3719 3.256C21.3559 3.08533 21.3373 2.91467 21.3159 2.744C21.2946 2.568 21.2759 2.392 21.2599 2.216C21.2439 2.04 21.2359 1.85867 21.2359 1.672C21.2359 1.608 21.2439 1.54133 21.2599 1.472C21.2759 1.39733 21.3053 1.33067 21.3479 1.272C21.3959 1.21333 21.4573 1.16 21.5319 1.112C21.6119 1.064 21.7133 1.032 21.8359 1.016C21.8679 1.00533 21.8999 1 21.9319 1C21.9693 1 22.0039 1 22.0359 1C22.1959 1 22.3319 1.02133 22.4439 1.064C22.5239 1.09067 22.6146 1.11467 22.7159 1.136C22.8226 1.152 22.9773 1.16 23.1799 1.16C23.3506 1.16 23.4866 1.152 23.5879 1.136C23.6893 1.12 23.7746 1.10133 23.8439 1.08C23.9186 1.05867 23.9906 1.04 24.0599 1.024C24.1293 1.008 24.2173 1 24.3239 1C24.3986 1 24.4733 1.008 24.5479 1.024C24.6279 1.03467 24.6999 1.06667 24.7639 1.12C24.8279 1.168 24.8786 1.24 24.9159 1.336C24.9586 1.432 24.9799 1.56 24.9799 1.72C24.9799 1.88533 24.9586 2.016 24.9159 2.112C24.8733 2.208 24.8173 2.28 24.7479 2.328C24.6839 2.376 24.6119 2.408 24.5319 2.424C24.4573 2.43467 24.3826 2.44 24.3079 2.44C24.2226 2.44 24.1479 2.432 24.0839 2.416C24.0199 2.4 23.9479 2.38133 23.8679 2.36C23.7933 2.33867 23.7026 2.32 23.5959 2.304C23.4893 2.288 23.3506 2.28 23.1799 2.28C23.1373 2.28 23.0973 2.28267 23.0599 2.288C23.0226 2.288 22.9879 2.288 22.9559 2.288C22.8546 2.29867 22.7986 2.352 22.7879 2.448C22.7773 2.57067 22.7639 2.69067 22.7479 2.808C22.7373 2.92533 22.7266 3.04267 22.7159 3.16C22.7053 3.26667 22.7506 3.32 22.8519 3.32H22.9399C23.1106 3.32 23.2466 3.312 23.3479 3.296C23.4493 3.28 23.5346 3.26133 23.6039 3.24C23.6786 3.21867 23.7506 3.2 23.8199 3.184C23.8893 3.168 23.9773 3.16 24.0839 3.16C24.1586 3.16 24.2333 3.17067 24.3079 3.192C24.3879 3.208 24.4599 3.24267 24.5239 3.296C24.5879 3.34933 24.6386 3.42667 24.6759 3.528C24.7186 3.62933 24.7399 3.76 24.7399 3.92C24.7399 4.08533 24.7186 4.21867 24.6759 4.32C24.6333 4.416 24.5773 4.49067 24.5079 4.544C24.4439 4.59733 24.3719 4.63467 24.2919 4.656C24.2173 4.672 24.1426 4.68 24.0679 4.68C23.9826 4.68 23.9079 4.672 23.8439 4.656C23.7799 4.64 23.7079 4.62133 23.6279 4.6C23.5533 4.57867 23.4626 4.56 23.3559 4.544C23.2493 4.528 23.1106 4.52 22.9399 4.52H22.8359C22.7933 4.52 22.7559 4.536 22.7239 4.568C22.6973 4.59467 22.6866 4.632 22.6919 4.68C22.7026 4.79733 22.7133 4.91467 22.7239 5.032C22.7399 5.144 22.7559 5.26133 22.7719 5.384C22.7826 5.48533 22.8386 5.54133 22.9399 5.552ZM27.6333 4.912C27.66 5.136 27.684 5.36267 27.7053 5.592C27.732 5.816 27.7453 6.06667 27.7453 6.344C27.7453 6.41867 27.7346 6.496 27.7133 6.576C27.692 6.65067 27.6493 6.72 27.5853 6.784C27.5266 6.848 27.444 6.90133 27.3373 6.944C27.236 6.98133 27.1053 7 26.9453 7C26.78 7 26.644 6.97867 26.5373 6.936C26.436 6.89333 26.356 6.84 26.2973 6.776C26.2386 6.70667 26.1986 6.63467 26.1773 6.56C26.156 6.48 26.1453 6.40267 26.1453 6.328C26.1453 6.14133 26.1533 5.96 26.1693 5.784C26.1853 5.608 26.204 5.43467 26.2253 5.264C26.2466 5.088 26.2653 4.91733 26.2813 4.752C26.2973 4.58133 26.3053 4.41067 26.3053 4.24V3.76C26.3053 3.58933 26.2973 3.42133 26.2813 3.256C26.2653 3.08533 26.2466 2.91467 26.2253 2.744C26.204 2.568 26.1853 2.392 26.1693 2.216C26.1533 2.04 26.1453 1.85867 26.1453 1.672C26.1453 1.59733 26.156 1.52267 26.1773 1.448C26.1986 1.368 26.2386 1.296 26.2973 1.232C26.3613 1.16267 26.444 1.10667 26.5453 1.064C26.652 1.02133 26.788 1 26.9533 1H27.9933C28.8093 1 29.4333 1.14933 29.8653 1.448C30.2973 1.74133 30.5133 2.21867 30.5133 2.88C30.5133 3.26933 30.42 3.59733 30.2333 3.864C30.052 4.12533 29.8013 4.33333 29.4813 4.488C29.4013 4.53067 29.3906 4.58133 29.4493 4.64C29.6146 4.81067 29.7853 4.98133 29.9613 5.152C30.1426 5.32267 30.3266 5.52267 30.5133 5.752C30.5613 5.81067 30.5986 5.87733 30.6253 5.952C30.6573 6.02667 30.6706 6.10933 30.6653 6.2C30.66 6.28533 30.6306 6.37867 30.5773 6.48C30.524 6.576 30.4333 6.672 30.3053 6.768C30.1773 6.86933 30.0573 6.936 29.9453 6.968C29.8386 7 29.74 7.01067 29.6493 7C29.564 6.984 29.4893 6.952 29.4253 6.904C29.3613 6.856 29.3053 6.80267 29.2573 6.744C29.14 6.6 29.0306 6.45333 28.9293 6.304C28.8333 6.15467 28.74 6.008 28.6493 5.864C28.5586 5.72 28.4653 5.57867 28.3693 5.44C28.2786 5.30133 28.18 5.16533 28.0733 5.032L27.9533 4.88C27.9 4.816 27.8306 4.784 27.7453 4.784C27.66 4.784 27.6226 4.82667 27.6333 4.912ZM27.9933 3.68C28.404 3.68 28.6946 3.60267 28.8653 3.448C29.036 3.288 29.1213 3.096 29.1213 2.872C29.1213 2.76 29.1053 2.65867 29.0733 2.568C29.0413 2.47733 28.9826 2.4 28.8973 2.336C28.812 2.272 28.6946 2.22133 28.5453 2.184C28.4013 2.14667 28.2173 2.128 27.9933 2.128H27.8653C27.78 2.128 27.732 2.17333 27.7213 2.264C27.7 2.49333 27.676 2.712 27.6493 2.92C27.6226 3.12267 27.604 3.33067 27.5933 3.544C27.5933 3.63467 27.636 3.68 27.7213 3.68H27.9933Z" fill="black"/>
</svg>
