<svg width="127" height="19" viewBox="0 0 127 19" fill="none" xmlns="http://www.w3.org/2000/svg">
<path fill-rule="evenodd" clip-rule="evenodd" d="M127 0H0V19H127V0ZM3.008 5.56C2.97067 5.56 2.936 5.55733 2.904 5.552C2.80267 5.54133 2.74667 5.48533 2.736 5.384C2.72 5.26133 2.704 5.144 2.688 5.032L2.656 4.68C2.65067 4.632 2.66133 4.59467 2.688 4.568C2.72 4.536 2.75733 4.52 2.8 4.52H2.904C3.07467 4.52 3.21333 4.528 3.32 4.544C3.42667 4.56 3.51733 4.57867 3.592 4.6C3.672 4.62133 3.744 4.64 3.808 4.656C3.872 4.672 3.94667 4.68 4.032 4.68C4.10667 4.68 4.18133 4.672 4.256 4.656C4.336 4.63467 4.408 4.59733 4.472 4.544C4.54133 4.49067 4.59733 4.416 4.64 4.32C4.68267 4.21867 4.704 4.08533 4.704 3.92C4.704 3.76 4.68267 3.62933 4.64 3.528C4.60267 3.42667 4.552 3.34933 4.488 3.296C4.424 3.24267 4.352 3.208 4.272 3.192C4.19733 3.17067 4.12267 3.16 4.048 3.16C3.94133 3.16 3.85333 3.168 3.784 3.184C3.71467 3.2 3.64267 3.21867 3.568 3.24C3.49867 3.26133 3.41333 3.28 3.312 3.296C3.21067 3.312 3.07467 3.32 2.904 3.32H2.816C2.71467 3.32 2.66933 3.26667 2.68 3.16L2.712 2.808C2.728 2.69067 2.74133 2.57067 2.752 2.448C2.76267 2.352 2.81867 2.29867 2.92 2.288H3.024C3.06133 2.28267 3.10133 2.28 3.144 2.28C3.31467 2.28 3.45333 2.288 3.56 2.304C3.66667 2.32 3.75733 2.33867 3.832 2.36C3.912 2.38133 3.984 2.4 4.048 2.416C4.112 2.432 4.18667 2.44 4.272 2.44C4.34667 2.44 4.42133 2.43467 4.496 2.424C4.576 2.408 4.648 2.376 4.712 2.328C4.78133 2.28 4.83733 2.208 4.88 2.112C4.92267 2.016 4.944 1.88533 4.944 1.72C4.944 1.56 4.92267 1.432 4.88 1.336C4.84267 1.24 4.792 1.168 4.728 1.12C4.664 1.06667 4.592 1.03467 4.512 1.024C4.43733 1.008 4.36267 1 4.288 1C4.18133 1 4.09333 1.008 4.024 1.024C3.95467 1.04 3.88267 1.05867 3.808 1.08C3.73867 1.10133 3.65333 1.12 3.552 1.136C3.45067 1.152 3.31467 1.16 3.144 1.16C2.94133 1.16 2.78667 1.152 2.68 1.136C2.57867 1.11467 2.488 1.09067 2.408 1.064C2.296 1.02133 2.16 1 2 1H1.896C1.864 1 1.832 1.00533 1.8 1.016C1.67733 1.032 1.576 1.064 1.496 1.112C1.42133 1.16 1.36 1.21333 1.312 1.272C1.26933 1.33067 1.24 1.39733 1.224 1.472C1.208 1.54133 1.2 1.608 1.2 1.672C1.2 1.85867 1.208 2.04 1.224 2.216C1.24 2.392 1.25867 2.568 1.28 2.744C1.30133 2.91467 1.32 3.08533 1.336 3.256C1.352 3.42133 1.36 3.58933 1.36 3.76V4.24C1.36 4.41067 1.352 4.58133 1.336 4.752C1.32 4.91733 1.30133 5.088 1.28 5.264C1.25867 5.43467 1.24 5.608 1.224 5.784C1.208 5.96 1.2 6.14133 1.2 6.328C1.2 6.568 1.27733 6.74133 1.432 6.848C1.58667 6.94933 1.776 7 2 7C2.19733 7 2.35467 6.97067 2.472 6.912C2.54667 6.89067 2.63467 6.87467 2.736 6.864C2.83733 6.848 2.968 6.84 3.128 6.84C3.29867 6.84 3.43733 6.848 3.544 6.864C3.65067 6.88 3.74133 6.89867 3.816 6.92C3.896 6.94133 3.968 6.96 4.032 6.976C4.096 6.992 4.17067 7 4.256 7C4.33067 7 4.40533 6.98933 4.48 6.968C4.56 6.94667 4.632 6.90667 4.696 6.848C4.76533 6.78933 4.82133 6.70933 4.864 6.608C4.90667 6.50133 4.928 6.36533 4.928 6.2C4.928 6.04 4.90667 5.90933 4.864 5.808C4.82667 5.70133 4.776 5.61867 4.712 5.56C4.648 5.496 4.576 5.45333 4.496 5.432C4.42133 5.41067 4.34667 5.4 4.272 5.4C4.16533 5.4 4.07733 5.408 4.008 5.424C3.93867 5.44 3.86667 5.45867 3.792 5.48C3.72267 5.50133 3.63733 5.52 3.536 5.536C3.43467 5.552 3.29867 5.56 3.128 5.56H3.008ZM7.42938 4.568C7.42938 4.53067 7.43204 4.49067 7.43738 4.448C7.44804 4.31467 7.49604 4.2 7.58138 4.104C7.66138 4.01333 7.73871 3.94667 7.81338 3.904C7.89338 3.856 7.96804 3.824 8.03738 3.808C8.10671 3.792 8.17071 3.78667 8.22938 3.792C8.29338 3.792 8.34938 3.79733 8.39738 3.808C8.64271 3.86133 8.76538 4.25333 8.76538 4.984V5.032C8.76538 5.15467 8.75738 5.27733 8.74137 5.4C8.72538 5.52267 8.70671 5.64267 8.68538 5.76C8.66404 5.87733 8.64538 5.98933 8.62938 6.096C8.61338 6.20267 8.60538 6.304 8.60538 6.4C8.60538 6.464 8.61338 6.53067 8.62938 6.6C8.64538 6.66933 8.68004 6.736 8.73338 6.8C8.78671 6.85867 8.85871 6.90667 8.94938 6.944C9.04538 6.98133 9.17071 7 9.32538 7C9.48004 7 9.60271 6.98133 9.69338 6.944C9.78938 6.90667 9.86138 6.85867 9.90938 6.8C9.96271 6.74133 9.99738 6.68 10.0134 6.616C10.0347 6.54667 10.0454 6.48 10.0454 6.416C10.0454 6.192 10.0187 5.968 9.96538 5.744C9.91204 5.51467 9.88538 5.27733 9.88538 5.032V4.984C9.88538 4.87733 9.89071 4.77333 9.90137 4.672C9.91738 4.56533 9.93338 4.46133 9.94938 4.36C9.96004 4.296 9.97871 4.23467 10.0054 4.176C10.032 4.112 10.0667 4.06133 10.1094 4.024C10.2587 3.88533 10.3974 3.81067 10.5254 3.8C10.6534 3.784 10.7627 3.78667 10.8534 3.808C11.0987 3.86133 11.2214 4.25333 11.2214 4.984V5.032C11.2214 5.15467 11.2134 5.27733 11.1974 5.4C11.1814 5.52267 11.1627 5.64267 11.1414 5.76C11.12 5.87733 11.1014 5.98933 11.0854 6.096C11.0694 6.20267 11.0614 6.304 11.0614 6.4C11.0614 6.464 11.072 6.53067 11.0934 6.6C11.1147 6.66933 11.152 6.736 11.2054 6.8C11.264 6.85867 11.3414 6.90667 11.4374 6.944C11.5387 6.98133 11.6667 7 11.8214 7C11.976 7 12.1014 6.98133 12.1974 6.944C12.2934 6.90667 12.3707 6.85867 12.4294 6.8C12.488 6.74133 12.528 6.68 12.5494 6.616C12.5707 6.54667 12.5814 6.48 12.5814 6.416C12.5814 6.192 12.5547 5.968 12.5014 5.744C12.448 5.51467 12.4214 5.27733 12.4214 5.032V4.984C12.4214 4.73333 12.448 4.496 12.5014 4.272C12.5547 4.04267 12.5814 3.81867 12.5814 3.6C12.5814 3.36 12.52 3.17333 12.3974 3.04C12.2747 2.90133 12.1227 2.8 11.9414 2.736C11.7654 2.672 11.5787 2.64 11.3814 2.64C11.184 2.64 11.0107 2.656 10.8614 2.688C10.664 2.73067 10.4934 2.80533 10.3494 2.912C10.2107 3.01867 10.0934 3.13867 9.99738 3.272C9.94404 3.112 9.85338 2.98667 9.72538 2.896C9.60271 2.8 9.46404 2.73333 9.30938 2.696C9.16004 2.65333 9.00271 2.63467 8.83738 2.64C8.67738 2.64533 8.53338 2.66133 8.40538 2.688C8.21871 2.73067 8.05871 2.8 7.92537 2.896C7.79204 2.98667 7.67738 3.09333 7.58138 3.216C7.56538 3.09333 7.50138 2.97867 7.38938 2.872C7.28271 2.76533 7.09604 2.712 6.82938 2.712C6.67471 2.712 6.54671 2.73333 6.44538 2.776C6.34938 2.81333 6.27204 2.86133 6.21338 2.92C6.16004 2.97867 6.12271 3.04267 6.10138 3.112C6.08004 3.18133 6.06938 3.248 6.06938 3.312C6.06938 3.408 6.07738 3.50933 6.09338 3.616C6.10938 3.72267 6.12804 3.83467 6.14937 3.952C6.17071 4.06933 6.18938 4.192 6.20538 4.32C6.22137 4.44267 6.22938 4.56533 6.22938 4.688V5.032C6.22938 5.15467 6.22137 5.27733 6.20538 5.4C6.18938 5.52267 6.17071 5.64267 6.14937 5.76C6.12804 5.87733 6.10938 5.98933 6.09338 6.096C6.07738 6.20267 6.06938 6.304 6.06938 6.4C6.06938 6.464 6.08004 6.53067 6.10138 6.6C6.12271 6.66933 6.16004 6.736 6.21338 6.8C6.27204 6.85867 6.34938 6.90667 6.44538 6.944C6.54671 6.98133 6.67471 7 6.82938 7C6.98404 7 7.10938 6.98133 7.20538 6.944C7.30138 6.90667 7.37871 6.85867 7.43738 6.8C7.49604 6.74133 7.53604 6.68 7.55738 6.616C7.57871 6.54667 7.58938 6.48 7.58938 6.416C7.58938 6.192 7.56271 5.968 7.50938 5.744C7.45604 5.51467 7.42938 5.27733 7.42938 5.032V4.688V4.568ZM15.7775 2.76C15.5588 2.82933 15.3642 2.92533 15.1935 3.048C15.1135 3.10133 15.0788 3.08533 15.0895 3L15.1695 2.28C15.2015 2.04 15.2175 1.784 15.2175 1.512C15.2175 1.43733 15.2068 1.36267 15.1855 1.288C15.1695 1.208 15.1348 1.136 15.0815 1.072C15.0282 1.00267 14.9508 0.946667 14.8495 0.904C14.7535 0.861333 14.6228 0.84 14.4575 0.84C14.2975 0.84 14.1668 0.861333 14.0655 0.904C13.9642 0.941333 13.8868 0.992 13.8335 1.056C13.7802 1.12 13.7428 1.192 13.7215 1.272C13.7055 1.34667 13.6975 1.42133 13.6975 1.496C13.6975 1.704 13.7055 1.89867 13.7215 2.08C13.7375 2.26133 13.7562 2.43733 13.7775 2.608C13.7988 2.77333 13.8175 2.93867 13.8335 3.104C13.8495 3.264 13.8575 3.42933 13.8575 3.6V4.24C13.8575 4.41067 13.8495 4.57867 13.8335 4.744C13.8175 4.904 13.7988 5.06933 13.7775 5.24C13.7562 5.40533 13.7375 5.57867 13.7215 5.76C13.7055 5.94133 13.6975 6.136 13.6975 6.344C13.6975 6.41867 13.7055 6.496 13.7215 6.576C13.7428 6.65067 13.7802 6.72 13.8335 6.784C13.8868 6.848 13.9642 6.90133 14.0655 6.944C14.1668 6.98133 14.2975 7 14.4575 7C14.7082 6.99467 14.8868 6.94933 14.9935 6.864C15.1002 6.77333 15.1668 6.66933 15.1935 6.552C15.3588 6.70667 15.5508 6.83467 15.7695 6.936C15.9935 7.032 16.2442 7.08 16.5215 7.08C16.6602 7.08 16.8308 7.05333 17.0335 7C17.2362 6.94667 17.4308 6.84267 17.6175 6.688C17.8095 6.53333 17.9722 6.31733 18.1055 6.04C18.2388 5.76267 18.3055 5.39733 18.3055 4.944C18.3055 4.52267 18.2548 4.168 18.1535 3.88C18.0575 3.58667 17.9268 3.34933 17.7615 3.168C17.5962 2.98667 17.4068 2.856 17.1935 2.776C16.9802 2.69067 16.7562 2.648 16.5215 2.648C16.2442 2.648 15.9962 2.68533 15.7775 2.76ZM16.7855 3.992C16.9508 4.17867 17.0335 4.472 17.0335 4.872C17.0335 5.01067 17.0202 5.14133 16.9935 5.264C16.9668 5.38667 16.9188 5.496 16.8495 5.592C16.7802 5.68267 16.6842 5.75733 16.5615 5.816C16.4442 5.86933 16.2948 5.896 16.1135 5.896C15.7882 5.896 15.5295 5.81333 15.3375 5.648C15.1455 5.47733 15.0442 5.21867 15.0335 4.872C15.0282 4.696 15.0575 4.536 15.1215 4.392C15.1908 4.248 15.2788 4.12533 15.3855 4.024C15.4922 3.92267 15.6095 3.84533 15.7375 3.792C15.8655 3.73867 15.9908 3.712 16.1135 3.712C16.4015 3.712 16.6255 3.80533 16.7855 3.992ZM20.7638 4.6C20.7691 4.568 20.7717 4.53867 20.7717 4.512C20.7771 4.45333 20.7904 4.39467 20.8118 4.336C20.8384 4.272 20.8731 4.21867 20.9158 4.176C21.0064 4.08533 21.0971 4.02133 21.1877 3.984C21.2784 3.94667 21.3638 3.92533 21.4438 3.92C21.5238 3.90933 21.5984 3.912 21.6677 3.928C21.7371 3.944 21.7957 3.96 21.8438 3.976C21.9611 4.01333 22.0731 4.02933 22.1798 4.024C22.2864 4.01867 22.3744 3.984 22.4438 3.92C22.5238 3.84533 22.5877 3.73867 22.6357 3.6C22.6838 3.46133 22.6917 3.32533 22.6597 3.192C22.6331 3.05333 22.5557 2.936 22.4277 2.84C22.3051 2.73867 22.1104 2.688 21.8438 2.688C21.6357 2.688 21.4544 2.74133 21.2997 2.848C21.1504 2.94933 21.0224 3.072 20.9158 3.216C20.8997 3.09333 20.8358 2.97867 20.7237 2.872C20.6171 2.76533 20.4304 2.712 20.1637 2.712C20.0091 2.712 19.8811 2.73333 19.7797 2.776C19.6838 2.81333 19.6064 2.86133 19.5478 2.92C19.4944 2.97867 19.4571 3.04267 19.4357 3.112C19.4144 3.18133 19.4037 3.248 19.4037 3.312C19.4037 3.408 19.4117 3.50933 19.4277 3.616C19.4438 3.72267 19.4624 3.83467 19.4837 3.952C19.5051 4.06933 19.5238 4.192 19.5397 4.32C19.5557 4.44267 19.5637 4.56533 19.5637 4.688V5.032C19.5637 5.15467 19.5557 5.27733 19.5397 5.4C19.5238 5.52267 19.5051 5.64267 19.4837 5.76C19.4624 5.87733 19.4438 5.98933 19.4277 6.096C19.4117 6.20267 19.4037 6.304 19.4037 6.4C19.4037 6.464 19.4144 6.53067 19.4357 6.6C19.4571 6.66933 19.4944 6.736 19.5478 6.8C19.6064 6.85867 19.6838 6.90667 19.7797 6.944C19.8811 6.98133 20.0091 7 20.1637 7C20.3184 7 20.4438 6.98133 20.5397 6.944C20.6357 6.90667 20.7131 6.85867 20.7717 6.8C20.8304 6.74133 20.8704 6.68 20.8918 6.616C20.9131 6.54667 20.9237 6.48 20.9237 6.416C20.9237 6.192 20.8971 5.968 20.8438 5.744C20.7904 5.51467 20.7638 5.27733 20.7638 5.032V4.688V4.6ZM26.4059 4.8C26.4272 4.93333 26.4405 5.06133 26.4459 5.184C26.4459 5.31733 26.4059 5.432 26.3259 5.528C26.1659 5.71467 26.0139 5.832 25.8699 5.88C25.7259 5.92267 25.6032 5.93333 25.5019 5.912C25.2565 5.85867 25.1339 5.46667 25.1339 4.736V4.688C25.1339 4.56533 25.1419 4.44267 25.1579 4.32C25.1739 4.19733 25.1925 4.07733 25.2139 3.96C25.2352 3.84267 25.2539 3.73067 25.2699 3.624C25.2859 3.51733 25.2939 3.416 25.2939 3.32C25.2939 3.256 25.2832 3.18933 25.2619 3.12C25.2405 3.05067 25.2005 2.98667 25.1419 2.928C25.0885 2.864 25.0112 2.81333 24.9099 2.776C24.8139 2.73867 24.6885 2.72 24.5339 2.72C24.3845 2.72 24.2592 2.73867 24.1579 2.776C24.0619 2.81333 23.9845 2.86133 23.9259 2.92C23.8672 2.97867 23.8272 3.04267 23.8059 3.112C23.7845 3.176 23.7739 3.24 23.7739 3.304C23.7739 3.528 23.8005 3.75467 23.8539 3.984C23.9072 4.208 23.9339 4.44267 23.9339 4.688V4.736C23.9339 4.98667 23.9232 5.21333 23.9019 5.416C23.8805 5.61333 23.8699 5.82133 23.8699 6.04C23.8699 6.232 23.9072 6.39467 23.9819 6.528C24.0619 6.66133 24.1605 6.768 24.2779 6.848C24.4005 6.928 24.5339 6.984 24.6779 7.016C24.8272 7.05333 24.9739 7.072 25.1179 7.072C25.2245 7.072 25.3392 7.06133 25.4619 7.04C25.5845 7.01867 25.7045 6.98933 25.8219 6.952C25.9445 6.91467 26.0619 6.86933 26.1739 6.816C26.2859 6.76267 26.3845 6.70667 26.4699 6.648C26.4645 6.78133 26.4459 6.91467 26.4139 7.048C26.3819 7.18667 26.3285 7.30933 26.2539 7.416C26.1845 7.528 26.0912 7.616 25.9739 7.68C25.8565 7.74933 25.7072 7.784 25.5259 7.784C25.3552 7.784 25.1765 7.768 24.9899 7.736C24.8085 7.70933 24.5925 7.63467 24.3419 7.512C24.2139 7.45333 24.0992 7.424 23.9979 7.424C23.8805 7.424 23.7739 7.45333 23.6779 7.512C23.5872 7.57067 23.5179 7.64533 23.4699 7.736C23.4219 7.82667 23.4005 7.928 23.4059 8.04C23.4112 8.152 23.4512 8.25867 23.5259 8.36C23.6805 8.57333 23.9125 8.74667 24.2219 8.88C24.5312 9.01333 24.8859 9.08 25.2859 9.08C25.6912 9.08 26.0299 9.04533 26.3019 8.976C26.5792 8.90667 26.8059 8.808 26.9819 8.68C27.1579 8.55733 27.2912 8.408 27.3819 8.232C27.4779 8.06133 27.5445 7.87467 27.5819 7.672C27.6245 7.46933 27.6485 7.25333 27.6539 7.024C27.6592 6.79467 27.6619 6.56 27.6619 6.32V5.52C27.6619 5.34933 27.6672 5.184 27.6779 5.024L27.7099 4.528C27.7259 4.35733 27.7392 4.18133 27.7499 4C27.7605 3.81867 27.7659 3.624 27.7659 3.416C27.7659 3.34133 27.7552 3.264 27.7339 3.184C27.7179 3.104 27.6832 3.032 27.6299 2.968C27.5765 2.89867 27.5019 2.84267 27.4059 2.8C27.3099 2.75733 27.1819 2.736 27.0219 2.736C26.7819 2.736 26.5925 2.78933 26.4539 2.896C26.3152 3.00267 26.2459 3.18133 26.2459 3.432C26.2459 3.59733 26.2539 3.75733 26.2699 3.912C26.2912 4.06667 26.3125 4.21867 26.3339 4.368C26.3605 4.51733 26.3845 4.66133 26.4059 4.8ZM29.0306 4.016C28.9186 4.29333 28.8626 4.60267 28.8626 4.944C28.8626 5.32267 28.9186 5.648 29.0306 5.92C29.1426 6.18667 29.2972 6.408 29.4946 6.584C29.6972 6.75467 29.9372 6.88 30.2146 6.96C30.4972 7.04 30.8066 7.08 31.1426 7.08C31.4786 7.08 31.7852 7.04 32.0626 6.96C32.3452 6.88 32.5852 6.75467 32.7826 6.584C32.9852 6.408 33.1399 6.18667 33.2466 5.92C33.3586 5.648 33.4146 5.32267 33.4146 4.944C33.4146 4.60267 33.3586 4.29333 33.2466 4.016C33.1346 3.73333 32.9772 3.49067 32.7746 3.288C32.5719 3.08533 32.3319 2.928 32.0546 2.816C31.7772 2.704 31.4732 2.648 31.1426 2.648C30.8119 2.648 30.5052 2.704 30.2226 2.816C29.9452 2.928 29.7052 3.08533 29.5026 3.288C29.2999 3.49067 29.1426 3.73333 29.0306 4.016ZM30.1746 5.264C30.1479 5.14133 30.1346 5.01067 30.1346 4.872C30.1346 4.51467 30.2226 4.232 30.3986 4.024C30.5746 3.816 30.8252 3.712 31.1506 3.712C31.4759 3.712 31.7266 3.816 31.9026 4.024C32.0786 4.232 32.1666 4.51467 32.1666 4.872C32.1666 5.01067 32.1506 5.14133 32.1186 5.264C32.0919 5.38667 32.0386 5.496 31.9586 5.592C31.8839 5.68267 31.7799 5.75733 31.6466 5.816C31.5186 5.86933 31.3532 5.896 31.1506 5.896C30.9479 5.896 30.7799 5.86933 30.6466 5.816C30.5186 5.75733 30.4146 5.68267 30.3346 5.592C30.2599 5.496 30.2066 5.38667 30.1746 5.264ZM36.1149 4C36.0562 3.95733 36.0269 3.912 36.0269 3.864C36.0269 3.784 36.0775 3.736 36.1789 3.72C36.2802 3.69867 36.3869 3.688 36.4989 3.688C36.5949 3.688 36.7389 3.70933 36.9309 3.752C37.1282 3.78933 37.3282 3.856 37.5309 3.952C37.7015 4.032 37.8535 4.048 37.9869 4C38.1202 3.94667 38.2135 3.864 38.2669 3.752C38.3202 3.64 38.3229 3.51467 38.2749 3.376C38.2322 3.23733 38.1202 3.12267 37.9389 3.032C37.8695 3 37.7789 2.96267 37.6669 2.92C37.5549 2.872 37.4295 2.82933 37.2909 2.792C37.1575 2.74933 37.0162 2.71467 36.8669 2.688C36.7175 2.66133 36.5709 2.648 36.4269 2.648C36.1229 2.648 35.8642 2.68267 35.6509 2.752C35.4375 2.82133 35.2615 2.912 35.1229 3.024C34.9895 3.136 34.8909 3.26133 34.8269 3.4C34.7682 3.53867 34.7389 3.68 34.7389 3.824C34.7389 4 34.7682 4.152 34.8269 4.28C34.8855 4.408 34.9762 4.52267 35.0989 4.624C35.2269 4.72533 35.3842 4.81867 35.5709 4.904C35.7575 4.984 35.9789 5.06667 36.2349 5.152C36.5175 5.24267 36.7309 5.32267 36.8749 5.392C37.0189 5.46133 37.0909 5.55467 37.0909 5.672C37.0909 5.73067 37.0749 5.776 37.0429 5.808C37.0109 5.83467 36.9735 5.856 36.9309 5.872C36.8882 5.88267 36.8455 5.89067 36.8029 5.896H36.7069C36.6642 5.896 36.6029 5.89333 36.5229 5.888C36.4482 5.87733 36.3602 5.85333 36.2589 5.816C36.1575 5.77867 36.0455 5.72533 35.9229 5.656C35.8002 5.58667 35.6695 5.49067 35.5309 5.368C35.4402 5.288 35.3415 5.24267 35.2349 5.232C35.1335 5.22133 35.0349 5.23733 34.9389 5.28C34.8482 5.32267 34.7655 5.38667 34.6909 5.472C34.6162 5.55733 34.5602 5.65067 34.5229 5.752C34.4909 5.848 34.4829 5.94933 34.4989 6.056C34.5149 6.15733 34.5629 6.25333 34.6429 6.344C34.7922 6.49867 34.9522 6.624 35.1229 6.72C35.2989 6.816 35.4775 6.89067 35.6589 6.944C35.8402 6.99733 36.0215 7.032 36.2029 7.048C36.3842 7.06933 36.5549 7.08 36.7149 7.08C36.8322 7.08 36.9842 7.06133 37.1709 7.024C37.3629 6.992 37.5469 6.92533 37.7229 6.824C37.9042 6.72267 38.0589 6.57867 38.1869 6.392C38.3202 6.20533 38.3869 5.96267 38.3869 5.664C38.3869 5.45067 38.3442 5.26933 38.2589 5.12C38.1735 4.96533 38.0642 4.83467 37.9309 4.728C37.7975 4.62133 37.6455 4.53333 37.4749 4.464C37.3095 4.39467 37.1469 4.336 36.9869 4.288C36.8802 4.256 36.7709 4.22667 36.6589 4.2C36.5469 4.168 36.4429 4.136 36.3469 4.104C36.2562 4.072 36.1789 4.03733 36.1149 4ZM42.5165 4.016C42.4045 4.29333 42.3485 4.60267 42.3485 4.944C42.3485 5.32267 42.4045 5.648 42.5165 5.92C42.6285 6.18667 42.7832 6.408 42.9805 6.584C43.1832 6.75467 43.4232 6.88 43.7005 6.96C43.9832 7.04 44.2925 7.08 44.6285 7.08C44.9645 7.08 45.2712 7.04 45.5485 6.96C45.8312 6.88 46.0712 6.75467 46.2685 6.584C46.4712 6.408 46.6258 6.18667 46.7325 5.92C46.8445 5.648 46.9005 5.32267 46.9005 4.944C46.9005 4.60267 46.8445 4.29333 46.7325 4.016C46.6205 3.73333 46.4632 3.49067 46.2605 3.288C46.0578 3.08533 45.8178 2.928 45.5405 2.816C45.2632 2.704 44.9592 2.648 44.6285 2.648C44.2978 2.648 43.9912 2.704 43.7085 2.816C43.4312 2.928 43.1912 3.08533 42.9885 3.288C42.7858 3.49067 42.6285 3.73333 42.5165 4.016ZM43.6605 5.264C43.6338 5.14133 43.6205 5.01067 43.6205 4.872C43.6205 4.51467 43.7085 4.232 43.8845 4.024C44.0605 3.816 44.3112 3.712 44.6365 3.712C44.9618 3.712 45.2125 3.816 45.3885 4.024C45.5645 4.232 45.6525 4.51467 45.6525 4.872C45.6525 5.01067 45.6365 5.14133 45.6045 5.264C45.5778 5.38667 45.5245 5.496 45.4445 5.592C45.3698 5.68267 45.2658 5.75733 45.1325 5.816C45.0045 5.86933 44.8392 5.896 44.6365 5.896C44.4338 5.896 44.2658 5.86933 44.1325 5.816C44.0045 5.75733 43.9005 5.68267 43.8205 5.592C43.7458 5.496 43.6925 5.38667 43.6605 5.264ZM48.4463 1.912C48.3823 2.12533 48.3369 2.35467 48.3102 2.6C48.2996 2.68 48.2489 2.72533 48.1582 2.736C48.0303 2.74667 47.9263 2.792 47.8463 2.872C47.7663 2.952 47.7289 3.104 47.7342 3.328C47.7396 3.536 47.7769 3.68267 47.8463 3.768C47.9156 3.848 48.0063 3.896 48.1183 3.912C48.2089 3.928 48.2542 3.976 48.2542 4.056V4.232C48.2542 4.40267 48.2489 4.57067 48.2383 4.736C48.2276 4.896 48.2143 5.06133 48.1982 5.232C48.1876 5.39733 48.1769 5.57067 48.1663 5.752C48.1556 5.93333 48.1502 6.128 48.1502 6.336C48.1502 6.41067 48.1582 6.488 48.1743 6.568C48.1956 6.64267 48.2329 6.712 48.2863 6.776C48.3396 6.84 48.4169 6.89333 48.5182 6.936C48.6196 6.97333 48.7503 6.992 48.9103 6.992C49.0756 6.992 49.2062 6.97067 49.3022 6.928C49.4036 6.88533 49.4809 6.832 49.5343 6.768C49.5876 6.69867 49.6222 6.62667 49.6383 6.552C49.6596 6.472 49.6702 6.39467 49.6702 6.32C49.6702 6.13333 49.6623 5.95733 49.6463 5.792C49.6302 5.62667 49.6089 5.456 49.5823 5.28C49.5609 5.104 49.5369 4.91467 49.5103 4.712C49.4889 4.504 49.4702 4.264 49.4543 3.992V3.952C49.4489 3.90933 49.4569 3.87733 49.4783 3.856C49.5049 3.83467 49.5396 3.82667 49.5823 3.832C49.7103 3.848 49.8356 3.86667 49.9583 3.888C50.0863 3.90933 50.2143 3.92 50.3423 3.92C50.4169 3.92 50.4889 3.912 50.5583 3.896C50.6276 3.88 50.6889 3.85067 50.7423 3.808C50.8009 3.76533 50.8463 3.70667 50.8783 3.632C50.9156 3.552 50.9342 3.45067 50.9342 3.328C50.9342 3.20533 50.9183 3.10667 50.8862 3.032C50.8543 2.952 50.8116 2.89067 50.7583 2.848C50.7049 2.80533 50.6436 2.776 50.5742 2.76C50.5049 2.744 50.4329 2.736 50.3582 2.736C50.2143 2.736 50.0836 2.74667 49.9663 2.768C49.8489 2.78933 49.7369 2.808 49.6302 2.824C49.5876 2.83467 49.5556 2.82933 49.5343 2.808C49.5129 2.78133 49.5076 2.74667 49.5182 2.704C49.5503 2.54933 49.5956 2.416 49.6543 2.304C49.7183 2.192 49.8036 2.12 49.9103 2.088C50.0009 2.06133 50.0916 2.05067 50.1823 2.056C50.2729 2.06133 50.3769 2.09067 50.4943 2.144C50.6436 2.208 50.7743 2.21067 50.8862 2.152C50.9983 2.09333 51.0809 2.008 51.1343 1.896C51.1929 1.77867 51.2116 1.65333 51.1903 1.52C51.1743 1.38667 51.1076 1.28 50.9902 1.2C50.7983 1.06667 50.6036 0.973333 50.4062 0.92C50.2089 0.861333 50.0169 0.832 49.8302 0.832C49.5636 0.832 49.3396 0.88 49.1582 0.976C48.9769 1.06667 48.8276 1.192 48.7103 1.352C48.5983 1.512 48.5103 1.69867 48.4463 1.912ZM56.7949 4.568C56.8056 4.376 56.8216 4.18133 56.8429 3.984C56.8536 3.92533 56.8776 3.88 56.9149 3.848C56.9523 3.816 57.0003 3.80533 57.0589 3.816C57.1709 3.832 57.2803 3.85067 57.3869 3.872C57.4989 3.888 57.6136 3.896 57.7309 3.896C57.8056 3.896 57.8776 3.888 57.9469 3.872C58.0163 3.856 58.0776 3.82667 58.1309 3.784C58.1896 3.74133 58.2349 3.68267 58.2669 3.608C58.3043 3.528 58.3229 3.42667 58.3229 3.304C58.3229 3.18133 58.3069 3.08267 58.2749 3.008C58.2429 2.928 58.2003 2.86667 58.1469 2.824C58.0936 2.78133 58.0323 2.752 57.9629 2.736C57.8936 2.72 57.8216 2.712 57.7469 2.712C57.6403 2.712 57.5416 2.71733 57.4509 2.728C57.3656 2.73867 57.2803 2.752 57.1949 2.768C57.1363 2.77867 57.0909 2.77067 57.0589 2.744C57.0269 2.712 57.0163 2.66667 57.0269 2.608C57.0429 2.48533 57.0509 2.384 57.0509 2.304C57.0509 2.22933 57.0403 2.15467 57.0189 2.08C57.0029 2 56.9683 1.928 56.9149 1.864C56.8616 1.79467 56.7843 1.73867 56.6829 1.696C56.5869 1.65333 56.4563 1.632 56.2909 1.632C56.1309 1.632 56.0003 1.65333 55.8989 1.696C55.7976 1.73333 55.7203 1.784 55.6669 1.848C55.6136 1.912 55.5763 1.984 55.5549 2.064C55.5389 2.13867 55.5309 2.21333 55.5309 2.288V2.52C55.5309 2.62667 55.4696 2.70667 55.3469 2.76C55.2723 2.79733 55.2136 2.85867 55.1709 2.944C55.1336 3.024 55.1176 3.144 55.1229 3.304C55.1283 3.49067 55.1576 3.62667 55.2109 3.712C55.2643 3.792 55.3363 3.84533 55.4269 3.872C55.5603 3.91467 55.6269 3.98667 55.6269 4.088C55.6323 4.17333 55.6349 4.26133 55.6349 4.352V4.632C55.6349 4.82933 55.6269 5.02667 55.6109 5.224C55.6003 5.42133 55.5976 5.61067 55.6029 5.792C55.6083 5.97333 55.6269 6.144 55.6589 6.304C55.6963 6.45867 55.7656 6.59467 55.8669 6.712C55.9683 6.824 56.1069 6.912 56.2829 6.976C56.4589 7.04 56.6883 7.072 56.9709 7.072C57.0669 7.072 57.1736 7.06667 57.2909 7.056C57.4083 7.04533 57.5283 7.024 57.6509 6.992C57.7789 6.95467 57.9016 6.90667 58.0189 6.848C58.1416 6.784 58.2509 6.70133 58.3469 6.6C58.4269 6.52 58.4776 6.42667 58.4989 6.32C58.5256 6.21333 58.5309 6.10667 58.5149 6C58.4989 5.888 58.4643 5.78667 58.4109 5.696C58.3576 5.6 58.2936 5.52533 58.2189 5.472C58.1443 5.41333 58.0589 5.384 57.9629 5.384C57.8723 5.37867 57.7763 5.41333 57.6749 5.488C57.5416 5.58933 57.4403 5.65067 57.3709 5.672C57.3016 5.688 57.2216 5.68267 57.1309 5.656C57.0403 5.62933 56.9683 5.56533 56.9149 5.464C56.8669 5.35733 56.8323 5.22933 56.8109 5.08C56.7949 4.92533 56.7896 4.75467 56.7949 4.568ZM61.1148 5.368C61.0721 5.07467 61.0428 4.78133 61.0268 4.488C61.0161 4.392 61.0428 4.30933 61.1068 4.24C61.2775 4.032 61.4428 3.90133 61.6028 3.848C61.7628 3.79467 61.8935 3.78133 61.9948 3.808C62.2401 3.86133 62.3628 4.25333 62.3628 4.984V5.032C62.3628 5.15467 62.3548 5.27733 62.3388 5.4C62.3228 5.52267 62.3041 5.64267 62.2828 5.76C62.2615 5.87733 62.2428 5.98933 62.2268 6.096C62.2108 6.20267 62.2028 6.304 62.2028 6.4C62.2028 6.464 62.2135 6.53067 62.2348 6.6C62.2561 6.66933 62.2935 6.736 62.3468 6.8C62.4055 6.85867 62.4828 6.90667 62.5788 6.944C62.6801 6.98133 62.8081 7 62.9628 7C63.1175 7 63.2428 6.98133 63.3388 6.944C63.4348 6.90667 63.5121 6.85867 63.5708 6.8C63.6295 6.74133 63.6695 6.68 63.6908 6.616C63.7121 6.54667 63.7228 6.48 63.7228 6.416C63.7228 6.192 63.6961 5.968 63.6428 5.744C63.5895 5.51467 63.5628 5.27733 63.5628 5.032V4.984C63.5628 4.73333 63.5895 4.496 63.6428 4.272C63.6961 4.04267 63.7228 3.81867 63.7228 3.6C63.7228 3.36 63.6615 3.17333 63.5388 3.04C63.4161 2.90133 63.2641 2.8 63.0828 2.736C62.9068 2.672 62.7201 2.64 62.5228 2.64C62.3255 2.64 62.1521 2.656 62.0028 2.688C61.7788 2.736 61.5868 2.81867 61.4268 2.936C61.2668 3.048 61.1335 3.17067 61.0268 3.304C61.0428 3.02133 61.0721 2.73867 61.1148 2.456C61.1575 2.17333 61.1788 1.85333 61.1788 1.496C61.1788 1.42133 61.1681 1.34667 61.1468 1.272C61.1308 1.192 61.0935 1.12 61.0348 1.056C60.9815 0.992 60.9041 0.941333 60.8028 0.904C60.7015 0.861333 60.5708 0.84 60.4108 0.84C60.2455 0.84 60.1121 0.861333 60.0108 0.904C59.9148 0.946667 59.8375 1.00267 59.7788 1.072C59.7255 1.136 59.6881 1.208 59.6668 1.288C59.6508 1.36267 59.6428 1.43733 59.6428 1.512C59.6428 1.69867 59.6508 1.88 59.6668 2.056C59.6828 2.232 59.7015 2.408 59.7228 2.584C59.7441 2.75467 59.7628 2.92533 59.7788 3.096C59.7948 3.26133 59.8028 3.42933 59.8028 3.6V4.24C59.8028 4.41067 59.7948 4.57867 59.7788 4.744C59.7628 4.904 59.7441 5.06667 59.7228 5.232C59.7015 5.39733 59.6828 5.57067 59.6668 5.752C59.6508 5.928 59.6428 6.12 59.6428 6.328C59.6428 6.40267 59.6508 6.48 59.6668 6.56C59.6881 6.63467 59.7255 6.70667 59.7788 6.776C59.8375 6.84 59.9148 6.89333 60.0108 6.936C60.1121 6.97867 60.2455 7 60.4108 7C60.5708 7 60.7015 6.98133 60.8028 6.944C60.9041 6.90133 60.9815 6.848 61.0348 6.784C61.0935 6.72 61.1308 6.65067 61.1468 6.576C61.1681 6.496 61.1788 6.41867 61.1788 6.344C61.1788 5.98133 61.1575 5.656 61.1148 5.368ZM66.4733 5.712C66.4786 5.69067 66.5026 5.67467 66.5452 5.664C66.8013 5.59467 67.0519 5.50933 67.2972 5.408C67.5426 5.30667 67.7746 5.18933 67.9933 5.056C68.2173 4.92267 68.3879 4.77067 68.5052 4.6C68.6279 4.42933 68.7026 4.256 68.7292 4.08C68.7613 3.89867 68.7479 3.72267 68.6893 3.552C68.6359 3.38133 68.5426 3.22933 68.4092 3.096C68.2812 2.96267 68.1159 2.856 67.9133 2.776C67.7106 2.69067 67.4786 2.648 67.2173 2.648C66.8866 2.648 66.5746 2.704 66.2812 2.816C65.9879 2.928 65.7319 3.08533 65.5133 3.288C65.2999 3.49067 65.1292 3.73333 65.0013 4.016C64.8786 4.29333 64.8173 4.60267 64.8173 4.944C64.8173 5.32267 64.8733 5.648 64.9853 5.92C65.1026 6.18667 65.2599 6.408 65.4573 6.584C65.6599 6.75467 65.8973 6.88 66.1693 6.96C66.4413 7.04 66.7373 7.08 67.0573 7.08C67.2173 7.08 67.3853 7.064 67.5612 7.032C67.7373 7 67.9079 6.95733 68.0732 6.904C68.2439 6.84533 68.3986 6.776 68.5373 6.696C68.6813 6.61067 68.7959 6.52 68.8812 6.424C68.9772 6.312 69.0253 6.192 69.0253 6.064C69.0306 5.936 69.0013 5.816 68.9372 5.704C68.8786 5.592 68.7959 5.49867 68.6893 5.424C68.5879 5.34933 68.4759 5.312 68.3532 5.312C68.2199 5.312 68.0999 5.35733 67.9933 5.448C67.8439 5.576 67.7026 5.68267 67.5693 5.768C67.4359 5.85333 67.2679 5.896 67.0653 5.896C66.8466 5.896 66.6679 5.856 66.5293 5.776C66.4919 5.75467 66.4733 5.73333 66.4733 5.712ZM66.2173 4.744C66.1319 4.77067 66.0946 4.73867 66.1053 4.648C66.1479 4.35467 66.2599 4.12533 66.4413 3.96C66.6226 3.79467 66.8573 3.712 67.1452 3.712C67.2253 3.712 67.2893 3.73867 67.3372 3.792C67.3853 3.84 67.4119 3.89867 67.4173 3.968C67.4279 4.03733 67.4146 4.10667 67.3773 4.176C67.3453 4.24533 67.2866 4.30133 67.2012 4.344C67.0146 4.43467 66.8386 4.512 66.6732 4.576C66.5133 4.64 66.3613 4.696 66.2173 4.744ZM74.3637 4.6C74.3691 4.568 74.3717 4.53867 74.3717 4.512C74.3771 4.45333 74.3904 4.39467 74.4118 4.336C74.4384 4.272 74.4731 4.21867 74.5157 4.176C74.6064 4.08533 74.6971 4.02133 74.7878 3.984C74.8784 3.94667 74.9638 3.92533 75.0437 3.92C75.1237 3.90933 75.1984 3.912 75.2678 3.928C75.3371 3.944 75.3958 3.96 75.4437 3.976C75.5611 4.01333 75.6731 4.02933 75.7797 4.024C75.8864 4.01867 75.9744 3.984 76.0437 3.92C76.1237 3.84533 76.1878 3.73867 76.2357 3.6C76.2838 3.46133 76.2917 3.32533 76.2598 3.192C76.2331 3.05333 76.1557 2.936 76.0277 2.84C75.9051 2.73867 75.7104 2.688 75.4437 2.688C75.2357 2.688 75.0544 2.74133 74.8997 2.848C74.7504 2.94933 74.6224 3.072 74.5157 3.216C74.4997 3.09333 74.4358 2.97867 74.3238 2.872C74.2171 2.76533 74.0304 2.712 73.7637 2.712C73.6091 2.712 73.4811 2.73333 73.3798 2.776C73.2838 2.81333 73.2064 2.86133 73.1478 2.92C73.0944 2.97867 73.0571 3.04267 73.0358 3.112C73.0144 3.18133 73.0038 3.248 73.0038 3.312C73.0038 3.408 73.0117 3.50933 73.0277 3.616C73.0437 3.72267 73.0624 3.83467 73.0837 3.952C73.1051 4.06933 73.1237 4.192 73.1397 4.32C73.1557 4.44267 73.1637 4.56533 73.1637 4.688V5.032C73.1637 5.15467 73.1557 5.27733 73.1397 5.4C73.1237 5.52267 73.1051 5.64267 73.0837 5.76C73.0624 5.87733 73.0437 5.98933 73.0277 6.096C73.0117 6.20267 73.0038 6.304 73.0038 6.4C73.0038 6.464 73.0144 6.53067 73.0358 6.6C73.0571 6.66933 73.0944 6.736 73.1478 6.8C73.2064 6.85867 73.2838 6.90667 73.3798 6.944C73.4811 6.98133 73.6091 7 73.7637 7C73.9184 7 74.0437 6.98133 74.1397 6.944C74.2357 6.90667 74.3131 6.85867 74.3717 6.8C74.4304 6.74133 74.4704 6.68 74.4918 6.616C74.5131 6.54667 74.5238 6.48 74.5238 6.416C74.5238 6.192 74.4971 5.968 74.4437 5.744C74.3904 5.51467 74.3637 5.27733 74.3637 5.032V4.688V4.6ZM78.7014 5.712C78.7067 5.69067 78.7307 5.67467 78.7734 5.664C79.0294 5.59467 79.28 5.50933 79.5254 5.408C79.7707 5.30667 80.0027 5.18933 80.2214 5.056C80.4454 4.92267 80.616 4.77067 80.7334 4.6C80.856 4.42933 80.9307 4.256 80.9574 4.08C80.9894 3.89867 80.976 3.72267 80.9174 3.552C80.864 3.38133 80.7707 3.22933 80.6374 3.096C80.5094 2.96267 80.344 2.856 80.1414 2.776C79.9387 2.69067 79.7067 2.648 79.4454 2.648C79.1147 2.648 78.8027 2.704 78.5094 2.816C78.216 2.928 77.96 3.08533 77.7414 3.288C77.528 3.49067 77.3574 3.73333 77.2294 4.016C77.1067 4.29333 77.0454 4.60267 77.0454 4.944C77.0454 5.32267 77.1014 5.648 77.2134 5.92C77.3307 6.18667 77.488 6.408 77.6854 6.584C77.888 6.75467 78.1254 6.88 78.3974 6.96C78.6694 7.04 78.9654 7.08 79.2854 7.08C79.4454 7.08 79.6134 7.064 79.7894 7.032C79.9654 7 80.136 6.95733 80.3014 6.904C80.472 6.84533 80.6267 6.776 80.7654 6.696C80.9094 6.61067 81.024 6.52 81.1094 6.424C81.2054 6.312 81.2534 6.192 81.2534 6.064C81.2587 5.936 81.2294 5.816 81.1654 5.704C81.1067 5.592 81.024 5.49867 80.9174 5.424C80.816 5.34933 80.704 5.312 80.5814 5.312C80.448 5.312 80.328 5.35733 80.2214 5.448C80.072 5.576 79.9307 5.68267 79.7974 5.768C79.664 5.85333 79.496 5.896 79.2934 5.896C79.0747 5.896 78.896 5.856 78.7574 5.776C78.72 5.75467 78.7014 5.73333 78.7014 5.712ZM78.4454 4.744C78.36 4.77067 78.3227 4.73867 78.3334 4.648C78.376 4.35467 78.488 4.12533 78.6694 3.96C78.8507 3.79467 79.0854 3.712 79.3734 3.712C79.4534 3.712 79.5174 3.73867 79.5654 3.792C79.6134 3.84 79.64 3.89867 79.6454 3.968C79.656 4.03733 79.6427 4.10667 79.6054 4.176C79.5734 4.24533 79.5147 4.30133 79.4294 4.344C79.2427 4.43467 79.0667 4.512 78.9014 4.576C78.7414 4.64 78.5894 4.696 78.4454 4.744ZM85.4177 1.512C85.4177 1.784 85.4311 2.04 85.4577 2.28C85.4897 2.52 85.5191 2.76 85.5457 3C85.5564 3.08533 85.5218 3.10133 85.4417 3.048C85.2711 2.92533 85.0764 2.82933 84.8577 2.76C84.6391 2.68533 84.3911 2.648 84.1137 2.648C83.8844 2.648 83.6604 2.69333 83.4417 2.784C83.2284 2.87467 83.0391 3.016 82.8737 3.208C82.7084 3.4 82.5751 3.64533 82.4737 3.944C82.3777 4.24267 82.3298 4.60267 82.3298 5.024C82.3298 5.47733 82.3964 5.84 82.5297 6.112C82.6631 6.37867 82.8231 6.584 83.0098 6.728C83.2018 6.872 83.3991 6.96533 83.6017 7.008C83.8044 7.056 83.9751 7.08 84.1137 7.08C84.3911 7.08 84.6391 7.032 84.8577 6.936C85.0817 6.83467 85.2764 6.70667 85.4417 6.552C85.4684 6.66933 85.5351 6.77333 85.6417 6.864C85.7484 6.94933 85.9271 6.99467 86.1777 7C86.3377 7 86.4684 6.98133 86.5697 6.944C86.6711 6.90133 86.7484 6.848 86.8018 6.784C86.8551 6.72 86.8897 6.65067 86.9057 6.576C86.9271 6.496 86.9378 6.41867 86.9378 6.344C86.9378 6.136 86.9297 5.94133 86.9137 5.76C86.8978 5.57867 86.8791 5.40533 86.8577 5.24C86.8364 5.06933 86.8177 4.904 86.8018 4.744C86.7858 4.57867 86.7777 4.41067 86.7777 4.24V3.6C86.7777 3.42933 86.7858 3.264 86.8018 3.104C86.8177 2.93867 86.8364 2.77333 86.8577 2.608C86.8791 2.43733 86.8978 2.26133 86.9137 2.08C86.9297 1.89867 86.9378 1.704 86.9378 1.496C86.9378 1.42133 86.9271 1.34667 86.9057 1.272C86.8897 1.192 86.8551 1.12 86.8018 1.056C86.7484 0.992 86.6711 0.941333 86.5697 0.904C86.4684 0.861333 86.3377 0.84 86.1777 0.84C86.0124 0.84 85.8791 0.861333 85.7777 0.904C85.6817 0.946667 85.6071 1.00267 85.5537 1.072C85.5004 1.136 85.4631 1.208 85.4417 1.288C85.4258 1.36267 85.4177 1.43733 85.4177 1.512ZM83.6417 5.264C83.6151 5.14133 83.6017 5.01067 83.6017 4.872C83.6017 4.472 83.6817 4.17867 83.8418 3.992C84.0071 3.80533 84.2337 3.712 84.5218 3.712C84.6444 3.712 84.7697 3.73867 84.8978 3.792C85.0257 3.84533 85.1431 3.92267 85.2497 4.024C85.3564 4.12533 85.4417 4.248 85.5058 4.392C85.5751 4.536 85.6071 4.696 85.6017 4.872C85.5911 5.21867 85.4897 5.47733 85.2977 5.648C85.1058 5.81333 84.8471 5.896 84.5218 5.896C84.3404 5.896 84.1884 5.86933 84.0658 5.816C83.9484 5.75733 83.8551 5.68267 83.7858 5.592C83.7164 5.496 83.6684 5.38667 83.6417 5.264ZM89.14 4.968C89.284 4.936 89.4467 4.92 89.628 4.92C89.7187 4.92 89.804 4.92533 89.884 4.936C89.964 4.94667 90.0413 4.95733 90.116 4.968C90.196 4.97867 90.2733 4.98933 90.348 5C90.428 5.01067 90.5107 5.016 90.596 5.016C90.7453 5.016 90.8787 4.968 90.996 4.872C91.1187 4.77067 91.1827 4.59467 91.188 4.344C91.188 4.22133 91.172 4.11733 91.14 4.032C91.108 3.94667 91.0653 3.87733 91.012 3.824C90.9587 3.77067 90.8973 3.73333 90.828 3.712C90.7587 3.68533 90.6867 3.672 90.612 3.672C90.5053 3.672 90.4093 3.67733 90.324 3.688C90.244 3.69867 90.1667 3.70933 90.092 3.72C90.0227 3.73067 89.9507 3.74133 89.876 3.752C89.8013 3.76267 89.7187 3.768 89.628 3.768C89.5373 3.768 89.4547 3.76267 89.38 3.752L89.156 3.72C89.0867 3.70933 89.0093 3.69867 88.924 3.688C88.844 3.67733 88.7507 3.672 88.644 3.672C88.5693 3.672 88.4973 3.68533 88.428 3.712C88.3587 3.73333 88.2973 3.77067 88.244 3.824C88.1907 3.87733 88.148 3.94667 88.116 4.032C88.084 4.11733 88.068 4.22133 88.068 4.344C88.0733 4.59467 88.1347 4.77067 88.252 4.872C88.3747 4.968 88.5107 5.016 88.66 5.016C88.836 5.016 88.996 5 89.14 4.968ZM93.9451 5.712C93.9505 5.69067 93.9745 5.67467 94.0171 5.664C94.2731 5.59467 94.5238 5.50933 94.7691 5.408C95.0145 5.30667 95.2465 5.18933 95.4651 5.056C95.6891 4.92267 95.8598 4.77067 95.9771 4.6C96.0998 4.42933 96.1745 4.256 96.2011 4.08C96.2331 3.89867 96.2198 3.72267 96.1611 3.552C96.1078 3.38133 96.0145 3.22933 95.8811 3.096C95.7531 2.96267 95.5878 2.856 95.3851 2.776C95.1825 2.69067 94.9505 2.648 94.6891 2.648C94.3585 2.648 94.0465 2.704 93.7531 2.816C93.4598 2.928 93.2038 3.08533 92.9851 3.288C92.7718 3.49067 92.6011 3.73333 92.4731 4.016C92.3505 4.29333 92.2891 4.60267 92.2891 4.944C92.2891 5.32267 92.3451 5.648 92.4571 5.92C92.5745 6.18667 92.7318 6.408 92.9291 6.584C93.1318 6.75467 93.3691 6.88 93.6411 6.96C93.9131 7.04 94.2091 7.08 94.5291 7.08C94.6891 7.08 94.8571 7.064 95.0331 7.032C95.2091 7 95.3798 6.95733 95.5451 6.904C95.7158 6.84533 95.8705 6.776 96.0091 6.696C96.1531 6.61067 96.2678 6.52 96.3531 6.424C96.4491 6.312 96.4971 6.192 96.4971 6.064C96.5025 5.936 96.4731 5.816 96.4091 5.704C96.3505 5.592 96.2678 5.49867 96.1611 5.424C96.0598 5.34933 95.9478 5.312 95.8251 5.312C95.6918 5.312 95.5718 5.35733 95.4651 5.448C95.3158 5.576 95.1745 5.68267 95.0411 5.768C94.9078 5.85333 94.7398 5.896 94.5371 5.896C94.3185 5.896 94.1398 5.856 94.0011 5.776C93.9638 5.75467 93.9451 5.73333 93.9451 5.712ZM93.6891 4.744C93.6038 4.77067 93.5665 4.73867 93.5771 4.648C93.6198 4.35467 93.7318 4.12533 93.9131 3.96C94.0945 3.79467 94.3291 3.712 94.6171 3.712C94.6971 3.712 94.7611 3.73867 94.8091 3.792C94.8571 3.84 94.8838 3.89867 94.8891 3.968C94.8998 4.03733 94.8865 4.10667 94.8491 4.176C94.8171 4.24533 94.7585 4.30133 94.6731 4.344C94.4865 4.43467 94.3105 4.512 94.1451 4.576C93.9851 4.64 93.8331 4.696 93.6891 4.744ZM100.221 4.8C100.243 4.93333 100.256 5.06133 100.261 5.184C100.261 5.31733 100.221 5.432 100.142 5.528C99.9815 5.71467 99.8295 5.832 99.6855 5.88C99.5415 5.92267 99.4188 5.93333 99.3175 5.912C99.0722 5.85867 98.9495 5.46667 98.9495 4.736V4.688C98.9495 4.56533 98.9575 4.44267 98.9735 4.32C98.9895 4.19733 99.0082 4.07733 99.0295 3.96C99.0508 3.84267 99.0695 3.73067 99.0855 3.624C99.1015 3.51733 99.1095 3.416 99.1095 3.32C99.1095 3.256 99.0988 3.18933 99.0775 3.12C99.0562 3.05067 99.0162 2.98667 98.9575 2.928C98.9042 2.864 98.8268 2.81333 98.7255 2.776C98.6295 2.73867 98.5042 2.72 98.3495 2.72C98.2002 2.72 98.0748 2.73867 97.9735 2.776C97.8775 2.81333 97.8002 2.86133 97.7415 2.92C97.6828 2.97867 97.6428 3.04267 97.6215 3.112C97.6002 3.176 97.5895 3.24 97.5895 3.304C97.5895 3.528 97.6162 3.75467 97.6695 3.984C97.7228 4.208 97.7495 4.44267 97.7495 4.688V4.736C97.7495 4.98667 97.7388 5.21333 97.7175 5.416C97.6962 5.61333 97.6855 5.82133 97.6855 6.04C97.6855 6.232 97.7228 6.39467 97.7975 6.528C97.8775 6.66133 97.9762 6.768 98.0935 6.848C98.2162 6.928 98.3495 6.984 98.4935 7.016C98.6428 7.05333 98.7895 7.072 98.9335 7.072C99.0402 7.072 99.1548 7.06133 99.2775 7.04C99.4002 7.01867 99.5202 6.98933 99.6375 6.952C99.7602 6.91467 99.8775 6.86933 99.9895 6.816C100.102 6.76267 100.2 6.70667 100.285 6.648C100.28 6.78133 100.261 6.91467 100.229 7.048C100.198 7.18667 100.144 7.30933 100.07 7.416C100 7.528 99.9068 7.616 99.7895 7.68C99.6722 7.74933 99.5228 7.784 99.3415 7.784C99.1708 7.784 98.9922 7.768 98.8055 7.736C98.6242 7.70933 98.4082 7.63467 98.1575 7.512C98.0295 7.45333 97.9148 7.424 97.8135 7.424C97.6962 7.424 97.5895 7.45333 97.4935 7.512C97.4028 7.57067 97.3335 7.64533 97.2855 7.736C97.2375 7.82667 97.2162 7.928 97.2215 8.04C97.2268 8.152 97.2668 8.25867 97.3415 8.36C97.4962 8.57333 97.7282 8.74667 98.0375 8.88C98.3468 9.01333 98.7015 9.08 99.1015 9.08C99.5068 9.08 99.8455 9.04533 100.118 8.976C100.395 8.90667 100.621 8.808 100.798 8.68C100.974 8.55733 101.107 8.408 101.198 8.232C101.294 8.06133 101.36 7.87467 101.397 7.672C101.44 7.46933 101.464 7.25333 101.469 7.024C101.475 6.79467 101.478 6.56 101.478 6.32V5.52C101.478 5.34933 101.483 5.184 101.493 5.024L101.525 4.528C101.542 4.35733 101.555 4.18133 101.565 4C101.576 3.81867 101.581 3.624 101.581 3.416C101.581 3.34133 101.571 3.264 101.549 3.184C101.534 3.104 101.499 3.032 101.446 2.968C101.392 2.89867 101.317 2.84267 101.221 2.8C101.126 2.75733 100.997 2.736 100.838 2.736C100.598 2.736 100.408 2.78933 100.27 2.896C100.131 3.00267 100.062 3.18133 100.062 3.432C100.062 3.59733 100.07 3.75733 100.086 3.912C100.107 4.06667 100.128 4.21867 100.149 4.368C100.176 4.51733 100.2 4.66133 100.221 4.8ZM104.334 5.712C104.34 5.69067 104.364 5.67467 104.406 5.664C104.662 5.59467 104.913 5.50933 105.158 5.408C105.404 5.30667 105.636 5.18933 105.854 5.056C106.078 4.92267 106.249 4.77067 106.366 4.6C106.489 4.42933 106.564 4.256 106.59 4.08C106.622 3.89867 106.609 3.72267 106.55 3.552C106.497 3.38133 106.404 3.22933 106.27 3.096C106.142 2.96267 105.977 2.856 105.774 2.776C105.572 2.69067 105.34 2.648 105.078 2.648C104.748 2.648 104.436 2.704 104.142 2.816C103.849 2.928 103.593 3.08533 103.374 3.288C103.161 3.49067 102.99 3.73333 102.862 4.016C102.74 4.29333 102.678 4.60267 102.678 4.944C102.678 5.32267 102.734 5.648 102.846 5.92C102.964 6.18667 103.121 6.408 103.318 6.584C103.521 6.75467 103.758 6.88 104.03 6.96C104.302 7.04 104.598 7.08 104.918 7.08C105.078 7.08 105.246 7.064 105.422 7.032C105.598 7 105.769 6.95733 105.934 6.904C106.105 6.84533 106.26 6.776 106.398 6.696C106.542 6.61067 106.657 6.52 106.742 6.424C106.838 6.312 106.886 6.192 106.886 6.064C106.892 5.936 106.862 5.816 106.798 5.704C106.74 5.592 106.657 5.49867 106.55 5.424C106.449 5.34933 106.337 5.312 106.214 5.312C106.081 5.312 105.961 5.35733 105.854 5.448C105.705 5.576 105.564 5.68267 105.43 5.768C105.297 5.85333 105.129 5.896 104.926 5.896C104.708 5.896 104.529 5.856 104.39 5.776C104.353 5.75467 104.334 5.73333 104.334 5.712ZM104.078 4.744C103.993 4.77067 103.956 4.73867 103.966 4.648C104.009 4.35467 104.121 4.12533 104.302 3.96C104.484 3.79467 104.718 3.712 105.006 3.712C105.086 3.712 105.15 3.73867 105.198 3.792C105.246 3.84 105.273 3.89867 105.278 3.968C105.289 4.03733 105.276 4.10667 105.238 4.176C105.206 4.24533 105.148 4.30133 105.062 4.344C104.876 4.43467 104.7 4.512 104.534 4.576C104.374 4.64 104.222 4.696 104.078 4.744ZM111.051 1.512C111.051 1.784 111.064 2.04 111.091 2.28C111.123 2.52 111.152 2.76 111.179 3C111.189 3.08533 111.155 3.10133 111.075 3.048C110.904 2.92533 110.709 2.82933 110.491 2.76C110.272 2.68533 110.024 2.648 109.747 2.648C109.517 2.648 109.293 2.69333 109.075 2.784C108.861 2.87467 108.672 3.016 108.507 3.208C108.341 3.4 108.208 3.64533 108.107 3.944C108.011 4.24267 107.963 4.60267 107.963 5.024C107.963 5.47733 108.029 5.84 108.163 6.112C108.296 6.37867 108.456 6.584 108.643 6.728C108.835 6.872 109.032 6.96533 109.235 7.008C109.437 7.056 109.608 7.08 109.747 7.08C110.024 7.08 110.272 7.032 110.491 6.936C110.715 6.83467 110.909 6.70667 111.075 6.552C111.101 6.66933 111.168 6.77333 111.275 6.864C111.381 6.94933 111.56 6.99467 111.811 7C111.971 7 112.101 6.98133 112.203 6.944C112.304 6.90133 112.381 6.848 112.435 6.784C112.488 6.72 112.523 6.65067 112.539 6.576C112.56 6.496 112.571 6.41867 112.571 6.344C112.571 6.136 112.563 5.94133 112.547 5.76C112.531 5.57867 112.512 5.40533 112.491 5.24C112.469 5.06933 112.451 4.904 112.435 4.744C112.419 4.57867 112.411 4.41067 112.411 4.24V3.6C112.411 3.42933 112.419 3.264 112.435 3.104C112.451 2.93867 112.469 2.77333 112.491 2.608C112.512 2.43733 112.531 2.26133 112.547 2.08C112.563 1.89867 112.571 1.704 112.571 1.496C112.571 1.42133 112.56 1.34667 112.539 1.272C112.523 1.192 112.488 1.12 112.435 1.056C112.381 0.992 112.304 0.941333 112.203 0.904C112.101 0.861333 111.971 0.84 111.811 0.84C111.645 0.84 111.512 0.861333 111.411 0.904C111.315 0.946667 111.24 1.00267 111.187 1.072C111.133 1.136 111.096 1.208 111.075 1.288C111.059 1.36267 111.051 1.43733 111.051 1.512ZM109.275 5.264C109.248 5.14133 109.235 5.01067 109.235 4.872C109.235 4.472 109.315 4.17867 109.475 3.992C109.64 3.80533 109.867 3.712 110.155 3.712C110.277 3.712 110.403 3.73867 110.531 3.792C110.659 3.84533 110.776 3.92267 110.883 4.024C110.989 4.12533 111.075 4.248 111.139 4.392C111.208 4.536 111.24 4.696 111.235 4.872C111.224 5.21867 111.123 5.47733 110.931 5.648C110.739 5.81333 110.48 5.896 110.155 5.896C109.973 5.896 109.821 5.86933 109.699 5.816C109.581 5.75733 109.488 5.68267 109.419 5.592C109.349 5.496 109.301 5.38667 109.275 5.264ZM2.784 13.568C2.79467 13.376 2.81067 13.1813 2.832 12.984C2.84267 12.9253 2.86667 12.88 2.904 12.848C2.94133 12.816 2.98933 12.8053 3.048 12.816C3.16 12.832 3.26933 12.8507 3.376 12.872C3.488 12.888 3.60267 12.896 3.72 12.896C3.79467 12.896 3.86667 12.888 3.936 12.872C4.00533 12.856 4.06667 12.8267 4.12 12.784C4.17867 12.7413 4.224 12.6827 4.256 12.608C4.29333 12.528 4.312 12.4267 4.312 12.304C4.312 12.1813 4.296 12.0827 4.264 12.008C4.232 11.928 4.18933 11.8667 4.136 11.824C4.08267 11.7813 4.02133 11.752 3.952 11.736C3.88267 11.72 3.81067 11.712 3.736 11.712C3.62933 11.712 3.53067 11.7173 3.44 11.728C3.35467 11.7387 3.26933 11.752 3.184 11.768C3.12533 11.7787 3.08 11.7707 3.048 11.744C3.016 11.712 3.00533 11.6667 3.016 11.608C3.032 11.4853 3.04 11.384 3.04 11.304C3.04 11.2293 3.02933 11.1547 3.008 11.08C2.992 11 2.95733 10.928 2.904 10.864C2.85067 10.7947 2.77333 10.7387 2.672 10.696C2.576 10.6533 2.44533 10.632 2.28 10.632C2.12 10.632 1.98933 10.6533 1.888 10.696C1.78667 10.7333 1.70933 10.784 1.656 10.848C1.60267 10.912 1.56533 10.984 1.544 11.064C1.528 11.1387 1.52 11.2133 1.52 11.288V11.52C1.52 11.6267 1.45867 11.7067 1.336 11.76C1.26133 11.7973 1.20267 11.8587 1.16 11.944C1.12267 12.024 1.10667 12.144 1.112 12.304C1.11733 12.4907 1.14667 12.6267 1.2 12.712C1.25333 12.792 1.32533 12.8453 1.416 12.872C1.54933 12.9147 1.616 12.9867 1.616 13.088C1.62133 13.1733 1.624 13.2613 1.624 13.352V13.632C1.624 13.8293 1.616 14.0267 1.6 14.224C1.58933 14.4213 1.58667 14.6107 1.592 14.792C1.59733 14.9733 1.616 15.144 1.648 15.304C1.68533 15.4587 1.75467 15.5947 1.856 15.712C1.95733 15.824 2.096 15.912 2.272 15.976C2.448 16.04 2.67733 16.072 2.96 16.072C3.056 16.072 3.16267 16.0667 3.28 16.056C3.39733 16.0453 3.51733 16.024 3.64 15.992C3.768 15.9547 3.89067 15.9067 4.008 15.848C4.13067 15.784 4.24 15.7013 4.336 15.6C4.416 15.52 4.46667 15.4267 4.488 15.32C4.51467 15.2133 4.52 15.1067 4.504 15C4.488 14.888 4.45333 14.7867 4.4 14.696C4.34667 14.6 4.28267 14.5253 4.208 14.472C4.13333 14.4133 4.048 14.384 3.952 14.384C3.86133 14.3787 3.76533 14.4133 3.664 14.488C3.53067 14.5893 3.42933 14.6507 3.36 14.672C3.29067 14.688 3.21067 14.6827 3.12 14.656C3.02933 14.6293 2.95733 14.5653 2.904 14.464C2.856 14.3573 2.82133 14.2293 2.8 14.08C2.784 13.9253 2.77867 13.7547 2.784 13.568ZM6.99188 13.6C6.99721 13.568 6.99988 13.5387 6.99988 13.512C7.00521 13.4533 7.01854 13.3947 7.03988 13.336C7.06654 13.272 7.10121 13.2187 7.14388 13.176C7.23454 13.0853 7.32521 13.0213 7.41588 12.984C7.50654 12.9467 7.59188 12.9253 7.67188 12.92C7.75188 12.9093 7.82654 12.912 7.89587 12.928C7.96521 12.944 8.02388 12.96 8.07188 12.976C8.18921 13.0133 8.30121 13.0293 8.40788 13.024C8.51454 13.0187 8.60254 12.984 8.67188 12.92C8.75187 12.8453 8.81588 12.7387 8.86388 12.6C8.91188 12.4613 8.91988 12.3253 8.88788 12.192C8.86121 12.0533 8.78388 11.936 8.65588 11.84C8.53321 11.7387 8.33854 11.688 8.07188 11.688C7.86388 11.688 7.68254 11.7413 7.52787 11.848C7.37854 11.9493 7.25054 12.072 7.14388 12.216C7.12788 12.0933 7.06388 11.9787 6.95188 11.872C6.84521 11.7653 6.65854 11.712 6.39188 11.712C6.23721 11.712 6.10921 11.7333 6.00788 11.776C5.91188 11.8133 5.83454 11.8613 5.77588 11.92C5.72254 11.9787 5.68521 12.0427 5.66388 12.112C5.64254 12.1813 5.63188 12.248 5.63188 12.312C5.63188 12.408 5.63988 12.5093 5.65588 12.616C5.67188 12.7227 5.69054 12.8347 5.71187 12.952C5.73321 13.0693 5.75188 13.192 5.76788 13.32C5.78387 13.4427 5.79188 13.5653 5.79188 13.688V14.032C5.79188 14.1547 5.78387 14.2773 5.76788 14.4C5.75188 14.5227 5.73321 14.6427 5.71187 14.76C5.69054 14.8773 5.67188 14.9893 5.65588 15.096C5.63988 15.2027 5.63188 15.304 5.63188 15.4C5.63188 15.464 5.64254 15.5307 5.66388 15.6C5.68521 15.6693 5.72254 15.736 5.77588 15.8C5.83454 15.8587 5.91188 15.9067 6.00788 15.944C6.10921 15.9813 6.23721 16 6.39188 16C6.54654 16 6.67188 15.9813 6.76788 15.944C6.86388 15.9067 6.94121 15.8587 6.99988 15.8C7.05854 15.7413 7.09854 15.68 7.11988 15.616C7.14121 15.5467 7.15188 15.48 7.15188 15.416C7.15188 15.192 7.12521 14.968 7.07188 14.744C7.01854 14.5147 6.99188 14.2773 6.99188 14.032V13.688V13.6ZM11.3295 14.712C11.3348 14.6907 11.3588 14.6747 11.4015 14.664C11.6575 14.5947 11.9082 14.5093 12.1535 14.408C12.3988 14.3067 12.6308 14.1893 12.8495 14.056C13.0735 13.9227 13.2442 13.7707 13.3615 13.6C13.4842 13.4293 13.5588 13.256 13.5855 13.08C13.6175 12.8987 13.6042 12.7227 13.5455 12.552C13.4922 12.3813 13.3988 12.2293 13.2655 12.096C13.1375 11.9627 12.9722 11.856 12.7695 11.776C12.5668 11.6907 12.3348 11.648 12.0735 11.648C11.7428 11.648 11.4308 11.704 11.1375 11.816C10.8442 11.928 10.5882 12.0853 10.3695 12.288C10.1562 12.4907 9.9855 12.7333 9.8575 13.016C9.73483 13.2933 9.6735 13.6027 9.6735 13.944C9.6735 14.3227 9.7295 14.648 9.8415 14.92C9.95883 15.1867 10.1162 15.408 10.3135 15.584C10.5162 15.7547 10.7535 15.88 11.0255 15.96C11.2975 16.04 11.5935 16.08 11.9135 16.08C12.0735 16.08 12.2415 16.064 12.4175 16.032C12.5935 16 12.7642 15.9573 12.9295 15.904C13.1002 15.8453 13.2548 15.776 13.3935 15.696C13.5375 15.6107 13.6522 15.52 13.7375 15.424C13.8335 15.312 13.8815 15.192 13.8815 15.064C13.8868 14.936 13.8575 14.816 13.7935 14.704C13.7348 14.592 13.6522 14.4987 13.5455 14.424C13.4442 14.3493 13.3322 14.312 13.2095 14.312C13.0762 14.312 12.9562 14.3573 12.8495 14.448C12.7002 14.576 12.5588 14.6827 12.4255 14.768C12.2922 14.8533 12.1242 14.896 11.9215 14.896C11.7028 14.896 11.5242 14.856 11.3855 14.776C11.3482 14.7547 11.3295 14.7333 11.3295 14.712ZM11.0735 13.744C10.9882 13.7707 10.9508 13.7387 10.9615 13.648C11.0042 13.3547 11.1162 13.1253 11.2975 12.96C11.4788 12.7947 11.7135 12.712 12.0015 12.712C12.0815 12.712 12.1455 12.7387 12.1935 12.792C12.2415 12.84 12.2682 12.8987 12.2735 12.968C12.2842 13.0373 12.2708 13.1067 12.2335 13.176C12.2015 13.2453 12.1428 13.3013 12.0575 13.344C11.8708 13.4347 11.6948 13.512 11.5295 13.576C11.3695 13.64 11.2175 13.696 11.0735 13.744ZM16.6139 14.712C16.6192 14.6907 16.6432 14.6747 16.6859 14.664C16.9419 14.5947 17.1925 14.5093 17.4379 14.408C17.6832 14.3067 17.9152 14.1893 18.1339 14.056C18.3579 13.9227 18.5285 13.7707 18.6459 13.6C18.7685 13.4293 18.8432 13.256 18.8699 13.08C18.9019 12.8987 18.8885 12.7227 18.8299 12.552C18.7765 12.3813 18.6832 12.2293 18.5499 12.096C18.4219 11.9627 18.2565 11.856 18.0539 11.776C17.8512 11.6907 17.6192 11.648 17.3579 11.648C17.0272 11.648 16.7152 11.704 16.4219 11.816C16.1285 11.928 15.8725 12.0853 15.6539 12.288C15.4405 12.4907 15.2699 12.7333 15.1419 13.016C15.0192 13.2933 14.9579 13.6027 14.9579 13.944C14.9579 14.3227 15.0139 14.648 15.1259 14.92C15.2432 15.1867 15.4005 15.408 15.5979 15.584C15.8005 15.7547 16.0379 15.88 16.3099 15.96C16.5819 16.04 16.8779 16.08 17.1979 16.08C17.3579 16.08 17.5259 16.064 17.7019 16.032C17.8779 16 18.0485 15.9573 18.2139 15.904C18.3845 15.8453 18.5392 15.776 18.6779 15.696C18.8219 15.6107 18.9365 15.52 19.0219 15.424C19.1179 15.312 19.1659 15.192 19.1659 15.064C19.1712 14.936 19.1419 14.816 19.0779 14.704C19.0192 14.592 18.9365 14.4987 18.8299 14.424C18.7285 14.3493 18.6165 14.312 18.4939 14.312C18.3605 14.312 18.2405 14.3573 18.1339 14.448C17.9845 14.576 17.8432 14.6827 17.7099 14.768C17.5765 14.8533 17.4085 14.896 17.2059 14.896C16.9872 14.896 16.8085 14.856 16.6699 14.776C16.6325 14.7547 16.6139 14.7333 16.6139 14.712ZM16.3579 13.744C16.2725 13.7707 16.2352 13.7387 16.2459 13.648C16.2885 13.3547 16.4005 13.1253 16.5819 12.96C16.7632 12.7947 16.9979 12.712 17.2859 12.712C17.3659 12.712 17.4299 12.7387 17.4779 12.792C17.5259 12.84 17.5525 12.8987 17.5579 12.968C17.5685 13.0373 17.5552 13.1067 17.5179 13.176C17.4859 13.2453 17.4272 13.3013 17.3419 13.344C17.1552 13.4347 16.9792 13.512 16.8139 13.576C16.6539 13.64 16.5019 13.696 16.3579 13.744ZM23.8244 10.912C23.7604 11.1253 23.715 11.3547 23.6884 11.6C23.6777 11.68 23.627 11.7253 23.5364 11.736C23.4084 11.7467 23.3044 11.792 23.2244 11.872C23.1444 11.952 23.107 12.104 23.1124 12.328C23.1177 12.536 23.155 12.6827 23.2244 12.768C23.2937 12.848 23.3844 12.896 23.4964 12.912C23.587 12.928 23.6324 12.976 23.6324 13.056V13.232C23.6324 13.4027 23.627 13.5707 23.6164 13.736C23.6057 13.896 23.5924 14.0613 23.5764 14.232C23.5657 14.3973 23.555 14.5707 23.5444 14.752C23.5337 14.9333 23.5284 15.128 23.5284 15.336C23.5284 15.4107 23.5364 15.488 23.5524 15.568C23.5737 15.6427 23.611 15.712 23.6644 15.776C23.7177 15.84 23.795 15.8933 23.8964 15.936C23.9977 15.9733 24.1284 15.992 24.2884 15.992C24.4537 15.992 24.5844 15.9707 24.6804 15.928C24.7817 15.8853 24.859 15.832 24.9124 15.768C24.9657 15.6987 25.0004 15.6267 25.0164 15.552C25.0377 15.472 25.0484 15.3947 25.0484 15.32C25.0484 15.1333 25.0404 14.9573 25.0244 14.792C25.0084 14.6267 24.987 14.456 24.9604 14.28C24.939 14.104 24.915 13.9147 24.8884 13.712C24.867 13.504 24.8484 13.264 24.8324 12.992V12.952C24.827 12.9093 24.835 12.8773 24.8564 12.856C24.883 12.8347 24.9177 12.8267 24.9604 12.832C25.0884 12.848 25.2137 12.8667 25.3364 12.888C25.4644 12.9093 25.5924 12.92 25.7204 12.92C25.795 12.92 25.867 12.912 25.9364 12.896C26.0057 12.88 26.067 12.8507 26.1204 12.808C26.179 12.7653 26.2244 12.7067 26.2564 12.632C26.2937 12.552 26.3124 12.4507 26.3124 12.328C26.3124 12.2053 26.2964 12.1067 26.2644 12.032C26.2324 11.952 26.1897 11.8907 26.1364 11.848C26.083 11.8053 26.0217 11.776 25.9524 11.76C25.883 11.744 25.811 11.736 25.7364 11.736C25.5924 11.736 25.4617 11.7467 25.3444 11.768C25.227 11.7893 25.115 11.808 25.0084 11.824C24.9657 11.8347 24.9337 11.8293 24.9124 11.808C24.891 11.7813 24.8857 11.7467 24.8964 11.704C24.9284 11.5493 24.9737 11.416 25.0324 11.304C25.0964 11.192 25.1817 11.12 25.2884 11.088C25.379 11.0613 25.4697 11.0507 25.5604 11.056C25.651 11.0613 25.755 11.0907 25.8724 11.144C26.0217 11.208 26.1524 11.2107 26.2644 11.152C26.3764 11.0933 26.459 11.008 26.5124 10.896C26.571 10.7787 26.5897 10.6533 26.5684 10.52C26.5524 10.3867 26.4857 10.28 26.3684 10.2C26.1764 10.0667 25.9817 9.97333 25.7844 9.92C25.587 9.86133 25.395 9.832 25.2084 9.832C24.9417 9.832 24.7177 9.88 24.5364 9.976C24.355 10.0667 24.2057 10.192 24.0884 10.352C23.9764 10.512 23.8884 10.6987 23.8244 10.912ZM28.7809 13.6C28.7863 13.568 28.7889 13.5387 28.7889 13.512C28.7943 13.4533 28.8076 13.3947 28.8289 13.336C28.8556 13.272 28.8903 13.2187 28.9329 13.176C29.0236 13.0853 29.1143 13.0213 29.2049 12.984C29.2956 12.9467 29.3809 12.9253 29.4609 12.92C29.5409 12.9093 29.6156 12.912 29.6849 12.928C29.7543 12.944 29.8129 12.96 29.8609 12.976C29.9783 13.0133 30.0903 13.0293 30.1969 13.024C30.3036 13.0187 30.3916 12.984 30.4609 12.92C30.5409 12.8453 30.6049 12.7387 30.6529 12.6C30.7009 12.4613 30.7089 12.3253 30.6769 12.192C30.6503 12.0533 30.5729 11.936 30.4449 11.84C30.3223 11.7387 30.1276 11.688 29.8609 11.688C29.6529 11.688 29.4716 11.7413 29.3169 11.848C29.1676 11.9493 29.0396 12.072 28.9329 12.216C28.9169 12.0933 28.8529 11.9787 28.7409 11.872C28.6343 11.7653 28.4476 11.712 28.1809 11.712C28.0263 11.712 27.8983 11.7333 27.7969 11.776C27.7009 11.8133 27.6236 11.8613 27.5649 11.92C27.5116 11.9787 27.4743 12.0427 27.4529 12.112C27.4316 12.1813 27.4209 12.248 27.4209 12.312C27.4209 12.408 27.4289 12.5093 27.4449 12.616C27.4609 12.7227 27.4796 12.8347 27.5009 12.952C27.5223 13.0693 27.5409 13.192 27.5569 13.32C27.5729 13.4427 27.5809 13.5653 27.5809 13.688V14.032C27.5809 14.1547 27.5729 14.2773 27.5569 14.4C27.5409 14.5227 27.5223 14.6427 27.5009 14.76C27.4796 14.8773 27.4609 14.9893 27.4449 15.096C27.4289 15.2027 27.4209 15.304 27.4209 15.4C27.4209 15.464 27.4316 15.5307 27.4529 15.6C27.4743 15.6693 27.5116 15.736 27.5649 15.8C27.6236 15.8587 27.7009 15.9067 27.7969 15.944C27.8983 15.9813 28.0263 16 28.1809 16C28.3356 16 28.4609 15.9813 28.5569 15.944C28.6529 15.9067 28.7303 15.8587 28.7889 15.8C28.8476 15.7413 28.8876 15.68 28.9089 15.616C28.9303 15.5467 28.9409 15.48 28.9409 15.416C28.9409 15.192 28.9143 14.968 28.8609 14.744C28.8076 14.5147 28.7809 14.2773 28.7809 14.032V13.688V13.6ZM31.6071 13.016C31.4951 13.2933 31.4391 13.6027 31.4391 13.944C31.4391 14.3227 31.4951 14.648 31.6071 14.92C31.7191 15.1867 31.8738 15.408 32.0711 15.584C32.2738 15.7547 32.5138 15.88 32.7911 15.96C33.0738 16.04 33.3831 16.08 33.7191 16.08C34.0551 16.08 34.3618 16.04 34.6391 15.96C34.9218 15.88 35.1618 15.7547 35.3591 15.584C35.5618 15.408 35.7165 15.1867 35.8231 14.92C35.9351 14.648 35.9911 14.3227 35.9911 13.944C35.9911 13.6027 35.9351 13.2933 35.8231 13.016C35.7111 12.7333 35.5538 12.4907 35.3511 12.288C35.1485 12.0853 34.9085 11.928 34.6311 11.816C34.3538 11.704 34.0498 11.648 33.7191 11.648C33.3885 11.648 33.0818 11.704 32.7991 11.816C32.5218 11.928 32.2818 12.0853 32.0791 12.288C31.8765 12.4907 31.7191 12.7333 31.6071 13.016ZM32.7511 14.264C32.7245 14.1413 32.7111 14.0107 32.7111 13.872C32.7111 13.5147 32.7991 13.232 32.9751 13.024C33.1511 12.816 33.4018 12.712 33.7271 12.712C34.0525 12.712 34.3031 12.816 34.4791 13.024C34.6551 13.232 34.7431 13.5147 34.7431 13.872C34.7431 14.0107 34.7271 14.1413 34.6951 14.264C34.6685 14.3867 34.6151 14.496 34.5351 14.592C34.4605 14.6827 34.3565 14.7573 34.2231 14.816C34.0951 14.8693 33.9298 14.896 33.7271 14.896C33.5245 14.896 33.3565 14.8693 33.2231 14.816C33.0951 14.7573 32.9911 14.6827 32.9111 14.592C32.8365 14.496 32.7831 14.3867 32.7511 14.264ZM38.7954 16.736C38.6141 16.7093 38.3981 16.6347 38.1474 16.512C38.0194 16.4533 37.9048 16.424 37.8034 16.424C37.6861 16.424 37.5794 16.4533 37.4834 16.512C37.3928 16.5707 37.3234 16.6453 37.2754 16.736C37.2274 16.8267 37.2061 16.928 37.2114 17.04C37.2168 17.152 37.2568 17.2587 37.3314 17.36C37.4861 17.5733 37.7181 17.7467 38.0274 17.88C38.3368 18.0133 38.6914 18.08 39.0914 18.08C39.4968 18.08 39.8354 18.0453 40.1074 17.976C40.3848 17.9067 40.6114 17.808 40.7874 17.68C40.9634 17.5573 41.0968 17.408 41.1874 17.232C41.2834 17.0613 41.3501 16.8747 41.3874 16.672C41.4301 16.4693 41.4541 16.2533 41.4594 16.024C41.4648 15.7947 41.4674 15.56 41.4674 15.32V14.52C41.4674 14.3493 41.4728 14.184 41.4834 14.024L41.5154 13.528C41.5314 13.3573 41.5448 13.1813 41.5554 13C41.5661 12.8187 41.5714 12.624 41.5714 12.416C41.5714 12.3413 41.5608 12.264 41.5394 12.184C41.5234 12.0987 41.4888 12.0213 41.4354 11.952C41.3821 11.8827 41.3048 11.8267 41.2034 11.784C41.1021 11.7413 40.9714 11.72 40.8114 11.72C40.5768 11.7253 40.4061 11.7707 40.2994 11.856C40.1981 11.9413 40.1288 12.04 40.0914 12.152C39.9368 12.008 39.7554 11.8933 39.5474 11.808C39.3448 11.7173 39.1101 11.672 38.8434 11.672C38.7634 11.672 38.6648 11.6827 38.5474 11.704C38.4301 11.72 38.3048 11.7547 38.1714 11.808C38.0381 11.856 37.9048 11.928 37.7714 12.024C37.6434 12.1147 37.5261 12.2373 37.4194 12.392C37.3128 12.5413 37.2248 12.7253 37.1554 12.944C37.0914 13.1627 37.0594 13.424 37.0594 13.728C37.0594 14.1653 37.1128 14.536 37.2194 14.84C37.3261 15.144 37.4648 15.3893 37.6354 15.576C37.8061 15.7627 37.9954 15.8987 38.2034 15.984C38.4168 16.064 38.6301 16.104 38.8434 16.104C39.1474 16.104 39.4168 16.0667 39.6514 15.992C39.8861 15.912 40.0914 15.8107 40.2674 15.688C40.2568 15.8213 40.2354 15.952 40.2034 16.08C40.1714 16.2133 40.1181 16.3307 40.0434 16.432C39.9741 16.5387 39.8808 16.624 39.7634 16.688C39.6514 16.752 39.5074 16.784 39.3314 16.784C39.1608 16.784 38.9821 16.768 38.7954 16.736ZM38.4034 14.384C38.3554 14.2453 38.3314 14.0773 38.3314 13.88C38.3314 13.7413 38.3474 13.6107 38.3794 13.488C38.4168 13.3653 38.4728 13.2587 38.5474 13.168C38.6221 13.072 38.7181 12.9973 38.8354 12.944C38.9528 12.8853 39.0914 12.856 39.2514 12.856C39.4114 12.856 39.5554 12.8853 39.6834 12.944C39.8168 12.9973 39.9288 13.072 40.0194 13.168C40.1101 13.264 40.1794 13.3733 40.2274 13.496C40.2808 13.6187 40.3101 13.7467 40.3154 13.88C40.3208 14.056 40.2914 14.2133 40.2274 14.352C40.1634 14.4853 40.0781 14.5973 39.9714 14.688C39.8701 14.7787 39.7554 14.848 39.6274 14.896C39.4994 14.9387 39.3741 14.96 39.2514 14.96C39.1288 14.96 39.0114 14.9413 38.8994 14.904C38.7874 14.8667 38.6888 14.8053 38.6034 14.72C38.5234 14.6347 38.4568 14.5227 38.4034 14.384ZM48.6702 11.28C48.7023 11.52 48.7316 11.76 48.7583 12C48.7689 12.0853 48.7342 12.1013 48.6543 12.048C48.4836 11.9253 48.2889 11.8293 48.0703 11.76C47.8516 11.6853 47.6036 11.648 47.3262 11.648C47.0969 11.648 46.8729 11.6933 46.6543 11.784C46.4409 11.8747 46.2516 12.016 46.0863 12.208C45.9209 12.4 45.7876 12.6453 45.6862 12.944C45.5902 13.2427 45.5423 13.6027 45.5423 14.024C45.5423 14.4773 45.6089 14.84 45.7422 15.112C45.8756 15.3787 46.0356 15.584 46.2223 15.728C46.4142 15.872 46.6116 15.9653 46.8143 16.008C47.0169 16.056 47.1876 16.08 47.3262 16.08C47.6036 16.08 47.8516 16.032 48.0703 15.936C48.2943 15.8347 48.4889 15.7067 48.6543 15.552C48.6809 15.6693 48.7476 15.7733 48.8543 15.864C48.9609 15.9493 49.1396 15.9947 49.3903 16C49.5503 16 49.6809 15.9813 49.7822 15.944C49.8836 15.9013 49.9609 15.848 50.0143 15.784C50.0676 15.72 50.1022 15.6507 50.1183 15.576C50.1396 15.496 50.1502 15.4187 50.1502 15.344C50.1502 15.136 50.1423 14.9413 50.1263 14.76C50.1102 14.5787 50.0916 14.4053 50.0703 14.24C50.0489 14.0693 50.0303 13.904 50.0143 13.744C49.9982 13.5787 49.9902 13.4107 49.9902 13.24V12.6C49.9902 12.4293 49.9982 12.264 50.0143 12.104C50.0303 11.9387 50.0489 11.7733 50.0703 11.608C50.0916 11.4373 50.1102 11.2613 50.1263 11.08C50.1423 10.8987 50.1502 10.704 50.1502 10.496C50.1502 10.4213 50.1396 10.3467 50.1183 10.272C50.1022 10.192 50.0676 10.12 50.0143 10.056C49.9609 9.992 49.8836 9.94133 49.7822 9.904C49.6809 9.86133 49.5503 9.84 49.3903 9.84C49.2249 9.84 49.0916 9.86133 48.9902 9.904C48.8942 9.94667 48.8196 10.0027 48.7663 10.072C48.7129 10.136 48.6756 10.208 48.6543 10.288C48.6382 10.3627 48.6302 10.4373 48.6302 10.512C48.6302 10.784 48.6436 11.04 48.6702 11.28ZM46.8543 14.264C46.8276 14.1413 46.8143 14.0107 46.8143 13.872C46.8143 13.472 46.8942 13.1787 47.0542 12.992C47.2196 12.8053 47.4463 12.712 47.7342 12.712C47.8569 12.712 47.9823 12.7387 48.1102 12.792C48.2383 12.8453 48.3556 12.9227 48.4622 13.024C48.5689 13.1253 48.6543 13.248 48.7183 13.392C48.7876 13.536 48.8196 13.696 48.8143 13.872C48.8036 14.2187 48.7023 14.4773 48.5103 14.648C48.3182 14.8133 48.0596 14.896 47.7342 14.896C47.5529 14.896 47.4009 14.8693 47.2783 14.816C47.1609 14.7573 47.0676 14.6827 46.9982 14.592C46.9289 14.496 46.8809 14.3867 46.8543 14.264ZM52.9045 14.712C52.9098 14.6907 52.9338 14.6747 52.9765 14.664C53.2325 14.5947 53.4832 14.5093 53.7285 14.408C53.9738 14.3067 54.2058 14.1893 54.4245 14.056C54.6485 13.9227 54.8192 13.7707 54.9365 13.6C55.0592 13.4293 55.1338 13.256 55.1605 13.08C55.1925 12.8987 55.1792 12.7227 55.1205 12.552C55.0672 12.3813 54.9738 12.2293 54.8405 12.096C54.7125 11.9627 54.5472 11.856 54.3445 11.776C54.1418 11.6907 53.9098 11.648 53.6485 11.648C53.3178 11.648 53.0058 11.704 52.7125 11.816C52.4192 11.928 52.1632 12.0853 51.9445 12.288C51.7312 12.4907 51.5605 12.7333 51.4325 13.016C51.3098 13.2933 51.2485 13.6027 51.2485 13.944C51.2485 14.3227 51.3045 14.648 51.4165 14.92C51.5338 15.1867 51.6912 15.408 51.8885 15.584C52.0912 15.7547 52.3285 15.88 52.6005 15.96C52.8725 16.04 53.1685 16.08 53.4885 16.08C53.6485 16.08 53.8165 16.064 53.9925 16.032C54.1685 16 54.3392 15.9573 54.5045 15.904C54.6752 15.8453 54.8298 15.776 54.9685 15.696C55.1125 15.6107 55.2272 15.52 55.3125 15.424C55.4085 15.312 55.4565 15.192 55.4565 15.064C55.4618 14.936 55.4325 14.816 55.3685 14.704C55.3098 14.592 55.2272 14.4987 55.1205 14.424C55.0192 14.3493 54.9072 14.312 54.7845 14.312C54.6512 14.312 54.5312 14.3573 54.4245 14.448C54.2752 14.576 54.1338 14.6827 54.0005 14.768C53.8672 14.8533 53.6992 14.896 53.4965 14.896C53.2778 14.896 53.0992 14.856 52.9605 14.776C52.9232 14.7547 52.9045 14.7333 52.9045 14.712ZM52.6485 13.744C52.5632 13.7707 52.5258 13.7387 52.5365 13.648C52.5792 13.3547 52.6912 13.1253 52.8725 12.96C53.0538 12.7947 53.2885 12.712 53.5765 12.712C53.6565 12.712 53.7205 12.7387 53.7685 12.792C53.8165 12.84 53.8432 12.8987 53.8485 12.968C53.8592 13.0373 53.8458 13.1067 53.8085 13.176C53.7765 13.2453 53.7178 13.3013 53.6325 13.344C53.4458 13.4347 53.2698 13.512 53.1045 13.576C52.9445 13.64 52.7925 13.696 52.6485 13.744ZM57.9309 13.568C57.9415 13.376 57.9575 13.1813 57.9789 12.984C57.9895 12.9253 58.0135 12.88 58.0509 12.848C58.0882 12.816 58.1362 12.8053 58.1949 12.816C58.3069 12.832 58.4162 12.8507 58.5229 12.872C58.6349 12.888 58.7495 12.896 58.8669 12.896C58.9415 12.896 59.0135 12.888 59.0829 12.872C59.1522 12.856 59.2135 12.8267 59.2669 12.784C59.3255 12.7413 59.3709 12.6827 59.4029 12.608C59.4402 12.528 59.4589 12.4267 59.4589 12.304C59.4589 12.1813 59.4429 12.0827 59.4109 12.008C59.3789 11.928 59.3362 11.8667 59.2829 11.824C59.2295 11.7813 59.1682 11.752 59.0989 11.736C59.0295 11.72 58.9575 11.712 58.8829 11.712C58.7762 11.712 58.6775 11.7173 58.5869 11.728C58.5015 11.7387 58.4162 11.752 58.3309 11.768C58.2722 11.7787 58.2269 11.7707 58.1949 11.744C58.1629 11.712 58.1522 11.6667 58.1629 11.608C58.1789 11.4853 58.1869 11.384 58.1869 11.304C58.1869 11.2293 58.1762 11.1547 58.1549 11.08C58.1389 11 58.1042 10.928 58.0509 10.864C57.9975 10.7947 57.9202 10.7387 57.8189 10.696C57.7229 10.6533 57.5922 10.632 57.4269 10.632C57.2669 10.632 57.1362 10.6533 57.0349 10.696C56.9335 10.7333 56.8562 10.784 56.8029 10.848C56.7495 10.912 56.7122 10.984 56.6909 11.064C56.6749 11.1387 56.6669 11.2133 56.6669 11.288V11.52C56.6669 11.6267 56.6055 11.7067 56.4829 11.76C56.4082 11.7973 56.3495 11.8587 56.3069 11.944C56.2695 12.024 56.2535 12.144 56.2589 12.304C56.2642 12.4907 56.2935 12.6267 56.3469 12.712C56.4002 12.792 56.4722 12.8453 56.5629 12.872C56.6962 12.9147 56.7629 12.9867 56.7629 13.088C56.7682 13.1733 56.7709 13.2613 56.7709 13.352V13.632C56.7709 13.8293 56.7629 14.0267 56.7469 14.224C56.7362 14.4213 56.7335 14.6107 56.7389 14.792C56.7442 14.9733 56.7629 15.144 56.7949 15.304C56.8322 15.4587 56.9015 15.5947 57.0029 15.712C57.1042 15.824 57.2429 15.912 57.4189 15.976C57.5949 16.04 57.8242 16.072 58.1069 16.072C58.2029 16.072 58.3095 16.0667 58.4269 16.056C58.5442 16.0453 58.6642 16.024 58.7869 15.992C58.9149 15.9547 59.0375 15.9067 59.1549 15.848C59.2775 15.784 59.3869 15.7013 59.4829 15.6C59.5629 15.52 59.6135 15.4267 59.6349 15.32C59.6615 15.2133 59.6669 15.1067 59.6509 15C59.6349 14.888 59.6002 14.7867 59.5469 14.696C59.4935 14.6 59.4295 14.5253 59.3549 14.472C59.2802 14.4133 59.1949 14.384 59.0989 14.384C59.0082 14.3787 58.9122 14.4133 58.8109 14.488C58.6775 14.5893 58.5762 14.6507 58.5069 14.672C58.4375 14.688 58.3575 14.6827 58.2669 14.656C58.1762 14.6293 58.1042 14.5653 58.0509 14.464C58.0029 14.3573 57.9682 14.2293 57.9469 14.08C57.9309 13.9253 57.9255 13.7547 57.9309 13.568ZM62.2233 14.712C62.2286 14.6907 62.2526 14.6747 62.2952 14.664C62.5513 14.5947 62.8019 14.5093 63.0473 14.408C63.2926 14.3067 63.5246 14.1893 63.7433 14.056C63.9673 13.9227 64.1379 13.7707 64.2552 13.6C64.3779 13.4293 64.4526 13.256 64.4792 13.08C64.5113 12.8987 64.4979 12.7227 64.4393 12.552C64.3859 12.3813 64.2926 12.2293 64.1592 12.096C64.0312 11.9627 63.8659 11.856 63.6632 11.776C63.4606 11.6907 63.2286 11.648 62.9673 11.648C62.6366 11.648 62.3246 11.704 62.0312 11.816C61.7379 11.928 61.4819 12.0853 61.2633 12.288C61.0499 12.4907 60.8793 12.7333 60.7513 13.016C60.6286 13.2933 60.5673 13.6027 60.5673 13.944C60.5673 14.3227 60.6233 14.648 60.7353 14.92C60.8526 15.1867 61.0099 15.408 61.2073 15.584C61.4099 15.7547 61.6473 15.88 61.9193 15.96C62.1912 16.04 62.4873 16.08 62.8073 16.08C62.9673 16.08 63.1353 16.064 63.3113 16.032C63.4873 16 63.6579 15.9573 63.8232 15.904C63.9939 15.8453 64.1486 15.776 64.2873 15.696C64.4313 15.6107 64.5459 15.52 64.6312 15.424C64.7272 15.312 64.7753 15.192 64.7753 15.064C64.7806 14.936 64.7513 14.816 64.6872 14.704C64.6286 14.592 64.5459 14.4987 64.4393 14.424C64.3379 14.3493 64.2259 14.312 64.1032 14.312C63.9699 14.312 63.8499 14.3573 63.7433 14.448C63.5939 14.576 63.4526 14.6827 63.3193 14.768C63.1859 14.8533 63.0179 14.896 62.8153 14.896C62.5966 14.896 62.4179 14.856 62.2793 14.776C62.2419 14.7547 62.2233 14.7333 62.2233 14.712ZM61.9673 13.744C61.8819 13.7707 61.8446 13.7387 61.8553 13.648C61.8979 13.3547 62.0099 13.1253 62.1912 12.96C62.3726 12.7947 62.6073 12.712 62.8953 12.712C62.9753 12.712 63.0393 12.7387 63.0872 12.792C63.1353 12.84 63.1619 12.8987 63.1673 12.968C63.1779 13.0373 63.1646 13.1067 63.1273 13.176C63.0953 13.2453 63.0366 13.3013 62.9513 13.344C62.7646 13.4347 62.5886 13.512 62.4233 13.576C62.2633 13.64 62.1113 13.696 61.9673 13.744ZM68.5796 12.76C68.7236 12.7867 68.897 12.8453 69.0996 12.936C69.1796 12.9733 69.2623 12.992 69.3476 12.992C69.4703 12.992 69.569 12.952 69.6436 12.872C69.7183 12.792 69.7636 12.6987 69.7796 12.592C69.7956 12.48 69.7823 12.3707 69.7396 12.264C69.697 12.152 69.6196 12.0693 69.5076 12.016C69.4116 11.968 69.3156 11.9227 69.2196 11.88C69.1236 11.832 69.0223 11.792 68.9156 11.76C68.8143 11.728 68.7023 11.7013 68.5796 11.68C68.457 11.6587 68.321 11.648 68.1716 11.648C67.841 11.648 67.5343 11.704 67.2516 11.816C66.969 11.928 66.7236 12.0853 66.5156 12.288C66.3076 12.4907 66.145 12.7333 66.0276 13.016C65.9103 13.2933 65.8516 13.6027 65.8516 13.944C65.8516 14.3227 65.9076 14.648 66.0196 14.92C66.137 15.1867 66.2943 15.408 66.4916 15.584C66.6943 15.7547 66.9316 15.88 67.2036 15.96C67.4756 16.04 67.7716 16.08 68.0916 16.08C68.2516 16.08 68.4143 16.064 68.5796 16.032C68.7503 16 68.913 15.9573 69.0676 15.904C69.2276 15.8453 69.3743 15.776 69.5076 15.696C69.641 15.6107 69.7503 15.52 69.8356 15.424C69.9316 15.312 69.9796 15.192 69.9796 15.064C69.985 14.936 69.9556 14.816 69.8916 14.704C69.833 14.592 69.7503 14.4987 69.6436 14.424C69.5423 14.3493 69.4303 14.312 69.3076 14.312C69.1743 14.312 69.0543 14.3573 68.9476 14.448C68.873 14.512 68.8036 14.5707 68.7396 14.624C68.681 14.6773 68.6196 14.7253 68.5556 14.768C68.497 14.8053 68.4303 14.8373 68.3556 14.864C68.2863 14.8853 68.201 14.896 68.0996 14.896C67.9183 14.896 67.7663 14.8693 67.6436 14.816C67.521 14.7573 67.4196 14.6827 67.3396 14.592C67.265 14.496 67.2116 14.3867 67.1796 14.264C67.1476 14.1413 67.1316 14.0107 67.1316 13.872C67.1316 13.5147 67.225 13.232 67.4116 13.024C67.5983 12.816 67.8543 12.712 68.1796 12.712C68.3023 12.712 68.4356 12.728 68.5796 12.76ZM72.7059 13.568C72.7165 13.376 72.7325 13.1813 72.7539 12.984C72.7645 12.9253 72.7885 12.88 72.8259 12.848C72.8632 12.816 72.9112 12.8053 72.9699 12.816C73.0819 12.832 73.1912 12.8507 73.2979 12.872C73.4099 12.888 73.5245 12.896 73.6419 12.896C73.7165 12.896 73.7885 12.888 73.8579 12.872C73.9272 12.856 73.9885 12.8267 74.0419 12.784C74.1005 12.7413 74.1459 12.6827 74.1779 12.608C74.2152 12.528 74.2339 12.4267 74.2339 12.304C74.2339 12.1813 74.2179 12.0827 74.1859 12.008C74.1539 11.928 74.1112 11.8667 74.0579 11.824C74.0045 11.7813 73.9432 11.752 73.8739 11.736C73.8045 11.72 73.7325 11.712 73.6579 11.712C73.5512 11.712 73.4525 11.7173 73.3619 11.728C73.2765 11.7387 73.1912 11.752 73.1059 11.768C73.0472 11.7787 73.0019 11.7707 72.9699 11.744C72.9379 11.712 72.9272 11.6667 72.9379 11.608C72.9539 11.4853 72.9619 11.384 72.9619 11.304C72.9619 11.2293 72.9512 11.1547 72.9299 11.08C72.9139 11 72.8792 10.928 72.8259 10.864C72.7725 10.7947 72.6952 10.7387 72.5939 10.696C72.4979 10.6533 72.3672 10.632 72.2019 10.632C72.0419 10.632 71.9112 10.6533 71.8099 10.696C71.7085 10.7333 71.6312 10.784 71.5779 10.848C71.5245 10.912 71.4872 10.984 71.4659 11.064C71.4499 11.1387 71.4419 11.2133 71.4419 11.288V11.52C71.4419 11.6267 71.3805 11.7067 71.2579 11.76C71.1832 11.7973 71.1245 11.8587 71.0819 11.944C71.0445 12.024 71.0285 12.144 71.0339 12.304C71.0392 12.4907 71.0685 12.6267 71.1219 12.712C71.1752 12.792 71.2472 12.8453 71.3379 12.872C71.4712 12.9147 71.5379 12.9867 71.5379 13.088C71.5432 13.1733 71.5459 13.2613 71.5459 13.352V13.632C71.5459 13.8293 71.5379 14.0267 71.5219 14.224C71.5112 14.4213 71.5085 14.6107 71.5139 14.792C71.5192 14.9733 71.5379 15.144 71.5699 15.304C71.6072 15.4587 71.6765 15.5947 71.7779 15.712C71.8792 15.824 72.0179 15.912 72.1939 15.976C72.3699 16.04 72.5992 16.072 72.8819 16.072C72.9779 16.072 73.0845 16.0667 73.2019 16.056C73.3192 16.0453 73.4392 16.024 73.5619 15.992C73.6899 15.9547 73.8125 15.9067 73.9299 15.848C74.0525 15.784 74.1619 15.7013 74.2579 15.6C74.3379 15.52 74.3885 15.4267 74.4099 15.32C74.4365 15.2133 74.4419 15.1067 74.4259 15C74.4099 14.888 74.3752 14.7867 74.3219 14.696C74.2685 14.6 74.2045 14.5253 74.1299 14.472C74.0552 14.4133 73.9699 14.384 73.8739 14.384C73.7832 14.3787 73.6872 14.4133 73.5859 14.488C73.4525 14.5893 73.3512 14.6507 73.2819 14.672C73.2125 14.688 73.1325 14.6827 73.0419 14.656C72.9512 14.6293 72.8792 14.5653 72.8259 14.464C72.7779 14.3573 72.7432 14.2293 72.7219 14.08C72.7059 13.9253 72.7005 13.7547 72.7059 13.568ZM80.8879 13.864C80.8452 14.024 80.7972 14.1813 80.7439 14.336C80.7012 14.4533 80.6585 14.4533 80.6159 14.336C80.5625 14.1813 80.5119 14.024 80.4639 13.864C80.4212 13.704 80.3705 13.544 80.3119 13.384C80.2212 13.144 80.1332 12.9093 80.0479 12.68C79.9625 12.4507 79.8639 12.2373 79.7519 12.04C79.7092 11.9653 79.6452 11.8933 79.5599 11.824C79.4799 11.7547 79.3759 11.72 79.2479 11.72C79.1092 11.72 78.9545 11.7707 78.7839 11.872C78.6505 11.952 78.5545 12.0373 78.4959 12.128C78.4372 12.2187 78.3999 12.3093 78.3839 12.4C78.3732 12.4853 78.3759 12.568 78.3919 12.648C78.4132 12.7227 78.4399 12.7893 78.4719 12.848C78.5679 13.024 78.6879 13.2187 78.8319 13.432C78.9812 13.64 79.1172 13.856 79.2399 14.08L79.4159 14.4C79.5385 14.624 79.6425 14.8507 79.7279 15.08C79.8185 15.304 79.9119 15.5013 80.0079 15.672C80.0612 15.7627 80.1385 15.84 80.2399 15.904C80.3465 15.9627 80.4905 15.992 80.6719 15.992C80.8585 15.992 81.0052 15.9627 81.1119 15.904C81.2185 15.84 81.2985 15.7627 81.3519 15.672C81.4479 15.5013 81.5385 15.304 81.6239 15.08C81.7145 14.8507 81.8212 14.624 81.9439 14.4L82.1199 14.08C82.2425 13.856 82.3759 13.64 82.5199 13.432C82.6692 13.2187 82.7919 13.024 82.8879 12.848C82.9199 12.7893 82.9439 12.7227 82.9599 12.648C82.9812 12.568 82.9839 12.4853 82.9679 12.4C82.9572 12.3093 82.9225 12.2187 82.8639 12.128C82.8052 12.0373 82.7092 11.952 82.5759 11.872C82.4052 11.7707 82.2505 11.72 82.1119 11.72C81.9839 11.72 81.8772 11.7547 81.7919 11.824C81.7119 11.8933 81.6505 11.9653 81.6079 12.04C81.4959 12.2373 81.3972 12.4507 81.3119 12.68C81.2265 12.904 81.1385 13.1387 81.0479 13.384C80.9892 13.544 80.9359 13.704 80.8879 13.864ZM84.2124 13.32C84.2284 13.4427 84.2364 13.5653 84.2364 13.688V14.032C84.2364 14.1547 84.2284 14.2773 84.2124 14.4C84.1964 14.5227 84.1777 14.6427 84.1564 14.76C84.135 14.8773 84.1164 14.9893 84.1004 15.096C84.0844 15.2027 84.0764 15.304 84.0764 15.4C84.0764 15.464 84.087 15.5307 84.1084 15.6C84.1297 15.6693 84.167 15.736 84.2204 15.8C84.279 15.8587 84.3564 15.9067 84.4524 15.944C84.5537 15.9813 84.6817 16 84.8364 16C84.991 16 85.1164 15.9813 85.2124 15.944C85.3084 15.9067 85.3857 15.8587 85.4444 15.8C85.503 15.7413 85.543 15.68 85.5644 15.616C85.5857 15.5467 85.5964 15.48 85.5964 15.416C85.5964 15.192 85.5697 14.968 85.5164 14.744C85.463 14.5147 85.4364 14.2773 85.4364 14.032V13.688C85.4364 13.4373 85.463 13.2 85.5164 12.976C85.5697 12.7467 85.5964 12.5227 85.5964 12.304C85.5964 12.24 85.5857 12.1733 85.5644 12.104C85.543 12.0347 85.503 11.9707 85.4444 11.912C85.3857 11.8533 85.3084 11.8053 85.2124 11.768C85.1164 11.7307 84.991 11.712 84.8364 11.712C84.6817 11.712 84.5537 11.7333 84.4524 11.776C84.3564 11.8133 84.279 11.8613 84.2204 11.92C84.167 11.9787 84.1297 12.0427 84.1084 12.112C84.087 12.1813 84.0764 12.248 84.0764 12.312C84.0764 12.408 84.0844 12.5093 84.1004 12.616C84.1164 12.7227 84.135 12.8347 84.1564 12.952C84.1777 13.0693 84.1964 13.192 84.2124 13.32ZM84.2524 10.312C84.1137 10.4187 84.0444 10.5547 84.0444 10.72C84.0444 10.8907 84.1137 11.0293 84.2524 11.136C84.3964 11.2427 84.5857 11.296 84.8204 11.296C85.0497 11.296 85.2337 11.2427 85.3724 11.136C85.5164 11.0293 85.5884 10.8907 85.5884 10.72C85.5884 10.5547 85.5164 10.4187 85.3724 10.312C85.2337 10.2 85.0497 10.144 84.8204 10.144C84.5857 10.144 84.3964 10.2 84.2524 10.312ZM88.7994 11.76C88.5807 11.8293 88.386 11.9253 88.2154 12.048C88.1354 12.1013 88.1007 12.0853 88.1114 12L88.1914 11.28C88.2234 11.04 88.2394 10.784 88.2394 10.512C88.2394 10.4373 88.2287 10.3627 88.2074 10.288C88.1914 10.208 88.1567 10.136 88.1034 10.072C88.05 10.0027 87.9727 9.94667 87.8714 9.904C87.7754 9.86133 87.6447 9.84 87.4794 9.84C87.3194 9.84 87.1887 9.86133 87.0874 9.904C86.986 9.94133 86.9087 9.992 86.8554 10.056C86.802 10.12 86.7647 10.192 86.7434 10.272C86.7274 10.3467 86.7194 10.4213 86.7194 10.496C86.7194 10.704 86.7274 10.8987 86.7434 11.08C86.7594 11.2613 86.778 11.4373 86.7994 11.608C86.8207 11.7733 86.8394 11.9387 86.8554 12.104C86.8714 12.264 86.8794 12.4293 86.8794 12.6V13.24C86.8794 13.4107 86.8714 13.5787 86.8554 13.744C86.8394 13.904 86.8207 14.0693 86.7994 14.24C86.778 14.4053 86.7594 14.5787 86.7434 14.76C86.7274 14.9413 86.7194 15.136 86.7194 15.344C86.7194 15.4187 86.7274 15.496 86.7434 15.576C86.7647 15.6507 86.802 15.72 86.8554 15.784C86.9087 15.848 86.986 15.9013 87.0874 15.944C87.1887 15.9813 87.3194 16 87.4794 16C87.73 15.9947 87.9087 15.9493 88.0154 15.864C88.122 15.7733 88.1887 15.6693 88.2154 15.552C88.3807 15.7067 88.5727 15.8347 88.7914 15.936C89.0154 16.032 89.266 16.08 89.5434 16.08C89.682 16.08 89.8527 16.0533 90.0554 16C90.258 15.9467 90.4527 15.8427 90.6394 15.688C90.8314 15.5333 90.994 15.3173 91.1274 15.04C91.2607 14.7627 91.3274 14.3973 91.3274 13.944C91.3274 13.5227 91.2767 13.168 91.1754 12.88C91.0794 12.5867 90.9487 12.3493 90.7834 12.168C90.618 11.9867 90.4287 11.856 90.2154 11.776C90.002 11.6907 89.778 11.648 89.5434 11.648C89.266 11.648 89.018 11.6853 88.7994 11.76ZM89.1354 12.712C89.4234 12.712 89.6474 12.8053 89.8074 12.992C89.9727 13.1787 90.0554 13.472 90.0554 13.872C90.0554 14.0107 90.042 14.1413 90.0154 14.264C89.9887 14.3867 89.9407 14.496 89.8714 14.592C89.802 14.6827 89.706 14.7573 89.5834 14.816C89.466 14.8693 89.3167 14.896 89.1354 14.896C88.81 14.896 88.5514 14.8133 88.3594 14.648C88.1674 14.4773 88.066 14.2187 88.0554 13.872C88.05 13.696 88.0794 13.536 88.1434 13.392C88.2127 13.248 88.3007 13.1253 88.4074 13.024C88.514 12.9227 88.6314 12.8453 88.7594 12.792C88.8874 12.7387 89.0127 12.712 89.1354 12.712ZM93.7856 13.6C93.791 13.568 93.7936 13.5387 93.7936 13.512C93.799 13.4533 93.8123 13.3947 93.8336 13.336C93.8603 13.272 93.895 13.2187 93.9376 13.176C94.0283 13.0853 94.119 13.0213 94.2096 12.984C94.3003 12.9467 94.3856 12.9253 94.4656 12.92C94.5456 12.9093 94.6203 12.912 94.6896 12.928C94.759 12.944 94.8176 12.96 94.8656 12.976C94.983 13.0133 95.095 13.0293 95.2016 13.024C95.3083 13.0187 95.3963 12.984 95.4656 12.92C95.5456 12.8453 95.6096 12.7387 95.6576 12.6C95.7056 12.4613 95.7136 12.3253 95.6816 12.192C95.655 12.0533 95.5776 11.936 95.4496 11.84C95.327 11.7387 95.1323 11.688 94.8656 11.688C94.6576 11.688 94.4763 11.7413 94.3216 11.848C94.1723 11.9493 94.0443 12.072 93.9376 12.216C93.9216 12.0933 93.8576 11.9787 93.7456 11.872C93.639 11.7653 93.4523 11.712 93.1856 11.712C93.031 11.712 92.903 11.7333 92.8016 11.776C92.7056 11.8133 92.6283 11.8613 92.5696 11.92C92.5163 11.9787 92.479 12.0427 92.4576 12.112C92.4363 12.1813 92.4256 12.248 92.4256 12.312C92.4256 12.408 92.4336 12.5093 92.4496 12.616C92.4656 12.7227 92.4843 12.8347 92.5056 12.952C92.527 13.0693 92.5456 13.192 92.5616 13.32C92.5776 13.4427 92.5856 13.5653 92.5856 13.688V14.032C92.5856 14.1547 92.5776 14.2773 92.5616 14.4C92.5456 14.5227 92.527 14.6427 92.5056 14.76C92.4843 14.8773 92.4656 14.9893 92.4496 15.096C92.4336 15.2027 92.4256 15.304 92.4256 15.4C92.4256 15.464 92.4363 15.5307 92.4576 15.6C92.479 15.6693 92.5163 15.736 92.5696 15.8C92.6283 15.8587 92.7056 15.9067 92.8016 15.944C92.903 15.9813 93.031 16 93.1856 16C93.3403 16 93.4656 15.9813 93.5616 15.944C93.6576 15.9067 93.735 15.8587 93.7936 15.8C93.8523 15.7413 93.8923 15.68 93.9136 15.616C93.935 15.5467 93.9456 15.48 93.9456 15.416C93.9456 15.192 93.919 14.968 93.8656 14.744C93.8123 14.5147 93.7856 14.2773 93.7856 14.032V13.688V13.6ZM96.6033 13.352C96.5126 13.6613 96.4673 13.9653 96.4673 14.264C96.4673 14.6053 96.4966 14.8933 96.5553 15.128C96.6193 15.3573 96.7126 15.544 96.8353 15.688C96.9579 15.8267 97.1073 15.928 97.2833 15.992C97.4646 16.0507 97.6753 16.08 97.9153 16.08C98.2299 16.08 98.4833 16.032 98.6753 15.936C98.8726 15.84 99.0379 15.7147 99.1712 15.56C99.1979 15.6667 99.2646 15.768 99.3713 15.864C99.4833 15.9547 99.6646 16 99.9153 16C100.07 16 100.195 15.9813 100.291 15.944C100.387 15.9067 100.465 15.8587 100.523 15.8C100.582 15.7413 100.622 15.68 100.643 15.616C100.665 15.5467 100.675 15.48 100.675 15.416C100.675 15.192 100.649 14.968 100.595 14.744C100.542 14.5147 100.515 14.2773 100.515 14.032V13.688C100.515 13.4373 100.542 13.2 100.595 12.976C100.649 12.7467 100.675 12.5227 100.675 12.304C100.675 12.24 100.665 12.1733 100.643 12.104C100.622 12.0347 100.582 11.9707 100.523 11.912C100.465 11.8533 100.387 11.8053 100.291 11.768C100.195 11.7307 100.07 11.712 99.9153 11.712C99.7339 11.712 99.5926 11.7387 99.4913 11.792C99.3899 11.84 99.3126 11.9013 99.2593 11.976C99.1366 11.8747 99.0086 11.7947 98.8753 11.736C98.7419 11.6773 98.5819 11.648 98.3953 11.648C98.1019 11.648 97.8353 11.728 97.5953 11.888C97.3606 12.048 97.1579 12.2533 96.9873 12.504C96.8219 12.7547 96.6939 13.0373 96.6033 13.352ZM97.8033 14.536C97.7659 14.4453 97.7473 14.3307 97.7473 14.192C97.7473 14.032 97.7659 13.8667 97.8033 13.696C97.8459 13.52 97.9019 13.36 97.9713 13.216C98.0459 13.072 98.1313 12.952 98.2273 12.856C98.3286 12.76 98.4406 12.712 98.5633 12.712C98.7233 12.712 98.8512 12.7387 98.9473 12.792C99.0486 12.8453 99.1233 12.9227 99.1712 13.024C99.2246 13.1253 99.2593 13.248 99.2753 13.392C99.2913 13.536 99.2993 13.696 99.2993 13.872C99.2993 14.0107 99.2833 14.1413 99.2513 14.264C99.2193 14.3867 99.1686 14.496 99.0993 14.592C99.0353 14.6827 98.9526 14.7573 98.8512 14.816C98.7499 14.8693 98.6273 14.896 98.4833 14.896C98.3819 14.896 98.2859 14.8853 98.1953 14.864C98.1046 14.8427 98.0246 14.8053 97.9553 14.752C97.8913 14.6987 97.8406 14.6267 97.8033 14.536ZM103.423 13.568C103.434 13.376 103.45 13.1813 103.471 12.984C103.482 12.9253 103.506 12.88 103.543 12.848C103.58 12.816 103.628 12.8053 103.687 12.816C103.799 12.832 103.908 12.8507 104.015 12.872C104.127 12.888 104.242 12.896 104.359 12.896C104.434 12.896 104.506 12.888 104.575 12.872C104.644 12.856 104.706 12.8267 104.759 12.784C104.818 12.7413 104.863 12.6827 104.895 12.608C104.932 12.528 104.951 12.4267 104.951 12.304C104.951 12.1813 104.935 12.0827 104.903 12.008C104.871 11.928 104.828 11.8667 104.775 11.824C104.722 11.7813 104.66 11.752 104.591 11.736C104.522 11.72 104.45 11.712 104.375 11.712C104.268 11.712 104.17 11.7173 104.079 11.728C103.994 11.7387 103.908 11.752 103.823 11.768C103.764 11.7787 103.719 11.7707 103.687 11.744C103.655 11.712 103.644 11.6667 103.655 11.608C103.671 11.4853 103.679 11.384 103.679 11.304C103.679 11.2293 103.668 11.1547 103.647 11.08C103.631 11 103.596 10.928 103.543 10.864C103.49 10.7947 103.412 10.7387 103.311 10.696C103.215 10.6533 103.084 10.632 102.919 10.632C102.759 10.632 102.628 10.6533 102.527 10.696C102.426 10.7333 102.348 10.784 102.295 10.848C102.242 10.912 102.204 10.984 102.183 11.064C102.167 11.1387 102.159 11.2133 102.159 11.288V11.52C102.159 11.6267 102.098 11.7067 101.975 11.76C101.9 11.7973 101.842 11.8587 101.799 11.944C101.762 12.024 101.746 12.144 101.751 12.304C101.756 12.4907 101.786 12.6267 101.839 12.712C101.892 12.792 101.964 12.8453 102.055 12.872C102.188 12.9147 102.255 12.9867 102.255 13.088C102.26 13.1733 102.263 13.2613 102.263 13.352V13.632C102.263 13.8293 102.255 14.0267 102.239 14.224C102.228 14.4213 102.226 14.6107 102.231 14.792C102.236 14.9733 102.255 15.144 102.287 15.304C102.324 15.4587 102.394 15.5947 102.495 15.712C102.596 15.824 102.735 15.912 102.911 15.976C103.087 16.04 103.316 16.072 103.599 16.072C103.695 16.072 103.802 16.0667 103.919 16.056C104.036 16.0453 104.156 16.024 104.279 15.992C104.407 15.9547 104.53 15.9067 104.647 15.848C104.77 15.784 104.879 15.7013 104.975 15.6C105.055 15.52 105.106 15.4267 105.127 15.32C105.154 15.2133 105.159 15.1067 105.143 15C105.127 14.888 105.092 14.7867 105.039 14.696C104.986 14.6 104.922 14.5253 104.847 14.472C104.772 14.4133 104.687 14.384 104.591 14.384C104.5 14.3787 104.404 14.4133 104.303 14.488C104.17 14.5893 104.068 14.6507 103.999 14.672C103.93 14.688 103.85 14.6827 103.759 14.656C103.668 14.6293 103.596 14.5653 103.543 14.464C103.495 14.3573 103.46 14.2293 103.439 14.08C103.423 13.9253 103.418 13.7547 103.423 13.568ZM106.439 13.32C106.455 13.4427 106.463 13.5653 106.463 13.688V14.032C106.463 14.1547 106.455 14.2773 106.439 14.4C106.423 14.5227 106.404 14.6427 106.383 14.76C106.362 14.8773 106.343 14.9893 106.327 15.096C106.311 15.2027 106.303 15.304 106.303 15.4C106.303 15.464 106.314 15.5307 106.335 15.6C106.356 15.6693 106.394 15.736 106.447 15.8C106.506 15.8587 106.583 15.9067 106.679 15.944C106.78 15.9813 106.908 16 107.063 16C107.218 16 107.343 15.9813 107.439 15.944C107.535 15.9067 107.612 15.8587 107.671 15.8C107.73 15.7413 107.77 15.68 107.791 15.616C107.812 15.5467 107.823 15.48 107.823 15.416C107.823 15.192 107.796 14.968 107.743 14.744C107.69 14.5147 107.663 14.2773 107.663 14.032V13.688C107.663 13.4373 107.69 13.2 107.743 12.976C107.796 12.7467 107.823 12.5227 107.823 12.304C107.823 12.24 107.812 12.1733 107.791 12.104C107.77 12.0347 107.73 11.9707 107.671 11.912C107.612 11.8533 107.535 11.8053 107.439 11.768C107.343 11.7307 107.218 11.712 107.063 11.712C106.908 11.712 106.78 11.7333 106.679 11.776C106.583 11.8133 106.506 11.8613 106.447 11.92C106.394 11.9787 106.356 12.0427 106.335 12.112C106.314 12.1813 106.303 12.248 106.303 12.312C106.303 12.408 106.311 12.5093 106.327 12.616C106.343 12.7227 106.362 12.8347 106.383 12.952C106.404 13.0693 106.423 13.192 106.439 13.32ZM106.479 10.312C106.34 10.4187 106.271 10.5547 106.271 10.72C106.271 10.8907 106.34 11.0293 106.479 11.136C106.623 11.2427 106.812 11.296 107.047 11.296C107.276 11.296 107.46 11.2427 107.599 11.136C107.743 11.0293 107.815 10.8907 107.815 10.72C107.815 10.5547 107.743 10.4187 107.599 10.312C107.46 10.2 107.276 10.144 107.047 10.144C106.812 10.144 106.623 10.2 106.479 10.312ZM109.09 13.016C108.978 13.2933 108.922 13.6027 108.922 13.944C108.922 14.3227 108.978 14.648 109.09 14.92C109.202 15.1867 109.357 15.408 109.554 15.584C109.757 15.7547 109.997 15.88 110.274 15.96C110.557 16.04 110.866 16.08 111.202 16.08C111.538 16.08 111.845 16.04 112.122 15.96C112.405 15.88 112.645 15.7547 112.842 15.584C113.045 15.408 113.199 15.1867 113.306 14.92C113.418 14.648 113.474 14.3227 113.474 13.944C113.474 13.6027 113.418 13.2933 113.306 13.016C113.194 12.7333 113.037 12.4907 112.834 12.288C112.631 12.0853 112.391 11.928 112.114 11.816C111.837 11.704 111.533 11.648 111.202 11.648C110.871 11.648 110.565 11.704 110.282 11.816C110.005 11.928 109.765 12.0853 109.562 12.288C109.359 12.4907 109.202 12.7333 109.09 13.016ZM110.234 14.264C110.207 14.1413 110.194 14.0107 110.194 13.872C110.194 13.5147 110.282 13.232 110.458 13.024C110.634 12.816 110.885 12.712 111.21 12.712C111.535 12.712 111.786 12.816 111.962 13.024C112.138 13.232 112.226 13.5147 112.226 13.872C112.226 14.0107 112.21 14.1413 112.178 14.264C112.151 14.3867 112.098 14.496 112.018 14.592C111.943 14.6827 111.839 14.7573 111.706 14.816C111.578 14.8693 111.413 14.896 111.21 14.896C111.007 14.896 110.839 14.8693 110.706 14.816C110.578 14.7573 110.474 14.6827 110.394 14.592C110.319 14.496 110.266 14.3867 110.234 14.264ZM115.958 13.568C115.958 13.5307 115.961 13.4907 115.966 13.448C115.972 13.384 115.988 13.3227 116.014 13.264C116.041 13.2053 116.076 13.1547 116.118 13.112C116.204 13.0213 116.289 12.9547 116.374 12.912C116.46 12.864 116.54 12.832 116.614 12.816C116.689 12.7947 116.758 12.7867 116.822 12.792C116.892 12.792 116.95 12.7973 116.998 12.808C117.244 12.8613 117.366 13.2533 117.366 13.984V14.032C117.366 14.1547 117.358 14.2773 117.342 14.4C117.326 14.5227 117.308 14.6427 117.286 14.76C117.265 14.8773 117.246 14.9893 117.23 15.096C117.214 15.2027 117.206 15.304 117.206 15.4C117.206 15.464 117.217 15.5307 117.238 15.6C117.26 15.6693 117.297 15.736 117.35 15.8C117.409 15.8587 117.486 15.9067 117.582 15.944C117.684 15.9813 117.812 16 117.966 16C118.121 16 118.246 15.9813 118.342 15.944C118.438 15.9067 118.516 15.8587 118.574 15.8C118.633 15.7413 118.673 15.68 118.694 15.616C118.716 15.5467 118.726 15.48 118.726 15.416C118.726 15.192 118.7 14.968 118.646 14.744C118.593 14.5147 118.566 14.2773 118.566 14.032V13.984C118.566 13.7333 118.593 13.496 118.646 13.272C118.7 13.0427 118.726 12.8187 118.726 12.6C118.726 12.36 118.665 12.1733 118.542 12.04C118.42 11.9013 118.268 11.8 118.086 11.736C117.91 11.672 117.724 11.64 117.526 11.64C117.329 11.64 117.156 11.656 117.006 11.688C116.809 11.7307 116.638 11.8053 116.494 11.912C116.35 12.0187 116.225 12.136 116.118 12.264C116.113 12.2 116.097 12.136 116.07 12.072C116.044 12.008 116.001 11.9493 115.942 11.896C115.884 11.8427 115.804 11.8 115.702 11.768C115.606 11.7307 115.486 11.712 115.342 11.712C115.188 11.712 115.06 11.7333 114.958 11.776C114.862 11.8133 114.785 11.8613 114.726 11.92C114.668 11.9787 114.625 12.0427 114.598 12.112C114.577 12.1813 114.566 12.248 114.566 12.312C114.566 12.408 114.574 12.5093 114.59 12.616C114.606 12.7227 114.625 12.8347 114.646 12.952C114.668 13.0693 114.686 13.192 114.702 13.32C114.718 13.4427 114.726 13.5653 114.726 13.688V14.032C114.726 14.1547 114.718 14.2773 114.702 14.4C114.686 14.5227 114.668 14.6427 114.646 14.76C114.625 14.8773 114.606 14.9893 114.59 15.096C114.574 15.2027 114.566 15.304 114.566 15.4C114.566 15.464 114.577 15.5307 114.598 15.6C114.625 15.6693 114.668 15.736 114.726 15.8C114.785 15.8587 114.862 15.9067 114.958 15.944C115.06 15.9813 115.188 16 115.342 16C115.497 16 115.622 15.9813 115.718 15.944C115.82 15.9067 115.9 15.8587 115.958 15.8C116.017 15.7413 116.057 15.68 116.078 15.616C116.105 15.5467 116.118 15.48 116.118 15.416C116.118 15.192 116.092 14.968 116.038 14.744C115.985 14.5147 115.958 14.2773 115.958 14.032V13.688V13.568ZM121.451 13C121.392 12.9573 121.363 12.912 121.363 12.864C121.363 12.784 121.413 12.736 121.515 12.72C121.616 12.6987 121.723 12.688 121.835 12.688C121.931 12.688 122.075 12.7093 122.267 12.752C122.464 12.7893 122.664 12.856 122.867 12.952C123.037 13.032 123.189 13.048 123.323 13C123.456 12.9467 123.549 12.864 123.603 12.752C123.656 12.64 123.659 12.5147 123.611 12.376C123.568 12.2373 123.456 12.1227 123.275 12.032C123.205 12 123.115 11.9627 123.003 11.92C122.891 11.872 122.765 11.8293 122.627 11.792C122.493 11.7493 122.352 11.7147 122.203 11.688C122.053 11.6613 121.907 11.648 121.763 11.648C121.459 11.648 121.2 11.6827 120.987 11.752C120.773 11.8213 120.597 11.912 120.459 12.024C120.325 12.136 120.227 12.2613 120.163 12.4C120.104 12.5387 120.075 12.68 120.075 12.824C120.075 13 120.104 13.152 120.163 13.28C120.221 13.408 120.312 13.5227 120.435 13.624C120.563 13.7253 120.72 13.8187 120.907 13.904C121.093 13.984 121.315 14.0667 121.571 14.152C121.853 14.2427 122.067 14.3227 122.211 14.392C122.355 14.4613 122.427 14.5547 122.427 14.672C122.427 14.7307 122.411 14.776 122.379 14.808C122.347 14.8347 122.309 14.856 122.267 14.872C122.224 14.8827 122.181 14.8907 122.139 14.896H122.043C122 14.896 121.939 14.8933 121.859 14.888C121.784 14.8773 121.696 14.8533 121.595 14.816C121.493 14.7787 121.381 14.7253 121.259 14.656C121.136 14.5867 121.005 14.4907 120.867 14.368C120.776 14.288 120.677 14.2427 120.571 14.232C120.469 14.2213 120.371 14.2373 120.275 14.28C120.184 14.3227 120.101 14.3867 120.027 14.472C119.952 14.5573 119.896 14.6507 119.859 14.752C119.827 14.848 119.819 14.9493 119.835 15.056C119.851 15.1573 119.899 15.2533 119.979 15.344C120.128 15.4987 120.288 15.624 120.459 15.72C120.635 15.816 120.813 15.8907 120.995 15.944C121.176 15.9973 121.357 16.032 121.539 16.048C121.72 16.0693 121.891 16.08 122.051 16.08C122.168 16.08 122.32 16.0613 122.507 16.024C122.699 15.992 122.883 15.9253 123.059 15.824C123.24 15.7227 123.395 15.5787 123.523 15.392C123.656 15.2053 123.723 14.9627 123.723 14.664C123.723 14.4507 123.68 14.2693 123.595 14.12C123.509 13.9653 123.4 13.8347 123.267 13.728C123.133 13.6213 122.981 13.5333 122.811 13.464C122.645 13.3947 122.483 13.336 122.323 13.288C122.216 13.256 122.107 13.2267 121.995 13.2C121.883 13.168 121.779 13.136 121.683 13.104C121.592 13.072 121.515 13.0373 121.451 13Z" fill="black"/>
</svg>
