<svg width="16" height="6" viewBox="0 0 16 6" fill="none" xmlns="http://www.w3.org/2000/svg">
<path d="M2.535 3.0305C2.457 3.05217 2.38767 3.07167 2.327 3.089C2.27067 3.102 2.20133 3.1085 2.119 3.1085C2.05833 3.1085 1.9955 3.102 1.9305 3.089C1.86983 3.07167 1.81133 3.04133 1.755 2.998C1.703 2.95467 1.65967 2.894 1.625 2.816C1.59033 2.73367 1.573 2.62533 1.573 2.491C1.573 2.361 1.58817 2.25483 1.6185 2.1725C1.65317 2.09017 1.6965 2.02733 1.7485 1.984C1.8005 1.94067 1.85683 1.9125 1.9175 1.8995C1.9825 1.88217 2.04533 1.8735 2.106 1.8735C2.19267 1.8735 2.262 1.88 2.314 1.893C2.366 1.906 2.4115 1.92117 2.4505 1.9385C2.4895 1.95583 2.5285 1.971 2.5675 1.984C2.6065 1.997 2.65417 2.0035 2.7105 2.0035C2.81017 2.0035 2.89467 2.00133 2.964 1.997C3.03333 1.98833 3.09617 1.97967 3.1525 1.971C3.20883 1.958 3.25867 1.94933 3.302 1.945C3.34533 1.93633 3.38867 1.932 3.432 1.932C3.51 1.932 3.59233 1.94933 3.679 1.984C3.76133 2.01867 3.809 2.075 3.822 2.153C3.835 2.231 3.83283 2.32417 3.8155 2.4325C3.8025 2.54083 3.783 2.66217 3.757 2.7965C3.73533 2.9265 3.72667 3.063 3.731 3.206C3.75267 3.40967 3.77433 3.61333 3.796 3.817C3.822 4.01633 3.835 4.22867 3.835 4.454C3.835 4.51467 3.82633 4.5775 3.809 4.6425C3.79167 4.70317 3.75917 4.76167 3.7115 4.818C3.66383 4.87 3.59667 4.91333 3.51 4.948C3.42767 4.98267 3.31933 5 3.185 5C3.06367 5 2.96183 4.987 2.8795 4.961C2.79717 4.935 2.73217 4.89817 2.6845 4.8505C2.6065 4.9155 2.51117 4.9675 2.3985 5.0065C2.29017 5.0455 2.15367 5.065 1.989 5.065C1.651 5.065 1.36283 5.00867 1.1245 4.896C0.8905 4.779 0.699833 4.61433 0.5525 4.402C0.405167 4.18533 0.296833 3.92317 0.2275 3.6155C0.1625 3.3035 0.13 2.9525 0.13 2.5625C0.13 2.22883 0.169 1.9125 0.247 1.6135C0.329333 1.31017 0.455 1.04367 0.624 0.814C0.793 0.584333 1.00533 0.402333 1.261 0.268C1.521 0.129333 1.82867 0.0599997 2.184 0.0599997C2.34 0.0599997 2.47 0.0686664 2.574 0.0859997C2.68233 0.103333 2.77767 0.127166 2.86 0.1575C2.94233 0.187833 3.01817 0.224666 3.0875 0.268C3.16117 0.307 3.237 0.3525 3.315 0.4045C3.44933 0.486833 3.53383 0.584333 3.5685 0.697C3.60317 0.805333 3.60533 0.909333 3.575 1.009C3.549 1.10867 3.49483 1.19317 3.4125 1.2625C3.3345 1.33183 3.24567 1.3665 3.146 1.3665C3.07667 1.3665 3.00083 1.34267 2.9185 1.295C2.85783 1.256 2.8015 1.217 2.7495 1.178C2.6975 1.139 2.64333 1.10433 2.587 1.074C2.535 1.04367 2.4765 1.01983 2.4115 1.0025C2.35083 0.985167 2.275 0.9765 2.184 0.9765C2.002 0.9765 1.85033 1.01767 1.729 1.1C1.612 1.18233 1.51883 1.295 1.4495 1.438C1.38017 1.581 1.3325 1.74783 1.3065 1.9385C1.2805 2.12917 1.2675 2.335 1.2675 2.556C1.2675 2.777 1.27833 2.9785 1.3 3.1605C1.326 3.33817 1.36717 3.48983 1.4235 3.6155C1.47983 3.74117 1.5535 3.83867 1.6445 3.908C1.73983 3.97733 1.85467 4.012 1.989 4.012C2.12333 4.012 2.2295 3.98383 2.3075 3.9275C2.38983 3.87117 2.45267 3.80183 2.496 3.7195C2.54367 3.63717 2.57617 3.5505 2.5935 3.4595C2.61517 3.36417 2.63033 3.27967 2.639 3.206C2.639 3.19733 2.639 3.19083 2.639 3.1865C2.64333 3.17783 2.6455 3.16917 2.6455 3.1605V3.128C2.65417 3.04133 2.61733 3.00883 2.535 3.0305ZM6.20979 3.8625C6.17945 3.97517 6.14262 4.09433 6.09929 4.22C6.06029 4.34133 6.00612 4.48433 5.93679 4.649C5.90212 4.73567 5.84579 4.81583 5.76779 4.8895C5.69412 4.96317 5.59012 5 5.45579 5C5.36479 5 5.25429 4.974 5.12429 4.922C5.00295 4.87 4.90979 4.8115 4.84479 4.7465C4.77979 4.67717 4.73429 4.60783 4.70829 4.5385C4.68662 4.46483 4.68012 4.39333 4.68879 4.324C4.69745 4.25467 4.71479 4.19183 4.74079 4.1355C5.00079 3.52883 5.23479 2.92217 5.44279 2.3155C5.65079 1.70883 5.86095 1.087 6.07329 0.45C6.10795 0.350333 6.18595 0.268 6.30729 0.203C6.42862 0.138 6.58029 0.1055 6.76229 0.1055C6.94429 0.1055 7.09595 0.138 7.21729 0.203C7.33862 0.268 7.41662 0.350333 7.45129 0.45C7.66795 1.087 7.87812 1.70883 8.08179 2.3155C8.28979 2.92217 8.52379 3.52883 8.78379 4.1355C8.80979 4.19183 8.82712 4.25467 8.83579 4.324C8.84445 4.39333 8.83579 4.46483 8.80979 4.5385C8.78812 4.60783 8.74479 4.67717 8.67979 4.7465C8.61912 4.8115 8.52595 4.87 8.40029 4.922C8.27029 4.974 8.15979 5 8.06879 5C7.93445 5 7.82829 4.96317 7.75029 4.8895C7.67662 4.81583 7.62245 4.73567 7.58779 4.649C7.51845 4.48433 7.46212 4.33917 7.41879 4.2135C7.37979 4.08783 7.34512 3.96867 7.31479 3.856C7.29312 3.77367 7.24112 3.72817 7.15879 3.7195C7.11979 3.71517 7.07862 3.713 7.03529 3.713C6.99629 3.713 6.95295 3.713 6.90529 3.713H6.64529C6.58895 3.713 6.53695 3.71517 6.48929 3.7195C6.44595 3.7195 6.40479 3.72167 6.36579 3.726C6.28345 3.73467 6.23145 3.78017 6.20979 3.8625ZM6.72329 1.5615C6.70595 1.62217 6.68645 1.698 6.66479 1.789C6.64312 1.88 6.62145 1.9775 6.59979 2.0815C6.57812 2.1855 6.55645 2.29167 6.53479 2.4C6.51745 2.50833 6.49795 2.61233 6.47629 2.712C6.46329 2.79867 6.49579 2.842 6.57379 2.842H6.64529H6.90529H6.95079C7.02879 2.842 7.06129 2.80083 7.04829 2.7185C7.03095 2.61883 7.01145 2.51483 6.98979 2.4065C6.96812 2.29817 6.94645 2.192 6.92479 2.088C6.90312 1.984 6.88145 1.8865 6.85979 1.7955C6.83812 1.70017 6.81862 1.62217 6.80129 1.5615C6.79262 1.52683 6.77962 1.5095 6.76229 1.5095C6.74495 1.5095 6.73195 1.52683 6.72329 1.5615ZM9.8508 2.3675C9.8508 2.22883 9.8443 2.09233 9.8313 1.958C9.8183 1.81933 9.80313 1.68067 9.7858 1.542C9.76847 1.399 9.7533 1.256 9.7403 1.113C9.7273 0.97 9.7208 0.822666 9.7208 0.671C9.7208 0.571333 9.73813 0.486833 9.7728 0.4175C9.80747 0.348167 9.85513 0.291833 9.9158 0.2485C9.97647 0.205166 10.048 0.174833 10.1303 0.1575C10.2126 0.135833 10.2993 0.125 10.3903 0.125C10.516 0.125 10.62 0.142333 10.7023 0.177C10.7846 0.207333 10.8496 0.2485 10.8973 0.3005C10.945 0.3525 10.9775 0.411 10.9948 0.476C11.0121 0.536666 11.0208 0.597333 11.0208 0.658C11.0208 0.827 11.0143 0.985167 11.0013 1.1325C10.9883 1.27983 10.9731 1.42283 10.9558 1.5615C10.9385 1.69583 10.9233 1.83017 10.9103 1.9645C10.8973 2.0945 10.8908 2.22883 10.8908 2.3675V2.7575C10.8908 2.89617 10.8973 3.03267 10.9103 3.167C10.9233 3.297 10.9385 3.43133 10.9558 3.57C10.9731 3.70433 10.9883 3.84517 11.0013 3.9925C11.0143 4.13983 11.0208 4.298 11.0208 4.467C11.0208 4.52767 11.0121 4.5905 10.9948 4.6555C10.9775 4.71617 10.945 4.7725 10.8973 4.8245C10.8496 4.8765 10.7846 4.91983 10.7023 4.9545C10.62 4.98483 10.516 5 10.3903 5C10.204 5 10.0458 4.95883 9.9158 4.8765C9.7858 4.79417 9.7208 4.65333 9.7208 4.454C9.7208 4.30233 9.7273 4.155 9.7403 4.012C9.7533 3.869 9.76847 3.72817 9.7858 3.5895C9.80313 3.4465 9.8183 3.30783 9.8313 3.1735C9.8443 3.03483 9.8508 2.89617 9.8508 2.7575V2.3675ZM14.3423 4.7595C14.312 4.71617 14.2946 4.675 14.2903 4.636L13.1593 2.27C13.142 2.23533 13.1268 2.22017 13.1138 2.2245C13.1051 2.2245 13.1008 2.244 13.1008 2.283V2.3675V2.5625C13.1008 2.70117 13.1095 2.8485 13.1268 3.0045C13.1485 3.15617 13.1723 3.31217 13.1983 3.4725C13.2243 3.63283 13.246 3.7975 13.2633 3.9665C13.285 4.13117 13.2958 4.298 13.2958 4.467C13.2958 4.52767 13.285 4.5905 13.2633 4.6555C13.2416 4.71617 13.2048 4.7725 13.1528 4.8245C13.1008 4.8765 13.0293 4.91983 12.9383 4.9545C12.8516 4.98483 12.7433 5 12.6133 5C12.479 5 12.3706 4.98267 12.2883 4.948C12.2103 4.91333 12.1496 4.87 12.1063 4.818C12.063 4.76167 12.0326 4.70317 12.0153 4.6425C12.0023 4.5775 11.9958 4.51467 11.9958 4.454C11.9958 4.30233 12.0023 4.155 12.0153 4.012C12.0283 3.869 12.0435 3.72817 12.0608 3.5895C12.0781 3.4465 12.0933 3.30783 12.1063 3.1735C12.1193 3.03483 12.1258 2.89617 12.1258 2.7575V2.3675C12.1258 2.22883 12.1193 2.09233 12.1063 1.958C12.0933 1.81933 12.0781 1.68067 12.0608 1.542C12.0435 1.399 12.0283 1.256 12.0153 1.113C12.0023 0.97 11.9958 0.822666 11.9958 0.671C11.9958 0.610333 12.0023 0.549667 12.0153 0.489C12.0326 0.424 12.063 0.3655 12.1063 0.3135C12.1496 0.257167 12.2103 0.211666 12.2883 0.177C12.3706 0.142333 12.479 0.125 12.6133 0.125H12.8863C12.973 0.125 13.0531 0.148833 13.1268 0.1965C13.2005 0.239833 13.2546 0.298333 13.2893 0.372L14.3423 2.517C14.3596 2.55167 14.3726 2.569 14.3813 2.569C14.3943 2.56467 14.4008 2.543 14.4008 2.504V2.3675C14.4008 2.22883 14.39 2.09233 14.3683 1.958C14.351 1.81933 14.3293 1.68067 14.3033 1.542C14.2773 1.399 14.2535 1.256 14.2318 1.113C14.2145 0.97 14.2058 0.822666 14.2058 0.671C14.2058 0.610333 14.2166 0.549667 14.2383 0.489C14.26 0.424 14.2968 0.3655 14.3488 0.3135C14.4008 0.257167 14.4701 0.211666 14.5568 0.177C14.6435 0.142333 14.754 0.125 14.8883 0.125C15.0183 0.125 15.1245 0.142333 15.2068 0.177C15.2891 0.207333 15.352 0.2485 15.3953 0.3005C15.4386 0.3525 15.4668 0.411 15.4798 0.476C15.4971 0.536666 15.5058 0.597333 15.5058 0.658C15.5058 0.827 15.4993 0.985167 15.4863 1.1325C15.4733 1.27983 15.4581 1.42283 15.4408 1.5615C15.4235 1.69583 15.4083 1.83017 15.3953 1.9645C15.3823 2.0945 15.3758 2.22883 15.3758 2.3675V2.7575C15.3758 2.89617 15.3823 3.03267 15.3953 3.167C15.4083 3.297 15.4235 3.43133 15.4408 3.57C15.4581 3.70433 15.4733 3.84517 15.4863 3.9925C15.4993 4.13983 15.5058 4.298 15.5058 4.467C15.5058 4.52333 15.4993 4.58183 15.4863 4.6425C15.4733 4.70317 15.4451 4.7595 15.4018 4.8115C15.3628 4.8635 15.3065 4.90683 15.2328 4.9415C15.1635 4.97617 15.0703 4.99567 14.9533 5H14.7323C14.6586 5 14.5871 4.97833 14.5178 4.935C14.4485 4.89167 14.39 4.83317 14.3423 4.7595Z" fill="black"/>
</svg>
