<svg width="20" height="8" viewBox="0 0 20 8" fill="none" xmlns="http://www.w3.org/2000/svg">
<path d="M3.12 4.576C3.024 4.60267 2.93867 4.62667 2.864 4.648C2.79467 4.664 2.70933 4.672 2.608 4.672C2.53333 4.672 2.456 4.664 2.376 4.648C2.30133 4.62667 2.22933 4.58933 2.16 4.536C2.096 4.48267 2.04267 4.408 2 4.312C1.95733 4.21067 1.936 4.07733 1.936 3.912C1.936 3.752 1.95467 3.62133 1.992 3.52C2.03467 3.41867 2.088 3.34133 2.152 3.288C2.216 3.23467 2.28533 3.2 2.36 3.184C2.44 3.16267 2.51733 3.152 2.592 3.152C2.69867 3.152 2.784 3.16 2.848 3.176C2.912 3.192 2.968 3.21067 3.016 3.232C3.064 3.25333 3.112 3.272 3.16 3.288C3.208 3.304 3.26667 3.312 3.336 3.312C3.45867 3.312 3.56267 3.30933 3.648 3.304C3.73333 3.29333 3.81067 3.28267 3.88 3.272C3.94933 3.256 4.01067 3.24533 4.064 3.24C4.11733 3.22933 4.17067 3.224 4.224 3.224C4.32 3.224 4.42133 3.24533 4.528 3.288C4.62933 3.33067 4.688 3.4 4.704 3.496C4.72 3.592 4.71733 3.70667 4.696 3.84C4.68 3.97333 4.656 4.12267 4.624 4.288C4.59733 4.448 4.58667 4.616 4.592 4.792C4.61867 5.04267 4.64533 5.29333 4.672 5.544C4.704 5.78933 4.72 6.05067 4.72 6.328C4.72 6.40267 4.70933 6.48 4.688 6.56C4.66667 6.63467 4.62667 6.70667 4.568 6.776C4.50933 6.84 4.42667 6.89333 4.32 6.936C4.21867 6.97867 4.08533 7 3.92 7C3.77067 7 3.64533 6.984 3.544 6.952C3.44267 6.92 3.36267 6.87467 3.304 6.816C3.208 6.896 3.09067 6.96 2.952 7.008C2.81867 7.056 2.65067 7.08 2.448 7.08C2.032 7.08 1.67733 7.01067 1.384 6.872C1.096 6.728 0.861333 6.52533 0.68 6.264C0.498667 5.99733 0.365333 5.67467 0.28 5.296C0.2 4.912 0.16 4.48 0.16 4C0.16 3.58933 0.208 3.2 0.304 2.832C0.405333 2.45867 0.56 2.13067 0.768 1.848C0.976 1.56533 1.23733 1.34133 1.552 1.176C1.872 1.00533 2.25067 0.92 2.688 0.92C2.88 0.92 3.04 0.930666 3.168 0.952C3.30133 0.973333 3.41867 1.00267 3.52 1.04C3.62133 1.07733 3.71467 1.12267 3.8 1.176C3.89067 1.224 3.984 1.28 4.08 1.344C4.24533 1.44533 4.34933 1.56533 4.392 1.704C4.43467 1.83733 4.43733 1.96533 4.4 2.088C4.368 2.21067 4.30133 2.31467 4.2 2.4C4.104 2.48533 3.99467 2.528 3.872 2.528C3.78667 2.528 3.69333 2.49867 3.592 2.44C3.51733 2.392 3.448 2.344 3.384 2.296C3.32 2.248 3.25333 2.20533 3.184 2.168C3.12 2.13067 3.048 2.10133 2.968 2.08C2.89333 2.05867 2.8 2.048 2.688 2.048C2.464 2.048 2.27733 2.09867 2.128 2.2C1.984 2.30133 1.86933 2.44 1.784 2.616C1.69867 2.792 1.64 2.99733 1.608 3.232C1.576 3.46667 1.56 3.72 1.56 3.992C1.56 4.264 1.57333 4.512 1.6 4.736C1.632 4.95467 1.68267 5.14133 1.752 5.296C1.82133 5.45067 1.912 5.57067 2.024 5.656C2.14133 5.74133 2.28267 5.784 2.448 5.784C2.61333 5.784 2.744 5.74933 2.84 5.68C2.94133 5.61067 3.01867 5.52533 3.072 5.424C3.13067 5.32267 3.17067 5.216 3.192 5.104C3.21867 4.98667 3.23733 4.88267 3.248 4.792C3.248 4.78133 3.248 4.77333 3.248 4.768C3.25333 4.75733 3.256 4.74667 3.256 4.736V4.696C3.26667 4.58933 3.22133 4.54933 3.12 4.576ZM7.64281 5.6C7.60548 5.73867 7.56015 5.88533 7.50681 6.04C7.45881 6.18933 7.39215 6.36533 7.30681 6.568C7.26415 6.67467 7.19481 6.77333 7.09881 6.864C7.00815 6.95467 6.88015 7 6.71481 7C6.60281 7 6.46681 6.968 6.30681 6.904C6.15748 6.84 6.04281 6.768 5.96281 6.688C5.88281 6.60267 5.82681 6.51733 5.79481 6.432C5.76815 6.34133 5.76015 6.25333 5.77081 6.168C5.78148 6.08267 5.80281 6.00533 5.83481 5.936C6.15481 5.18933 6.44281 4.44267 6.69881 3.696C6.95481 2.94933 7.21348 2.184 7.47481 1.4C7.51748 1.27733 7.61348 1.176 7.76281 1.096C7.91215 1.016 8.09881 0.976 8.32281 0.976C8.54681 0.976 8.73348 1.016 8.88281 1.096C9.03215 1.176 9.12815 1.27733 9.17081 1.4C9.43748 2.184 9.69615 2.94933 9.94681 3.696C10.2028 4.44267 10.4908 5.18933 10.8108 5.936C10.8428 6.00533 10.8641 6.08267 10.8748 6.168C10.8855 6.25333 10.8748 6.34133 10.8428 6.432C10.8161 6.51733 10.7628 6.60267 10.6828 6.688C10.6081 6.768 10.4935 6.84 10.3388 6.904C10.1788 6.968 10.0428 7 9.93081 7C9.76548 7 9.63481 6.95467 9.53881 6.864C9.44815 6.77333 9.38148 6.67467 9.33881 6.568C9.25348 6.36533 9.18415 6.18667 9.13081 6.032C9.08281 5.87733 9.04015 5.73067 9.00281 5.592C8.97615 5.49067 8.91215 5.43467 8.81081 5.424C8.76281 5.41867 8.71215 5.416 8.65881 5.416C8.61081 5.416 8.55748 5.416 8.49881 5.416H8.17881C8.10948 5.416 8.04548 5.41867 7.98681 5.424C7.93348 5.424 7.88281 5.42667 7.83481 5.432C7.73348 5.44267 7.66948 5.49867 7.64281 5.6ZM8.27481 2.768C8.25348 2.84267 8.22948 2.936 8.20281 3.048C8.17615 3.16 8.14948 3.28 8.12281 3.408C8.09615 3.536 8.06948 3.66667 8.04281 3.8C8.02148 3.93333 7.99748 4.06133 7.97081 4.184C7.95481 4.29067 7.99481 4.344 8.09081 4.344H8.17881H8.49881H8.55481C8.65081 4.344 8.69081 4.29333 8.67481 4.192C8.65348 4.06933 8.62948 3.94133 8.60281 3.808C8.57615 3.67467 8.54948 3.544 8.52281 3.416C8.49615 3.288 8.46948 3.168 8.44281 3.056C8.41615 2.93867 8.39215 2.84267 8.37081 2.768C8.36015 2.72533 8.34415 2.704 8.32281 2.704C8.30148 2.704 8.28548 2.72533 8.27481 2.768ZM12.1241 3.76C12.1241 3.58933 12.1161 3.42133 12.1001 3.256C12.0841 3.08533 12.0654 2.91467 12.0441 2.744C12.0227 2.568 12.0041 2.392 11.9881 2.216C11.9721 2.04 11.9641 1.85867 11.9641 1.672C11.9641 1.54933 11.9854 1.44533 12.0281 1.36C12.0707 1.27467 12.1294 1.20533 12.2041 1.152C12.2787 1.09867 12.3667 1.06133 12.4681 1.04C12.5694 1.01333 12.6761 1 12.7881 1C12.9427 1 13.0707 1.02133 13.1721 1.064C13.2734 1.10133 13.3534 1.152 13.4121 1.216C13.4707 1.28 13.5107 1.352 13.5321 1.432C13.5534 1.50667 13.5641 1.58133 13.5641 1.656C13.5641 1.864 13.5561 2.05867 13.5401 2.24C13.5241 2.42133 13.5054 2.59733 13.4841 2.768C13.4627 2.93333 13.4441 3.09867 13.4281 3.264C13.4121 3.424 13.4041 3.58933 13.4041 3.76V4.24C13.4041 4.41067 13.4121 4.57867 13.4281 4.744C13.4441 4.904 13.4627 5.06933 13.4841 5.24C13.5054 5.40533 13.5241 5.57867 13.5401 5.76C13.5561 5.94133 13.5641 6.136 13.5641 6.344C13.5641 6.41867 13.5534 6.496 13.5321 6.576C13.5107 6.65067 13.4707 6.72 13.4121 6.784C13.3534 6.848 13.2734 6.90133 13.1721 6.944C13.0707 6.98133 12.9427 7 12.7881 7C12.5587 7 12.3641 6.94933 12.2041 6.848C12.0441 6.74667 11.9641 6.57333 11.9641 6.328C11.9641 6.14133 11.9721 5.96 11.9881 5.784C12.0041 5.608 12.0227 5.43467 12.0441 5.264C12.0654 5.088 12.0841 4.91733 12.1001 4.752C12.1161 4.58133 12.1241 4.41067 12.1241 4.24V3.76ZM17.6521 6.704C17.6147 6.65067 17.5934 6.6 17.5881 6.552L16.1961 3.64C16.1747 3.59733 16.1561 3.57867 16.1401 3.584C16.1294 3.584 16.1241 3.608 16.1241 3.656V3.76V4C16.1241 4.17067 16.1347 4.352 16.1561 4.544C16.1827 4.73067 16.2121 4.92267 16.2441 5.12C16.2761 5.31733 16.3027 5.52 16.3241 5.728C16.3507 5.93067 16.3641 6.136 16.3641 6.344C16.3641 6.41867 16.3507 6.496 16.3241 6.576C16.2974 6.65067 16.2521 6.72 16.1881 6.784C16.1241 6.848 16.0361 6.90133 15.9241 6.944C15.8174 6.98133 15.6841 7 15.5241 7C15.3587 7 15.2254 6.97867 15.1241 6.936C15.0281 6.89333 14.9534 6.84 14.9001 6.776C14.8467 6.70667 14.8094 6.63467 14.7881 6.56C14.7721 6.48 14.7641 6.40267 14.7641 6.328C14.7641 6.14133 14.7721 5.96 14.7881 5.784C14.8041 5.608 14.8227 5.43467 14.8441 5.264C14.8654 5.088 14.8841 4.91733 14.9001 4.752C14.9161 4.58133 14.9241 4.41067 14.9241 4.24V3.76C14.9241 3.58933 14.9161 3.42133 14.9001 3.256C14.8841 3.08533 14.8654 2.91467 14.8441 2.744C14.8227 2.568 14.8041 2.392 14.7881 2.216C14.7721 2.04 14.7641 1.85867 14.7641 1.672C14.7641 1.59733 14.7721 1.52267 14.7881 1.448C14.8094 1.368 14.8467 1.296 14.9001 1.232C14.9534 1.16267 15.0281 1.10667 15.1241 1.064C15.2254 1.02133 15.3587 1 15.5241 1H15.8601C15.9667 1 16.0654 1.02933 16.1561 1.088C16.2467 1.14133 16.3134 1.21333 16.3561 1.304L17.6521 3.944C17.6734 3.98667 17.6894 4.008 17.7001 4.008C17.7161 4.00267 17.7241 3.976 17.7241 3.928V3.76C17.7241 3.58933 17.7107 3.42133 17.6841 3.256C17.6627 3.08533 17.6361 2.91467 17.6041 2.744C17.5721 2.568 17.5427 2.392 17.5161 2.216C17.4947 2.04 17.4841 1.85867 17.4841 1.672C17.4841 1.59733 17.4974 1.52267 17.5241 1.448C17.5507 1.368 17.5961 1.296 17.6601 1.232C17.7241 1.16267 17.8094 1.10667 17.9161 1.064C18.0227 1.02133 18.1587 1 18.3241 1C18.4841 1 18.6147 1.02133 18.7161 1.064C18.8174 1.10133 18.8947 1.152 18.9481 1.216C19.0014 1.28 19.0361 1.352 19.0521 1.432C19.0734 1.50667 19.0841 1.58133 19.0841 1.656C19.0841 1.864 19.0761 2.05867 19.0601 2.24C19.0441 2.42133 19.0254 2.59733 19.0041 2.768C18.9827 2.93333 18.9641 3.09867 18.9481 3.264C18.9321 3.424 18.9241 3.58933 18.9241 3.76V4.24C18.9241 4.41067 18.9321 4.57867 18.9481 4.744C18.9641 4.904 18.9827 5.06933 19.0041 5.24C19.0254 5.40533 19.0441 5.57867 19.0601 5.76C19.0761 5.94133 19.0841 6.136 19.0841 6.344C19.0841 6.41333 19.0761 6.48533 19.0601 6.56C19.0441 6.63467 19.0094 6.704 18.9561 6.768C18.9081 6.832 18.8387 6.88533 18.7481 6.928C18.6627 6.97067 18.5481 6.99467 18.4041 7H18.1321C18.0414 7 17.9534 6.97333 17.8681 6.92C17.7827 6.86667 17.7107 6.79467 17.6521 6.704Z" fill="black"/>
</svg>
