<svg width="69" height="25" viewBox="0 0 69 25" fill="none" xmlns="http://www.w3.org/2000/svg">
<path d="M2.8123 7.309C2.8383 7.56033 2.8643 7.82033 2.8903 8.089C2.9163 8.349 2.9293 8.63067 2.9293 8.934C2.9293 9.05533 2.91196 9.181 2.8773 9.311C2.84263 9.43233 2.77763 9.545 2.6823 9.649C2.58696 9.753 2.45696 9.83967 2.2923 9.909C2.12763 9.96967 1.91963 10 1.6683 10C1.29563 10 0.979295 9.91767 0.719295 9.753C0.459295 9.58833 0.329295 9.30667 0.329295 8.908C0.329295 8.60467 0.342295 8.31 0.368295 8.024C0.394295 7.738 0.424629 7.45633 0.459295 7.179C0.493962 6.893 0.524295 6.61567 0.550295 6.347C0.576295 6.06967 0.589295 5.79233 0.589295 5.515V4.735C0.589295 4.45767 0.576295 4.18467 0.550295 3.916C0.524295 3.63867 0.493962 3.36133 0.459295 3.084C0.424629 2.798 0.394295 2.512 0.368295 2.226C0.342295 1.94 0.329295 1.64533 0.329295 1.342C0.329295 1.14267 0.363962 0.973666 0.433295 0.834999C0.502629 0.696333 0.597962 0.583667 0.719295 0.497C0.840629 0.410333 0.983629 0.349666 1.1483 0.314999C1.31296 0.271666 1.4863 0.249999 1.6683 0.249999C1.91963 0.249999 2.12763 0.284666 2.2923 0.353999C2.45696 0.414666 2.58696 0.497 2.6823 0.600999C2.77763 0.705 2.84263 0.822 2.8773 0.951999C2.91196 1.07333 2.9293 1.19467 2.9293 1.316C2.9293 1.654 2.9163 1.97033 2.8903 2.265C2.8643 2.55967 2.83396 2.84567 2.7993 3.123C2.76463 3.39167 2.7343 3.66033 2.7083 3.929C2.6823 4.189 2.6693 4.45767 2.6693 4.735V5.008C2.6693 5.17267 2.75163 5.26367 2.9163 5.281C2.97696 5.28967 3.04196 5.294 3.1113 5.294C3.18063 5.294 3.24996 5.294 3.3193 5.294H3.8393C3.9433 5.294 4.03863 5.294 4.1253 5.294C4.21196 5.28533 4.2943 5.27667 4.3723 5.268C4.53696 5.25067 4.6193 5.15967 4.6193 4.995V4.735C4.6193 4.45767 4.6063 4.18467 4.5803 3.916C4.5543 3.63867 4.52396 3.36133 4.4893 3.084C4.45463 2.798 4.4243 2.512 4.3983 2.226C4.3723 1.94 4.3593 1.64533 4.3593 1.342C4.3593 1.14267 4.39396 0.973666 4.4633 0.834999C4.53263 0.696333 4.62796 0.583667 4.7493 0.497C4.87063 0.410333 5.01363 0.349666 5.1783 0.314999C5.34296 0.271666 5.5163 0.249999 5.6983 0.249999C5.94963 0.249999 6.15763 0.284666 6.3223 0.353999C6.48696 0.414666 6.61696 0.497 6.7123 0.600999C6.80763 0.705 6.87263 0.822 6.9073 0.951999C6.94196 1.07333 6.9593 1.19467 6.9593 1.316C6.9593 1.654 6.9463 1.97033 6.9203 2.265C6.8943 2.55967 6.86396 2.84567 6.8293 3.123C6.79463 3.39167 6.7643 3.66033 6.7383 3.929C6.7123 4.189 6.6993 4.45767 6.6993 4.735V5.515C6.6993 5.79233 6.7123 6.06533 6.7383 6.334C6.7643 6.594 6.79463 6.86267 6.8293 7.14C6.86396 7.40867 6.8943 7.69033 6.9203 7.985C6.9463 8.27967 6.9593 8.596 6.9593 8.934C6.9593 9.05533 6.94196 9.181 6.9073 9.311C6.87263 9.43233 6.80763 9.545 6.7123 9.649C6.61696 9.753 6.48696 9.83967 6.3223 9.909C6.15763 9.96967 5.94963 10 5.6983 10C5.32563 10 5.0093 9.91767 4.7493 9.753C4.4893 9.58833 4.3593 9.30667 4.3593 8.908C4.3593 8.63067 4.3723 8.362 4.3983 8.102C4.4243 7.83333 4.4503 7.57333 4.4763 7.322C4.49363 7.15733 4.41996 7.06633 4.2553 7.049C4.18596 7.04033 4.11663 7.036 4.0473 7.036C3.98663 7.036 3.9173 7.036 3.8393 7.036H3.3193C3.2673 7.036 3.2153 7.04033 3.1633 7.049C3.11996 7.049 3.07663 7.049 3.0333 7.049C2.86863 7.06633 2.79496 7.153 2.8123 7.309ZM8.83871 4.735C8.83871 4.45767 8.82571 4.18467 8.79971 3.916C8.77371 3.63867 8.74338 3.36133 8.70871 3.084C8.67404 2.798 8.64371 2.512 8.61771 2.226C8.59171 1.94 8.57871 1.64533 8.57871 1.342C8.57871 1.14267 8.61338 0.973666 8.68271 0.834999C8.75204 0.696333 8.84738 0.583667 8.96871 0.497C9.09004 0.410333 9.23304 0.349666 9.39771 0.314999C9.56238 0.271666 9.73571 0.249999 9.91771 0.249999C10.169 0.249999 10.377 0.284666 10.5417 0.353999C10.7064 0.414666 10.8364 0.497 10.9317 0.600999C11.027 0.705 11.092 0.822 11.1267 0.951999C11.1614 1.07333 11.1787 1.19467 11.1787 1.316C11.1787 1.654 11.1657 1.97033 11.1397 2.265C11.1137 2.55967 11.0834 2.84567 11.0487 3.123C11.014 3.39167 10.9837 3.66033 10.9577 3.929C10.9317 4.189 10.9187 4.45767 10.9187 4.735V5.515C10.9187 5.79233 10.9317 6.06533 10.9577 6.334C10.9837 6.594 11.014 6.86267 11.0487 7.14C11.0834 7.40867 11.1137 7.69033 11.1397 7.985C11.1657 8.27967 11.1787 8.596 11.1787 8.934C11.1787 9.05533 11.1614 9.181 11.1267 9.311C11.092 9.43233 11.027 9.545 10.9317 9.649C10.8364 9.753 10.7064 9.83967 10.5417 9.909C10.377 9.96967 10.169 10 9.91771 10C9.54504 10 9.22871 9.91767 8.96871 9.753C8.70871 9.58833 8.57871 9.30667 8.57871 8.908C8.57871 8.60467 8.59171 8.31 8.61771 8.024C8.64371 7.738 8.67404 7.45633 8.70871 7.179C8.74338 6.893 8.77371 6.61567 8.79971 6.347C8.82571 6.06967 8.83871 5.79233 8.83871 5.515V4.735ZM17.5487 6.061C17.3927 6.10433 17.254 6.14333 17.1327 6.178C17.02 6.204 16.8814 6.217 16.7167 6.217C16.5954 6.217 16.4697 6.204 16.3397 6.178C16.2184 6.14333 16.1014 6.08267 15.9887 5.996C15.8847 5.90933 15.798 5.788 15.7287 5.632C15.6594 5.46733 15.6247 5.25067 15.6247 4.982C15.6247 4.722 15.655 4.50967 15.7157 4.345C15.785 4.18033 15.8717 4.05467 15.9757 3.968C16.0797 3.88133 16.1924 3.825 16.3137 3.799C16.4437 3.76433 16.5694 3.747 16.6907 3.747C16.864 3.747 17.0027 3.76 17.1067 3.786C17.2107 3.812 17.3017 3.84233 17.3797 3.877C17.4577 3.91167 17.5357 3.942 17.6137 3.968C17.6917 3.994 17.787 4.007 17.8997 4.007C18.099 4.007 18.268 4.00267 18.4067 3.994C18.5454 3.97667 18.671 3.95933 18.7837 3.942C18.8964 3.916 18.996 3.89867 19.0827 3.89C19.1694 3.87267 19.256 3.864 19.3427 3.864C19.4987 3.864 19.6634 3.89867 19.8367 3.968C20.0014 4.03733 20.0967 4.15 20.1227 4.306C20.1487 4.462 20.1444 4.64833 20.1097 4.865C20.0837 5.08167 20.0447 5.32433 19.9927 5.593C19.9494 5.853 19.932 6.126 19.9407 6.412C19.984 6.81933 20.0274 7.22667 20.0707 7.634C20.1227 8.03267 20.1487 8.45733 20.1487 8.908C20.1487 9.02933 20.1314 9.155 20.0967 9.285C20.062 9.40633 19.997 9.52333 19.9017 9.636C19.8064 9.74 19.672 9.82667 19.4987 9.896C19.334 9.96533 19.1174 10 18.8487 10C18.606 10 18.4024 9.974 18.2377 9.922C18.073 9.87 17.943 9.79633 17.8477 9.701C17.6917 9.831 17.501 9.935 17.2757 10.013C17.059 10.091 16.786 10.13 16.4567 10.13C15.7807 10.13 15.2044 10.0173 14.7277 9.792C14.2597 9.558 13.8784 9.22867 13.5837 8.804C13.289 8.37067 13.0724 7.84633 12.9337 7.231C12.8037 6.607 12.7387 5.905 12.7387 5.125C12.7387 4.45767 12.8167 3.825 12.9727 3.227C13.1374 2.62033 13.3887 2.08733 13.7267 1.628C14.0647 1.16867 14.4894 0.804666 15.0007 0.535999C15.5207 0.258666 16.136 0.119999 16.8467 0.119999C17.1587 0.119999 17.4187 0.137333 17.6267 0.171999C17.8434 0.206666 18.034 0.254333 18.1987 0.314999C18.3634 0.375666 18.515 0.449333 18.6537 0.535999C18.801 0.613999 18.9527 0.705 19.1087 0.809C19.3774 0.973666 19.5464 1.16867 19.6157 1.394C19.685 1.61067 19.6894 1.81867 19.6287 2.018C19.5767 2.21733 19.4684 2.38633 19.3037 2.525C19.1477 2.66367 18.97 2.733 18.7707 2.733C18.632 2.733 18.4804 2.68533 18.3157 2.59C18.1944 2.512 18.0817 2.434 17.9777 2.356C17.8737 2.278 17.7654 2.20867 17.6527 2.148C17.5487 2.08733 17.4317 2.03967 17.3017 2.005C17.1804 1.97033 17.0287 1.953 16.8467 1.953C16.4827 1.953 16.1794 2.03533 15.9367 2.2C15.7027 2.36467 15.5164 2.59 15.3777 2.876C15.239 3.162 15.1437 3.49567 15.0917 3.877C15.0397 4.25833 15.0137 4.67 15.0137 5.112C15.0137 5.554 15.0354 5.957 15.0787 6.321C15.1307 6.67633 15.213 6.97967 15.3257 7.231C15.4384 7.48233 15.5857 7.67733 15.7677 7.816C15.9584 7.95467 16.188 8.024 16.4567 8.024C16.7254 8.024 16.9377 7.96767 17.0937 7.855C17.2584 7.74233 17.384 7.60367 17.4707 7.439C17.566 7.27433 17.631 7.101 17.6657 6.919C17.709 6.72833 17.7394 6.55933 17.7567 6.412C17.7567 6.39467 17.7567 6.38167 17.7567 6.373C17.7654 6.35567 17.7697 6.33833 17.7697 6.321V6.256C17.787 6.08267 17.7134 6.01767 17.5487 6.061ZM24.1963 7.309C24.2223 7.56033 24.2483 7.82033 24.2743 8.089C24.3003 8.349 24.3133 8.63067 24.3133 8.934C24.3133 9.05533 24.2959 9.181 24.2613 9.311C24.2266 9.43233 24.1616 9.545 24.0663 9.649C23.9709 9.753 23.8409 9.83967 23.6763 9.909C23.5116 9.96967 23.3036 10 23.0523 10C22.6796 10 22.3633 9.91767 22.1033 9.753C21.8433 9.58833 21.7133 9.30667 21.7133 8.908C21.7133 8.60467 21.7263 8.31 21.7523 8.024C21.7783 7.738 21.8086 7.45633 21.8433 7.179C21.8779 6.893 21.9083 6.61567 21.9343 6.347C21.9603 6.06967 21.9733 5.79233 21.9733 5.515V4.735C21.9733 4.45767 21.9603 4.18467 21.9343 3.916C21.9083 3.63867 21.8779 3.36133 21.8433 3.084C21.8086 2.798 21.7783 2.512 21.7523 2.226C21.7263 1.94 21.7133 1.64533 21.7133 1.342C21.7133 1.14267 21.7479 0.973666 21.8173 0.834999C21.8866 0.696333 21.9819 0.583667 22.1033 0.497C22.2246 0.410333 22.3676 0.349666 22.5323 0.314999C22.6969 0.271666 22.8703 0.249999 23.0523 0.249999C23.3036 0.249999 23.5116 0.284666 23.6763 0.353999C23.8409 0.414666 23.9709 0.497 24.0663 0.600999C24.1616 0.705 24.2266 0.822 24.2613 0.951999C24.2959 1.07333 24.3133 1.19467 24.3133 1.316C24.3133 1.654 24.3003 1.97033 24.2743 2.265C24.2483 2.55967 24.2179 2.84567 24.1833 3.123C24.1486 3.39167 24.1183 3.66033 24.0923 3.929C24.0663 4.189 24.0533 4.45767 24.0533 4.735V5.008C24.0533 5.17267 24.1356 5.26367 24.3003 5.281C24.3609 5.28967 24.4259 5.294 24.4953 5.294C24.5646 5.294 24.6339 5.294 24.7033 5.294H25.2233C25.3273 5.294 25.4226 5.294 25.5093 5.294C25.5959 5.28533 25.6783 5.27667 25.7563 5.268C25.9209 5.25067 26.0033 5.15967 26.0033 4.995V4.735C26.0033 4.45767 25.9903 4.18467 25.9643 3.916C25.9383 3.63867 25.9079 3.36133 25.8733 3.084C25.8386 2.798 25.8083 2.512 25.7823 2.226C25.7563 1.94 25.7433 1.64533 25.7433 1.342C25.7433 1.14267 25.7779 0.973666 25.8473 0.834999C25.9166 0.696333 26.0119 0.583667 26.1333 0.497C26.2546 0.410333 26.3976 0.349666 26.5623 0.314999C26.7269 0.271666 26.9003 0.249999 27.0823 0.249999C27.3336 0.249999 27.5416 0.284666 27.7063 0.353999C27.8709 0.414666 28.0009 0.497 28.0963 0.600999C28.1916 0.705 28.2566 0.822 28.2913 0.951999C28.3259 1.07333 28.3433 1.19467 28.3433 1.316C28.3433 1.654 28.3303 1.97033 28.3043 2.265C28.2783 2.55967 28.2479 2.84567 28.2133 3.123C28.1786 3.39167 28.1483 3.66033 28.1223 3.929C28.0963 4.189 28.0833 4.45767 28.0833 4.735V5.515C28.0833 5.79233 28.0963 6.06533 28.1223 6.334C28.1483 6.594 28.1786 6.86267 28.2133 7.14C28.2479 7.40867 28.2783 7.69033 28.3043 7.985C28.3303 8.27967 28.3433 8.596 28.3433 8.934C28.3433 9.05533 28.3259 9.181 28.2913 9.311C28.2566 9.43233 28.1916 9.545 28.0963 9.649C28.0009 9.753 27.8709 9.83967 27.7063 9.909C27.5416 9.96967 27.3336 10 27.0823 10C26.7096 10 26.3933 9.91767 26.1333 9.753C25.8733 9.58833 25.7433 9.30667 25.7433 8.908C25.7433 8.63067 25.7563 8.362 25.7823 8.102C25.8083 7.83333 25.8343 7.57333 25.8603 7.322C25.8776 7.15733 25.8039 7.06633 25.6393 7.049C25.5699 7.04033 25.5006 7.036 25.4313 7.036C25.3706 7.036 25.3013 7.036 25.2233 7.036H24.7033C24.6513 7.036 24.5993 7.04033 24.5473 7.049C24.5039 7.049 24.4606 7.049 24.4173 7.049C24.2526 7.06633 24.1789 7.153 24.1963 7.309ZM32.4457 6.62C32.151 6.62 31.8867 6.646 31.6527 6.698C31.4187 6.75 31.1587 6.776 30.8727 6.776C30.63 6.776 30.409 6.698 30.2097 6.542C30.019 6.37733 29.9194 6.09133 29.9107 5.684C29.9107 5.48467 29.9367 5.31567 29.9887 5.177C30.0407 5.03833 30.11 4.92567 30.1967 4.839C30.2834 4.75233 30.383 4.69167 30.4957 4.657C30.6084 4.61367 30.7254 4.592 30.8467 4.592C31.02 4.592 31.1717 4.60067 31.3017 4.618C31.4404 4.63533 31.566 4.65267 31.6787 4.67C31.8 4.68733 31.9214 4.70467 32.0427 4.722C32.164 4.73933 32.2984 4.748 32.4457 4.748C32.593 4.748 32.7274 4.73933 32.8487 4.722C32.97 4.70467 33.087 4.68733 33.1997 4.67C33.321 4.65267 33.4467 4.63533 33.5767 4.618C33.7154 4.60067 33.8714 4.592 34.0447 4.592C34.166 4.592 34.283 4.61367 34.3957 4.657C34.5084 4.69167 34.608 4.75233 34.6947 4.839C34.7814 4.92567 34.8507 5.03833 34.9027 5.177C34.9547 5.31567 34.9807 5.48467 34.9807 5.684C34.972 6.09133 34.868 6.37733 34.6687 6.542C34.478 6.698 34.2614 6.776 34.0187 6.776C33.88 6.776 33.7457 6.76733 33.6157 6.75C33.4944 6.73267 33.3687 6.71533 33.2387 6.698C33.1174 6.68067 32.9917 6.66333 32.8617 6.646C32.7317 6.62867 32.593 6.62 32.4457 6.62ZM39.019 7.14C39.0537 7.41733 39.084 7.70333 39.11 7.998C39.136 8.284 39.149 8.596 39.149 8.934C39.149 9.05533 39.1317 9.181 39.097 9.311C39.0624 9.43233 38.993 9.545 38.889 9.649C38.7937 9.753 38.6594 9.83967 38.486 9.909C38.3214 9.96967 38.109 10 37.849 10C37.5804 10 37.3594 9.96533 37.186 9.896C37.0214 9.82667 36.8914 9.74 36.796 9.636C36.7007 9.52333 36.6357 9.40633 36.601 9.285C36.5664 9.155 36.549 9.02933 36.549 8.908C36.549 8.60467 36.562 8.31 36.588 8.024C36.614 7.738 36.6444 7.45633 36.679 7.179C36.7137 6.893 36.744 6.61567 36.77 6.347C36.796 6.06967 36.809 5.79233 36.809 5.515V4.735C36.809 4.45767 36.796 4.18467 36.77 3.916C36.744 3.63867 36.7137 3.36133 36.679 3.084C36.6444 2.798 36.614 2.512 36.588 2.226C36.562 1.94 36.549 1.64533 36.549 1.342C36.549 1.22067 36.5664 1.09933 36.601 0.978C36.6357 0.848 36.7007 0.730999 36.796 0.627C36.9 0.514333 37.0344 0.423333 37.199 0.353999C37.3724 0.284666 37.5934 0.249999 37.862 0.249999H39.552C40.8867 0.249999 41.9007 0.531666 42.594 1.095C43.296 1.65833 43.647 2.48167 43.647 3.565C43.647 4.085 43.5387 4.553 43.322 4.969C43.114 5.385 42.8237 5.736 42.451 6.022C42.087 6.308 41.6537 6.529 41.151 6.685C40.657 6.841 40.124 6.919 39.552 6.919H39.214C39.0667 6.919 39.0017 6.99267 39.019 7.14ZM39.552 5.125C39.89 5.125 40.1717 5.07733 40.397 4.982C40.631 4.88667 40.8217 4.76533 40.969 4.618C41.1164 4.462 41.2204 4.293 41.281 4.111C41.3504 3.92033 41.385 3.734 41.385 3.552C41.385 3.37 41.359 3.19233 41.307 3.019C41.255 2.84567 41.1597 2.68967 41.021 2.551C40.8824 2.41233 40.6917 2.29967 40.449 2.213C40.215 2.12633 39.916 2.083 39.552 2.083H39.344C39.2054 2.083 39.1274 2.15667 39.11 2.304C39.0667 2.746 39.019 3.15767 38.967 3.539C38.915 3.92033 38.889 4.319 38.889 4.735V4.904C38.889 5.05133 38.9627 5.125 39.11 5.125H39.552ZM46.7444 7.725C46.6837 7.95033 46.61 8.18867 46.5234 8.44C46.4454 8.68267 46.337 8.96867 46.1984 9.298C46.129 9.47133 46.0164 9.63167 45.8604 9.779C45.713 9.92633 45.505 10 45.2364 10C45.0544 10 44.8334 9.948 44.5734 9.844C44.3307 9.74 44.1444 9.623 44.0144 9.493C43.8844 9.35433 43.7934 9.21567 43.7414 9.077C43.698 8.92967 43.685 8.78667 43.7024 8.648C43.7197 8.50933 43.7544 8.38367 43.8064 8.271C44.3264 7.05767 44.7944 5.84433 45.2104 4.631C45.6264 3.41767 46.0467 2.174 46.4714 0.899999C46.5407 0.700666 46.6967 0.535999 46.9394 0.406C47.182 0.276 47.4854 0.211 47.8494 0.211C48.2134 0.211 48.5167 0.276 48.7594 0.406C49.002 0.535999 49.158 0.700666 49.2274 0.899999C49.6607 2.174 50.081 3.41767 50.4884 4.631C50.9044 5.84433 51.3724 7.05767 51.8924 8.271C51.9444 8.38367 51.979 8.50933 51.9964 8.648C52.0137 8.78667 51.9964 8.92967 51.9444 9.077C51.901 9.21567 51.8144 9.35433 51.6844 9.493C51.563 9.623 51.3767 9.74 51.1254 9.844C50.8654 9.948 50.6444 10 50.4624 10C50.1937 10 49.9814 9.92633 49.8254 9.779C49.678 9.63167 49.5697 9.47133 49.5004 9.298C49.3617 8.96867 49.249 8.67833 49.1624 8.427C49.0844 8.17567 49.015 7.93733 48.9544 7.712C48.911 7.54733 48.807 7.45633 48.6424 7.439C48.5644 7.43033 48.482 7.426 48.3954 7.426C48.3174 7.426 48.2307 7.426 48.1354 7.426H47.6154C47.5027 7.426 47.3987 7.43033 47.3034 7.439C47.2167 7.439 47.1344 7.44333 47.0564 7.452C46.8917 7.46933 46.7877 7.56033 46.7444 7.725ZM47.7714 3.123C47.7367 3.24433 47.6977 3.396 47.6544 3.578C47.611 3.76 47.5677 3.955 47.5244 4.163C47.481 4.371 47.4377 4.58333 47.3944 4.8C47.3597 5.01667 47.3207 5.22467 47.2774 5.424C47.2514 5.59733 47.3164 5.684 47.4724 5.684H47.6154H48.1354H48.2264C48.3824 5.684 48.4474 5.60167 48.4214 5.437C48.3867 5.23767 48.3477 5.02967 48.3044 4.813C48.261 4.59633 48.2177 4.384 48.1744 4.176C48.131 3.968 48.0877 3.773 48.0444 3.591C48.001 3.40033 47.962 3.24433 47.9274 3.123C47.91 3.05367 47.884 3.019 47.8494 3.019C47.8147 3.019 47.7887 3.05367 47.7714 3.123ZM55.9504 2.46C55.9504 2.60733 55.9894 2.733 56.0674 2.837C56.1541 2.941 56.2667 3.04067 56.4054 3.136C56.5527 3.22267 56.7261 3.31367 56.9254 3.409C57.1247 3.50433 57.3457 3.61267 57.5884 3.734C57.9004 3.89 58.2124 4.06333 58.5244 4.254C58.8451 4.44467 59.1354 4.67 59.3954 4.93C59.6554 5.19 59.8677 5.49767 60.0324 5.853C60.1971 6.19967 60.2794 6.607 60.2794 7.075C60.2794 7.56033 60.2144 7.99367 60.0844 8.375C59.9631 8.75633 59.7681 9.077 59.4994 9.337C59.2307 9.597 58.8797 9.79633 58.4464 9.935C58.0217 10.065 57.5017 10.13 56.8864 10.13C56.5657 10.13 56.2494 10.091 55.9374 10.013C55.6341 9.94367 55.3481 9.84833 55.0794 9.727C54.8107 9.597 54.5637 9.44967 54.3384 9.285C54.1131 9.11167 53.9181 8.92967 53.7534 8.739C53.5714 8.52233 53.4631 8.31 53.4284 8.102C53.4024 7.88533 53.4241 7.69033 53.4934 7.517C53.5714 7.34367 53.6884 7.19633 53.8444 7.075C54.0091 6.95367 54.1824 6.87567 54.3644 6.841C54.5551 6.79767 54.7457 6.80633 54.9364 6.867C55.1357 6.92767 55.3091 7.049 55.4564 7.231C55.5257 7.31767 55.6124 7.40867 55.7164 7.504C55.8291 7.59067 55.9461 7.66867 56.0674 7.738C56.1974 7.80733 56.3317 7.868 56.4704 7.92C56.6091 7.96333 56.7477 7.985 56.8864 7.985C57.2331 7.985 57.5061 7.933 57.7054 7.829C57.9047 7.725 58.0044 7.52133 58.0044 7.218C58.0044 6.94067 57.8657 6.69367 57.5884 6.477C57.3111 6.26033 56.9731 6.048 56.5744 5.84C56.1584 5.62333 55.7771 5.411 55.4304 5.203C55.0924 4.995 54.8021 4.76967 54.5594 4.527C54.3167 4.27567 54.1304 3.99833 54.0004 3.695C53.8704 3.383 53.8054 3.019 53.8054 2.603C53.8054 2.187 53.8877 1.823 54.0524 1.511C54.2257 1.199 54.4554 0.943333 54.7414 0.744C55.0274 0.535999 55.3611 0.379999 55.7424 0.276C56.1237 0.171999 56.5224 0.119999 56.9384 0.119999C57.2504 0.119999 57.5234 0.146 57.7574 0.198C58.0001 0.241333 58.2211 0.302 58.4204 0.38C58.6197 0.458 58.8017 0.544666 58.9664 0.64C59.1397 0.735333 59.3044 0.834999 59.4604 0.939C59.6684 1.069 59.8157 1.22067 59.9024 1.394C59.9891 1.55867 60.0281 1.72767 60.0194 1.901C60.0194 2.06567 59.9761 2.22167 59.8894 2.369C59.8114 2.50767 59.7074 2.62467 59.5774 2.72C59.4474 2.80667 59.3001 2.85433 59.1354 2.863C58.9794 2.87167 58.8234 2.824 58.6674 2.72C58.5461 2.642 58.4204 2.55967 58.2904 2.473C58.1604 2.37767 58.0174 2.291 57.8614 2.213C57.7141 2.135 57.5537 2.07433 57.3804 2.031C57.2071 1.979 57.0164 1.953 56.8084 1.953C56.4617 1.953 56.2321 2.005 56.1194 2.109C56.0067 2.213 55.9504 2.33 55.9504 2.46ZM64.3776 2.46C64.3776 2.60733 64.4166 2.733 64.4946 2.837C64.5812 2.941 64.6939 3.04067 64.8326 3.136C64.9799 3.22267 65.1532 3.31367 65.3526 3.409C65.5519 3.50433 65.7729 3.61267 66.0156 3.734C66.3276 3.89 66.6396 4.06333 66.9516 4.254C67.2722 4.44467 67.5626 4.67 67.8226 4.93C68.0826 5.19 68.2949 5.49767 68.4596 5.853C68.6242 6.19967 68.7066 6.607 68.7066 7.075C68.7066 7.56033 68.6416 7.99367 68.5116 8.375C68.3902 8.75633 68.1952 9.077 67.9266 9.337C67.6579 9.597 67.3069 9.79633 66.8736 9.935C66.4489 10.065 65.9289 10.13 65.3136 10.13C64.9929 10.13 64.6766 10.091 64.3646 10.013C64.0612 9.94367 63.7752 9.84833 63.5066 9.727C63.2379 9.597 62.9909 9.44967 62.7656 9.285C62.5402 9.11167 62.3452 8.92967 62.1806 8.739C61.9986 8.52233 61.8902 8.31 61.8556 8.102C61.8296 7.88533 61.8512 7.69033 61.9206 7.517C61.9986 7.34367 62.1156 7.19633 62.2716 7.075C62.4362 6.95367 62.6096 6.87567 62.7916 6.841C62.9822 6.79767 63.1729 6.80633 63.3636 6.867C63.5629 6.92767 63.7362 7.049 63.8836 7.231C63.9529 7.31767 64.0396 7.40867 64.1436 7.504C64.2562 7.59067 64.3732 7.66867 64.4946 7.738C64.6246 7.80733 64.7589 7.868 64.8976 7.92C65.0362 7.96333 65.1749 7.985 65.3136 7.985C65.6602 7.985 65.9332 7.933 66.1326 7.829C66.3319 7.725 66.4316 7.52133 66.4316 7.218C66.4316 6.94067 66.2929 6.69367 66.0156 6.477C65.7382 6.26033 65.4002 6.048 65.0016 5.84C64.5856 5.62333 64.2042 5.411 63.8576 5.203C63.5196 4.995 63.2292 4.76967 62.9866 4.527C62.7439 4.27567 62.5576 3.99833 62.4276 3.695C62.2976 3.383 62.2326 3.019 62.2326 2.603C62.2326 2.187 62.3149 1.823 62.4796 1.511C62.6529 1.199 62.8826 0.943333 63.1686 0.744C63.4546 0.535999 63.7882 0.379999 64.1696 0.276C64.5509 0.171999 64.9496 0.119999 65.3656 0.119999C65.6776 0.119999 65.9506 0.146 66.1846 0.198C66.4272 0.241333 66.6482 0.302 66.8476 0.38C67.0469 0.458 67.2289 0.544666 67.3936 0.64C67.5669 0.735333 67.7316 0.834999 67.8876 0.939C68.0956 1.069 68.2429 1.22067 68.3296 1.394C68.4162 1.55867 68.4552 1.72767 68.4466 1.901C68.4466 2.06567 68.4032 2.22167 68.3166 2.369C68.2386 2.50767 68.1346 2.62467 68.0046 2.72C67.8746 2.80667 67.7272 2.85433 67.5626 2.863C67.4066 2.87167 67.2506 2.824 67.0946 2.72C66.9732 2.642 66.8476 2.55967 66.7176 2.473C66.5876 2.37767 66.4446 2.291 66.2886 2.213C66.1412 2.135 65.9809 2.07433 65.8076 2.031C65.6342 1.979 65.4436 1.953 65.2356 1.953C64.8889 1.953 64.6592 2.005 64.5466 2.109C64.4339 2.213 64.3776 2.33 64.3776 2.46ZM16.6829 20.737C16.7263 21.075 16.7653 21.4217 16.7999 21.777C16.8433 22.1237 16.8649 22.5093 16.8649 22.934C16.8649 23.0553 16.8476 23.181 16.8129 23.311C16.7783 23.4323 16.7089 23.545 16.6049 23.649C16.5096 23.753 16.3753 23.8397 16.2019 23.909C16.0373 23.9697 15.8249 24 15.5649 24C15.2963 24 15.0753 23.9653 14.9019 23.896C14.7373 23.8267 14.6073 23.74 14.5119 23.636C14.4166 23.5233 14.3516 23.4063 14.3169 23.285C14.2823 23.155 14.2649 23.0293 14.2649 22.908C14.2649 22.6047 14.2779 22.31 14.3039 22.024C14.3299 21.738 14.3603 21.4563 14.3949 21.179C14.4296 20.893 14.4599 20.6157 14.4859 20.347C14.5119 20.0697 14.5249 19.7923 14.5249 19.515V18.735C14.5249 18.4577 14.5119 18.1847 14.4859 17.916C14.4599 17.6387 14.4296 17.3613 14.3949 17.084C14.3603 16.798 14.3299 16.512 14.3039 16.226C14.2779 15.94 14.2649 15.6453 14.2649 15.342C14.2649 15.238 14.2779 15.1297 14.3039 15.017C14.3299 14.8957 14.3776 14.7873 14.4469 14.692C14.5249 14.5967 14.6246 14.51 14.7459 14.432C14.8759 14.354 15.0406 14.302 15.2399 14.276C15.2919 14.2587 15.3439 14.25 15.3959 14.25C15.4566 14.25 15.5129 14.25 15.5649 14.25C15.8249 14.25 16.0459 14.2847 16.2279 14.354C16.3579 14.3973 16.5053 14.4363 16.6699 14.471C16.8433 14.497 17.0946 14.51 17.4239 14.51C17.7013 14.51 17.9223 14.497 18.0869 14.471C18.2516 14.445 18.3903 14.4147 18.5029 14.38C18.6243 14.3453 18.7413 14.315 18.8539 14.289C18.9666 14.263 19.1096 14.25 19.2829 14.25C19.4043 14.25 19.5256 14.263 19.6469 14.289C19.7769 14.3063 19.8939 14.3583 19.9979 14.445C20.1019 14.523 20.1843 14.64 20.2449 14.796C20.3143 14.952 20.3489 15.16 20.3489 15.42C20.3489 15.6887 20.3143 15.901 20.2449 16.057C20.1756 16.213 20.0846 16.33 19.9719 16.408C19.8679 16.486 19.7509 16.538 19.6209 16.564C19.4996 16.5813 19.3783 16.59 19.2569 16.59C19.1183 16.59 18.9969 16.577 18.8929 16.551C18.7889 16.525 18.6719 16.4947 18.5419 16.46C18.4206 16.4253 18.2733 16.395 18.0999 16.369C17.9266 16.343 17.7013 16.33 17.4239 16.33C17.3546 16.33 17.2896 16.3343 17.2289 16.343C17.1683 16.343 17.1119 16.343 17.0599 16.343C16.8953 16.3603 16.8043 16.447 16.7869 16.603C16.7609 16.8977 16.7306 17.1793 16.6959 17.448C16.6613 17.7167 16.6353 17.9897 16.6179 18.267C16.6093 18.345 16.6266 18.41 16.6699 18.462C16.7219 18.5053 16.7826 18.527 16.8519 18.527H17.0339C17.3113 18.527 17.5323 18.514 17.6969 18.488C17.8616 18.462 18.0003 18.4317 18.1129 18.397C18.2343 18.3623 18.3513 18.332 18.4639 18.306C18.5766 18.28 18.7196 18.267 18.8929 18.267C19.0143 18.267 19.1356 18.2843 19.2569 18.319C19.3869 18.345 19.5039 18.4013 19.6079 18.488C19.7119 18.5747 19.7943 18.7003 19.8549 18.865C19.9243 19.0297 19.9589 19.242 19.9589 19.502C19.9589 19.7707 19.9243 19.9873 19.8549 20.152C19.7856 20.308 19.6946 20.4293 19.5819 20.516C19.4779 20.6027 19.3609 20.6633 19.2309 20.698C19.1096 20.724 18.9883 20.737 18.8669 20.737C18.7283 20.737 18.6069 20.724 18.5029 20.698C18.3989 20.672 18.2819 20.6417 18.1519 20.607C18.0306 20.5723 17.8833 20.542 17.7099 20.516C17.5366 20.49 17.3113 20.477 17.0339 20.477H16.9039C16.7393 20.477 16.6656 20.5637 16.6829 20.737ZM22.1777 18.735C22.1777 18.4577 22.1647 18.1847 22.1387 17.916C22.1127 17.6387 22.0823 17.3613 22.0477 17.084C22.013 16.798 21.9827 16.512 21.9567 16.226C21.9307 15.94 21.9177 15.6453 21.9177 15.342C21.9177 15.1427 21.9523 14.9737 22.0217 14.835C22.091 14.6963 22.1863 14.5837 22.3077 14.497C22.429 14.4103 22.572 14.3497 22.7367 14.315C22.9013 14.2717 23.0747 14.25 23.2567 14.25C23.508 14.25 23.716 14.2847 23.8807 14.354C24.0453 14.4147 24.1753 14.497 24.2707 14.601C24.366 14.705 24.431 14.822 24.4657 14.952C24.5003 15.0733 24.5177 15.1947 24.5177 15.316C24.5177 15.654 24.5047 15.9703 24.4787 16.265C24.4527 16.5597 24.4223 16.8457 24.3877 17.123C24.353 17.3917 24.3227 17.6603 24.2967 17.929C24.2707 18.189 24.2577 18.4577 24.2577 18.735V19.515C24.2577 19.7923 24.2707 20.0653 24.2967 20.334C24.3227 20.594 24.353 20.8627 24.3877 21.14C24.4223 21.4087 24.4527 21.6903 24.4787 21.985C24.5047 22.2797 24.5177 22.596 24.5177 22.934C24.5177 23.0553 24.5003 23.181 24.4657 23.311C24.431 23.4323 24.366 23.545 24.2707 23.649C24.1753 23.753 24.0453 23.8397 23.8807 23.909C23.716 23.9697 23.508 24 23.2567 24C22.884 24 22.5677 23.9177 22.3077 23.753C22.0477 23.5883 21.9177 23.3067 21.9177 22.908C21.9177 22.6047 21.9307 22.31 21.9567 22.024C21.9827 21.738 22.013 21.4563 22.0477 21.179C22.0823 20.893 22.1127 20.6157 22.1387 20.347C22.1647 20.0697 22.1777 19.7923 22.1777 19.515V18.735ZM28.9117 21.66H29.1457C29.423 21.66 29.6353 21.647 29.7827 21.621C29.9387 21.595 30.0643 21.5647 30.1597 21.53C30.2637 21.4953 30.3633 21.465 30.4587 21.439C30.5627 21.413 30.7013 21.4 30.8747 21.4C30.996 21.4 31.1173 21.4173 31.2387 21.452C31.3687 21.4867 31.4857 21.556 31.5897 21.66C31.6937 21.7553 31.776 21.8897 31.8367 22.063C31.906 22.2277 31.9407 22.44 31.9407 22.7C31.9407 22.9687 31.906 23.1897 31.8367 23.363C31.7673 23.5277 31.6763 23.6577 31.5637 23.753C31.4597 23.8483 31.3427 23.9133 31.2127 23.948C31.0913 23.9827 30.97 24 30.8487 24C30.71 24 30.593 23.987 30.4977 23.961C30.411 23.935 30.3113 23.9047 30.1987 23.87C30.0947 23.8353 29.9603 23.805 29.7957 23.779C29.6397 23.753 29.423 23.74 29.1457 23.74C28.9377 23.74 28.7643 23.7487 28.6257 23.766C28.487 23.7833 28.37 23.8007 28.2747 23.818C28.0753 23.9393 27.798 24 27.4427 24C27.0787 24 26.771 23.9177 26.5197 23.753C26.2683 23.5797 26.1427 23.298 26.1427 22.908C26.1427 22.6047 26.1557 22.31 26.1817 22.024C26.2077 21.738 26.238 21.4563 26.2727 21.179C26.3073 20.893 26.3377 20.6157 26.3637 20.347C26.3897 20.0697 26.4027 19.7923 26.4027 19.515V18.735C26.4027 18.4577 26.3897 18.1847 26.3637 17.916C26.3377 17.6387 26.3073 17.3613 26.2727 17.084C26.238 16.798 26.2077 16.512 26.1817 16.226C26.1557 15.94 26.1427 15.6453 26.1427 15.342C26.1427 15.1427 26.1773 14.9737 26.2467 14.835C26.316 14.6963 26.4113 14.5837 26.5327 14.497C26.654 14.4103 26.797 14.3497 26.9617 14.315C27.1263 14.2717 27.2997 14.25 27.4817 14.25C27.733 14.25 27.941 14.2847 28.1057 14.354C28.2703 14.4147 28.4003 14.497 28.4957 14.601C28.591 14.705 28.656 14.822 28.6907 14.952C28.7253 15.0733 28.7427 15.1947 28.7427 15.316C28.7427 15.654 28.7297 15.9703 28.7037 16.265C28.6777 16.5597 28.6473 16.8457 28.6127 17.123C28.578 17.3917 28.5477 17.6603 28.5217 17.929C28.4957 18.189 28.4827 18.4577 28.4827 18.735V19.515C28.4827 19.8443 28.4957 20.1607 28.5217 20.464C28.5563 20.7587 28.5953 21.0663 28.6387 21.387C28.656 21.5517 28.747 21.6427 28.9117 21.66ZM36.1551 16.616C36.1378 16.9887 36.1161 17.344 36.0901 17.682C36.0728 18.02 36.0641 18.371 36.0641 18.735V19.515C36.0641 19.7923 36.0771 20.0653 36.1031 20.334C36.1291 20.594 36.1594 20.8627 36.1941 21.14C36.2288 21.4087 36.2591 21.6903 36.2851 21.985C36.3111 22.2797 36.3241 22.596 36.3241 22.934C36.3241 23.0553 36.3068 23.181 36.2721 23.311C36.2374 23.4323 36.1681 23.545 36.0641 23.649C35.9688 23.753 35.8344 23.8397 35.6611 23.909C35.4964 23.9697 35.2841 24 35.0241 24C34.7554 24 34.5344 23.9653 34.3611 23.896C34.1964 23.8267 34.0664 23.74 33.9711 23.636C33.8758 23.5233 33.8108 23.4063 33.7761 23.285C33.7414 23.155 33.7241 23.0293 33.7241 22.908C33.7241 22.6047 33.7371 22.31 33.7631 22.024C33.7891 21.738 33.8194 21.4563 33.8541 21.179C33.8888 20.893 33.9191 20.6157 33.9451 20.347C33.9711 20.0697 33.9841 19.7923 33.9841 19.515V18.735C33.9841 18.3797 33.9711 18.0287 33.9451 17.682C33.9278 17.3353 33.9104 16.98 33.8931 16.616C33.8758 16.4687 33.7978 16.408 33.6591 16.434C33.4944 16.4773 33.3471 16.5163 33.2171 16.551C33.0958 16.577 32.9571 16.59 32.8011 16.59C32.6798 16.59 32.5541 16.5813 32.4241 16.564C32.3028 16.538 32.1858 16.486 32.0731 16.408C31.9691 16.33 31.8824 16.213 31.8131 16.057C31.7438 15.901 31.7091 15.6887 31.7091 15.42C31.7091 15.16 31.7394 14.952 31.8001 14.796C31.8694 14.64 31.9561 14.523 32.0601 14.445C32.1641 14.3583 32.2768 14.3063 32.3981 14.289C32.5281 14.263 32.6538 14.25 32.7751 14.25C32.9484 14.25 33.0958 14.263 33.2171 14.289C33.3471 14.3063 33.4771 14.328 33.6071 14.354C33.7458 14.3713 33.9018 14.393 34.0751 14.419C34.2571 14.4363 34.4868 14.445 34.7641 14.445H35.2841C35.5614 14.445 35.7868 14.4363 35.9601 14.419C36.1421 14.393 36.2981 14.3713 36.4281 14.354C36.5668 14.328 36.6968 14.3063 36.8181 14.289C36.9481 14.263 37.0998 14.25 37.2731 14.25C37.3944 14.25 37.5158 14.263 37.6371 14.289C37.7671 14.3063 37.8841 14.3583 37.9881 14.445C38.0921 14.523 38.1744 14.64 38.2351 14.796C38.3044 14.952 38.3391 15.16 38.3391 15.42C38.3391 15.6887 38.3044 15.901 38.2351 16.057C38.1658 16.213 38.0748 16.33 37.9621 16.408C37.8581 16.486 37.7411 16.538 37.6111 16.564C37.4898 16.5813 37.3684 16.59 37.2471 16.59C37.0911 16.59 36.9481 16.577 36.8181 16.551C36.6968 16.5163 36.5538 16.4773 36.3891 16.434C36.2504 16.408 36.1724 16.4687 36.1551 16.616ZM42.5541 21.647C42.6061 21.6557 42.6624 21.66 42.7231 21.66C42.7837 21.66 42.8487 21.66 42.9181 21.66C43.1954 21.66 43.4164 21.647 43.5811 21.621C43.7457 21.595 43.8844 21.5647 43.9971 21.53C44.1184 21.4953 44.2354 21.465 44.3481 21.439C44.4607 21.413 44.6037 21.4 44.7771 21.4C44.8984 21.4 45.0197 21.4173 45.1411 21.452C45.2711 21.4867 45.3881 21.556 45.4921 21.66C45.5961 21.7553 45.6784 21.8897 45.7391 22.063C45.8084 22.2277 45.8431 22.44 45.8431 22.7C45.8431 22.9687 45.8084 23.1897 45.7391 23.363C45.6697 23.5277 45.5787 23.6577 45.4661 23.753C45.3621 23.8483 45.2451 23.9133 45.1151 23.948C44.9937 23.9827 44.8724 24 44.7511 24C44.6124 24 44.4911 23.987 44.3871 23.961C44.2831 23.935 44.1661 23.9047 44.0361 23.87C43.9147 23.8353 43.7674 23.805 43.5941 23.779C43.4207 23.753 43.1954 23.74 42.9181 23.74C42.6581 23.74 42.4457 23.753 42.2811 23.779C42.1164 23.7963 41.9734 23.8223 41.8521 23.857C41.6614 23.9523 41.4057 24 41.0851 24C40.7211 24 40.4134 23.9177 40.1621 23.753C39.9107 23.5797 39.7851 23.298 39.7851 22.908C39.7851 22.6047 39.7981 22.31 39.8241 22.024C39.8501 21.738 39.8804 21.4563 39.9151 21.179C39.9497 20.893 39.9801 20.6157 40.0061 20.347C40.0321 20.0697 40.0451 19.7923 40.0451 19.515V18.735C40.0451 18.4577 40.0321 18.1847 40.0061 17.916C39.9801 17.6387 39.9497 17.3613 39.9151 17.084C39.8804 16.798 39.8501 16.512 39.8241 16.226C39.7981 15.94 39.7851 15.6453 39.7851 15.342C39.7851 15.238 39.7981 15.1297 39.8241 15.017C39.8501 14.8957 39.8977 14.7873 39.9671 14.692C40.0451 14.5967 40.1447 14.51 40.2661 14.432C40.3961 14.354 40.5607 14.302 40.7601 14.276C40.8121 14.2587 40.8641 14.25 40.9161 14.25C40.9767 14.25 41.0331 14.25 41.0851 14.25C41.3451 14.25 41.5661 14.2847 41.7481 14.354C41.8781 14.3973 42.0254 14.4363 42.1901 14.471C42.3634 14.497 42.6147 14.51 42.9441 14.51C43.2214 14.51 43.4424 14.497 43.6071 14.471C43.7717 14.445 43.9104 14.4147 44.0231 14.38C44.1444 14.3453 44.2614 14.315 44.3741 14.289C44.4867 14.263 44.6297 14.25 44.8031 14.25C44.9244 14.25 45.0457 14.263 45.1671 14.289C45.2971 14.3063 45.4141 14.3583 45.5181 14.445C45.6221 14.523 45.7044 14.64 45.7651 14.796C45.8344 14.952 45.8691 15.16 45.8691 15.42C45.8691 15.6887 45.8344 15.901 45.7651 16.057C45.6957 16.213 45.6047 16.33 45.4921 16.408C45.3881 16.486 45.2711 16.538 45.1411 16.564C45.0197 16.5813 44.8984 16.59 44.7771 16.59C44.6384 16.59 44.5171 16.577 44.4131 16.551C44.3091 16.525 44.1921 16.4947 44.0621 16.46C43.9407 16.4253 43.7934 16.395 43.6201 16.369C43.4467 16.343 43.2214 16.33 42.9441 16.33C42.8747 16.33 42.8097 16.3343 42.7491 16.343C42.6884 16.343 42.6321 16.343 42.5801 16.343C42.4154 16.3603 42.3244 16.447 42.3071 16.603C42.2897 16.8023 42.2681 16.9973 42.2421 17.188C42.2247 17.3787 42.2074 17.5693 42.1901 17.76C42.1727 17.9333 42.2464 18.02 42.4111 18.02H42.5541C42.8314 18.02 43.0524 18.007 43.2171 17.981C43.3817 17.955 43.5204 17.9247 43.6331 17.89C43.7544 17.8553 43.8714 17.825 43.9841 17.799C44.0967 17.773 44.2397 17.76 44.4131 17.76C44.5344 17.76 44.6557 17.7773 44.7771 17.812C44.9071 17.838 45.0241 17.8943 45.1281 17.981C45.2321 18.0677 45.3144 18.1933 45.3751 18.358C45.4444 18.5227 45.4791 18.735 45.4791 18.995C45.4791 19.2637 45.4444 19.4803 45.3751 19.645C45.3057 19.801 45.2147 19.9223 45.1021 20.009C44.9981 20.0957 44.8811 20.1563 44.7511 20.191C44.6297 20.217 44.5084 20.23 44.3871 20.23C44.2484 20.23 44.1271 20.217 44.0231 20.191C43.9191 20.165 43.8021 20.1347 43.6721 20.1C43.5507 20.0653 43.4034 20.035 43.2301 20.009C43.0567 19.983 42.8314 19.97 42.5541 19.97H42.3851C42.3157 19.97 42.2551 19.996 42.2031 20.048C42.1597 20.0913 42.1424 20.152 42.1511 20.23C42.1684 20.4207 42.1857 20.6113 42.2031 20.802C42.2291 20.984 42.2551 21.1747 42.2811 21.374C42.2984 21.5387 42.3894 21.6297 42.5541 21.647ZM49.8558 20.607C49.8991 20.971 49.9381 21.3393 49.9728 21.712C50.0161 22.076 50.0378 22.4833 50.0378 22.934C50.0378 23.0553 50.0205 23.181 49.9858 23.311C49.9511 23.4323 49.8818 23.545 49.7778 23.649C49.6825 23.753 49.5481 23.8397 49.3748 23.909C49.2101 23.9697 48.9978 24 48.7378 24C48.4691 24 48.2481 23.9653 48.0748 23.896C47.9101 23.8267 47.7801 23.74 47.6848 23.636C47.5895 23.5233 47.5245 23.4063 47.4898 23.285C47.4551 23.155 47.4378 23.0293 47.4378 22.908C47.4378 22.6047 47.4508 22.31 47.4768 22.024C47.5028 21.738 47.5331 21.4563 47.5678 21.179C47.6025 20.893 47.6328 20.6157 47.6588 20.347C47.6848 20.0697 47.6978 19.7923 47.6978 19.515V18.735C47.6978 18.4577 47.6848 18.1847 47.6588 17.916C47.6328 17.6387 47.6025 17.3613 47.5678 17.084C47.5331 16.798 47.5028 16.512 47.4768 16.226C47.4508 15.94 47.4378 15.6453 47.4378 15.342C47.4378 15.2207 47.4551 15.0993 47.4898 14.978C47.5245 14.848 47.5895 14.731 47.6848 14.627C47.7888 14.5143 47.9231 14.4233 48.0878 14.354C48.2611 14.2847 48.4821 14.25 48.7508 14.25H50.4408C51.7668 14.25 52.7808 14.4927 53.4828 14.978C54.1848 15.4547 54.5358 16.2303 54.5358 17.305C54.5358 17.9377 54.3841 18.4707 54.0808 18.904C53.7861 19.3287 53.3788 19.6667 52.8588 19.918C52.7288 19.9873 52.7115 20.0697 52.8068 20.165C53.0755 20.4423 53.3528 20.7197 53.6388 20.997C53.9335 21.2743 54.2325 21.5993 54.5358 21.972C54.6138 22.0673 54.6745 22.1757 54.7178 22.297C54.7698 22.4183 54.7915 22.5527 54.7828 22.7C54.7741 22.8387 54.7265 22.9903 54.6398 23.155C54.5531 23.311 54.4058 23.467 54.1978 23.623C53.9898 23.7877 53.7948 23.896 53.6128 23.948C53.4395 24 53.2791 24.0173 53.1318 24C52.9931 23.974 52.8718 23.922 52.7678 23.844C52.6638 23.766 52.5728 23.6793 52.4948 23.584C52.3041 23.35 52.1265 23.1117 51.9618 22.869C51.8058 22.6263 51.6541 22.388 51.5068 22.154C51.3595 21.92 51.2078 21.6903 51.0518 21.465C50.9045 21.2397 50.7441 21.0187 50.5708 20.802L50.3758 20.555C50.2891 20.451 50.1765 20.399 50.0378 20.399C49.8991 20.399 49.8385 20.4683 49.8558 20.607ZM50.4408 18.605C51.1081 18.605 51.5805 18.4793 51.8578 18.228C52.1351 17.968 52.2738 17.656 52.2738 17.292C52.2738 17.11 52.2478 16.9453 52.1958 16.798C52.1438 16.6507 52.0485 16.525 51.9098 16.421C51.7711 16.317 51.5805 16.2347 51.3378 16.174C51.1038 16.1133 50.8048 16.083 50.4408 16.083H50.2328C50.0941 16.083 50.0161 16.1567 49.9988 16.304C49.9641 16.6767 49.9251 17.032 49.8818 17.37C49.8385 17.6993 49.8081 18.0373 49.7908 18.384C49.7908 18.5313 49.8601 18.605 49.9988 18.605H50.4408Z" fill="black"/>
</svg>
