<svg width="15" height="6" viewBox="0 0 15 6" fill="none" xmlns="http://www.w3.org/2000/svg">
<path d="M1.728 4.344C1.744 4.49867 1.76 4.65867 1.776 4.824C1.792 4.984 1.8 5.15733 1.8 5.344C1.8 5.41867 1.78933 5.496 1.768 5.576C1.74667 5.65067 1.70667 5.72 1.648 5.784C1.58933 5.848 1.50933 5.90133 1.408 5.944C1.30667 5.98133 1.17867 6 1.024 6C0.794667 6 0.6 5.94933 0.44 5.848C0.28 5.74667 0.2 5.57333 0.2 5.328C0.2 5.14133 0.208 4.96 0.224 4.784C0.24 4.608 0.258667 4.43467 0.28 4.264C0.301333 4.088 0.32 3.91733 0.336 3.752C0.352 3.58133 0.36 3.41067 0.36 3.24V2.76C0.36 2.58933 0.352 2.42133 0.336 2.256C0.32 2.08533 0.301333 1.91467 0.28 1.744C0.258667 1.568 0.24 1.392 0.224 1.216C0.208 1.04 0.2 0.858666 0.2 0.672C0.2 0.549333 0.221333 0.445333 0.264 0.36C0.306667 0.274666 0.365333 0.205333 0.44 0.152C0.514667 0.0986664 0.602667 0.0613329 0.704 0.0399995C0.805333 0.0133328 0.912 -4.76837e-07 1.024 -4.76837e-07C1.17867 -4.76837e-07 1.30667 0.0213329 1.408 0.0639997C1.50933 0.101333 1.58933 0.152 1.648 0.216C1.70667 0.28 1.74667 0.352 1.768 0.432C1.78933 0.506666 1.8 0.581333 1.8 0.656C1.8 0.864 1.792 1.05867 1.776 1.24C1.76 1.42133 1.74133 1.59733 1.72 1.768C1.69867 1.93333 1.68 2.09867 1.664 2.264C1.648 2.424 1.64 2.58933 1.64 2.76V2.928C1.64 3.02933 1.69067 3.08533 1.792 3.096C1.82933 3.10133 1.86933 3.104 1.912 3.104C1.95467 3.104 1.99733 3.104 2.04 3.104H2.36C2.424 3.104 2.48267 3.104 2.536 3.104C2.58933 3.09867 2.64 3.09333 2.688 3.088C2.78933 3.07733 2.84 3.02133 2.84 2.92V2.76C2.84 2.58933 2.832 2.42133 2.816 2.256C2.8 2.08533 2.78133 1.91467 2.76 1.744C2.73867 1.568 2.72 1.392 2.704 1.216C2.688 1.04 2.68 0.858666 2.68 0.672C2.68 0.549333 2.70133 0.445333 2.744 0.36C2.78667 0.274666 2.84533 0.205333 2.92 0.152C2.99467 0.0986664 3.08267 0.0613329 3.184 0.0399995C3.28533 0.0133328 3.392 -4.76837e-07 3.504 -4.76837e-07C3.65867 -4.76837e-07 3.78667 0.0213329 3.888 0.0639997C3.98933 0.101333 4.06933 0.152 4.128 0.216C4.18667 0.28 4.22667 0.352 4.248 0.432C4.26933 0.506666 4.28 0.581333 4.28 0.656C4.28 0.864 4.272 1.05867 4.256 1.24C4.24 1.42133 4.22133 1.59733 4.2 1.768C4.17867 1.93333 4.16 2.09867 4.144 2.264C4.128 2.424 4.12 2.58933 4.12 2.76V3.24C4.12 3.41067 4.128 3.57867 4.144 3.744C4.16 3.904 4.17867 4.06933 4.2 4.24C4.22133 4.40533 4.24 4.57867 4.256 4.76C4.272 4.94133 4.28 5.136 4.28 5.344C4.28 5.41867 4.26933 5.496 4.248 5.576C4.22667 5.65067 4.18667 5.72 4.128 5.784C4.06933 5.848 3.98933 5.90133 3.888 5.944C3.78667 5.98133 3.65867 6 3.504 6C3.27467 6 3.08 5.94933 2.92 5.848C2.76 5.74667 2.68 5.57333 2.68 5.328C2.68 5.15733 2.688 4.992 2.704 4.832C2.72 4.66667 2.736 4.50667 2.752 4.352C2.76267 4.25067 2.71733 4.19467 2.616 4.184C2.57333 4.17867 2.53067 4.176 2.488 4.176C2.45067 4.176 2.408 4.176 2.36 4.176H2.04C2.008 4.176 1.976 4.17867 1.944 4.184C1.91733 4.184 1.89067 4.184 1.864 4.184C1.76267 4.19467 1.71733 4.248 1.728 4.344ZM6.99656 4.24C7.0179 4.41067 7.03656 4.58667 7.05256 4.768C7.06856 4.944 7.07656 5.136 7.07656 5.344C7.07656 5.41867 7.0659 5.496 7.04456 5.576C7.02323 5.65067 6.98056 5.72 6.91656 5.784C6.8579 5.848 6.77523 5.90133 6.66856 5.944C6.56723 5.98133 6.43656 6 6.27656 6C6.11123 6 5.97523 5.97867 5.86856 5.936C5.76723 5.89333 5.68723 5.84 5.62856 5.776C5.5699 5.70667 5.5299 5.63467 5.50856 5.56C5.48723 5.48 5.47656 5.40267 5.47656 5.328C5.47656 5.14133 5.48456 4.96 5.50056 4.784C5.51656 4.608 5.53523 4.43467 5.55656 4.264C5.5779 4.088 5.59656 3.91733 5.61256 3.752C5.62856 3.58133 5.63656 3.41067 5.63656 3.24V2.76C5.63656 2.58933 5.62856 2.42133 5.61256 2.256C5.59656 2.08533 5.5779 1.91467 5.55656 1.744C5.53523 1.568 5.51656 1.392 5.50056 1.216C5.48456 1.04 5.47656 0.858666 5.47656 0.672C5.47656 0.597333 5.48723 0.522667 5.50856 0.448C5.5299 0.368 5.5699 0.296 5.62856 0.232C5.69256 0.162666 5.77523 0.106666 5.87656 0.0639997C5.98323 0.0213329 6.11923 -4.76837e-07 6.28456 -4.76837e-07H7.32456C8.1459 -4.76837e-07 8.7699 0.173333 9.19656 0.52C9.62856 0.866666 9.84456 1.37333 9.84456 2.04C9.84456 2.36 9.7779 2.648 9.64456 2.904C9.51656 3.16 9.3379 3.376 9.10856 3.552C8.88456 3.728 8.6179 3.864 8.30856 3.96C8.00456 4.056 7.67656 4.104 7.32456 4.104H7.11656C7.0259 4.104 6.9859 4.14933 6.99656 4.24ZM7.32456 3C7.53256 3 7.7059 2.97067 7.84456 2.912C7.98856 2.85333 8.1059 2.77867 8.19656 2.688C8.28723 2.592 8.35123 2.488 8.38856 2.376C8.43123 2.25867 8.45256 2.144 8.45256 2.032C8.45256 1.92 8.43656 1.81067 8.40456 1.704C8.37256 1.59733 8.3139 1.50133 8.22856 1.416C8.14323 1.33067 8.0259 1.26133 7.87656 1.208C7.73256 1.15467 7.54856 1.128 7.32456 1.128H7.19656C7.11123 1.128 7.06323 1.17333 7.05256 1.264C7.0259 1.536 6.99656 1.78933 6.96456 2.024C6.93256 2.25867 6.91656 2.504 6.91656 2.76V2.864C6.91656 2.95467 6.9619 3 7.05256 3H7.32456ZM12.4911 3.992C12.5178 4.2 12.5418 4.41333 12.5631 4.632C12.5898 4.84533 12.6031 5.08267 12.6031 5.344C12.6031 5.41867 12.5925 5.496 12.5711 5.576C12.5498 5.65067 12.5071 5.72 12.4431 5.784C12.3845 5.848 12.3018 5.90133 12.1951 5.944C12.0938 5.98133 11.9631 6 11.8031 6C11.6378 6 11.5018 5.97867 11.3951 5.936C11.2938 5.89333 11.2138 5.84 11.1551 5.776C11.0965 5.70667 11.0565 5.63467 11.0351 5.56C11.0138 5.48 11.0031 5.40267 11.0031 5.328C11.0031 5.14133 11.0111 4.96 11.0271 4.784C11.0431 4.608 11.0618 4.43467 11.0831 4.264C11.1045 4.088 11.1231 3.91733 11.1391 3.752C11.1551 3.58133 11.1631 3.41067 11.1631 3.24V2.76C11.1631 2.58933 11.1551 2.42133 11.1391 2.256C11.1231 2.08533 11.1045 1.91467 11.0831 1.744C11.0618 1.568 11.0431 1.392 11.0271 1.216C11.0111 1.04 11.0031 0.858666 11.0031 0.672C11.0031 0.608 11.0111 0.541333 11.0271 0.472C11.0431 0.397333 11.0725 0.330666 11.1151 0.272C11.1631 0.213333 11.2245 0.16 11.2991 0.112C11.3791 0.0639995 11.4805 0.0319996 11.6031 0.0159998C11.6351 0.00533295 11.6671 -4.76837e-07 11.6991 -4.76837e-07C11.7365 -4.76837e-07 11.7711 -4.76837e-07 11.8031 -4.76837e-07C11.9631 -4.76837e-07 12.0991 0.0213329 12.2111 0.0639997C12.2911 0.0906663 12.3818 0.114666 12.4831 0.136C12.5898 0.152 12.7445 0.16 12.9471 0.16C13.1178 0.16 13.2538 0.152 13.3551 0.136C13.4565 0.12 13.5418 0.101333 13.6111 0.0799999C13.6858 0.0586665 13.7578 0.0399998 13.8271 0.0239997C13.8965 0.00799958 13.9845 -4.76837e-07 14.0911 -4.76837e-07C14.1658 -4.76837e-07 14.2405 0.00799958 14.3151 0.0239997C14.3951 0.0346662 14.4671 0.0666663 14.5311 0.12C14.5951 0.168 14.6458 0.24 14.6831 0.336C14.7258 0.432 14.7471 0.56 14.7471 0.72C14.7471 0.885333 14.7258 1.016 14.6831 1.112C14.6405 1.208 14.5845 1.28 14.5151 1.328C14.4511 1.376 14.3791 1.408 14.2991 1.424C14.2245 1.43467 14.1498 1.44 14.0751 1.44C13.9898 1.44 13.9151 1.432 13.8511 1.416C13.7871 1.4 13.7151 1.38133 13.6351 1.36C13.5605 1.33867 13.4698 1.32 13.3631 1.304C13.2565 1.288 13.1178 1.28 12.9471 1.28C12.9045 1.28 12.8645 1.28267 12.8271 1.288C12.7898 1.288 12.7551 1.288 12.7231 1.288C12.6218 1.29867 12.5658 1.352 12.5551 1.448C12.5391 1.62933 12.5205 1.80267 12.4991 1.968C12.4778 2.13333 12.4618 2.30133 12.4511 2.472C12.4458 2.52 12.4565 2.56 12.4831 2.592C12.5151 2.61867 12.5525 2.632 12.5951 2.632H12.7071C12.8778 2.632 13.0138 2.624 13.1151 2.608C13.2165 2.592 13.3018 2.57333 13.3711 2.552C13.4458 2.53067 13.5178 2.512 13.5871 2.496C13.6565 2.48 13.7445 2.472 13.8511 2.472C13.9258 2.472 14.0005 2.48267 14.0751 2.504C14.1551 2.52 14.2271 2.55467 14.2911 2.608C14.3551 2.66133 14.4058 2.73867 14.4431 2.84C14.4858 2.94133 14.5071 3.072 14.5071 3.232C14.5071 3.39733 14.4858 3.53067 14.4431 3.632C14.4005 3.728 14.3445 3.80267 14.2751 3.856C14.2111 3.90933 14.1391 3.94667 14.0591 3.968C13.9845 3.984 13.9098 3.992 13.8351 3.992C13.7498 3.992 13.6751 3.984 13.6111 3.968C13.5471 3.952 13.4751 3.93333 13.3951 3.912C13.3205 3.89067 13.2298 3.872 13.1231 3.856C13.0165 3.84 12.8778 3.832 12.7071 3.832H12.6271C12.5258 3.832 12.4805 3.88533 12.4911 3.992Z" fill="black"/>
</svg>
