<svg width="65" height="11" viewBox="0 0 65 11" fill="none" xmlns="http://www.w3.org/2000/svg">
<path d="M3.07115 7.66H3.30515C3.58248 7.66 3.79482 7.647 3.94215 7.621C4.09815 7.595 4.22382 7.56467 4.31915 7.53C4.42315 7.49533 4.52282 7.465 4.61815 7.439C4.72215 7.413 4.86082 7.4 5.03415 7.4C5.15548 7.4 5.27682 7.41733 5.39815 7.452C5.52815 7.48667 5.64515 7.556 5.74915 7.66C5.85315 7.75533 5.93548 7.88967 5.99615 8.063C6.06548 8.22767 6.10015 8.44 6.10015 8.7C6.10015 8.96867 6.06548 9.18967 5.99615 9.363C5.92682 9.52767 5.83582 9.65767 5.72315 9.753C5.61915 9.84833 5.50215 9.91333 5.37215 9.948C5.25082 9.98267 5.12948 10 5.00815 10C4.86948 10 4.75248 9.987 4.65715 9.961C4.57048 9.935 4.47082 9.90467 4.35815 9.87C4.25415 9.83533 4.11982 9.805 3.95515 9.779C3.79915 9.753 3.58248 9.74 3.30515 9.74C3.09715 9.74 2.92382 9.74867 2.78515 9.766C2.64648 9.78333 2.52948 9.80067 2.43415 9.818C2.23482 9.93933 1.95748 10 1.60215 10C1.23815 10 0.930483 9.91767 0.67915 9.753C0.427817 9.57967 0.30215 9.298 0.30215 8.908C0.30215 8.60467 0.31515 8.31 0.34115 8.024C0.36715 7.738 0.397483 7.45633 0.43215 7.179C0.466817 6.893 0.49715 6.61567 0.52315 6.347C0.54915 6.06967 0.56215 5.79233 0.56215 5.515V4.735C0.56215 4.45767 0.54915 4.18467 0.52315 3.916C0.49715 3.63867 0.466817 3.36133 0.43215 3.084C0.397483 2.798 0.36715 2.512 0.34115 2.226C0.31515 1.94 0.30215 1.64533 0.30215 1.342C0.30215 1.14267 0.336817 0.973666 0.40615 0.834999C0.475483 0.696333 0.570817 0.583667 0.69215 0.497C0.813483 0.410333 0.956483 0.349666 1.12115 0.314999C1.28582 0.271666 1.45915 0.249999 1.64115 0.249999C1.89248 0.249999 2.10048 0.284666 2.26515 0.353999C2.42982 0.414666 2.55982 0.497 2.65515 0.600999C2.75048 0.705 2.81548 0.822 2.85015 0.951999C2.88482 1.07333 2.90215 1.19467 2.90215 1.316C2.90215 1.654 2.88915 1.97033 2.86315 2.265C2.83715 2.55967 2.80682 2.84567 2.77215 3.123C2.73748 3.39167 2.70715 3.66033 2.68115 3.929C2.65515 4.189 2.64215 4.45767 2.64215 4.735V5.515C2.64215 5.84433 2.65515 6.16067 2.68115 6.464C2.71582 6.75867 2.75482 7.06633 2.79815 7.387C2.81548 7.55167 2.90648 7.64267 3.07115 7.66ZM10.4446 7.647C10.4966 7.65567 10.5529 7.66 10.6136 7.66C10.6743 7.66 10.7393 7.66 10.8086 7.66C11.0859 7.66 11.3069 7.647 11.4716 7.621C11.6363 7.595 11.7749 7.56467 11.8876 7.53C12.0089 7.49533 12.1259 7.465 12.2386 7.439C12.3513 7.413 12.4943 7.4 12.6676 7.4C12.7889 7.4 12.9103 7.41733 13.0316 7.452C13.1616 7.48667 13.2786 7.556 13.3826 7.66C13.4866 7.75533 13.5689 7.88967 13.6296 8.063C13.6989 8.22767 13.7336 8.44 13.7336 8.7C13.7336 8.96867 13.6989 9.18967 13.6296 9.363C13.5603 9.52767 13.4693 9.65767 13.3566 9.753C13.2526 9.84833 13.1356 9.91333 13.0056 9.948C12.8843 9.98267 12.7629 10 12.6416 10C12.5029 10 12.3816 9.987 12.2776 9.961C12.1736 9.935 12.0566 9.90467 11.9266 9.87C11.8053 9.83533 11.6579 9.805 11.4846 9.779C11.3113 9.753 11.0859 9.74 10.8086 9.74C10.5486 9.74 10.3363 9.753 10.1716 9.779C10.0069 9.79633 9.86392 9.82233 9.74259 9.857C9.55192 9.95233 9.29625 10 8.97559 10C8.61159 10 8.30392 9.91767 8.05259 9.753C7.80125 9.57967 7.67559 9.298 7.67559 8.908C7.67559 8.60467 7.68859 8.31 7.71459 8.024C7.74059 7.738 7.77092 7.45633 7.80559 7.179C7.84025 6.893 7.87059 6.61567 7.89659 6.347C7.92259 6.06967 7.93559 5.79233 7.93559 5.515V4.735C7.93559 4.45767 7.92259 4.18467 7.89659 3.916C7.87059 3.63867 7.84025 3.36133 7.80559 3.084C7.77092 2.798 7.74059 2.512 7.71459 2.226C7.68859 1.94 7.67559 1.64533 7.67559 1.342C7.67559 1.238 7.68859 1.12967 7.71459 1.017C7.74059 0.895666 7.78825 0.787333 7.85759 0.692C7.93559 0.596666 8.03525 0.509999 8.15659 0.431999C8.28659 0.353999 8.45125 0.301999 8.65059 0.276C8.70259 0.258666 8.75459 0.249999 8.80659 0.249999C8.86725 0.249999 8.92359 0.249999 8.97559 0.249999C9.23559 0.249999 9.45659 0.284666 9.63859 0.353999C9.76859 0.397333 9.91592 0.436333 10.0806 0.470999C10.2539 0.497 10.5053 0.51 10.8346 0.51C11.1119 0.51 11.3329 0.497 11.4976 0.470999C11.6623 0.444999 11.8009 0.414666 11.9136 0.38C12.0349 0.345333 12.1519 0.315 12.2646 0.288999C12.3773 0.262999 12.5203 0.249999 12.6936 0.249999C12.8149 0.249999 12.9363 0.262999 13.0576 0.288999C13.1876 0.306333 13.3046 0.358333 13.4086 0.445C13.5126 0.523 13.5949 0.64 13.6556 0.796C13.7249 0.951999 13.7596 1.16 13.7596 1.42C13.7596 1.68867 13.7249 1.901 13.6556 2.057C13.5863 2.213 13.4953 2.33 13.3826 2.408C13.2786 2.486 13.1616 2.538 13.0316 2.564C12.9103 2.58133 12.7889 2.59 12.6676 2.59C12.5289 2.59 12.4076 2.577 12.3036 2.551C12.1996 2.525 12.0826 2.49467 11.9526 2.46C11.8313 2.42533 11.6839 2.395 11.5106 2.369C11.3373 2.343 11.1119 2.33 10.8346 2.33C10.7653 2.33 10.7003 2.33433 10.6396 2.343C10.5789 2.343 10.5226 2.343 10.4706 2.343C10.3059 2.36033 10.2149 2.447 10.1976 2.603C10.1803 2.80233 10.1586 2.99733 10.1326 3.188C10.1153 3.37867 10.0979 3.56933 10.0806 3.76C10.0633 3.93333 10.1369 4.02 10.3016 4.02H10.4446C10.7219 4.02 10.9429 4.007 11.1076 3.981C11.2723 3.955 11.4109 3.92467 11.5236 3.89C11.6449 3.85533 11.7619 3.825 11.8746 3.799C11.9873 3.773 12.1303 3.76 12.3036 3.76C12.4249 3.76 12.5463 3.77733 12.6676 3.812C12.7976 3.838 12.9146 3.89433 13.0186 3.981C13.1226 4.06767 13.2049 4.19333 13.2656 4.358C13.3349 4.52267 13.3696 4.735 13.3696 4.995C13.3696 5.26367 13.3349 5.48033 13.2656 5.645C13.1963 5.801 13.1053 5.92233 12.9926 6.009C12.8886 6.09567 12.7716 6.15633 12.6416 6.191C12.5203 6.217 12.3989 6.23 12.2776 6.23C12.1389 6.23 12.0176 6.217 11.9136 6.191C11.8096 6.165 11.6926 6.13467 11.5626 6.1C11.4413 6.06533 11.2939 6.035 11.1206 6.009C10.9473 5.983 10.7219 5.97 10.4446 5.97H10.2756C10.2063 5.97 10.1456 5.996 10.0936 6.048C10.0503 6.09133 10.0329 6.152 10.0416 6.23C10.0589 6.42067 10.0763 6.61133 10.0936 6.802C10.1196 6.984 10.1456 7.17467 10.1716 7.374C10.1889 7.53867 10.2799 7.62967 10.4446 7.647ZM15.5883 4.735C15.5883 4.45767 15.5753 4.18467 15.5493 3.916C15.5233 3.63867 15.493 3.36133 15.4583 3.084C15.4237 2.798 15.3933 2.512 15.3673 2.226C15.3413 1.94 15.3283 1.64533 15.3283 1.342C15.3283 1.134 15.363 0.960666 15.4323 0.822C15.5103 0.683333 15.61 0.570666 15.7313 0.483999C15.8613 0.397333 16.0087 0.336666 16.1733 0.301999C16.3467 0.267333 16.5243 0.249999 16.7063 0.249999H18.3963C19.0637 0.249999 19.6487 0.379999 20.1513 0.64C20.6627 0.899999 21.0917 1.251 21.4383 1.693C21.785 2.135 22.045 2.65067 22.2183 3.24C22.4003 3.82933 22.4913 4.45767 22.4913 5.125C22.4913 6.685 22.162 7.88967 21.5033 8.739C20.8447 9.57967 19.809 10 18.3963 10H16.6933C16.5113 10 16.3337 9.98267 16.1603 9.948C15.9957 9.91333 15.8527 9.85267 15.7313 9.766C15.61 9.67933 15.5103 9.56667 15.4323 9.428C15.363 9.28933 15.3283 9.116 15.3283 8.908C15.3283 8.60467 15.3413 8.31 15.3673 8.024C15.3933 7.738 15.4237 7.45633 15.4583 7.179C15.493 6.893 15.5233 6.61567 15.5493 6.347C15.5753 6.06967 15.5883 5.79233 15.5883 5.515V4.735ZM18.3963 7.894C19.0637 7.894 19.536 7.65133 19.8133 7.166C20.0907 6.68067 20.2293 5.996 20.2293 5.112C20.2293 4.67 20.2033 4.267 20.1513 3.903C20.0993 3.53033 20.004 3.20967 19.8653 2.941C19.7267 2.67233 19.536 2.46433 19.2933 2.317C19.0593 2.161 18.7603 2.083 18.3963 2.083H18.1493C17.9933 2.083 17.9067 2.16533 17.8893 2.33C17.846 2.76333 17.7983 3.17067 17.7463 3.552C17.6943 3.92467 17.6683 4.319 17.6683 4.735V5.515C17.6683 5.879 17.6857 6.23433 17.7203 6.581C17.7637 6.919 17.807 7.27433 17.8503 7.647C17.8677 7.81167 17.9587 7.894 18.1233 7.894H18.3963ZM34.8734 9.025C34.7867 9.31967 34.6264 9.558 34.3924 9.74C34.1584 9.91333 33.8897 10 33.5864 10H33.5734C33.2701 10 33.0014 9.91333 32.7674 9.74C32.5334 9.558 32.3731 9.31967 32.2864 9.025L30.8304 3.968C30.8131 3.89867 30.7957 3.864 30.7784 3.864C30.7611 3.85533 30.7524 3.89 30.7524 3.968C30.7437 4.098 30.7394 4.241 30.7394 4.397C30.7394 4.54433 30.7394 4.657 30.7394 4.735V5.125C30.7394 5.40233 30.7567 5.697 30.7914 6.009C30.8347 6.31233 30.8824 6.62433 30.9344 6.945C30.9864 7.26567 31.0297 7.595 31.0644 7.933C31.1077 8.26233 31.1294 8.596 31.1294 8.934C31.1294 9.05533 31.1034 9.181 31.0514 9.311C30.9994 9.43233 30.9171 9.545 30.8044 9.649C30.6917 9.753 30.5444 9.83967 30.3624 9.909C30.1804 9.96967 29.9594 10 29.6994 10C29.4307 10 29.2097 9.96533 29.0364 9.896C28.8717 9.82667 28.7417 9.74 28.6464 9.636C28.5511 9.52333 28.4861 9.40633 28.4514 9.285C28.4167 9.155 28.3994 9.02933 28.3994 8.908C28.3994 8.60467 28.4124 8.31 28.4384 8.024C28.4644 7.738 28.4947 7.45633 28.5294 7.179C28.5641 6.893 28.5944 6.61567 28.6204 6.347C28.6464 6.06967 28.6594 5.79233 28.6594 5.515V4.735C28.6594 4.45767 28.6464 4.19767 28.6204 3.955C28.5944 3.70367 28.5641 3.45667 28.5294 3.214C28.4947 2.96267 28.4644 2.707 28.4384 2.447C28.4124 2.187 28.3994 1.90533 28.3994 1.602C28.3994 1.22933 28.5554 0.913 28.8674 0.652999C29.1881 0.393 29.6171 0.258666 30.1544 0.249999H30.5834C30.9821 0.249999 31.3287 0.366999 31.6234 0.600999C31.9267 0.834999 32.1261 1.147 32.2214 1.537L33.4434 6.594C33.4867 6.76733 33.5344 6.854 33.5864 6.854C33.6384 6.854 33.6861 6.76733 33.7294 6.594L34.9384 1.537C35.0337 1.147 35.2287 0.834999 35.5234 0.600999C35.8267 0.366999 36.1777 0.249999 36.5764 0.249999H37.0054C37.5427 0.258666 37.9457 0.393 38.2144 0.652999C38.4917 0.913 38.6304 1.22933 38.6304 1.602C38.6304 1.90533 38.6174 2.187 38.5914 2.447C38.5654 2.707 38.5351 2.96267 38.5004 3.214C38.4657 3.45667 38.4354 3.70367 38.4094 3.955C38.3834 4.19767 38.3704 4.45767 38.3704 4.735V5.515C38.3704 5.79233 38.3834 6.06967 38.4094 6.347C38.4354 6.61567 38.4657 6.893 38.5004 7.179C38.5351 7.45633 38.5654 7.738 38.5914 8.024C38.6174 8.31 38.6304 8.60467 38.6304 8.908C38.6304 9.02933 38.6131 9.155 38.5784 9.285C38.5524 9.40633 38.4961 9.52333 38.4094 9.636C38.3227 9.74 38.1971 9.82667 38.0324 9.896C37.8764 9.96533 37.6641 10 37.3954 10C37.1354 10 36.9144 9.96967 36.7324 9.909C36.5591 9.83967 36.4204 9.753 36.3164 9.649C36.2124 9.545 36.1387 9.43233 36.0954 9.311C36.0521 9.181 36.0304 9.05533 36.0304 8.934C36.0304 8.596 36.0477 8.26233 36.0824 7.933C36.1257 7.595 36.1734 7.26567 36.2254 6.945C36.2774 6.62433 36.3207 6.31233 36.3554 6.009C36.3987 5.697 36.4204 5.40233 36.4204 5.125V4.735C36.4204 4.657 36.4204 4.54433 36.4204 4.397C36.4204 4.241 36.4161 4.098 36.4074 3.968C36.4074 3.89 36.3987 3.85533 36.3814 3.864C36.3641 3.864 36.3467 3.89867 36.3294 3.968L34.8734 9.025ZM40.1893 5.125C40.1893 4.45767 40.276 3.825 40.4493 3.227C40.6226 2.62033 40.8826 2.08733 41.2293 1.628C41.576 1.16867 42.005 0.804666 42.5163 0.535999C43.0276 0.258666 43.6213 0.119999 44.2973 0.119999C44.9646 0.119999 45.5496 0.258666 46.0523 0.535999C46.5636 0.804666 46.9926 1.16867 47.3393 1.628C47.686 2.08733 47.946 2.62033 48.1193 3.227C48.3013 3.825 48.3923 4.45767 48.3923 5.125C48.3923 5.905 48.31 6.607 48.1453 7.231C47.9893 7.84633 47.7423 8.37067 47.4043 8.804C47.0663 9.22867 46.6373 9.558 46.1173 9.792C45.606 10.0173 44.9993 10.13 44.2973 10.13C43.5866 10.13 42.9713 10.0173 42.4513 9.792C41.94 9.558 41.5153 9.22867 41.1773 8.804C40.8393 8.37067 40.588 7.84633 40.4233 7.231C40.2673 6.607 40.1893 5.905 40.1893 5.125ZM42.4643 5.112C42.4643 5.554 42.4946 5.957 42.5553 6.321C42.6246 6.67633 42.733 6.97967 42.8803 7.231C43.0276 7.48233 43.214 7.67733 43.4393 7.816C43.6733 7.95467 43.9593 8.024 44.2973 8.024C44.6353 8.024 44.917 7.95467 45.1423 7.816C45.3763 7.67733 45.567 7.48233 45.7143 7.231C45.8616 6.97967 45.9656 6.67633 46.0263 6.321C46.0956 5.957 46.1303 5.554 46.1303 5.112C46.1303 4.67 46.1043 4.25833 46.0523 3.877C46.0003 3.49567 45.905 3.162 45.7663 2.876C45.6276 2.59 45.437 2.36467 45.1943 2.2C44.9603 2.03533 44.6613 1.953 44.2973 1.953C43.9333 1.953 43.63 2.03533 43.3873 2.2C43.1533 2.36467 42.967 2.59 42.8283 2.876C42.6896 3.162 42.5943 3.49567 42.5423 3.877C42.4903 4.25833 42.4643 4.67 42.4643 5.112ZM50.211 4.735C50.211 4.45767 50.198 4.18467 50.172 3.916C50.146 3.63867 50.1156 3.36133 50.081 3.084C50.0463 2.798 50.016 2.512 49.99 2.226C49.964 1.94 49.951 1.64533 49.951 1.342C49.951 1.134 49.9856 0.960666 50.055 0.822C50.133 0.683333 50.2326 0.570666 50.354 0.483999C50.484 0.397333 50.6313 0.336666 50.796 0.301999C50.9693 0.267333 51.147 0.249999 51.329 0.249999H53.019C53.6863 0.249999 54.2713 0.379999 54.774 0.64C55.2853 0.899999 55.7143 1.251 56.061 1.693C56.4076 2.135 56.6676 2.65067 56.841 3.24C57.023 3.82933 57.114 4.45767 57.114 5.125C57.114 6.685 56.7846 7.88967 56.126 8.739C55.4673 9.57967 54.4316 10 53.019 10H51.316C51.134 10 50.9563 9.98267 50.783 9.948C50.6183 9.91333 50.4753 9.85267 50.354 9.766C50.2326 9.67933 50.133 9.56667 50.055 9.428C49.9856 9.28933 49.951 9.116 49.951 8.908C49.951 8.60467 49.964 8.31 49.99 8.024C50.016 7.738 50.0463 7.45633 50.081 7.179C50.1156 6.893 50.146 6.61567 50.172 6.347C50.198 6.06967 50.211 5.79233 50.211 5.515V4.735ZM53.019 7.894C53.6863 7.894 54.1586 7.65133 54.436 7.166C54.7133 6.68067 54.852 5.996 54.852 5.112C54.852 4.67 54.826 4.267 54.774 3.903C54.722 3.53033 54.6266 3.20967 54.488 2.941C54.3493 2.67233 54.1586 2.46433 53.916 2.317C53.682 2.161 53.383 2.083 53.019 2.083H52.772C52.616 2.083 52.5293 2.16533 52.512 2.33C52.4686 2.76333 52.421 3.17067 52.369 3.552C52.317 3.92467 52.291 4.319 52.291 4.735V5.515C52.291 5.879 52.3083 6.23433 52.343 6.581C52.3863 6.919 52.4296 7.27433 52.473 7.647C52.4903 7.81167 52.5813 7.894 52.746 7.894H53.019ZM61.4391 7.647C61.4911 7.65567 61.5475 7.66 61.6081 7.66C61.6688 7.66 61.7338 7.66 61.8031 7.66C62.0805 7.66 62.3015 7.647 62.4661 7.621C62.6308 7.595 62.7695 7.56467 62.8821 7.53C63.0035 7.49533 63.1205 7.465 63.2331 7.439C63.3458 7.413 63.4888 7.4 63.6621 7.4C63.7835 7.4 63.9048 7.41733 64.0261 7.452C64.1561 7.48667 64.2731 7.556 64.3771 7.66C64.4811 7.75533 64.5635 7.88967 64.6241 8.063C64.6935 8.22767 64.7281 8.44 64.7281 8.7C64.7281 8.96867 64.6935 9.18967 64.6241 9.363C64.5548 9.52767 64.4638 9.65767 64.3511 9.753C64.2471 9.84833 64.1301 9.91333 64.0001 9.948C63.8788 9.98267 63.7575 10 63.6361 10C63.4975 10 63.3761 9.987 63.2721 9.961C63.1681 9.935 63.0511 9.90467 62.9211 9.87C62.7998 9.83533 62.6525 9.805 62.4791 9.779C62.3058 9.753 62.0805 9.74 61.8031 9.74C61.5431 9.74 61.3308 9.753 61.1661 9.779C61.0015 9.79633 60.8585 9.82233 60.7371 9.857C60.5465 9.95233 60.2908 10 59.9701 10C59.6061 10 59.2985 9.91767 59.0471 9.753C58.7958 9.57967 58.6701 9.298 58.6701 8.908C58.6701 8.60467 58.6831 8.31 58.7091 8.024C58.7351 7.738 58.7655 7.45633 58.8001 7.179C58.8348 6.893 58.8651 6.61567 58.8911 6.347C58.9171 6.06967 58.9301 5.79233 58.9301 5.515V4.735C58.9301 4.45767 58.9171 4.18467 58.8911 3.916C58.8651 3.63867 58.8348 3.36133 58.8001 3.084C58.7655 2.798 58.7351 2.512 58.7091 2.226C58.6831 1.94 58.6701 1.64533 58.6701 1.342C58.6701 1.238 58.6831 1.12967 58.7091 1.017C58.7351 0.895666 58.7828 0.787333 58.8521 0.692C58.9301 0.596666 59.0298 0.509999 59.1511 0.431999C59.2811 0.353999 59.4458 0.301999 59.6451 0.276C59.6971 0.258666 59.7491 0.249999 59.8011 0.249999C59.8618 0.249999 59.9181 0.249999 59.9701 0.249999C60.2301 0.249999 60.4511 0.284666 60.6331 0.353999C60.7631 0.397333 60.9105 0.436333 61.0751 0.470999C61.2485 0.497 61.4998 0.51 61.8291 0.51C62.1065 0.51 62.3275 0.497 62.4921 0.470999C62.6568 0.444999 62.7955 0.414666 62.9081 0.38C63.0295 0.345333 63.1465 0.315 63.2591 0.288999C63.3718 0.262999 63.5148 0.249999 63.6881 0.249999C63.8095 0.249999 63.9308 0.262999 64.0521 0.288999C64.1821 0.306333 64.2991 0.358333 64.4031 0.445C64.5071 0.523 64.5895 0.64 64.6501 0.796C64.7195 0.951999 64.7541 1.16 64.7541 1.42C64.7541 1.68867 64.7195 1.901 64.6501 2.057C64.5808 2.213 64.4898 2.33 64.3771 2.408C64.2731 2.486 64.1561 2.538 64.0261 2.564C63.9048 2.58133 63.7835 2.59 63.6621 2.59C63.5235 2.59 63.4021 2.577 63.2981 2.551C63.1941 2.525 63.0771 2.49467 62.9471 2.46C62.8258 2.42533 62.6785 2.395 62.5051 2.369C62.3318 2.343 62.1065 2.33 61.8291 2.33C61.7598 2.33 61.6948 2.33433 61.6341 2.343C61.5735 2.343 61.5171 2.343 61.4651 2.343C61.3005 2.36033 61.2095 2.447 61.1921 2.603C61.1748 2.80233 61.1531 2.99733 61.1271 3.188C61.1098 3.37867 61.0925 3.56933 61.0751 3.76C61.0578 3.93333 61.1315 4.02 61.2961 4.02H61.4391C61.7165 4.02 61.9375 4.007 62.1021 3.981C62.2668 3.955 62.4055 3.92467 62.5181 3.89C62.6395 3.85533 62.7565 3.825 62.8691 3.799C62.9818 3.773 63.1248 3.76 63.2981 3.76C63.4195 3.76 63.5408 3.77733 63.6621 3.812C63.7921 3.838 63.9091 3.89433 64.0131 3.981C64.1171 4.06767 64.1995 4.19333 64.2601 4.358C64.3295 4.52267 64.3641 4.735 64.3641 4.995C64.3641 5.26367 64.3295 5.48033 64.2601 5.645C64.1908 5.801 64.0998 5.92233 63.9871 6.009C63.8831 6.09567 63.7661 6.15633 63.6361 6.191C63.5148 6.217 63.3935 6.23 63.2721 6.23C63.1335 6.23 63.0121 6.217 62.9081 6.191C62.8041 6.165 62.6871 6.13467 62.5571 6.1C62.4358 6.06533 62.2885 6.035 62.1151 6.009C61.9418 5.983 61.7165 5.97 61.4391 5.97H61.2701C61.2008 5.97 61.1401 5.996 61.0881 6.048C61.0448 6.09133 61.0275 6.152 61.0361 6.23C61.0535 6.42067 61.0708 6.61133 61.0881 6.802C61.1141 6.984 61.1401 7.17467 61.1661 7.374C61.1835 7.53867 61.2745 7.62967 61.4391 7.647Z" fill="black"/>
</svg>
