<svg width="37" height="25" viewBox="0 0 37 25" fill="none" xmlns="http://www.w3.org/2000/svg">
<path d="M10.2088 7.66H10.4428C10.7202 7.66 10.9325 7.647 11.0798 7.621C11.2358 7.595 11.3615 7.56467 11.4568 7.53C11.5608 7.49533 11.6605 7.465 11.7558 7.439C11.8598 7.413 11.9985 7.4 12.1718 7.4C12.2932 7.4 12.4145 7.41733 12.5358 7.452C12.6658 7.48667 12.7828 7.556 12.8868 7.66C12.9908 7.75533 13.0732 7.88967 13.1338 8.063C13.2032 8.22767 13.2378 8.44 13.2378 8.7C13.2378 8.96867 13.2032 9.18967 13.1338 9.363C13.0645 9.52767 12.9735 9.65767 12.8608 9.753C12.7568 9.84833 12.6398 9.91333 12.5098 9.948C12.3885 9.98267 12.2672 10 12.1458 10C12.0072 10 11.8902 9.987 11.7948 9.961C11.7082 9.935 11.6085 9.90467 11.4958 9.87C11.3918 9.83533 11.2575 9.805 11.0928 9.779C10.9368 9.753 10.7202 9.74 10.4428 9.74C10.2348 9.74 10.0615 9.74867 9.92284 9.766C9.78418 9.78333 9.66718 9.80067 9.57184 9.818C9.37251 9.93933 9.09518 10 8.73984 10C8.37584 10 8.06818 9.91767 7.81684 9.753C7.56551 9.57967 7.43984 9.298 7.43984 8.908C7.43984 8.60467 7.45284 8.31 7.47884 8.024C7.50484 7.738 7.53518 7.45633 7.56984 7.179C7.60451 6.893 7.63484 6.61567 7.66084 6.347C7.68684 6.06967 7.69984 5.79233 7.69984 5.515V4.735C7.69984 4.45767 7.68684 4.18467 7.66084 3.916C7.63484 3.63867 7.60451 3.36133 7.56984 3.084C7.53518 2.798 7.50484 2.512 7.47884 2.226C7.45284 1.94 7.43984 1.64533 7.43984 1.342C7.43984 1.14267 7.47451 0.973666 7.54384 0.834999C7.61318 0.696333 7.70851 0.583667 7.82984 0.497C7.95118 0.410333 8.09418 0.349666 8.25884 0.314999C8.42351 0.271666 8.59684 0.249999 8.77884 0.249999C9.03018 0.249999 9.23818 0.284666 9.40284 0.353999C9.56751 0.414666 9.69751 0.497 9.79284 0.600999C9.88818 0.705 9.95318 0.822 9.98784 0.951999C10.0225 1.07333 10.0398 1.19467 10.0398 1.316C10.0398 1.654 10.0268 1.97033 10.0008 2.265C9.97484 2.55967 9.94451 2.84567 9.90984 3.123C9.87518 3.39167 9.84484 3.66033 9.81884 3.929C9.79284 4.189 9.77984 4.45767 9.77984 4.735V5.515C9.77984 5.84433 9.79284 6.16067 9.81884 6.464C9.85351 6.75867 9.89251 7.06633 9.93584 7.387C9.95318 7.55167 10.0442 7.64267 10.2088 7.66ZM17.5823 7.647C17.6343 7.65567 17.6906 7.66 17.7513 7.66C17.8119 7.66 17.8769 7.66 17.9463 7.66C18.2236 7.66 18.4446 7.647 18.6093 7.621C18.7739 7.595 18.9126 7.56467 19.0253 7.53C19.1466 7.49533 19.2636 7.465 19.3763 7.439C19.4889 7.413 19.6319 7.4 19.8053 7.4C19.9266 7.4 20.0479 7.41733 20.1693 7.452C20.2993 7.48667 20.4163 7.556 20.5203 7.66C20.6243 7.75533 20.7066 7.88967 20.7673 8.063C20.8366 8.22767 20.8713 8.44 20.8713 8.7C20.8713 8.96867 20.8366 9.18967 20.7673 9.363C20.6979 9.52767 20.6069 9.65767 20.4943 9.753C20.3903 9.84833 20.2733 9.91333 20.1433 9.948C20.0219 9.98267 19.9006 10 19.7793 10C19.6406 10 19.5193 9.987 19.4153 9.961C19.3113 9.935 19.1943 9.90467 19.0643 9.87C18.9429 9.83533 18.7956 9.805 18.6223 9.779C18.4489 9.753 18.2236 9.74 17.9463 9.74C17.6863 9.74 17.4739 9.753 17.3093 9.779C17.1446 9.79633 17.0016 9.82233 16.8803 9.857C16.6896 9.95233 16.4339 10 16.1133 10C15.7493 10 15.4416 9.91767 15.1903 9.753C14.9389 9.57967 14.8133 9.298 14.8133 8.908C14.8133 8.60467 14.8263 8.31 14.8523 8.024C14.8783 7.738 14.9086 7.45633 14.9433 7.179C14.9779 6.893 15.0083 6.61567 15.0343 6.347C15.0603 6.06967 15.0733 5.79233 15.0733 5.515V4.735C15.0733 4.45767 15.0603 4.18467 15.0343 3.916C15.0083 3.63867 14.9779 3.36133 14.9433 3.084C14.9086 2.798 14.8783 2.512 14.8523 2.226C14.8263 1.94 14.8133 1.64533 14.8133 1.342C14.8133 1.238 14.8263 1.12967 14.8523 1.017C14.8783 0.895666 14.9259 0.787333 14.9953 0.692C15.0733 0.596666 15.1729 0.509999 15.2943 0.431999C15.4243 0.353999 15.5889 0.301999 15.7883 0.276C15.8403 0.258666 15.8923 0.249999 15.9443 0.249999C16.0049 0.249999 16.0613 0.249999 16.1133 0.249999C16.3733 0.249999 16.5943 0.284666 16.7763 0.353999C16.9063 0.397333 17.0536 0.436333 17.2183 0.470999C17.3916 0.497 17.6429 0.51 17.9723 0.51C18.2496 0.51 18.4706 0.497 18.6353 0.470999C18.7999 0.444999 18.9386 0.414666 19.0513 0.38C19.1726 0.345333 19.2896 0.315 19.4023 0.288999C19.5149 0.262999 19.6579 0.249999 19.8313 0.249999C19.9526 0.249999 20.0739 0.262999 20.1953 0.288999C20.3253 0.306333 20.4423 0.358333 20.5463 0.445C20.6503 0.523 20.7326 0.64 20.7933 0.796C20.8626 0.951999 20.8973 1.16 20.8973 1.42C20.8973 1.68867 20.8626 1.901 20.7933 2.057C20.7239 2.213 20.6329 2.33 20.5203 2.408C20.4163 2.486 20.2993 2.538 20.1693 2.564C20.0479 2.58133 19.9266 2.59 19.8053 2.59C19.6666 2.59 19.5453 2.577 19.4413 2.551C19.3373 2.525 19.2203 2.49467 19.0903 2.46C18.9689 2.42533 18.8216 2.395 18.6483 2.369C18.4749 2.343 18.2496 2.33 17.9723 2.33C17.9029 2.33 17.8379 2.33433 17.7773 2.343C17.7166 2.343 17.6603 2.343 17.6083 2.343C17.4436 2.36033 17.3526 2.447 17.3353 2.603C17.3179 2.80233 17.2963 2.99733 17.2703 3.188C17.2529 3.37867 17.2356 3.56933 17.2183 3.76C17.2009 3.93333 17.2746 4.02 17.4393 4.02H17.5823C17.8596 4.02 18.0806 4.007 18.2453 3.981C18.4099 3.955 18.5486 3.92467 18.6613 3.89C18.7826 3.85533 18.8996 3.825 19.0123 3.799C19.1249 3.773 19.2679 3.76 19.4413 3.76C19.5626 3.76 19.6839 3.77733 19.8053 3.812C19.9353 3.838 20.0523 3.89433 20.1563 3.981C20.2603 4.06767 20.3426 4.19333 20.4033 4.358C20.4726 4.52267 20.5073 4.735 20.5073 4.995C20.5073 5.26367 20.4726 5.48033 20.4033 5.645C20.3339 5.801 20.2429 5.92233 20.1303 6.009C20.0263 6.09567 19.9093 6.15633 19.7793 6.191C19.6579 6.217 19.5366 6.23 19.4153 6.23C19.2766 6.23 19.1553 6.217 19.0513 6.191C18.9473 6.165 18.8303 6.13467 18.7003 6.1C18.5789 6.06533 18.4316 6.035 18.2583 6.009C18.0849 5.983 17.8596 5.97 17.5823 5.97H17.4133C17.3439 5.97 17.2833 5.996 17.2313 6.048C17.1879 6.09133 17.1706 6.152 17.1793 6.23C17.1966 6.42067 17.2139 6.61133 17.2313 6.802C17.2573 6.984 17.2833 7.17467 17.3093 7.374C17.3266 7.53867 17.4176 7.62967 17.5823 7.647ZM22.726 4.735C22.726 4.45767 22.713 4.18467 22.687 3.916C22.661 3.63867 22.6307 3.36133 22.596 3.084C22.5613 2.798 22.531 2.512 22.505 2.226C22.479 1.94 22.466 1.64533 22.466 1.342C22.466 1.134 22.5007 0.960666 22.57 0.822C22.648 0.683333 22.7477 0.570666 22.869 0.483999C22.999 0.397333 23.1463 0.336666 23.311 0.301999C23.4843 0.267333 23.662 0.249999 23.844 0.249999H25.534C26.2013 0.249999 26.7863 0.379999 27.289 0.64C27.8003 0.899999 28.2293 1.251 28.576 1.693C28.9227 2.135 29.1827 2.65067 29.356 3.24C29.538 3.82933 29.629 4.45767 29.629 5.125C29.629 6.685 29.2997 7.88967 28.641 8.739C27.9823 9.57967 26.9467 10 25.534 10H23.831C23.649 10 23.4713 9.98267 23.298 9.948C23.1333 9.91333 22.9903 9.85267 22.869 9.766C22.7477 9.67933 22.648 9.56667 22.57 9.428C22.5007 9.28933 22.466 9.116 22.466 8.908C22.466 8.60467 22.479 8.31 22.505 8.024C22.531 7.738 22.5613 7.45633 22.596 7.179C22.6307 6.893 22.661 6.61567 22.687 6.347C22.713 6.06967 22.726 5.79233 22.726 5.515V4.735ZM25.534 7.894C26.2013 7.894 26.6737 7.65133 26.951 7.166C27.2283 6.68067 27.367 5.996 27.367 5.112C27.367 4.67 27.341 4.267 27.289 3.903C27.237 3.53033 27.1417 3.20967 27.003 2.941C26.8643 2.67233 26.6737 2.46433 26.431 2.317C26.197 2.161 25.898 2.083 25.534 2.083H25.287C25.131 2.083 25.0443 2.16533 25.027 2.33C24.9837 2.76333 24.936 3.17067 24.884 3.552C24.832 3.92467 24.806 4.319 24.806 4.735V5.515C24.806 5.879 24.8233 6.23433 24.858 6.581C24.9013 6.919 24.9447 7.27433 24.988 7.647C25.0053 7.81167 25.0963 7.894 25.261 7.894H25.534ZM6.82478 23.025C6.73812 23.3197 6.57778 23.558 6.34378 23.74C6.10978 23.9133 5.84112 24 5.53778 24H5.52478C5.22145 24 4.95278 23.9133 4.71878 23.74C4.48478 23.558 4.32445 23.3197 4.23778 23.025L2.78178 17.968C2.76445 17.8987 2.74712 17.864 2.72978 17.864C2.71245 17.8553 2.70378 17.89 2.70378 17.968C2.69512 18.098 2.69078 18.241 2.69078 18.397C2.69078 18.5443 2.69078 18.657 2.69078 18.735V19.125C2.69078 19.4023 2.70812 19.697 2.74278 20.009C2.78612 20.3123 2.83378 20.6243 2.88578 20.945C2.93778 21.2657 2.98112 21.595 3.01578 21.933C3.05912 22.2623 3.08078 22.596 3.08078 22.934C3.08078 23.0553 3.05478 23.181 3.00278 23.311C2.95078 23.4323 2.86845 23.545 2.75578 23.649C2.64312 23.753 2.49578 23.8397 2.31378 23.909C2.13178 23.9697 1.91078 24 1.65078 24C1.38212 24 1.16112 23.9653 0.987782 23.896C0.823115 23.8267 0.693115 23.74 0.597782 23.636C0.502448 23.5233 0.437448 23.4063 0.402782 23.285C0.368115 23.155 0.350782 23.0293 0.350782 22.908C0.350782 22.6047 0.363782 22.31 0.389782 22.024C0.415782 21.738 0.446115 21.4563 0.480782 21.179C0.515448 20.893 0.545782 20.6157 0.571782 20.347C0.597782 20.0697 0.610782 19.7923 0.610782 19.515V18.735C0.610782 18.4577 0.597782 18.1977 0.571782 17.955C0.545782 17.7037 0.515448 17.4567 0.480782 17.214C0.446115 16.9627 0.415782 16.707 0.389782 16.447C0.363782 16.187 0.350782 15.9053 0.350782 15.602C0.350782 15.2293 0.506782 14.913 0.818782 14.653C1.13945 14.393 1.56845 14.2587 2.10578 14.25H2.53478C2.93345 14.25 3.28012 14.367 3.57478 14.601C3.87812 14.835 4.07745 15.147 4.17278 15.537L5.39478 20.594C5.43812 20.7673 5.48578 20.854 5.53778 20.854C5.58978 20.854 5.63745 20.7673 5.68078 20.594L6.88978 15.537C6.98512 15.147 7.18012 14.835 7.47478 14.601C7.77812 14.367 8.12912 14.25 8.52778 14.25H8.95678C9.49412 14.2587 9.89712 14.393 10.1658 14.653C10.4431 14.913 10.5818 15.2293 10.5818 15.602C10.5818 15.9053 10.5688 16.187 10.5428 16.447C10.5168 16.707 10.4864 16.9627 10.4518 17.214C10.4171 17.4567 10.3868 17.7037 10.3608 17.955C10.3348 18.1977 10.3218 18.4577 10.3218 18.735V19.515C10.3218 19.7923 10.3348 20.0697 10.3608 20.347C10.3868 20.6157 10.4171 20.893 10.4518 21.179C10.4864 21.4563 10.5168 21.738 10.5428 22.024C10.5688 22.31 10.5818 22.6047 10.5818 22.908C10.5818 23.0293 10.5644 23.155 10.5298 23.285C10.5038 23.4063 10.4474 23.5233 10.3608 23.636C10.2741 23.74 10.1484 23.8267 9.98378 23.896C9.82778 23.9653 9.61545 24 9.34678 24C9.08678 24 8.86578 23.9697 8.68378 23.909C8.51045 23.8397 8.37178 23.753 8.26778 23.649C8.16378 23.545 8.09012 23.4323 8.04678 23.311C8.00345 23.181 7.98178 23.0553 7.98178 22.934C7.98178 22.596 7.99912 22.2623 8.03378 21.933C8.07712 21.595 8.12478 21.2657 8.17678 20.945C8.22878 20.6243 8.27212 20.3123 8.30678 20.009C8.35012 19.697 8.37178 19.4023 8.37178 19.125V18.735C8.37178 18.657 8.37178 18.5443 8.37178 18.397C8.37178 18.241 8.36745 18.098 8.35878 17.968C8.35878 17.89 8.35012 17.8553 8.33278 17.864C8.31545 17.864 8.29812 17.8987 8.28078 17.968L6.82478 23.025ZM12.1407 19.125C12.1407 18.4577 12.2273 17.825 12.4007 17.227C12.574 16.6203 12.834 16.0873 13.1807 15.628C13.5273 15.1687 13.9563 14.8047 14.4677 14.536C14.979 14.2587 15.5727 14.12 16.2487 14.12C16.916 14.12 17.501 14.2587 18.0037 14.536C18.515 14.8047 18.944 15.1687 19.2907 15.628C19.6373 16.0873 19.8973 16.6203 20.0707 17.227C20.2527 17.825 20.3437 18.4577 20.3437 19.125C20.3437 19.905 20.2613 20.607 20.0967 21.231C19.9407 21.8463 19.6937 22.3707 19.3557 22.804C19.0177 23.2287 18.5887 23.558 18.0687 23.792C17.5573 24.0173 16.9507 24.13 16.2487 24.13C15.538 24.13 14.9227 24.0173 14.4027 23.792C13.8913 23.558 13.4667 23.2287 13.1287 22.804C12.7907 22.3707 12.5393 21.8463 12.3747 21.231C12.2187 20.607 12.1407 19.905 12.1407 19.125ZM14.4157 19.112C14.4157 19.554 14.446 19.957 14.5067 20.321C14.576 20.6763 14.6843 20.9797 14.8317 21.231C14.979 21.4823 15.1653 21.6773 15.3907 21.816C15.6247 21.9547 15.9107 22.024 16.2487 22.024C16.5867 22.024 16.8683 21.9547 17.0937 21.816C17.3277 21.6773 17.5183 21.4823 17.6657 21.231C17.813 20.9797 17.917 20.6763 17.9777 20.321C18.047 19.957 18.0817 19.554 18.0817 19.112C18.0817 18.67 18.0557 18.2583 18.0037 17.877C17.9517 17.4957 17.8563 17.162 17.7177 16.876C17.579 16.59 17.3883 16.3647 17.1457 16.2C16.9117 16.0353 16.6127 15.953 16.2487 15.953C15.8847 15.953 15.5813 16.0353 15.3387 16.2C15.1047 16.3647 14.9183 16.59 14.7797 16.876C14.641 17.162 14.5457 17.4957 14.4937 17.877C14.4417 18.2583 14.4157 18.67 14.4157 19.112ZM22.1623 18.735C22.1623 18.4577 22.1493 18.1847 22.1233 17.916C22.0973 17.6387 22.067 17.3613 22.0323 17.084C21.9977 16.798 21.9673 16.512 21.9413 16.226C21.9153 15.94 21.9023 15.6453 21.9023 15.342C21.9023 15.134 21.937 14.9607 22.0063 14.822C22.0843 14.6833 22.184 14.5707 22.3053 14.484C22.4353 14.3973 22.5827 14.3367 22.7473 14.302C22.9207 14.2673 23.0983 14.25 23.2803 14.25H24.9703C25.6377 14.25 26.2227 14.38 26.7253 14.64C27.2367 14.9 27.6657 15.251 28.0123 15.693C28.359 16.135 28.619 16.6507 28.7923 17.24C28.9743 17.8293 29.0653 18.4577 29.0653 19.125C29.0653 20.685 28.736 21.8897 28.0773 22.739C27.4187 23.5797 26.383 24 24.9703 24H23.2673C23.0853 24 22.9077 23.9827 22.7343 23.948C22.5697 23.9133 22.4267 23.8527 22.3053 23.766C22.184 23.6793 22.0843 23.5667 22.0063 23.428C21.937 23.2893 21.9023 23.116 21.9023 22.908C21.9023 22.6047 21.9153 22.31 21.9413 22.024C21.9673 21.738 21.9977 21.4563 22.0323 21.179C22.067 20.893 22.0973 20.6157 22.1233 20.347C22.1493 20.0697 22.1623 19.7923 22.1623 19.515V18.735ZM24.9703 21.894C25.6377 21.894 26.11 21.6513 26.3873 21.166C26.6647 20.6807 26.8033 19.996 26.8033 19.112C26.8033 18.67 26.7773 18.267 26.7253 17.903C26.6733 17.5303 26.578 17.2097 26.4393 16.941C26.3007 16.6723 26.11 16.4643 25.8673 16.317C25.6333 16.161 25.3343 16.083 24.9703 16.083H24.7233C24.5673 16.083 24.4807 16.1653 24.4633 16.33C24.42 16.7633 24.3723 17.1707 24.3203 17.552C24.2683 17.9247 24.2423 18.319 24.2423 18.735V19.515C24.2423 19.879 24.2597 20.2343 24.2943 20.581C24.3377 20.919 24.381 21.2743 24.4243 21.647C24.4417 21.8117 24.5327 21.894 24.6973 21.894H24.9703ZM33.3905 21.647C33.4425 21.6557 33.4988 21.66 33.5595 21.66C33.6202 21.66 33.6852 21.66 33.7545 21.66C34.0318 21.66 34.2528 21.647 34.4175 21.621C34.5822 21.595 34.7208 21.5647 34.8335 21.53C34.9548 21.4953 35.0718 21.465 35.1845 21.439C35.2972 21.413 35.4402 21.4 35.6135 21.4C35.7348 21.4 35.8562 21.4173 35.9775 21.452C36.1075 21.4867 36.2245 21.556 36.3285 21.66C36.4325 21.7553 36.5148 21.8897 36.5755 22.063C36.6448 22.2277 36.6795 22.44 36.6795 22.7C36.6795 22.9687 36.6448 23.1897 36.5755 23.363C36.5062 23.5277 36.4152 23.6577 36.3025 23.753C36.1985 23.8483 36.0815 23.9133 35.9515 23.948C35.8302 23.9827 35.7088 24 35.5875 24C35.4488 24 35.3275 23.987 35.2235 23.961C35.1195 23.935 35.0025 23.9047 34.8725 23.87C34.7512 23.8353 34.6038 23.805 34.4305 23.779C34.2572 23.753 34.0318 23.74 33.7545 23.74C33.4945 23.74 33.2822 23.753 33.1175 23.779C32.9528 23.7963 32.8098 23.8223 32.6885 23.857C32.4978 23.9523 32.2422 24 31.9215 24C31.5575 24 31.2498 23.9177 30.9985 23.753C30.7472 23.5797 30.6215 23.298 30.6215 22.908C30.6215 22.6047 30.6345 22.31 30.6605 22.024C30.6865 21.738 30.7168 21.4563 30.7515 21.179C30.7862 20.893 30.8165 20.6157 30.8425 20.347C30.8685 20.0697 30.8815 19.7923 30.8815 19.515V18.735C30.8815 18.4577 30.8685 18.1847 30.8425 17.916C30.8165 17.6387 30.7862 17.3613 30.7515 17.084C30.7168 16.798 30.6865 16.512 30.6605 16.226C30.6345 15.94 30.6215 15.6453 30.6215 15.342C30.6215 15.238 30.6345 15.1297 30.6605 15.017C30.6865 14.8957 30.7342 14.7873 30.8035 14.692C30.8815 14.5967 30.9812 14.51 31.1025 14.432C31.2325 14.354 31.3972 14.302 31.5965 14.276C31.6485 14.2587 31.7005 14.25 31.7525 14.25C31.8132 14.25 31.8695 14.25 31.9215 14.25C32.1815 14.25 32.4025 14.2847 32.5845 14.354C32.7145 14.3973 32.8618 14.4363 33.0265 14.471C33.1998 14.497 33.4512 14.51 33.7805 14.51C34.0578 14.51 34.2788 14.497 34.4435 14.471C34.6082 14.445 34.7468 14.4147 34.8595 14.38C34.9808 14.3453 35.0978 14.315 35.2105 14.289C35.3232 14.263 35.4662 14.25 35.6395 14.25C35.7608 14.25 35.8822 14.263 36.0035 14.289C36.1335 14.3063 36.2505 14.3583 36.3545 14.445C36.4585 14.523 36.5408 14.64 36.6015 14.796C36.6708 14.952 36.7055 15.16 36.7055 15.42C36.7055 15.6887 36.6708 15.901 36.6015 16.057C36.5322 16.213 36.4412 16.33 36.3285 16.408C36.2245 16.486 36.1075 16.538 35.9775 16.564C35.8562 16.5813 35.7348 16.59 35.6135 16.59C35.4748 16.59 35.3535 16.577 35.2495 16.551C35.1455 16.525 35.0285 16.4947 34.8985 16.46C34.7772 16.4253 34.6298 16.395 34.4565 16.369C34.2832 16.343 34.0578 16.33 33.7805 16.33C33.7112 16.33 33.6462 16.3343 33.5855 16.343C33.5248 16.343 33.4685 16.343 33.4165 16.343C33.2518 16.3603 33.1608 16.447 33.1435 16.603C33.1262 16.8023 33.1045 16.9973 33.0785 17.188C33.0612 17.3787 33.0438 17.5693 33.0265 17.76C33.0092 17.9333 33.0828 18.02 33.2475 18.02H33.3905C33.6678 18.02 33.8888 18.007 34.0535 17.981C34.2182 17.955 34.3568 17.9247 34.4695 17.89C34.5908 17.8553 34.7078 17.825 34.8205 17.799C34.9332 17.773 35.0762 17.76 35.2495 17.76C35.3708 17.76 35.4922 17.7773 35.6135 17.812C35.7435 17.838 35.8605 17.8943 35.9645 17.981C36.0685 18.0677 36.1508 18.1933 36.2115 18.358C36.2808 18.5227 36.3155 18.735 36.3155 18.995C36.3155 19.2637 36.2808 19.4803 36.2115 19.645C36.1422 19.801 36.0512 19.9223 35.9385 20.009C35.8345 20.0957 35.7175 20.1563 35.5875 20.191C35.4662 20.217 35.3448 20.23 35.2235 20.23C35.0848 20.23 34.9635 20.217 34.8595 20.191C34.7555 20.165 34.6385 20.1347 34.5085 20.1C34.3872 20.0653 34.2398 20.035 34.0665 20.009C33.8932 19.983 33.6678 19.97 33.3905 19.97H33.2215C33.1522 19.97 33.0915 19.996 33.0395 20.048C32.9962 20.0913 32.9788 20.152 32.9875 20.23C33.0048 20.4207 33.0222 20.6113 33.0395 20.802C33.0655 20.984 33.0915 21.1747 33.1175 21.374C33.1348 21.5387 33.2258 21.6297 33.3905 21.647Z" fill="black"/>
</svg>
