<svg width="16" height="6" viewBox="0 0 16 6" fill="none" xmlns="http://www.w3.org/2000/svg">
<path d="M3.3995 4.5125C3.35617 4.65983 3.276 4.779 3.159 4.87C3.042 4.95667 2.90767 5 2.756 5H2.7495C2.59783 5 2.4635 4.95667 2.3465 4.87C2.2295 4.779 2.14933 4.65983 2.106 4.5125L1.378 1.984C1.36933 1.94933 1.36067 1.932 1.352 1.932C1.34333 1.92767 1.339 1.945 1.339 1.984C1.33467 2.049 1.3325 2.1205 1.3325 2.1985C1.3325 2.27217 1.3325 2.3285 1.3325 2.3675V2.5625C1.3325 2.70117 1.34117 2.8485 1.3585 3.0045C1.38017 3.15617 1.404 3.31217 1.43 3.4725C1.456 3.63283 1.47767 3.7975 1.495 3.9665C1.51667 4.13117 1.5275 4.298 1.5275 4.467C1.5275 4.52767 1.5145 4.5905 1.4885 4.6555C1.4625 4.71617 1.42133 4.7725 1.365 4.8245C1.30867 4.8765 1.235 4.91983 1.144 4.9545C1.053 4.98483 0.9425 5 0.8125 5C0.678167 5 0.567667 4.98267 0.481 4.948C0.398667 4.91333 0.333667 4.87 0.286 4.818C0.238333 4.76167 0.205833 4.70317 0.1885 4.6425C0.171167 4.5775 0.1625 4.51467 0.1625 4.454C0.1625 4.30233 0.169 4.155 0.182 4.012C0.195 3.869 0.210167 3.72817 0.2275 3.5895C0.244833 3.4465 0.26 3.30783 0.273 3.1735C0.286 3.03483 0.2925 2.89617 0.2925 2.7575V2.3675C0.2925 2.22883 0.286 2.09883 0.273 1.9775C0.26 1.85183 0.244833 1.72833 0.2275 1.607C0.210167 1.48133 0.195 1.3535 0.182 1.2235C0.169 1.0935 0.1625 0.952667 0.1625 0.801C0.1625 0.614667 0.2405 0.4565 0.3965 0.3265C0.556833 0.1965 0.771333 0.129333 1.04 0.125H1.2545C1.45383 0.125 1.62717 0.1835 1.7745 0.3005C1.92617 0.4175 2.02583 0.5735 2.0735 0.7685L2.6845 3.297C2.70617 3.38367 2.73 3.427 2.756 3.427C2.782 3.427 2.80583 3.38367 2.8275 3.297L3.432 0.7685C3.47967 0.5735 3.57717 0.4175 3.7245 0.3005C3.87617 0.1835 4.05167 0.125 4.251 0.125H4.4655C4.73417 0.129333 4.93567 0.1965 5.07 0.3265C5.20867 0.4565 5.278 0.614667 5.278 0.801C5.278 0.952667 5.2715 1.0935 5.2585 1.2235C5.2455 1.3535 5.23033 1.48133 5.213 1.607C5.19567 1.72833 5.1805 1.85183 5.1675 1.9775C5.1545 2.09883 5.148 2.22883 5.148 2.3675V2.7575C5.148 2.89617 5.1545 3.03483 5.1675 3.1735C5.1805 3.30783 5.19567 3.4465 5.213 3.5895C5.23033 3.72817 5.2455 3.869 5.2585 4.012C5.2715 4.155 5.278 4.30233 5.278 4.454C5.278 4.51467 5.26933 4.5775 5.252 4.6425C5.239 4.70317 5.21083 4.76167 5.1675 4.818C5.12417 4.87 5.06133 4.91333 4.979 4.948C4.901 4.98267 4.79483 5 4.6605 5C4.5305 5 4.42 4.98483 4.329 4.9545C4.24233 4.91983 4.173 4.8765 4.121 4.8245C4.069 4.7725 4.03217 4.71617 4.0105 4.6555C3.98883 4.5905 3.978 4.52767 3.978 4.467C3.978 4.298 3.98667 4.13117 4.004 3.9665C4.02567 3.7975 4.0495 3.63283 4.0755 3.4725C4.1015 3.31217 4.12317 3.15617 4.1405 3.0045C4.16217 2.8485 4.173 2.70117 4.173 2.5625V2.3675C4.173 2.3285 4.173 2.27217 4.173 2.1985C4.173 2.1205 4.17083 2.049 4.1665 1.984C4.1665 1.945 4.16217 1.92767 4.1535 1.932C4.14483 1.932 4.13617 1.94933 4.1275 1.984L3.3995 4.5125ZM7.68244 3.8625C7.65211 3.97517 7.61527 4.09433 7.57194 4.22C7.53294 4.34133 7.47877 4.48433 7.40944 4.649C7.37477 4.73567 7.31844 4.81583 7.24044 4.8895C7.16677 4.96317 7.06277 5 6.92844 5C6.83744 5 6.72694 4.974 6.59694 4.922C6.47561 4.87 6.38244 4.8115 6.31744 4.7465C6.25244 4.67717 6.20694 4.60783 6.18094 4.5385C6.15927 4.46483 6.15277 4.39333 6.16144 4.324C6.17011 4.25467 6.18744 4.19183 6.21344 4.1355C6.47344 3.52883 6.70744 2.92217 6.91544 2.3155C7.12344 1.70883 7.33361 1.087 7.54594 0.45C7.58061 0.350333 7.65861 0.268 7.77994 0.203C7.90127 0.138 8.05294 0.1055 8.23494 0.1055C8.41694 0.1055 8.56861 0.138 8.68994 0.203C8.81127 0.268 8.88928 0.350333 8.92394 0.45C9.14061 1.087 9.35078 1.70883 9.55444 2.3155C9.76244 2.92217 9.99644 3.52883 10.2564 4.1355C10.2824 4.19183 10.2998 4.25467 10.3084 4.324C10.3171 4.39333 10.3084 4.46483 10.2824 4.5385C10.2608 4.60783 10.2174 4.67717 10.1524 4.7465C10.0918 4.8115 9.99861 4.87 9.87294 4.922C9.74294 4.974 9.63244 5 9.54144 5C9.40711 5 9.30094 4.96317 9.22294 4.8895C9.14928 4.81583 9.09511 4.73567 9.06044 4.649C8.99111 4.48433 8.93477 4.33917 8.89144 4.2135C8.85244 4.08783 8.81777 3.96867 8.78744 3.856C8.76577 3.77367 8.71378 3.72817 8.63144 3.7195C8.59244 3.71517 8.55127 3.713 8.50794 3.713C8.46894 3.713 8.42561 3.713 8.37794 3.713H8.11794C8.06161 3.713 8.00961 3.71517 7.96194 3.7195C7.91861 3.7195 7.87744 3.72167 7.83844 3.726C7.75611 3.73467 7.70411 3.78017 7.68244 3.8625ZM8.19594 1.5615C8.17861 1.62217 8.15911 1.698 8.13744 1.789C8.11577 1.88 8.09411 1.9775 8.07244 2.0815C8.05077 2.1855 8.02911 2.29167 8.00744 2.4C7.99011 2.50833 7.97061 2.61233 7.94894 2.712C7.93594 2.79867 7.96844 2.842 8.04644 2.842H8.11794H8.37794H8.42344C8.50144 2.842 8.53394 2.80083 8.52094 2.7185C8.50361 2.61883 8.48411 2.51483 8.46244 2.4065C8.44077 2.29817 8.41911 2.192 8.39744 2.088C8.37577 1.984 8.35411 1.8865 8.33244 1.7955C8.31077 1.70017 8.29127 1.62217 8.27394 1.5615C8.26527 1.52683 8.25227 1.5095 8.23494 1.5095C8.21761 1.5095 8.20461 1.52683 8.19594 1.5615ZM12.994 3.4205C12.8943 3.62417 12.7946 3.83 12.695 4.038C12.5996 4.24167 12.4848 4.45183 12.3505 4.6685C12.3158 4.72483 12.2681 4.78117 12.2075 4.8375C12.1511 4.8895 12.0861 4.93067 12.0125 4.961C11.9388 4.99133 11.8565 5.00433 11.7655 5C11.6745 4.99133 11.577 4.9545 11.473 4.8895C11.356 4.81583 11.2715 4.74217 11.2195 4.6685C11.1675 4.5905 11.1371 4.51467 11.1285 4.441C11.1198 4.36733 11.1263 4.298 11.148 4.233C11.174 4.16367 11.2065 4.10083 11.2455 4.0445C11.3408 3.8885 11.434 3.7455 11.525 3.6155C11.6203 3.4855 11.7135 3.362 11.8045 3.245C11.8955 3.12367 11.9843 3.00667 12.071 2.894C12.1576 2.777 12.24 2.65567 12.318 2.53C12.3613 2.465 12.357 2.40217 12.305 2.3415C12.149 2.1465 11.9843 1.95367 11.811 1.763C11.642 1.57233 11.4773 1.36 11.317 1.126C11.278 1.06967 11.2455 1.00683 11.2195 0.9375C11.1935 0.868167 11.1826 0.796666 11.187 0.723C11.1913 0.645 11.2173 0.569166 11.265 0.4955C11.3126 0.4175 11.3906 0.341666 11.499 0.268C11.603 0.194333 11.7005 0.151 11.7915 0.138C11.8825 0.125 11.9648 0.1315 12.0385 0.1575C12.1121 0.179166 12.1771 0.216 12.2335 0.268C12.2941 0.32 12.344 0.374167 12.383 0.4305C12.526 0.6385 12.6451 0.8335 12.7405 1.0155C12.8401 1.1975 12.9398 1.37517 13.0395 1.5485C13.0568 1.57883 13.0763 1.594 13.098 1.594C13.1196 1.594 13.1391 1.57883 13.1565 1.5485C13.2561 1.37517 13.3536 1.1975 13.449 1.0155C13.5486 0.8335 13.67 0.6385 13.813 0.4305C13.852 0.374167 13.8996 0.32 13.956 0.268C14.0166 0.216 14.0838 0.179166 14.1575 0.1575C14.2311 0.1315 14.3135 0.125 14.4045 0.138C14.4955 0.151 14.593 0.194333 14.697 0.268C14.8053 0.341666 14.8833 0.4175 14.931 0.4955C14.9786 0.569166 15.0046 0.645 15.009 0.723C15.0133 0.796666 15.0025 0.868167 14.9765 0.9375C14.9505 1.00683 14.918 1.06967 14.879 1.126C14.7056 1.38167 14.528 1.61133 14.346 1.815C14.164 2.01433 13.9885 2.22233 13.8195 2.439C13.7978 2.465 13.7848 2.49533 13.7805 2.53C13.7805 2.56467 13.7913 2.595 13.813 2.621C13.8996 2.738 13.9863 2.85067 14.073 2.959C14.164 3.063 14.2571 3.17133 14.3525 3.284C14.4478 3.39667 14.5431 3.51367 14.6385 3.635C14.7381 3.75633 14.8378 3.89067 14.9375 4.038C14.9765 4.09433 15.009 4.15933 15.035 4.233C15.0653 4.30233 15.0783 4.376 15.074 4.454C15.0696 4.52767 15.0436 4.6035 14.996 4.6815C14.9483 4.75517 14.8703 4.82667 14.762 4.896C14.6536 4.961 14.554 4.99783 14.463 5.0065C14.372 5.0195 14.2875 5.01517 14.2095 4.9935C14.1358 4.9675 14.0708 4.93067 14.0145 4.883C13.9581 4.831 13.9105 4.77683 13.8715 4.7205C13.7198 4.49083 13.5855 4.26767 13.4685 4.051C13.3515 3.83433 13.2301 3.622 13.1045 3.414C13.0871 3.38367 13.0676 3.37067 13.046 3.375C13.0286 3.375 13.0113 3.39017 12.994 3.4205Z" fill="black"/>
</svg>
