<svg width="21" height="8" viewBox="0 0 21 8" fill="none" xmlns="http://www.w3.org/2000/svg">
<path fill-rule="evenodd" clip-rule="evenodd" d="M21 0H0V8H21V0ZM5.05284 6.84C5.19684 6.728 5.29551 6.58133 5.34884 6.4L6.24484 3.288C6.25551 3.24533 6.26618 3.224 6.27684 3.224C6.28751 3.21867 6.29284 3.24 6.29284 3.288C6.29818 3.368 6.30084 3.456 6.30084 3.552V3.76V4C6.30084 4.17067 6.28751 4.352 6.26084 4.544C6.23951 4.73067 6.21284 4.92267 6.18084 5.12C6.14884 5.31733 6.11951 5.52 6.09284 5.728C6.07151 5.93067 6.06084 6.136 6.06084 6.344C6.06084 6.41867 6.07418 6.496 6.10084 6.576C6.12751 6.65067 6.17284 6.72 6.23684 6.784C6.30084 6.848 6.38618 6.90133 6.49284 6.944C6.60484 6.98133 6.74084 7 6.90084 7C7.06618 7 7.19684 6.97867 7.29284 6.936C7.39418 6.89333 7.47151 6.84 7.52484 6.776C7.57818 6.70667 7.61284 6.63467 7.62884 6.56C7.65018 6.48 7.66084 6.40267 7.66084 6.328C7.66084 6.14133 7.65284 5.96 7.63684 5.784C7.62084 5.608 7.60218 5.43467 7.58084 5.264C7.55951 5.088 7.54084 4.91733 7.52484 4.752C7.50884 4.58133 7.50084 4.41067 7.50084 4.24V3.76C7.50084 3.58933 7.50884 3.42933 7.52484 3.28C7.54084 3.12533 7.55951 2.97333 7.58084 2.824C7.60218 2.66933 7.62084 2.512 7.63684 2.352C7.65284 2.192 7.66084 2.01867 7.66084 1.832C7.66084 1.60267 7.57551 1.408 7.40484 1.248C7.23951 1.088 6.99151 1.00533 6.66084 1H6.39684C6.15151 1 5.93551 1.072 5.74884 1.216C5.56751 1.36 5.44751 1.552 5.38884 1.792L4.64484 4.904C4.61818 5.01067 4.58884 5.064 4.55684 5.064C4.52484 5.064 4.49551 5.01067 4.46884 4.904L3.71684 1.792C3.65818 1.552 3.53551 1.36 3.34884 1.216C3.16751 1.072 2.95418 1 2.70884 1H2.44484C2.11418 1.00533 1.85018 1.088 1.65284 1.248C1.46084 1.408 1.36484 1.60267 1.36484 1.832C1.36484 2.01867 1.37284 2.192 1.38884 2.352C1.40484 2.512 1.42351 2.66933 1.44484 2.824C1.46618 2.97333 1.48484 3.12533 1.50084 3.28C1.51684 3.42933 1.52484 3.58933 1.52484 3.76V4.24C1.52484 4.41067 1.51684 4.58133 1.50084 4.752C1.48484 4.91733 1.46618 5.088 1.44484 5.264C1.42351 5.43467 1.40484 5.608 1.38884 5.784C1.37284 5.96 1.36484 6.14133 1.36484 6.328C1.36484 6.40267 1.37551 6.48 1.39684 6.56C1.41818 6.63467 1.45818 6.70667 1.51684 6.776C1.57551 6.84 1.65551 6.89333 1.75684 6.936C1.86351 6.97867 1.99951 7 2.16484 7C2.32484 7 2.46084 6.98133 2.57284 6.944C2.68484 6.90133 2.77551 6.848 2.84484 6.784C2.91418 6.72 2.96484 6.65067 2.99684 6.576C3.02884 6.496 3.04484 6.41867 3.04484 6.344C3.04484 6.136 3.03151 5.93067 3.00484 5.728C2.98351 5.52 2.95684 5.31733 2.92484 5.12C2.89284 4.92267 2.86351 4.73067 2.83684 4.544C2.81551 4.352 2.80484 4.17067 2.80484 4V3.76V3.552C2.80484 3.456 2.80751 3.368 2.81284 3.288C2.81284 3.24 2.81818 3.21867 2.82884 3.224C2.83951 3.224 2.85018 3.24533 2.86084 3.288L3.75684 6.4C3.81018 6.58133 3.90884 6.728 4.05284 6.84C4.19684 6.94667 4.36218 7 4.54884 7H4.55684C4.74351 7 4.90884 6.94667 5.05284 6.84ZM10.4842 6.04C10.5375 5.88533 10.5828 5.73867 10.6202 5.6C10.6468 5.49867 10.7108 5.44267 10.8122 5.432C10.8602 5.42667 10.9108 5.424 10.9642 5.424C11.0228 5.41867 11.0868 5.416 11.1562 5.416H11.4762H11.6362C11.6895 5.416 11.7402 5.41867 11.7882 5.424C11.8895 5.43467 11.9535 5.49067 11.9802 5.592C12.0175 5.73067 12.0602 5.87733 12.1082 6.032C12.1615 6.18667 12.2308 6.36533 12.3162 6.568C12.3588 6.67467 12.4255 6.77333 12.5162 6.864C12.6122 6.95467 12.7428 7 12.9082 7C13.0202 7 13.1562 6.968 13.3162 6.904C13.4708 6.84 13.5855 6.768 13.6602 6.688C13.7402 6.60267 13.7935 6.51733 13.8202 6.432C13.8522 6.34133 13.8628 6.25333 13.8522 6.168C13.8415 6.08267 13.8202 6.00533 13.7882 5.936C13.4682 5.18933 13.1802 4.44267 12.9242 3.696C12.6735 2.94933 12.4148 2.184 12.1482 1.4C12.1055 1.27733 12.0095 1.176 11.8602 1.096C11.7108 1.016 11.5242 0.976 11.3002 0.976C11.0762 0.976 10.8895 1.016 10.7402 1.096C10.5908 1.176 10.4948 1.27733 10.4522 1.4C10.1908 2.184 9.93216 2.94933 9.67616 3.696C9.42016 4.44267 9.13216 5.18933 8.81216 5.936C8.78016 6.00533 8.75882 6.08267 8.74816 6.168C8.73749 6.25333 8.74549 6.34133 8.77216 6.432C8.80416 6.51733 8.86016 6.60267 8.94016 6.688C9.02016 6.768 9.13482 6.84 9.28416 6.904C9.44416 6.968 9.58016 7 9.69216 7C9.85749 7 9.98549 6.95467 10.0762 6.864C10.1722 6.77333 10.2415 6.67467 10.2842 6.568C10.3695 6.36533 10.4362 6.18933 10.4842 6.04ZM11.1802 3.048C11.2068 2.936 11.2308 2.84267 11.2522 2.768C11.2628 2.72533 11.2788 2.704 11.3002 2.704C11.3215 2.704 11.3375 2.72533 11.3482 2.768C11.3695 2.84267 11.3935 2.93867 11.4202 3.056C11.4468 3.168 11.4735 3.288 11.5002 3.416C11.5268 3.544 11.5535 3.67467 11.5802 3.808C11.6068 3.94133 11.6308 4.06933 11.6522 4.192C11.6682 4.29333 11.6282 4.344 11.5322 4.344H11.4762H11.1562H11.0682C10.9722 4.344 10.9322 4.29067 10.9482 4.184C10.9748 4.06133 10.9988 3.93333 11.0202 3.8C11.0468 3.66667 11.0735 3.536 11.1002 3.408C11.1268 3.28 11.1535 3.16 11.1802 3.048ZM16.7894 5.816C16.9121 5.56 17.0347 5.30667 17.1574 5.056C17.1787 5.01867 17.2001 5 17.2214 5C17.2481 4.99467 17.2721 5.01067 17.2934 5.048C17.4481 5.304 17.5974 5.56533 17.7414 5.832C17.8854 6.09867 18.0507 6.37333 18.2374 6.656C18.2854 6.72533 18.3441 6.792 18.4134 6.856C18.4827 6.91467 18.5627 6.96 18.6534 6.992C18.7494 7.01867 18.8534 7.024 18.9654 7.008C19.0774 6.99733 19.2001 6.952 19.3334 6.872C19.4667 6.78667 19.5627 6.69867 19.6214 6.608C19.6801 6.512 19.7121 6.41867 19.7174 6.328C19.7227 6.232 19.7067 6.14133 19.6694 6.056C19.6374 5.96533 19.5974 5.88533 19.5494 5.816C19.4267 5.63467 19.3041 5.46933 19.1814 5.32C19.0641 5.17067 18.9467 5.02667 18.8294 4.888C18.7121 4.74933 18.5974 4.616 18.4854 4.488C18.3787 4.35467 18.2721 4.216 18.1654 4.072C18.1387 4.04 18.1254 4.00267 18.1254 3.96C18.1307 3.91733 18.1467 3.88 18.1734 3.848C18.3814 3.58133 18.5974 3.32533 18.8214 3.08C19.0454 2.82933 19.2641 2.54667 19.4774 2.232C19.5254 2.16267 19.5654 2.08533 19.5974 2C19.6294 1.91467 19.6427 1.82667 19.6374 1.736C19.6321 1.64 19.6001 1.54667 19.5414 1.456C19.4827 1.36 19.3867 1.26667 19.2534 1.176C19.1254 1.08533 19.0054 1.032 18.8934 1.016C18.7814 1 18.6801 1.008 18.5894 1.04C18.4987 1.06667 18.4161 1.112 18.3414 1.176C18.2721 1.24 18.2134 1.30667 18.1654 1.376C17.9894 1.632 17.8401 1.872 17.7174 2.096C17.6001 2.32 17.4801 2.53867 17.3574 2.752C17.3361 2.78933 17.3121 2.808 17.2854 2.808C17.2587 2.808 17.2347 2.78933 17.2134 2.752C17.0907 2.53867 16.9681 2.32 16.8454 2.096C16.7281 1.872 16.5814 1.632 16.4054 1.376C16.3574 1.30667 16.2961 1.24 16.2214 1.176C16.1521 1.112 16.0721 1.06667 15.9814 1.04C15.8907 1.008 15.7894 1 15.6774 1.016C15.5654 1.032 15.4454 1.08533 15.3174 1.176C15.1841 1.26667 15.0881 1.36 15.0294 1.456C14.9707 1.54667 14.9387 1.64 14.9334 1.736C14.9281 1.82667 14.9414 1.91467 14.9734 2C15.0054 2.08533 15.0454 2.16267 15.0934 2.232C15.2907 2.52 15.4934 2.78133 15.7014 3.016C15.9147 3.25067 16.1174 3.488 16.3094 3.728C16.3734 3.80267 16.3787 3.88 16.3254 3.96C16.2294 4.11467 16.1281 4.264 16.0214 4.408C15.9147 4.54667 15.8054 4.69067 15.6934 4.84C15.5814 4.984 15.4667 5.136 15.3494 5.296C15.2374 5.456 15.1227 5.632 15.0054 5.824C14.9574 5.89333 14.9174 5.97067 14.8854 6.056C14.8587 6.136 14.8507 6.22133 14.8614 6.312C14.8721 6.40267 14.9094 6.496 14.9734 6.592C15.0374 6.68267 15.1414 6.77333 15.2854 6.864C15.4134 6.944 15.5334 6.98933 15.6454 7C15.7574 7.00533 15.8587 6.98933 15.9494 6.952C16.0401 6.91467 16.1201 6.864 16.1894 6.8C16.2641 6.73067 16.3227 6.66133 16.3654 6.592C16.5307 6.32533 16.6721 6.06667 16.7894 5.816Z" fill="black"/>
</svg>
