<svg width="17" height="7" viewBox="0 0 17 7" fill="none" xmlns="http://www.w3.org/2000/svg">
<path fill-rule="evenodd" clip-rule="evenodd" d="M17 0H0V7H17V0ZM4.07419 5.87C4.19119 5.779 4.27135 5.65983 4.31469 5.5125L5.04269 2.984C5.05135 2.94933 5.06002 2.932 5.06869 2.932C5.07735 2.92767 5.08169 2.945 5.08169 2.984C5.08602 3.049 5.08819 3.1205 5.08819 3.1985V3.3675V3.5625C5.08819 3.70117 5.07735 3.8485 5.05569 4.0045C5.03835 4.15617 5.01669 4.31217 4.99069 4.4725C4.96469 4.63283 4.94085 4.7975 4.91919 4.9665C4.90185 5.13117 4.89319 5.298 4.89319 5.467C4.89319 5.52767 4.90402 5.5905 4.92569 5.6555C4.94735 5.71617 4.98419 5.7725 5.03619 5.8245C5.08819 5.8765 5.15752 5.91983 5.24419 5.9545C5.33519 5.98483 5.44569 6 5.57569 6C5.71002 6 5.81619 5.98267 5.89419 5.948C5.97652 5.91333 6.03935 5.87 6.08269 5.818C6.12602 5.76167 6.15419 5.70317 6.16719 5.6425C6.18452 5.5775 6.19319 5.51467 6.19319 5.454C6.19319 5.30233 6.18669 5.155 6.17369 5.012C6.16069 4.869 6.14552 4.72817 6.12819 4.5895C6.11085 4.4465 6.09569 4.30783 6.08269 4.1735C6.06969 4.03483 6.06319 3.89617 6.06319 3.7575V3.3675C6.06319 3.22883 6.06969 3.09883 6.08269 2.9775C6.09569 2.85183 6.11085 2.72833 6.12819 2.607C6.14552 2.48133 6.16069 2.3535 6.17369 2.2235C6.18669 2.0935 6.19319 1.95267 6.19319 1.801C6.19319 1.61467 6.12385 1.4565 5.98519 1.3265C5.85085 1.1965 5.64935 1.12933 5.38069 1.125H5.16619C4.96685 1.125 4.79135 1.1835 4.63969 1.3005C4.49235 1.4175 4.39485 1.5735 4.34719 1.7685L3.74269 4.297C3.72102 4.38367 3.69719 4.427 3.67119 4.427C3.64519 4.427 3.62135 4.38367 3.59969 4.297L2.98869 1.7685C2.94102 1.5735 2.84135 1.4175 2.68969 1.3005C2.54235 1.1835 2.36902 1.125 2.16969 1.125H1.95519C1.68652 1.12933 1.47202 1.1965 1.31169 1.3265C1.15569 1.4565 1.07769 1.61467 1.07769 1.801C1.07769 1.95267 1.08419 2.0935 1.09719 2.2235C1.11019 2.3535 1.12535 2.48133 1.14269 2.607C1.16002 2.72833 1.17519 2.85183 1.18819 2.9775C1.20119 3.09883 1.20769 3.22883 1.20769 3.3675V3.7575C1.20769 3.89617 1.20119 4.03483 1.18819 4.1735C1.17519 4.30783 1.16002 4.4465 1.14269 4.5895C1.12535 4.72817 1.11019 4.869 1.09719 5.012C1.08419 5.155 1.07769 5.30233 1.07769 5.454C1.07769 5.51467 1.08635 5.5775 1.10369 5.6425C1.12102 5.70317 1.15352 5.76167 1.20119 5.818C1.24885 5.87 1.31385 5.91333 1.39619 5.948C1.48285 5.98267 1.59335 6 1.72769 6C1.85769 6 1.96819 5.98483 2.05919 5.9545C2.15019 5.91983 2.22385 5.8765 2.28019 5.8245C2.33652 5.7725 2.37769 5.71617 2.40369 5.6555C2.42969 5.5905 2.44269 5.52767 2.44269 5.467C2.44269 5.298 2.43185 5.13117 2.41019 4.9665C2.39285 4.7975 2.37119 4.63283 2.34519 4.4725C2.31919 4.31217 2.29535 4.15617 2.27369 4.0045C2.25635 3.8485 2.24769 3.70117 2.24769 3.5625V3.3675V3.1985C2.24769 3.1205 2.24985 3.049 2.25419 2.984C2.25419 2.945 2.25852 2.92767 2.26719 2.932C2.27585 2.932 2.28452 2.94933 2.29319 2.984L3.02119 5.5125C3.06452 5.65983 3.14469 5.779 3.26169 5.87C3.37869 5.95667 3.51302 6 3.66469 6H3.67119C3.82285 6 3.95719 5.95667 4.07419 5.87ZM8.48713 5.22C8.53046 5.09433 8.56729 4.97517 8.59763 4.8625C8.61929 4.78017 8.67129 4.73467 8.75363 4.726C8.79263 4.72167 8.83379 4.7195 8.87713 4.7195C8.92479 4.71517 8.97679 4.713 9.03313 4.713H9.29313H9.42313C9.46646 4.713 9.50763 4.71517 9.54663 4.7195C9.62896 4.72817 9.68096 4.77367 9.70263 4.856C9.73296 4.96867 9.76763 5.08783 9.80663 5.2135C9.84996 5.33917 9.90629 5.48433 9.97563 5.649C10.0103 5.73567 10.0645 5.81583 10.1381 5.8895C10.2161 5.96317 10.3223 6 10.4566 6C10.5476 6 10.6581 5.974 10.7881 5.922C10.9138 5.87 11.007 5.8115 11.0676 5.7465C11.1326 5.67717 11.176 5.60783 11.1976 5.5385C11.2236 5.46483 11.2323 5.39333 11.2236 5.324C11.215 5.25467 11.1976 5.19183 11.1716 5.1355C10.9116 4.52883 10.6776 3.92217 10.4696 3.3155C10.266 2.70883 10.0558 2.087 9.83913 1.45C9.80446 1.35033 9.72646 1.268 9.60513 1.203C9.48379 1.138 9.33213 1.1055 9.15013 1.1055C8.96813 1.1055 8.81646 1.138 8.69513 1.203C8.57379 1.268 8.49579 1.35033 8.46113 1.45C8.24879 2.087 8.03863 2.70883 7.83063 3.3155C7.62263 3.92217 7.38863 4.52883 7.12863 5.1355C7.10263 5.19183 7.08529 5.25467 7.07663 5.324C7.06796 5.39333 7.07446 5.46483 7.09613 5.5385C7.12213 5.60783 7.16763 5.67717 7.23263 5.7465C7.29763 5.8115 7.39079 5.87 7.51213 5.922C7.64213 5.974 7.75263 6 7.84363 6C7.97796 6 8.08196 5.96317 8.15563 5.8895C8.23363 5.81583 8.28996 5.73567 8.32463 5.649C8.39396 5.48433 8.44813 5.34133 8.48713 5.22ZM9.05263 2.789C9.07429 2.698 9.09379 2.62217 9.11113 2.5615C9.11979 2.52683 9.13279 2.5095 9.15013 2.5095C9.16746 2.5095 9.18046 2.52683 9.18913 2.5615C9.20646 2.62217 9.22596 2.70017 9.24763 2.7955C9.26929 2.8865 9.29096 2.984 9.31263 3.088C9.33429 3.192 9.35596 3.29817 9.37763 3.4065C9.39929 3.51483 9.41879 3.61883 9.43613 3.7185C9.44913 3.80083 9.41663 3.842 9.33863 3.842H9.29313H9.03313H8.96163C8.88363 3.842 8.85113 3.79867 8.86413 3.712C8.88579 3.61233 8.90529 3.50833 8.92263 3.4C8.94429 3.29167 8.96596 3.1855 8.98763 3.0815C9.00929 2.9775 9.03096 2.88 9.05263 2.789ZM13.6101 5.038C13.7098 4.83 13.8095 4.62417 13.9091 4.4205C13.9265 4.39017 13.9438 4.375 13.9611 4.375C13.9828 4.37067 14.0023 4.38367 14.0196 4.414C14.1453 4.622 14.2666 4.83433 14.3836 5.051C14.5006 5.26767 14.635 5.49083 14.7866 5.7205C14.8256 5.77683 14.8733 5.831 14.9296 5.883C14.986 5.93067 15.051 5.9675 15.1246 5.9935C15.2026 6.01517 15.2871 6.0195 15.3781 6.0065C15.4691 5.99783 15.5688 5.961 15.6771 5.896C15.7855 5.82667 15.8635 5.75517 15.9111 5.6815C15.9588 5.6035 15.9848 5.52767 15.9891 5.454C15.9935 5.376 15.9805 5.30233 15.9501 5.233C15.9241 5.15933 15.8916 5.09433 15.8526 5.038C15.753 4.89067 15.6533 4.75633 15.5536 4.635C15.4583 4.51367 15.363 4.39667 15.2676 4.284C15.1723 4.17133 15.0791 4.063 14.9881 3.959C14.9015 3.85067 14.8148 3.738 14.7281 3.621C14.7065 3.595 14.6956 3.56467 14.6956 3.53C14.7 3.49533 14.713 3.465 14.7346 3.439C14.9036 3.22233 15.0791 3.01433 15.2611 2.815C15.4431 2.61133 15.6208 2.38167 15.7941 2.126C15.8331 2.06967 15.8656 2.00683 15.8916 1.9375C15.9176 1.86817 15.9285 1.79667 15.9241 1.723C15.9198 1.645 15.8938 1.56917 15.8461 1.4955C15.7985 1.4175 15.7205 1.34167 15.6121 1.268C15.5081 1.19433 15.4106 1.151 15.3196 1.138C15.2286 1.125 15.1463 1.1315 15.0726 1.1575C14.999 1.17917 14.9318 1.216 14.8711 1.268C14.8148 1.32 14.7671 1.37417 14.7281 1.4305C14.5851 1.6385 14.4638 1.8335 14.3641 2.0155C14.2688 2.1975 14.1713 2.37517 14.0716 2.5485C14.0543 2.57883 14.0348 2.594 14.0131 2.594C13.9915 2.594 13.972 2.57883 13.9546 2.5485C13.855 2.37517 13.7553 2.1975 13.6556 2.0155C13.5603 1.8335 13.4411 1.6385 13.2981 1.4305C13.2591 1.37417 13.2093 1.32 13.1486 1.268C13.0923 1.216 13.0273 1.17917 12.9536 1.1575C12.88 1.1315 12.7976 1.125 12.7066 1.138C12.6156 1.151 12.5181 1.19433 12.4141 1.268C12.3058 1.34167 12.2278 1.4175 12.1801 1.4955C12.1325 1.56917 12.1065 1.645 12.1021 1.723C12.0978 1.79667 12.1086 1.86817 12.1346 1.9375C12.1606 2.00683 12.1931 2.06967 12.2321 2.126C12.3925 2.36 12.5571 2.57233 12.7261 2.763C12.8995 2.95367 13.0641 3.1465 13.2201 3.3415C13.2721 3.40217 13.2765 3.465 13.2331 3.53C13.1551 3.65567 13.0728 3.777 12.9861 3.894C12.8995 4.00667 12.8106 4.12367 12.7196 4.245C12.6286 4.362 12.5355 4.4855 12.4401 4.6155C12.3491 4.7455 12.256 4.8885 12.1606 5.0445C12.1216 5.10083 12.0891 5.16367 12.0631 5.233C12.0415 5.298 12.035 5.36733 12.0436 5.441C12.0523 5.51467 12.0826 5.5905 12.1346 5.6685C12.1866 5.74217 12.2711 5.81583 12.3881 5.8895C12.4921 5.9545 12.5896 5.99133 12.6806 6C12.7716 6.00433 12.854 5.99133 12.9276 5.961C13.0013 5.93067 13.0663 5.8895 13.1226 5.8375C13.1833 5.78117 13.231 5.72483 13.2656 5.6685C13.4 5.45183 13.5148 5.24167 13.6101 5.038Z" fill="black"/>
</svg>
