<svg width="19" height="8" viewBox="0 0 19 8" fill="none" xmlns="http://www.w3.org/2000/svg">
<path d="M4.184 6.4C4.13067 6.58133 4.032 6.728 3.888 6.84C3.744 6.94667 3.57867 7 3.392 7H3.384C3.19733 7 3.032 6.94667 2.888 6.84C2.744 6.728 2.64533 6.58133 2.592 6.4L1.696 3.288C1.68533 3.24533 1.67467 3.224 1.664 3.224C1.65333 3.21867 1.648 3.24 1.648 3.288C1.64267 3.368 1.64 3.456 1.64 3.552C1.64 3.64267 1.64 3.712 1.64 3.76V4C1.64 4.17067 1.65067 4.352 1.672 4.544C1.69867 4.73067 1.728 4.92267 1.76 5.12C1.792 5.31733 1.81867 5.52 1.84 5.728C1.86667 5.93067 1.88 6.136 1.88 6.344C1.88 6.41867 1.864 6.496 1.832 6.576C1.8 6.65067 1.74933 6.72 1.68 6.784C1.61067 6.848 1.52 6.90133 1.408 6.944C1.296 6.98133 1.16 7 1 7C0.834667 7 0.698667 6.97867 0.592 6.936C0.490667 6.89333 0.410667 6.84 0.352 6.776C0.293333 6.70667 0.253333 6.63467 0.232 6.56C0.210667 6.48 0.2 6.40267 0.2 6.328C0.2 6.14133 0.208 5.96 0.224 5.784C0.24 5.608 0.258667 5.43467 0.28 5.264C0.301333 5.088 0.32 4.91733 0.336 4.752C0.352 4.58133 0.36 4.41067 0.36 4.24V3.76C0.36 3.58933 0.352 3.42933 0.336 3.28C0.32 3.12533 0.301333 2.97333 0.28 2.824C0.258667 2.66933 0.24 2.512 0.224 2.352C0.208 2.192 0.2 2.01867 0.2 1.832C0.2 1.60267 0.296 1.408 0.488 1.248C0.685333 1.088 0.949333 1.00533 1.28 1H1.544C1.78933 1 2.00267 1.072 2.184 1.216C2.37067 1.36 2.49333 1.552 2.552 1.792L3.304 4.904C3.33067 5.01067 3.36 5.064 3.392 5.064C3.424 5.064 3.45333 5.01067 3.48 4.904L4.224 1.792C4.28267 1.552 4.40267 1.36 4.584 1.216C4.77067 1.072 4.98667 1 5.232 1H5.496C5.82667 1.00533 6.07467 1.088 6.24 1.248C6.41067 1.408 6.496 1.60267 6.496 1.832C6.496 2.01867 6.488 2.192 6.472 2.352C6.456 2.512 6.43733 2.66933 6.416 2.824C6.39467 2.97333 6.376 3.12533 6.36 3.28C6.344 3.42933 6.336 3.58933 6.336 3.76V4.24C6.336 4.41067 6.344 4.58133 6.36 4.752C6.376 4.91733 6.39467 5.088 6.416 5.264C6.43733 5.43467 6.456 5.608 6.472 5.784C6.488 5.96 6.496 6.14133 6.496 6.328C6.496 6.40267 6.48533 6.48 6.464 6.56C6.448 6.63467 6.41333 6.70667 6.36 6.776C6.30667 6.84 6.22933 6.89333 6.128 6.936C6.032 6.97867 5.90133 7 5.736 7C5.576 7 5.44 6.98133 5.328 6.944C5.22133 6.90133 5.136 6.848 5.072 6.784C5.008 6.72 4.96267 6.65067 4.936 6.576C4.90933 6.496 4.896 6.41867 4.896 6.344C4.896 6.136 4.90667 5.93067 4.928 5.728C4.95467 5.52 4.984 5.31733 5.016 5.12C5.048 4.92267 5.07467 4.73067 5.096 4.544C5.12267 4.352 5.136 4.17067 5.136 4V3.76C5.136 3.712 5.136 3.64267 5.136 3.552C5.136 3.456 5.13333 3.368 5.128 3.288C5.128 3.24 5.12267 3.21867 5.112 3.224C5.10133 3.224 5.09067 3.24533 5.08 3.288L4.184 6.4ZM9.45531 5.6C9.41798 5.73867 9.37265 5.88533 9.31931 6.04C9.27131 6.18933 9.20465 6.36533 9.11931 6.568C9.07665 6.67467 9.00731 6.77333 8.91131 6.864C8.82065 6.95467 8.69265 7 8.52731 7C8.41531 7 8.27931 6.968 8.11931 6.904C7.96998 6.84 7.85531 6.768 7.77531 6.688C7.69531 6.60267 7.63931 6.51733 7.60731 6.432C7.58065 6.34133 7.57265 6.25333 7.58331 6.168C7.59398 6.08267 7.61531 6.00533 7.64731 5.936C7.96731 5.18933 8.25531 4.44267 8.51131 3.696C8.76731 2.94933 9.02598 2.184 9.28731 1.4C9.32998 1.27733 9.42598 1.176 9.57531 1.096C9.72465 1.016 9.91131 0.976 10.1353 0.976C10.3593 0.976 10.546 1.016 10.6953 1.096C10.8446 1.176 10.9406 1.27733 10.9833 1.4C11.25 2.184 11.5086 2.94933 11.7593 3.696C12.0153 4.44267 12.3033 5.18933 12.6233 5.936C12.6553 6.00533 12.6766 6.08267 12.6873 6.168C12.698 6.25333 12.6873 6.34133 12.6553 6.432C12.6286 6.51733 12.5753 6.60267 12.4953 6.688C12.4206 6.768 12.306 6.84 12.1513 6.904C11.9913 6.968 11.8553 7 11.7433 7C11.578 7 11.4473 6.95467 11.3513 6.864C11.2606 6.77333 11.194 6.67467 11.1513 6.568C11.066 6.36533 10.9966 6.18667 10.9433 6.032C10.8953 5.87733 10.8526 5.73067 10.8153 5.592C10.7886 5.49067 10.7246 5.43467 10.6233 5.424C10.5753 5.41867 10.5246 5.416 10.4713 5.416C10.4233 5.416 10.37 5.416 10.3113 5.416H9.99131C9.92198 5.416 9.85798 5.41867 9.79931 5.424C9.74598 5.424 9.69531 5.42667 9.64731 5.432C9.54598 5.44267 9.48198 5.49867 9.45531 5.6ZM10.0873 2.768C10.066 2.84267 10.042 2.936 10.0153 3.048C9.98865 3.16 9.96198 3.28 9.93531 3.408C9.90865 3.536 9.88198 3.66667 9.85531 3.8C9.83398 3.93333 9.80998 4.06133 9.78331 4.184C9.76731 4.29067 9.80731 4.344 9.90331 4.344H9.99131H10.3113H10.3673C10.4633 4.344 10.5033 4.29333 10.4873 4.192C10.466 4.06933 10.442 3.94133 10.4153 3.808C10.3886 3.67467 10.362 3.544 10.3353 3.416C10.3086 3.288 10.282 3.168 10.2553 3.056C10.2286 2.93867 10.2046 2.84267 10.1833 2.768C10.1726 2.72533 10.1566 2.704 10.1353 2.704C10.114 2.704 10.098 2.72533 10.0873 2.768ZM15.9926 5.056C15.8699 5.30667 15.7472 5.56 15.6246 5.816C15.5072 6.06667 15.3659 6.32533 15.2006 6.592C15.1579 6.66133 15.0992 6.73067 15.0246 6.8C14.9552 6.864 14.8752 6.91467 14.7846 6.952C14.6939 6.98933 14.5926 7.00533 14.4806 7C14.3686 6.98933 14.2486 6.944 14.1206 6.864C13.9766 6.77333 13.8726 6.68267 13.8086 6.592C13.7446 6.496 13.7072 6.40267 13.6966 6.312C13.6859 6.22133 13.6939 6.136 13.7206 6.056C13.7526 5.97067 13.7926 5.89333 13.8406 5.824C13.9579 5.632 14.0726 5.456 14.1846 5.296C14.3019 5.136 14.4166 4.984 14.5286 4.84C14.6406 4.69067 14.7499 4.54667 14.8566 4.408C14.9632 4.264 15.0646 4.11467 15.1606 3.96C15.2139 3.88 15.2086 3.80267 15.1446 3.728C14.9526 3.488 14.7499 3.25067 14.5366 3.016C14.3286 2.78133 14.1259 2.52 13.9286 2.232C13.8806 2.16267 13.8406 2.08533 13.8086 2C13.7766 1.91467 13.7632 1.82667 13.7686 1.736C13.7739 1.64 13.8059 1.54667 13.8646 1.456C13.9232 1.36 14.0192 1.26667 14.1526 1.176C14.2806 1.08533 14.4006 1.032 14.5126 1.016C14.6246 1 14.7259 1.008 14.8166 1.04C14.9072 1.06667 14.9872 1.112 15.0566 1.176C15.1312 1.24 15.1926 1.30667 15.2406 1.376C15.4166 1.632 15.5632 1.872 15.6806 2.096C15.8032 2.32 15.9259 2.53867 16.0486 2.752C16.0699 2.78933 16.0939 2.808 16.1206 2.808C16.1472 2.808 16.1712 2.78933 16.1926 2.752C16.3152 2.53867 16.4352 2.32 16.5526 2.096C16.6752 1.872 16.8246 1.632 17.0006 1.376C17.0486 1.30667 17.1072 1.24 17.1766 1.176C17.2512 1.112 17.3339 1.06667 17.4246 1.04C17.5152 1.008 17.6166 1 17.7286 1.016C17.8406 1.032 17.9606 1.08533 18.0886 1.176C18.2219 1.26667 18.3179 1.36 18.3766 1.456C18.4352 1.54667 18.4672 1.64 18.4726 1.736C18.4779 1.82667 18.4646 1.91467 18.4326 2C18.4006 2.08533 18.3606 2.16267 18.3126 2.232C18.0992 2.54667 17.8806 2.82933 17.6566 3.08C17.4326 3.32533 17.2166 3.58133 17.0086 3.848C16.9819 3.88 16.9659 3.91733 16.9606 3.96C16.9606 4.00267 16.9739 4.04 17.0006 4.072C17.1072 4.216 17.2139 4.35467 17.3206 4.488C17.4326 4.616 17.5472 4.74933 17.6646 4.888C17.7819 5.02667 17.8992 5.17067 18.0166 5.32C18.1392 5.46933 18.2619 5.63467 18.3846 5.816C18.4326 5.88533 18.4726 5.96533 18.5046 6.056C18.5419 6.14133 18.5579 6.232 18.5526 6.328C18.5472 6.41867 18.5152 6.512 18.4566 6.608C18.3979 6.69867 18.3019 6.78667 18.1686 6.872C18.0352 6.952 17.9126 6.99733 17.8006 7.008C17.6886 7.024 17.5846 7.01867 17.4886 6.992C17.3979 6.96 17.3179 6.91467 17.2486 6.856C17.1792 6.792 17.1206 6.72533 17.0726 6.656C16.8859 6.37333 16.7206 6.09867 16.5766 5.832C16.4326 5.56533 16.2832 5.304 16.1286 5.048C16.1072 5.01067 16.0832 4.99467 16.0566 5C16.0352 5 16.0139 5.01867 15.9926 5.056Z" fill="black"/>
</svg>
