<svg width="13" height="5" viewBox="0 0 13 5" fill="none" xmlns="http://www.w3.org/2000/svg">
<path d="M3.3995 4.5125C3.35617 4.65983 3.276 4.779 3.159 4.87C3.042 4.95667 2.90767 5 2.756 5H2.7495C2.59783 5 2.4635 4.95667 2.3465 4.87C2.2295 4.779 2.14933 4.65983 2.106 4.5125L1.378 1.984C1.36933 1.94933 1.36067 1.932 1.352 1.932C1.34333 1.92767 1.339 1.945 1.339 1.984C1.33467 2.049 1.3325 2.1205 1.3325 2.1985C1.3325 2.27217 1.3325 2.3285 1.3325 2.3675V2.5625C1.3325 2.70117 1.34117 2.8485 1.3585 3.0045C1.38017 3.15617 1.404 3.31217 1.43 3.4725C1.456 3.63283 1.47767 3.7975 1.495 3.9665C1.51667 4.13117 1.5275 4.298 1.5275 4.467C1.5275 4.52767 1.5145 4.5905 1.4885 4.6555C1.4625 4.71617 1.42133 4.7725 1.365 4.8245C1.30867 4.8765 1.235 4.91983 1.144 4.9545C1.053 4.98483 0.9425 5 0.8125 5C0.678167 5 0.567667 4.98267 0.481 4.948C0.398667 4.91333 0.333667 4.87 0.286 4.818C0.238333 4.76167 0.205833 4.70317 0.1885 4.6425C0.171167 4.5775 0.1625 4.51467 0.1625 4.454C0.1625 4.30233 0.169 4.155 0.182 4.012C0.195 3.869 0.210167 3.72817 0.2275 3.5895C0.244833 3.4465 0.26 3.30783 0.273 3.1735C0.286 3.03483 0.2925 2.89617 0.2925 2.7575V2.3675C0.2925 2.22883 0.286 2.09883 0.273 1.9775C0.26 1.85183 0.244833 1.72833 0.2275 1.607C0.210167 1.48133 0.195 1.3535 0.182 1.2235C0.169 1.0935 0.1625 0.952667 0.1625 0.801C0.1625 0.614667 0.2405 0.4565 0.3965 0.3265C0.556833 0.1965 0.771333 0.129333 1.04 0.125H1.2545C1.45383 0.125 1.62717 0.1835 1.7745 0.3005C1.92617 0.4175 2.02583 0.5735 2.0735 0.7685L2.6845 3.297C2.70617 3.38367 2.73 3.427 2.756 3.427C2.782 3.427 2.80583 3.38367 2.8275 3.297L3.432 0.7685C3.47967 0.5735 3.57717 0.4175 3.7245 0.3005C3.87617 0.1835 4.05167 0.125 4.251 0.125H4.4655C4.73417 0.129333 4.93567 0.1965 5.07 0.3265C5.20867 0.4565 5.278 0.614667 5.278 0.801C5.278 0.952667 5.2715 1.0935 5.2585 1.2235C5.2455 1.3535 5.23033 1.48133 5.213 1.607C5.19567 1.72833 5.1805 1.85183 5.1675 1.9775C5.1545 2.09883 5.148 2.22883 5.148 2.3675V2.7575C5.148 2.89617 5.1545 3.03483 5.1675 3.1735C5.1805 3.30783 5.19567 3.4465 5.213 3.5895C5.23033 3.72817 5.2455 3.869 5.2585 4.012C5.2715 4.155 5.278 4.30233 5.278 4.454C5.278 4.51467 5.26933 4.5775 5.252 4.6425C5.239 4.70317 5.21083 4.76167 5.1675 4.818C5.12417 4.87 5.06133 4.91333 4.979 4.948C4.901 4.98267 4.79483 5 4.6605 5C4.5305 5 4.42 4.98483 4.329 4.9545C4.24233 4.91983 4.173 4.8765 4.121 4.8245C4.069 4.7725 4.03217 4.71617 4.0105 4.6555C3.98883 4.5905 3.978 4.52767 3.978 4.467C3.978 4.298 3.98667 4.13117 4.004 3.9665C4.02567 3.7975 4.0495 3.63283 4.0755 3.4725C4.1015 3.31217 4.12317 3.15617 4.1405 3.0045C4.16217 2.8485 4.173 2.70117 4.173 2.5625V2.3675C4.173 2.3285 4.173 2.27217 4.173 2.1985C4.173 2.1205 4.17083 2.049 4.1665 1.984C4.1665 1.945 4.16217 1.92767 4.1535 1.932C4.14483 1.932 4.13617 1.94933 4.1275 1.984L3.3995 4.5125ZM6.38244 2.3675C6.38244 2.22883 6.37594 2.09233 6.36294 1.958C6.34994 1.81933 6.33477 1.68067 6.31744 1.542C6.30011 1.399 6.28494 1.256 6.27194 1.113C6.25894 0.97 6.25244 0.822666 6.25244 0.671C6.25244 0.571333 6.26977 0.486833 6.30444 0.4175C6.33911 0.348167 6.38677 0.291833 6.44744 0.2485C6.50811 0.205166 6.57961 0.174833 6.66194 0.1575C6.74427 0.135833 6.83094 0.125 6.92194 0.125C7.04761 0.125 7.15161 0.142333 7.23394 0.177C7.31627 0.207333 7.38127 0.2485 7.42894 0.3005C7.47661 0.3525 7.50911 0.411 7.52644 0.476C7.54377 0.536666 7.55244 0.597333 7.55244 0.658C7.55244 0.827 7.54594 0.985167 7.53294 1.1325C7.51994 1.27983 7.50477 1.42283 7.48744 1.5615C7.47011 1.69583 7.45494 1.83017 7.44194 1.9645C7.42894 2.0945 7.42244 2.22883 7.42244 2.3675V2.7575C7.42244 2.89617 7.42894 3.03267 7.44194 3.167C7.45494 3.297 7.47011 3.43133 7.48744 3.57C7.50477 3.70433 7.51994 3.84517 7.53294 3.9925C7.54594 4.13983 7.55244 4.298 7.55244 4.467C7.55244 4.52767 7.54377 4.5905 7.52644 4.6555C7.50911 4.71617 7.47661 4.7725 7.42894 4.8245C7.38127 4.8765 7.31627 4.91983 7.23394 4.9545C7.15161 4.98483 7.04761 5 6.92194 5C6.73561 5 6.57744 4.95883 6.44744 4.8765C6.31744 4.79417 6.25244 4.65333 6.25244 4.454C6.25244 4.30233 6.25894 4.155 6.27194 4.012C6.28494 3.869 6.30011 3.72817 6.31744 3.5895C6.33477 3.4465 6.34994 3.30783 6.36294 3.1735C6.37594 3.03483 6.38244 2.89617 6.38244 2.7575V2.3675ZM10.8739 4.7595C10.8436 4.71617 10.8263 4.675 10.8219 4.636L9.69094 2.27C9.67361 2.23533 9.65844 2.22017 9.64544 2.2245C9.63677 2.2245 9.63244 2.244 9.63244 2.283V2.3675V2.5625C9.63244 2.70117 9.64111 2.8485 9.65844 3.0045C9.68011 3.15617 9.70394 3.31217 9.72994 3.4725C9.75594 3.63283 9.77761 3.7975 9.79494 3.9665C9.81661 4.13117 9.82744 4.298 9.82744 4.467C9.82744 4.52767 9.81661 4.5905 9.79494 4.6555C9.77327 4.71617 9.73644 4.7725 9.68444 4.8245C9.63244 4.8765 9.56094 4.91983 9.46994 4.9545C9.38327 4.98483 9.27494 5 9.14494 5C9.01061 5 8.90227 4.98267 8.81994 4.948C8.74194 4.91333 8.68127 4.87 8.63794 4.818C8.59461 4.76167 8.56427 4.70317 8.54694 4.6425C8.53394 4.5775 8.52744 4.51467 8.52744 4.454C8.52744 4.30233 8.53394 4.155 8.54694 4.012C8.55994 3.869 8.57511 3.72817 8.59244 3.5895C8.60977 3.4465 8.62494 3.30783 8.63794 3.1735C8.65094 3.03483 8.65744 2.89617 8.65744 2.7575V2.3675C8.65744 2.22883 8.65094 2.09233 8.63794 1.958C8.62494 1.81933 8.60977 1.68067 8.59244 1.542C8.57511 1.399 8.55994 1.256 8.54694 1.113C8.53394 0.97 8.52744 0.822666 8.52744 0.671C8.52744 0.610333 8.53394 0.549667 8.54694 0.489C8.56427 0.424 8.59461 0.3655 8.63794 0.3135C8.68127 0.257167 8.74194 0.211666 8.81994 0.177C8.90227 0.142333 9.01061 0.125 9.14494 0.125H9.41794C9.50461 0.125 9.58478 0.148833 9.65844 0.1965C9.73211 0.239833 9.78627 0.298333 9.82094 0.372L10.8739 2.517C10.8913 2.55167 10.9043 2.569 10.9129 2.569C10.9259 2.56467 10.9324 2.543 10.9324 2.504V2.3675C10.9324 2.22883 10.9216 2.09233 10.8999 1.958C10.8826 1.81933 10.8609 1.68067 10.8349 1.542C10.8089 1.399 10.7851 1.256 10.7634 1.113C10.7461 0.97 10.7374 0.822666 10.7374 0.671C10.7374 0.610333 10.7483 0.549667 10.7699 0.489C10.7916 0.424 10.8284 0.3655 10.8804 0.3135C10.9324 0.257167 11.0018 0.211666 11.0884 0.177C11.1751 0.142333 11.2856 0.125 11.4199 0.125C11.5499 0.125 11.6561 0.142333 11.7384 0.177C11.8208 0.207333 11.8836 0.2485 11.9269 0.3005C11.9703 0.3525 11.9984 0.411 12.0114 0.476C12.0288 0.536666 12.0374 0.597333 12.0374 0.658C12.0374 0.827 12.0309 0.985167 12.0179 1.1325C12.0049 1.27983 11.9898 1.42283 11.9724 1.5615C11.9551 1.69583 11.9399 1.83017 11.9269 1.9645C11.9139 2.0945 11.9074 2.22883 11.9074 2.3675V2.7575C11.9074 2.89617 11.9139 3.03267 11.9269 3.167C11.9399 3.297 11.9551 3.43133 11.9724 3.57C11.9898 3.70433 12.0049 3.84517 12.0179 3.9925C12.0309 4.13983 12.0374 4.298 12.0374 4.467C12.0374 4.52333 12.0309 4.58183 12.0179 4.6425C12.0049 4.70317 11.9768 4.7595 11.9334 4.8115C11.8944 4.8635 11.8381 4.90683 11.7644 4.9415C11.6951 4.97617 11.6019 4.99567 11.4849 5H11.2639C11.1903 5 11.1188 4.97833 11.0494 4.935C10.9801 4.89167 10.9216 4.83317 10.8739 4.7595Z" fill="black"/>
</svg>
