<svg width="14" height="7" viewBox="0 0 14 7" fill="none" xmlns="http://www.w3.org/2000/svg">
<path fill-rule="evenodd" clip-rule="evenodd" d="M14 0H0V7H14V0ZM4.05954 5.87C4.17654 5.779 4.2567 5.65983 4.30004 5.5125L5.02804 2.984C5.0367 2.94933 5.04537 2.932 5.05404 2.932C5.0627 2.92767 5.06704 2.945 5.06704 2.984C5.07137 3.049 5.07354 3.1205 5.07354 3.1985V3.3675V3.5625C5.07354 3.70117 5.0627 3.8485 5.04104 4.0045C5.0237 4.15617 5.00204 4.31217 4.97604 4.4725C4.95004 4.63283 4.9262 4.7975 4.90454 4.9665C4.8872 5.13117 4.87854 5.298 4.87854 5.467C4.87854 5.52767 4.88937 5.5905 4.91104 5.6555C4.9327 5.71617 4.96954 5.7725 5.02154 5.8245C5.07354 5.8765 5.14287 5.91983 5.22954 5.9545C5.32054 5.98483 5.43104 6 5.56104 6C5.69537 6 5.80154 5.98267 5.87954 5.948C5.96187 5.91333 6.0247 5.87 6.06804 5.818C6.11137 5.76167 6.13954 5.70317 6.15254 5.6425C6.16987 5.5775 6.17854 5.51467 6.17854 5.454C6.17854 5.30233 6.17204 5.155 6.15904 5.012C6.14604 4.869 6.13087 4.72817 6.11354 4.5895C6.0962 4.4465 6.08104 4.30783 6.06804 4.1735C6.05504 4.03483 6.04854 3.89617 6.04854 3.7575V3.3675C6.04854 3.22883 6.05504 3.09883 6.06804 2.9775C6.08104 2.85183 6.0962 2.72833 6.11354 2.607C6.13087 2.48133 6.14604 2.3535 6.15904 2.2235C6.17204 2.0935 6.17854 1.95267 6.17854 1.801C6.17854 1.61467 6.1092 1.4565 5.97054 1.3265C5.8362 1.1965 5.6347 1.12933 5.36604 1.125H5.15154C4.9522 1.125 4.7767 1.1835 4.62504 1.3005C4.4777 1.4175 4.3802 1.5735 4.33254 1.7685L3.72804 4.297C3.70637 4.38367 3.68254 4.427 3.65654 4.427C3.63054 4.427 3.6067 4.38367 3.58504 4.297L2.97404 1.7685C2.92637 1.5735 2.8267 1.4175 2.67504 1.3005C2.5277 1.1835 2.35437 1.125 2.15504 1.125H1.94054C1.67187 1.12933 1.45737 1.1965 1.29704 1.3265C1.14104 1.4565 1.06304 1.61467 1.06304 1.801C1.06304 1.95267 1.06954 2.0935 1.08254 2.2235C1.09554 2.3535 1.1107 2.48133 1.12804 2.607C1.14537 2.72833 1.16054 2.85183 1.17354 2.9775C1.18654 3.09883 1.19304 3.22883 1.19304 3.3675V3.7575C1.19304 3.89617 1.18654 4.03483 1.17354 4.1735C1.16054 4.30783 1.14537 4.4465 1.12804 4.5895C1.1107 4.72817 1.09554 4.869 1.08254 5.012C1.06954 5.155 1.06304 5.30233 1.06304 5.454C1.06304 5.51467 1.0717 5.5775 1.08904 5.6425C1.10637 5.70317 1.13887 5.76167 1.18654 5.818C1.2342 5.87 1.2992 5.91333 1.38154 5.948C1.4682 5.98267 1.5787 6 1.71304 6C1.84304 6 1.95354 5.98483 2.04454 5.9545C2.13554 5.91983 2.2092 5.8765 2.26554 5.8245C2.32187 5.7725 2.36304 5.71617 2.38904 5.6555C2.41504 5.5905 2.42804 5.52767 2.42804 5.467C2.42804 5.298 2.4172 5.13117 2.39554 4.9665C2.3782 4.7975 2.35654 4.63283 2.33054 4.4725C2.30454 4.31217 2.2807 4.15617 2.25904 4.0045C2.2417 3.8485 2.23304 3.70117 2.23304 3.5625V3.3675V3.1985C2.23304 3.1205 2.2352 3.049 2.23954 2.984C2.23954 2.945 2.24387 2.92767 2.25254 2.932C2.2612 2.932 2.26987 2.94933 2.27854 2.984L3.00654 5.5125C3.04987 5.65983 3.13004 5.779 3.24704 5.87C3.36404 5.95667 3.49837 6 3.65004 6H3.65654C3.8082 6 3.94254 5.95667 4.05954 5.87ZM7.26348 2.958C7.27648 3.09233 7.28298 3.22883 7.28298 3.3675V3.7575C7.28298 3.89617 7.27648 4.03483 7.26348 4.1735C7.25048 4.30783 7.23531 4.4465 7.21798 4.5895C7.20064 4.72817 7.18548 4.869 7.17248 5.012C7.15948 5.155 7.15298 5.30233 7.15298 5.454C7.15298 5.65333 7.21798 5.79417 7.34798 5.8765C7.47798 5.95883 7.63615 6 7.82248 6C7.94815 6 8.05215 5.98483 8.13448 5.9545C8.21681 5.91983 8.28181 5.8765 8.32948 5.8245C8.37714 5.7725 8.40965 5.71617 8.42698 5.6555C8.44431 5.5905 8.45298 5.52767 8.45298 5.467C8.45298 5.298 8.44648 5.13983 8.43348 4.9925C8.42048 4.84517 8.40531 4.70433 8.38798 4.57C8.37065 4.43133 8.35548 4.297 8.34248 4.167C8.32948 4.03267 8.32298 3.89617 8.32298 3.7575V3.3675C8.32298 3.22883 8.32948 3.0945 8.34248 2.9645C8.35548 2.83017 8.37065 2.69583 8.38798 2.5615C8.40531 2.42283 8.42048 2.27983 8.43348 2.1325C8.44648 1.98517 8.45298 1.827 8.45298 1.658C8.45298 1.59733 8.44431 1.53667 8.42698 1.476C8.40965 1.411 8.37714 1.3525 8.32948 1.3005C8.28181 1.2485 8.21681 1.20733 8.13448 1.177C8.05215 1.14233 7.94815 1.125 7.82248 1.125C7.73148 1.125 7.64481 1.13583 7.56248 1.1575C7.48015 1.17483 7.40865 1.20517 7.34798 1.2485C7.28731 1.29183 7.23965 1.34817 7.20498 1.4175C7.17031 1.48683 7.15298 1.57133 7.15298 1.671C7.15298 1.82267 7.15948 1.97 7.17248 2.113C7.18548 2.256 7.20064 2.399 7.21798 2.542C7.23531 2.68067 7.25048 2.81933 7.26348 2.958ZM11.7225 5.636C11.7268 5.675 11.7441 5.71617 11.7745 5.7595C11.8221 5.83317 11.8806 5.89167 11.95 5.935C12.0193 5.97833 12.0908 6 12.1645 6H12.3855C12.5025 5.99567 12.5956 5.97617 12.665 5.9415C12.7386 5.90683 12.795 5.8635 12.834 5.8115C12.8773 5.7595 12.9055 5.70317 12.9185 5.6425C12.9315 5.58183 12.938 5.52333 12.938 5.467C12.938 5.298 12.9315 5.13983 12.9185 4.9925C12.9055 4.84517 12.8903 4.70433 12.873 4.57C12.8556 4.43133 12.8405 4.297 12.8275 4.167C12.8145 4.03267 12.808 3.89617 12.808 3.7575V3.3675C12.808 3.22883 12.8145 3.0945 12.8275 2.9645C12.8405 2.83017 12.8556 2.69583 12.873 2.5615C12.8903 2.42283 12.9055 2.27983 12.9185 2.1325C12.9315 1.98517 12.938 1.827 12.938 1.658C12.938 1.59733 12.9293 1.53667 12.912 1.476C12.899 1.411 12.8708 1.3525 12.8275 1.3005C12.7841 1.2485 12.7213 1.20733 12.639 1.177C12.5566 1.14233 12.4505 1.125 12.3205 1.125C12.1861 1.125 12.0756 1.14233 11.989 1.177C11.9023 1.21167 11.833 1.25717 11.781 1.3135C11.729 1.3655 11.6921 1.424 11.6705 1.489C11.6488 1.54967 11.638 1.61033 11.638 1.671C11.638 1.82267 11.6466 1.97 11.664 2.113C11.6856 2.256 11.7095 2.399 11.7355 2.542C11.7615 2.68067 11.7831 2.81933 11.8005 2.958C11.8221 3.09233 11.833 3.22883 11.833 3.3675V3.504C11.833 3.543 11.8265 3.56467 11.8135 3.569C11.8048 3.569 11.7918 3.55167 11.7745 3.517L10.7215 1.372C10.6868 1.29833 10.6326 1.23983 10.559 1.1965C10.4853 1.14883 10.4051 1.125 10.3185 1.125H10.0455C9.91115 1.125 9.80281 1.14233 9.72048 1.177C9.64248 1.21167 9.58181 1.25717 9.53848 1.3135C9.49514 1.3655 9.46481 1.424 9.44748 1.489C9.43448 1.54967 9.42798 1.61033 9.42798 1.671C9.42798 1.82267 9.43448 1.97 9.44748 2.113C9.46048 2.256 9.47565 2.399 9.49298 2.542C9.51031 2.68067 9.52548 2.81933 9.53848 2.958C9.55148 3.09233 9.55798 3.22883 9.55798 3.3675V3.7575C9.55798 3.89617 9.55148 4.03483 9.53848 4.1735C9.52548 4.30783 9.51031 4.4465 9.49298 4.5895C9.47565 4.72817 9.46048 4.869 9.44748 5.012C9.43448 5.155 9.42798 5.30233 9.42798 5.454C9.42798 5.51467 9.43448 5.5775 9.44748 5.6425C9.46481 5.70317 9.49514 5.76167 9.53848 5.818C9.58181 5.87 9.64248 5.91333 9.72048 5.948C9.80281 5.98267 9.91115 6 10.0455 6C10.1755 6 10.2838 5.98483 10.3705 5.9545C10.4615 5.91983 10.533 5.8765 10.585 5.8245C10.637 5.7725 10.6738 5.71617 10.6955 5.6555C10.7171 5.5905 10.728 5.52767 10.728 5.467C10.728 5.298 10.7171 5.13117 10.6955 4.9665C10.6781 4.7975 10.6565 4.63283 10.6305 4.4725C10.6045 4.31217 10.5806 4.15617 10.559 4.0045C10.5416 3.8485 10.533 3.70117 10.533 3.5625V3.3675V3.283C10.533 3.244 10.5373 3.2245 10.546 3.2245C10.559 3.22017 10.5741 3.23533 10.5915 3.27L11.7225 5.636Z" fill="black"/>
</svg>
