<svg width="15" height="6" viewBox="0 0 15 6" fill="none" xmlns="http://www.w3.org/2000/svg">
<path d="M4.184 5.4C4.13067 5.58133 4.032 5.728 3.888 5.84C3.744 5.94667 3.57867 6 3.392 6H3.384C3.19733 6 3.032 5.94667 2.888 5.84C2.744 5.728 2.64533 5.58133 2.592 5.4L1.696 2.288C1.68533 2.24533 1.67467 2.224 1.664 2.224C1.65333 2.21867 1.648 2.24 1.648 2.288C1.64267 2.368 1.64 2.456 1.64 2.552C1.64 2.64267 1.64 2.712 1.64 2.76V3C1.64 3.17067 1.65067 3.352 1.672 3.544C1.69867 3.73067 1.728 3.92267 1.76 4.12C1.792 4.31733 1.81867 4.52 1.84 4.728C1.86667 4.93067 1.88 5.136 1.88 5.344C1.88 5.41867 1.864 5.496 1.832 5.576C1.8 5.65067 1.74933 5.72 1.68 5.784C1.61067 5.848 1.52 5.90133 1.408 5.944C1.296 5.98133 1.16 6 1 6C0.834667 6 0.698667 5.97867 0.592 5.936C0.490667 5.89333 0.410667 5.84 0.352 5.776C0.293333 5.70667 0.253333 5.63467 0.232 5.56C0.210667 5.48 0.2 5.40267 0.2 5.328C0.2 5.14133 0.208 4.96 0.224 4.784C0.24 4.608 0.258667 4.43467 0.28 4.264C0.301333 4.088 0.32 3.91733 0.336 3.752C0.352 3.58133 0.36 3.41067 0.36 3.24V2.76C0.36 2.58933 0.352 2.42933 0.336 2.28C0.32 2.12533 0.301333 1.97333 0.28 1.824C0.258667 1.66933 0.24 1.512 0.224 1.352C0.208 1.192 0.2 1.01867 0.2 0.832C0.2 0.602667 0.296 0.408 0.488 0.248C0.685333 0.0879998 0.949333 0.00533311 1.28 -4.76837e-07H1.544C1.78933 -4.76837e-07 2.00267 0.0719995 2.184 0.216C2.37067 0.36 2.49333 0.552 2.552 0.792L3.304 3.904C3.33067 4.01067 3.36 4.064 3.392 4.064C3.424 4.064 3.45333 4.01067 3.48 3.904L4.224 0.792C4.28267 0.552 4.40267 0.36 4.584 0.216C4.77067 0.0719995 4.98667 -4.76837e-07 5.232 -4.76837e-07H5.496C5.82667 0.00533311 6.07467 0.0879998 6.24 0.248C6.41067 0.408 6.496 0.602667 6.496 0.832C6.496 1.01867 6.488 1.192 6.472 1.352C6.456 1.512 6.43733 1.66933 6.416 1.824C6.39467 1.97333 6.376 2.12533 6.36 2.28C6.344 2.42933 6.336 2.58933 6.336 2.76V3.24C6.336 3.41067 6.344 3.58133 6.36 3.752C6.376 3.91733 6.39467 4.088 6.416 4.264C6.43733 4.43467 6.456 4.608 6.472 4.784C6.488 4.96 6.496 5.14133 6.496 5.328C6.496 5.40267 6.48533 5.48 6.464 5.56C6.448 5.63467 6.41333 5.70667 6.36 5.776C6.30667 5.84 6.22933 5.89333 6.128 5.936C6.032 5.97867 5.90133 6 5.736 6C5.576 6 5.44 5.98133 5.328 5.944C5.22133 5.90133 5.136 5.848 5.072 5.784C5.008 5.72 4.96267 5.65067 4.936 5.576C4.90933 5.496 4.896 5.41867 4.896 5.344C4.896 5.136 4.90667 4.93067 4.928 4.728C4.95467 4.52 4.984 4.31733 5.016 4.12C5.048 3.92267 5.07467 3.73067 5.096 3.544C5.12267 3.352 5.136 3.17067 5.136 3V2.76C5.136 2.712 5.136 2.64267 5.136 2.552C5.136 2.456 5.13333 2.368 5.128 2.288C5.128 2.24 5.12267 2.21867 5.112 2.224C5.10133 2.224 5.09067 2.24533 5.08 2.288L4.184 5.4ZM7.85531 2.76C7.85531 2.58933 7.84731 2.42133 7.83131 2.256C7.81531 2.08533 7.79665 1.91467 7.77531 1.744C7.75398 1.568 7.73531 1.392 7.71931 1.216C7.70331 1.04 7.69531 0.858666 7.69531 0.672C7.69531 0.549333 7.71665 0.445333 7.75931 0.36C7.80198 0.274666 7.86065 0.205333 7.93531 0.152C8.00998 0.0986664 8.09798 0.0613329 8.19931 0.0399995C8.30065 0.0133328 8.40731 -4.76837e-07 8.51931 -4.76837e-07C8.67398 -4.76837e-07 8.80198 0.0213329 8.90331 0.0639997C9.00465 0.101333 9.08465 0.152 9.14331 0.216C9.20198 0.28 9.24198 0.352 9.26331 0.432C9.28465 0.506666 9.29531 0.581333 9.29531 0.656C9.29531 0.864 9.28731 1.05867 9.27131 1.24C9.25531 1.42133 9.23665 1.59733 9.21531 1.768C9.19398 1.93333 9.17531 2.09867 9.15931 2.264C9.14331 2.424 9.13531 2.58933 9.13531 2.76V3.24C9.13531 3.41067 9.14331 3.57867 9.15931 3.744C9.17531 3.904 9.19398 4.06933 9.21531 4.24C9.23665 4.40533 9.25531 4.57867 9.27131 4.76C9.28731 4.94133 9.29531 5.136 9.29531 5.344C9.29531 5.41867 9.28465 5.496 9.26331 5.576C9.24198 5.65067 9.20198 5.72 9.14331 5.784C9.08465 5.848 9.00465 5.90133 8.90331 5.944C8.80198 5.98133 8.67398 6 8.51931 6C8.28998 6 8.09531 5.94933 7.93531 5.848C7.77531 5.74667 7.69531 5.57333 7.69531 5.328C7.69531 5.14133 7.70331 4.96 7.71931 4.784C7.73531 4.608 7.75398 4.43467 7.77531 4.264C7.79665 4.088 7.81531 3.91733 7.83131 3.752C7.84731 3.58133 7.85531 3.41067 7.85531 3.24V2.76ZM13.3833 5.704C13.346 5.65067 13.3246 5.6 13.3193 5.552L11.9273 2.64C11.906 2.59733 11.8873 2.57867 11.8713 2.584C11.8606 2.584 11.8553 2.608 11.8553 2.656V2.76V3C11.8553 3.17067 11.866 3.352 11.8873 3.544C11.914 3.73067 11.9433 3.92267 11.9753 4.12C12.0073 4.31733 12.034 4.52 12.0553 4.728C12.082 4.93067 12.0953 5.136 12.0953 5.344C12.0953 5.41867 12.082 5.496 12.0553 5.576C12.0286 5.65067 11.9833 5.72 11.9193 5.784C11.8553 5.848 11.7673 5.90133 11.6553 5.944C11.5486 5.98133 11.4153 6 11.2553 6C11.09 6 10.9566 5.97867 10.8553 5.936C10.7593 5.89333 10.6846 5.84 10.6313 5.776C10.578 5.70667 10.5406 5.63467 10.5193 5.56C10.5033 5.48 10.4953 5.40267 10.4953 5.328C10.4953 5.14133 10.5033 4.96 10.5193 4.784C10.5353 4.608 10.554 4.43467 10.5753 4.264C10.5966 4.088 10.6153 3.91733 10.6313 3.752C10.6473 3.58133 10.6553 3.41067 10.6553 3.24V2.76C10.6553 2.58933 10.6473 2.42133 10.6313 2.256C10.6153 2.08533 10.5966 1.91467 10.5753 1.744C10.554 1.568 10.5353 1.392 10.5193 1.216C10.5033 1.04 10.4953 0.858666 10.4953 0.672C10.4953 0.597333 10.5033 0.522667 10.5193 0.448C10.5406 0.368 10.578 0.296 10.6313 0.232C10.6846 0.162666 10.7593 0.106666 10.8553 0.0639997C10.9566 0.0213329 11.09 -4.76837e-07 11.2553 -4.76837e-07H11.5913C11.698 -4.76837e-07 11.7966 0.029333 11.8873 0.0879998C11.978 0.141333 12.0446 0.213333 12.0873 0.304L13.3833 2.944C13.4046 2.98667 13.4206 3.008 13.4313 3.008C13.4473 3.00267 13.4553 2.976 13.4553 2.928V2.76C13.4553 2.58933 13.442 2.42133 13.4153 2.256C13.394 2.08533 13.3673 1.91467 13.3353 1.744C13.3033 1.568 13.274 1.392 13.2473 1.216C13.226 1.04 13.2153 0.858666 13.2153 0.672C13.2153 0.597333 13.2286 0.522667 13.2553 0.448C13.282 0.368 13.3273 0.296 13.3913 0.232C13.4553 0.162666 13.5406 0.106666 13.6473 0.0639997C13.754 0.0213329 13.89 -4.76837e-07 14.0553 -4.76837e-07C14.2153 -4.76837e-07 14.346 0.0213329 14.4473 0.0639997C14.5486 0.101333 14.626 0.152 14.6793 0.216C14.7326 0.28 14.7673 0.352 14.7833 0.432C14.8046 0.506666 14.8153 0.581333 14.8153 0.656C14.8153 0.864 14.8073 1.05867 14.7913 1.24C14.7753 1.42133 14.7566 1.59733 14.7353 1.768C14.714 1.93333 14.6953 2.09867 14.6793 2.264C14.6633 2.424 14.6553 2.58933 14.6553 2.76V3.24C14.6553 3.41067 14.6633 3.57867 14.6793 3.744C14.6953 3.904 14.714 4.06933 14.7353 4.24C14.7566 4.40533 14.7753 4.57867 14.7913 4.76C14.8073 4.94133 14.8153 5.136 14.8153 5.344C14.8153 5.41333 14.8073 5.48533 14.7913 5.56C14.7753 5.63467 14.7406 5.704 14.6873 5.768C14.6393 5.832 14.57 5.88533 14.4793 5.928C14.394 5.97067 14.2793 5.99467 14.1353 6H13.8633C13.7726 6 13.6846 5.97333 13.5993 5.92C13.514 5.86667 13.442 5.79467 13.3833 5.704Z" fill="black"/>
</svg>
