<svg width="17" height="8" viewBox="0 0 17 8" fill="none" xmlns="http://www.w3.org/2000/svg">
<path fill-rule="evenodd" clip-rule="evenodd" d="M17 0H0V8H17V0ZM4.88097 6.84C5.02497 6.728 5.12364 6.58133 5.17697 6.4L6.07297 3.288C6.08364 3.24533 6.0943 3.224 6.10497 3.224C6.11564 3.21867 6.12097 3.24 6.12097 3.288C6.1263 3.368 6.12897 3.456 6.12897 3.552V3.76V4C6.12897 4.17067 6.11564 4.352 6.08897 4.544C6.06764 4.73067 6.04097 4.92267 6.00897 5.12C5.97697 5.31733 5.94764 5.52 5.92097 5.728C5.89964 5.93067 5.88897 6.136 5.88897 6.344C5.88897 6.41867 5.9023 6.496 5.92897 6.576C5.95564 6.65067 6.00097 6.72 6.06497 6.784C6.12897 6.848 6.2143 6.90133 6.32097 6.944C6.43297 6.98133 6.56897 7 6.72897 7C6.8943 7 7.02497 6.97867 7.12097 6.936C7.2223 6.89333 7.29964 6.84 7.35297 6.776C7.4063 6.70667 7.44097 6.63467 7.45697 6.56C7.4783 6.48 7.48897 6.40267 7.48897 6.328C7.48897 6.14133 7.48097 5.96 7.46497 5.784C7.44897 5.608 7.4303 5.43467 7.40897 5.264C7.38764 5.088 7.36897 4.91733 7.35297 4.752C7.33697 4.58133 7.32897 4.41067 7.32897 4.24V3.76C7.32897 3.58933 7.33697 3.42933 7.35297 3.28C7.36897 3.12533 7.38764 2.97333 7.40897 2.824C7.4303 2.66933 7.44897 2.512 7.46497 2.352C7.48097 2.192 7.48897 2.01867 7.48897 1.832C7.48897 1.60267 7.40364 1.408 7.23297 1.248C7.06764 1.088 6.81964 1.00533 6.48897 1H6.22497C5.97964 1 5.76364 1.072 5.57697 1.216C5.39564 1.36 5.27564 1.552 5.21697 1.792L4.47297 4.904C4.4463 5.01067 4.41697 5.064 4.38497 5.064C4.35297 5.064 4.32364 5.01067 4.29697 4.904L3.54497 1.792C3.4863 1.552 3.36364 1.36 3.17697 1.216C2.99564 1.072 2.7823 1 2.53697 1H2.27297C1.9423 1.00533 1.6783 1.088 1.48097 1.248C1.28897 1.408 1.19297 1.60267 1.19297 1.832C1.19297 2.01867 1.20097 2.192 1.21697 2.352C1.23297 2.512 1.25164 2.66933 1.27297 2.824C1.2943 2.97333 1.31297 3.12533 1.32897 3.28C1.34497 3.42933 1.35297 3.58933 1.35297 3.76V4.24C1.35297 4.41067 1.34497 4.58133 1.32897 4.752C1.31297 4.91733 1.2943 5.088 1.27297 5.264C1.25164 5.43467 1.23297 5.608 1.21697 5.784C1.20097 5.96 1.19297 6.14133 1.19297 6.328C1.19297 6.40267 1.20364 6.48 1.22497 6.56C1.2463 6.63467 1.2863 6.70667 1.34497 6.776C1.40364 6.84 1.48364 6.89333 1.58497 6.936C1.69164 6.97867 1.82764 7 1.99297 7C2.15297 7 2.28897 6.98133 2.40097 6.944C2.51297 6.90133 2.60364 6.848 2.67297 6.784C2.7423 6.72 2.79297 6.65067 2.82497 6.576C2.85697 6.496 2.87297 6.41867 2.87297 6.344C2.87297 6.136 2.85964 5.93067 2.83297 5.728C2.81164 5.52 2.78497 5.31733 2.75297 5.12C2.72097 4.92267 2.69164 4.73067 2.66497 4.544C2.64364 4.352 2.63297 4.17067 2.63297 4V3.76V3.552C2.63297 3.456 2.63564 3.368 2.64097 3.288C2.64097 3.24 2.6463 3.21867 2.65697 3.224C2.66764 3.224 2.6783 3.24533 2.68897 3.288L3.58497 6.4C3.6383 6.58133 3.73697 6.728 3.88097 6.84C4.02497 6.94667 4.1903 7 4.37697 7H4.38497C4.57164 7 4.73697 6.94667 4.88097 6.84ZM8.82428 3.256C8.84028 3.42133 8.84828 3.58933 8.84828 3.76V4.24C8.84828 4.41067 8.84028 4.58133 8.82428 4.752C8.80828 4.91733 8.78961 5.088 8.76828 5.264C8.74695 5.43467 8.72828 5.608 8.71228 5.784C8.69628 5.96 8.68828 6.14133 8.68828 6.328C8.68828 6.57333 8.76828 6.74667 8.92828 6.848C9.08828 6.94933 9.28295 7 9.51228 7C9.66695 7 9.79495 6.98133 9.89628 6.944C9.99761 6.90133 10.0776 6.848 10.1363 6.784C10.1949 6.72 10.2349 6.65067 10.2563 6.576C10.2776 6.496 10.2883 6.41867 10.2883 6.344C10.2883 6.136 10.2803 5.94133 10.2643 5.76C10.2483 5.57867 10.2296 5.40533 10.2083 5.24C10.1869 5.06933 10.1683 4.904 10.1523 4.744C10.1363 4.57867 10.1283 4.41067 10.1283 4.24V3.76C10.1283 3.58933 10.1363 3.424 10.1523 3.264C10.1683 3.09867 10.1869 2.93333 10.2083 2.768C10.2296 2.59733 10.2483 2.42133 10.2643 2.24C10.2803 2.05867 10.2883 1.864 10.2883 1.656C10.2883 1.58133 10.2776 1.50667 10.2563 1.432C10.2349 1.352 10.1949 1.28 10.1363 1.216C10.0776 1.152 9.99761 1.10133 9.89628 1.064C9.79495 1.02133 9.66695 1 9.51228 1C9.40028 1 9.29361 1.01333 9.19228 1.04C9.09095 1.06133 9.00295 1.09867 8.92828 1.152C8.85361 1.20533 8.79495 1.27467 8.75228 1.36C8.70961 1.44533 8.68828 1.54933 8.68828 1.672C8.68828 1.85867 8.69628 2.04 8.71228 2.216C8.72828 2.392 8.74695 2.568 8.76828 2.744C8.78961 2.91467 8.80828 3.08533 8.82428 3.256ZM14.3123 6.552C14.3176 6.6 14.3389 6.65067 14.3763 6.704C14.4349 6.79467 14.5069 6.86667 14.5923 6.92C14.6776 6.97333 14.7656 7 14.8563 7H15.1283C15.2723 6.99467 15.3869 6.97067 15.4723 6.928C15.5629 6.88533 15.6323 6.832 15.6803 6.768C15.7336 6.704 15.7683 6.63467 15.7843 6.56C15.8003 6.48533 15.8083 6.41333 15.8083 6.344C15.8083 6.136 15.8003 5.94133 15.7843 5.76C15.7683 5.57867 15.7496 5.40533 15.7283 5.24C15.7069 5.06933 15.6883 4.904 15.6723 4.744C15.6563 4.57867 15.6483 4.41067 15.6483 4.24V3.76C15.6483 3.58933 15.6563 3.424 15.6723 3.264C15.6883 3.09867 15.7069 2.93333 15.7283 2.768C15.7496 2.59733 15.7683 2.42133 15.7843 2.24C15.8003 2.05867 15.8083 1.864 15.8083 1.656C15.8083 1.58133 15.7976 1.50667 15.7763 1.432C15.7603 1.352 15.7256 1.28 15.6723 1.216C15.6189 1.152 15.5416 1.10133 15.4403 1.064C15.3389 1.02133 15.2083 1 15.0483 1C14.8829 1 14.7469 1.02133 14.6403 1.064C14.5336 1.10667 14.4483 1.16267 14.3843 1.232C14.3203 1.296 14.2749 1.368 14.2483 1.448C14.2216 1.52267 14.2083 1.59733 14.2083 1.672C14.2083 1.85867 14.2189 2.04 14.2403 2.216C14.2669 2.392 14.2963 2.568 14.3283 2.744C14.3603 2.91467 14.3869 3.08533 14.4083 3.256C14.4349 3.42133 14.4483 3.58933 14.4483 3.76V3.928C14.4483 3.976 14.4403 4.00267 14.4243 4.008C14.4136 4.008 14.3976 3.98667 14.3763 3.944L13.0803 1.304C13.0376 1.21333 12.9709 1.14133 12.8803 1.088C12.7896 1.02933 12.6909 1 12.5843 1H12.2483C12.0829 1 11.9496 1.02133 11.8483 1.064C11.7523 1.10667 11.6776 1.16267 11.6243 1.232C11.5709 1.296 11.5336 1.368 11.5123 1.448C11.4963 1.52267 11.4883 1.59733 11.4883 1.672C11.4883 1.85867 11.4963 2.04 11.5123 2.216C11.5283 2.392 11.5469 2.568 11.5683 2.744C11.5896 2.91467 11.6083 3.08533 11.6243 3.256C11.6403 3.42133 11.6483 3.58933 11.6483 3.76V4.24C11.6483 4.41067 11.6403 4.58133 11.6243 4.752C11.6083 4.91733 11.5896 5.088 11.5683 5.264C11.5469 5.43467 11.5283 5.608 11.5123 5.784C11.4963 5.96 11.4883 6.14133 11.4883 6.328C11.4883 6.40267 11.4963 6.48 11.5123 6.56C11.5336 6.63467 11.5709 6.70667 11.6243 6.776C11.6776 6.84 11.7523 6.89333 11.8483 6.936C11.9496 6.97867 12.0829 7 12.2483 7C12.4083 7 12.5416 6.98133 12.6483 6.944C12.7603 6.90133 12.8483 6.848 12.9123 6.784C12.9763 6.72 13.0216 6.65067 13.0483 6.576C13.0749 6.496 13.0883 6.41867 13.0883 6.344C13.0883 6.136 13.0749 5.93067 13.0483 5.728C13.0269 5.52 13.0003 5.31733 12.9683 5.12C12.9363 4.92267 12.9069 4.73067 12.8803 4.544C12.8589 4.352 12.8483 4.17067 12.8483 4V3.76V3.656C12.8483 3.608 12.8536 3.584 12.8643 3.584C12.8803 3.57867 12.8989 3.59733 12.9203 3.64L14.3123 6.552Z" fill="black"/>
</svg>
