<svg width="133" height="19" viewBox="0 0 133 19" fill="none" xmlns="http://www.w3.org/2000/svg">
<path fill-rule="evenodd" clip-rule="evenodd" d="M133 0H0V19H133V0ZM1.35124 4.016C1.23924 4.29333 1.18324 4.60267 1.18324 4.944C1.18324 5.32267 1.23924 5.648 1.35124 5.92C1.46324 6.18667 1.61791 6.408 1.81524 6.584C2.01791 6.75467 2.25791 6.88 2.53524 6.96C2.81791 7.04 3.12724 7.08 3.46324 7.08C3.79924 7.08 4.10591 7.04 4.38324 6.96C4.66591 6.88 4.90591 6.75467 5.10324 6.584C5.30591 6.408 5.46058 6.18667 5.56724 5.92C5.67924 5.648 5.73524 5.32267 5.73524 4.944C5.73524 4.60267 5.67924 4.29333 5.56724 4.016C5.45524 3.73333 5.29791 3.49067 5.09524 3.288C4.89258 3.08533 4.65258 2.928 4.37524 2.816C4.09791 2.704 3.79391 2.648 3.46324 2.648C3.13258 2.648 2.82591 2.704 2.54324 2.816C2.26591 2.928 2.02591 3.08533 1.82324 3.288C1.62058 3.49067 1.46324 3.73333 1.35124 4.016ZM2.49524 5.264C2.46858 5.14133 2.45524 5.01067 2.45524 4.872C2.45524 4.51467 2.54324 4.232 2.71924 4.024C2.89524 3.816 3.14591 3.712 3.47124 3.712C3.79658 3.712 4.04724 3.816 4.22324 4.024C4.39924 4.232 4.48724 4.51467 4.48724 4.872C4.48724 5.01067 4.47124 5.14133 4.43924 5.264C4.41258 5.38667 4.35924 5.496 4.27924 5.592C4.20458 5.68267 4.10058 5.75733 3.96724 5.816C3.83924 5.86933 3.67391 5.896 3.47124 5.896C3.26858 5.896 3.10058 5.86933 2.96724 5.816C2.83924 5.75733 2.73524 5.68267 2.65524 5.592C2.58058 5.496 2.52724 5.38667 2.49524 5.264ZM7.28099 1.912C7.21699 2.12533 7.17166 2.35467 7.14499 2.6C7.13433 2.68 7.08366 2.72533 6.99299 2.736C6.86499 2.74667 6.76099 2.792 6.68099 2.872C6.60099 2.952 6.56366 3.104 6.56899 3.328C6.57433 3.536 6.61166 3.68267 6.68099 3.768C6.75033 3.848 6.84099 3.896 6.95299 3.912C7.04366 3.928 7.08899 3.976 7.08899 4.056V4.232C7.08899 4.40267 7.08366 4.57067 7.07299 4.736C7.06233 4.896 7.04899 5.06133 7.03299 5.232C7.02233 5.39733 7.01166 5.57067 7.00099 5.752C6.99033 5.93333 6.98499 6.128 6.98499 6.336C6.98499 6.41067 6.99299 6.488 7.00899 6.568C7.03033 6.64267 7.06766 6.712 7.12099 6.776C7.17433 6.84 7.25166 6.89333 7.35299 6.936C7.45433 6.97333 7.58499 6.992 7.74499 6.992C7.91033 6.992 8.04099 6.97067 8.13699 6.928C8.23833 6.88533 8.31566 6.832 8.36899 6.768C8.42233 6.69867 8.45699 6.62667 8.47299 6.552C8.49433 6.472 8.50499 6.39467 8.50499 6.32C8.50499 6.13333 8.49699 5.95733 8.48099 5.792C8.46499 5.62667 8.44366 5.456 8.41699 5.28C8.39566 5.104 8.37166 4.91467 8.34499 4.712C8.32366 4.504 8.30499 4.264 8.28899 3.992V3.952C8.28366 3.90933 8.29166 3.87733 8.31299 3.856C8.33966 3.83467 8.37433 3.82667 8.41699 3.832C8.54499 3.848 8.67033 3.86667 8.79299 3.888C8.92099 3.90933 9.04899 3.92 9.17699 3.92C9.25166 3.92 9.32366 3.912 9.39299 3.896C9.46233 3.88 9.52366 3.85067 9.57699 3.808C9.63566 3.76533 9.68099 3.70667 9.71299 3.632C9.75033 3.552 9.76899 3.45067 9.76899 3.328C9.76899 3.20533 9.75299 3.10667 9.72099 3.032C9.68899 2.952 9.64633 2.89067 9.59299 2.848C9.53966 2.80533 9.47833 2.776 9.40899 2.76C9.33966 2.744 9.26766 2.736 9.19299 2.736C9.04899 2.736 8.91833 2.74667 8.80099 2.768C8.68366 2.78933 8.57166 2.808 8.46499 2.824C8.42233 2.83467 8.39033 2.82933 8.36899 2.808C8.34766 2.78133 8.34233 2.74667 8.35299 2.704C8.38499 2.54933 8.43033 2.416 8.48899 2.304C8.55299 2.192 8.63833 2.12 8.74499 2.088C8.83566 2.06133 8.92633 2.05067 9.01699 2.056C9.10766 2.06133 9.21166 2.09067 9.32899 2.144C9.47833 2.208 9.60899 2.21067 9.72099 2.152C9.83299 2.09333 9.91566 2.008 9.96899 1.896C10.0277 1.77867 10.0463 1.65333 10.025 1.52C10.009 1.38667 9.94233 1.28 9.82499 1.2C9.63299 1.06667 9.43833 0.973333 9.24099 0.92C9.04366 0.861333 8.85166 0.832 8.66499 0.832C8.39833 0.832 8.17433 0.88 7.99299 0.976C7.81166 1.06667 7.66233 1.192 7.54499 1.352C7.43299 1.512 7.34499 1.69867 7.28099 1.912ZM18.4617 5.808C18.563 5.50933 18.6137 5.14933 18.6137 4.728C18.6137 4.27467 18.547 3.91467 18.4137 3.648C18.2803 3.376 18.1177 3.168 17.9257 3.024C17.739 2.88 17.5443 2.78667 17.3417 2.744C17.139 2.696 16.9683 2.672 16.8297 2.672C16.5417 2.672 16.2883 2.72267 16.0697 2.824C15.851 2.92533 15.6643 3.05867 15.5097 3.224C15.4723 3.032 15.379 2.904 15.2297 2.84C15.0857 2.77067 14.923 2.736 14.7417 2.736C14.587 2.736 14.4617 2.75733 14.3657 2.8C14.2697 2.83733 14.195 2.888 14.1417 2.952C14.0883 3.016 14.051 3.088 14.0297 3.168C14.0137 3.24267 14.0057 3.31733 14.0057 3.392C14.0057 3.6 14.0137 3.79467 14.0297 3.976C14.0457 4.15733 14.0643 4.33333 14.0857 4.504C14.107 4.66933 14.1257 4.83467 14.1417 5C14.1577 5.16 14.1657 5.32533 14.1657 5.496V6.232C14.1657 6.40267 14.1577 6.57067 14.1417 6.736C14.1257 6.896 14.107 7.05867 14.0857 7.224C14.0643 7.39467 14.0457 7.57067 14.0297 7.752C14.0137 7.93333 14.0057 8.128 14.0057 8.336C14.0057 8.41067 14.0137 8.48533 14.0297 8.56C14.051 8.64 14.0883 8.712 14.1417 8.776C14.195 8.84 14.2697 8.89067 14.3657 8.928C14.4617 8.97067 14.587 8.992 14.7417 8.992C14.9817 8.992 15.171 8.94133 15.3097 8.84C15.4537 8.744 15.5257 8.57067 15.5257 8.32C15.5257 8.02133 15.507 7.73867 15.4697 7.472C15.4323 7.21067 15.403 6.94667 15.3817 6.68C15.5577 6.808 15.7657 6.912 16.0057 6.992C16.2457 7.06667 16.5203 7.104 16.8297 7.104C17.0643 7.104 17.2883 7.05867 17.5017 6.968C17.715 6.87733 17.9043 6.736 18.0697 6.544C18.235 6.352 18.3657 6.10667 18.4617 5.808ZM17.3017 4.488C17.3283 4.61067 17.3417 4.74133 17.3417 4.88C17.3417 5.27467 17.259 5.55467 17.0937 5.72C16.9283 5.88 16.7043 5.96 16.4217 5.96C16.299 5.96 16.1737 5.93867 16.0457 5.896C15.9177 5.848 15.8003 5.77867 15.6937 5.688C15.5923 5.59733 15.5097 5.48533 15.4457 5.352C15.3817 5.21333 15.3523 5.056 15.3577 4.88C15.363 4.74667 15.3897 4.61867 15.4377 4.496C15.491 4.37333 15.563 4.264 15.6537 4.168C15.7443 4.072 15.8537 3.99733 15.9817 3.944C16.115 3.88533 16.2617 3.856 16.4217 3.856C16.603 3.856 16.7523 3.88533 16.8697 3.944C16.9923 3.99733 17.0883 4.072 17.1577 4.168C17.227 4.25867 17.275 4.36533 17.3017 4.488ZM21.0719 4.6C21.0773 4.568 21.0799 4.53867 21.0799 4.512C21.0853 4.45333 21.0986 4.39467 21.1199 4.336C21.1466 4.272 21.1813 4.21867 21.2239 4.176C21.3146 4.08533 21.4053 4.02133 21.4959 3.984C21.5866 3.94667 21.6719 3.92533 21.7519 3.92C21.8319 3.90933 21.9066 3.912 21.9759 3.928C22.0453 3.944 22.1039 3.96 22.1519 3.976C22.2693 4.01333 22.3813 4.02933 22.4879 4.024C22.5946 4.01867 22.6826 3.984 22.7519 3.92C22.8319 3.84533 22.8959 3.73867 22.9439 3.6C22.9919 3.46133 22.9999 3.32533 22.9679 3.192C22.9413 3.05333 22.8639 2.936 22.7359 2.84C22.6133 2.73867 22.4186 2.688 22.1519 2.688C21.9439 2.688 21.7626 2.74133 21.6079 2.848C21.4586 2.94933 21.3306 3.072 21.2239 3.216C21.2079 3.09333 21.1439 2.97867 21.0319 2.872C20.9253 2.76533 20.7386 2.712 20.4719 2.712C20.3173 2.712 20.1893 2.73333 20.0879 2.776C19.9919 2.81333 19.9146 2.86133 19.8559 2.92C19.8026 2.97867 19.7653 3.04267 19.7439 3.112C19.7226 3.18133 19.7119 3.248 19.7119 3.312C19.7119 3.408 19.7199 3.50933 19.7359 3.616C19.7519 3.72267 19.7706 3.83467 19.7919 3.952C19.8133 4.06933 19.8319 4.192 19.8479 4.32C19.8639 4.44267 19.8719 4.56533 19.8719 4.688V5.032C19.8719 5.15467 19.8639 5.27733 19.8479 5.4C19.8319 5.52267 19.8133 5.64267 19.7919 5.76C19.7706 5.87733 19.7519 5.98933 19.7359 6.096C19.7199 6.20267 19.7119 6.304 19.7119 6.4C19.7119 6.464 19.7226 6.53067 19.7439 6.6C19.7653 6.66933 19.8026 6.736 19.8559 6.8C19.9146 6.85867 19.9919 6.90667 20.0879 6.944C20.1893 6.98133 20.3173 7 20.4719 7C20.6266 7 20.7519 6.98133 20.8479 6.944C20.9439 6.90667 21.0213 6.85867 21.0799 6.8C21.1386 6.74133 21.1786 6.68 21.1999 6.616C21.2213 6.54667 21.2319 6.48 21.2319 6.416C21.2319 6.192 21.2053 5.968 21.1519 5.744C21.0986 5.51467 21.0719 5.27733 21.0719 5.032V4.688V4.6ZM25.4096 5.712C25.4149 5.69067 25.4389 5.67467 25.4816 5.664C25.7376 5.59467 25.9882 5.50933 26.2336 5.408C26.4789 5.30667 26.7109 5.18933 26.9296 5.056C27.1536 4.92267 27.3242 4.77067 27.4416 4.6C27.5642 4.42933 27.6389 4.256 27.6656 4.08C27.6976 3.89867 27.6842 3.72267 27.6256 3.552C27.5722 3.38133 27.4789 3.22933 27.3456 3.096C27.2176 2.96267 27.0522 2.856 26.8496 2.776C26.6469 2.69067 26.4149 2.648 26.1536 2.648C25.8229 2.648 25.5109 2.704 25.2176 2.816C24.9242 2.928 24.6682 3.08533 24.4496 3.288C24.2362 3.49067 24.0656 3.73333 23.9376 4.016C23.8149 4.29333 23.7536 4.60267 23.7536 4.944C23.7536 5.32267 23.8096 5.648 23.9216 5.92C24.0389 6.18667 24.1962 6.408 24.3936 6.584C24.5962 6.75467 24.8336 6.88 25.1056 6.96C25.3776 7.04 25.6736 7.08 25.9936 7.08C26.1536 7.08 26.3216 7.064 26.4976 7.032C26.6736 7 26.8442 6.95733 27.0096 6.904C27.1802 6.84533 27.3349 6.776 27.4736 6.696C27.6176 6.61067 27.7322 6.52 27.8176 6.424C27.9136 6.312 27.9616 6.192 27.9616 6.064C27.9669 5.936 27.9376 5.816 27.8736 5.704C27.8149 5.592 27.7322 5.49867 27.6256 5.424C27.5242 5.34933 27.4122 5.312 27.2896 5.312C27.1562 5.312 27.0362 5.35733 26.9296 5.448C26.7802 5.576 26.6389 5.68267 26.5056 5.768C26.3722 5.85333 26.2042 5.896 26.0016 5.896C25.7829 5.896 25.6042 5.856 25.4656 5.776C25.4282 5.75467 25.4096 5.73333 25.4096 5.712ZM25.1536 4.744C25.0682 4.77067 25.0309 4.73867 25.0416 4.648C25.0842 4.35467 25.1962 4.12533 25.3776 3.96C25.5589 3.79467 25.7936 3.712 26.0816 3.712C26.1616 3.712 26.2256 3.73867 26.2736 3.792C26.3216 3.84 26.3482 3.89867 26.3536 3.968C26.3642 4.03733 26.3509 4.10667 26.3136 4.176C26.2816 4.24533 26.2229 4.30133 26.1376 4.344C25.9509 4.43467 25.7749 4.512 25.6096 4.576C25.4496 4.64 25.2976 4.696 25.1536 4.744ZM32.1659 2.28C32.1979 2.52 32.2273 2.76 32.2539 3C32.2646 3.08533 32.2299 3.10133 32.1499 3.048C31.9793 2.92533 31.7846 2.82933 31.5659 2.76C31.3473 2.68533 31.0993 2.648 30.8219 2.648C30.5926 2.648 30.3686 2.69333 30.1499 2.784C29.9366 2.87467 29.7473 3.016 29.5819 3.208C29.4166 3.4 29.2833 3.64533 29.1819 3.944C29.0859 4.24267 29.0379 4.60267 29.0379 5.024C29.0379 5.47733 29.1046 5.84 29.2379 6.112C29.3713 6.37867 29.5313 6.584 29.7179 6.728C29.9099 6.872 30.1073 6.96533 30.3099 7.008C30.5126 7.056 30.6833 7.08 30.8219 7.08C31.0993 7.08 31.3473 7.032 31.5659 6.936C31.7899 6.83467 31.9846 6.70667 32.1499 6.552C32.1766 6.66933 32.2433 6.77333 32.3499 6.864C32.4566 6.94933 32.6353 6.99467 32.8859 7C33.0459 7 33.1766 6.98133 33.2779 6.944C33.3793 6.90133 33.4566 6.848 33.5099 6.784C33.5633 6.72 33.5979 6.65067 33.6139 6.576C33.6353 6.496 33.6459 6.41867 33.6459 6.344C33.6459 6.136 33.6379 5.94133 33.6219 5.76C33.6059 5.57867 33.5873 5.40533 33.5659 5.24C33.5446 5.06933 33.5259 4.904 33.5099 4.744C33.4939 4.57867 33.4859 4.41067 33.4859 4.24V3.6C33.4859 3.42933 33.4939 3.264 33.5099 3.104C33.5259 2.93867 33.5446 2.77333 33.5659 2.608C33.5873 2.43733 33.6059 2.26133 33.6219 2.08C33.6379 1.89867 33.6459 1.704 33.6459 1.496C33.6459 1.42133 33.6353 1.34667 33.6139 1.272C33.5979 1.192 33.5633 1.12 33.5099 1.056C33.4566 0.992 33.3793 0.941333 33.2779 0.904C33.1766 0.861333 33.0459 0.84 32.8859 0.84C32.7206 0.84 32.5873 0.861333 32.4859 0.904C32.3899 0.946667 32.3153 1.00267 32.2619 1.072C32.2086 1.136 32.1713 1.208 32.1499 1.288C32.1339 1.36267 32.1259 1.43733 32.1259 1.512C32.1259 1.784 32.1393 2.04 32.1659 2.28ZM30.3499 5.264C30.3233 5.14133 30.3099 5.01067 30.3099 4.872C30.3099 4.472 30.3899 4.17867 30.5499 3.992C30.7153 3.80533 30.9419 3.712 31.2299 3.712C31.3526 3.712 31.4779 3.73867 31.6059 3.792C31.7339 3.84533 31.8513 3.92267 31.9579 4.024C32.0646 4.12533 32.1499 4.248 32.2139 4.392C32.2833 4.536 32.3153 4.696 32.3099 4.872C32.2993 5.21867 32.1979 5.47733 32.0059 5.648C31.8139 5.81333 31.5553 5.896 31.2299 5.896C31.0486 5.896 30.8966 5.86933 30.7739 5.816C30.6566 5.75733 30.5633 5.68267 30.4939 5.592C30.4246 5.496 30.3766 5.38667 30.3499 5.264ZM34.8802 4.352C34.7895 4.66133 34.7442 4.96533 34.7442 5.264C34.7442 5.60533 34.7735 5.89333 34.8322 6.128C34.8962 6.35733 34.9895 6.544 35.1122 6.688C35.2348 6.82667 35.3842 6.928 35.5602 6.992C35.7415 7.05067 35.9522 7.08 36.1922 7.08C36.5068 7.08 36.7602 7.032 36.9522 6.936C37.1495 6.84 37.3148 6.71467 37.4482 6.56C37.4748 6.66667 37.5415 6.768 37.6482 6.864C37.7602 6.95467 37.9415 7 38.1922 7C38.3468 7 38.4722 6.98133 38.5682 6.944C38.6642 6.90667 38.7415 6.85867 38.8002 6.8C38.8588 6.74133 38.8988 6.68 38.9202 6.616C38.9415 6.54667 38.9522 6.48 38.9522 6.416C38.9522 6.192 38.9255 5.968 38.8722 5.744C38.8188 5.51467 38.7922 5.27733 38.7922 5.032V4.688C38.7922 4.43733 38.8188 4.2 38.8722 3.976C38.9255 3.74667 38.9522 3.52267 38.9522 3.304C38.9522 3.24 38.9415 3.17333 38.9202 3.104C38.8988 3.03467 38.8588 2.97067 38.8002 2.912C38.7415 2.85333 38.6642 2.80533 38.5682 2.768C38.4722 2.73067 38.3468 2.712 38.1922 2.712C38.0108 2.712 37.8695 2.73867 37.7682 2.792C37.6668 2.84 37.5895 2.90133 37.5362 2.976C37.4135 2.87467 37.2855 2.79467 37.1522 2.736C37.0188 2.67733 36.8588 2.648 36.6722 2.648C36.3788 2.648 36.1122 2.728 35.8722 2.888C35.6375 3.048 35.4348 3.25333 35.2642 3.504C35.0988 3.75467 34.9708 4.03733 34.8802 4.352ZM36.0802 5.536C36.0428 5.44533 36.0242 5.33067 36.0242 5.192C36.0242 5.032 36.0428 4.86667 36.0802 4.696C36.1228 4.52 36.1788 4.36 36.2482 4.216C36.3228 4.072 36.4082 3.952 36.5042 3.856C36.6055 3.76 36.7175 3.712 36.8402 3.712C37.0002 3.712 37.1282 3.73867 37.2242 3.792C37.3255 3.84533 37.4002 3.92267 37.4482 4.024C37.5015 4.12533 37.5362 4.248 37.5522 4.392C37.5682 4.536 37.5762 4.696 37.5762 4.872C37.5762 5.01067 37.5602 5.14133 37.5282 5.264C37.4962 5.38667 37.4455 5.496 37.3762 5.592C37.3122 5.68267 37.2295 5.75733 37.1282 5.816C37.0268 5.86933 36.9042 5.896 36.7602 5.896C36.6588 5.896 36.5628 5.88533 36.4722 5.864C36.3815 5.84267 36.3015 5.80533 36.2322 5.752C36.1682 5.69867 36.1175 5.62667 36.0802 5.536ZM41.7 4.568C41.7107 4.376 41.7267 4.18133 41.748 3.984C41.7587 3.92533 41.7827 3.88 41.82 3.848C41.8573 3.816 41.9053 3.80533 41.964 3.816C42.076 3.832 42.1853 3.85067 42.292 3.872C42.404 3.888 42.5187 3.896 42.636 3.896C42.7107 3.896 42.7827 3.888 42.852 3.872C42.9213 3.856 42.9827 3.82667 43.036 3.784C43.0947 3.74133 43.14 3.68267 43.172 3.608C43.2093 3.528 43.228 3.42667 43.228 3.304C43.228 3.18133 43.212 3.08267 43.18 3.008C43.148 2.928 43.1053 2.86667 43.052 2.824C42.9987 2.78133 42.9373 2.752 42.868 2.736C42.7987 2.72 42.7267 2.712 42.652 2.712C42.5453 2.712 42.4467 2.71733 42.356 2.728C42.2707 2.73867 42.1853 2.752 42.1 2.768C42.0413 2.77867 41.996 2.77067 41.964 2.744C41.932 2.712 41.9213 2.66667 41.932 2.608C41.948 2.48533 41.956 2.384 41.956 2.304C41.956 2.22933 41.9453 2.15467 41.924 2.08C41.908 2 41.8733 1.928 41.82 1.864C41.7667 1.79467 41.6893 1.73867 41.588 1.696C41.492 1.65333 41.3613 1.632 41.196 1.632C41.036 1.632 40.9053 1.65333 40.804 1.696C40.7027 1.73333 40.6253 1.784 40.572 1.848C40.5187 1.912 40.4813 1.984 40.46 2.064C40.444 2.13867 40.436 2.21333 40.436 2.288V2.52C40.436 2.62667 40.3747 2.70667 40.252 2.76C40.1773 2.79733 40.1187 2.85867 40.076 2.944C40.0387 3.024 40.0227 3.144 40.028 3.304C40.0333 3.49067 40.0627 3.62667 40.116 3.712C40.1693 3.792 40.2413 3.84533 40.332 3.872C40.4653 3.91467 40.532 3.98667 40.532 4.088C40.5373 4.17333 40.54 4.26133 40.54 4.352V4.632C40.54 4.82933 40.532 5.02667 40.516 5.224C40.5053 5.42133 40.5027 5.61067 40.508 5.792C40.5133 5.97333 40.532 6.144 40.564 6.304C40.6013 6.45867 40.6707 6.59467 40.772 6.712C40.8733 6.824 41.012 6.912 41.188 6.976C41.364 7.04 41.5933 7.072 41.876 7.072C41.972 7.072 42.0787 7.06667 42.196 7.056C42.3133 7.04533 42.4333 7.024 42.556 6.992C42.684 6.95467 42.8067 6.90667 42.924 6.848C43.0467 6.784 43.156 6.70133 43.252 6.6C43.332 6.52 43.3827 6.42667 43.404 6.32C43.4307 6.21333 43.436 6.10667 43.42 6C43.404 5.888 43.3693 5.78667 43.316 5.696C43.2627 5.6 43.1987 5.52533 43.124 5.472C43.0493 5.41333 42.964 5.384 42.868 5.384C42.7773 5.37867 42.6813 5.41333 42.58 5.488C42.4467 5.58933 42.3453 5.65067 42.276 5.672C42.2067 5.688 42.1267 5.68267 42.036 5.656C41.9453 5.62933 41.8733 5.56533 41.82 5.464C41.772 5.35733 41.7373 5.22933 41.716 5.08C41.7 4.92533 41.6947 4.75467 41.7 4.568ZM44.5044 4.016C44.3924 4.29333 44.3364 4.60267 44.3364 4.944C44.3364 5.32267 44.3924 5.648 44.5044 5.92C44.6164 6.18667 44.771 6.408 44.9684 6.584C45.171 6.75467 45.411 6.88 45.6884 6.96C45.971 7.04 46.2804 7.08 46.6164 7.08C46.9524 7.08 47.259 7.04 47.5364 6.96C47.819 6.88 48.059 6.75467 48.2564 6.584C48.459 6.408 48.6137 6.18667 48.7204 5.92C48.8324 5.648 48.8884 5.32267 48.8884 4.944C48.8884 4.60267 48.8324 4.29333 48.7204 4.016C48.6084 3.73333 48.451 3.49067 48.2484 3.288C48.0457 3.08533 47.8057 2.928 47.5284 2.816C47.251 2.704 46.947 2.648 46.6164 2.648C46.2857 2.648 45.979 2.704 45.6964 2.816C45.419 2.928 45.179 3.08533 44.9764 3.288C44.7737 3.49067 44.6164 3.73333 44.5044 4.016ZM45.6484 5.264C45.6217 5.14133 45.6084 5.01067 45.6084 4.872C45.6084 4.51467 45.6964 4.232 45.8724 4.024C46.0484 3.816 46.299 3.712 46.6244 3.712C46.9497 3.712 47.2004 3.816 47.3764 4.024C47.5524 4.232 47.6404 4.51467 47.6404 4.872C47.6404 5.01067 47.6244 5.14133 47.5924 5.264C47.5657 5.38667 47.5124 5.496 47.4324 5.592C47.3577 5.68267 47.2537 5.75733 47.1204 5.816C46.9924 5.86933 46.827 5.896 46.6244 5.896C46.4217 5.896 46.2537 5.86933 46.1204 5.816C45.9924 5.75733 45.8884 5.68267 45.8084 5.592C45.7337 5.496 45.6804 5.38667 45.6484 5.264ZM51.3407 4.6C51.346 4.568 51.3487 4.53867 51.3487 4.512C51.354 4.45333 51.3673 4.39467 51.3887 4.336C51.4153 4.272 51.45 4.21867 51.4927 4.176C51.5833 4.08533 51.674 4.02133 51.7647 3.984C51.8553 3.94667 51.9407 3.92533 52.0207 3.92C52.1007 3.90933 52.1754 3.912 52.2447 3.928C52.314 3.944 52.3727 3.96 52.4207 3.976C52.538 4.01333 52.65 4.02933 52.7567 4.024C52.8633 4.01867 52.9513 3.984 53.0207 3.92C53.1007 3.84533 53.1647 3.73867 53.2127 3.6C53.2607 3.46133 53.2687 3.32533 53.2367 3.192C53.21 3.05333 53.1327 2.936 53.0047 2.84C52.882 2.73867 52.6873 2.688 52.4207 2.688C52.2127 2.688 52.0313 2.74133 51.8767 2.848C51.7273 2.94933 51.5993 3.072 51.4927 3.216C51.4767 3.09333 51.4127 2.97867 51.3007 2.872C51.194 2.76533 51.0073 2.712 50.7407 2.712C50.586 2.712 50.458 2.73333 50.3567 2.776C50.2607 2.81333 50.1833 2.86133 50.1247 2.92C50.0714 2.97867 50.034 3.04267 50.0127 3.112C49.9913 3.18133 49.9807 3.248 49.9807 3.312C49.9807 3.408 49.9887 3.50933 50.0047 3.616C50.0207 3.72267 50.0393 3.83467 50.0607 3.952C50.082 4.06933 50.1007 4.192 50.1167 4.32C50.1327 4.44267 50.1407 4.56533 50.1407 4.688V5.032C50.1407 5.15467 50.1327 5.27733 50.1167 5.4C50.1007 5.52267 50.082 5.64267 50.0607 5.76C50.0393 5.87733 50.0207 5.98933 50.0047 6.096C49.9887 6.20267 49.9807 6.304 49.9807 6.4C49.9807 6.464 49.9913 6.53067 50.0127 6.6C50.034 6.66933 50.0714 6.736 50.1247 6.8C50.1833 6.85867 50.2607 6.90667 50.3567 6.944C50.458 6.98133 50.586 7 50.7407 7C50.8953 7 51.0207 6.98133 51.1167 6.944C51.2127 6.90667 51.29 6.85867 51.3487 6.8C51.4073 6.74133 51.4473 6.68 51.4687 6.616C51.49 6.54667 51.5007 6.48 51.5007 6.416C51.5007 6.192 51.474 5.968 51.4207 5.744C51.3673 5.51467 51.3407 5.27733 51.3407 5.032V4.688V4.6ZM55.5918 4C55.5331 3.95733 55.5038 3.912 55.5038 3.864C55.5038 3.784 55.5545 3.736 55.6558 3.72C55.7571 3.69867 55.8638 3.688 55.9758 3.688C56.0718 3.688 56.2158 3.70933 56.4078 3.752C56.6051 3.78933 56.8051 3.856 57.0078 3.952C57.1785 4.032 57.3305 4.048 57.4638 4C57.5971 3.94667 57.6905 3.864 57.7438 3.752C57.7971 3.64 57.7998 3.51467 57.7518 3.376C57.7091 3.23733 57.5971 3.12267 57.4158 3.032C57.3465 3 57.2558 2.96267 57.1438 2.92C57.0318 2.872 56.9065 2.82933 56.7678 2.792C56.6345 2.74933 56.4931 2.71467 56.3438 2.688C56.1945 2.66133 56.0478 2.648 55.9038 2.648C55.5998 2.648 55.3411 2.68267 55.1278 2.752C54.9145 2.82133 54.7385 2.912 54.5998 3.024C54.4665 3.136 54.3678 3.26133 54.3038 3.4C54.2451 3.53867 54.2158 3.68 54.2158 3.824C54.2158 4 54.2451 4.152 54.3038 4.28C54.3625 4.408 54.4531 4.52267 54.5758 4.624C54.7038 4.72533 54.8611 4.81867 55.0478 4.904C55.2345 4.984 55.4558 5.06667 55.7118 5.152C55.9945 5.24267 56.2078 5.32267 56.3518 5.392C56.4958 5.46133 56.5678 5.55467 56.5678 5.672C56.5678 5.73067 56.5518 5.776 56.5198 5.808C56.4878 5.83467 56.4505 5.856 56.4078 5.872C56.3651 5.88267 56.3225 5.89067 56.2798 5.896H56.1838C56.1411 5.896 56.0798 5.89333 55.9998 5.888C55.9251 5.87733 55.8371 5.85333 55.7358 5.816C55.6345 5.77867 55.5225 5.72533 55.3998 5.656C55.2771 5.58667 55.1465 5.49067 55.0078 5.368C54.9171 5.288 54.8185 5.24267 54.7118 5.232C54.6105 5.22133 54.5118 5.23733 54.4158 5.28C54.3251 5.32267 54.2425 5.38667 54.1678 5.472C54.0931 5.55733 54.0371 5.65067 53.9998 5.752C53.9678 5.848 53.9598 5.94933 53.9758 6.056C53.9918 6.15733 54.0398 6.25333 54.1198 6.344C54.2691 6.49867 54.4291 6.624 54.5998 6.72C54.7758 6.816 54.9545 6.89067 55.1358 6.944C55.3171 6.99733 55.4985 7.032 55.6798 7.048C55.8611 7.06933 56.0318 7.08 56.1918 7.08C56.3091 7.08 56.4611 7.06133 56.6478 7.024C56.8398 6.992 57.0238 6.92533 57.1998 6.824C57.3811 6.72267 57.5358 6.57867 57.6638 6.392C57.7971 6.20533 57.8638 5.96267 57.8638 5.664C57.8638 5.45067 57.8211 5.26933 57.7358 5.12C57.6505 4.96533 57.5411 4.83467 57.4078 4.728C57.2745 4.62133 57.1225 4.53333 56.9518 4.464C56.7865 4.39467 56.6238 4.336 56.4638 4.288C56.3571 4.256 56.2478 4.22667 56.1358 4.2C56.0238 4.168 55.9198 4.136 55.8238 4.104C55.7331 4.072 55.6558 4.03733 55.5918 4ZM61.9614 4.352C61.8708 4.66133 61.8254 4.96533 61.8254 5.264C61.8254 5.60533 61.8548 5.89333 61.9134 6.128C61.9774 6.35733 62.0708 6.544 62.1934 6.688C62.3161 6.82667 62.4654 6.928 62.6414 6.992C62.8228 7.05067 63.0334 7.08 63.2734 7.08C63.5881 7.08 63.8414 7.032 64.0334 6.936C64.2308 6.84 64.3961 6.71467 64.5294 6.56C64.5561 6.66667 64.6228 6.768 64.7294 6.864C64.8414 6.95467 65.0228 7 65.2734 7C65.4281 7 65.5534 6.98133 65.6494 6.944C65.7454 6.90667 65.8228 6.85867 65.8814 6.8C65.9401 6.74133 65.9801 6.68 66.0014 6.616C66.0228 6.54667 66.0334 6.48 66.0334 6.416C66.0334 6.192 66.0068 5.968 65.9534 5.744C65.9001 5.51467 65.8734 5.27733 65.8734 5.032V4.688C65.8734 4.43733 65.9001 4.2 65.9534 3.976C66.0068 3.74667 66.0334 3.52267 66.0334 3.304C66.0334 3.24 66.0228 3.17333 66.0014 3.104C65.9801 3.03467 65.9401 2.97067 65.8814 2.912C65.8228 2.85333 65.7454 2.80533 65.6494 2.768C65.5534 2.73067 65.4281 2.712 65.2734 2.712C65.0921 2.712 64.9508 2.73867 64.8494 2.792C64.7481 2.84 64.6708 2.90133 64.6174 2.976C64.4948 2.87467 64.3668 2.79467 64.2334 2.736C64.1001 2.67733 63.9401 2.648 63.7534 2.648C63.4601 2.648 63.1934 2.728 62.9534 2.888C62.7188 3.048 62.5161 3.25333 62.3454 3.504C62.1801 3.75467 62.0521 4.03733 61.9614 4.352ZM63.1614 5.536C63.1241 5.44533 63.1054 5.33067 63.1054 5.192C63.1054 5.032 63.1241 4.86667 63.1614 4.696C63.2041 4.52 63.2601 4.36 63.3294 4.216C63.4041 4.072 63.4894 3.952 63.5854 3.856C63.6868 3.76 63.7988 3.712 63.9214 3.712C64.0814 3.712 64.2094 3.73867 64.3054 3.792C64.4068 3.84533 64.4814 3.92267 64.5294 4.024C64.5828 4.12533 64.6174 4.248 64.6334 4.392C64.6494 4.536 64.6574 4.696 64.6574 4.872C64.6574 5.01067 64.6414 5.14133 64.6094 5.264C64.5774 5.38667 64.5268 5.496 64.4574 5.592C64.3934 5.68267 64.3108 5.75733 64.2094 5.816C64.1081 5.86933 63.9854 5.896 63.8414 5.896C63.7401 5.896 63.6441 5.88533 63.5534 5.864C63.4628 5.84267 63.3828 5.80533 63.3134 5.752C63.2494 5.69867 63.1988 5.62667 63.1614 5.536ZM68.5492 4.568C68.5492 4.53067 68.5519 4.49067 68.5572 4.448C68.5626 4.384 68.5786 4.32267 68.6052 4.264C68.6319 4.20533 68.6666 4.15467 68.7092 4.112C68.7946 4.02133 68.8799 3.95467 68.9652 3.912C69.0506 3.864 69.1306 3.832 69.2052 3.816C69.2799 3.79467 69.3492 3.78667 69.4132 3.792C69.4826 3.792 69.5412 3.79733 69.5892 3.808C69.8346 3.86133 69.9572 4.25333 69.9572 4.984V5.032C69.9572 5.15467 69.9492 5.27733 69.9332 5.4C69.9172 5.52267 69.8986 5.64267 69.8772 5.76C69.8559 5.87733 69.8372 5.98933 69.8212 6.096C69.8052 6.20267 69.7972 6.304 69.7972 6.4C69.7972 6.464 69.8079 6.53067 69.8292 6.6C69.8506 6.66933 69.8879 6.736 69.9412 6.8C69.9999 6.85867 70.0772 6.90667 70.1732 6.944C70.2746 6.98133 70.4026 7 70.5572 7C70.7119 7 70.8372 6.98133 70.9332 6.944C71.0292 6.90667 71.1066 6.85867 71.1652 6.8C71.2239 6.74133 71.2639 6.68 71.2852 6.616C71.3066 6.54667 71.3172 6.48 71.3172 6.416C71.3172 6.192 71.2906 5.968 71.2372 5.744C71.1839 5.51467 71.1572 5.27733 71.1572 5.032V4.984C71.1572 4.73333 71.1839 4.496 71.2372 4.272C71.2906 4.04267 71.3172 3.81867 71.3172 3.6C71.3172 3.36 71.2559 3.17333 71.1332 3.04C71.0106 2.90133 70.8586 2.8 70.6772 2.736C70.5012 2.672 70.3146 2.64 70.1172 2.64C69.9199 2.64 69.7466 2.656 69.5972 2.688C69.3999 2.73067 69.2292 2.80533 69.0852 2.912C68.9412 3.01867 68.8159 3.136 68.7092 3.264C68.7039 3.2 68.6879 3.136 68.6612 3.072C68.6346 3.008 68.5919 2.94933 68.5332 2.896C68.4746 2.84267 68.3946 2.8 68.2932 2.768C68.1972 2.73067 68.0772 2.712 67.9332 2.712C67.7786 2.712 67.6506 2.73333 67.5492 2.776C67.4532 2.81333 67.3759 2.86133 67.3172 2.92C67.2586 2.97867 67.2159 3.04267 67.1892 3.112C67.1679 3.18133 67.1572 3.248 67.1572 3.312C67.1572 3.408 67.1652 3.50933 67.1812 3.616C67.1972 3.72267 67.2159 3.83467 67.2372 3.952C67.2586 4.06933 67.2772 4.192 67.2932 4.32C67.3092 4.44267 67.3172 4.56533 67.3172 4.688V5.032C67.3172 5.15467 67.3092 5.27733 67.2932 5.4C67.2772 5.52267 67.2586 5.64267 67.2372 5.76C67.2159 5.87733 67.1972 5.98933 67.1812 6.096C67.1652 6.20267 67.1572 6.304 67.1572 6.4C67.1572 6.464 67.1679 6.53067 67.1892 6.6C67.2159 6.66933 67.2586 6.736 67.3172 6.8C67.3759 6.85867 67.4532 6.90667 67.5492 6.944C67.6506 6.98133 67.7786 7 67.9332 7C68.0879 7 68.2132 6.98133 68.3092 6.944C68.4106 6.90667 68.4906 6.85867 68.5492 6.8C68.6079 6.74133 68.6479 6.68 68.6692 6.616C68.6959 6.54667 68.7092 6.48 68.7092 6.416C68.7092 6.192 68.6826 5.968 68.6292 5.744C68.5759 5.51467 68.5492 5.27733 68.5492 5.032V4.688V4.568ZM75.4978 1.512C75.4978 1.784 75.5111 2.04 75.5378 2.28C75.5698 2.52 75.5991 2.76 75.6258 3C75.6365 3.08533 75.6018 3.10133 75.5218 3.048C75.3511 2.92533 75.1565 2.82933 74.9378 2.76C74.7191 2.68533 74.4711 2.648 74.1938 2.648C73.9645 2.648 73.7405 2.69333 73.5218 2.784C73.3085 2.87467 73.1191 3.016 72.9538 3.208C72.7885 3.4 72.6551 3.64533 72.5538 3.944C72.4578 4.24267 72.4098 4.60267 72.4098 5.024C72.4098 5.47733 72.4765 5.84 72.6098 6.112C72.7431 6.37867 72.9031 6.584 73.0898 6.728C73.2818 6.872 73.4791 6.96533 73.6818 7.008C73.8845 7.056 74.0551 7.08 74.1938 7.08C74.4711 7.08 74.7191 7.032 74.9378 6.936C75.1618 6.83467 75.3565 6.70667 75.5218 6.552C75.5485 6.66933 75.6151 6.77333 75.7218 6.864C75.8285 6.94933 76.0071 6.99467 76.2578 7C76.4178 7 76.5485 6.98133 76.6498 6.944C76.7511 6.90133 76.8285 6.848 76.8818 6.784C76.9351 6.72 76.9698 6.65067 76.9858 6.576C77.0071 6.496 77.0178 6.41867 77.0178 6.344C77.0178 6.136 77.0098 5.94133 76.9938 5.76C76.9778 5.57867 76.9591 5.40533 76.9378 5.24C76.9165 5.06933 76.8978 4.904 76.8818 4.744C76.8658 4.57867 76.8578 4.41067 76.8578 4.24V3.6C76.8578 3.42933 76.8658 3.264 76.8818 3.104C76.8978 2.93867 76.9165 2.77333 76.9378 2.608C76.9591 2.43733 76.9778 2.26133 76.9938 2.08C77.0098 1.89867 77.0178 1.704 77.0178 1.496C77.0178 1.42133 77.0071 1.34667 76.9858 1.272C76.9698 1.192 76.9351 1.12 76.8818 1.056C76.8285 0.992 76.7511 0.941333 76.6498 0.904C76.5485 0.861333 76.4178 0.84 76.2578 0.84C76.0925 0.84 75.9591 0.861333 75.8578 0.904C75.7618 0.946667 75.6871 1.00267 75.6338 1.072C75.5805 1.136 75.5431 1.208 75.5218 1.288C75.5058 1.36267 75.4978 1.43733 75.4978 1.512ZM73.7218 5.264C73.6951 5.14133 73.6818 5.01067 73.6818 4.872C73.6818 4.472 73.7618 4.17867 73.9218 3.992C74.0871 3.80533 74.3138 3.712 74.6018 3.712C74.7245 3.712 74.8498 3.73867 74.9778 3.792C75.1058 3.84533 75.2231 3.92267 75.3298 4.024C75.4365 4.12533 75.5218 4.248 75.5858 4.392C75.6551 4.536 75.6871 4.696 75.6818 4.872C75.6711 5.21867 75.5698 5.47733 75.3778 5.648C75.1858 5.81333 74.9271 5.896 74.6018 5.896C74.4205 5.896 74.2685 5.86933 74.1458 5.816C74.0285 5.75733 73.9351 5.68267 73.8658 5.592C73.7965 5.496 73.7485 5.38667 73.7218 5.264ZM82.4902 5.368C82.4475 5.07467 82.4182 4.78133 82.4022 4.488C82.3915 4.392 82.4182 4.30933 82.4822 4.24C82.6528 4.032 82.8182 3.90133 82.9782 3.848C83.1382 3.79467 83.2688 3.78133 83.3702 3.808C83.6155 3.86133 83.7382 4.25333 83.7382 4.984V5.032C83.7382 5.15467 83.7302 5.27733 83.7142 5.4C83.6982 5.52267 83.6795 5.64267 83.6582 5.76C83.6368 5.87733 83.6182 5.98933 83.6022 6.096C83.5862 6.20267 83.5782 6.304 83.5782 6.4C83.5782 6.464 83.5888 6.53067 83.6102 6.6C83.6315 6.66933 83.6688 6.736 83.7222 6.8C83.7808 6.85867 83.8582 6.90667 83.9542 6.944C84.0555 6.98133 84.1835 7 84.3382 7C84.4928 7 84.6182 6.98133 84.7142 6.944C84.8102 6.90667 84.8875 6.85867 84.9462 6.8C85.0048 6.74133 85.0448 6.68 85.0662 6.616C85.0875 6.54667 85.0982 6.48 85.0982 6.416C85.0982 6.192 85.0715 5.968 85.0182 5.744C84.9648 5.51467 84.9382 5.27733 84.9382 5.032V4.984C84.9382 4.73333 84.9648 4.496 85.0182 4.272C85.0715 4.04267 85.0982 3.81867 85.0982 3.6C85.0982 3.36 85.0368 3.17333 84.9142 3.04C84.7915 2.90133 84.6395 2.8 84.4582 2.736C84.2822 2.672 84.0955 2.64 83.8982 2.64C83.7008 2.64 83.5275 2.656 83.3782 2.688C83.1542 2.736 82.9622 2.81867 82.8022 2.936C82.6422 3.048 82.5089 3.17067 82.4022 3.304C82.4182 3.02133 82.4475 2.73867 82.4902 2.456C82.5328 2.17333 82.5542 1.85333 82.5542 1.496C82.5542 1.42133 82.5435 1.34667 82.5222 1.272C82.5062 1.192 82.4688 1.12 82.4102 1.056C82.3568 0.992 82.2795 0.941333 82.1782 0.904C82.0768 0.861333 81.9462 0.84 81.7862 0.84C81.6208 0.84 81.4875 0.861333 81.3862 0.904C81.2902 0.946667 81.2128 1.00267 81.1542 1.072C81.1008 1.136 81.0635 1.208 81.0422 1.288C81.0262 1.36267 81.0182 1.43733 81.0182 1.512C81.0182 1.69867 81.0262 1.88 81.0422 2.056C81.0582 2.232 81.0768 2.408 81.0982 2.584C81.1195 2.75467 81.1382 2.92533 81.1542 3.096C81.1702 3.26133 81.1782 3.42933 81.1782 3.6V4.24C81.1782 4.41067 81.1702 4.57867 81.1542 4.744C81.1382 4.904 81.1195 5.06667 81.0982 5.232C81.0768 5.39733 81.0582 5.57067 81.0422 5.752C81.0262 5.928 81.0182 6.12 81.0182 6.328C81.0182 6.40267 81.0262 6.48 81.0422 6.56C81.0635 6.63467 81.1008 6.70667 81.1542 6.776C81.2128 6.84 81.2902 6.89333 81.3862 6.936C81.4875 6.97867 81.6208 7 81.7862 7C81.9462 7 82.0768 6.98133 82.1782 6.944C82.2795 6.90133 82.3568 6.848 82.4102 6.784C82.4688 6.72 82.5062 6.65067 82.5222 6.576C82.5435 6.496 82.5542 6.41867 82.5542 6.344C82.5542 5.98133 82.5328 5.656 82.4902 5.368ZM86.3286 4.352C86.238 4.66133 86.1926 4.96533 86.1926 5.264C86.1926 5.60533 86.222 5.89333 86.2806 6.128C86.3446 6.35733 86.438 6.544 86.5606 6.688C86.6833 6.82667 86.8326 6.928 87.0086 6.992C87.19 7.05067 87.4006 7.08 87.6406 7.08C87.9553 7.08 88.2086 7.032 88.4006 6.936C88.598 6.84 88.7633 6.71467 88.8966 6.56C88.9233 6.66667 88.99 6.768 89.0966 6.864C89.2086 6.95467 89.39 7 89.6406 7C89.7953 7 89.9206 6.98133 90.0166 6.944C90.1126 6.90667 90.19 6.85867 90.2486 6.8C90.3073 6.74133 90.3473 6.68 90.3686 6.616C90.39 6.54667 90.4006 6.48 90.4006 6.416C90.4006 6.192 90.374 5.968 90.3206 5.744C90.2673 5.51467 90.2406 5.27733 90.2406 5.032V4.688C90.2406 4.43733 90.2673 4.2 90.3206 3.976C90.374 3.74667 90.4006 3.52267 90.4006 3.304C90.4006 3.24 90.39 3.17333 90.3686 3.104C90.3473 3.03467 90.3073 2.97067 90.2486 2.912C90.19 2.85333 90.1126 2.80533 90.0166 2.768C89.9206 2.73067 89.7953 2.712 89.6406 2.712C89.4593 2.712 89.318 2.73867 89.2166 2.792C89.1153 2.84 89.038 2.90133 88.9846 2.976C88.862 2.87467 88.734 2.79467 88.6006 2.736C88.4673 2.67733 88.3073 2.648 88.1206 2.648C87.8273 2.648 87.5606 2.728 87.3206 2.888C87.086 3.048 86.8833 3.25333 86.7126 3.504C86.5473 3.75467 86.4193 4.03733 86.3286 4.352ZM87.5286 5.536C87.4913 5.44533 87.4726 5.33067 87.4726 5.192C87.4726 5.032 87.4913 4.86667 87.5286 4.696C87.5713 4.52 87.6273 4.36 87.6966 4.216C87.7713 4.072 87.8566 3.952 87.9526 3.856C88.054 3.76 88.166 3.712 88.2886 3.712C88.4486 3.712 88.5766 3.73867 88.6726 3.792C88.774 3.84533 88.8486 3.92267 88.8966 4.024C88.95 4.12533 88.9846 4.248 89.0006 4.392C89.0166 4.536 89.0246 4.696 89.0246 4.872C89.0246 5.01067 89.0086 5.14133 88.9766 5.264C88.9446 5.38667 88.894 5.496 88.8246 5.592C88.7606 5.68267 88.678 5.75733 88.5766 5.816C88.4753 5.86933 88.3526 5.896 88.2086 5.896C88.1073 5.896 88.0113 5.88533 87.9206 5.864C87.83 5.84267 87.75 5.80533 87.6806 5.752C87.6166 5.69867 87.566 5.62667 87.5286 5.536ZM93.1484 4.568C93.1591 4.376 93.1751 4.18133 93.1964 3.984C93.2071 3.92533 93.2311 3.88 93.2684 3.848C93.3058 3.816 93.3538 3.80533 93.4124 3.816C93.5244 3.832 93.6338 3.85067 93.7404 3.872C93.8524 3.888 93.9671 3.896 94.0844 3.896C94.1591 3.896 94.2311 3.888 94.3004 3.872C94.3698 3.856 94.4311 3.82667 94.4844 3.784C94.5431 3.74133 94.5884 3.68267 94.6204 3.608C94.6578 3.528 94.6764 3.42667 94.6764 3.304C94.6764 3.18133 94.6604 3.08267 94.6284 3.008C94.5964 2.928 94.5538 2.86667 94.5004 2.824C94.4471 2.78133 94.3858 2.752 94.3164 2.736C94.2471 2.72 94.1751 2.712 94.1004 2.712C93.9938 2.712 93.8951 2.71733 93.8044 2.728C93.7191 2.73867 93.6338 2.752 93.5484 2.768C93.4898 2.77867 93.4444 2.77067 93.4124 2.744C93.3804 2.712 93.3698 2.66667 93.3804 2.608C93.3964 2.48533 93.4044 2.384 93.4044 2.304C93.4044 2.22933 93.3938 2.15467 93.3724 2.08C93.3564 2 93.3218 1.928 93.2684 1.864C93.2151 1.79467 93.1378 1.73867 93.0364 1.696C92.9404 1.65333 92.8098 1.632 92.6444 1.632C92.4844 1.632 92.3538 1.65333 92.2524 1.696C92.1511 1.73333 92.0738 1.784 92.0204 1.848C91.9671 1.912 91.9298 1.984 91.9084 2.064C91.8924 2.13867 91.8844 2.21333 91.8844 2.288V2.52C91.8844 2.62667 91.8231 2.70667 91.7004 2.76C91.6258 2.79733 91.5671 2.85867 91.5244 2.944C91.4871 3.024 91.4711 3.144 91.4764 3.304C91.4818 3.49067 91.5111 3.62667 91.5644 3.712C91.6178 3.792 91.6898 3.84533 91.7804 3.872C91.9138 3.91467 91.9804 3.98667 91.9804 4.088C91.9858 4.17333 91.9884 4.26133 91.9884 4.352V4.632C91.9884 4.82933 91.9804 5.02667 91.9644 5.224C91.9538 5.42133 91.9511 5.61067 91.9564 5.792C91.9618 5.97333 91.9804 6.144 92.0124 6.304C92.0498 6.45867 92.1191 6.59467 92.2204 6.712C92.3218 6.824 92.4604 6.912 92.6364 6.976C92.8124 7.04 93.0418 7.072 93.3244 7.072C93.4204 7.072 93.5271 7.06667 93.6444 7.056C93.7618 7.04533 93.8818 7.024 94.0044 6.992C94.1324 6.95467 94.2551 6.90667 94.3724 6.848C94.4951 6.784 94.6044 6.70133 94.7004 6.6C94.7804 6.52 94.8311 6.42667 94.8524 6.32C94.8791 6.21333 94.8844 6.10667 94.8684 6C94.8524 5.888 94.8178 5.78667 94.7644 5.696C94.7111 5.6 94.6471 5.52533 94.5724 5.472C94.4978 5.41333 94.4124 5.384 94.3164 5.384C94.2258 5.37867 94.1298 5.41333 94.0284 5.488C93.8951 5.58933 93.7938 5.65067 93.7244 5.672C93.6551 5.688 93.5751 5.68267 93.4844 5.656C93.3938 5.62933 93.3218 5.56533 93.2684 5.464C93.2204 5.35733 93.1858 5.22933 93.1644 5.08C93.1484 4.92533 93.1431 4.75467 93.1484 4.568ZM98.7003 3.76C98.8443 3.78667 99.0176 3.84533 99.2203 3.936C99.3003 3.97333 99.383 3.992 99.4683 3.992C99.591 3.992 99.6896 3.952 99.7643 3.872C99.839 3.792 99.8843 3.69867 99.9003 3.592C99.9163 3.48 99.903 3.37067 99.8603 3.264C99.8176 3.152 99.7403 3.06933 99.6283 3.016C99.5323 2.968 99.4363 2.92267 99.3403 2.88C99.2443 2.832 99.143 2.792 99.0363 2.76C98.935 2.728 98.823 2.70133 98.7003 2.68C98.5776 2.65867 98.4416 2.648 98.2923 2.648C97.9616 2.648 97.655 2.704 97.3723 2.816C97.0896 2.928 96.8443 3.08533 96.6363 3.288C96.4283 3.49067 96.2656 3.73333 96.1483 4.016C96.031 4.29333 95.9723 4.60267 95.9723 4.944C95.9723 5.32267 96.0283 5.648 96.1403 5.92C96.2576 6.18667 96.415 6.408 96.6123 6.584C96.815 6.75467 97.0523 6.88 97.3243 6.96C97.5963 7.04 97.8923 7.08 98.2123 7.08C98.3723 7.08 98.535 7.064 98.7003 7.032C98.871 7 99.0336 6.95733 99.1883 6.904C99.3483 6.84533 99.495 6.776 99.6283 6.696C99.7616 6.61067 99.871 6.52 99.9563 6.424C100.052 6.312 100.1 6.192 100.1 6.064C100.106 5.936 100.076 5.816 100.012 5.704C99.9536 5.592 99.871 5.49867 99.7643 5.424C99.663 5.34933 99.551 5.312 99.4283 5.312C99.295 5.312 99.175 5.35733 99.0683 5.448C98.9936 5.512 98.9243 5.57067 98.8603 5.624C98.8016 5.67733 98.7403 5.72533 98.6763 5.768C98.6176 5.80533 98.551 5.83733 98.4763 5.864C98.407 5.88533 98.3216 5.896 98.2203 5.896C98.039 5.896 97.887 5.86933 97.7643 5.816C97.6416 5.75733 97.5403 5.68267 97.4603 5.592C97.3856 5.496 97.3323 5.38667 97.3003 5.264C97.2683 5.14133 97.2523 5.01067 97.2523 4.872C97.2523 4.51467 97.3456 4.232 97.5323 4.024C97.719 3.816 97.975 3.712 98.3003 3.712C98.423 3.712 98.5563 3.728 98.7003 3.76ZM102.675 5.368C102.632 5.07467 102.603 4.78133 102.587 4.488C102.576 4.392 102.603 4.30933 102.667 4.24C102.837 4.032 103.003 3.90133 103.163 3.848C103.323 3.79467 103.453 3.78133 103.555 3.808C103.8 3.86133 103.923 4.25333 103.923 4.984V5.032C103.923 5.15467 103.915 5.27733 103.899 5.4C103.883 5.52267 103.864 5.64267 103.843 5.76C103.821 5.87733 103.803 5.98933 103.787 6.096C103.771 6.20267 103.763 6.304 103.763 6.4C103.763 6.464 103.773 6.53067 103.795 6.6C103.816 6.66933 103.853 6.736 103.907 6.8C103.965 6.85867 104.043 6.90667 104.139 6.944C104.24 6.98133 104.368 7 104.523 7C104.677 7 104.803 6.98133 104.899 6.944C104.995 6.90667 105.072 6.85867 105.131 6.8C105.189 6.74133 105.229 6.68 105.251 6.616C105.272 6.54667 105.283 6.48 105.283 6.416C105.283 6.192 105.256 5.968 105.203 5.744C105.149 5.51467 105.123 5.27733 105.123 5.032V4.984C105.123 4.73333 105.149 4.496 105.203 4.272C105.256 4.04267 105.283 3.81867 105.283 3.6C105.283 3.36 105.221 3.17333 105.099 3.04C104.976 2.90133 104.824 2.8 104.643 2.736C104.467 2.672 104.28 2.64 104.083 2.64C103.885 2.64 103.712 2.656 103.563 2.688C103.339 2.736 103.147 2.81867 102.987 2.936C102.827 3.048 102.693 3.17067 102.587 3.304C102.603 3.02133 102.632 2.73867 102.675 2.456C102.717 2.17333 102.739 1.85333 102.739 1.496C102.739 1.42133 102.728 1.34667 102.707 1.272C102.691 1.192 102.653 1.12 102.595 1.056C102.541 0.992 102.464 0.941333 102.363 0.904C102.261 0.861333 102.131 0.84 101.971 0.84C101.805 0.84 101.672 0.861333 101.571 0.904C101.475 0.946667 101.397 1.00267 101.339 1.072C101.285 1.136 101.248 1.208 101.227 1.288C101.211 1.36267 101.203 1.43733 101.203 1.512C101.203 1.69867 101.211 1.88 101.227 2.056C101.243 2.232 101.261 2.408 101.283 2.584C101.304 2.75467 101.323 2.92533 101.339 3.096C101.355 3.26133 101.363 3.42933 101.363 3.6V4.24C101.363 4.41067 101.355 4.57867 101.339 4.744C101.323 4.904 101.304 5.06667 101.283 5.232C101.261 5.39733 101.243 5.57067 101.227 5.752C101.211 5.928 101.203 6.12 101.203 6.328C101.203 6.40267 101.211 6.48 101.227 6.56C101.248 6.63467 101.285 6.70667 101.339 6.776C101.397 6.84 101.475 6.89333 101.571 6.936C101.672 6.97867 101.805 7 101.971 7C102.131 7 102.261 6.98133 102.363 6.944C102.464 6.90133 102.541 6.848 102.595 6.784C102.653 6.72 102.691 6.65067 102.707 6.576C102.728 6.496 102.739 6.41867 102.739 6.344C102.739 5.98133 102.717 5.656 102.675 5.368ZM110.911 5.712C110.916 5.69067 110.94 5.67467 110.983 5.664C111.239 5.59467 111.49 5.50933 111.735 5.408C111.98 5.30667 112.212 5.18933 112.431 5.056C112.655 4.92267 112.826 4.77067 112.943 4.6C113.066 4.42933 113.14 4.256 113.167 4.08C113.199 3.89867 113.186 3.72267 113.127 3.552C113.074 3.38133 112.98 3.22933 112.847 3.096C112.719 2.96267 112.554 2.856 112.351 2.776C112.148 2.69067 111.916 2.648 111.655 2.648C111.324 2.648 111.012 2.704 110.719 2.816C110.426 2.928 110.17 3.08533 109.951 3.288C109.738 3.49067 109.567 3.73333 109.439 4.016C109.316 4.29333 109.255 4.60267 109.255 4.944C109.255 5.32267 109.311 5.648 109.423 5.92C109.54 6.18667 109.698 6.408 109.895 6.584C110.098 6.75467 110.335 6.88 110.607 6.96C110.879 7.04 111.175 7.08 111.495 7.08C111.655 7.08 111.823 7.064 111.999 7.032C112.175 7 112.346 6.95733 112.511 6.904C112.682 6.84533 112.836 6.776 112.975 6.696C113.119 6.61067 113.234 6.52 113.319 6.424C113.415 6.312 113.463 6.192 113.463 6.064C113.468 5.936 113.439 5.816 113.375 5.704C113.316 5.592 113.234 5.49867 113.127 5.424C113.026 5.34933 112.914 5.312 112.791 5.312C112.658 5.312 112.538 5.35733 112.431 5.448C112.282 5.576 112.14 5.68267 112.007 5.768C111.874 5.85333 111.706 5.896 111.503 5.896C111.284 5.896 111.106 5.856 110.967 5.776C110.93 5.75467 110.911 5.73333 110.911 5.712ZM110.655 4.744C110.57 4.77067 110.532 4.73867 110.543 4.648C110.586 4.35467 110.698 4.12533 110.879 3.96C111.06 3.79467 111.295 3.712 111.583 3.712C111.663 3.712 111.727 3.73867 111.775 3.792C111.823 3.84 111.85 3.89867 111.855 3.968C111.866 4.03733 111.852 4.10667 111.815 4.176C111.783 4.24533 111.724 4.30133 111.639 4.344C111.452 4.43467 111.276 4.512 111.111 4.576C110.951 4.64 110.799 4.696 110.655 4.744ZM114.675 4.352C114.585 4.66133 114.539 4.96533 114.539 5.264C114.539 5.60533 114.569 5.89333 114.627 6.128C114.691 6.35733 114.785 6.544 114.907 6.688C115.03 6.82667 115.179 6.928 115.355 6.992C115.537 7.05067 115.747 7.08 115.987 7.08C116.302 7.08 116.555 7.032 116.747 6.936C116.945 6.84 117.11 6.71467 117.243 6.56C117.27 6.66667 117.337 6.768 117.443 6.864C117.555 6.95467 117.737 7 117.987 7C118.142 7 118.267 6.98133 118.363 6.944C118.459 6.90667 118.537 6.85867 118.595 6.8C118.654 6.74133 118.694 6.68 118.715 6.616C118.737 6.54667 118.747 6.48 118.747 6.416C118.747 6.192 118.721 5.968 118.667 5.744C118.614 5.51467 118.587 5.27733 118.587 5.032V4.688C118.587 4.43733 118.614 4.2 118.667 3.976C118.721 3.74667 118.747 3.52267 118.747 3.304C118.747 3.24 118.737 3.17333 118.715 3.104C118.694 3.03467 118.654 2.97067 118.595 2.912C118.537 2.85333 118.459 2.80533 118.363 2.768C118.267 2.73067 118.142 2.712 117.987 2.712C117.806 2.712 117.665 2.73867 117.563 2.792C117.462 2.84 117.385 2.90133 117.331 2.976C117.209 2.87467 117.081 2.79467 116.947 2.736C116.814 2.67733 116.654 2.648 116.467 2.648C116.174 2.648 115.907 2.728 115.667 2.888C115.433 3.048 115.23 3.25333 115.059 3.504C114.894 3.75467 114.766 4.03733 114.675 4.352ZM115.875 5.536C115.838 5.44533 115.819 5.33067 115.819 5.192C115.819 5.032 115.838 4.86667 115.875 4.696C115.918 4.52 115.974 4.36 116.043 4.216C116.118 4.072 116.203 3.952 116.299 3.856C116.401 3.76 116.513 3.712 116.635 3.712C116.795 3.712 116.923 3.73867 117.019 3.792C117.121 3.84533 117.195 3.92267 117.243 4.024C117.297 4.12533 117.331 4.248 117.347 4.392C117.363 4.536 117.371 4.696 117.371 4.872C117.371 5.01067 117.355 5.14133 117.323 5.264C117.291 5.38667 117.241 5.496 117.171 5.592C117.107 5.68267 117.025 5.75733 116.923 5.816C116.822 5.86933 116.699 5.896 116.555 5.896C116.454 5.896 116.358 5.88533 116.267 5.864C116.177 5.84267 116.097 5.80533 116.027 5.752C115.963 5.69867 115.913 5.62667 115.875 5.536ZM121.231 4.6C121.237 4.568 121.239 4.53867 121.239 4.512C121.245 4.45333 121.258 4.39467 121.279 4.336C121.306 4.272 121.341 4.21867 121.383 4.176C121.474 4.08533 121.565 4.02133 121.655 3.984C121.746 3.94667 121.831 3.92533 121.911 3.92C121.991 3.90933 122.066 3.912 122.135 3.928C122.205 3.944 122.263 3.96 122.311 3.976C122.429 4.01333 122.541 4.02933 122.647 4.024C122.754 4.01867 122.842 3.984 122.911 3.92C122.991 3.84533 123.055 3.73867 123.103 3.6C123.151 3.46133 123.159 3.32533 123.127 3.192C123.101 3.05333 123.023 2.936 122.895 2.84C122.773 2.73867 122.578 2.688 122.311 2.688C122.103 2.688 121.922 2.74133 121.767 2.848C121.618 2.94933 121.49 3.072 121.383 3.216C121.367 3.09333 121.303 2.97867 121.191 2.872C121.085 2.76533 120.898 2.712 120.631 2.712C120.477 2.712 120.349 2.73333 120.247 2.776C120.151 2.81333 120.074 2.86133 120.015 2.92C119.962 2.97867 119.925 3.04267 119.903 3.112C119.882 3.18133 119.871 3.248 119.871 3.312C119.871 3.408 119.879 3.50933 119.895 3.616C119.911 3.72267 119.93 3.83467 119.951 3.952C119.973 4.06933 119.991 4.192 120.007 4.32C120.023 4.44267 120.031 4.56533 120.031 4.688V5.032C120.031 5.15467 120.023 5.27733 120.007 5.4C119.991 5.52267 119.973 5.64267 119.951 5.76C119.93 5.87733 119.911 5.98933 119.895 6.096C119.879 6.20267 119.871 6.304 119.871 6.4C119.871 6.464 119.882 6.53067 119.903 6.6C119.925 6.66933 119.962 6.736 120.015 6.8C120.074 6.85867 120.151 6.90667 120.247 6.944C120.349 6.98133 120.477 7 120.631 7C120.786 7 120.911 6.98133 121.007 6.944C121.103 6.90667 121.181 6.85867 121.239 6.8C121.298 6.74133 121.338 6.68 121.359 6.616C121.381 6.54667 121.391 6.48 121.391 6.416C121.391 6.192 121.365 5.968 121.311 5.744C121.258 5.51467 121.231 5.27733 121.231 5.032V4.688V4.6ZM124.385 3.096C124.401 3.26133 124.409 3.42933 124.409 3.6V4.24C124.409 4.41067 124.401 4.57867 124.385 4.744C124.369 4.904 124.351 5.06667 124.329 5.232C124.308 5.39733 124.289 5.57067 124.273 5.752C124.257 5.928 124.249 6.12 124.249 6.328C124.249 6.40267 124.257 6.48 124.273 6.56C124.295 6.63467 124.332 6.70667 124.385 6.776C124.444 6.84 124.521 6.89333 124.617 6.936C124.719 6.97867 124.852 7 125.017 7C125.177 7 125.308 6.98133 125.409 6.944C125.511 6.90133 125.588 6.848 125.641 6.784C125.7 6.72 125.737 6.65067 125.753 6.576C125.775 6.496 125.785 6.41867 125.785 6.344C125.785 6.136 125.777 5.94133 125.761 5.76C125.745 5.57867 125.727 5.40533 125.705 5.24C125.684 5.06933 125.665 4.904 125.649 4.744C125.633 4.57867 125.625 4.41067 125.625 4.24V3.6C125.625 3.42933 125.633 3.264 125.649 3.104C125.665 2.93867 125.684 2.77333 125.705 2.608C125.727 2.43733 125.745 2.26133 125.761 2.08C125.777 1.89867 125.785 1.704 125.785 1.496C125.785 1.42133 125.775 1.34667 125.753 1.272C125.737 1.192 125.7 1.12 125.641 1.056C125.588 0.992 125.511 0.941333 125.409 0.904C125.308 0.861333 125.177 0.84 125.017 0.84C124.852 0.84 124.719 0.861333 124.617 0.904C124.521 0.946667 124.444 1.00267 124.385 1.072C124.332 1.136 124.295 1.208 124.273 1.288C124.257 1.36267 124.249 1.43733 124.249 1.512C124.249 1.69867 124.257 1.88 124.273 2.056C124.289 2.232 124.308 2.408 124.329 2.584C124.351 2.75467 124.369 2.92533 124.385 3.096ZM129.533 4.8C129.554 4.93333 129.567 5.06133 129.573 5.184C129.573 5.31733 129.533 5.432 129.453 5.528C129.293 5.71467 129.141 5.832 128.997 5.88C128.853 5.92267 128.73 5.93333 128.629 5.912C128.383 5.85867 128.261 5.46667 128.261 4.736V4.688C128.261 4.56533 128.269 4.44267 128.285 4.32C128.301 4.19733 128.319 4.07733 128.341 3.96C128.362 3.84267 128.381 3.73067 128.397 3.624C128.413 3.51733 128.421 3.416 128.421 3.32C128.421 3.256 128.41 3.18933 128.389 3.12C128.367 3.05067 128.327 2.98667 128.269 2.928C128.215 2.864 128.138 2.81333 128.037 2.776C127.941 2.73867 127.815 2.72 127.661 2.72C127.511 2.72 127.386 2.73867 127.285 2.776C127.189 2.81333 127.111 2.86133 127.053 2.92C126.994 2.97867 126.954 3.04267 126.933 3.112C126.911 3.176 126.901 3.24 126.901 3.304C126.901 3.528 126.927 3.75467 126.981 3.984C127.034 4.208 127.061 4.44267 127.061 4.688V4.736C127.061 4.98667 127.05 5.21333 127.029 5.416C127.007 5.61333 126.997 5.82133 126.997 6.04C126.997 6.232 127.034 6.39467 127.109 6.528C127.189 6.66133 127.287 6.768 127.405 6.848C127.527 6.928 127.661 6.984 127.805 7.016C127.954 7.05333 128.101 7.072 128.245 7.072C128.351 7.072 128.466 7.06133 128.589 7.04C128.711 7.01867 128.831 6.98933 128.949 6.952C129.071 6.91467 129.189 6.86933 129.301 6.816C129.413 6.76267 129.511 6.70667 129.597 6.648C129.591 6.78133 129.573 6.91467 129.541 7.048C129.509 7.18667 129.455 7.30933 129.381 7.416C129.311 7.528 129.218 7.616 129.101 7.68C128.983 7.74933 128.834 7.784 128.653 7.784C128.482 7.784 128.303 7.768 128.117 7.736C127.935 7.70933 127.719 7.63467 127.469 7.512C127.341 7.45333 127.226 7.424 127.125 7.424C127.007 7.424 126.901 7.45333 126.805 7.512C126.714 7.57067 126.645 7.64533 126.597 7.736C126.549 7.82667 126.527 7.928 126.533 8.04C126.538 8.152 126.578 8.25867 126.653 8.36C126.807 8.57333 127.039 8.74667 127.349 8.88C127.658 9.01333 128.013 9.08 128.413 9.08C128.818 9.08 129.157 9.04533 129.429 8.976C129.706 8.90667 129.933 8.808 130.109 8.68C130.285 8.55733 130.418 8.408 130.509 8.232C130.605 8.06133 130.671 7.87467 130.709 7.672C130.751 7.46933 130.775 7.25333 130.781 7.024C130.786 6.79467 130.789 6.56 130.789 6.32V5.52C130.789 5.34933 130.794 5.184 130.805 5.024L130.837 4.528C130.853 4.35733 130.866 4.18133 130.877 4C130.887 3.81867 130.893 3.624 130.893 3.416C130.893 3.34133 130.882 3.264 130.861 3.184C130.845 3.104 130.81 3.032 130.757 2.968C130.703 2.89867 130.629 2.84267 130.533 2.8C130.437 2.75733 130.309 2.736 130.149 2.736C129.909 2.736 129.719 2.78933 129.581 2.896C129.442 3.00267 129.373 3.18133 129.373 3.432C129.373 3.59733 129.381 3.75733 129.397 3.912C129.418 4.06667 129.439 4.21867 129.461 4.368C129.487 4.51733 129.511 4.66133 129.533 4.8ZM2.83124 13.568C2.84191 13.376 2.85791 13.1813 2.87924 12.984C2.88991 12.9253 2.91391 12.88 2.95124 12.848C2.98858 12.816 3.03658 12.8053 3.09524 12.816C3.20724 12.832 3.31658 12.8507 3.42324 12.872C3.53524 12.888 3.64991 12.896 3.76724 12.896C3.84191 12.896 3.91391 12.888 3.98324 12.872C4.05258 12.856 4.11391 12.8267 4.16724 12.784C4.22591 12.7413 4.27124 12.6827 4.30324 12.608C4.34058 12.528 4.35924 12.4267 4.35924 12.304C4.35924 12.1813 4.34324 12.0827 4.31124 12.008C4.27924 11.928 4.23658 11.8667 4.18324 11.824C4.12991 11.7813 4.06858 11.752 3.99924 11.736C3.92991 11.72 3.85791 11.712 3.78324 11.712C3.67658 11.712 3.57791 11.7173 3.48724 11.728C3.40191 11.7387 3.31658 11.752 3.23124 11.768C3.17258 11.7787 3.12724 11.7707 3.09524 11.744C3.06324 11.712 3.05258 11.6667 3.06324 11.608C3.07924 11.4853 3.08724 11.384 3.08724 11.304C3.08724 11.2293 3.07658 11.1547 3.05524 11.08C3.03924 11 3.00458 10.928 2.95124 10.864C2.89791 10.7947 2.82058 10.7387 2.71924 10.696C2.62324 10.6533 2.49258 10.632 2.32724 10.632C2.16724 10.632 2.03658 10.6533 1.93524 10.696C1.83391 10.7333 1.75658 10.784 1.70324 10.848C1.64991 10.912 1.61258 10.984 1.59124 11.064C1.57524 11.1387 1.56724 11.2133 1.56724 11.288V11.52C1.56724 11.6267 1.50591 11.7067 1.38324 11.76C1.30858 11.7973 1.24991 11.8587 1.20724 11.944C1.16991 12.024 1.15391 12.144 1.15924 12.304C1.16458 12.4907 1.19391 12.6267 1.24724 12.712C1.30058 12.792 1.37258 12.8453 1.46324 12.872C1.59658 12.9147 1.66324 12.9867 1.66324 13.088C1.66858 13.1733 1.67124 13.2613 1.67124 13.352V13.632C1.67124 13.8293 1.66324 14.0267 1.64724 14.224C1.63658 14.4213 1.63391 14.6107 1.63924 14.792C1.64458 14.9733 1.66324 15.144 1.69524 15.304C1.73258 15.4587 1.80191 15.5947 1.90324 15.712C2.00458 15.824 2.14324 15.912 2.31924 15.976C2.49524 16.04 2.72458 16.072 3.00724 16.072C3.10324 16.072 3.20991 16.0667 3.32724 16.056C3.44458 16.0453 3.56458 16.024 3.68724 15.992C3.81524 15.9547 3.93791 15.9067 4.05524 15.848C4.17791 15.784 4.28724 15.7013 4.38324 15.6C4.46324 15.52 4.51391 15.4267 4.53524 15.32C4.56191 15.2133 4.56724 15.1067 4.55124 15C4.53524 14.888 4.50058 14.7867 4.44724 14.696C4.39391 14.6 4.32991 14.5253 4.25524 14.472C4.18058 14.4133 4.09524 14.384 3.99924 14.384C3.90858 14.3787 3.81258 14.4133 3.71124 14.488C3.57791 14.5893 3.47658 14.6507 3.40724 14.672C3.33791 14.688 3.25791 14.6827 3.16724 14.656C3.07658 14.6293 3.00458 14.5653 2.95124 14.464C2.90324 14.3573 2.86858 14.2293 2.84724 14.08C2.83124 13.9253 2.82591 13.7547 2.83124 13.568ZM5.63562 13.016C5.52362 13.2933 5.46762 13.6027 5.46762 13.944C5.46762 14.3227 5.52362 14.648 5.63562 14.92C5.74762 15.1867 5.90229 15.408 6.09962 15.584C6.30229 15.7547 6.54229 15.88 6.81962 15.96C7.10229 16.04 7.41162 16.08 7.74762 16.08C8.08362 16.08 8.39029 16.04 8.66762 15.96C8.95029 15.88 9.19029 15.7547 9.38762 15.584C9.59029 15.408 9.74495 15.1867 9.85162 14.92C9.96362 14.648 10.0196 14.3227 10.0196 13.944C10.0196 13.6027 9.96362 13.2933 9.85162 13.016C9.73962 12.7333 9.58229 12.4907 9.37962 12.288C9.17695 12.0853 8.93695 11.928 8.65962 11.816C8.38229 11.704 8.07829 11.648 7.74762 11.648C7.41695 11.648 7.11029 11.704 6.82762 11.816C6.55029 11.928 6.31029 12.0853 6.10762 12.288C5.90495 12.4907 5.74762 12.7333 5.63562 13.016ZM6.77962 14.264C6.75295 14.1413 6.73962 14.0107 6.73962 13.872C6.73962 13.5147 6.82762 13.232 7.00362 13.024C7.17962 12.816 7.43029 12.712 7.75562 12.712C8.08095 12.712 8.33162 12.816 8.50762 13.024C8.68362 13.232 8.77162 13.5147 8.77162 13.872C8.77162 14.0107 8.75562 14.1413 8.72362 14.264C8.69695 14.3867 8.64362 14.496 8.56362 14.592C8.48895 14.6827 8.38495 14.7573 8.25162 14.816C8.12362 14.8693 7.95829 14.896 7.75562 14.896C7.55295 14.896 7.38495 14.8693 7.25162 14.816C7.12362 14.7573 7.01962 14.6827 6.93962 14.592C6.86495 14.496 6.81162 14.3867 6.77962 14.264ZM15.6221 14.712C15.6274 14.6907 15.6514 14.6747 15.6941 14.664C15.9501 14.5947 16.2007 14.5093 16.4461 14.408C16.6914 14.3067 16.9234 14.1893 17.1421 14.056C17.3661 13.9227 17.5367 13.7707 17.6541 13.6C17.7767 13.4293 17.8514 13.256 17.8781 13.08C17.9101 12.8987 17.8967 12.7227 17.8381 12.552C17.7847 12.3813 17.6914 12.2293 17.5581 12.096C17.4301 11.9627 17.2647 11.856 17.0621 11.776C16.8594 11.6907 16.6274 11.648 16.3661 11.648C16.0354 11.648 15.7234 11.704 15.4301 11.816C15.1367 11.928 14.8807 12.0853 14.6621 12.288C14.4487 12.4907 14.2781 12.7333 14.1501 13.016C14.0274 13.2933 13.9661 13.6027 13.9661 13.944C13.9661 14.3227 14.0221 14.648 14.1341 14.92C14.2514 15.1867 14.4087 15.408 14.6061 15.584C14.8087 15.7547 15.0461 15.88 15.3181 15.96C15.5901 16.04 15.8861 16.08 16.2061 16.08C16.3661 16.08 16.5341 16.064 16.7101 16.032C16.8861 16 17.0567 15.9573 17.2221 15.904C17.3927 15.8453 17.5474 15.776 17.6861 15.696C17.8301 15.6107 17.9447 15.52 18.0301 15.424C18.1261 15.312 18.1741 15.192 18.1741 15.064C18.1794 14.936 18.1501 14.816 18.0861 14.704C18.0274 14.592 17.9447 14.4987 17.8381 14.424C17.7367 14.3493 17.6247 14.312 17.5021 14.312C17.3687 14.312 17.2487 14.3573 17.1421 14.448C16.9927 14.576 16.8514 14.6827 16.7181 14.768C16.5847 14.8533 16.4167 14.896 16.2141 14.896C15.9954 14.896 15.8167 14.856 15.6781 14.776C15.6407 14.7547 15.6221 14.7333 15.6221 14.712ZM15.3661 13.744C15.2807 13.7707 15.2434 13.7387 15.2541 13.648C15.2967 13.3547 15.4087 13.1253 15.5901 12.96C15.7714 12.7947 16.0061 12.712 16.2941 12.712C16.3741 12.712 16.4381 12.7387 16.4861 12.792C16.5341 12.84 16.5607 12.8987 16.5661 12.968C16.5767 13.0373 16.5634 13.1067 16.5261 13.176C16.4941 13.2453 16.4354 13.3013 16.3501 13.344C16.1634 13.4347 15.9874 13.512 15.8221 13.576C15.6621 13.64 15.5101 13.696 15.3661 13.744ZM20.8824 13C20.8238 12.9573 20.7944 12.912 20.7944 12.864C20.7944 12.784 20.8451 12.736 20.9464 12.72C21.0478 12.6987 21.1544 12.688 21.2664 12.688C21.3624 12.688 21.5064 12.7093 21.6984 12.752C21.8958 12.7893 22.0958 12.856 22.2984 12.952C22.4691 13.032 22.6211 13.048 22.7544 13C22.8878 12.9467 22.9811 12.864 23.0344 12.752C23.0878 12.64 23.0904 12.5147 23.0424 12.376C22.9998 12.2373 22.8878 12.1227 22.7064 12.032C22.6371 12 22.5464 11.9627 22.4344 11.92C22.3224 11.872 22.1971 11.8293 22.0584 11.792C21.9251 11.7493 21.7838 11.7147 21.6344 11.688C21.4851 11.6613 21.3384 11.648 21.1944 11.648C20.8904 11.648 20.6318 11.6827 20.4184 11.752C20.2051 11.8213 20.0291 11.912 19.8904 12.024C19.7571 12.136 19.6584 12.2613 19.5944 12.4C19.5358 12.5387 19.5064 12.68 19.5064 12.824C19.5064 13 19.5358 13.152 19.5944 13.28C19.6531 13.408 19.7438 13.5227 19.8664 13.624C19.9944 13.7253 20.1518 13.8187 20.3384 13.904C20.5251 13.984 20.7464 14.0667 21.0024 14.152C21.2851 14.2427 21.4984 14.3227 21.6424 14.392C21.7864 14.4613 21.8584 14.5547 21.8584 14.672C21.8584 14.7307 21.8424 14.776 21.8104 14.808C21.7784 14.8347 21.7411 14.856 21.6984 14.872C21.6558 14.8827 21.6131 14.8907 21.5704 14.896H21.4744C21.4318 14.896 21.3704 14.8933 21.2904 14.888C21.2158 14.8773 21.1278 14.8533 21.0264 14.816C20.9251 14.7787 20.8131 14.7253 20.6904 14.656C20.5678 14.5867 20.4371 14.4907 20.2984 14.368C20.2078 14.288 20.1091 14.2427 20.0024 14.232C19.9011 14.2213 19.8024 14.2373 19.7064 14.28C19.6158 14.3227 19.5331 14.3867 19.4584 14.472C19.3838 14.5573 19.3278 14.6507 19.2904 14.752C19.2584 14.848 19.2504 14.9493 19.2664 15.056C19.2824 15.1573 19.3304 15.2533 19.4104 15.344C19.5598 15.4987 19.7198 15.624 19.8904 15.72C20.0664 15.816 20.2451 15.8907 20.4264 15.944C20.6078 15.9973 20.7891 16.032 20.9704 16.048C21.1518 16.0693 21.3224 16.08 21.4824 16.08C21.5998 16.08 21.7518 16.0613 21.9384 16.024C22.1304 15.992 22.3144 15.9253 22.4904 15.824C22.6718 15.7227 22.8264 15.5787 22.9544 15.392C23.0878 15.2053 23.1544 14.9627 23.1544 14.664C23.1544 14.4507 23.1118 14.2693 23.0264 14.12C22.9411 13.9653 22.8318 13.8347 22.6984 13.728C22.5651 13.6213 22.4131 13.5333 22.2424 13.464C22.0771 13.3947 21.9144 13.336 21.7544 13.288C21.6478 13.256 21.5384 13.2267 21.4264 13.2C21.3144 13.168 21.2104 13.136 21.1144 13.104C21.0238 13.072 20.9464 13.0373 20.8824 13ZM26.9659 12.76C27.1099 12.7867 27.2833 12.8453 27.4859 12.936C27.5659 12.9733 27.6486 12.992 27.7339 12.992C27.8566 12.992 27.9553 12.952 28.0299 12.872C28.1046 12.792 28.1499 12.6987 28.1659 12.592C28.1819 12.48 28.1686 12.3707 28.1259 12.264C28.0833 12.152 28.0059 12.0693 27.8939 12.016C27.7979 11.968 27.7019 11.9227 27.6059 11.88C27.5099 11.832 27.4086 11.792 27.3019 11.76C27.2006 11.728 27.0886 11.7013 26.9659 11.68C26.8433 11.6587 26.7073 11.648 26.5579 11.648C26.2273 11.648 25.9206 11.704 25.6379 11.816C25.3553 11.928 25.1099 12.0853 24.9019 12.288C24.6939 12.4907 24.5313 12.7333 24.4139 13.016C24.2966 13.2933 24.2379 13.6027 24.2379 13.944C24.2379 14.3227 24.2939 14.648 24.4059 14.92C24.5233 15.1867 24.6806 15.408 24.8779 15.584C25.0806 15.7547 25.3179 15.88 25.5899 15.96C25.8619 16.04 26.1579 16.08 26.4779 16.08C26.6379 16.08 26.8006 16.064 26.9659 16.032C27.1366 16 27.2993 15.9573 27.4539 15.904C27.6139 15.8453 27.7606 15.776 27.8939 15.696C28.0273 15.6107 28.1366 15.52 28.2219 15.424C28.3179 15.312 28.3659 15.192 28.3659 15.064C28.3713 14.936 28.3419 14.816 28.2779 14.704C28.2193 14.592 28.1366 14.4987 28.0299 14.424C27.9286 14.3493 27.8166 14.312 27.6939 14.312C27.5606 14.312 27.4406 14.3573 27.3339 14.448C27.2593 14.512 27.1899 14.5707 27.1259 14.624C27.0673 14.6773 27.0059 14.7253 26.9419 14.768C26.8833 14.8053 26.8166 14.8373 26.7419 14.864C26.6726 14.8853 26.5873 14.896 26.4859 14.896C26.3046 14.896 26.1526 14.8693 26.0299 14.816C25.9073 14.7573 25.8059 14.6827 25.7259 14.592C25.6513 14.496 25.5979 14.3867 25.5659 14.264C25.5339 14.1413 25.5179 14.0107 25.5179 13.872C25.5179 13.5147 25.6113 13.232 25.7979 13.024C25.9846 12.816 26.2406 12.712 26.5659 12.712C26.6886 12.712 26.8219 12.728 26.9659 12.76ZM29.5802 13.352C29.4895 13.6613 29.4442 13.9653 29.4442 14.264C29.4442 14.6053 29.4735 14.8933 29.5322 15.128C29.5962 15.3573 29.6895 15.544 29.8122 15.688C29.9348 15.8267 30.0842 15.928 30.2602 15.992C30.4415 16.0507 30.6522 16.08 30.8922 16.08C31.2068 16.08 31.4602 16.032 31.6522 15.936C31.8495 15.84 32.0148 15.7147 32.1482 15.56C32.1748 15.6667 32.2415 15.768 32.3482 15.864C32.4602 15.9547 32.6415 16 32.8922 16C33.0468 16 33.1722 15.9813 33.2682 15.944C33.3642 15.9067 33.4415 15.8587 33.5002 15.8C33.5588 15.7413 33.5988 15.68 33.6202 15.616C33.6415 15.5467 33.6522 15.48 33.6522 15.416C33.6522 15.192 33.6255 14.968 33.5722 14.744C33.5188 14.5147 33.4922 14.2773 33.4922 14.032V13.688C33.4922 13.4373 33.5188 13.2 33.5722 12.976C33.6255 12.7467 33.6522 12.5227 33.6522 12.304C33.6522 12.24 33.6415 12.1733 33.6202 12.104C33.5988 12.0347 33.5588 11.9707 33.5002 11.912C33.4415 11.8533 33.3642 11.8053 33.2682 11.768C33.1722 11.7307 33.0468 11.712 32.8922 11.712C32.7108 11.712 32.5695 11.7387 32.4682 11.792C32.3668 11.84 32.2895 11.9013 32.2362 11.976C32.1135 11.8747 31.9855 11.7947 31.8522 11.736C31.7188 11.6773 31.5588 11.648 31.3722 11.648C31.0788 11.648 30.8122 11.728 30.5722 11.888C30.3375 12.048 30.1348 12.2533 29.9642 12.504C29.7988 12.7547 29.6708 13.0373 29.5802 13.352ZM30.7802 14.536C30.7428 14.4453 30.7242 14.3307 30.7242 14.192C30.7242 14.032 30.7428 13.8667 30.7802 13.696C30.8228 13.52 30.8788 13.36 30.9482 13.216C31.0228 13.072 31.1082 12.952 31.2042 12.856C31.3055 12.76 31.4175 12.712 31.5402 12.712C31.7002 12.712 31.8282 12.7387 31.9242 12.792C32.0255 12.8453 32.1002 12.9227 32.1482 13.024C32.2015 13.1253 32.2362 13.248 32.2522 13.392C32.2682 13.536 32.2762 13.696 32.2762 13.872C32.2762 14.0107 32.2602 14.1413 32.2282 14.264C32.1962 14.3867 32.1455 14.496 32.0762 14.592C32.0122 14.6827 31.9295 14.7573 31.8282 14.816C31.7268 14.8693 31.6042 14.896 31.4602 14.896C31.3588 14.896 31.2628 14.8853 31.1722 14.864C31.0815 14.8427 31.0015 14.8053 30.9322 14.752C30.8682 14.6987 30.8175 14.6267 30.7802 14.536ZM39.232 14.808C39.3333 14.5093 39.384 14.1493 39.384 13.728C39.384 13.2747 39.3173 12.9147 39.184 12.648C39.0507 12.376 38.888 12.168 38.696 12.024C38.5093 11.88 38.3147 11.7867 38.112 11.744C37.9093 11.696 37.7387 11.672 37.6 11.672C37.312 11.672 37.0587 11.7227 36.84 11.824C36.6213 11.9253 36.4347 12.0587 36.28 12.224C36.2427 12.032 36.1493 11.904 36 11.84C35.856 11.7707 35.6933 11.736 35.512 11.736C35.3573 11.736 35.232 11.7573 35.136 11.8C35.04 11.8373 34.9653 11.888 34.912 11.952C34.8587 12.016 34.8213 12.088 34.8 12.168C34.784 12.2427 34.776 12.3173 34.776 12.392C34.776 12.6 34.784 12.7947 34.8 12.976C34.816 13.1573 34.8347 13.3333 34.856 13.504C34.8773 13.6693 34.896 13.8347 34.912 14C34.928 14.16 34.936 14.3253 34.936 14.496V15.232C34.936 15.4027 34.928 15.5707 34.912 15.736C34.896 15.896 34.8773 16.0587 34.856 16.224C34.8347 16.3947 34.816 16.5707 34.8 16.752C34.784 16.9333 34.776 17.128 34.776 17.336C34.776 17.4107 34.784 17.4853 34.8 17.56C34.8213 17.64 34.8587 17.712 34.912 17.776C34.9653 17.84 35.04 17.8907 35.136 17.928C35.232 17.9707 35.3573 17.992 35.512 17.992C35.752 17.992 35.9413 17.9413 36.08 17.84C36.224 17.744 36.296 17.5707 36.296 17.32C36.296 17.0213 36.2773 16.7387 36.24 16.472C36.2027 16.2107 36.1733 15.9467 36.152 15.68C36.328 15.808 36.536 15.912 36.776 15.992C37.016 16.0667 37.2907 16.104 37.6 16.104C37.8347 16.104 38.0587 16.0587 38.272 15.968C38.4853 15.8773 38.6747 15.736 38.84 15.544C39.0053 15.352 39.136 15.1067 39.232 14.808ZM38.072 13.488C38.0987 13.6107 38.112 13.7413 38.112 13.88C38.112 14.2747 38.0293 14.5547 37.864 14.72C37.6987 14.88 37.4747 14.96 37.192 14.96C37.0693 14.96 36.944 14.9387 36.816 14.896C36.688 14.848 36.5707 14.7787 36.464 14.688C36.3627 14.5973 36.28 14.4853 36.216 14.352C36.152 14.2133 36.1227 14.056 36.128 13.88C36.1333 13.7467 36.16 13.6187 36.208 13.496C36.2613 13.3733 36.3333 13.264 36.424 13.168C36.5147 13.072 36.624 12.9973 36.752 12.944C36.8853 12.8853 37.032 12.856 37.192 12.856C37.3733 12.856 37.5227 12.8853 37.64 12.944C37.7627 12.9973 37.8587 13.072 37.928 13.168C37.9973 13.2587 38.0453 13.3653 38.072 13.488ZM42.1142 14.712C42.1196 14.6907 42.1436 14.6747 42.1862 14.664C42.4422 14.5947 42.6929 14.5093 42.9382 14.408C43.1836 14.3067 43.4156 14.1893 43.6342 14.056C43.8582 13.9227 44.0289 13.7707 44.1462 13.6C44.2689 13.4293 44.3436 13.256 44.3702 13.08C44.4022 12.8987 44.3889 12.7227 44.3302 12.552C44.2769 12.3813 44.1836 12.2293 44.0502 12.096C43.9222 11.9627 43.7569 11.856 43.5542 11.776C43.3516 11.6907 43.1196 11.648 42.8582 11.648C42.5276 11.648 42.2156 11.704 41.9222 11.816C41.6289 11.928 41.3729 12.0853 41.1542 12.288C40.9409 12.4907 40.7702 12.7333 40.6422 13.016C40.5196 13.2933 40.4582 13.6027 40.4582 13.944C40.4582 14.3227 40.5142 14.648 40.6262 14.92C40.7436 15.1867 40.9009 15.408 41.0982 15.584C41.3009 15.7547 41.5382 15.88 41.8102 15.96C42.0822 16.04 42.3782 16.08 42.6982 16.08C42.8582 16.08 43.0262 16.064 43.2022 16.032C43.3782 16 43.5489 15.9573 43.7142 15.904C43.8849 15.8453 44.0396 15.776 44.1782 15.696C44.3222 15.6107 44.4369 15.52 44.5222 15.424C44.6182 15.312 44.6662 15.192 44.6662 15.064C44.6716 14.936 44.6422 14.816 44.5782 14.704C44.5196 14.592 44.4369 14.4987 44.3302 14.424C44.2289 14.3493 44.1169 14.312 43.9942 14.312C43.8609 14.312 43.7409 14.3573 43.6342 14.448C43.4849 14.576 43.3436 14.6827 43.2102 14.768C43.0769 14.8533 42.9089 14.896 42.7062 14.896C42.4876 14.896 42.3089 14.856 42.1702 14.776C42.1329 14.7547 42.1142 14.7333 42.1142 14.712ZM41.8582 13.744C41.7729 13.7707 41.7356 13.7387 41.7462 13.648C41.7889 13.3547 41.9009 13.1253 42.0822 12.96C42.2636 12.7947 42.4982 12.712 42.7862 12.712C42.8662 12.712 42.9302 12.7387 42.9782 12.792C43.0262 12.84 43.0529 12.8987 43.0582 12.968C43.0689 13.0373 43.0556 13.1067 43.0182 13.176C42.9862 13.2453 42.9276 13.3013 42.8422 13.344C42.6556 13.4347 42.4796 13.512 42.3142 13.576C42.1542 13.64 42.0022 13.696 41.8582 13.744ZM48.7567 12.952C48.7781 13.0693 48.7967 13.192 48.8127 13.32C48.8287 13.4427 48.8367 13.5653 48.8367 13.688V14.032C48.8367 14.1547 48.8287 14.2773 48.8127 14.4C48.7967 14.5227 48.7781 14.6427 48.7567 14.76C48.7354 14.8773 48.7167 14.9893 48.7007 15.096C48.6847 15.2027 48.6767 15.304 48.6767 15.4C48.6767 15.464 48.6874 15.5307 48.7087 15.6C48.7301 15.6693 48.7674 15.736 48.8207 15.8C48.8794 15.8587 48.9567 15.9067 49.0527 15.944C49.1541 15.9813 49.2821 16 49.4367 16C49.5914 16 49.7167 15.9813 49.8127 15.944C49.9087 15.9067 49.9861 15.8587 50.0447 15.8C50.1034 15.7413 50.1434 15.68 50.1647 15.616C50.1861 15.5467 50.1967 15.48 50.1967 15.416C50.1967 15.192 50.1701 14.968 50.1167 14.744C50.0634 14.5147 50.0367 14.2773 50.0367 14.032V13.688C50.0367 13.4373 50.0634 13.2 50.1167 12.976C50.1701 12.7467 50.1967 12.5227 50.1967 12.304C50.1967 12.24 50.1861 12.1733 50.1647 12.104C50.1434 12.0347 50.1034 11.9707 50.0447 11.912C49.9861 11.8533 49.9087 11.8053 49.8127 11.768C49.7167 11.7307 49.5914 11.712 49.4367 11.712C49.2821 11.712 49.1541 11.7333 49.0527 11.776C48.9567 11.8133 48.8794 11.8613 48.8207 11.92C48.7674 11.9787 48.7301 12.0427 48.7087 12.112C48.6874 12.1813 48.6767 12.248 48.6767 12.312C48.6767 12.408 48.6847 12.5093 48.7007 12.616C48.7167 12.7227 48.7354 12.8347 48.7567 12.952ZM48.8527 10.312C48.7141 10.4187 48.6447 10.5547 48.6447 10.72C48.6447 10.8907 48.7141 11.0293 48.8527 11.136C48.9967 11.2427 49.1861 11.296 49.4207 11.296C49.6501 11.296 49.8341 11.2427 49.9727 11.136C50.1167 11.0293 50.1887 10.8907 50.1887 10.72C50.1887 10.5547 50.1167 10.4187 49.9727 10.312C49.8341 10.2 49.6501 10.144 49.4207 10.144C49.1861 10.144 48.9967 10.2 48.8527 10.312ZM52.7117 13.568C52.7117 13.5307 52.7144 13.4907 52.7197 13.448C52.7251 13.384 52.7411 13.3227 52.7677 13.264C52.7944 13.2053 52.8291 13.1547 52.8717 13.112C52.9571 13.0213 53.0424 12.9547 53.1277 12.912C53.2131 12.864 53.2931 12.832 53.3677 12.816C53.4424 12.7947 53.5117 12.7867 53.5757 12.792C53.6451 12.792 53.7037 12.7973 53.7517 12.808C53.9971 12.8613 54.1197 13.2533 54.1197 13.984V14.032C54.1197 14.1547 54.1117 14.2773 54.0957 14.4C54.0797 14.5227 54.0611 14.6427 54.0397 14.76C54.0184 14.8773 53.9997 14.9893 53.9837 15.096C53.9677 15.2027 53.9597 15.304 53.9597 15.4C53.9597 15.464 53.9704 15.5307 53.9917 15.6C54.0131 15.6693 54.0504 15.736 54.1037 15.8C54.1624 15.8587 54.2397 15.9067 54.3357 15.944C54.4371 15.9813 54.5651 16 54.7197 16C54.8744 16 54.9997 15.9813 55.0957 15.944C55.1917 15.9067 55.2691 15.8587 55.3277 15.8C55.3864 15.7413 55.4264 15.68 55.4477 15.616C55.4691 15.5467 55.4797 15.48 55.4797 15.416C55.4797 15.192 55.4531 14.968 55.3997 14.744C55.3464 14.5147 55.3197 14.2773 55.3197 14.032V13.984C55.3197 13.7333 55.3464 13.496 55.3997 13.272C55.4531 13.0427 55.4797 12.8187 55.4797 12.6C55.4797 12.36 55.4184 12.1733 55.2957 12.04C55.1731 11.9013 55.0211 11.8 54.8397 11.736C54.6637 11.672 54.4771 11.64 54.2797 11.64C54.0824 11.64 53.9091 11.656 53.7597 11.688C53.5624 11.7307 53.3917 11.8053 53.2477 11.912C53.1037 12.0187 52.9784 12.136 52.8717 12.264C52.8664 12.2 52.8504 12.136 52.8237 12.072C52.7971 12.008 52.7544 11.9493 52.6957 11.896C52.6371 11.8427 52.5571 11.8 52.4557 11.768C52.3597 11.7307 52.2397 11.712 52.0957 11.712C51.9411 11.712 51.8131 11.7333 51.7117 11.776C51.6157 11.8133 51.5384 11.8613 51.4797 11.92C51.4211 11.9787 51.3784 12.0427 51.3517 12.112C51.3304 12.1813 51.3197 12.248 51.3197 12.312C51.3197 12.408 51.3277 12.5093 51.3437 12.616C51.3597 12.7227 51.3784 12.8347 51.3997 12.952C51.4211 13.0693 51.4397 13.192 51.4557 13.32C51.4717 13.4427 51.4797 13.5653 51.4797 13.688V14.032C51.4797 14.1547 51.4717 14.2773 51.4557 14.4C51.4397 14.5227 51.4211 14.6427 51.3997 14.76C51.3784 14.8773 51.3597 14.9893 51.3437 15.096C51.3277 15.2027 51.3197 15.304 51.3197 15.4C51.3197 15.464 51.3304 15.5307 51.3517 15.6C51.3784 15.6693 51.4211 15.736 51.4797 15.8C51.5384 15.8587 51.6157 15.9067 51.7117 15.944C51.8131 15.9813 51.9411 16 52.0957 16C52.2504 16 52.3757 15.9813 52.4717 15.944C52.5731 15.9067 52.6531 15.8587 52.7117 15.8C52.7704 15.7413 52.8104 15.68 52.8317 15.616C52.8584 15.5467 52.8717 15.48 52.8717 15.416C52.8717 15.192 52.8451 14.968 52.7917 14.744C52.7384 14.5147 52.7117 14.2773 52.7117 14.032V13.688V13.568ZM58.2203 13.568C58.231 13.376 58.247 13.1813 58.2683 12.984C58.279 12.9253 58.303 12.88 58.3403 12.848C58.3776 12.816 58.4256 12.8053 58.4843 12.816C58.5963 12.832 58.7056 12.8507 58.8123 12.872C58.9243 12.888 59.039 12.896 59.1563 12.896C59.231 12.896 59.303 12.888 59.3723 12.872C59.4416 12.856 59.503 12.8267 59.5563 12.784C59.615 12.7413 59.6603 12.6827 59.6923 12.608C59.7296 12.528 59.7483 12.4267 59.7483 12.304C59.7483 12.1813 59.7323 12.0827 59.7003 12.008C59.6683 11.928 59.6256 11.8667 59.5723 11.824C59.519 11.7813 59.4576 11.752 59.3883 11.736C59.319 11.72 59.247 11.712 59.1723 11.712C59.0656 11.712 58.967 11.7173 58.8763 11.728C58.791 11.7387 58.7056 11.752 58.6203 11.768C58.5616 11.7787 58.5163 11.7707 58.4843 11.744C58.4523 11.712 58.4416 11.6667 58.4523 11.608C58.4683 11.4853 58.4763 11.384 58.4763 11.304C58.4763 11.2293 58.4656 11.1547 58.4443 11.08C58.4283 11 58.3936 10.928 58.3403 10.864C58.287 10.7947 58.2096 10.7387 58.1083 10.696C58.0123 10.6533 57.8816 10.632 57.7163 10.632C57.5563 10.632 57.4256 10.6533 57.3243 10.696C57.223 10.7333 57.1456 10.784 57.0923 10.848C57.039 10.912 57.0016 10.984 56.9803 11.064C56.9643 11.1387 56.9563 11.2133 56.9563 11.288V11.52C56.9563 11.6267 56.895 11.7067 56.7723 11.76C56.6976 11.7973 56.639 11.8587 56.5963 11.944C56.559 12.024 56.543 12.144 56.5483 12.304C56.5536 12.4907 56.583 12.6267 56.6363 12.712C56.6896 12.792 56.7616 12.8453 56.8523 12.872C56.9856 12.9147 57.0523 12.9867 57.0523 13.088C57.0576 13.1733 57.0603 13.2613 57.0603 13.352V13.632C57.0603 13.8293 57.0523 14.0267 57.0363 14.224C57.0256 14.4213 57.023 14.6107 57.0283 14.792C57.0336 14.9733 57.0523 15.144 57.0843 15.304C57.1216 15.4587 57.191 15.5947 57.2923 15.712C57.3936 15.824 57.5323 15.912 57.7083 15.976C57.8843 16.04 58.1136 16.072 58.3963 16.072C58.4923 16.072 58.599 16.0667 58.7163 16.056C58.8336 16.0453 58.9536 16.024 59.0763 15.992C59.2043 15.9547 59.327 15.9067 59.4443 15.848C59.567 15.784 59.6763 15.7013 59.7723 15.6C59.8523 15.52 59.903 15.4267 59.9243 15.32C59.951 15.2133 59.9563 15.1067 59.9403 15C59.9243 14.888 59.8896 14.7867 59.8363 14.696C59.783 14.6 59.719 14.5253 59.6443 14.472C59.5696 14.4133 59.4843 14.384 59.3883 14.384C59.2976 14.3787 59.2016 14.4133 59.1003 14.488C58.967 14.5893 58.8656 14.6507 58.7963 14.672C58.727 14.688 58.647 14.6827 58.5563 14.656C58.4656 14.6293 58.3936 14.5653 58.3403 14.464C58.2923 14.3573 58.2576 14.2293 58.2363 14.08C58.2203 13.9253 58.215 13.7547 58.2203 13.568ZM61.0247 13.016C60.9127 13.2933 60.8567 13.6027 60.8567 13.944C60.8567 14.3227 60.9127 14.648 61.0247 14.92C61.1367 15.1867 61.2914 15.408 61.4887 15.584C61.6913 15.7547 61.9314 15.88 62.2087 15.96C62.4913 16.04 62.8007 16.08 63.1367 16.08C63.4727 16.08 63.7794 16.04 64.0567 15.96C64.3393 15.88 64.5794 15.7547 64.7767 15.584C64.9793 15.408 65.134 15.1867 65.2407 14.92C65.3527 14.648 65.4087 14.3227 65.4087 13.944C65.4087 13.6027 65.3527 13.2933 65.2407 13.016C65.1287 12.7333 64.9714 12.4907 64.7687 12.288C64.566 12.0853 64.326 11.928 64.0487 11.816C63.7714 11.704 63.4674 11.648 63.1367 11.648C62.806 11.648 62.4994 11.704 62.2167 11.816C61.9394 11.928 61.6993 12.0853 61.4967 12.288C61.294 12.4907 61.1367 12.7333 61.0247 13.016ZM62.1687 14.264C62.142 14.1413 62.1287 14.0107 62.1287 13.872C62.1287 13.5147 62.2167 13.232 62.3927 13.024C62.5687 12.816 62.8194 12.712 63.1447 12.712C63.47 12.712 63.7207 12.816 63.8967 13.024C64.0727 13.232 64.1607 13.5147 64.1607 13.872C64.1607 14.0107 64.1447 14.1413 64.1127 14.264C64.086 14.3867 64.0327 14.496 63.9527 14.592C63.878 14.6827 63.774 14.7573 63.6407 14.816C63.5127 14.8693 63.3474 14.896 63.1447 14.896C62.942 14.896 62.774 14.8693 62.6407 14.816C62.5127 14.7573 62.4087 14.6827 62.3287 14.592C62.254 14.496 62.2007 14.3867 62.1687 14.264ZM71.0031 13.568C71.0138 13.376 71.0298 13.1813 71.0511 12.984C71.0618 12.9253 71.0858 12.88 71.1231 12.848C71.1605 12.816 71.2085 12.8053 71.2671 12.816C71.3791 12.832 71.4884 12.8507 71.5951 12.872C71.7071 12.888 71.8218 12.896 71.9391 12.896C72.0138 12.896 72.0858 12.888 72.1551 12.872C72.2244 12.856 72.2858 12.8267 72.3391 12.784C72.3978 12.7413 72.4431 12.6827 72.4751 12.608C72.5125 12.528 72.5311 12.4267 72.5311 12.304C72.5311 12.1813 72.5151 12.0827 72.4831 12.008C72.4511 11.928 72.4085 11.8667 72.3551 11.824C72.3018 11.7813 72.2405 11.752 72.1711 11.736C72.1018 11.72 72.0298 11.712 71.9551 11.712C71.8484 11.712 71.7498 11.7173 71.6591 11.728C71.5738 11.7387 71.4884 11.752 71.4031 11.768C71.3445 11.7787 71.2991 11.7707 71.2671 11.744C71.2351 11.712 71.2244 11.6667 71.2351 11.608C71.2511 11.4853 71.2591 11.384 71.2591 11.304C71.2591 11.2293 71.2485 11.1547 71.2271 11.08C71.2111 11 71.1765 10.928 71.1231 10.864C71.0698 10.7947 70.9925 10.7387 70.8911 10.696C70.7951 10.6533 70.6645 10.632 70.4991 10.632C70.3391 10.632 70.2085 10.6533 70.1071 10.696C70.0058 10.7333 69.9285 10.784 69.8751 10.848C69.8218 10.912 69.7845 10.984 69.7631 11.064C69.7471 11.1387 69.7391 11.2133 69.7391 11.288V11.52C69.7391 11.6267 69.6778 11.7067 69.5551 11.76C69.4805 11.7973 69.4218 11.8587 69.3791 11.944C69.3418 12.024 69.3258 12.144 69.3311 12.304C69.3364 12.4907 69.3658 12.6267 69.4191 12.712C69.4725 12.792 69.5444 12.8453 69.6351 12.872C69.7685 12.9147 69.8351 12.9867 69.8351 13.088C69.8405 13.1733 69.8431 13.2613 69.8431 13.352V13.632C69.8431 13.8293 69.8351 14.0267 69.8191 14.224C69.8084 14.4213 69.8058 14.6107 69.8111 14.792C69.8165 14.9733 69.8351 15.144 69.8671 15.304C69.9044 15.4587 69.9738 15.5947 70.0751 15.712C70.1765 15.824 70.3151 15.912 70.4911 15.976C70.6671 16.04 70.8965 16.072 71.1791 16.072C71.2751 16.072 71.3818 16.0667 71.4991 16.056C71.6165 16.0453 71.7365 16.024 71.8591 15.992C71.9871 15.9547 72.1098 15.9067 72.2271 15.848C72.3498 15.784 72.4591 15.7013 72.5551 15.6C72.6351 15.52 72.6858 15.4267 72.7071 15.32C72.7338 15.2133 72.7391 15.1067 72.7231 15C72.7071 14.888 72.6725 14.7867 72.6191 14.696C72.5658 14.6 72.5018 14.5253 72.4271 14.472C72.3525 14.4133 72.2671 14.384 72.1711 14.384C72.0805 14.3787 71.9845 14.4133 71.8831 14.488C71.7498 14.5893 71.6485 14.6507 71.5791 14.672C71.5098 14.688 71.4298 14.6827 71.3391 14.656C71.2485 14.6293 71.1765 14.5653 71.1231 14.464C71.0751 14.3573 71.0405 14.2293 71.0191 14.08C71.0031 13.9253 70.9978 13.7547 71.0031 13.568ZM75.323 14.368C75.2803 14.0747 75.251 13.7813 75.235 13.488C75.2243 13.392 75.251 13.3093 75.315 13.24C75.4857 13.032 75.651 12.9013 75.811 12.848C75.971 12.7947 76.1017 12.7813 76.203 12.808C76.4483 12.8613 76.571 13.2533 76.571 13.984V14.032C76.571 14.1547 76.563 14.2773 76.547 14.4C76.531 14.5227 76.5123 14.6427 76.491 14.76C76.4697 14.8773 76.451 14.9893 76.435 15.096C76.419 15.2027 76.411 15.304 76.411 15.4C76.411 15.464 76.4217 15.5307 76.443 15.6C76.4643 15.6693 76.5017 15.736 76.555 15.8C76.6137 15.8587 76.691 15.9067 76.787 15.944C76.8883 15.9813 77.0163 16 77.171 16C77.3257 16 77.451 15.9813 77.547 15.944C77.643 15.9067 77.7203 15.8587 77.779 15.8C77.8377 15.7413 77.8777 15.68 77.899 15.616C77.9203 15.5467 77.931 15.48 77.931 15.416C77.931 15.192 77.9043 14.968 77.851 14.744C77.7977 14.5147 77.771 14.2773 77.771 14.032V13.984C77.771 13.7333 77.7977 13.496 77.851 13.272C77.9043 13.0427 77.931 12.8187 77.931 12.6C77.931 12.36 77.8697 12.1733 77.747 12.04C77.6243 11.9013 77.4723 11.8 77.291 11.736C77.115 11.672 76.9283 11.64 76.731 11.64C76.5337 11.64 76.3603 11.656 76.211 11.688C75.987 11.736 75.795 11.8187 75.635 11.936C75.475 12.048 75.3417 12.1707 75.235 12.304C75.251 12.0213 75.2803 11.7387 75.323 11.456C75.3657 11.1733 75.387 10.8533 75.387 10.496C75.387 10.4213 75.3763 10.3467 75.355 10.272C75.339 10.192 75.3017 10.12 75.243 10.056C75.1897 9.992 75.1123 9.94133 75.011 9.904C74.9097 9.86133 74.779 9.84 74.619 9.84C74.4537 9.84 74.3203 9.86133 74.219 9.904C74.123 9.94667 74.0457 10.0027 73.987 10.072C73.9337 10.136 73.8963 10.208 73.875 10.288C73.859 10.3627 73.851 10.4373 73.851 10.512C73.851 10.6987 73.859 10.88 73.875 11.056C73.891 11.232 73.9097 11.408 73.931 11.584C73.9523 11.7547 73.971 11.9253 73.987 12.096C74.003 12.2613 74.011 12.4293 74.011 12.6V13.24C74.011 13.4107 74.003 13.5787 73.987 13.744C73.971 13.904 73.9523 14.0667 73.931 14.232C73.9097 14.3973 73.891 14.5707 73.875 14.752C73.859 14.928 73.851 15.12 73.851 15.328C73.851 15.4027 73.859 15.48 73.875 15.56C73.8963 15.6347 73.9337 15.7067 73.987 15.776C74.0457 15.84 74.123 15.8933 74.219 15.936C74.3203 15.9787 74.4537 16 74.619 16C74.779 16 74.9097 15.9813 75.011 15.944C75.1123 15.9013 75.1897 15.848 75.243 15.784C75.3017 15.72 75.339 15.6507 75.355 15.576C75.3763 15.496 75.387 15.4187 75.387 15.344C75.387 14.9813 75.3657 14.656 75.323 14.368ZM80.6814 14.712C80.6868 14.6907 80.7108 14.6747 80.7534 14.664C81.0094 14.5947 81.2601 14.5093 81.5054 14.408C81.7508 14.3067 81.9828 14.1893 82.2014 14.056C82.4254 13.9227 82.5961 13.7707 82.7134 13.6C82.8361 13.4293 82.9108 13.256 82.9374 13.08C82.9694 12.8987 82.9561 12.7227 82.8974 12.552C82.8441 12.3813 82.7508 12.2293 82.6174 12.096C82.4894 11.9627 82.3241 11.856 82.1214 11.776C81.9188 11.6907 81.6868 11.648 81.4254 11.648C81.0948 11.648 80.7828 11.704 80.4894 11.816C80.1961 11.928 79.9401 12.0853 79.7214 12.288C79.5081 12.4907 79.3374 12.7333 79.2094 13.016C79.0868 13.2933 79.0254 13.6027 79.0254 13.944C79.0254 14.3227 79.0814 14.648 79.1934 14.92C79.3108 15.1867 79.4681 15.408 79.6654 15.584C79.8681 15.7547 80.1054 15.88 80.3774 15.96C80.6494 16.04 80.9454 16.08 81.2654 16.08C81.4254 16.08 81.5934 16.064 81.7694 16.032C81.9454 16 82.1161 15.9573 82.2814 15.904C82.4521 15.8453 82.6068 15.776 82.7454 15.696C82.8894 15.6107 83.0041 15.52 83.0894 15.424C83.1854 15.312 83.2334 15.192 83.2334 15.064C83.2388 14.936 83.2094 14.816 83.1454 14.704C83.0868 14.592 83.0041 14.4987 82.8974 14.424C82.7961 14.3493 82.6841 14.312 82.5614 14.312C82.4281 14.312 82.3081 14.3573 82.2014 14.448C82.0521 14.576 81.9108 14.6827 81.7774 14.768C81.6441 14.8533 81.4761 14.896 81.2734 14.896C81.0548 14.896 80.8761 14.856 80.7374 14.776C80.7001 14.7547 80.6814 14.7333 80.6814 14.712ZM80.4254 13.744C80.3401 13.7707 80.3028 13.7387 80.3134 13.648C80.3561 13.3547 80.4681 13.1253 80.6494 12.96C80.8308 12.7947 81.0654 12.712 81.3534 12.712C81.4334 12.712 81.4974 12.7387 81.5454 12.792C81.5934 12.84 81.6201 12.8987 81.6254 12.968C81.6361 13.0373 81.6228 13.1067 81.5854 13.176C81.5534 13.2453 81.4948 13.3013 81.4094 13.344C81.2228 13.4347 81.0468 13.512 80.8814 13.576C80.7214 13.64 80.5694 13.696 80.4254 13.744ZM91.6119 13.984C91.5853 14.144 91.5533 14.3067 91.5159 14.472C91.5053 14.5307 91.4893 14.56 91.4679 14.56C91.4519 14.56 91.4386 14.5307 91.4279 14.472C91.3906 14.3067 91.3586 14.1413 91.3319 13.976C91.3053 13.8053 91.2706 13.6347 91.2279 13.464C91.1959 13.3307 91.1639 13.2027 91.1319 13.08C91.1053 12.952 91.0759 12.8267 91.0439 12.704C91.0546 12.6773 91.0626 12.6533 91.0679 12.632L91.0999 12.552C91.1746 12.36 91.1799 12.2133 91.1159 12.112C91.0519 12.0053 90.9159 11.9067 90.7079 11.816C90.5853 11.7627 90.4759 11.736 90.3799 11.736C90.2519 11.736 90.1506 11.776 90.0759 11.856C90.0066 11.9307 89.9533 12.0107 89.9159 12.096C89.8253 12.2987 89.7533 12.5173 89.6999 12.752C89.6466 12.9813 89.5906 13.2187 89.5319 13.464C89.4946 13.6293 89.4599 13.7893 89.4279 13.944C89.4013 14.0987 89.3719 14.2533 89.3399 14.408C89.3133 14.5307 89.2866 14.5307 89.2599 14.408C89.2279 14.2533 89.1986 14.0987 89.1719 13.944C89.1453 13.7893 89.1133 13.6347 89.0759 13.48C89.0173 13.2347 88.9586 12.9973 88.8999 12.768C88.8466 12.5387 88.7746 12.32 88.6839 12.112C88.6466 12.0267 88.5853 11.944 88.4999 11.864C88.4146 11.784 88.2973 11.744 88.1479 11.744C88.0359 11.744 87.9026 11.776 87.7479 11.84C87.4653 11.9627 87.2866 12.096 87.2119 12.24C87.1373 12.3787 87.1399 12.5467 87.2199 12.744C87.2946 12.9253 87.3906 13.1333 87.5079 13.368C87.6253 13.5973 87.7319 13.8267 87.8279 14.056L87.9639 14.384C88.0599 14.6133 88.1319 14.824 88.1799 15.016C88.2333 15.2027 88.2973 15.384 88.3719 15.56C88.4306 15.6987 88.5239 15.8053 88.6519 15.88C88.7799 15.9547 88.9773 15.992 89.2439 15.992C89.4199 15.992 89.5693 15.9653 89.6919 15.912C89.8146 15.8533 89.9026 15.7627 89.9559 15.64C89.9826 15.576 90.0093 15.496 90.0359 15.4C90.0679 15.2987 90.0999 15.192 90.1319 15.08C90.1639 14.968 90.1959 14.8533 90.2279 14.736C90.2599 14.6187 90.2919 14.5093 90.3239 14.408C90.3399 14.3493 90.3586 14.32 90.3799 14.32C90.4013 14.32 90.4199 14.3493 90.4359 14.408C90.4679 14.5093 90.4999 14.6187 90.5319 14.736C90.5639 14.8533 90.5959 14.968 90.6279 15.08C90.6599 15.192 90.6893 15.2987 90.7159 15.4C90.7479 15.496 90.7773 15.576 90.8039 15.64C90.8626 15.768 90.9586 15.8587 91.0919 15.912C91.2253 15.9653 91.3853 15.992 91.5719 15.992C91.8333 15.992 92.0199 15.952 92.1319 15.872C92.2439 15.7867 92.3266 15.6827 92.3799 15.56C92.4546 15.384 92.5159 15.2027 92.5639 15.016C92.6173 14.824 92.6919 14.6133 92.7879 14.384L92.9239 14.056C93.0199 13.8267 93.1266 13.5973 93.2439 13.368C93.3613 13.1333 93.4573 12.9253 93.5319 12.744C93.6119 12.5467 93.6199 12.3787 93.5559 12.24C93.4973 12.096 93.3266 11.9627 93.0439 11.84C92.8946 11.776 92.7613 11.744 92.6439 11.744C92.4946 11.744 92.3773 11.784 92.2919 11.864C92.2066 11.944 92.1453 12.0267 92.1079 12.112C92.0173 12.32 91.9426 12.5387 91.8839 12.768C91.8306 12.9973 91.7746 13.2347 91.7159 13.48C91.6733 13.6507 91.6386 13.8187 91.6119 13.984ZM94.7802 13.352C94.6895 13.6613 94.6442 13.9653 94.6442 14.264C94.6442 14.6053 94.6735 14.8933 94.7322 15.128C94.7962 15.3573 94.8895 15.544 95.0122 15.688C95.1348 15.8267 95.2842 15.928 95.4602 15.992C95.6415 16.0507 95.8522 16.08 96.0922 16.08C96.4068 16.08 96.6602 16.032 96.8522 15.936C97.0495 15.84 97.2149 15.7147 97.3482 15.56C97.3748 15.6667 97.4415 15.768 97.5482 15.864C97.6602 15.9547 97.8415 16 98.0922 16C98.2468 16 98.3722 15.9813 98.4682 15.944C98.5642 15.9067 98.6415 15.8587 98.7002 15.8C98.7589 15.7413 98.7989 15.68 98.8202 15.616C98.8415 15.5467 98.8522 15.48 98.8522 15.416C98.8522 15.192 98.8255 14.968 98.7722 14.744C98.7188 14.5147 98.6922 14.2773 98.6922 14.032V13.688C98.6922 13.4373 98.7188 13.2 98.7722 12.976C98.8255 12.7467 98.8522 12.5227 98.8522 12.304C98.8522 12.24 98.8415 12.1733 98.8202 12.104C98.7989 12.0347 98.7589 11.9707 98.7002 11.912C98.6415 11.8533 98.5642 11.8053 98.4682 11.768C98.3722 11.7307 98.2468 11.712 98.0922 11.712C97.9109 11.712 97.7695 11.7387 97.6682 11.792C97.5668 11.84 97.4895 11.9013 97.4362 11.976C97.3135 11.8747 97.1855 11.7947 97.0522 11.736C96.9188 11.6773 96.7589 11.648 96.5722 11.648C96.2788 11.648 96.0122 11.728 95.7722 11.888C95.5375 12.048 95.3348 12.2533 95.1642 12.504C94.9988 12.7547 94.8708 13.0373 94.7802 13.352ZM95.9802 14.536C95.9428 14.4453 95.9242 14.3307 95.9242 14.192C95.9242 14.032 95.9428 13.8667 95.9802 13.696C96.0229 13.52 96.0788 13.36 96.1482 13.216C96.2228 13.072 96.3082 12.952 96.4042 12.856C96.5055 12.76 96.6175 12.712 96.7402 12.712C96.9002 12.712 97.0282 12.7387 97.1242 12.792C97.2255 12.8453 97.3002 12.9227 97.3482 13.024C97.4015 13.1253 97.4362 13.248 97.4522 13.392C97.4682 13.536 97.4762 13.696 97.4762 13.872C97.4762 14.0107 97.4602 14.1413 97.4282 14.264C97.3962 14.3867 97.3455 14.496 97.2762 14.592C97.2122 14.6827 97.1295 14.7573 97.0282 14.816C96.9268 14.8693 96.8042 14.896 96.6602 14.896C96.5588 14.896 96.4628 14.8853 96.3722 14.864C96.2815 14.8427 96.2015 14.8053 96.1322 14.752C96.0682 14.6987 96.0175 14.6267 95.9802 14.536ZM101.6 13.568C101.611 13.376 101.627 13.1813 101.648 12.984C101.659 12.9253 101.683 12.88 101.72 12.848C101.757 12.816 101.805 12.8053 101.864 12.816C101.976 12.832 102.085 12.8507 102.192 12.872C102.304 12.888 102.419 12.896 102.536 12.896C102.611 12.896 102.683 12.888 102.752 12.872C102.821 12.856 102.883 12.8267 102.936 12.784C102.995 12.7413 103.04 12.6827 103.072 12.608C103.109 12.528 103.128 12.4267 103.128 12.304C103.128 12.1813 103.112 12.0827 103.08 12.008C103.048 11.928 103.005 11.8667 102.952 11.824C102.899 11.7813 102.837 11.752 102.768 11.736C102.699 11.72 102.627 11.712 102.552 11.712C102.445 11.712 102.347 11.7173 102.256 11.728C102.171 11.7387 102.085 11.752 102 11.768C101.941 11.7787 101.896 11.7707 101.864 11.744C101.832 11.712 101.821 11.6667 101.832 11.608C101.848 11.4853 101.856 11.384 101.856 11.304C101.856 11.2293 101.845 11.1547 101.824 11.08C101.808 11 101.773 10.928 101.72 10.864C101.667 10.7947 101.589 10.7387 101.488 10.696C101.392 10.6533 101.261 10.632 101.096 10.632C100.936 10.632 100.805 10.6533 100.704 10.696C100.603 10.7333 100.525 10.784 100.472 10.848C100.419 10.912 100.381 10.984 100.36 11.064C100.344 11.1387 100.336 11.2133 100.336 11.288V11.52C100.336 11.6267 100.275 11.7067 100.152 11.76C100.077 11.7973 100.019 11.8587 99.976 11.944C99.9387 12.024 99.9227 12.144 99.928 12.304C99.9333 12.4907 99.9627 12.6267 100.016 12.712C100.069 12.792 100.141 12.8453 100.232 12.872C100.365 12.9147 100.432 12.9867 100.432 13.088C100.437 13.1733 100.44 13.2613 100.44 13.352V13.632C100.44 13.8293 100.432 14.0267 100.416 14.224C100.405 14.4213 100.403 14.6107 100.408 14.792C100.413 14.9733 100.432 15.144 100.464 15.304C100.501 15.4587 100.571 15.5947 100.672 15.712C100.773 15.824 100.912 15.912 101.088 15.976C101.264 16.04 101.493 16.072 101.776 16.072C101.872 16.072 101.979 16.0667 102.096 16.056C102.213 16.0453 102.333 16.024 102.456 15.992C102.584 15.9547 102.707 15.9067 102.824 15.848C102.947 15.784 103.056 15.7013 103.152 15.6C103.232 15.52 103.283 15.4267 103.304 15.32C103.331 15.2133 103.336 15.1067 103.32 15C103.304 14.888 103.269 14.7867 103.216 14.696C103.163 14.6 103.099 14.5253 103.024 14.472C102.949 14.4133 102.864 14.384 102.768 14.384C102.677 14.3787 102.581 14.4133 102.48 14.488C102.347 14.5893 102.245 14.6507 102.176 14.672C102.107 14.688 102.027 14.6827 101.936 14.656C101.845 14.6293 101.773 14.5653 101.72 14.464C101.672 14.3573 101.637 14.2293 101.616 14.08C101.6 13.9253 101.595 13.7547 101.6 13.568ZM105.892 14.712C105.898 14.6907 105.922 14.6747 105.964 14.664C106.22 14.5947 106.471 14.5093 106.716 14.408C106.962 14.3067 107.194 14.1893 107.412 14.056C107.636 13.9227 107.807 13.7707 107.924 13.6C108.047 13.4293 108.122 13.256 108.148 13.08C108.18 12.8987 108.167 12.7227 108.108 12.552C108.055 12.3813 107.962 12.2293 107.828 12.096C107.7 11.9627 107.535 11.856 107.332 11.776C107.13 11.6907 106.898 11.648 106.636 11.648C106.306 11.648 105.994 11.704 105.7 11.816C105.407 11.928 105.151 12.0853 104.932 12.288C104.719 12.4907 104.548 12.7333 104.42 13.016C104.298 13.2933 104.236 13.6027 104.236 13.944C104.236 14.3227 104.292 14.648 104.404 14.92C104.522 15.1867 104.679 15.408 104.876 15.584C105.079 15.7547 105.316 15.88 105.588 15.96C105.86 16.04 106.156 16.08 106.476 16.08C106.636 16.08 106.804 16.064 106.98 16.032C107.156 16 107.327 15.9573 107.492 15.904C107.663 15.8453 107.818 15.776 107.956 15.696C108.1 15.6107 108.215 15.52 108.3 15.424C108.396 15.312 108.444 15.192 108.444 15.064C108.45 14.936 108.42 14.816 108.356 14.704C108.298 14.592 108.215 14.4987 108.108 14.424C108.007 14.3493 107.895 14.312 107.772 14.312C107.639 14.312 107.519 14.3573 107.412 14.448C107.263 14.576 107.122 14.6827 106.988 14.768C106.855 14.8533 106.687 14.896 106.484 14.896C106.266 14.896 106.087 14.856 105.948 14.776C105.911 14.7547 105.892 14.7333 105.892 14.712ZM105.636 13.744C105.551 13.7707 105.514 13.7387 105.524 13.648C105.567 13.3547 105.679 13.1253 105.86 12.96C106.042 12.7947 106.276 12.712 106.564 12.712C106.644 12.712 106.708 12.7387 106.756 12.792C106.804 12.84 106.831 12.8987 106.836 12.968C106.847 13.0373 106.834 13.1067 106.796 13.176C106.764 13.2453 106.706 13.3013 106.62 13.344C106.434 13.4347 106.258 13.512 106.092 13.576C105.932 13.64 105.78 13.696 105.636 13.744ZM110.905 13.6C110.91 13.568 110.913 13.5387 110.913 13.512C110.918 13.4533 110.931 13.3947 110.953 13.336C110.979 13.272 111.014 13.2187 111.057 13.176C111.147 13.0853 111.238 13.0213 111.329 12.984C111.419 12.9467 111.505 12.9253 111.585 12.92C111.665 12.9093 111.739 12.912 111.809 12.928C111.878 12.944 111.937 12.96 111.985 12.976C112.102 13.0133 112.214 13.0293 112.321 13.024C112.427 13.0187 112.515 12.984 112.585 12.92C112.665 12.8453 112.729 12.7387 112.777 12.6C112.825 12.4613 112.833 12.3253 112.801 12.192C112.774 12.0533 112.697 11.936 112.569 11.84C112.446 11.7387 112.251 11.688 111.985 11.688C111.777 11.688 111.595 11.7413 111.441 11.848C111.291 11.9493 111.163 12.072 111.057 12.216C111.041 12.0933 110.977 11.9787 110.865 11.872C110.758 11.7653 110.571 11.712 110.305 11.712C110.15 11.712 110.022 11.7333 109.921 11.776C109.825 11.8133 109.747 11.8613 109.689 11.92C109.635 11.9787 109.598 12.0427 109.577 12.112C109.555 12.1813 109.545 12.248 109.545 12.312C109.545 12.408 109.553 12.5093 109.569 12.616C109.585 12.7227 109.603 12.8347 109.625 12.952C109.646 13.0693 109.665 13.192 109.681 13.32C109.697 13.4427 109.705 13.5653 109.705 13.688V14.032C109.705 14.1547 109.697 14.2773 109.681 14.4C109.665 14.5227 109.646 14.6427 109.625 14.76C109.603 14.8773 109.585 14.9893 109.569 15.096C109.553 15.2027 109.545 15.304 109.545 15.4C109.545 15.464 109.555 15.5307 109.577 15.6C109.598 15.6693 109.635 15.736 109.689 15.8C109.747 15.8587 109.825 15.9067 109.921 15.944C110.022 15.9813 110.15 16 110.305 16C110.459 16 110.585 15.9813 110.681 15.944C110.777 15.9067 110.854 15.8587 110.913 15.8C110.971 15.7413 111.011 15.68 111.033 15.616C111.054 15.5467 111.065 15.48 111.065 15.416C111.065 15.192 111.038 14.968 110.985 14.744C110.931 14.5147 110.905 14.2773 110.905 14.032V13.688V13.6ZM114.083 14.888C113.95 15.0107 113.883 15.176 113.883 15.384C113.883 15.5973 113.95 15.7653 114.083 15.888C114.216 16.0107 114.411 16.072 114.667 16.072C114.923 16.072 115.118 16.0107 115.251 15.888C115.384 15.7653 115.451 15.5973 115.451 15.384C115.451 15.176 115.384 15.0107 115.251 14.888C115.118 14.7653 114.923 14.704 114.667 14.704C114.411 14.704 114.216 14.7653 114.083 14.888Z" fill="black"/>
</svg>
