<svg width="50" height="12" viewBox="0 0 50 12" fill="none" xmlns="http://www.w3.org/2000/svg">
<path d="M0.573965 6.125C0.573965 5.45767 0.660632 4.825 0.833965 4.227C1.0073 3.62033 1.2673 3.08733 1.61396 2.628C1.96063 2.16867 2.38963 1.80467 2.90097 1.536C3.4123 1.25867 4.00597 1.12 4.68197 1.12C5.3493 1.12 5.9343 1.25867 6.43697 1.536C6.9483 1.80467 7.3773 2.16867 7.72397 2.628C8.07063 3.08733 8.33063 3.62033 8.50397 4.227C8.68597 4.825 8.77697 5.45767 8.77697 6.125C8.77697 6.905 8.69463 7.607 8.52997 8.231C8.37397 8.84633 8.12697 9.37067 7.78897 9.804C7.45097 10.2287 7.02197 10.558 6.50196 10.792C5.99063 11.0173 5.38397 11.13 4.68197 11.13C3.9713 11.13 3.35596 11.0173 2.83596 10.792C2.32463 10.558 1.89996 10.2287 1.56196 9.804C1.22396 9.37067 0.972632 8.84633 0.807965 8.231C0.651965 7.607 0.573965 6.905 0.573965 6.125ZM2.84896 6.112C2.84896 6.554 2.8793 6.957 2.93996 7.321C3.0093 7.67633 3.11763 7.97967 3.26497 8.231C3.4123 8.48233 3.59863 8.67733 3.82396 8.816C4.05797 8.95467 4.34397 9.024 4.68197 9.024C5.01997 9.024 5.30163 8.95467 5.52697 8.816C5.76097 8.67733 5.95163 8.48233 6.09897 8.231C6.2463 7.97967 6.3503 7.67633 6.41096 7.321C6.4803 6.957 6.51497 6.554 6.51497 6.112C6.51497 5.67 6.48897 5.25833 6.43697 4.877C6.38497 4.49567 6.28963 4.162 6.15097 3.876C6.0123 3.59 5.82163 3.36467 5.57897 3.2C5.34497 3.03533 5.04597 2.953 4.68197 2.953C4.31796 2.953 4.01463 3.03533 3.77196 3.2C3.53796 3.36467 3.35163 3.59 3.21296 3.876C3.0743 4.162 2.97897 4.49567 2.92696 4.877C2.87496 5.25833 2.84896 5.67 2.84896 6.112ZM12.7536 7.737C12.797 8.075 12.836 8.42167 12.8706 8.777C12.914 9.12367 12.9356 9.50933 12.9356 9.934C12.9356 10.0553 12.9183 10.181 12.8836 10.311C12.849 10.4323 12.7796 10.545 12.6756 10.649C12.5803 10.753 12.446 10.8397 12.2726 10.909C12.108 10.9697 11.8956 11 11.6356 11C11.367 11 11.146 10.9653 10.9726 10.896C10.808 10.8267 10.678 10.74 10.5826 10.636C10.4873 10.5233 10.4223 10.4063 10.3876 10.285C10.353 10.155 10.3356 10.0293 10.3356 9.908C10.3356 9.60467 10.3486 9.31 10.3746 9.024C10.4006 8.738 10.431 8.45633 10.4656 8.179C10.5003 7.893 10.5306 7.61567 10.5566 7.347C10.5826 7.06967 10.5956 6.79233 10.5956 6.515V5.735C10.5956 5.45767 10.5826 5.18467 10.5566 4.916C10.5306 4.63867 10.5003 4.36133 10.4656 4.084C10.431 3.798 10.4006 3.512 10.3746 3.226C10.3486 2.94 10.3356 2.64533 10.3356 2.342C10.3356 2.238 10.3486 2.12967 10.3746 2.017C10.4006 1.89567 10.4483 1.78733 10.5176 1.692C10.5956 1.59667 10.6953 1.51 10.8166 1.432C10.9466 1.354 11.1113 1.302 11.3106 1.276C11.3626 1.25867 11.4146 1.25 11.4666 1.25C11.5273 1.25 11.5836 1.25 11.6356 1.25C11.8956 1.25 12.1166 1.28467 12.2986 1.354C12.4286 1.39733 12.576 1.43633 12.7406 1.471C12.914 1.497 13.1653 1.51 13.4946 1.51C13.772 1.51 13.993 1.497 14.1576 1.471C14.3223 1.445 14.461 1.41467 14.5736 1.38C14.695 1.34533 14.812 1.315 14.9246 1.289C15.0373 1.263 15.1803 1.25 15.3536 1.25C15.475 1.25 15.5963 1.263 15.7176 1.289C15.8476 1.30633 15.9646 1.35833 16.0686 1.445C16.1726 1.523 16.255 1.64 16.3156 1.796C16.385 1.952 16.4196 2.16 16.4196 2.42C16.4196 2.68867 16.385 2.901 16.3156 3.057C16.2463 3.213 16.1553 3.33 16.0426 3.408C15.9386 3.486 15.8216 3.538 15.6916 3.564C15.5703 3.58133 15.449 3.59 15.3276 3.59C15.189 3.59 15.0676 3.577 14.9636 3.551C14.8596 3.525 14.7426 3.49467 14.6126 3.46C14.4913 3.42533 14.344 3.395 14.1706 3.369C13.9973 3.343 13.772 3.33 13.4946 3.33C13.4253 3.33 13.3603 3.33433 13.2996 3.343C13.239 3.343 13.1826 3.343 13.1306 3.343C12.966 3.36033 12.875 3.447 12.8576 3.603C12.8316 3.89767 12.8013 4.17933 12.7666 4.448C12.732 4.71667 12.706 4.98967 12.6886 5.267C12.68 5.345 12.6973 5.41 12.7406 5.462C12.7926 5.50533 12.8533 5.527 12.9226 5.527H13.1046C13.382 5.527 13.603 5.514 13.7676 5.488C13.9323 5.462 14.071 5.43167 14.1836 5.397C14.305 5.36233 14.422 5.332 14.5346 5.306C14.6473 5.28 14.7903 5.267 14.9636 5.267C15.085 5.267 15.2063 5.28433 15.3276 5.319C15.4576 5.345 15.5746 5.40133 15.6786 5.488C15.7826 5.57467 15.865 5.70033 15.9256 5.865C15.995 6.02967 16.0296 6.242 16.0296 6.502C16.0296 6.77067 15.995 6.98733 15.9256 7.152C15.8563 7.308 15.7653 7.42933 15.6526 7.516C15.5486 7.60267 15.4316 7.66333 15.3016 7.698C15.1803 7.724 15.059 7.737 14.9376 7.737C14.799 7.737 14.6776 7.724 14.5736 7.698C14.4696 7.672 14.3526 7.64167 14.2226 7.607C14.1013 7.57233 13.954 7.542 13.7806 7.516C13.6073 7.49 13.382 7.477 13.1046 7.477H12.9746C12.81 7.477 12.7363 7.56367 12.7536 7.737ZM20.4064 7.737C20.4497 8.075 20.4887 8.42167 20.5234 8.777C20.5667 9.12367 20.5884 9.50933 20.5884 9.934C20.5884 10.0553 20.571 10.181 20.5364 10.311C20.5017 10.4323 20.4324 10.545 20.3284 10.649C20.233 10.753 20.0987 10.8397 19.9254 10.909C19.7607 10.9697 19.5484 11 19.2884 11C19.0197 11 18.7987 10.9653 18.6254 10.896C18.4607 10.8267 18.3307 10.74 18.2354 10.636C18.14 10.5233 18.075 10.4063 18.0404 10.285C18.0057 10.155 17.9884 10.0293 17.9884 9.908C17.9884 9.60467 18.0014 9.31 18.0274 9.024C18.0534 8.738 18.0837 8.45633 18.1184 8.179C18.153 7.893 18.1834 7.61567 18.2094 7.347C18.2354 7.06967 18.2484 6.79233 18.2484 6.515V5.735C18.2484 5.45767 18.2354 5.18467 18.2094 4.916C18.1834 4.63867 18.153 4.36133 18.1184 4.084C18.0837 3.798 18.0534 3.512 18.0274 3.226C18.0014 2.94 17.9884 2.64533 17.9884 2.342C17.9884 2.238 18.0014 2.12967 18.0274 2.017C18.0534 1.89567 18.101 1.78733 18.1704 1.692C18.2484 1.59667 18.348 1.51 18.4694 1.432C18.5994 1.354 18.764 1.302 18.9634 1.276C19.0154 1.25867 19.0674 1.25 19.1194 1.25C19.18 1.25 19.2364 1.25 19.2884 1.25C19.5484 1.25 19.7694 1.28467 19.9514 1.354C20.0814 1.39733 20.2287 1.43633 20.3934 1.471C20.5667 1.497 20.818 1.51 21.1474 1.51C21.4247 1.51 21.6457 1.497 21.8104 1.471C21.975 1.445 22.1137 1.41467 22.2264 1.38C22.3477 1.34533 22.4647 1.315 22.5774 1.289C22.69 1.263 22.833 1.25 23.0064 1.25C23.1277 1.25 23.249 1.263 23.3704 1.289C23.5004 1.30633 23.6174 1.35833 23.7214 1.445C23.8254 1.523 23.9077 1.64 23.9684 1.796C24.0377 1.952 24.0724 2.16 24.0724 2.42C24.0724 2.68867 24.0377 2.901 23.9684 3.057C23.899 3.213 23.808 3.33 23.6954 3.408C23.5914 3.486 23.4744 3.538 23.3444 3.564C23.223 3.58133 23.1017 3.59 22.9804 3.59C22.8417 3.59 22.7204 3.577 22.6164 3.551C22.5124 3.525 22.3954 3.49467 22.2654 3.46C22.144 3.42533 21.9967 3.395 21.8234 3.369C21.65 3.343 21.4247 3.33 21.1474 3.33C21.078 3.33 21.013 3.33433 20.9524 3.343C20.8917 3.343 20.8354 3.343 20.7834 3.343C20.6187 3.36033 20.5277 3.447 20.5104 3.603C20.4844 3.89767 20.454 4.17933 20.4194 4.448C20.3847 4.71667 20.3587 4.98967 20.3414 5.267C20.3327 5.345 20.35 5.41 20.3934 5.462C20.4454 5.50533 20.506 5.527 20.5754 5.527H20.7574C21.0347 5.527 21.2557 5.514 21.4204 5.488C21.585 5.462 21.7237 5.43167 21.8364 5.397C21.9577 5.36233 22.0747 5.332 22.1874 5.306C22.3 5.28 22.443 5.267 22.6164 5.267C22.7377 5.267 22.859 5.28433 22.9804 5.319C23.1104 5.345 23.2274 5.40133 23.3314 5.488C23.4354 5.57467 23.5177 5.70033 23.5784 5.865C23.6477 6.02967 23.6824 6.242 23.6824 6.502C23.6824 6.77067 23.6477 6.98733 23.5784 7.152C23.509 7.308 23.418 7.42933 23.3054 7.516C23.2014 7.60267 23.0844 7.66333 22.9544 7.698C22.833 7.724 22.7117 7.737 22.5904 7.737C22.4517 7.737 22.3304 7.724 22.2264 7.698C22.1224 7.672 22.0054 7.64167 21.8754 7.607C21.754 7.57233 21.6067 7.542 21.4334 7.516C21.26 7.49 21.0347 7.477 20.7574 7.477H20.6274C20.4627 7.477 20.389 7.56367 20.4064 7.737ZM27.3961 5.163C27.6041 4.49567 27.7731 3.824 27.9031 3.148C28.0331 2.46333 28.2108 1.75267 28.4361 1.016C28.4794 0.868666 28.5444 0.73 28.6311 0.6C28.7264 0.469999 28.8434 0.365999 28.9821 0.287999C29.1294 0.201333 29.2984 0.153666 29.4891 0.145C29.6884 0.127666 29.9094 0.166666 30.1521 0.262C30.3948 0.357333 30.5854 0.478666 30.7241 0.626C30.8714 0.773333 30.9754 0.929333 31.0361 1.094C31.1054 1.25867 31.1401 1.42767 31.1401 1.601C31.1401 1.76567 31.1184 1.92167 31.0751 2.069C30.9451 2.46767 30.8108 2.84033 30.6721 3.187C30.5421 3.525 30.4078 3.85 30.2691 4.162C30.1391 4.474 30.0091 4.78167 29.8791 5.085C29.7578 5.37967 29.6451 5.69167 29.5411 6.021L29.2551 6.97C29.1511 7.29933 29.0601 7.62867 28.9821 7.958C28.9041 8.27867 28.8304 8.608 28.7611 8.946C28.6918 9.27533 28.6138 9.622 28.5271 9.986C28.4404 10.3413 28.3321 10.7183 28.2021 11.117C28.1588 11.2643 28.0894 11.403 27.9941 11.533C27.9074 11.663 27.7904 11.767 27.6431 11.845C27.5044 11.923 27.3398 11.9663 27.1491 11.975C26.9584 11.9923 26.7418 11.949 26.4991 11.845C26.2564 11.741 26.0614 11.611 25.9141 11.455C25.7754 11.3077 25.6714 11.1517 25.6021 10.987C25.5414 10.8223 25.5111 10.6577 25.5111 10.493C25.5198 10.3197 25.5458 10.1637 25.5891 10.025C25.7104 9.661 25.8361 9.31433 25.9661 8.985C26.0961 8.65567 26.2304 8.33067 26.3691 8.01C26.5078 7.68933 26.6378 7.373 26.7591 7.061C26.8891 6.749 27.0061 6.42833 27.1101 6.099L27.3961 5.163ZM32.5814 6.125C32.5814 5.45767 32.6681 4.825 32.8414 4.227C33.0147 3.62033 33.2747 3.08733 33.6214 2.628C33.9681 2.16867 34.3971 1.80467 34.9084 1.536C35.4197 1.25867 36.0134 1.12 36.6894 1.12C37.3567 1.12 37.9417 1.25867 38.4444 1.536C38.9557 1.80467 39.3847 2.16867 39.7314 2.628C40.0781 3.08733 40.3381 3.62033 40.5114 4.227C40.6934 4.825 40.7844 5.45767 40.7844 6.125C40.7844 6.905 40.7021 7.607 40.5374 8.231C40.3814 8.84633 40.1344 9.37067 39.7964 9.804C39.4584 10.2287 39.0294 10.558 38.5094 10.792C37.9981 11.0173 37.3914 11.13 36.6894 11.13C35.9787 11.13 35.3634 11.0173 34.8434 10.792C34.3321 10.558 33.9074 10.2287 33.5694 9.804C33.2314 9.37067 32.9801 8.84633 32.8154 8.231C32.6594 7.607 32.5814 6.905 32.5814 6.125ZM34.8564 6.112C34.8564 6.554 34.8867 6.957 34.9474 7.321C35.0167 7.67633 35.1251 7.97967 35.2724 8.231C35.4197 8.48233 35.6061 8.67733 35.8314 8.816C36.0654 8.95467 36.3514 9.024 36.6894 9.024C37.0274 9.024 37.3091 8.95467 37.5344 8.816C37.7684 8.67733 37.9591 8.48233 38.1064 8.231C38.2537 7.97967 38.3577 7.67633 38.4184 7.321C38.4877 6.957 38.5224 6.554 38.5224 6.112C38.5224 5.67 38.4964 5.25833 38.4444 4.877C38.3924 4.49567 38.2971 4.162 38.1584 3.876C38.0197 3.59 37.8291 3.36467 37.5864 3.2C37.3524 3.03533 37.0534 2.953 36.6894 2.953C36.3254 2.953 36.0221 3.03533 35.7794 3.2C35.5454 3.36467 35.3591 3.59 35.2204 3.876C35.0817 4.162 34.9864 4.49567 34.9344 4.877C34.8824 5.25833 34.8564 5.67 34.8564 6.112ZM47.0361 10.519C46.9754 10.4323 46.9407 10.35 46.9321 10.272L44.6701 5.54C44.6354 5.47067 44.6051 5.44033 44.5791 5.449C44.5617 5.449 44.5531 5.488 44.5531 5.566V5.735V6.125C44.5531 6.40233 44.5704 6.697 44.6051 7.009C44.6484 7.31233 44.6961 7.62433 44.7481 7.945C44.8001 8.26567 44.8434 8.595 44.8781 8.933C44.9214 9.26233 44.9431 9.596 44.9431 9.934C44.9431 10.0553 44.9214 10.181 44.8781 10.311C44.8347 10.4323 44.7611 10.545 44.6571 10.649C44.5531 10.753 44.4101 10.8397 44.2281 10.909C44.0547 10.9697 43.8381 11 43.5781 11C43.3094 11 43.0927 10.9653 42.9281 10.896C42.7721 10.8267 42.6507 10.74 42.5641 10.636C42.4774 10.5233 42.4167 10.4063 42.3821 10.285C42.3561 10.155 42.3431 10.0293 42.3431 9.908C42.3431 9.60467 42.3561 9.31 42.3821 9.024C42.4081 8.738 42.4384 8.45633 42.4731 8.179C42.5077 7.893 42.5381 7.61567 42.5641 7.347C42.5901 7.06967 42.6031 6.79233 42.6031 6.515V5.735C42.6031 5.45767 42.5901 5.18467 42.5641 4.916C42.5381 4.63867 42.5077 4.36133 42.4731 4.084C42.4384 3.798 42.4081 3.512 42.3821 3.226C42.3561 2.94 42.3431 2.64533 42.3431 2.342C42.3431 2.22067 42.3561 2.09933 42.3821 1.978C42.4167 1.848 42.4774 1.731 42.5641 1.627C42.6507 1.51433 42.7721 1.42333 42.9281 1.354C43.0927 1.28467 43.3094 1.25 43.5781 1.25H44.1241C44.2974 1.25 44.4577 1.29767 44.6051 1.393C44.7524 1.47967 44.8607 1.59667 44.9301 1.744L47.0361 6.034C47.0707 6.10333 47.0967 6.138 47.1141 6.138C47.1401 6.12933 47.1531 6.086 47.1531 6.008V5.735C47.1531 5.45767 47.1314 5.18467 47.0881 4.916C47.0534 4.63867 47.0101 4.36133 46.9581 4.084C46.9061 3.798 46.8584 3.512 46.8151 3.226C46.7804 2.94 46.7631 2.64533 46.7631 2.342C46.7631 2.22067 46.7847 2.09933 46.8281 1.978C46.8714 1.848 46.9451 1.731 47.0491 1.627C47.1531 1.51433 47.2917 1.42333 47.4651 1.354C47.6384 1.28467 47.8594 1.25 48.1281 1.25C48.3881 1.25 48.6004 1.28467 48.7651 1.354C48.9297 1.41467 49.0554 1.497 49.1421 1.601C49.2287 1.705 49.2851 1.822 49.3111 1.952C49.3457 2.07333 49.3631 2.19467 49.3631 2.316C49.3631 2.654 49.3501 2.97033 49.3241 3.265C49.2981 3.55967 49.2677 3.84567 49.2331 4.123C49.1984 4.39167 49.1681 4.66033 49.1421 4.929C49.1161 5.189 49.1031 5.45767 49.1031 5.735V6.515C49.1031 6.79233 49.1161 7.06533 49.1421 7.334C49.1681 7.594 49.1984 7.86267 49.2331 8.14C49.2677 8.40867 49.2981 8.69033 49.3241 8.985C49.3501 9.27967 49.3631 9.596 49.3631 9.934C49.3631 10.0467 49.3501 10.1637 49.3241 10.285C49.2981 10.4063 49.2417 10.519 49.1551 10.623C49.0771 10.727 48.9644 10.8137 48.8171 10.883C48.6784 10.9523 48.4921 10.9913 48.2581 11H47.8161C47.6687 11 47.5257 10.9567 47.3871 10.87C47.2484 10.7833 47.1314 10.6663 47.0361 10.519Z" fill="black"/>
</svg>
