<svg width="50" height="12" viewBox="0 0 50 12" fill="none" xmlns="http://www.w3.org/2000/svg">
<path d="M0.573965 6.125C0.573965 5.45767 0.660632 4.825 0.833965 4.227C1.0073 3.62033 1.2673 3.08733 1.61396 2.628C1.96063 2.16867 2.38963 1.80467 2.90097 1.536C3.4123 1.25867 4.00597 1.12 4.68197 1.12C5.3493 1.12 5.9343 1.25867 6.43697 1.536C6.9483 1.80467 7.3773 2.16867 7.72397 2.628C8.07063 3.08733 8.33063 3.62033 8.50397 4.227C8.68597 4.825 8.77697 5.45767 8.77697 6.125C8.77697 6.905 8.69463 7.607 8.52997 8.231C8.37397 8.84633 8.12697 9.37067 7.78897 9.804C7.45097 10.2287 7.02197 10.558 6.50196 10.792C5.99063 11.0173 5.38397 11.13 4.68197 11.13C3.9713 11.13 3.35596 11.0173 2.83596 10.792C2.32463 10.558 1.89996 10.2287 1.56196 9.804C1.22396 9.37067 0.972632 8.84633 0.807965 8.231C0.651965 7.607 0.573965 6.905 0.573965 6.125ZM2.84896 6.112C2.84896 6.554 2.8793 6.957 2.93996 7.321C3.0093 7.67633 3.11763 7.97967 3.26497 8.231C3.4123 8.48233 3.59863 8.67733 3.82396 8.816C4.05797 8.95467 4.34397 9.024 4.68197 9.024C5.01997 9.024 5.30163 8.95467 5.52697 8.816C5.76097 8.67733 5.95163 8.48233 6.09897 8.231C6.2463 7.97967 6.3503 7.67633 6.41096 7.321C6.4803 6.957 6.51497 6.554 6.51497 6.112C6.51497 5.67 6.48897 5.25833 6.43697 4.877C6.38497 4.49567 6.28963 4.162 6.15097 3.876C6.0123 3.59 5.82163 3.36467 5.57897 3.2C5.34497 3.03533 5.04597 2.953 4.68197 2.953C4.31796 2.953 4.01463 3.03533 3.77196 3.2C3.53796 3.36467 3.35163 3.59 3.21296 3.876C3.0743 4.162 2.97897 4.49567 2.92696 4.877C2.87496 5.25833 2.84896 5.67 2.84896 6.112ZM15.0286 10.519C14.968 10.4323 14.9333 10.35 14.9246 10.272L12.6626 5.54C12.628 5.47067 12.5976 5.44033 12.5716 5.449C12.5543 5.449 12.5456 5.488 12.5456 5.566V5.735V6.125C12.5456 6.40233 12.563 6.697 12.5976 7.009C12.641 7.31233 12.6886 7.62433 12.7406 7.945C12.7926 8.26567 12.836 8.595 12.8706 8.933C12.914 9.26233 12.9356 9.596 12.9356 9.934C12.9356 10.0553 12.914 10.181 12.8706 10.311C12.8273 10.4323 12.7536 10.545 12.6496 10.649C12.5456 10.753 12.4026 10.8397 12.2206 10.909C12.0473 10.9697 11.8306 11 11.5706 11C11.302 11 11.0853 10.9653 10.9206 10.896C10.7646 10.8267 10.6433 10.74 10.5566 10.636C10.47 10.5233 10.4093 10.4063 10.3746 10.285C10.3486 10.155 10.3356 10.0293 10.3356 9.908C10.3356 9.60467 10.3486 9.31 10.3746 9.024C10.4006 8.738 10.431 8.45633 10.4656 8.179C10.5003 7.893 10.5306 7.61567 10.5566 7.347C10.5826 7.06967 10.5956 6.79233 10.5956 6.515V5.735C10.5956 5.45767 10.5826 5.18467 10.5566 4.916C10.5306 4.63867 10.5003 4.36133 10.4656 4.084C10.431 3.798 10.4006 3.512 10.3746 3.226C10.3486 2.94 10.3356 2.64533 10.3356 2.342C10.3356 2.22067 10.3486 2.09933 10.3746 1.978C10.4093 1.848 10.47 1.731 10.5566 1.627C10.6433 1.51433 10.7646 1.42333 10.9206 1.354C11.0853 1.28467 11.302 1.25 11.5706 1.25H12.1166C12.29 1.25 12.4503 1.29767 12.5976 1.393C12.745 1.47967 12.8533 1.59667 12.9226 1.744L15.0286 6.034C15.0633 6.10333 15.0893 6.138 15.1066 6.138C15.1326 6.12933 15.1456 6.086 15.1456 6.008V5.735C15.1456 5.45767 15.124 5.18467 15.0806 4.916C15.046 4.63867 15.0026 4.36133 14.9506 4.084C14.8986 3.798 14.851 3.512 14.8076 3.226C14.773 2.94 14.7556 2.64533 14.7556 2.342C14.7556 2.22067 14.7773 2.09933 14.8206 1.978C14.864 1.848 14.9376 1.731 15.0416 1.627C15.1456 1.51433 15.2843 1.42333 15.4576 1.354C15.631 1.28467 15.852 1.25 16.1206 1.25C16.3806 1.25 16.593 1.28467 16.7576 1.354C16.9223 1.41467 17.048 1.497 17.1346 1.601C17.2213 1.705 17.2776 1.822 17.3036 1.952C17.3383 2.07333 17.3556 2.19467 17.3556 2.316C17.3556 2.654 17.3426 2.97033 17.3166 3.265C17.2906 3.55967 17.2603 3.84567 17.2256 4.123C17.191 4.39167 17.1606 4.66033 17.1346 4.929C17.1086 5.189 17.0956 5.45767 17.0956 5.735V6.515C17.0956 6.79233 17.1086 7.06533 17.1346 7.334C17.1606 7.594 17.191 7.86267 17.2256 8.14C17.2603 8.40867 17.2906 8.69033 17.3166 8.985C17.3426 9.27967 17.3556 9.596 17.3556 9.934C17.3556 10.0467 17.3426 10.1637 17.3166 10.285C17.2906 10.4063 17.2343 10.519 17.1476 10.623C17.0696 10.727 16.957 10.8137 16.8096 10.883C16.671 10.9523 16.4846 10.9913 16.2506 11H15.8086C15.6613 11 15.5183 10.9567 15.3796 10.87C15.241 10.7833 15.124 10.6663 15.0286 10.519ZM20.7336 5.163C20.9416 4.49567 21.1106 3.824 21.2406 3.148C21.3706 2.46333 21.5483 1.75267 21.7736 1.016C21.8169 0.868666 21.8819 0.73 21.9686 0.6C22.0639 0.469999 22.1809 0.365999 22.3196 0.287999C22.4669 0.201333 22.6359 0.153666 22.8266 0.145C23.0259 0.127666 23.2469 0.166666 23.4896 0.262C23.7323 0.357333 23.9229 0.478666 24.0616 0.626C24.2089 0.773333 24.3129 0.929333 24.3736 1.094C24.4429 1.25867 24.4776 1.42767 24.4776 1.601C24.4776 1.76567 24.4559 1.92167 24.4126 2.069C24.2826 2.46767 24.1483 2.84033 24.0096 3.187C23.8796 3.525 23.7453 3.85 23.6066 4.162C23.4766 4.474 23.3466 4.78167 23.2166 5.085C23.0953 5.37967 22.9826 5.69167 22.8786 6.021L22.5926 6.97C22.4886 7.29933 22.3976 7.62867 22.3196 7.958C22.2416 8.27867 22.1679 8.608 22.0986 8.946C22.0293 9.27533 21.9513 9.622 21.8646 9.986C21.7779 10.3413 21.6696 10.7183 21.5396 11.117C21.4963 11.2643 21.4269 11.403 21.3316 11.533C21.2449 11.663 21.1279 11.767 20.9806 11.845C20.8419 11.923 20.6773 11.9663 20.4866 11.975C20.2959 11.9923 20.0793 11.949 19.8366 11.845C19.5939 11.741 19.3989 11.611 19.2516 11.455C19.1129 11.3077 19.0089 11.1517 18.9396 10.987C18.8789 10.8223 18.8486 10.6577 18.8486 10.493C18.8573 10.3197 18.8833 10.1637 18.9266 10.025C19.0479 9.661 19.1736 9.31433 19.3036 8.985C19.4336 8.65567 19.5679 8.33067 19.7066 8.01C19.8453 7.68933 19.9753 7.373 20.0966 7.061C20.2266 6.749 20.3436 6.42833 20.4476 6.099L20.7336 5.163ZM25.9189 6.125C25.9189 5.45767 26.0056 4.825 26.1789 4.227C26.3522 3.62033 26.6122 3.08733 26.9589 2.628C27.3056 2.16867 27.7346 1.80467 28.2459 1.536C28.7572 1.25867 29.3509 1.12 30.0269 1.12C30.6942 1.12 31.2792 1.25867 31.7819 1.536C32.2932 1.80467 32.7222 2.16867 33.0689 2.628C33.4156 3.08733 33.6756 3.62033 33.8489 4.227C34.0309 4.825 34.1219 5.45767 34.1219 6.125C34.1219 6.905 34.0396 7.607 33.8749 8.231C33.7189 8.84633 33.4719 9.37067 33.1339 9.804C32.7959 10.2287 32.3669 10.558 31.8469 10.792C31.3356 11.0173 30.7289 11.13 30.0269 11.13C29.3162 11.13 28.7009 11.0173 28.1809 10.792C27.6696 10.558 27.2449 10.2287 26.9069 9.804C26.5689 9.37067 26.3176 8.84633 26.1529 8.231C25.9969 7.607 25.9189 6.905 25.9189 6.125ZM28.1939 6.112C28.1939 6.554 28.2242 6.957 28.2849 7.321C28.3542 7.67633 28.4626 7.97967 28.6099 8.231C28.7572 8.48233 28.9436 8.67733 29.1689 8.816C29.4029 8.95467 29.6889 9.024 30.0269 9.024C30.3649 9.024 30.6466 8.95467 30.8719 8.816C31.1059 8.67733 31.2966 8.48233 31.4439 8.231C31.5912 7.97967 31.6952 7.67633 31.7559 7.321C31.8252 6.957 31.8599 6.554 31.8599 6.112C31.8599 5.67 31.8339 5.25833 31.7819 4.877C31.7299 4.49567 31.6346 4.162 31.4959 3.876C31.3572 3.59 31.1666 3.36467 30.9239 3.2C30.6899 3.03533 30.3909 2.953 30.0269 2.953C29.6629 2.953 29.3596 3.03533 29.1169 3.2C28.8829 3.36467 28.6966 3.59 28.5579 3.876C28.4192 4.162 28.3239 4.49567 28.2719 4.877C28.2199 5.25833 28.1939 5.67 28.1939 6.112ZM38.0986 7.737C38.1419 8.075 38.1809 8.42167 38.2156 8.777C38.2589 9.12367 38.2806 9.50933 38.2806 9.934C38.2806 10.0553 38.2632 10.181 38.2286 10.311C38.1939 10.4323 38.1246 10.545 38.0206 10.649C37.9252 10.753 37.7909 10.8397 37.6176 10.909C37.4529 10.9697 37.2406 11 36.9806 11C36.7119 11 36.4909 10.9653 36.3176 10.896C36.1529 10.8267 36.0229 10.74 35.9276 10.636C35.8322 10.5233 35.7672 10.4063 35.7326 10.285C35.6979 10.155 35.6806 10.0293 35.6806 9.908C35.6806 9.60467 35.6936 9.31 35.7196 9.024C35.7456 8.738 35.7759 8.45633 35.8106 8.179C35.8452 7.893 35.8756 7.61567 35.9016 7.347C35.9276 7.06967 35.9406 6.79233 35.9406 6.515V5.735C35.9406 5.45767 35.9276 5.18467 35.9016 4.916C35.8756 4.63867 35.8452 4.36133 35.8106 4.084C35.7759 3.798 35.7456 3.512 35.7196 3.226C35.6936 2.94 35.6806 2.64533 35.6806 2.342C35.6806 2.238 35.6936 2.12967 35.7196 2.017C35.7456 1.89567 35.7932 1.78733 35.8626 1.692C35.9406 1.59667 36.0402 1.51 36.1616 1.432C36.2916 1.354 36.4562 1.302 36.6556 1.276C36.7076 1.25867 36.7596 1.25 36.8116 1.25C36.8722 1.25 36.9286 1.25 36.9806 1.25C37.2406 1.25 37.4616 1.28467 37.6436 1.354C37.7736 1.39733 37.9209 1.43633 38.0856 1.471C38.2589 1.497 38.5102 1.51 38.8396 1.51C39.1169 1.51 39.3379 1.497 39.5026 1.471C39.6672 1.445 39.8059 1.41467 39.9186 1.38C40.0399 1.34533 40.1569 1.315 40.2696 1.289C40.3822 1.263 40.5252 1.25 40.6986 1.25C40.8199 1.25 40.9412 1.263 41.0626 1.289C41.1926 1.30633 41.3096 1.35833 41.4136 1.445C41.5176 1.523 41.5999 1.64 41.6606 1.796C41.7299 1.952 41.7646 2.16 41.7646 2.42C41.7646 2.68867 41.7299 2.901 41.6606 3.057C41.5912 3.213 41.5002 3.33 41.3876 3.408C41.2836 3.486 41.1666 3.538 41.0366 3.564C40.9152 3.58133 40.7939 3.59 40.6726 3.59C40.5339 3.59 40.4126 3.577 40.3086 3.551C40.2046 3.525 40.0876 3.49467 39.9576 3.46C39.8362 3.42533 39.6889 3.395 39.5156 3.369C39.3422 3.343 39.1169 3.33 38.8396 3.33C38.7702 3.33 38.7052 3.33433 38.6446 3.343C38.5839 3.343 38.5276 3.343 38.4756 3.343C38.3109 3.36033 38.2199 3.447 38.2026 3.603C38.1766 3.89767 38.1462 4.17933 38.1116 4.448C38.0769 4.71667 38.0509 4.98967 38.0336 5.267C38.0249 5.345 38.0422 5.41 38.0856 5.462C38.1376 5.50533 38.1982 5.527 38.2676 5.527H38.4496C38.7269 5.527 38.9479 5.514 39.1126 5.488C39.2772 5.462 39.4159 5.43167 39.5286 5.397C39.6499 5.36233 39.7669 5.332 39.8796 5.306C39.9922 5.28 40.1352 5.267 40.3086 5.267C40.4299 5.267 40.5512 5.28433 40.6726 5.319C40.8026 5.345 40.9196 5.40133 41.0236 5.488C41.1276 5.57467 41.2099 5.70033 41.2706 5.865C41.3399 6.02967 41.3746 6.242 41.3746 6.502C41.3746 6.77067 41.3399 6.98733 41.2706 7.152C41.2012 7.308 41.1102 7.42933 40.9976 7.516C40.8936 7.60267 40.7766 7.66333 40.6466 7.698C40.5252 7.724 40.4039 7.737 40.2826 7.737C40.1439 7.737 40.0226 7.724 39.9186 7.698C39.8146 7.672 39.6976 7.64167 39.5676 7.607C39.4462 7.57233 39.2989 7.542 39.1256 7.516C38.9522 7.49 38.7269 7.477 38.4496 7.477H38.3196C38.1549 7.477 38.0812 7.56367 38.0986 7.737ZM45.7513 7.737C45.7946 8.075 45.8336 8.42167 45.8683 8.777C45.9116 9.12367 45.9333 9.50933 45.9333 9.934C45.9333 10.0553 45.916 10.181 45.8813 10.311C45.8466 10.4323 45.7773 10.545 45.6733 10.649C45.578 10.753 45.4436 10.8397 45.2703 10.909C45.1056 10.9697 44.8933 11 44.6333 11C44.3646 11 44.1436 10.9653 43.9703 10.896C43.8056 10.8267 43.6756 10.74 43.5803 10.636C43.485 10.5233 43.42 10.4063 43.3853 10.285C43.3506 10.155 43.3333 10.0293 43.3333 9.908C43.3333 9.60467 43.3463 9.31 43.3723 9.024C43.3983 8.738 43.4286 8.45633 43.4633 8.179C43.498 7.893 43.5283 7.61567 43.5543 7.347C43.5803 7.06967 43.5933 6.79233 43.5933 6.515V5.735C43.5933 5.45767 43.5803 5.18467 43.5543 4.916C43.5283 4.63867 43.498 4.36133 43.4633 4.084C43.4286 3.798 43.3983 3.512 43.3723 3.226C43.3463 2.94 43.3333 2.64533 43.3333 2.342C43.3333 2.238 43.3463 2.12967 43.3723 2.017C43.3983 1.89567 43.446 1.78733 43.5153 1.692C43.5933 1.59667 43.693 1.51 43.8143 1.432C43.9443 1.354 44.109 1.302 44.3083 1.276C44.3603 1.25867 44.4123 1.25 44.4643 1.25C44.525 1.25 44.5813 1.25 44.6333 1.25C44.8933 1.25 45.1143 1.28467 45.2963 1.354C45.4263 1.39733 45.5736 1.43633 45.7383 1.471C45.9116 1.497 46.163 1.51 46.4923 1.51C46.7696 1.51 46.9906 1.497 47.1553 1.471C47.32 1.445 47.4586 1.41467 47.5713 1.38C47.6926 1.34533 47.8096 1.315 47.9223 1.289C48.035 1.263 48.178 1.25 48.3513 1.25C48.4726 1.25 48.594 1.263 48.7153 1.289C48.8453 1.30633 48.9623 1.35833 49.0663 1.445C49.1703 1.523 49.2526 1.64 49.3133 1.796C49.3826 1.952 49.4173 2.16 49.4173 2.42C49.4173 2.68867 49.3826 2.901 49.3133 3.057C49.244 3.213 49.153 3.33 49.0403 3.408C48.9363 3.486 48.8193 3.538 48.6893 3.564C48.568 3.58133 48.4466 3.59 48.3253 3.59C48.1866 3.59 48.0653 3.577 47.9613 3.551C47.8573 3.525 47.7403 3.49467 47.6103 3.46C47.489 3.42533 47.3416 3.395 47.1683 3.369C46.995 3.343 46.7696 3.33 46.4923 3.33C46.423 3.33 46.358 3.33433 46.2973 3.343C46.2366 3.343 46.1803 3.343 46.1283 3.343C45.9636 3.36033 45.8726 3.447 45.8553 3.603C45.8293 3.89767 45.799 4.17933 45.7643 4.448C45.7296 4.71667 45.7036 4.98967 45.6863 5.267C45.6776 5.345 45.695 5.41 45.7383 5.462C45.7903 5.50533 45.851 5.527 45.9203 5.527H46.1023C46.3796 5.527 46.6006 5.514 46.7653 5.488C46.93 5.462 47.0686 5.43167 47.1813 5.397C47.3026 5.36233 47.4196 5.332 47.5323 5.306C47.645 5.28 47.788 5.267 47.9613 5.267C48.0826 5.267 48.204 5.28433 48.3253 5.319C48.4553 5.345 48.5723 5.40133 48.6763 5.488C48.7803 5.57467 48.8626 5.70033 48.9233 5.865C48.9926 6.02967 49.0273 6.242 49.0273 6.502C49.0273 6.77067 48.9926 6.98733 48.9233 7.152C48.854 7.308 48.763 7.42933 48.6503 7.516C48.5463 7.60267 48.4293 7.66333 48.2993 7.698C48.178 7.724 48.0566 7.737 47.9353 7.737C47.7966 7.737 47.6753 7.724 47.5713 7.698C47.4673 7.672 47.3503 7.64167 47.2203 7.607C47.099 7.57233 46.9516 7.542 46.7783 7.516C46.605 7.49 46.3796 7.477 46.1023 7.477H45.9723C45.8076 7.477 45.734 7.56367 45.7513 7.737Z" fill="black"/>
</svg>
