<svg width="45" height="31" viewBox="0 0 45 31" fill="none" xmlns="http://www.w3.org/2000/svg">
<path d="M3.44 9.48C3.48267 9.82133 3.52 10.1733 3.552 10.536C3.584 10.888 3.6 11.272 3.6 11.688C3.6 11.8373 3.57867 11.992 3.536 12.152C3.49333 12.3013 3.408 12.44 3.28 12.568C3.16267 12.696 2.99733 12.8027 2.784 12.888C2.58133 12.9627 2.32 13 2 13C1.66933 13 1.39733 12.9573 1.184 12.872C0.981333 12.7867 0.821333 12.68 0.704 12.552C0.586667 12.4133 0.506667 12.2693 0.464 12.12C0.421333 11.96 0.4 11.8053 0.4 11.656C0.4 11.2827 0.416 10.92 0.448 10.568C0.48 10.216 0.517333 9.86933 0.56 9.528C0.602667 9.176 0.64 8.83467 0.672 8.504C0.704 8.16267 0.72 7.82133 0.72 7.48V6.52C0.72 6.17867 0.704 5.84267 0.672 5.512C0.64 5.17067 0.602667 4.82933 0.56 4.488C0.517333 4.136 0.48 3.784 0.448 3.432C0.416 3.08 0.4 2.71733 0.4 2.344C0.4 2.19467 0.421333 2.04533 0.464 1.896C0.506667 1.736 0.586667 1.592 0.704 1.464C0.832 1.32533 0.997333 1.21333 1.2 1.128C1.41333 1.04267 1.68533 0.999999 2.016 0.999999H4.096C5.73867 0.999999 6.98667 1.34667 7.84 2.04C8.704 2.73333 9.136 3.74667 9.136 5.08C9.136 5.72 9.00267 6.296 8.736 6.808C8.48 7.32 8.12267 7.752 7.664 8.104C7.216 8.456 6.68267 8.728 6.064 8.92C5.456 9.112 4.8 9.208 4.096 9.208H3.68C3.49867 9.208 3.41867 9.29867 3.44 9.48ZM4.096 7C4.512 7 4.85867 6.94133 5.136 6.824C5.424 6.70667 5.65867 6.55733 5.84 6.376C6.02133 6.184 6.14933 5.976 6.224 5.752C6.30933 5.51733 6.352 5.288 6.352 5.064C6.352 4.84 6.32 4.62133 6.256 4.408C6.192 4.19467 6.07467 4.00267 5.904 3.832C5.73333 3.66133 5.49867 3.52267 5.2 3.416C4.912 3.30933 4.544 3.256 4.096 3.256H3.84C3.66933 3.256 3.57333 3.34667 3.552 3.528C3.49867 4.072 3.44 4.57867 3.376 5.048C3.312 5.51733 3.28 6.008 3.28 6.52V6.728C3.28 6.90933 3.37067 7 3.552 7H4.096ZM10.9731 6.52C10.9731 6.17867 10.9571 5.84267 10.9251 5.512C10.8931 5.17067 10.8558 4.82933 10.8131 4.488C10.7705 4.136 10.7331 3.784 10.7011 3.432C10.6691 3.08 10.6531 2.71733 10.6531 2.344C10.6531 2.09867 10.6958 1.89067 10.7811 1.72C10.8665 1.54933 10.9838 1.41067 11.1331 1.304C11.2825 1.19733 11.4585 1.12267 11.6611 1.08C11.8638 1.02667 12.0771 0.999999 12.3011 0.999999C12.6105 0.999999 12.8665 1.04267 13.0691 1.128C13.2718 1.20267 13.4318 1.304 13.5491 1.432C13.6665 1.56 13.7465 1.704 13.7891 1.864C13.8318 2.01333 13.8531 2.16267 13.8531 2.312C13.8531 2.728 13.8371 3.11733 13.8051 3.48C13.7731 3.84267 13.7358 4.19467 13.6931 4.536C13.6505 4.86667 13.6131 5.19733 13.5811 5.528C13.5491 5.848 13.5331 6.17867 13.5331 6.52V7.48C13.5331 7.82133 13.5491 8.15733 13.5811 8.488C13.6131 8.808 13.6505 9.13867 13.6931 9.48C13.7358 9.81067 13.7731 10.1573 13.8051 10.52C13.8371 10.8827 13.8531 11.272 13.8531 11.688C13.8531 11.8373 13.8318 11.992 13.7891 12.152C13.7465 12.3013 13.6665 12.44 13.5491 12.568C13.4318 12.696 13.2718 12.8027 13.0691 12.888C12.8665 12.9627 12.6105 13 12.3011 13C11.8425 13 11.4531 12.8987 11.1331 12.696C10.8131 12.4933 10.6531 12.1467 10.6531 11.656C10.6531 11.2827 10.6691 10.92 10.7011 10.568C10.7331 10.216 10.7705 9.86933 10.8131 9.528C10.8558 9.176 10.8931 8.83467 10.9251 8.504C10.9571 8.16267 10.9731 7.82133 10.9731 7.48V6.52ZM18.8611 10.104C18.9251 10.1147 18.9945 10.12 19.0691 10.12C19.1438 10.12 19.2238 10.12 19.3091 10.12C19.6505 10.12 19.9225 10.104 20.1251 10.072C20.3278 10.04 20.4985 10.0027 20.6371 9.96C20.7865 9.91733 20.9305 9.88 21.0691 9.848C21.2078 9.816 21.3838 9.8 21.5971 9.8C21.7465 9.8 21.8958 9.82133 22.0451 9.864C22.2051 9.90667 22.3491 9.992 22.4771 10.12C22.6051 10.2373 22.7065 10.4027 22.7811 10.616C22.8665 10.8187 22.9091 11.08 22.9091 11.4C22.9091 11.7307 22.8665 12.0027 22.7811 12.216C22.6958 12.4187 22.5838 12.5787 22.4451 12.696C22.3171 12.8133 22.1731 12.8933 22.0131 12.936C21.8638 12.9787 21.7145 13 21.5651 13C21.3945 13 21.2451 12.984 21.1171 12.952C20.9891 12.92 20.8451 12.8827 20.6851 12.84C20.5358 12.7973 20.3545 12.76 20.1411 12.728C19.9278 12.696 19.6505 12.68 19.3091 12.68C18.9891 12.68 18.7278 12.696 18.5251 12.728C18.3225 12.7493 18.1465 12.7813 17.9971 12.824C17.7625 12.9413 17.4478 13 17.0531 13C16.6051 13 16.2265 12.8987 15.9171 12.696C15.6078 12.4827 15.4531 12.136 15.4531 11.656C15.4531 11.2827 15.4691 10.92 15.5011 10.568C15.5331 10.216 15.5705 9.86933 15.6131 9.528C15.6558 9.176 15.6931 8.83467 15.7251 8.504C15.7571 8.16267 15.7731 7.82133 15.7731 7.48V6.52C15.7731 6.17867 15.7571 5.84267 15.7251 5.512C15.6931 5.17067 15.6558 4.82933 15.6131 4.488C15.5705 4.136 15.5331 3.784 15.5011 3.432C15.4691 3.08 15.4531 2.71733 15.4531 2.344C15.4531 2.216 15.4691 2.08267 15.5011 1.944C15.5331 1.79467 15.5918 1.66133 15.6771 1.544C15.7731 1.42667 15.8958 1.32 16.0451 1.224C16.2051 1.128 16.4078 1.064 16.6531 1.032C16.7171 1.01067 16.7811 0.999999 16.8451 0.999999C16.9198 0.999999 16.9891 0.999999 17.0531 0.999999C17.3731 0.999999 17.6451 1.04267 17.8691 1.128C18.0291 1.18133 18.2105 1.22933 18.4131 1.272C18.6265 1.304 18.9358 1.32 19.3411 1.32C19.6825 1.32 19.9545 1.304 20.1571 1.272C20.3598 1.24 20.5305 1.20267 20.6691 1.16C20.8185 1.11733 20.9625 1.08 21.1011 1.048C21.2398 1.016 21.4158 0.999999 21.6291 0.999999C21.7785 0.999999 21.9278 1.016 22.0771 1.048C22.2371 1.06933 22.3811 1.13333 22.5091 1.24C22.6371 1.336 22.7385 1.48 22.8131 1.672C22.8985 1.864 22.9411 2.12 22.9411 2.44C22.9411 2.77067 22.8985 3.032 22.8131 3.224C22.7278 3.416 22.6158 3.56 22.4771 3.656C22.3491 3.752 22.2051 3.816 22.0451 3.848C21.8958 3.86933 21.7465 3.88 21.5971 3.88C21.4265 3.88 21.2771 3.864 21.1491 3.832C21.0211 3.8 20.8771 3.76267 20.7171 3.72C20.5678 3.67733 20.3865 3.64 20.1731 3.608C19.9598 3.576 19.6825 3.56 19.3411 3.56C19.2558 3.56 19.1758 3.56533 19.1011 3.576C19.0265 3.576 18.9571 3.576 18.8931 3.576C18.6905 3.59733 18.5785 3.704 18.5571 3.896C18.5358 4.14133 18.5091 4.38133 18.4771 4.616C18.4558 4.85067 18.4345 5.08533 18.4131 5.32C18.3918 5.53333 18.4825 5.64 18.6851 5.64H18.8611C19.2025 5.64 19.4745 5.624 19.6771 5.592C19.8798 5.56 20.0505 5.52267 20.1891 5.48C20.3385 5.43733 20.4825 5.4 20.6211 5.368C20.7598 5.336 20.9358 5.32 21.1491 5.32C21.2985 5.32 21.4478 5.34133 21.5971 5.384C21.7571 5.416 21.9011 5.48533 22.0291 5.592C22.1571 5.69867 22.2585 5.85333 22.3331 6.056C22.4185 6.25867 22.4611 6.52 22.4611 6.84C22.4611 7.17067 22.4185 7.43733 22.3331 7.64C22.2478 7.832 22.1358 7.98133 21.9971 8.088C21.8691 8.19467 21.7251 8.26933 21.5651 8.312C21.4158 8.344 21.2665 8.36 21.1171 8.36C20.9465 8.36 20.7971 8.344 20.6691 8.312C20.5411 8.28 20.3971 8.24267 20.2371 8.2C20.0878 8.15733 19.9065 8.12 19.6931 8.088C19.4798 8.056 19.2025 8.04 18.8611 8.04H18.6531C18.5678 8.04 18.4931 8.072 18.4291 8.136C18.3758 8.18933 18.3545 8.264 18.3651 8.36C18.3865 8.59467 18.4078 8.82933 18.4291 9.064C18.4611 9.288 18.4931 9.52267 18.5251 9.768C18.5465 9.97067 18.6585 10.0827 18.8611 10.104ZM29.0959 10.12C29.4479 10.12 29.7305 10.104 29.9439 10.072C30.1679 10.04 30.3652 10.0027 30.5359 9.96C30.7065 9.91733 30.8665 9.88 31.0159 9.848C31.1652 9.816 31.3519 9.8 31.5759 9.8C31.7252 9.8 31.8799 9.82133 32.0399 9.864C32.1999 9.90667 32.3439 9.992 32.4719 10.12C32.5999 10.2373 32.7012 10.4027 32.7759 10.616C32.8612 10.8187 32.9039 11.08 32.9039 11.4C32.9039 11.7307 32.8612 12.0027 32.7759 12.216C32.6905 12.4187 32.5785 12.5787 32.4399 12.696C32.3119 12.8133 32.1679 12.8933 32.0079 12.936C31.8585 12.9787 31.7092 13 31.5599 13C31.3785 13 31.2132 12.984 31.0639 12.952C30.9145 12.92 30.7492 12.888 30.5679 12.856C30.3972 12.824 30.1945 12.792 29.9599 12.76C29.7359 12.728 29.4479 12.712 29.0959 12.712H28.2159C27.8639 12.712 27.5705 12.728 27.3359 12.76C27.1119 12.792 26.9092 12.824 26.7279 12.856C26.5572 12.888 26.3972 12.92 26.2479 12.952C26.1092 12.984 25.9492 13 25.7679 13C25.6185 13 25.4639 12.9787 25.3039 12.936C25.1439 12.8933 24.9945 12.8133 24.8559 12.696C24.7279 12.5787 24.6212 12.4187 24.5359 12.216C24.4505 12.0027 24.4079 11.7307 24.4079 11.4C24.4079 11.1867 24.4185 11.0107 24.4399 10.872C24.4719 10.7333 24.5145 10.6107 24.5679 10.504C24.6212 10.3973 24.6799 10.3013 24.7439 10.216C24.8185 10.1307 24.8932 10.04 24.9679 9.944C25.3625 9.42133 25.7359 8.92533 26.0879 8.456C26.4399 7.98667 26.7652 7.49067 27.0639 6.968L27.6239 6.04C27.8372 5.66667 28.0185 5.29867 28.1679 4.936C28.3279 4.57333 28.4932 4.2 28.6639 3.816C28.7279 3.64533 28.6745 3.56 28.5039 3.56H28.2479C27.8959 3.56 27.6132 3.576 27.3999 3.608C27.1865 3.64 26.9999 3.67733 26.8399 3.72C26.6905 3.76267 26.5519 3.8 26.4239 3.832C26.2959 3.864 26.1412 3.88 25.9599 3.88C25.8105 3.88 25.6559 3.86933 25.4959 3.848C25.3359 3.816 25.1919 3.752 25.0639 3.656C24.9359 3.56 24.8239 3.416 24.7279 3.224C24.6425 3.032 24.5999 2.77067 24.5999 2.44C24.5999 2.12 24.6372 1.864 24.7119 1.672C24.7972 1.48 24.9039 1.336 25.0319 1.24C25.1599 1.13333 25.3039 1.06933 25.4639 1.048C25.6239 1.016 25.7785 0.999999 25.9279 0.999999C26.1412 0.999999 26.3172 1.016 26.4559 1.048C26.5945 1.06933 26.7385 1.10133 26.8879 1.144C27.0372 1.176 27.2132 1.208 27.4159 1.24C27.6185 1.26133 27.8959 1.272 28.2479 1.272H28.6479C28.9359 1.272 29.1705 1.26133 29.3519 1.24C29.5439 1.21867 29.7092 1.19733 29.8479 1.176C29.9865 1.144 30.1092 1.112 30.2159 1.08C30.3332 1.048 30.4612 1.02667 30.5999 1.016C30.7705 0.962667 30.9519 0.946666 31.1439 0.967999C31.3465 0.989333 31.5705 1.05867 31.8159 1.176C32.1039 1.31467 32.3172 1.46933 32.4559 1.64C32.6052 1.8 32.6959 1.96533 32.7279 2.136C32.7599 2.30667 32.7545 2.47733 32.7119 2.648C32.6692 2.808 32.6052 2.96267 32.5199 3.112C32.3065 3.48533 32.0825 3.83733 31.8479 4.168C31.6239 4.49867 31.3945 4.824 31.1599 5.144C30.9359 5.45333 30.7172 5.76267 30.5039 6.072C30.2905 6.38133 30.0879 6.70667 29.8959 7.048L29.3679 7.976C29.1865 8.28533 29.0212 8.6 28.8719 8.92C28.7332 9.22933 28.5892 9.544 28.4399 9.864C28.3759 10.0347 28.4292 10.12 28.5999 10.12H29.0959ZM34.3638 7C34.3638 6.17867 34.4704 5.4 34.6838 4.664C34.8971 3.91733 35.2171 3.26133 35.6438 2.696C36.0704 2.13067 36.5984 1.68267 37.2278 1.352C37.8571 1.01067 38.5878 0.839999 39.4198 0.839999C40.2411 0.839999 40.9611 1.01067 41.5798 1.352C42.2091 1.68267 42.7371 2.13067 43.1638 2.696C43.5904 3.26133 43.9104 3.91733 44.1238 4.664C44.3478 5.4 44.4598 6.17867 44.4598 7C44.4598 7.96 44.3584 8.824 44.1558 9.592C43.9638 10.3493 43.6598 10.9947 43.2438 11.528C42.8278 12.0507 42.2998 12.456 41.6598 12.744C41.0304 13.0213 40.2838 13.16 39.4198 13.16C38.5451 13.16 37.7878 13.0213 37.1478 12.744C36.5184 12.456 35.9958 12.0507 35.5798 11.528C35.1638 10.9947 34.8544 10.3493 34.6518 9.592C34.4598 8.824 34.3638 7.96 34.3638 7ZM37.1638 6.984C37.1638 7.528 37.2011 8.024 37.2758 8.472C37.3611 8.90933 37.4944 9.28267 37.6758 9.592C37.8571 9.90133 38.0864 10.1413 38.3638 10.312C38.6518 10.4827 39.0038 10.568 39.4198 10.568C39.8358 10.568 40.1824 10.4827 40.4598 10.312C40.7478 10.1413 40.9824 9.90133 41.1638 9.592C41.3451 9.28267 41.4731 8.90933 41.5478 8.472C41.6331 8.024 41.6758 7.528 41.6758 6.984C41.6758 6.44 41.6438 5.93333 41.5798 5.464C41.5158 4.99467 41.3984 4.584 41.2278 4.232C41.0571 3.88 40.8224 3.60267 40.5238 3.4C40.2358 3.19733 39.8678 3.096 39.4198 3.096C38.9718 3.096 38.5984 3.19733 38.2998 3.4C38.0118 3.60267 37.7824 3.88 37.6118 4.232C37.4411 4.584 37.3238 4.99467 37.2598 5.464C37.1958 5.93333 37.1638 6.44 37.1638 6.984ZM0.72 24.52C0.72 24.1787 0.704 23.8427 0.672 23.512C0.64 23.1707 0.602667 22.8293 0.56 22.488C0.517333 22.136 0.48 21.784 0.448 21.432C0.416 21.08 0.4 20.7173 0.4 20.344C0.4 20.0987 0.442667 19.8907 0.528 19.72C0.613333 19.5493 0.730667 19.4107 0.88 19.304C1.02933 19.1973 1.20533 19.1227 1.408 19.08C1.61067 19.0267 1.824 19 2.048 19C2.35733 19 2.61333 19.0427 2.816 19.128C3.01867 19.2027 3.17867 19.304 3.296 19.432C3.41333 19.56 3.49333 19.704 3.536 19.864C3.57867 20.0133 3.6 20.1627 3.6 20.312C3.6 20.728 3.584 21.1173 3.552 21.48C3.52 21.8427 3.48267 22.1947 3.44 22.536C3.39733 22.8667 3.36 23.1973 3.328 23.528C3.296 23.848 3.28 24.1787 3.28 24.52V25.48C3.28 25.8213 3.296 26.1573 3.328 26.488C3.36 26.808 3.39733 27.1387 3.44 27.48C3.48267 27.8107 3.52 28.1573 3.552 28.52C3.584 28.8827 3.6 29.272 3.6 29.688C3.6 29.8373 3.57867 29.992 3.536 30.152C3.49333 30.3013 3.41333 30.44 3.296 30.568C3.17867 30.696 3.01867 30.8027 2.816 30.888C2.61333 30.9627 2.35733 31 2.048 31C1.58933 31 1.2 30.8987 0.88 30.696C0.56 30.4933 0.4 30.1467 0.4 29.656C0.4 29.2827 0.416 28.92 0.448 28.568C0.48 28.216 0.517333 27.8693 0.56 27.528C0.602667 27.176 0.64 26.8347 0.672 26.504C0.704 26.1627 0.72 25.8213 0.72 25.48V24.52ZM10.976 30.408C10.9013 30.3013 10.8587 30.2 10.848 30.104L8.064 24.28C8.02133 24.1947 7.984 24.1573 7.952 24.168C7.93067 24.168 7.92 24.216 7.92 24.312V24.52V25C7.92 25.3413 7.94133 25.704 7.984 26.088C8.03733 26.4613 8.096 26.8453 8.16 27.24C8.224 27.6347 8.27733 28.04 8.32 28.456C8.37333 28.8613 8.4 29.272 8.4 29.688C8.4 29.8373 8.37333 29.992 8.32 30.152C8.26667 30.3013 8.176 30.44 8.048 30.568C7.92 30.696 7.744 30.8027 7.52 30.888C7.30667 30.9627 7.04 31 6.72 31C6.38933 31 6.12267 30.9573 5.92 30.872C5.728 30.7867 5.57867 30.68 5.472 30.552C5.36533 30.4133 5.29067 30.2693 5.248 30.12C5.216 29.96 5.2 29.8053 5.2 29.656C5.2 29.2827 5.216 28.92 5.248 28.568C5.28 28.216 5.31733 27.8693 5.36 27.528C5.40267 27.176 5.44 26.8347 5.472 26.504C5.504 26.1627 5.52 25.8213 5.52 25.48V24.52C5.52 24.1787 5.504 23.8427 5.472 23.512C5.44 23.1707 5.40267 22.8293 5.36 22.488C5.31733 22.136 5.28 21.784 5.248 21.432C5.216 21.08 5.2 20.7173 5.2 20.344C5.2 20.1947 5.216 20.0453 5.248 19.896C5.29067 19.736 5.36533 19.592 5.472 19.464C5.57867 19.3253 5.728 19.2133 5.92 19.128C6.12267 19.0427 6.38933 19 6.72 19H7.392C7.60533 19 7.80267 19.0587 7.984 19.176C8.16533 19.2827 8.29867 19.4267 8.384 19.608L10.976 24.888C11.0187 24.9733 11.0507 25.016 11.072 25.016C11.104 25.0053 11.12 24.952 11.12 24.856V24.52C11.12 24.1787 11.0933 23.8427 11.04 23.512C10.9973 23.1707 10.944 22.8293 10.88 22.488C10.816 22.136 10.7573 21.784 10.704 21.432C10.6613 21.08 10.64 20.7173 10.64 20.344C10.64 20.1947 10.6667 20.0453 10.72 19.896C10.7733 19.736 10.864 19.592 10.992 19.464C11.12 19.3253 11.2907 19.2133 11.504 19.128C11.7173 19.0427 11.9893 19 12.32 19C12.64 19 12.9013 19.0427 13.104 19.128C13.3067 19.2027 13.4613 19.304 13.568 19.432C13.6747 19.56 13.744 19.704 13.776 19.864C13.8187 20.0133 13.84 20.1627 13.84 20.312C13.84 20.728 13.824 21.1173 13.792 21.48C13.76 21.8427 13.7227 22.1947 13.68 22.536C13.6373 22.8667 13.6 23.1973 13.568 23.528C13.536 23.848 13.52 24.1787 13.52 24.52V25.48C13.52 25.8213 13.536 26.1573 13.568 26.488C13.6 26.808 13.6373 27.1387 13.68 27.48C13.7227 27.8107 13.76 28.1573 13.792 28.52C13.824 28.8827 13.84 29.272 13.84 29.688C13.84 29.8267 13.824 29.9707 13.792 30.12C13.76 30.2693 13.6907 30.408 13.584 30.536C13.488 30.664 13.3493 30.7707 13.168 30.856C12.9973 30.9413 12.768 30.9893 12.48 31H11.936C11.7547 31 11.5787 30.9467 11.408 30.84C11.2373 30.7333 11.0933 30.5893 10.976 30.408Z" fill="black"/>
</svg>
