<svg width="115" height="51" viewBox="0 0 115 51" fill="none" xmlns="http://www.w3.org/2000/svg">
<path fill-rule="evenodd" clip-rule="evenodd" d="M115 0H0V51H115V0ZM5.902 10.536C5.87 10.1733 5.83267 9.82133 5.79 9.48C5.76867 9.29867 5.84867 9.208 6.03 9.208H6.446C7.15 9.208 7.806 9.112 8.414 8.92C9.03267 8.728 9.566 8.456 10.014 8.104C10.4727 7.752 10.83 7.32 11.086 6.808C11.3527 6.296 11.486 5.72 11.486 5.08C11.486 3.74667 11.054 2.73333 10.19 2.04C9.33667 1.34667 8.08867 0.999999 6.446 0.999999H4.366C4.03533 0.999999 3.76333 1.04267 3.55 1.128C3.34733 1.21333 3.182 1.32533 3.054 1.464C2.93667 1.592 2.85667 1.736 2.814 1.896C2.77133 2.04533 2.75 2.19467 2.75 2.344C2.75 2.71733 2.766 3.08 2.798 3.432C2.83 3.784 2.86733 4.136 2.91 4.488C2.95267 4.82933 2.99 5.17067 3.022 5.512C3.054 5.84267 3.07 6.17867 3.07 6.52V7.48C3.07 7.82133 3.054 8.16267 3.022 8.504C2.99 8.83467 2.95267 9.176 2.91 9.528C2.86733 9.86933 2.83 10.216 2.798 10.568C2.766 10.92 2.75 11.2827 2.75 11.656C2.75 11.8053 2.77133 11.96 2.814 12.12C2.85667 12.2693 2.93667 12.4133 3.054 12.552C3.17133 12.68 3.33133 12.7867 3.534 12.872C3.74733 12.9573 4.01933 13 4.35 13C4.67 13 4.93133 12.9627 5.134 12.888C5.34733 12.8027 5.51267 12.696 5.63 12.568C5.758 12.44 5.84333 12.3013 5.886 12.152C5.92867 11.992 5.95 11.8373 5.95 11.688C5.95 11.272 5.934 10.888 5.902 10.536ZM7.486 6.824C7.20867 6.94133 6.862 7 6.446 7H5.902C5.72067 7 5.63 6.90933 5.63 6.728V6.52C5.63 6.008 5.662 5.51733 5.726 5.048C5.79 4.57867 5.84867 4.072 5.902 3.528C5.92333 3.34667 6.01933 3.256 6.19 3.256H6.446C6.894 3.256 7.262 3.30933 7.55 3.416C7.84867 3.52267 8.08333 3.66133 8.254 3.832C8.42467 4.00267 8.542 4.19467 8.606 4.408C8.67 4.62133 8.702 4.84 8.702 5.064C8.702 5.288 8.65933 5.51733 8.574 5.752C8.49933 5.976 8.37133 6.184 8.19 6.376C8.00867 6.55733 7.774 6.70667 7.486 6.824ZM13.2591 7.64C13.2911 7.88533 13.3071 8.13067 13.3071 8.376V9.064C13.3071 9.30933 13.2911 9.55467 13.2591 9.8C13.2271 10.0453 13.1898 10.2853 13.1471 10.52C13.1045 10.7547 13.0671 10.9787 13.0351 11.192C13.0031 11.4053 12.9871 11.608 12.9871 11.8C12.9871 11.928 13.0085 12.0613 13.0511 12.2C13.0938 12.3387 13.1685 12.472 13.2751 12.6C13.3925 12.7173 13.5471 12.8133 13.7391 12.888C13.9418 12.9627 14.1978 13 14.5071 13C14.8165 13 15.0671 12.9627 15.2591 12.888C15.4511 12.8133 15.6058 12.7173 15.7231 12.6C15.8405 12.4827 15.9205 12.36 15.9631 12.232C16.0058 12.0933 16.0271 11.96 16.0271 11.832C16.0271 11.384 15.9738 10.936 15.8671 10.488C15.7605 10.0293 15.7071 9.55467 15.7071 9.064V8.376C15.7071 7.87467 15.7605 7.4 15.8671 6.952C15.9738 6.49333 16.0271 6.04533 16.0271 5.608C16.0271 5.48 16.0058 5.34667 15.9631 5.208C15.9205 5.06933 15.8405 4.94133 15.7231 4.824C15.6058 4.70667 15.4511 4.61067 15.2591 4.536C15.0671 4.46133 14.8165 4.424 14.5071 4.424C14.1978 4.424 13.9418 4.46667 13.7391 4.552C13.5471 4.62667 13.3925 4.72267 13.2751 4.84C13.1685 4.95733 13.0938 5.08533 13.0511 5.224C13.0085 5.36267 12.9871 5.496 12.9871 5.624C12.9871 5.816 13.0031 6.01867 13.0351 6.232C13.0671 6.44533 13.1045 6.66933 13.1471 6.904C13.1898 7.13867 13.2271 7.384 13.2591 7.64ZM13.3391 1.624C13.0618 1.83733 12.9231 2.10933 12.9231 2.44C12.9231 2.78133 13.0618 3.05867 13.3391 3.272C13.6271 3.48533 14.0058 3.592 14.4751 3.592C14.9338 3.592 15.3018 3.48533 15.5791 3.272C15.8671 3.05867 16.0111 2.78133 16.0111 2.44C16.0111 2.10933 15.8671 1.83733 15.5791 1.624C15.3018 1.4 14.9338 1.288 14.4751 1.288C14.0058 1.288 13.6271 1.4 13.3391 1.624ZM20.7371 10.424C20.7478 10.3813 20.7958 10.3493 20.8811 10.328C21.3931 10.1893 21.8945 10.0187 22.3851 9.816C22.8758 9.61333 23.3398 9.37867 23.7771 9.112C24.2251 8.84533 24.5665 8.54133 24.8011 8.2C25.0465 7.85867 25.1958 7.512 25.2491 7.16C25.3131 6.79733 25.2865 6.44533 25.1691 6.104C25.0625 5.76267 24.8758 5.45867 24.6091 5.192C24.3531 4.92533 24.0225 4.712 23.6171 4.552C23.2118 4.38133 22.7478 4.296 22.2251 4.296C21.5638 4.296 20.9398 4.408 20.3531 4.632C19.7665 4.856 19.2545 5.17067 18.8171 5.576C18.3905 5.98133 18.0491 6.46667 17.7931 7.032C17.5478 7.58667 17.4251 8.20533 17.4251 8.888C17.4251 9.64533 17.5371 10.296 17.7611 10.84C17.9958 11.3733 18.3105 11.816 18.7051 12.168C19.1105 12.5093 19.5851 12.76 20.1291 12.92C20.6731 13.08 21.2651 13.16 21.9051 13.16C22.2251 13.16 22.5611 13.128 22.9131 13.064C23.2651 13 23.6065 12.9147 23.9371 12.808C24.2785 12.6907 24.5878 12.552 24.8651 12.392C25.1531 12.2213 25.3825 12.04 25.5531 11.848C25.7451 11.624 25.8411 11.384 25.8411 11.128C25.8518 10.872 25.7931 10.632 25.6651 10.408C25.5478 10.184 25.3825 9.99733 25.1691 9.848C24.9665 9.69867 24.7425 9.624 24.4971 9.624C24.2305 9.624 23.9905 9.71467 23.7771 9.896C23.4785 10.152 23.1958 10.3653 22.9291 10.536C22.6625 10.7067 22.3265 10.792 21.9211 10.792C21.4838 10.792 21.1265 10.712 20.8491 10.552C20.7745 10.5093 20.7371 10.4667 20.7371 10.424ZM20.2251 8.488C20.0545 8.54133 19.9798 8.47733 20.0011 8.296C20.0865 7.70933 20.3105 7.25067 20.6731 6.92C21.0358 6.58933 21.5051 6.424 22.0811 6.424C22.2411 6.424 22.3691 6.47733 22.4651 6.584C22.5611 6.68 22.6145 6.79733 22.6251 6.936C22.6465 7.07467 22.6198 7.21333 22.5451 7.352C22.4811 7.49067 22.3638 7.60267 22.1931 7.688C21.8198 7.86933 21.4678 8.024 21.1371 8.152C20.8171 8.28 20.5131 8.392 20.2251 8.488ZM29.5779 6.68C29.9192 6.60533 30.2712 6.568 30.6339 6.568C30.8899 6.568 30.9485 6.67467 30.8099 6.888L30.6499 7.112C30.5965 7.176 30.5432 7.24533 30.4899 7.32L29.5779 8.44C29.4285 8.62133 29.2739 8.78667 29.1139 8.936C28.9645 9.08533 28.8099 9.23467 28.6499 9.384C28.5005 9.53333 28.3405 9.688 28.1699 9.848C28.0099 10.008 27.8445 10.1947 27.6739 10.408C27.6419 10.44 27.6205 10.4667 27.6099 10.488C27.4819 10.584 27.3805 10.728 27.3059 10.92C27.2312 11.112 27.1992 11.3573 27.2099 11.656C27.2205 12.1573 27.3165 12.5093 27.4979 12.712C27.6899 12.904 27.9352 13 28.2339 13C28.5859 13 28.9272 12.9627 29.2579 12.888C29.5992 12.8133 29.9565 12.776 30.3299 12.776H31.4499C31.8232 12.776 32.1752 12.8133 32.5059 12.888C32.8472 12.9627 33.1939 13 33.5459 13C33.8445 13 34.1112 12.904 34.3459 12.712C34.5912 12.5093 34.7192 12.1573 34.7299 11.656C34.7299 11.4107 34.6979 11.2027 34.6339 11.032C34.5699 10.8613 34.4845 10.7227 34.3779 10.616C34.2712 10.5093 34.1485 10.4347 34.0099 10.392C33.8712 10.3387 33.7272 10.312 33.5779 10.312C33.3645 10.312 33.1672 10.3227 32.9859 10.344C32.8045 10.3653 32.6285 10.392 32.4579 10.424C32.2979 10.456 32.1325 10.4827 31.9619 10.504C31.8019 10.5253 31.6312 10.536 31.4499 10.536H31.2579C30.9912 10.536 30.9379 10.4293 31.0979 10.216C31.1512 10.1413 31.2205 10.0507 31.3059 9.944L32.2179 8.824C32.5272 8.45067 32.8472 8.12 33.1779 7.832C33.5192 7.544 33.8339 7.224 34.1219 6.872C34.2712 6.69067 34.3832 6.504 34.4579 6.312C34.5325 6.152 34.5699 5.91733 34.5699 5.608C34.5699 5.36267 34.5485 5.16533 34.5059 5.016C34.4632 4.856 34.3939 4.73333 34.2979 4.648C34.2125 4.56267 34.1059 4.504 33.9779 4.472C33.8605 4.44 33.7272 4.424 33.5779 4.424C33.3645 4.424 33.1672 4.43467 32.9859 4.456C32.8045 4.47733 32.6285 4.504 32.4579 4.536C32.2979 4.568 32.1325 4.59467 31.9619 4.616C31.8019 4.63733 31.6312 4.648 31.4499 4.648H30.6499C30.4685 4.648 30.2925 4.63733 30.1219 4.616C29.9619 4.59467 29.7965 4.568 29.6259 4.536C29.4659 4.504 29.2952 4.47733 29.1139 4.456C28.9325 4.43467 28.7352 4.424 28.5219 4.424C28.3725 4.424 28.2285 4.44 28.0899 4.472C27.9512 4.504 27.8285 4.56267 27.7219 4.648C27.6152 4.73333 27.5299 4.856 27.4659 5.016C27.4019 5.16533 27.3699 5.36267 27.3699 5.608C27.3699 5.85333 27.4019 6.056 27.4659 6.216C27.5405 6.36533 27.6312 6.48267 27.7379 6.568C27.8552 6.65333 27.9832 6.712 28.1219 6.744C28.2605 6.776 28.4045 6.792 28.5539 6.792C28.9059 6.792 29.2472 6.75467 29.5779 6.68ZM36.4236 7.032C36.1996 7.58667 36.0876 8.20533 36.0876 8.888C36.0876 9.64533 36.1996 10.296 36.4236 10.84C36.6476 11.3733 36.957 11.816 37.3516 12.168C37.757 12.5093 38.237 12.76 38.7916 12.92C39.357 13.08 39.9756 13.16 40.6476 13.16C41.3196 13.16 41.933 13.08 42.4876 12.92C43.053 12.76 43.533 12.5093 43.9276 12.168C44.333 11.816 44.6423 11.3733 44.8556 10.84C45.0796 10.296 45.1916 9.64533 45.1916 8.888C45.1916 8.20533 45.0796 7.58667 44.8556 7.032C44.6316 6.46667 44.317 5.98133 43.9116 5.576C43.5063 5.17067 43.0263 4.856 42.4716 4.632C41.917 4.408 41.309 4.296 40.6476 4.296C39.9863 4.296 39.373 4.408 38.8076 4.632C38.253 4.856 37.773 5.17067 37.3676 5.576C36.9623 5.98133 36.6476 6.46667 36.4236 7.032ZM38.7116 9.528C38.6583 9.28267 38.6316 9.02133 38.6316 8.744C38.6316 8.02933 38.8076 7.464 39.1596 7.048C39.5116 6.632 40.013 6.424 40.6636 6.424C41.3143 6.424 41.8156 6.632 42.1676 7.048C42.5196 7.464 42.6956 8.02933 42.6956 8.744C42.6956 9.02133 42.6636 9.28267 42.5996 9.528C42.5463 9.77333 42.4396 9.992 42.2796 10.184C42.1303 10.3653 41.9223 10.5147 41.6556 10.632C41.3996 10.7387 41.069 10.792 40.6636 10.792C40.2583 10.792 39.9223 10.7387 39.6556 10.632C39.3996 10.5147 39.1916 10.3653 39.0316 10.184C38.8823 9.992 38.7756 9.77333 38.7116 9.528ZM54.7645 10.536C54.7325 10.1733 54.6952 9.82133 54.6525 9.48C54.6312 9.29867 54.7112 9.208 54.8925 9.208H55.3085C56.0125 9.208 56.6685 9.112 57.2765 8.92C57.8952 8.728 58.4285 8.456 58.8765 8.104C59.3352 7.752 59.6925 7.32 59.9485 6.808C60.2152 6.296 60.3485 5.72 60.3485 5.08C60.3485 3.74667 59.9165 2.73333 59.0525 2.04C58.1992 1.34667 56.9512 0.999999 55.3085 0.999999H53.2285C52.8978 0.999999 52.6258 1.04267 52.4125 1.128C52.2098 1.21333 52.0445 1.32533 51.9165 1.464C51.7992 1.592 51.7192 1.736 51.6765 1.896C51.6338 2.04533 51.6125 2.19467 51.6125 2.344C51.6125 2.71733 51.6285 3.08 51.6605 3.432C51.6925 3.784 51.7298 4.136 51.7725 4.488C51.8152 4.82933 51.8525 5.17067 51.8845 5.512C51.9165 5.84267 51.9325 6.17867 51.9325 6.52V7.48C51.9325 7.82133 51.9165 8.16267 51.8845 8.504C51.8525 8.83467 51.8152 9.176 51.7725 9.528C51.7298 9.86933 51.6925 10.216 51.6605 10.568C51.6285 10.92 51.6125 11.2827 51.6125 11.656C51.6125 11.8053 51.6338 11.96 51.6765 12.12C51.7192 12.2693 51.7992 12.4133 51.9165 12.552C52.0338 12.68 52.1938 12.7867 52.3965 12.872C52.6098 12.9573 52.8818 13 53.2125 13C53.5325 13 53.7938 12.9627 53.9965 12.888C54.2098 12.8027 54.3752 12.696 54.4925 12.568C54.6205 12.44 54.7058 12.3013 54.7485 12.152C54.7912 11.992 54.8125 11.8373 54.8125 11.688C54.8125 11.272 54.7965 10.888 54.7645 10.536ZM56.3485 6.824C56.0712 6.94133 55.7245 7 55.3085 7H54.7645C54.5832 7 54.4925 6.90933 54.4925 6.728V6.52C54.4925 6.008 54.5245 5.51733 54.5885 5.048C54.6525 4.57867 54.7112 4.072 54.7645 3.528C54.7858 3.34667 54.8818 3.256 55.0525 3.256H55.3085C55.7565 3.256 56.1245 3.30933 56.4125 3.416C56.7112 3.52267 56.9458 3.66133 57.1165 3.832C57.2872 4.00267 57.4045 4.19467 57.4685 4.408C57.5325 4.62133 57.5645 4.84 57.5645 5.064C57.5645 5.288 57.5218 5.51733 57.4365 5.752C57.3618 5.976 57.2338 6.184 57.0525 6.376C56.8712 6.55733 56.6365 6.70667 56.3485 6.824ZM64.5056 8.2C64.5163 8.136 64.5216 8.07733 64.5216 8.024C64.5323 7.90667 64.559 7.78933 64.6016 7.672C64.655 7.544 64.7243 7.43733 64.8096 7.352C64.991 7.17067 65.1723 7.04267 65.3536 6.968C65.535 6.89333 65.7056 6.85067 65.8656 6.84C66.0256 6.81867 66.175 6.824 66.3136 6.856C66.4523 6.888 66.5696 6.92 66.6656 6.952C66.9003 7.02667 67.1243 7.05867 67.3376 7.048C67.551 7.03733 67.727 6.968 67.8656 6.84C68.0256 6.69067 68.1536 6.47733 68.2496 6.2C68.3456 5.92267 68.3616 5.65067 68.2976 5.384C68.2443 5.10667 68.0896 4.872 67.8336 4.68C67.5883 4.47733 67.199 4.376 66.6656 4.376C66.2496 4.376 65.887 4.48267 65.5776 4.696C65.279 4.89867 65.023 5.144 64.8096 5.432C64.7776 5.18667 64.6496 4.95733 64.4256 4.744C64.2123 4.53067 63.839 4.424 63.3056 4.424C62.9963 4.424 62.7403 4.46667 62.5376 4.552C62.3456 4.62667 62.191 4.72267 62.0736 4.84C61.967 4.95733 61.8923 5.08533 61.8496 5.224C61.807 5.36267 61.7856 5.496 61.7856 5.624C61.7856 5.816 61.8016 6.01867 61.8336 6.232C61.8656 6.44533 61.903 6.66933 61.9456 6.904C61.9883 7.13867 62.0256 7.384 62.0576 7.64C62.0896 7.88533 62.1056 8.13067 62.1056 8.376V9.064C62.1056 9.30933 62.0896 9.55467 62.0576 9.8C62.0256 10.0453 61.9883 10.2853 61.9456 10.52C61.903 10.7547 61.8656 10.9787 61.8336 11.192C61.8016 11.4053 61.7856 11.608 61.7856 11.8C61.7856 11.928 61.807 12.0613 61.8496 12.2C61.8923 12.3387 61.967 12.472 62.0736 12.6C62.191 12.7173 62.3456 12.8133 62.5376 12.888C62.7403 12.9627 62.9963 13 63.3056 13C63.615 13 63.8656 12.9627 64.0576 12.888C64.2496 12.8133 64.4043 12.7173 64.5216 12.6C64.639 12.4827 64.719 12.36 64.7616 12.232C64.8043 12.0933 64.8256 11.96 64.8256 11.832C64.8256 11.384 64.7723 10.936 64.6656 10.488C64.559 10.0293 64.5056 9.55467 64.5056 9.064V8.376V8.2ZM72.3809 10.424C72.3915 10.3813 72.4395 10.3493 72.5249 10.328C73.0369 10.1893 73.5382 10.0187 74.0289 9.816C74.5195 9.61333 74.9835 9.37867 75.4209 9.112C75.8689 8.84533 76.2102 8.54133 76.4449 8.2C76.6902 7.85867 76.8395 7.512 76.8929 7.16C76.9569 6.79733 76.9302 6.44533 76.8129 6.104C76.7062 5.76267 76.5195 5.45867 76.2529 5.192C75.9969 4.92533 75.6662 4.712 75.2609 4.552C74.8555 4.38133 74.3915 4.296 73.8689 4.296C73.2075 4.296 72.5835 4.408 71.9969 4.632C71.4102 4.856 70.8982 5.17067 70.4609 5.576C70.0342 5.98133 69.6929 6.46667 69.4369 7.032C69.1915 7.58667 69.0689 8.20533 69.0689 8.888C69.0689 9.64533 69.1809 10.296 69.4049 10.84C69.6395 11.3733 69.9542 11.816 70.3489 12.168C70.7542 12.5093 71.2289 12.76 71.7729 12.92C72.3169 13.08 72.9089 13.16 73.5489 13.16C73.8689 13.16 74.2049 13.128 74.5569 13.064C74.9089 13 75.2502 12.9147 75.5809 12.808C75.9222 12.6907 76.2315 12.552 76.5089 12.392C76.7969 12.2213 77.0262 12.04 77.1969 11.848C77.3889 11.624 77.4849 11.384 77.4849 11.128C77.4955 10.872 77.4369 10.632 77.3089 10.408C77.1915 10.184 77.0262 9.99733 76.8129 9.848C76.6102 9.69867 76.3862 9.624 76.1409 9.624C75.8742 9.624 75.6342 9.71467 75.4209 9.896C75.1222 10.152 74.8395 10.3653 74.5729 10.536C74.3062 10.7067 73.9702 10.792 73.5649 10.792C73.1275 10.792 72.7702 10.712 72.4929 10.552C72.4182 10.5093 72.3809 10.4667 72.3809 10.424ZM71.8689 8.488C71.6982 8.54133 71.6235 8.47733 71.6449 8.296C71.7302 7.70933 71.9542 7.25067 72.3169 6.92C72.6795 6.58933 73.1489 6.424 73.7249 6.424C73.8849 6.424 74.0129 6.47733 74.1089 6.584C74.2049 6.68 74.2582 6.79733 74.2689 6.936C74.2902 7.07467 74.2635 7.21333 74.1889 7.352C74.1249 7.49067 74.0075 7.60267 73.8369 7.688C73.4635 7.86933 73.1115 8.024 72.7809 8.152C72.4609 8.28 72.1569 8.392 71.8689 8.488ZM79.1096 7.704C78.9283 8.32267 78.8376 8.93067 78.8376 9.528C78.8376 10.2107 78.8963 10.7867 79.0136 11.256C79.1416 11.7147 79.3283 12.088 79.5736 12.376C79.819 12.6533 80.1176 12.856 80.4696 12.984C80.8323 13.1013 81.2536 13.16 81.7336 13.16C82.363 13.16 82.8696 13.064 83.2536 12.872C83.6483 12.68 83.979 12.4293 84.2456 12.12C84.299 12.3333 84.4323 12.536 84.6456 12.728C84.8696 12.9093 85.2323 13 85.7336 13C86.043 13 86.2936 12.9627 86.4856 12.888C86.6776 12.8133 86.8323 12.7173 86.9496 12.6C87.067 12.4827 87.147 12.36 87.1896 12.232C87.2323 12.0933 87.2536 11.96 87.2536 11.832C87.2536 11.384 87.2003 10.936 87.0936 10.488C86.987 10.0293 86.9336 9.55467 86.9336 9.064V8.376C86.9336 7.87467 86.987 7.4 87.0936 6.952C87.2003 6.49333 87.2536 6.04533 87.2536 5.608C87.2536 5.48 87.2323 5.34667 87.1896 5.208C87.147 5.06933 87.067 4.94133 86.9496 4.824C86.8323 4.70667 86.6776 4.61067 86.4856 4.536C86.2936 4.46133 86.043 4.424 85.7336 4.424C85.371 4.424 85.0883 4.47733 84.8856 4.584C84.683 4.68 84.5283 4.80267 84.4216 4.952C84.1763 4.74933 83.9203 4.58933 83.6536 4.472C83.387 4.35467 83.067 4.296 82.6936 4.296C82.107 4.296 81.5736 4.456 81.0936 4.776C80.6243 5.096 80.219 5.50667 79.8776 6.008C79.547 6.50933 79.291 7.07467 79.1096 7.704ZM81.5096 10.072C81.435 9.89067 81.3976 9.66133 81.3976 9.384C81.3976 9.064 81.435 8.73333 81.5096 8.392C81.595 8.04 81.707 7.72 81.8456 7.432C81.995 7.144 82.1656 6.904 82.3576 6.712C82.5603 6.52 82.7843 6.424 83.0296 6.424C83.3496 6.424 83.6056 6.47733 83.7976 6.584C84.0003 6.69067 84.1496 6.84533 84.2456 7.048C84.3523 7.25067 84.4216 7.496 84.4536 7.784C84.4856 8.072 84.5016 8.392 84.5016 8.744C84.5016 9.02133 84.4696 9.28267 84.4056 9.528C84.3416 9.77333 84.2403 9.992 84.1016 10.184C83.9736 10.3653 83.8083 10.5147 83.6056 10.632C83.403 10.7387 83.1576 10.792 82.8696 10.792C82.667 10.792 82.475 10.7707 82.2936 10.728C82.1123 10.6853 81.9523 10.6107 81.8136 10.504C81.6856 10.3973 81.5843 10.2533 81.5096 10.072ZM91.4212 8.136C91.4212 8.06133 91.4266 7.98133 91.4372 7.896C91.4586 7.62933 91.5546 7.4 91.7253 7.208C91.8852 7.02667 92.0399 6.89333 92.1892 6.808C92.3493 6.712 92.4986 6.648 92.6372 6.616C92.7759 6.584 92.9039 6.57333 93.0212 6.584C93.1492 6.584 93.2612 6.59467 93.3572 6.616C93.8479 6.72267 94.0932 7.50667 94.0932 8.968V9.064C94.0932 9.30933 94.0772 9.55467 94.0452 9.8C94.0133 10.0453 93.9759 10.2853 93.9333 10.52C93.8906 10.7547 93.8532 10.9787 93.8213 11.192C93.7892 11.4053 93.7732 11.608 93.7732 11.8C93.7732 11.928 93.7892 12.0613 93.8213 12.2C93.8532 12.3387 93.9226 12.472 94.0293 12.6C94.1359 12.7173 94.2799 12.8133 94.4613 12.888C94.6533 12.9627 94.9039 13 95.2132 13C95.5226 13 95.7679 12.9627 95.9492 12.888C96.1413 12.8133 96.2852 12.7173 96.3812 12.6C96.4879 12.4827 96.5573 12.36 96.5892 12.232C96.6319 12.0933 96.6533 11.96 96.6533 11.832C96.6533 11.384 96.5999 10.936 96.4932 10.488C96.3866 10.0293 96.3333 9.55467 96.3333 9.064V8.968C96.3333 8.75467 96.3439 8.54667 96.3652 8.344C96.3972 8.13067 96.4292 7.92267 96.4613 7.72C96.4826 7.592 96.5199 7.46933 96.5732 7.352C96.6266 7.224 96.6959 7.12267 96.7812 7.048C97.0799 6.77067 97.3572 6.62133 97.6133 6.6C97.8692 6.568 98.0879 6.57333 98.2692 6.616C98.7599 6.72267 99.0052 7.50667 99.0052 8.968V9.064C99.0052 9.30933 98.9893 9.55467 98.9572 9.8C98.9252 10.0453 98.8879 10.2853 98.8452 10.52C98.8026 10.7547 98.7653 10.9787 98.7332 11.192C98.7012 11.4053 98.6852 11.608 98.6852 11.8C98.6852 11.928 98.7066 12.0613 98.7493 12.2C98.7919 12.3387 98.8666 12.472 98.9733 12.6C99.0906 12.7173 99.2452 12.8133 99.4372 12.888C99.6399 12.9627 99.8959 13 100.205 13C100.515 13 100.765 12.9627 100.957 12.888C101.149 12.8133 101.304 12.7173 101.421 12.6C101.539 12.4827 101.619 12.36 101.661 12.232C101.704 12.0933 101.725 11.96 101.725 11.832C101.725 11.384 101.672 10.936 101.565 10.488C101.459 10.0293 101.405 9.55467 101.405 9.064V8.968C101.405 8.46667 101.459 7.992 101.565 7.544C101.672 7.08533 101.725 6.63733 101.725 6.2C101.725 5.72 101.603 5.34667 101.357 5.08C101.112 4.80267 100.808 4.6 100.445 4.472C100.093 4.344 99.7199 4.28 99.3252 4.28C98.9306 4.28 98.5839 4.312 98.2852 4.376C97.8906 4.46133 97.5492 4.61067 97.2612 4.824C96.9839 5.03733 96.7493 5.27733 96.5573 5.544C96.4506 5.224 96.2692 4.97333 96.0133 4.792C95.7679 4.6 95.4906 4.46667 95.1813 4.392C94.8826 4.30667 94.5679 4.26933 94.2373 4.28C93.9173 4.29067 93.6292 4.32267 93.3732 4.376C92.9999 4.46133 92.6799 4.6 92.4132 4.792C92.1466 4.97333 91.9173 5.18667 91.7253 5.432C91.6932 5.18667 91.5652 4.95733 91.3412 4.744C91.1279 4.53067 90.7546 4.424 90.2212 4.424C89.9119 4.424 89.6559 4.46667 89.4532 4.552C89.2612 4.62667 89.1066 4.72267 88.9893 4.84C88.8826 4.95733 88.8079 5.08533 88.7653 5.224C88.7226 5.36267 88.7012 5.496 88.7012 5.624C88.7012 5.816 88.7172 6.01867 88.7493 6.232C88.7812 6.44533 88.8186 6.66933 88.8613 6.904C88.9039 7.13867 88.9412 7.384 88.9733 7.64C89.0052 7.88533 89.0212 8.13067 89.0212 8.376V9.064C89.0212 9.30933 89.0052 9.55467 88.9733 9.8C88.9412 10.0453 88.9039 10.2853 88.8613 10.52C88.8186 10.7547 88.7812 10.9787 88.7493 11.192C88.7172 11.4053 88.7012 11.608 88.7012 11.8C88.7012 11.928 88.7226 12.0613 88.7653 12.2C88.8079 12.3387 88.8826 12.472 88.9893 12.6C89.1066 12.7173 89.2612 12.8133 89.4532 12.888C89.6559 12.9627 89.9119 13 90.2212 13C90.5306 13 90.7812 12.9627 90.9733 12.888C91.1652 12.8133 91.3199 12.7173 91.4372 12.6C91.5546 12.4827 91.6346 12.36 91.6772 12.232C91.7199 12.0933 91.7412 11.96 91.7412 11.832C91.7412 11.384 91.6879 10.936 91.5812 10.488C91.4746 10.0293 91.4212 9.55467 91.4212 9.064V8.376V8.136ZM112.07 10.616C112.272 10.0187 112.374 9.29867 112.374 8.456C112.374 7.54933 112.24 6.82933 111.974 6.296C111.707 5.752 111.382 5.336 110.998 5.048C110.624 4.76 110.235 4.57333 109.829 4.488C109.424 4.392 109.083 4.344 108.806 4.344C108.229 4.344 107.723 4.44533 107.285 4.648C106.848 4.85067 106.475 5.11733 106.166 5.448C106.091 5.064 105.904 4.808 105.605 4.68C105.318 4.54133 104.992 4.472 104.63 4.472C104.32 4.472 104.07 4.51467 103.878 4.6C103.686 4.67467 103.536 4.776 103.43 4.904C103.323 5.032 103.248 5.176 103.206 5.336C103.174 5.48533 103.158 5.63467 103.158 5.784C103.158 6.2 103.174 6.58933 103.206 6.952C103.238 7.31467 103.275 7.66667 103.318 8.008C103.36 8.33867 103.397 8.66933 103.43 9C103.462 9.32 103.478 9.65067 103.478 9.992V11.464C103.478 11.8053 103.462 12.1413 103.43 12.472C103.397 12.792 103.36 13.1173 103.318 13.448C103.275 13.7893 103.238 14.1413 103.206 14.504C103.174 14.8667 103.158 15.256 103.158 15.672C103.158 15.8213 103.174 15.9707 103.206 16.12C103.248 16.28 103.323 16.424 103.43 16.552C103.536 16.68 103.686 16.7813 103.878 16.856C104.07 16.9413 104.32 16.984 104.63 16.984C105.11 16.984 105.488 16.8827 105.766 16.68C106.054 16.488 106.198 16.1413 106.198 15.64C106.198 15.0427 106.16 14.4773 106.086 13.944C106.011 13.4213 105.952 12.8933 105.91 12.36C106.262 12.616 106.678 12.824 107.158 12.984C107.638 13.1333 108.187 13.208 108.806 13.208C109.275 13.208 109.723 13.1173 110.15 12.936C110.576 12.7547 110.955 12.472 111.285 12.088C111.616 11.704 111.878 11.2133 112.07 10.616ZM109.75 7.976C109.803 8.22133 109.829 8.48267 109.829 8.76C109.829 9.54933 109.664 10.1093 109.334 10.44C109.003 10.76 108.555 10.92 107.99 10.92C107.744 10.92 107.493 10.8773 107.238 10.792C106.981 10.696 106.747 10.5573 106.534 10.376C106.331 10.1947 106.166 9.97067 106.037 9.704C105.91 9.42667 105.851 9.112 105.862 8.76C105.872 8.49333 105.925 8.23733 106.021 7.992C106.128 7.74667 106.272 7.528 106.453 7.336C106.635 7.144 106.854 6.99467 107.11 6.888C107.376 6.77067 107.67 6.712 107.99 6.712C108.352 6.712 108.651 6.77067 108.885 6.888C109.131 6.99467 109.323 7.144 109.462 7.336C109.6 7.51733 109.696 7.73067 109.75 7.976ZM47.5242 26.728C47.4389 27.048 47.3429 27.3627 47.2362 27.672C47.1509 27.9067 47.0655 27.9067 46.9802 27.672C46.8735 27.3627 46.7722 27.048 46.6762 26.728C46.5909 26.408 46.4895 26.088 46.3722 25.768C46.1909 25.288 46.0149 24.8187 45.8442 24.36C45.6735 23.9013 45.4762 23.4747 45.2522 23.08C45.1669 22.9307 45.0389 22.7867 44.8682 22.648C44.7082 22.5093 44.5002 22.44 44.2442 22.44C43.9669 22.44 43.6575 22.5413 43.3162 22.744C43.0495 22.904 42.8575 23.0747 42.7402 23.256C42.6229 23.4373 42.5482 23.6187 42.5162 23.8C42.4949 23.9707 42.5002 24.136 42.5322 24.296C42.5749 24.4453 42.6282 24.5787 42.6922 24.696C42.8842 25.048 43.1242 25.4373 43.4122 25.864C43.7109 26.28 43.9829 26.712 44.2282 27.16L44.5802 27.8C44.8255 28.248 45.0335 28.7013 45.2042 29.16C45.3855 29.608 45.5722 30.0027 45.7642 30.344C45.8709 30.5253 46.0255 30.68 46.2282 30.808C46.4415 30.9253 46.7295 30.984 47.0922 30.984C47.4655 30.984 47.7589 30.9253 47.9722 30.808C48.1855 30.68 48.3455 30.5253 48.4522 30.344C48.6442 30.0027 48.8255 29.608 48.9962 29.16C49.1775 28.7013 49.3909 28.248 49.6362 27.8L49.9882 27.16C50.2335 26.712 50.5002 26.28 50.7882 25.864C51.0869 25.4373 51.3322 25.048 51.5242 24.696C51.5882 24.5787 51.6362 24.4453 51.6682 24.296C51.7109 24.136 51.7162 23.9707 51.6842 23.8C51.6629 23.6187 51.5935 23.4373 51.4762 23.256C51.3589 23.0747 51.1669 22.904 50.9002 22.744C50.5589 22.5413 50.2495 22.44 49.9722 22.44C49.7162 22.44 49.5029 22.5093 49.3322 22.648C49.1722 22.7867 49.0495 22.9307 48.9642 23.08C48.7402 23.4747 48.5429 23.9013 48.3722 24.36C48.2015 24.808 48.0255 25.2773 47.8442 25.768C47.7269 26.088 47.6202 26.408 47.5242 26.728ZM56.2372 25.624C56.3865 25.6027 56.5519 25.592 56.7332 25.592C57.0105 25.592 57.2612 25.6347 57.4852 25.72C57.7092 25.7947 57.8959 25.9013 58.0452 26.04C58.2052 26.168 58.3279 26.3173 58.4132 26.488C58.4985 26.648 58.5412 26.8133 58.5412 26.984C58.5412 27.3253 58.4879 27.5973 58.3812 27.8C58.2852 28.0027 58.1625 28.1573 58.0132 28.264C57.8745 28.3707 57.7199 28.44 57.5492 28.472C57.3785 28.504 57.2292 28.52 57.1012 28.52C56.7599 28.52 56.4612 28.4187 56.2052 28.216C55.9599 28.0133 55.7465 27.8053 55.5652 27.592C55.3839 27.368 55.1705 27.2187 54.9252 27.144C54.6905 27.0693 54.4559 27.0587 54.2212 27.112C53.9972 27.1547 53.7839 27.2507 53.5812 27.4C53.3892 27.5493 53.2452 27.7307 53.1492 27.944C53.0639 28.1573 53.0372 28.3973 53.0692 28.664C53.1119 28.92 53.2452 29.1813 53.4692 29.448C53.8745 29.9173 54.3812 30.3227 54.9892 30.664C55.5972 30.9947 56.3012 31.16 57.1012 31.16C57.7732 31.16 58.3705 31.0587 58.8932 30.856C59.4265 30.6533 59.8692 30.376 60.2212 30.024C60.5839 29.6613 60.8612 29.2293 61.0532 28.728C61.2452 28.2267 61.3412 27.6773 61.3412 27.08C61.3412 26.76 61.3039 26.4507 61.2292 26.152C61.1652 25.8533 61.0585 25.5813 60.9092 25.336C60.7705 25.0907 60.5945 24.8827 60.3812 24.712C60.1679 24.5307 59.9225 24.3973 59.6452 24.312C59.8479 24.1627 60.0292 24.0133 60.1892 23.864C60.3599 23.704 60.4985 23.528 60.6052 23.336C60.7225 23.144 60.8079 22.9307 60.8612 22.696C60.9252 22.4613 60.9572 22.1947 60.9572 21.896C60.9572 21.384 60.8612 20.9413 60.6692 20.568C60.4772 20.184 60.2105 19.864 59.8692 19.608C59.5385 19.352 59.1385 19.16 58.6692 19.032C58.2105 18.904 57.7092 18.84 57.1652 18.84C56.9092 18.84 56.6319 18.8613 56.3332 18.904C56.0452 18.9467 55.7625 19.0053 55.4852 19.08C55.2079 19.1547 54.9359 19.2453 54.6692 19.352C54.4132 19.448 54.1892 19.56 53.9972 19.688C53.6132 19.9333 53.3839 20.216 53.3092 20.536C53.2452 20.8453 53.2825 21.1227 53.4212 21.368C53.5705 21.6133 53.7839 21.7947 54.0612 21.912C54.3492 22.0293 54.6532 22.0187 54.9732 21.88C55.1332 21.8053 55.2985 21.7253 55.4692 21.64C55.6399 21.544 55.8105 21.4587 55.9812 21.384C56.1625 21.2987 56.3492 21.2293 56.5412 21.176C56.7439 21.1227 56.9519 21.096 57.1652 21.096C57.2932 21.096 57.4265 21.112 57.5652 21.144C57.7039 21.176 57.8265 21.2347 57.9332 21.32C58.0505 21.3947 58.1465 21.496 58.2212 21.624C58.2959 21.752 58.3332 21.912 58.3332 22.104C58.3332 22.3067 58.3119 22.4933 58.2692 22.664C58.2372 22.8347 58.1572 22.9787 58.0292 23.096C57.9119 23.2027 57.7359 23.288 57.5012 23.352C57.2665 23.416 56.9572 23.448 56.5732 23.448C56.4132 23.448 56.2692 23.4373 56.1412 23.416C56.0132 23.3947 55.8852 23.368 55.7572 23.336C55.6292 23.304 55.4959 23.2773 55.3572 23.256C55.2292 23.2347 55.0852 23.224 54.9252 23.224C54.7759 23.224 54.6319 23.2453 54.4932 23.288C54.3545 23.3307 54.2319 23.4053 54.1252 23.512C54.0185 23.608 53.9332 23.7413 53.8692 23.912C53.8052 24.072 53.7732 24.2747 53.7732 24.52C53.7839 25.0107 53.9065 25.352 54.1412 25.544C54.3865 25.7253 54.6585 25.816 54.9572 25.816C55.1385 25.816 55.2932 25.8053 55.4212 25.784C55.5599 25.7627 55.6932 25.736 55.8212 25.704C55.9599 25.672 56.0985 25.6453 56.2372 25.624ZM63.0947 28.776C62.828 29.0213 62.6947 29.352 62.6947 29.768C62.6947 30.1947 62.828 30.5307 63.0947 30.776C63.3614 31.0213 63.7507 31.144 64.2627 31.144C64.7747 31.144 65.164 31.0213 65.4307 30.776C65.6974 30.5307 65.8307 30.1947 65.8307 29.768C65.8307 29.352 65.6974 29.0213 65.4307 28.776C65.164 28.5307 64.7747 28.408 64.2627 28.408C63.7507 28.408 63.3614 28.5307 63.0947 28.776ZM69.3761 23.512C69.4081 23.8427 69.4241 24.1787 69.4241 24.52V25.48C69.4241 25.8213 69.4081 26.1627 69.3761 26.504C69.3441 26.8347 69.3067 27.176 69.2641 27.528C69.2214 27.8693 69.1841 28.216 69.1521 28.568C69.1201 28.92 69.1041 29.2827 69.1041 29.656C69.1041 29.8053 69.1254 29.96 69.1681 30.12C69.2107 30.2693 69.2907 30.4133 69.4081 30.552C69.5254 30.68 69.6854 30.7867 69.8881 30.872C70.1014 30.9573 70.3734 31 70.7041 31C71.0241 31 71.2854 30.9627 71.4881 30.888C71.7014 30.8027 71.8667 30.696 71.9841 30.568C72.1121 30.44 72.1974 30.3013 72.2401 30.152C72.2827 29.992 72.3041 29.8373 72.3041 29.688C72.3041 29.272 72.2881 28.8827 72.2561 28.52C72.2241 28.1573 72.1867 27.8107 72.1441 27.48C72.1014 27.1387 72.0641 26.808 72.0321 26.488C72.0001 26.1573 71.9841 25.8213 71.9841 25.48V24.52C71.9841 24.1787 72.0001 23.848 72.0321 23.528C72.0641 23.1973 72.1014 22.8667 72.1441 22.536C72.1867 22.1947 72.2241 21.8427 72.2561 21.48C72.2881 21.1173 72.3041 20.728 72.3041 20.312C72.3041 20.1627 72.2827 20.0133 72.2401 19.864C72.1974 19.704 72.1121 19.56 71.9841 19.432C71.8667 19.304 71.7014 19.2027 71.4881 19.128C71.2854 19.0427 71.0241 19 70.7041 19C70.4161 19 70.1707 19.032 69.9681 19.096C69.7761 19.16 69.6214 19.2453 69.5041 19.352C69.3547 19.4587 69.2321 19.5653 69.1361 19.672C69.0507 19.7787 68.9707 19.8853 68.8961 19.992L68.7041 20.28C68.6401 20.3653 68.5547 20.4507 68.4481 20.536C68.2987 20.6533 68.1441 20.76 67.9841 20.856C67.8347 20.9413 67.6747 21.0533 67.5041 21.192C67.4721 21.2133 67.4187 21.2613 67.3441 21.336C67.2801 21.4107 67.2214 21.5067 67.1681 21.624C67.1254 21.7413 67.1094 21.88 67.1201 22.04C67.1307 22.1893 67.2001 22.3547 67.3281 22.536C67.4561 22.7173 67.5841 22.8453 67.7121 22.92C67.8507 22.9947 67.9787 23.0373 68.0961 23.048C68.2241 23.048 68.3307 23.0373 68.4161 23.016C68.5014 22.984 68.5601 22.952 68.5921 22.92C68.6987 22.8347 68.8054 22.7547 68.9121 22.68C69.0294 22.6053 69.1467 22.5413 69.2641 22.488C69.3067 22.8293 69.3441 23.1707 69.3761 23.512ZM27.1909 43.704C27.0095 44.3227 26.9189 44.9307 26.9189 45.528C26.9189 46.2107 26.9775 46.7867 27.0949 47.256C27.2229 47.7147 27.4095 48.088 27.6549 48.376C27.9002 48.6533 28.1989 48.856 28.5509 48.984C28.9135 49.1013 29.3349 49.16 29.8149 49.16C30.4442 49.16 30.9509 49.064 31.3349 48.872C31.7295 48.68 32.0602 48.4293 32.3269 48.12C32.3802 48.3333 32.5135 48.536 32.7269 48.728C32.9509 48.9093 33.3135 49 33.8149 49C34.1242 49 34.3749 48.9627 34.5669 48.888C34.7589 48.8133 34.9135 48.7173 35.0309 48.6C35.1482 48.4827 35.2282 48.36 35.2709 48.232C35.3135 48.0933 35.3349 47.96 35.3349 47.832C35.3349 47.384 35.2815 46.936 35.1749 46.488C35.0682 46.0293 35.0149 45.5547 35.0149 45.064V44.376C35.0149 43.8747 35.0682 43.4 35.1749 42.952C35.2815 42.4933 35.3349 42.0453 35.3349 41.608C35.3349 41.48 35.3135 41.3467 35.2709 41.208C35.2282 41.0693 35.1482 40.9413 35.0309 40.824C34.9135 40.7067 34.7589 40.6107 34.5669 40.536C34.3749 40.4613 34.1242 40.424 33.8149 40.424C33.4522 40.424 33.1695 40.4773 32.9669 40.584C32.7642 40.68 32.6095 40.8027 32.5029 40.952C32.2575 40.7493 32.0015 40.5893 31.7349 40.472C31.4682 40.3547 31.1482 40.296 30.7749 40.296C30.1882 40.296 29.6549 40.456 29.1749 40.776C28.7055 41.096 28.3002 41.5067 27.9589 42.008C27.6282 42.5093 27.3722 43.0747 27.1909 43.704ZM29.5909 46.072C29.5162 45.8907 29.4789 45.6613 29.4789 45.384C29.4789 45.064 29.5162 44.7333 29.5909 44.392C29.6762 44.04 29.7882 43.72 29.9269 43.432C30.0762 43.144 30.2469 42.904 30.4389 42.712C30.6415 42.52 30.8655 42.424 31.1109 42.424C31.4309 42.424 31.6869 42.4773 31.8789 42.584C32.0815 42.6907 32.2309 42.8453 32.3269 43.048C32.4335 43.2507 32.5029 43.496 32.5349 43.784C32.5669 44.072 32.5829 44.392 32.5829 44.744C32.5829 45.0213 32.5509 45.2827 32.4869 45.528C32.4229 45.7733 32.3215 45.992 32.1829 46.184C32.0549 46.3653 31.8895 46.5147 31.6869 46.632C31.4842 46.7387 31.2389 46.792 30.9509 46.792C30.7482 46.792 30.5562 46.7707 30.3749 46.728C30.1935 46.6853 30.0335 46.6107 29.8949 46.504C29.7669 46.3973 29.6655 46.2533 29.5909 46.072ZM39.5025 44.2C39.5132 44.136 39.5185 44.0773 39.5185 44.024C39.5292 43.9067 39.5558 43.7893 39.5985 43.672C39.6518 43.544 39.7212 43.4373 39.8065 43.352C39.9878 43.1707 40.1692 43.0427 40.3505 42.968C40.5318 42.8933 40.7025 42.8507 40.8625 42.84C41.0225 42.8187 41.1718 42.824 41.3105 42.856C41.4492 42.888 41.5665 42.92 41.6625 42.952C41.8972 43.0267 42.1212 43.0587 42.3345 43.048C42.5478 43.0373 42.7238 42.968 42.8625 42.84C43.0225 42.6907 43.1505 42.4773 43.2465 42.2C43.3425 41.9227 43.3585 41.6507 43.2945 41.384C43.2412 41.1067 43.0865 40.872 42.8305 40.68C42.5852 40.4773 42.1958 40.376 41.6625 40.376C41.2465 40.376 40.8838 40.4827 40.5745 40.696C40.2758 40.8987 40.0198 41.144 39.8065 41.432C39.7745 41.1867 39.6465 40.9573 39.4225 40.744C39.2092 40.5307 38.8358 40.424 38.3025 40.424C37.9932 40.424 37.7372 40.4667 37.5345 40.552C37.3425 40.6267 37.1878 40.7227 37.0705 40.84C36.9638 40.9573 36.8892 41.0853 36.8465 41.224C36.8038 41.3627 36.7825 41.496 36.7825 41.624C36.7825 41.816 36.7985 42.0187 36.8305 42.232C36.8625 42.4453 36.8998 42.6693 36.9425 42.904C36.9852 43.1387 37.0225 43.384 37.0545 43.64C37.0865 43.8853 37.1025 44.1307 37.1025 44.376V45.064C37.1025 45.3093 37.0865 45.5547 37.0545 45.8C37.0225 46.0453 36.9852 46.2853 36.9425 46.52C36.8998 46.7547 36.8625 46.9787 36.8305 47.192C36.7985 47.4053 36.7825 47.608 36.7825 47.8C36.7825 47.928 36.8038 48.0613 36.8465 48.2C36.8892 48.3387 36.9638 48.472 37.0705 48.6C37.1878 48.7173 37.3425 48.8133 37.5345 48.888C37.7372 48.9627 37.9932 49 38.3025 49C38.6118 49 38.8625 48.9627 39.0545 48.888C39.2465 48.8133 39.4012 48.7173 39.5185 48.6C39.6358 48.4827 39.7158 48.36 39.7585 48.232C39.8012 48.0933 39.8225 47.96 39.8225 47.832C39.8225 47.384 39.7692 46.936 39.6625 46.488C39.5558 46.0293 39.5025 45.5547 39.5025 45.064V44.376V44.2ZM48.0028 47.32C48.1841 47.064 48.3761 46.808 48.5788 46.552C48.6641 46.456 48.7441 46.408 48.8188 46.408C48.9147 46.408 48.9948 46.456 49.0588 46.552C49.3041 46.8613 49.5281 47.16 49.7308 47.448C49.9441 47.736 50.1574 47.9973 50.3708 48.232C50.4347 48.3067 50.5094 48.392 50.5947 48.488C50.6801 48.5733 50.7708 48.6587 50.8668 48.744C50.9734 48.8187 51.0908 48.8827 51.2188 48.936C51.3468 48.9893 51.4854 49.016 51.6348 49.016C51.7841 49.016 51.9388 48.984 52.0988 48.92C52.2694 48.8453 52.4454 48.728 52.6268 48.568C52.9147 48.3227 53.0908 48.0827 53.1548 47.848C53.2188 47.6133 53.2241 47.3947 53.1708 47.192C53.1174 46.9787 53.0268 46.7867 52.8988 46.616C52.7708 46.4453 52.6588 46.3013 52.5628 46.184C52.3494 45.9387 52.1094 45.7093 51.8428 45.496C51.5761 45.272 51.3041 45.048 51.0268 44.824C50.8348 44.664 50.8348 44.504 51.0268 44.344C51.2827 44.1307 51.5228 43.928 51.7467 43.736C51.9814 43.544 52.2054 43.3467 52.4188 43.144C52.5574 43.016 52.6801 42.888 52.7868 42.76C52.8934 42.6213 52.9628 42.472 52.9948 42.312C53.0374 42.152 53.0268 41.9707 52.9628 41.768C52.9094 41.5653 52.7868 41.3253 52.5947 41.048C52.4454 40.8347 52.2908 40.6853 52.1308 40.6C51.9708 40.5147 51.8054 40.472 51.6348 40.472C51.4428 40.472 51.2561 40.52 51.0748 40.616C50.9041 40.7013 50.7547 40.8027 50.6268 40.92C50.3494 41.1653 50.0988 41.4213 49.8748 41.688C49.6614 41.9547 49.4427 42.2267 49.2188 42.504C49.1441 42.6 49.0588 42.648 48.9627 42.648C48.8668 42.648 48.7868 42.6 48.7228 42.504C48.4561 42.1627 48.2001 41.8267 47.9548 41.496C47.7201 41.1653 47.4907 40.9093 47.2668 40.728C46.9468 40.472 46.6481 40.344 46.3708 40.344C46.0401 40.344 45.7094 40.5147 45.3787 40.856C45.1868 41.0587 45.0481 41.2453 44.9627 41.416C44.8881 41.5867 44.8507 41.752 44.8507 41.912C44.8507 42.0613 44.8774 42.2 44.9308 42.328C44.9948 42.456 45.0747 42.5733 45.1707 42.68C45.3841 42.9147 45.6294 43.1653 45.9067 43.432C46.1948 43.688 46.4934 43.9547 46.8027 44.232C46.9948 44.4027 46.9948 44.5787 46.8027 44.76C46.5574 44.984 46.3228 45.2027 46.0988 45.416C45.8748 45.6293 45.6401 45.864 45.3948 46.12C45.2881 46.2373 45.1654 46.3707 45.0268 46.52C44.8881 46.6693 44.7814 46.84 44.7067 47.032C44.6427 47.224 44.6321 47.4373 44.6748 47.672C44.7174 47.9067 44.8668 48.168 45.1227 48.456C45.3041 48.648 45.4694 48.7867 45.6188 48.872C45.7788 48.9467 45.9334 48.984 46.0828 48.984C46.2321 48.984 46.3708 48.952 46.4988 48.888C46.6374 48.8133 46.7601 48.728 46.8668 48.632C46.9841 48.5253 47.0908 48.4187 47.1868 48.312C47.2827 48.1947 47.3628 48.0987 47.4268 48.024C47.6401 47.8 47.8321 47.5653 48.0028 47.32ZM54.8744 46.776C54.6077 47.0213 54.4744 47.352 54.4744 47.768C54.4744 48.1947 54.6077 48.5307 54.8744 48.776C55.141 49.0213 55.5304 49.144 56.0424 49.144C56.5544 49.144 56.9437 49.0213 57.2104 48.776C57.477 48.5307 57.6104 48.1947 57.6104 47.768C57.6104 47.352 57.477 47.0213 57.2104 46.776C56.9437 46.5307 56.5544 46.408 56.0424 46.408C55.5304 46.408 55.141 46.5307 54.8744 46.776ZM67.7638 44.968C67.7104 45.288 67.6464 45.6133 67.5718 45.944C67.5504 46.0613 67.5184 46.12 67.4758 46.12C67.4438 46.12 67.4171 46.0613 67.3958 45.944C67.3211 45.6133 67.2571 45.2827 67.2038 44.952C67.1504 44.6107 67.0811 44.2693 66.9958 43.928C66.9318 43.6613 66.8678 43.4053 66.8038 43.16C66.7504 42.904 66.6917 42.6533 66.6278 42.408C66.6491 42.3547 66.6651 42.3067 66.6758 42.264L66.7398 42.104C66.8891 41.72 66.8997 41.4267 66.7718 41.224C66.6438 41.0107 66.3717 40.8133 65.9557 40.632C65.7104 40.5253 65.4918 40.472 65.2998 40.472C65.0438 40.472 64.8411 40.552 64.6918 40.712C64.5531 40.8613 64.4464 41.0213 64.3717 41.192C64.1904 41.5973 64.0464 42.0347 63.9398 42.504C63.8331 42.9627 63.7211 43.4373 63.6038 43.928C63.5291 44.2587 63.4598 44.5787 63.3958 44.888C63.3424 45.1973 63.2838 45.5067 63.2198 45.816C63.1664 46.0613 63.1131 46.0613 63.0598 45.816C62.9958 45.5067 62.9371 45.1973 62.8838 44.888C62.8304 44.5787 62.7664 44.2693 62.6918 43.96C62.5744 43.4693 62.4571 42.9947 62.3398 42.536C62.2331 42.0773 62.0891 41.64 61.9078 41.224C61.8331 41.0533 61.7104 40.888 61.5398 40.728C61.3691 40.568 61.1344 40.488 60.8358 40.488C60.6118 40.488 60.3451 40.552 60.0358 40.68C59.4704 40.9253 59.1131 41.192 58.9638 41.48C58.8144 41.7573 58.8198 42.0933 58.9798 42.488C59.1291 42.8507 59.3211 43.2667 59.5558 43.736C59.7904 44.1947 60.0038 44.6533 60.1958 45.112L60.4678 45.768C60.6598 46.2267 60.8038 46.648 60.8998 47.032C61.0064 47.4053 61.1344 47.768 61.2838 48.12C61.4011 48.3973 61.5878 48.6107 61.8438 48.76C62.0998 48.9093 62.4944 48.984 63.0278 48.984C63.3798 48.984 63.6784 48.9307 63.9238 48.824C64.1691 48.7067 64.3451 48.5253 64.4518 48.28C64.5051 48.152 64.5584 47.992 64.6118 47.8C64.6758 47.5973 64.7398 47.384 64.8038 47.16C64.8678 46.936 64.9318 46.7067 64.9958 46.472C65.0598 46.2373 65.1238 46.0187 65.1878 45.816C65.2198 45.6987 65.2571 45.64 65.2998 45.64C65.3424 45.64 65.3798 45.6987 65.4118 45.816C65.4758 46.0187 65.5398 46.2373 65.6038 46.472C65.6678 46.7067 65.7318 46.936 65.7958 47.16C65.8598 47.384 65.9184 47.5973 65.9718 47.8C66.0358 47.992 66.0944 48.152 66.1478 48.28C66.2651 48.536 66.4571 48.7173 66.7238 48.824C66.9904 48.9307 67.3104 48.984 67.6838 48.984C68.2064 48.984 68.5798 48.904 68.8038 48.744C69.0278 48.5733 69.1931 48.3653 69.2998 48.12C69.4491 47.768 69.5718 47.4053 69.6678 47.032C69.7744 46.648 69.9238 46.2267 70.1158 45.768L70.3878 45.112C70.5798 44.6533 70.7931 44.1947 71.0278 43.736C71.2624 43.2667 71.4544 42.8507 71.6038 42.488C71.7638 42.0933 71.7798 41.7573 71.6518 41.48C71.5344 41.192 71.1931 40.9253 70.6278 40.68C70.3291 40.552 70.0624 40.488 69.8278 40.488C69.5291 40.488 69.2944 40.568 69.1238 40.728C68.9531 40.888 68.8304 41.0533 68.7558 41.224C68.5744 41.64 68.4251 42.0773 68.3078 42.536C68.2011 42.9947 68.0891 43.4693 67.9718 43.96C67.8864 44.3013 67.8171 44.6373 67.7638 44.968ZM76.3242 44.136C76.3456 43.752 76.3776 43.3627 76.4202 42.968C76.4416 42.8507 76.4896 42.76 76.5642 42.696C76.6389 42.632 76.7349 42.6107 76.8522 42.632C77.0762 42.664 77.2949 42.7013 77.5082 42.744C77.7322 42.776 77.9616 42.792 78.1963 42.792C78.3456 42.792 78.4896 42.776 78.6283 42.744C78.7669 42.712 78.8896 42.6533 78.9962 42.568C79.1136 42.4827 79.2042 42.3653 79.2682 42.216C79.3429 42.056 79.3802 41.8533 79.3802 41.608C79.3802 41.3627 79.3483 41.1653 79.2842 41.016C79.2202 40.856 79.1349 40.7333 79.0283 40.648C78.9216 40.5627 78.7989 40.504 78.6602 40.472C78.5216 40.44 78.3776 40.424 78.2282 40.424C78.0149 40.424 77.8176 40.4347 77.6362 40.456C77.4656 40.4773 77.2949 40.504 77.1243 40.536C77.0069 40.5573 76.9163 40.5413 76.8522 40.488C76.7882 40.424 76.7669 40.3333 76.7882 40.216C76.8203 39.9707 76.8363 39.768 76.8363 39.608C76.8363 39.4587 76.8149 39.3093 76.7722 39.16C76.7402 39 76.6709 38.856 76.5642 38.728C76.4576 38.5893 76.3029 38.4773 76.1003 38.392C75.9082 38.3067 75.6469 38.264 75.3162 38.264C74.9962 38.264 74.7349 38.3067 74.5322 38.392C74.3296 38.4667 74.1749 38.568 74.0682 38.696C73.9616 38.824 73.8869 38.968 73.8442 39.128C73.8122 39.2773 73.7962 39.4267 73.7962 39.576V40.04C73.7962 40.2533 73.6736 40.4133 73.4282 40.52C73.2789 40.5947 73.1616 40.7173 73.0762 40.888C73.0016 41.048 72.9696 41.288 72.9802 41.608C72.9909 41.9813 73.0496 42.2533 73.1562 42.424C73.2629 42.584 73.4069 42.6907 73.5882 42.744C73.8549 42.8293 73.9883 42.9733 73.9883 43.176C73.9989 43.3467 74.0042 43.5227 74.0042 43.704V44.264C74.0042 44.6587 73.9883 45.0533 73.9562 45.448C73.9349 45.8427 73.9296 46.2213 73.9402 46.584C73.9509 46.9467 73.9883 47.288 74.0522 47.608C74.1269 47.9173 74.2656 48.1893 74.4682 48.424C74.6709 48.648 74.9482 48.824 75.3002 48.952C75.6523 49.08 76.1109 49.144 76.6762 49.144C76.8682 49.144 77.0816 49.1333 77.3162 49.112C77.5509 49.0907 77.7909 49.048 78.0362 48.984C78.2923 48.9093 78.5376 48.8133 78.7722 48.696C79.0176 48.568 79.2363 48.4027 79.4282 48.2C79.5882 48.04 79.6896 47.8533 79.7322 47.64C79.7856 47.4267 79.7962 47.2133 79.7643 47C79.7322 46.776 79.6629 46.5733 79.5563 46.392C79.4496 46.2 79.3216 46.0507 79.1722 45.944C79.0229 45.8267 78.8522 45.768 78.6602 45.768C78.4789 45.7573 78.2869 45.8267 78.0843 45.976C77.8176 46.1787 77.6149 46.3013 77.4762 46.344C77.3376 46.376 77.1776 46.3653 76.9962 46.312C76.8149 46.2587 76.6709 46.1307 76.5642 45.928C76.4682 45.7147 76.3989 45.4587 76.3562 45.16C76.3242 44.8507 76.3136 44.5093 76.3242 44.136ZM82.58 38.824C82.452 39.2507 82.3613 39.7093 82.308 40.2C82.2867 40.36 82.1853 40.4507 82.004 40.472C81.748 40.4933 81.54 40.584 81.38 40.744C81.22 40.904 81.1453 41.208 81.156 41.656C81.1667 42.072 81.2413 42.3653 81.38 42.536C81.5187 42.696 81.7 42.792 81.924 42.824C82.1053 42.856 82.196 42.952 82.196 43.112V43.464C82.196 43.8053 82.1853 44.1413 82.164 44.472C82.1427 44.792 82.116 45.1227 82.084 45.464C82.0627 45.7947 82.0413 46.1413 82.02 46.504C81.9987 46.8667 81.988 47.256 81.988 47.672C81.988 47.8213 82.004 47.976 82.036 48.136C82.0787 48.2853 82.1533 48.424 82.26 48.552C82.3667 48.68 82.5213 48.7867 82.724 48.872C82.9267 48.9467 83.188 48.984 83.508 48.984C83.8387 48.984 84.1 48.9413 84.292 48.856C84.4947 48.7707 84.6493 48.664 84.756 48.536C84.8627 48.3973 84.932 48.2533 84.964 48.104C85.0067 47.944 85.028 47.7893 85.028 47.64C85.028 47.2667 85.012 46.9147 84.98 46.584C84.948 46.2533 84.9053 45.912 84.852 45.56C84.8093 45.208 84.7613 44.8293 84.708 44.424C84.6653 44.008 84.628 43.528 84.596 42.984V42.904C84.5853 42.8187 84.6013 42.7547 84.644 42.712C84.6973 42.6693 84.7667 42.6533 84.852 42.664C85.108 42.696 85.3587 42.7333 85.604 42.776C85.86 42.8187 86.116 42.84 86.372 42.84C86.5213 42.84 86.6653 42.824 86.804 42.792C86.9427 42.76 87.0653 42.7013 87.172 42.616C87.2893 42.5307 87.38 42.4133 87.444 42.264C87.5187 42.104 87.556 41.9013 87.556 41.656C87.556 41.4107 87.524 41.2133 87.46 41.064C87.396 40.904 87.3107 40.7813 87.204 40.696C87.0973 40.6107 86.9747 40.552 86.836 40.52C86.6973 40.488 86.5533 40.472 86.404 40.472C86.116 40.472 85.8547 40.4933 85.62 40.536C85.3853 40.5787 85.1613 40.616 84.948 40.648C84.8627 40.6693 84.7987 40.6587 84.756 40.616C84.7133 40.5627 84.7027 40.4933 84.724 40.408C84.788 40.0987 84.8787 39.832 84.996 39.608C85.124 39.384 85.2947 39.24 85.508 39.176C85.6893 39.1227 85.8707 39.1013 86.052 39.112C86.2333 39.1227 86.4413 39.1813 86.676 39.288C86.9747 39.416 87.236 39.4213 87.46 39.304C87.684 39.1867 87.8493 39.016 87.956 38.792C88.0733 38.5573 88.1107 38.3067 88.068 38.04C88.036 37.7733 87.9027 37.56 87.668 37.4C87.284 37.1333 86.8947 36.9467 86.5 36.84C86.1053 36.7227 85.7213 36.664 85.348 36.664C84.8147 36.664 84.3667 36.76 84.004 36.952C83.6413 37.1333 83.3427 37.384 83.108 37.704C82.884 38.024 82.708 38.3973 82.58 38.824Z" fill="black"/>
</svg>
