<svg width="116" height="14" viewBox="0 0 116 14" fill="none" xmlns="http://www.w3.org/2000/svg">
<path d="M3.44 9.48C3.48267 9.82133 3.52 10.1733 3.552 10.536C3.584 10.888 3.6 11.272 3.6 11.688C3.6 11.8373 3.57867 11.992 3.536 12.152C3.49333 12.3013 3.408 12.44 3.28 12.568C3.16267 12.696 2.99733 12.8027 2.784 12.888C2.58133 12.9627 2.32 13 2 13C1.66933 13 1.39733 12.9573 1.184 12.872C0.981333 12.7867 0.821333 12.68 0.704 12.552C0.586667 12.4133 0.506667 12.2693 0.464 12.12C0.421333 11.96 0.4 11.8053 0.4 11.656C0.4 11.2827 0.416 10.92 0.448 10.568C0.48 10.216 0.517333 9.86933 0.56 9.528C0.602667 9.176 0.64 8.83467 0.672 8.504C0.704 8.16267 0.72 7.82133 0.72 7.48V6.52C0.72 6.17867 0.704 5.84267 0.672 5.512C0.64 5.17067 0.602667 4.82933 0.56 4.488C0.517333 4.136 0.48 3.784 0.448 3.432C0.416 3.08 0.4 2.71733 0.4 2.344C0.4 2.19467 0.421333 2.04533 0.464 1.896C0.506667 1.736 0.586667 1.592 0.704 1.464C0.832 1.32533 0.997333 1.21333 1.2 1.128C1.41333 1.04267 1.68533 0.999999 2.016 0.999999H4.096C5.73867 0.999999 6.98667 1.34667 7.84 2.04C8.704 2.73333 9.136 3.74667 9.136 5.08C9.136 5.72 9.00267 6.296 8.736 6.808C8.48 7.32 8.12267 7.752 7.664 8.104C7.216 8.456 6.68267 8.728 6.064 8.92C5.456 9.112 4.8 9.208 4.096 9.208H3.68C3.49867 9.208 3.41867 9.29867 3.44 9.48ZM4.096 7C4.512 7 4.85867 6.94133 5.136 6.824C5.424 6.70667 5.65867 6.55733 5.84 6.376C6.02133 6.184 6.14933 5.976 6.224 5.752C6.30933 5.51733 6.352 5.288 6.352 5.064C6.352 4.84 6.32 4.62133 6.256 4.408C6.192 4.19467 6.07467 4.00267 5.904 3.832C5.73333 3.66133 5.49867 3.52267 5.2 3.416C4.912 3.30933 4.544 3.256 4.096 3.256H3.84C3.66933 3.256 3.57333 3.34667 3.552 3.528C3.49867 4.072 3.44 4.57867 3.376 5.048C3.312 5.51733 3.28 6.008 3.28 6.52V6.728C3.28 6.90933 3.37067 7 3.552 7H4.096ZM10.9731 6.52C10.9731 6.17867 10.9571 5.84267 10.9251 5.512C10.8931 5.17067 10.8558 4.82933 10.8131 4.488C10.7705 4.136 10.7331 3.784 10.7011 3.432C10.6691 3.08 10.6531 2.71733 10.6531 2.344C10.6531 2.09867 10.6958 1.89067 10.7811 1.72C10.8665 1.54933 10.9838 1.41067 11.1331 1.304C11.2825 1.19733 11.4585 1.12267 11.6611 1.08C11.8638 1.02667 12.0771 0.999999 12.3011 0.999999C12.6105 0.999999 12.8665 1.04267 13.0691 1.128C13.2718 1.20267 13.4318 1.304 13.5491 1.432C13.6665 1.56 13.7465 1.704 13.7891 1.864C13.8318 2.01333 13.8531 2.16267 13.8531 2.312C13.8531 2.728 13.8371 3.11733 13.8051 3.48C13.7731 3.84267 13.7358 4.19467 13.6931 4.536C13.6505 4.86667 13.6131 5.19733 13.5811 5.528C13.5491 5.848 13.5331 6.17867 13.5331 6.52V7.48C13.5331 7.82133 13.5491 8.15733 13.5811 8.488C13.6131 8.808 13.6505 9.13867 13.6931 9.48C13.7358 9.81067 13.7731 10.1573 13.8051 10.52C13.8371 10.8827 13.8531 11.272 13.8531 11.688C13.8531 11.8373 13.8318 11.992 13.7891 12.152C13.7465 12.3013 13.6665 12.44 13.5491 12.568C13.4318 12.696 13.2718 12.8027 13.0691 12.888C12.8665 12.9627 12.6105 13 12.3011 13C11.8425 13 11.4531 12.8987 11.1331 12.696C10.8131 12.4933 10.6531 12.1467 10.6531 11.656C10.6531 11.2827 10.6691 10.92 10.7011 10.568C10.7331 10.216 10.7705 9.86933 10.8131 9.528C10.8558 9.176 10.8931 8.83467 10.9251 8.504C10.9571 8.16267 10.9731 7.82133 10.9731 7.48V6.52ZM18.8611 10.104C18.9251 10.1147 18.9945 10.12 19.0691 10.12C19.1438 10.12 19.2238 10.12 19.3091 10.12C19.6505 10.12 19.9225 10.104 20.1251 10.072C20.3278 10.04 20.4985 10.0027 20.6371 9.96C20.7865 9.91733 20.9305 9.88 21.0691 9.848C21.2078 9.816 21.3838 9.8 21.5971 9.8C21.7465 9.8 21.8958 9.82133 22.0451 9.864C22.2051 9.90667 22.3491 9.992 22.4771 10.12C22.6051 10.2373 22.7065 10.4027 22.7811 10.616C22.8665 10.8187 22.9091 11.08 22.9091 11.4C22.9091 11.7307 22.8665 12.0027 22.7811 12.216C22.6958 12.4187 22.5838 12.5787 22.4451 12.696C22.3171 12.8133 22.1731 12.8933 22.0131 12.936C21.8638 12.9787 21.7145 13 21.5651 13C21.3945 13 21.2451 12.984 21.1171 12.952C20.9891 12.92 20.8451 12.8827 20.6851 12.84C20.5358 12.7973 20.3545 12.76 20.1411 12.728C19.9278 12.696 19.6505 12.68 19.3091 12.68C18.9891 12.68 18.7278 12.696 18.5251 12.728C18.3225 12.7493 18.1465 12.7813 17.9971 12.824C17.7625 12.9413 17.4478 13 17.0531 13C16.6051 13 16.2265 12.8987 15.9171 12.696C15.6078 12.4827 15.4531 12.136 15.4531 11.656C15.4531 11.2827 15.4691 10.92 15.5011 10.568C15.5331 10.216 15.5705 9.86933 15.6131 9.528C15.6558 9.176 15.6931 8.83467 15.7251 8.504C15.7571 8.16267 15.7731 7.82133 15.7731 7.48V6.52C15.7731 6.17867 15.7571 5.84267 15.7251 5.512C15.6931 5.17067 15.6558 4.82933 15.6131 4.488C15.5705 4.136 15.5331 3.784 15.5011 3.432C15.4691 3.08 15.4531 2.71733 15.4531 2.344C15.4531 2.216 15.4691 2.08267 15.5011 1.944C15.5331 1.79467 15.5918 1.66133 15.6771 1.544C15.7731 1.42667 15.8958 1.32 16.0451 1.224C16.2051 1.128 16.4078 1.064 16.6531 1.032C16.7171 1.01067 16.7811 0.999999 16.8451 0.999999C16.9198 0.999999 16.9891 0.999999 17.0531 0.999999C17.3731 0.999999 17.6451 1.04267 17.8691 1.128C18.0291 1.18133 18.2105 1.22933 18.4131 1.272C18.6265 1.304 18.9358 1.32 19.3411 1.32C19.6825 1.32 19.9545 1.304 20.1571 1.272C20.3598 1.24 20.5305 1.20267 20.6691 1.16C20.8185 1.11733 20.9625 1.08 21.1011 1.048C21.2398 1.016 21.4158 0.999999 21.6291 0.999999C21.7785 0.999999 21.9278 1.016 22.0771 1.048C22.2371 1.06933 22.3811 1.13333 22.5091 1.24C22.6371 1.336 22.7385 1.48 22.8131 1.672C22.8985 1.864 22.9411 2.12 22.9411 2.44C22.9411 2.77067 22.8985 3.032 22.8131 3.224C22.7278 3.416 22.6158 3.56 22.4771 3.656C22.3491 3.752 22.2051 3.816 22.0451 3.848C21.8958 3.86933 21.7465 3.88 21.5971 3.88C21.4265 3.88 21.2771 3.864 21.1491 3.832C21.0211 3.8 20.8771 3.76267 20.7171 3.72C20.5678 3.67733 20.3865 3.64 20.1731 3.608C19.9598 3.576 19.6825 3.56 19.3411 3.56C19.2558 3.56 19.1758 3.56533 19.1011 3.576C19.0265 3.576 18.9571 3.576 18.8931 3.576C18.6905 3.59733 18.5785 3.704 18.5571 3.896C18.5358 4.14133 18.5091 4.38133 18.4771 4.616C18.4558 4.85067 18.4345 5.08533 18.4131 5.32C18.3918 5.53333 18.4825 5.64 18.6851 5.64H18.8611C19.2025 5.64 19.4745 5.624 19.6771 5.592C19.8798 5.56 20.0505 5.52267 20.1891 5.48C20.3385 5.43733 20.4825 5.4 20.6211 5.368C20.7598 5.336 20.9358 5.32 21.1491 5.32C21.2985 5.32 21.4478 5.34133 21.5971 5.384C21.7571 5.416 21.9011 5.48533 22.0291 5.592C22.1571 5.69867 22.2585 5.85333 22.3331 6.056C22.4185 6.25867 22.4611 6.52 22.4611 6.84C22.4611 7.17067 22.4185 7.43733 22.3331 7.64C22.2478 7.832 22.1358 7.98133 21.9971 8.088C21.8691 8.19467 21.7251 8.26933 21.5651 8.312C21.4158 8.344 21.2665 8.36 21.1171 8.36C20.9465 8.36 20.7971 8.344 20.6691 8.312C20.5411 8.28 20.3971 8.24267 20.2371 8.2C20.0878 8.15733 19.9065 8.12 19.6931 8.088C19.4798 8.056 19.2025 8.04 18.8611 8.04H18.6531C18.5678 8.04 18.4931 8.072 18.4291 8.136C18.3758 8.18933 18.3545 8.264 18.3651 8.36C18.3865 8.59467 18.4078 8.82933 18.4291 9.064C18.4611 9.288 18.4931 9.52267 18.5251 9.768C18.5465 9.97067 18.6585 10.0827 18.8611 10.104ZM29.0959 10.12C29.4479 10.12 29.7305 10.104 29.9439 10.072C30.1679 10.04 30.3652 10.0027 30.5359 9.96C30.7065 9.91733 30.8665 9.88 31.0159 9.848C31.1652 9.816 31.3519 9.8 31.5759 9.8C31.7252 9.8 31.8799 9.82133 32.0399 9.864C32.1999 9.90667 32.3439 9.992 32.4719 10.12C32.5999 10.2373 32.7012 10.4027 32.7759 10.616C32.8612 10.8187 32.9039 11.08 32.9039 11.4C32.9039 11.7307 32.8612 12.0027 32.7759 12.216C32.6905 12.4187 32.5785 12.5787 32.4399 12.696C32.3119 12.8133 32.1679 12.8933 32.0079 12.936C31.8585 12.9787 31.7092 13 31.5599 13C31.3785 13 31.2132 12.984 31.0639 12.952C30.9145 12.92 30.7492 12.888 30.5679 12.856C30.3972 12.824 30.1945 12.792 29.9599 12.76C29.7359 12.728 29.4479 12.712 29.0959 12.712H28.2159C27.8639 12.712 27.5705 12.728 27.3359 12.76C27.1119 12.792 26.9092 12.824 26.7279 12.856C26.5572 12.888 26.3972 12.92 26.2479 12.952C26.1092 12.984 25.9492 13 25.7679 13C25.6185 13 25.4639 12.9787 25.3039 12.936C25.1439 12.8933 24.9945 12.8133 24.8559 12.696C24.7279 12.5787 24.6212 12.4187 24.5359 12.216C24.4505 12.0027 24.4079 11.7307 24.4079 11.4C24.4079 11.1867 24.4185 11.0107 24.4399 10.872C24.4719 10.7333 24.5145 10.6107 24.5679 10.504C24.6212 10.3973 24.6799 10.3013 24.7439 10.216C24.8185 10.1307 24.8932 10.04 24.9679 9.944C25.3625 9.42133 25.7359 8.92533 26.0879 8.456C26.4399 7.98667 26.7652 7.49067 27.0639 6.968L27.6239 6.04C27.8372 5.66667 28.0185 5.29867 28.1679 4.936C28.3279 4.57333 28.4932 4.2 28.6639 3.816C28.7279 3.64533 28.6745 3.56 28.5039 3.56H28.2479C27.8959 3.56 27.6132 3.576 27.3999 3.608C27.1865 3.64 26.9999 3.67733 26.8399 3.72C26.6905 3.76267 26.5519 3.8 26.4239 3.832C26.2959 3.864 26.1412 3.88 25.9599 3.88C25.8105 3.88 25.6559 3.86933 25.4959 3.848C25.3359 3.816 25.1919 3.752 25.0639 3.656C24.9359 3.56 24.8239 3.416 24.7279 3.224C24.6425 3.032 24.5999 2.77067 24.5999 2.44C24.5999 2.12 24.6372 1.864 24.7119 1.672C24.7972 1.48 24.9039 1.336 25.0319 1.24C25.1599 1.13333 25.3039 1.06933 25.4639 1.048C25.6239 1.016 25.7785 0.999999 25.9279 0.999999C26.1412 0.999999 26.3172 1.016 26.4559 1.048C26.5945 1.06933 26.7385 1.10133 26.8879 1.144C27.0372 1.176 27.2132 1.208 27.4159 1.24C27.6185 1.26133 27.8959 1.272 28.2479 1.272H28.6479C28.9359 1.272 29.1705 1.26133 29.3519 1.24C29.5439 1.21867 29.7092 1.19733 29.8479 1.176C29.9865 1.144 30.1092 1.112 30.2159 1.08C30.3332 1.048 30.4612 1.02667 30.5999 1.016C30.7705 0.962667 30.9519 0.946666 31.1439 0.967999C31.3465 0.989333 31.5705 1.05867 31.8159 1.176C32.1039 1.31467 32.3172 1.46933 32.4559 1.64C32.6052 1.8 32.6959 1.96533 32.7279 2.136C32.7599 2.30667 32.7545 2.47733 32.7119 2.648C32.6692 2.808 32.6052 2.96267 32.5199 3.112C32.3065 3.48533 32.0825 3.83733 31.8479 4.168C31.6239 4.49867 31.3945 4.824 31.1599 5.144C30.9359 5.45333 30.7172 5.76267 30.5039 6.072C30.2905 6.38133 30.0879 6.70667 29.8959 7.048L29.3679 7.976C29.1865 8.28533 29.0212 8.6 28.8719 8.92C28.7332 9.22933 28.5892 9.544 28.4399 9.864C28.3759 10.0347 28.4292 10.12 28.5999 10.12H29.0959ZM34.3638 7C34.3638 6.17867 34.4704 5.4 34.6838 4.664C34.8971 3.91733 35.2171 3.26133 35.6438 2.696C36.0704 2.13067 36.5984 1.68267 37.2278 1.352C37.8571 1.01067 38.5878 0.839999 39.4198 0.839999C40.2411 0.839999 40.9611 1.01067 41.5798 1.352C42.2091 1.68267 42.7371 2.13067 43.1638 2.696C43.5904 3.26133 43.9104 3.91733 44.1238 4.664C44.3478 5.4 44.4598 6.17867 44.4598 7C44.4598 7.96 44.3584 8.824 44.1558 9.592C43.9638 10.3493 43.6598 10.9947 43.2438 11.528C42.8278 12.0507 42.2998 12.456 41.6598 12.744C41.0304 13.0213 40.2838 13.16 39.4198 13.16C38.5451 13.16 37.7878 13.0213 37.1478 12.744C36.5184 12.456 35.9958 12.0507 35.5798 11.528C35.1638 10.9947 34.8544 10.3493 34.6518 9.592C34.4598 8.824 34.3638 7.96 34.3638 7ZM37.1638 6.984C37.1638 7.528 37.2011 8.024 37.2758 8.472C37.3611 8.90933 37.4944 9.28267 37.6758 9.592C37.8571 9.90133 38.0864 10.1413 38.3638 10.312C38.6518 10.4827 39.0038 10.568 39.4198 10.568C39.8358 10.568 40.1824 10.4827 40.4598 10.312C40.7478 10.1413 40.9824 9.90133 41.1638 9.592C41.3451 9.28267 41.4731 8.90933 41.5478 8.472C41.6331 8.024 41.6758 7.528 41.6758 6.984C41.6758 6.44 41.6438 5.93333 41.5798 5.464C41.5158 4.99467 41.3984 4.584 41.2278 4.232C41.0571 3.88 40.8224 3.60267 40.5238 3.4C40.2358 3.19733 39.8678 3.096 39.4198 3.096C38.9718 3.096 38.5984 3.19733 38.2998 3.4C38.0118 3.60267 37.7824 3.88 37.6118 4.232C37.4411 4.584 37.3238 4.99467 37.2598 5.464C37.1958 5.93333 37.1638 6.44 37.1638 6.984ZM53.9744 9.48C54.017 9.82133 54.0544 10.1733 54.0864 10.536C54.1184 10.888 54.1344 11.272 54.1344 11.688C54.1344 11.8373 54.113 11.992 54.0704 12.152C54.0277 12.3013 53.9424 12.44 53.8144 12.568C53.697 12.696 53.5317 12.8027 53.3184 12.888C53.1157 12.9627 52.8544 13 52.5344 13C52.2037 13 51.9317 12.9573 51.7184 12.872C51.5157 12.7867 51.3557 12.68 51.2384 12.552C51.121 12.4133 51.041 12.2693 50.9984 12.12C50.9557 11.96 50.9344 11.8053 50.9344 11.656C50.9344 11.2827 50.9504 10.92 50.9824 10.568C51.0144 10.216 51.0517 9.86933 51.0944 9.528C51.137 9.176 51.1744 8.83467 51.2064 8.504C51.2384 8.16267 51.2544 7.82133 51.2544 7.48V6.52C51.2544 6.17867 51.2384 5.84267 51.2064 5.512C51.1744 5.17067 51.137 4.82933 51.0944 4.488C51.0517 4.136 51.0144 3.784 50.9824 3.432C50.9504 3.08 50.9344 2.71733 50.9344 2.344C50.9344 2.19467 50.9557 2.04533 50.9984 1.896C51.041 1.736 51.121 1.592 51.2384 1.464C51.3664 1.32533 51.5317 1.21333 51.7344 1.128C51.9477 1.04267 52.2197 0.999999 52.5504 0.999999H54.6304C56.273 0.999999 57.521 1.34667 58.3744 2.04C59.2384 2.73333 59.6704 3.74667 59.6704 5.08C59.6704 5.72 59.537 6.296 59.2704 6.808C59.0144 7.32 58.657 7.752 58.1984 8.104C57.7504 8.456 57.217 8.728 56.5984 8.92C55.9904 9.112 55.3344 9.208 54.6304 9.208H54.2144C54.033 9.208 53.953 9.29867 53.9744 9.48ZM54.6304 7C55.0464 7 55.393 6.94133 55.6704 6.824C55.9584 6.70667 56.193 6.55733 56.3744 6.376C56.5557 6.184 56.6837 5.976 56.7584 5.752C56.8437 5.51733 56.8864 5.288 56.8864 5.064C56.8864 4.84 56.8544 4.62133 56.7904 4.408C56.7264 4.19467 56.609 4.00267 56.4384 3.832C56.2677 3.66133 56.033 3.52267 55.7344 3.416C55.4464 3.30933 55.0784 3.256 54.6304 3.256H54.3744C54.2037 3.256 54.1077 3.34667 54.0864 3.528C54.033 4.072 53.9744 4.57867 53.9104 5.048C53.8464 5.51733 53.8144 6.008 53.8144 6.52V6.728C53.8144 6.90933 53.905 7 54.0864 7H54.6304ZM64.1635 8.824C64.2168 9.272 64.2648 9.72533 64.3075 10.184C64.3608 10.632 64.3875 11.1333 64.3875 11.688C64.3875 11.8373 64.3662 11.992 64.3235 12.152C64.2808 12.3013 64.1955 12.44 64.0675 12.568C63.9502 12.696 63.7848 12.8027 63.5715 12.888C63.3688 12.9627 63.1075 13 62.7875 13C62.4568 13 62.1848 12.9573 61.9715 12.872C61.7688 12.7867 61.6088 12.68 61.4915 12.552C61.3742 12.4133 61.2942 12.2693 61.2515 12.12C61.2088 11.96 61.1875 11.8053 61.1875 11.656C61.1875 11.2827 61.2035 10.92 61.2355 10.568C61.2675 10.216 61.3048 9.86933 61.3475 9.528C61.3902 9.176 61.4275 8.83467 61.4595 8.504C61.4915 8.16267 61.5075 7.82133 61.5075 7.48V6.52C61.5075 6.17867 61.4915 5.84267 61.4595 5.512C61.4275 5.17067 61.3902 4.82933 61.3475 4.488C61.3048 4.136 61.2675 3.784 61.2355 3.432C61.2035 3.08 61.1875 2.71733 61.1875 2.344C61.1875 2.19467 61.2088 2.04533 61.2515 1.896C61.2942 1.736 61.3742 1.592 61.4915 1.464C61.6195 1.32533 61.7848 1.21333 61.9875 1.128C62.2008 1.04267 62.4728 0.999999 62.8035 0.999999H64.8835C66.5155 0.999999 67.7635 1.29867 68.6275 1.896C69.4915 2.48267 69.9235 3.43733 69.9235 4.76C69.9235 5.53867 69.7368 6.19467 69.3635 6.728C69.0008 7.25067 68.4995 7.66667 67.8595 7.976C67.6995 8.06133 67.6782 8.16267 67.7955 8.28C68.1262 8.62133 68.4675 8.96267 68.8195 9.304C69.1822 9.64533 69.5502 10.0453 69.9235 10.504C70.0195 10.6213 70.0942 10.7547 70.1475 10.904C70.2115 11.0533 70.2382 11.2187 70.2275 11.4C70.2168 11.5707 70.1582 11.7573 70.0515 11.96C69.9448 12.152 69.7635 12.344 69.5075 12.536C69.2515 12.7387 69.0115 12.872 68.7875 12.936C68.5742 13 68.3768 13.0213 68.1955 13C68.0248 12.968 67.8755 12.904 67.7475 12.808C67.6195 12.712 67.5075 12.6053 67.4115 12.488C67.1768 12.2 66.9582 11.9067 66.7555 11.608C66.5635 11.3093 66.3768 11.016 66.1955 10.728C66.0142 10.44 65.8275 10.1573 65.6355 9.88C65.4542 9.60267 65.2568 9.33067 65.0435 9.064L64.8035 8.76C64.6968 8.632 64.5582 8.568 64.3875 8.568C64.2168 8.568 64.1422 8.65333 64.1635 8.824ZM64.8835 6.36C65.7048 6.36 66.2862 6.20533 66.6275 5.896C66.9688 5.576 67.1395 5.192 67.1395 4.744C67.1395 4.52 67.1075 4.31733 67.0435 4.136C66.9795 3.95467 66.8622 3.8 66.6915 3.672C66.5208 3.544 66.2862 3.44267 65.9875 3.368C65.6995 3.29333 65.3315 3.256 64.8835 3.256H64.6275C64.4568 3.256 64.3608 3.34667 64.3395 3.528C64.2968 3.98667 64.2488 4.424 64.1955 4.84C64.1422 5.24533 64.1048 5.66133 64.0835 6.088C64.0835 6.26933 64.1688 6.36 64.3395 6.36H64.8835ZM75.1768 10.104C75.2408 10.1147 75.3101 10.12 75.3848 10.12C75.4594 10.12 75.5394 10.12 75.6248 10.12C75.9661 10.12 76.2381 10.104 76.4408 10.072C76.6434 10.04 76.8141 10.0027 76.9528 9.96C77.1021 9.91733 77.2461 9.88 77.3848 9.848C77.5234 9.816 77.6994 9.8 77.9128 9.8C78.0621 9.8 78.2114 9.82133 78.3608 9.864C78.5208 9.90667 78.6648 9.992 78.7928 10.12C78.9208 10.2373 79.0221 10.4027 79.0968 10.616C79.1821 10.8187 79.2248 11.08 79.2248 11.4C79.2248 11.7307 79.1821 12.0027 79.0968 12.216C79.0114 12.4187 78.8994 12.5787 78.7608 12.696C78.6328 12.8133 78.4888 12.8933 78.3288 12.936C78.1794 12.9787 78.0301 13 77.8808 13C77.7101 13 77.5608 12.984 77.4328 12.952C77.3048 12.92 77.1608 12.8827 77.0008 12.84C76.8514 12.7973 76.6701 12.76 76.4568 12.728C76.2434 12.696 75.9661 12.68 75.6248 12.68C75.3048 12.68 75.0434 12.696 74.8408 12.728C74.6381 12.7493 74.4621 12.7813 74.3128 12.824C74.0781 12.9413 73.7634 13 73.3688 13C72.9208 13 72.5421 12.8987 72.2328 12.696C71.9234 12.4827 71.7688 12.136 71.7688 11.656C71.7688 11.2827 71.7848 10.92 71.8168 10.568C71.8488 10.216 71.8861 9.86933 71.9288 9.528C71.9714 9.176 72.0088 8.83467 72.0408 8.504C72.0728 8.16267 72.0888 7.82133 72.0888 7.48V6.52C72.0888 6.17867 72.0728 5.84267 72.0408 5.512C72.0088 5.17067 71.9714 4.82933 71.9288 4.488C71.8861 4.136 71.8488 3.784 71.8168 3.432C71.7848 3.08 71.7688 2.71733 71.7688 2.344C71.7688 2.216 71.7848 2.08267 71.8168 1.944C71.8488 1.79467 71.9074 1.66133 71.9928 1.544C72.0888 1.42667 72.2114 1.32 72.3608 1.224C72.5208 1.128 72.7234 1.064 72.9688 1.032C73.0328 1.01067 73.0968 0.999999 73.1608 0.999999C73.2354 0.999999 73.3048 0.999999 73.3688 0.999999C73.6888 0.999999 73.9608 1.04267 74.1848 1.128C74.3448 1.18133 74.5261 1.22933 74.7288 1.272C74.9421 1.304 75.2514 1.32 75.6568 1.32C75.9981 1.32 76.2701 1.304 76.4728 1.272C76.6754 1.24 76.8461 1.20267 76.9848 1.16C77.1341 1.11733 77.2781 1.08 77.4168 1.048C77.5554 1.016 77.7314 0.999999 77.9448 0.999999C78.0941 0.999999 78.2434 1.016 78.3928 1.048C78.5528 1.06933 78.6968 1.13333 78.8248 1.24C78.9528 1.336 79.0541 1.48 79.1288 1.672C79.2141 1.864 79.2568 2.12 79.2568 2.44C79.2568 2.77067 79.2141 3.032 79.1288 3.224C79.0434 3.416 78.9314 3.56 78.7928 3.656C78.6648 3.752 78.5208 3.816 78.3608 3.848C78.2114 3.86933 78.0621 3.88 77.9128 3.88C77.7421 3.88 77.5928 3.864 77.4648 3.832C77.3368 3.8 77.1928 3.76267 77.0328 3.72C76.8834 3.67733 76.7021 3.64 76.4888 3.608C76.2754 3.576 75.9981 3.56 75.6568 3.56C75.5714 3.56 75.4914 3.56533 75.4168 3.576C75.3421 3.576 75.2728 3.576 75.2088 3.576C75.0061 3.59733 74.8941 3.704 74.8728 3.896C74.8514 4.14133 74.8248 4.38133 74.7928 4.616C74.7714 4.85067 74.7501 5.08533 74.7288 5.32C74.7074 5.53333 74.7981 5.64 75.0008 5.64H75.1768C75.5181 5.64 75.7901 5.624 75.9928 5.592C76.1954 5.56 76.3661 5.52267 76.5048 5.48C76.6541 5.43733 76.7981 5.4 76.9368 5.368C77.0754 5.336 77.2514 5.32 77.4648 5.32C77.6141 5.32 77.7634 5.34133 77.9128 5.384C78.0728 5.416 78.2168 5.48533 78.3448 5.592C78.4728 5.69867 78.5741 5.85333 78.6488 6.056C78.7341 6.25867 78.7768 6.52 78.7768 6.84C78.7768 7.17067 78.7341 7.43733 78.6488 7.64C78.5634 7.832 78.4514 7.98133 78.3128 8.088C78.1848 8.19467 78.0408 8.26933 77.8808 8.312C77.7314 8.344 77.5821 8.36 77.4328 8.36C77.2621 8.36 77.1128 8.344 76.9848 8.312C76.8568 8.28 76.7128 8.24267 76.5528 8.2C76.4034 8.15733 76.2221 8.12 76.0088 8.088C75.7954 8.056 75.5181 8.04 75.1768 8.04H74.9688C74.8834 8.04 74.8088 8.072 74.7448 8.136C74.6914 8.18933 74.6701 8.264 74.6808 8.36C74.7021 8.59467 74.7234 8.82933 74.7448 9.064C74.7768 9.288 74.8088 9.52267 74.8408 9.768C74.8621 9.97067 74.9741 10.0827 75.1768 10.104ZM84.3075 10.2C84.2328 10.4773 84.1422 10.7707 84.0355 11.08C83.9395 11.3787 83.8062 11.7307 83.6355 12.136C83.5502 12.3493 83.4115 12.5467 83.2195 12.728C83.0382 12.9093 82.7822 13 82.4515 13C82.2275 13 81.9555 12.936 81.6355 12.808C81.3368 12.68 81.1075 12.536 80.9475 12.376C80.7875 12.2053 80.6755 12.0347 80.6115 11.864C80.5582 11.6827 80.5422 11.5067 80.5635 11.336C80.5848 11.1653 80.6275 11.0107 80.6915 10.872C81.3315 9.37867 81.9075 7.88533 82.4195 6.392C82.9315 4.89867 83.4488 3.368 83.9715 1.8C84.0568 1.55467 84.2488 1.352 84.5475 1.192C84.8462 1.032 85.2195 0.952 85.6675 0.952C86.1155 0.952 86.4888 1.032 86.7875 1.192C87.0862 1.352 87.2782 1.55467 87.3635 1.8C87.8968 3.368 88.4142 4.89867 88.9155 6.392C89.4275 7.88533 90.0035 9.37867 90.6435 10.872C90.7075 11.0107 90.7502 11.1653 90.7715 11.336C90.7928 11.5067 90.7715 11.6827 90.7075 11.864C90.6542 12.0347 90.5475 12.2053 90.3875 12.376C90.2382 12.536 90.0088 12.68 89.6995 12.808C89.3795 12.936 89.1075 13 88.8835 13C88.5528 13 88.2915 12.9093 88.0995 12.728C87.9182 12.5467 87.7848 12.3493 87.6995 12.136C87.5288 11.7307 87.3902 11.3733 87.2835 11.064C87.1875 10.7547 87.1022 10.4613 87.0275 10.184C86.9742 9.98133 86.8462 9.86933 86.6435 9.848C86.5475 9.83733 86.4462 9.832 86.3395 9.832C86.2435 9.832 86.1368 9.832 86.0195 9.832H85.3795C85.2408 9.832 85.1128 9.83733 84.9955 9.848C84.8888 9.848 84.7875 9.85333 84.6915 9.864C84.4888 9.88533 84.3608 9.99733 84.3075 10.2ZM85.5715 4.536C85.5288 4.68533 85.4808 4.872 85.4275 5.096C85.3742 5.32 85.3208 5.56 85.2675 5.816C85.2142 6.072 85.1608 6.33333 85.1075 6.6C85.0648 6.86667 85.0168 7.12267 84.9635 7.368C84.9315 7.58133 85.0115 7.688 85.2035 7.688H85.3795H86.0195H86.1315C86.3235 7.688 86.4035 7.58667 86.3715 7.384C86.3288 7.13867 86.2808 6.88267 86.2275 6.616C86.1742 6.34933 86.1208 6.088 86.0675 5.832C86.0142 5.576 85.9608 5.336 85.9075 5.112C85.8542 4.87733 85.8062 4.68533 85.7635 4.536C85.7422 4.45067 85.7102 4.408 85.6675 4.408C85.6248 4.408 85.5928 4.45067 85.5715 4.536ZM100.118 11.8C100.011 12.1627 99.814 12.456 99.526 12.68C99.238 12.8933 98.9073 13 98.534 13H98.518C98.1447 13 97.814 12.8933 97.526 12.68C97.238 12.456 97.0407 12.1627 96.934 11.8L95.142 5.576C95.1207 5.49067 95.0993 5.448 95.078 5.448C95.0567 5.43733 95.046 5.48 95.046 5.576C95.0353 5.736 95.03 5.912 95.03 6.104C95.03 6.28533 95.03 6.424 95.03 6.52V7C95.03 7.34133 95.0513 7.704 95.094 8.088C95.1473 8.46133 95.206 8.84533 95.27 9.24C95.334 9.63467 95.3873 10.04 95.43 10.456C95.4833 10.8613 95.51 11.272 95.51 11.688C95.51 11.8373 95.478 11.992 95.414 12.152C95.35 12.3013 95.2487 12.44 95.11 12.568C94.9713 12.696 94.79 12.8027 94.566 12.888C94.342 12.9627 94.07 13 93.75 13C93.4193 13 93.1473 12.9573 92.934 12.872C92.7313 12.7867 92.5713 12.68 92.454 12.552C92.3367 12.4133 92.2567 12.2693 92.214 12.12C92.1713 11.96 92.15 11.8053 92.15 11.656C92.15 11.2827 92.166 10.92 92.198 10.568C92.23 10.216 92.2673 9.86933 92.31 9.528C92.3527 9.176 92.39 8.83467 92.422 8.504C92.454 8.16267 92.47 7.82133 92.47 7.48V6.52C92.47 6.17867 92.454 5.85867 92.422 5.56C92.39 5.25067 92.3527 4.94667 92.31 4.648C92.2673 4.33867 92.23 4.024 92.198 3.704C92.166 3.384 92.15 3.03733 92.15 2.664C92.15 2.20533 92.342 1.816 92.726 1.496C93.1207 1.176 93.6487 1.01067 94.31 0.999999H94.838C95.3287 0.999999 95.7553 1.144 96.118 1.432C96.4913 1.72 96.7367 2.104 96.854 2.584L98.358 8.808C98.4113 9.02133 98.47 9.128 98.534 9.128C98.598 9.128 98.6567 9.02133 98.71 8.808L100.198 2.584C100.315 2.104 100.555 1.72 100.918 1.432C101.291 1.144 101.723 0.999999 102.214 0.999999H102.742C103.403 1.01067 103.899 1.176 104.23 1.496C104.571 1.816 104.742 2.20533 104.742 2.664C104.742 3.03733 104.726 3.384 104.694 3.704C104.662 4.024 104.625 4.33867 104.582 4.648C104.539 4.94667 104.502 5.25067 104.47 5.56C104.438 5.85867 104.422 6.17867 104.422 6.52V7.48C104.422 7.82133 104.438 8.16267 104.47 8.504C104.502 8.83467 104.539 9.176 104.582 9.528C104.625 9.86933 104.662 10.216 104.694 10.568C104.726 10.92 104.742 11.2827 104.742 11.656C104.742 11.8053 104.721 11.96 104.678 12.12C104.646 12.2693 104.577 12.4133 104.47 12.552C104.363 12.68 104.209 12.7867 104.006 12.872C103.814 12.9573 103.553 13 103.222 13C102.902 13 102.63 12.9627 102.406 12.888C102.193 12.8027 102.022 12.696 101.894 12.568C101.766 12.44 101.675 12.3013 101.622 12.152C101.569 11.992 101.542 11.8373 101.542 11.688C101.542 11.272 101.563 10.8613 101.606 10.456C101.659 10.04 101.718 9.63467 101.782 9.24C101.846 8.84533 101.899 8.46133 101.942 8.088C101.995 7.704 102.022 7.34133 102.022 7V6.52C102.022 6.424 102.022 6.28533 102.022 6.104C102.022 5.912 102.017 5.736 102.006 5.576C102.006 5.48 101.995 5.43733 101.974 5.448C101.953 5.448 101.931 5.49067 101.91 5.576L100.118 11.8ZM109.381 9.48C109.423 9.82133 109.461 10.1733 109.493 10.536C109.525 10.888 109.541 11.272 109.541 11.688C109.541 11.8373 109.519 11.992 109.477 12.152C109.434 12.3013 109.349 12.44 109.221 12.568C109.103 12.696 108.938 12.8027 108.725 12.888C108.522 12.9627 108.261 13 107.941 13C107.61 13 107.338 12.9573 107.125 12.872C106.922 12.7867 106.762 12.68 106.645 12.552C106.527 12.4133 106.447 12.2693 106.405 12.12C106.362 11.96 106.341 11.8053 106.341 11.656C106.341 11.2827 106.357 10.92 106.389 10.568C106.421 10.216 106.458 9.86933 106.501 9.528C106.543 9.176 106.581 8.83467 106.613 8.504C106.645 8.16267 106.661 7.82133 106.661 7.48V6.52C106.661 6.17867 106.645 5.84267 106.613 5.512C106.581 5.17067 106.543 4.82933 106.501 4.488C106.458 4.136 106.421 3.784 106.389 3.432C106.357 3.08 106.341 2.71733 106.341 2.344C106.341 2.19467 106.362 2.04533 106.405 1.896C106.447 1.736 106.527 1.592 106.645 1.464C106.773 1.32533 106.938 1.21333 107.141 1.128C107.354 1.04267 107.626 0.999999 107.957 0.999999H110.037C111.679 0.999999 112.927 1.34667 113.781 2.04C114.645 2.73333 115.077 3.74667 115.077 5.08C115.077 5.72 114.943 6.296 114.677 6.808C114.421 7.32 114.063 7.752 113.605 8.104C113.157 8.456 112.623 8.728 112.005 8.92C111.397 9.112 110.741 9.208 110.037 9.208H109.621C109.439 9.208 109.359 9.29867 109.381 9.48ZM110.037 7C110.453 7 110.799 6.94133 111.077 6.824C111.365 6.70667 111.599 6.55733 111.781 6.376C111.962 6.184 112.09 5.976 112.165 5.752C112.25 5.51733 112.293 5.288 112.293 5.064C112.293 4.84 112.261 4.62133 112.197 4.408C112.133 4.19467 112.015 4.00267 111.845 3.832C111.674 3.66133 111.439 3.52267 111.141 3.416C110.853 3.30933 110.485 3.256 110.037 3.256H109.781C109.61 3.256 109.514 3.34667 109.493 3.528C109.439 4.072 109.381 4.57867 109.317 5.048C109.253 5.51733 109.221 6.008 109.221 6.52V6.728C109.221 6.90933 109.311 7 109.493 7H110.037Z" fill="black"/>
</svg>
