<svg width="111" height="49" viewBox="0 0 111 49" fill="none" xmlns="http://www.w3.org/2000/svg">
<path d="M3.79 8.48C3.83267 8.82133 3.87 9.17333 3.902 9.536C3.934 9.888 3.95 10.272 3.95 10.688C3.95 10.8373 3.92867 10.992 3.886 11.152C3.84333 11.3013 3.758 11.44 3.63 11.568C3.51267 11.696 3.34733 11.8027 3.134 11.888C2.93133 11.9627 2.67 12 2.35 12C2.01933 12 1.74733 11.9573 1.534 11.872C1.33133 11.7867 1.17133 11.68 1.054 11.552C0.936665 11.4133 0.856665 11.2693 0.813998 11.12C0.771332 10.96 0.749998 10.8053 0.749998 10.656C0.749998 10.2827 0.765998 9.92 0.797998 9.568C0.829998 9.216 0.867332 8.86933 0.909998 8.528C0.952665 8.176 0.989998 7.83467 1.022 7.504C1.054 7.16267 1.07 6.82133 1.07 6.48V5.52C1.07 5.17867 1.054 4.84267 1.022 4.512C0.989998 4.17067 0.952665 3.82933 0.909998 3.488C0.867332 3.136 0.829998 2.784 0.797998 2.432C0.765998 2.08 0.749998 1.71733 0.749998 1.344C0.749998 1.19467 0.771332 1.04533 0.813998 0.896C0.856665 0.735999 0.936665 0.591999 1.054 0.464C1.182 0.325333 1.34733 0.213333 1.55 0.127999C1.76333 0.0426658 2.03533 -9.53674e-07 2.366 -9.53674e-07H4.446C6.08867 -9.53674e-07 7.33667 0.346666 8.19 1.04C9.054 1.73333 9.486 2.74667 9.486 4.08C9.486 4.72 9.35267 5.296 9.086 5.808C8.83 6.32 8.47267 6.752 8.014 7.104C7.566 7.456 7.03267 7.728 6.414 7.92C5.806 8.112 5.15 8.208 4.446 8.208H4.03C3.84867 8.208 3.76867 8.29867 3.79 8.48ZM4.446 6C4.862 6 5.20867 5.94133 5.486 5.824C5.774 5.70667 6.00867 5.55733 6.19 5.376C6.37133 5.184 6.49933 4.976 6.574 4.752C6.65933 4.51733 6.702 4.288 6.702 4.064C6.702 3.84 6.67 3.62133 6.606 3.408C6.542 3.19467 6.42467 3.00267 6.254 2.832C6.08333 2.66133 5.84867 2.52267 5.55 2.416C5.262 2.30933 4.894 2.256 4.446 2.256H4.19C4.01933 2.256 3.92333 2.34667 3.902 2.528C3.84867 3.072 3.79 3.57867 3.726 4.048C3.662 4.51733 3.63 5.008 3.63 5.52V5.728C3.63 5.90933 3.72067 6 3.902 6H4.446ZM11.3071 7.376C11.3071 7.13067 11.2911 6.88533 11.2591 6.64C11.2271 6.384 11.1898 6.13867 11.1471 5.904C11.1045 5.66933 11.0671 5.44533 11.0351 5.232C11.0031 5.01867 10.9871 4.816 10.9871 4.624C10.9871 4.496 11.0085 4.36267 11.0511 4.224C11.0938 4.08533 11.1685 3.95733 11.2751 3.84C11.3925 3.72267 11.5471 3.62667 11.7391 3.552C11.9418 3.46667 12.1978 3.424 12.5071 3.424C12.8165 3.424 13.0671 3.46133 13.2591 3.536C13.4511 3.61067 13.6058 3.70667 13.7231 3.824C13.8405 3.94133 13.9205 4.06933 13.9631 4.208C14.0058 4.34667 14.0271 4.48 14.0271 4.608C14.0271 5.04533 13.9738 5.49333 13.8671 5.952C13.7605 6.4 13.7071 6.87467 13.7071 7.376V8.064C13.7071 8.55467 13.7605 9.02933 13.8671 9.488C13.9738 9.936 14.0271 10.384 14.0271 10.832C14.0271 10.96 14.0058 11.0933 13.9631 11.232C13.9205 11.36 13.8405 11.4827 13.7231 11.6C13.6058 11.7173 13.4511 11.8133 13.2591 11.888C13.0671 11.9627 12.8165 12 12.5071 12C12.1978 12 11.9418 11.9627 11.7391 11.888C11.5471 11.8133 11.3925 11.7173 11.2751 11.6C11.1685 11.472 11.0938 11.3387 11.0511 11.2C11.0085 11.0613 10.9871 10.928 10.9871 10.8C10.9871 10.608 11.0031 10.4053 11.0351 10.192C11.0671 9.97867 11.1045 9.75467 11.1471 9.52C11.1898 9.28533 11.2271 9.04533 11.2591 8.8C11.2911 8.55467 11.3071 8.30933 11.3071 8.064V7.376ZM10.9231 1.44C10.9231 1.10933 11.0618 0.837333 11.3391 0.624C11.6271 0.399999 12.0058 0.287999 12.4751 0.287999C12.9338 0.287999 13.3018 0.399999 13.5791 0.624C13.8671 0.837333 14.0111 1.10933 14.0111 1.44C14.0111 1.78133 13.8671 2.05867 13.5791 2.272C13.3018 2.48533 12.9338 2.592 12.4751 2.592C12.0058 2.592 11.6271 2.48533 11.3391 2.272C11.0618 2.05867 10.9231 1.78133 10.9231 1.44ZM18.8811 9.328C18.7958 9.34933 18.7478 9.38133 18.7371 9.424C18.7371 9.46667 18.7745 9.50933 18.8491 9.552C19.1265 9.712 19.4838 9.792 19.9211 9.792C20.3265 9.792 20.6625 9.70667 20.9291 9.536C21.1958 9.36533 21.4785 9.152 21.7771 8.896C21.9905 8.71467 22.2305 8.624 22.4971 8.624C22.7425 8.624 22.9665 8.69867 23.1691 8.848C23.3825 8.99733 23.5478 9.184 23.6651 9.408C23.7931 9.632 23.8518 9.872 23.8411 10.128C23.8411 10.384 23.7451 10.624 23.5531 10.848C23.3825 11.04 23.1531 11.2213 22.8651 11.392C22.5878 11.552 22.2785 11.6907 21.9371 11.808C21.6065 11.9147 21.2651 12 20.9131 12.064C20.5611 12.128 20.2251 12.16 19.9051 12.16C19.2651 12.16 18.6731 12.08 18.1291 11.92C17.5851 11.76 17.1105 11.5093 16.7051 11.168C16.3105 10.816 15.9958 10.3733 15.7611 9.84C15.5371 9.296 15.4251 8.64533 15.4251 7.888C15.4251 7.20533 15.5478 6.58667 15.7931 6.032C16.0491 5.46667 16.3905 4.98133 16.8171 4.576C17.2545 4.17067 17.7665 3.856 18.3531 3.632C18.9398 3.408 19.5638 3.296 20.2251 3.296C20.7478 3.296 21.2118 3.38133 21.6171 3.552C22.0225 3.712 22.3531 3.92533 22.6091 4.192C22.8758 4.45867 23.0625 4.76267 23.1691 5.104C23.2865 5.44533 23.3131 5.79733 23.2491 6.16C23.1958 6.512 23.0465 6.85867 22.8011 7.2C22.5665 7.54133 22.2251 7.84533 21.7771 8.112C21.3398 8.37867 20.8758 8.61333 20.3851 8.816C19.8945 9.01867 19.3931 9.18933 18.8811 9.328ZM18.0011 7.296C17.9798 7.47733 18.0545 7.54133 18.2251 7.488C18.5131 7.392 18.8171 7.28 19.1371 7.152C19.4678 7.024 19.8198 6.86933 20.1931 6.688C20.3638 6.60267 20.4811 6.49067 20.5451 6.352C20.6198 6.21333 20.6465 6.07467 20.6251 5.936C20.6145 5.79733 20.5611 5.68 20.4651 5.584C20.3691 5.47733 20.2411 5.424 20.0811 5.424C19.5051 5.424 19.0358 5.58933 18.6731 5.92C18.3105 6.25067 18.0865 6.70933 18.0011 7.296ZM28.6339 5.568C28.2712 5.568 27.9192 5.60533 27.5779 5.68C27.2472 5.75467 26.9059 5.792 26.5539 5.792C26.4045 5.792 26.2605 5.776 26.1219 5.744C25.9832 5.712 25.8552 5.65333 25.7379 5.568C25.6312 5.48267 25.5405 5.36533 25.4659 5.216C25.4019 5.056 25.3699 4.85333 25.3699 4.608C25.3699 4.36267 25.4019 4.16533 25.4659 4.016C25.5299 3.856 25.6152 3.73333 25.7219 3.648C25.8285 3.56267 25.9512 3.504 26.0899 3.472C26.2285 3.44 26.3725 3.424 26.5219 3.424C26.7352 3.424 26.9325 3.43467 27.1139 3.456C27.2952 3.47733 27.4659 3.504 27.6259 3.536C27.7965 3.568 27.9619 3.59467 28.1219 3.616C28.2925 3.63733 28.4685 3.648 28.6499 3.648H29.4499C29.6312 3.648 29.8019 3.63733 29.9619 3.616C30.1325 3.59467 30.2979 3.568 30.4579 3.536C30.6285 3.504 30.8045 3.47733 30.9859 3.456C31.1672 3.43467 31.3645 3.424 31.5779 3.424C31.7272 3.424 31.8605 3.44 31.9779 3.472C32.1059 3.504 32.2125 3.56267 32.2979 3.648C32.3939 3.73333 32.4632 3.856 32.5059 4.016C32.5485 4.16533 32.5699 4.36267 32.5699 4.608C32.5699 4.91733 32.5325 5.152 32.4579 5.312C32.3832 5.504 32.2712 5.69067 32.1219 5.872C31.8339 6.224 31.5192 6.544 31.1779 6.832C30.8472 7.12 30.5272 7.45067 30.2179 7.824L29.3059 8.944C29.2205 9.05067 29.1512 9.14133 29.0979 9.216C28.9379 9.42933 28.9912 9.536 29.2579 9.536H29.4499C29.6312 9.536 29.8019 9.52533 29.9619 9.504C30.1325 9.48267 30.2979 9.456 30.4579 9.424C30.6285 9.392 30.8045 9.36533 30.9859 9.344C31.1672 9.32267 31.3645 9.312 31.5779 9.312C31.7272 9.312 31.8712 9.33867 32.0099 9.392C32.1485 9.43467 32.2712 9.50933 32.3779 9.616C32.4845 9.72267 32.5699 9.86133 32.6339 10.032C32.6979 10.2027 32.7299 10.4107 32.7299 10.656C32.7192 11.1573 32.5912 11.5093 32.3459 11.712C32.1112 11.904 31.8445 12 31.5459 12C31.1939 12 30.8472 11.9627 30.5059 11.888C30.1752 11.8133 29.8232 11.776 29.4499 11.776H28.3299C27.9565 11.776 27.5992 11.8133 27.2579 11.888C26.9272 11.9627 26.5859 12 26.2339 12C25.9352 12 25.6899 11.904 25.4979 11.712C25.3165 11.5093 25.2205 11.1573 25.2099 10.656C25.1992 10.3573 25.2312 10.112 25.3059 9.92C25.3805 9.728 25.4819 9.584 25.6099 9.488C25.6205 9.46667 25.6419 9.44 25.6739 9.408C25.8445 9.19467 26.0099 9.008 26.1699 8.848C26.3405 8.688 26.5005 8.53333 26.6499 8.384C26.8099 8.23467 26.9645 8.08533 27.1139 7.936C27.2739 7.78667 27.4285 7.62133 27.5779 7.44L28.4899 6.32C28.5432 6.24533 28.5965 6.176 28.6499 6.112C28.7032 6.03733 28.7565 5.96267 28.8099 5.888C28.9485 5.67467 28.8899 5.568 28.6339 5.568ZM34.0876 7.888C34.0876 7.20533 34.1996 6.58667 34.4236 6.032C34.6476 5.46667 34.9623 4.98133 35.3676 4.576C35.773 4.17067 36.253 3.856 36.8076 3.632C37.373 3.408 37.9863 3.296 38.6476 3.296C39.309 3.296 39.917 3.408 40.4716 3.632C41.0263 3.856 41.5063 4.17067 41.9116 4.576C42.317 4.98133 42.6316 5.46667 42.8556 6.032C43.0796 6.58667 43.1916 7.20533 43.1916 7.888C43.1916 8.64533 43.0796 9.296 42.8556 9.84C42.6423 10.3733 42.333 10.816 41.9276 11.168C41.533 11.5093 41.053 11.76 40.4876 11.92C39.933 12.08 39.3196 12.16 38.6476 12.16C37.9756 12.16 37.357 12.08 36.7916 11.92C36.237 11.76 35.757 11.5093 35.3516 11.168C34.957 10.816 34.6476 10.3733 34.4236 9.84C34.1996 9.296 34.0876 8.64533 34.0876 7.888ZM36.6316 7.744C36.6316 8.02133 36.6583 8.28267 36.7116 8.528C36.7756 8.77333 36.8823 8.992 37.0316 9.184C37.1916 9.36533 37.3996 9.51467 37.6556 9.632C37.9223 9.73867 38.2583 9.792 38.6636 9.792C39.069 9.792 39.3996 9.73867 39.6556 9.632C39.9223 9.51467 40.1303 9.36533 40.2796 9.184C40.4396 8.992 40.5463 8.77333 40.5996 8.528C40.6636 8.28267 40.6956 8.02133 40.6956 7.744C40.6956 7.02933 40.5196 6.464 40.1676 6.048C39.8156 5.632 39.3143 5.424 38.6636 5.424C38.013 5.424 37.5116 5.632 37.1596 6.048C36.8076 6.464 36.6316 7.02933 36.6316 7.744ZM52.6525 8.48C52.6952 8.82133 52.7325 9.17333 52.7645 9.536C52.7965 9.888 52.8125 10.272 52.8125 10.688C52.8125 10.8373 52.7912 10.992 52.7485 11.152C52.7058 11.3013 52.6205 11.44 52.4925 11.568C52.3752 11.696 52.2098 11.8027 51.9965 11.888C51.7938 11.9627 51.5325 12 51.2125 12C50.8818 12 50.6098 11.9573 50.3965 11.872C50.1938 11.7867 50.0338 11.68 49.9165 11.552C49.7992 11.4133 49.7192 11.2693 49.6765 11.12C49.6338 10.96 49.6125 10.8053 49.6125 10.656C49.6125 10.2827 49.6285 9.92 49.6605 9.568C49.6925 9.216 49.7298 8.86933 49.7725 8.528C49.8152 8.176 49.8525 7.83467 49.8845 7.504C49.9165 7.16267 49.9325 6.82133 49.9325 6.48V5.52C49.9325 5.17867 49.9165 4.84267 49.8845 4.512C49.8525 4.17067 49.8152 3.82933 49.7725 3.488C49.7298 3.136 49.6925 2.784 49.6605 2.432C49.6285 2.08 49.6125 1.71733 49.6125 1.344C49.6125 1.19467 49.6338 1.04533 49.6765 0.896C49.7192 0.735999 49.7992 0.591999 49.9165 0.464C50.0445 0.325333 50.2098 0.213333 50.4125 0.127999C50.6258 0.0426658 50.8978 -9.53674e-07 51.2285 -9.53674e-07H53.3085C54.9512 -9.53674e-07 56.1992 0.346666 57.0525 1.04C57.9165 1.73333 58.3485 2.74667 58.3485 4.08C58.3485 4.72 58.2152 5.296 57.9485 5.808C57.6925 6.32 57.3352 6.752 56.8765 7.104C56.4285 7.456 55.8952 7.728 55.2765 7.92C54.6685 8.112 54.0125 8.208 53.3085 8.208H52.8925C52.7112 8.208 52.6312 8.29867 52.6525 8.48ZM53.3085 6C53.7245 6 54.0712 5.94133 54.3485 5.824C54.6365 5.70667 54.8712 5.55733 55.0525 5.376C55.2338 5.184 55.3618 4.976 55.4365 4.752C55.5218 4.51733 55.5645 4.288 55.5645 4.064C55.5645 3.84 55.5325 3.62133 55.4685 3.408C55.4045 3.19467 55.2872 3.00267 55.1165 2.832C54.9458 2.66133 54.7112 2.52267 54.4125 2.416C54.1245 2.30933 53.7565 2.256 53.3085 2.256H53.0525C52.8818 2.256 52.7858 2.34667 52.7645 2.528C52.7112 3.072 52.6525 3.57867 52.5885 4.048C52.5245 4.51733 52.4925 5.008 52.4925 5.52V5.728C52.4925 5.90933 52.5832 6 52.7645 6H53.3085ZM62.5216 7.024C62.5216 7.07733 62.5163 7.136 62.5056 7.2C62.5056 7.264 62.5056 7.32267 62.5056 7.376V8.064C62.5056 8.55467 62.559 9.02933 62.6656 9.488C62.7723 9.936 62.8256 10.384 62.8256 10.832C62.8256 10.96 62.8043 11.0933 62.7616 11.232C62.719 11.36 62.639 11.4827 62.5216 11.6C62.4043 11.7173 62.2496 11.8133 62.0576 11.888C61.8656 11.9627 61.615 12 61.3056 12C60.9963 12 60.7403 11.9627 60.5376 11.888C60.3456 11.8133 60.191 11.7173 60.0736 11.6C59.967 11.472 59.8923 11.3387 59.8496 11.2C59.807 11.0613 59.7856 10.928 59.7856 10.8C59.7856 10.608 59.8016 10.4053 59.8336 10.192C59.8656 9.97867 59.903 9.75467 59.9456 9.52C59.9883 9.28533 60.0256 9.04533 60.0576 8.8C60.0896 8.55467 60.1056 8.30933 60.1056 8.064V7.376C60.1056 7.13067 60.0896 6.88533 60.0576 6.64C60.0256 6.384 59.9883 6.13867 59.9456 5.904C59.903 5.66933 59.8656 5.44533 59.8336 5.232C59.8016 5.01867 59.7856 4.816 59.7856 4.624C59.7856 4.496 59.807 4.36267 59.8496 4.224C59.8923 4.08533 59.967 3.95733 60.0736 3.84C60.191 3.72267 60.3456 3.62667 60.5376 3.552C60.7403 3.46667 60.9963 3.424 61.3056 3.424C61.839 3.424 62.2123 3.53067 62.4256 3.744C62.6496 3.95733 62.7776 4.18667 62.8096 4.432C63.023 4.144 63.279 3.89867 63.5776 3.696C63.887 3.48267 64.2496 3.376 64.6656 3.376C65.199 3.376 65.5883 3.47733 65.8336 3.68C66.0896 3.872 66.2443 4.10667 66.2976 4.384C66.3616 4.65067 66.3456 4.92267 66.2496 5.2C66.1536 5.47733 66.0256 5.69067 65.8656 5.84C65.727 5.968 65.551 6.03733 65.3376 6.048C65.1243 6.05867 64.9003 6.02667 64.6656 5.952C64.5696 5.92 64.4523 5.888 64.3136 5.856C64.175 5.824 64.0256 5.81867 63.8656 5.84C63.7056 5.85067 63.535 5.89333 63.3536 5.968C63.1723 6.04267 62.991 6.17067 62.8096 6.352C62.7243 6.43733 62.655 6.544 62.6016 6.672C62.559 6.78933 62.5323 6.90667 62.5216 7.024ZM70.5249 9.328C70.4395 9.34933 70.3915 9.38133 70.3809 9.424C70.3809 9.46667 70.4182 9.50933 70.4929 9.552C70.7702 9.712 71.1275 9.792 71.5649 9.792C71.9702 9.792 72.3062 9.70667 72.5729 9.536C72.8395 9.36533 73.1222 9.152 73.4209 8.896C73.6342 8.71467 73.8742 8.624 74.1409 8.624C74.3862 8.624 74.6102 8.69867 74.8129 8.848C75.0262 8.99733 75.1915 9.184 75.3089 9.408C75.4369 9.632 75.4955 9.872 75.4849 10.128C75.4849 10.384 75.3889 10.624 75.1969 10.848C75.0262 11.04 74.7969 11.2213 74.5089 11.392C74.2315 11.552 73.9222 11.6907 73.5809 11.808C73.2502 11.9147 72.9089 12 72.5569 12.064C72.2049 12.128 71.8689 12.16 71.5489 12.16C70.9089 12.16 70.3169 12.08 69.7729 11.92C69.2289 11.76 68.7542 11.5093 68.3489 11.168C67.9542 10.816 67.6395 10.3733 67.4049 9.84C67.1809 9.296 67.0689 8.64533 67.0689 7.888C67.0689 7.20533 67.1915 6.58667 67.4369 6.032C67.6929 5.46667 68.0342 4.98133 68.4609 4.576C68.8982 4.17067 69.4102 3.856 69.9969 3.632C70.5835 3.408 71.2075 3.296 71.8689 3.296C72.3915 3.296 72.8555 3.38133 73.2609 3.552C73.6662 3.712 73.9969 3.92533 74.2529 4.192C74.5195 4.45867 74.7062 4.76267 74.8129 5.104C74.9302 5.44533 74.9569 5.79733 74.8929 6.16C74.8395 6.512 74.6902 6.85867 74.4449 7.2C74.2102 7.54133 73.8689 7.84533 73.4209 8.112C72.9835 8.37867 72.5195 8.61333 72.0289 8.816C71.5382 9.01867 71.0369 9.18933 70.5249 9.328ZM69.6449 7.296C69.6235 7.47733 69.6982 7.54133 69.8689 7.488C70.1569 7.392 70.4609 7.28 70.7809 7.152C71.1115 7.024 71.4635 6.86933 71.8369 6.688C72.0075 6.60267 72.1249 6.49067 72.1889 6.352C72.2635 6.21333 72.2902 6.07467 72.2689 5.936C72.2582 5.79733 72.2049 5.68 72.1089 5.584C72.0129 5.47733 71.8849 5.424 71.7249 5.424C71.1489 5.424 70.6795 5.58933 70.3169 5.92C69.9542 6.25067 69.7302 6.70933 69.6449 7.296ZM76.8376 8.528C76.8376 7.93067 76.9283 7.32267 77.1096 6.704C77.291 6.07467 77.547 5.50933 77.8776 5.008C78.219 4.50667 78.6243 4.096 79.0936 3.776C79.5736 3.456 80.107 3.296 80.6936 3.296C81.067 3.296 81.387 3.35467 81.6536 3.472C81.9203 3.58933 82.1763 3.74933 82.4216 3.952C82.5283 3.80267 82.683 3.68 82.8856 3.584C83.0883 3.47733 83.371 3.424 83.7336 3.424C84.043 3.424 84.2936 3.46133 84.4856 3.536C84.6776 3.61067 84.8323 3.70667 84.9496 3.824C85.067 3.94133 85.147 4.06933 85.1896 4.208C85.2323 4.34667 85.2536 4.48 85.2536 4.608C85.2536 5.04533 85.2003 5.49333 85.0936 5.952C84.987 6.4 84.9336 6.87467 84.9336 7.376V8.064C84.9336 8.55467 84.987 9.02933 85.0936 9.488C85.2003 9.936 85.2536 10.384 85.2536 10.832C85.2536 10.96 85.2323 11.0933 85.1896 11.232C85.147 11.36 85.067 11.4827 84.9496 11.6C84.8323 11.7173 84.6776 11.8133 84.4856 11.888C84.2936 11.9627 84.043 12 83.7336 12C83.2323 12 82.8696 11.9093 82.6456 11.728C82.4323 11.536 82.299 11.3333 82.2456 11.12C81.979 11.4293 81.6483 11.68 81.2536 11.872C80.8696 12.064 80.363 12.16 79.7336 12.16C79.2536 12.16 78.8323 12.1013 78.4696 11.984C78.1176 11.856 77.819 11.6533 77.5736 11.376C77.3283 11.088 77.1416 10.7147 77.0136 10.256C76.8963 9.78667 76.8376 9.21067 76.8376 8.528ZM79.3976 8.384C79.3976 8.66133 79.435 8.89067 79.5096 9.072C79.5843 9.25333 79.6856 9.39733 79.8136 9.504C79.9523 9.61067 80.1123 9.68533 80.2936 9.728C80.475 9.77067 80.667 9.792 80.8696 9.792C81.1576 9.792 81.403 9.73867 81.6056 9.632C81.8083 9.51467 81.9736 9.36533 82.1016 9.184C82.2403 8.992 82.3416 8.77333 82.4056 8.528C82.4696 8.28267 82.5016 8.02133 82.5016 7.744C82.5016 7.392 82.4856 7.072 82.4536 6.784C82.4216 6.496 82.3523 6.25067 82.2456 6.048C82.1496 5.84533 82.0003 5.69067 81.7976 5.584C81.6056 5.47733 81.3496 5.424 81.0296 5.424C80.7843 5.424 80.5603 5.52 80.3576 5.712C80.1656 5.904 79.995 6.144 79.8456 6.432C79.707 6.72 79.595 7.04 79.5096 7.392C79.435 7.73333 79.3976 8.064 79.3976 8.384ZM89.4372 6.896C89.4266 6.98133 89.4212 7.06133 89.4212 7.136C89.4212 7.21067 89.4212 7.29067 89.4212 7.376V8.064C89.4212 8.55467 89.4746 9.02933 89.5812 9.488C89.6879 9.936 89.7412 10.384 89.7412 10.832C89.7412 10.96 89.7199 11.0933 89.6772 11.232C89.6346 11.36 89.5546 11.4827 89.4372 11.6C89.3199 11.7173 89.1652 11.8133 88.9732 11.888C88.7812 11.9627 88.5306 12 88.2212 12C87.9119 12 87.6559 11.9627 87.4532 11.888C87.2612 11.8133 87.1066 11.7173 86.9892 11.6C86.8826 11.472 86.8079 11.3387 86.7652 11.2C86.7226 11.0613 86.7012 10.928 86.7012 10.8C86.7012 10.608 86.7172 10.4053 86.7492 10.192C86.7812 9.97867 86.8186 9.75467 86.8612 9.52C86.9039 9.28533 86.9412 9.04533 86.9732 8.8C87.0052 8.55467 87.0212 8.30933 87.0212 8.064V7.376C87.0212 7.13067 87.0052 6.88533 86.9732 6.64C86.9412 6.384 86.9039 6.13867 86.8612 5.904C86.8186 5.66933 86.7812 5.44533 86.7492 5.232C86.7172 5.01867 86.7012 4.816 86.7012 4.624C86.7012 4.496 86.7226 4.36267 86.7652 4.224C86.8079 4.08533 86.8826 3.95733 86.9892 3.84C87.1066 3.72267 87.2612 3.62667 87.4532 3.552C87.6559 3.46667 87.9119 3.424 88.2212 3.424C88.7546 3.424 89.1279 3.53067 89.3412 3.744C89.5652 3.95733 89.6932 4.18667 89.7252 4.432C89.9172 4.18667 90.1466 3.97333 90.4132 3.792C90.6799 3.6 90.9999 3.46133 91.3732 3.376C91.6292 3.32267 91.9172 3.29067 92.2372 3.28C92.5679 3.26933 92.8826 3.30667 93.1812 3.392C93.4906 3.46667 93.7679 3.6 94.0132 3.792C94.2692 3.97333 94.4506 4.224 94.5572 4.544C94.7492 4.27733 94.9839 4.03733 95.2612 3.824C95.5492 3.61067 95.8906 3.46133 96.2852 3.376C96.5839 3.312 96.9306 3.28 97.3252 3.28C97.7199 3.28 98.0932 3.344 98.4452 3.472C98.8079 3.6 99.1119 3.80267 99.3572 4.08C99.6026 4.34667 99.7252 4.72 99.7252 5.2C99.7252 5.63733 99.6719 6.08533 99.5652 6.544C99.4586 6.992 99.4052 7.46667 99.4052 7.968V8.064C99.4052 8.55467 99.4586 9.02933 99.5652 9.488C99.6719 9.936 99.7252 10.384 99.7252 10.832C99.7252 10.96 99.7039 11.0933 99.6612 11.232C99.6186 11.36 99.5386 11.4827 99.4212 11.6C99.3039 11.7173 99.1492 11.8133 98.9572 11.888C98.7652 11.9627 98.5146 12 98.2052 12C97.8959 12 97.6399 11.9627 97.4372 11.888C97.2452 11.8133 97.0906 11.7173 96.9732 11.6C96.8666 11.472 96.7919 11.3387 96.7492 11.2C96.7066 11.0613 96.6852 10.928 96.6852 10.8C96.6852 10.608 96.7012 10.4053 96.7332 10.192C96.7652 9.97867 96.8026 9.75467 96.8452 9.52C96.8879 9.28533 96.9252 9.04533 96.9572 8.8C96.9892 8.55467 97.0052 8.30933 97.0052 8.064V7.968C97.0052 6.50667 96.7599 5.72267 96.2692 5.616C96.0879 5.57333 95.8692 5.568 95.6132 5.6C95.3572 5.62133 95.0799 5.77067 94.7812 6.048C94.6959 6.12267 94.6266 6.224 94.5732 6.352C94.5199 6.46933 94.4826 6.592 94.4612 6.72C94.4292 6.92267 94.3972 7.13067 94.3652 7.344C94.3439 7.54667 94.3332 7.75467 94.3332 7.968V8.064C94.3332 8.55467 94.3866 9.02933 94.4932 9.488C94.5999 9.936 94.6532 10.384 94.6532 10.832C94.6532 10.96 94.6319 11.0933 94.5892 11.232C94.5572 11.36 94.4879 11.4827 94.3812 11.6C94.2852 11.7173 94.1412 11.8133 93.9492 11.888C93.7679 11.9627 93.5226 12 93.2132 12C92.9039 12 92.6532 11.9627 92.4612 11.888C92.2799 11.8133 92.1359 11.7173 92.0292 11.6C91.9226 11.472 91.8532 11.3387 91.8212 11.2C91.7892 11.0613 91.7732 10.928 91.7732 10.8C91.7732 10.608 91.7892 10.4053 91.8212 10.192C91.8532 9.97867 91.8906 9.75467 91.9332 9.52C91.9759 9.28533 92.0132 9.04533 92.0452 8.8C92.0772 8.55467 92.0932 8.30933 92.0932 8.064V7.968C92.0932 6.50667 91.8479 5.72267 91.3572 5.616C91.2612 5.59467 91.1492 5.584 91.0212 5.584C90.9039 5.57333 90.7759 5.584 90.6372 5.616C90.4986 5.648 90.3492 5.712 90.1892 5.808C90.0399 5.89333 89.8852 6.02667 89.7252 6.208C89.5546 6.4 89.4586 6.62933 89.4372 6.896ZM110.374 7.456C110.374 8.29867 110.272 9.01867 110.07 9.616C109.878 10.2133 109.616 10.704 109.286 11.088C108.955 11.472 108.576 11.7547 108.15 11.936C107.723 12.1173 107.275 12.208 106.806 12.208C106.187 12.208 105.638 12.1333 105.158 11.984C104.678 11.824 104.262 11.616 103.91 11.36C103.952 11.8933 104.011 12.4213 104.086 12.944C104.16 13.4773 104.198 14.0427 104.198 14.64C104.198 15.1413 104.054 15.488 103.766 15.68C103.488 15.8827 103.11 15.984 102.63 15.984C102.32 15.984 102.07 15.9413 101.878 15.856C101.686 15.7813 101.536 15.68 101.43 15.552C101.323 15.424 101.248 15.28 101.206 15.12C101.174 14.9707 101.158 14.8213 101.158 14.672C101.158 14.256 101.174 13.8667 101.206 13.504C101.238 13.1413 101.275 12.7893 101.318 12.448C101.36 12.1173 101.398 11.792 101.43 11.472C101.462 11.1413 101.478 10.8053 101.478 10.464V8.992C101.478 8.65067 101.462 8.32 101.43 8C101.398 7.66933 101.36 7.33867 101.318 7.008C101.275 6.66667 101.238 6.31467 101.206 5.952C101.174 5.58933 101.158 5.2 101.158 4.784C101.158 4.63467 101.174 4.48533 101.206 4.336C101.248 4.176 101.323 4.032 101.43 3.904C101.536 3.776 101.686 3.67467 101.878 3.6C102.07 3.51467 102.32 3.472 102.63 3.472C102.992 3.472 103.318 3.54133 103.606 3.68C103.904 3.808 104.091 4.064 104.166 4.448C104.475 4.11733 104.848 3.85067 105.286 3.648C105.723 3.44533 106.23 3.344 106.806 3.344C107.083 3.344 107.424 3.392 107.83 3.488C108.235 3.57333 108.624 3.76 108.998 4.048C109.382 4.336 109.707 4.752 109.974 5.296C110.24 5.82933 110.374 6.54933 110.374 7.456ZM107.83 7.76C107.83 7.48267 107.803 7.22133 107.75 6.976C107.696 6.73067 107.6 6.51733 107.462 6.336C107.323 6.144 107.131 5.99467 106.886 5.888C106.651 5.77067 106.352 5.712 105.99 5.712C105.67 5.712 105.376 5.77067 105.11 5.888C104.854 5.99467 104.635 6.144 104.454 6.336C104.272 6.528 104.128 6.74667 104.022 6.992C103.926 7.23733 103.872 7.49333 103.862 7.76C103.851 8.112 103.91 8.42667 104.038 8.704C104.166 8.97067 104.331 9.19467 104.534 9.376C104.747 9.55733 104.982 9.696 105.238 9.792C105.494 9.87733 105.744 9.92 105.99 9.92C106.555 9.92 107.003 9.76 107.334 9.44C107.664 9.10933 107.83 8.54933 107.83 7.76ZM45.2362 26.672C45.3429 26.3627 45.4389 26.048 45.5242 25.728C45.6202 25.408 45.7269 25.088 45.8442 24.768C46.0255 24.2773 46.2015 23.808 46.3722 23.36C46.5429 22.9013 46.7402 22.4747 46.9642 22.08C47.0495 21.9307 47.1722 21.7867 47.3322 21.648C47.5029 21.5093 47.7162 21.44 47.9722 21.44C48.2495 21.44 48.5589 21.5413 48.9002 21.744C49.1669 21.904 49.3589 22.0747 49.4762 22.256C49.5935 22.4373 49.6629 22.6187 49.6842 22.8C49.7162 22.9707 49.7109 23.136 49.6682 23.296C49.6362 23.4453 49.5882 23.5787 49.5242 23.696C49.3322 24.048 49.0869 24.4373 48.7882 24.864C48.5002 25.28 48.2335 25.712 47.9882 26.16L47.6362 26.8C47.3909 27.248 47.1775 27.7013 46.9962 28.16C46.8255 28.608 46.6442 29.0027 46.4522 29.344C46.3455 29.5253 46.1855 29.68 45.9722 29.808C45.7589 29.9253 45.4655 29.984 45.0922 29.984C44.7295 29.984 44.4415 29.9253 44.2282 29.808C44.0255 29.68 43.8709 29.5253 43.7642 29.344C43.5722 29.0027 43.3855 28.608 43.2042 28.16C43.0335 27.7013 42.8255 27.248 42.5802 26.8L42.2282 26.16C41.9829 25.712 41.7109 25.28 41.4122 24.864C41.1242 24.4373 40.8842 24.048 40.6922 23.696C40.6282 23.5787 40.5749 23.4453 40.5322 23.296C40.5002 23.136 40.4949 22.9707 40.5162 22.8C40.5482 22.6187 40.6229 22.4373 40.7402 22.256C40.8575 22.0747 41.0495 21.904 41.3162 21.744C41.6575 21.5413 41.9669 21.44 42.2442 21.44C42.5002 21.44 42.7082 21.5093 42.8682 21.648C43.0389 21.7867 43.1669 21.9307 43.2522 22.08C43.4762 22.4747 43.6735 22.9013 43.8442 23.36C44.0149 23.8187 44.1909 24.288 44.3722 24.768C44.4895 25.088 44.5909 25.408 44.6762 25.728C44.7722 26.048 44.8735 26.3627 44.9802 26.672C45.0655 26.9067 45.1509 26.9067 45.2362 26.672ZM54.7332 24.592C54.5519 24.592 54.3865 24.6027 54.2372 24.624C54.0985 24.6453 53.9599 24.672 53.8212 24.704C53.6932 24.736 53.5599 24.7627 53.4212 24.784C53.2932 24.8053 53.1385 24.816 52.9572 24.816C52.6585 24.816 52.3865 24.7253 52.1412 24.544C51.9065 24.352 51.7839 24.0107 51.7732 23.52C51.7732 23.2747 51.8052 23.072 51.8692 22.912C51.9332 22.7413 52.0185 22.608 52.1252 22.512C52.2319 22.4053 52.3545 22.3307 52.4932 22.288C52.6319 22.2453 52.7759 22.224 52.9252 22.224C53.0852 22.224 53.2292 22.2347 53.3572 22.256C53.4959 22.2773 53.6292 22.304 53.7572 22.336C53.8852 22.368 54.0132 22.3947 54.1412 22.416C54.2692 22.4373 54.4132 22.448 54.5732 22.448C54.9572 22.448 55.2665 22.416 55.5012 22.352C55.7359 22.288 55.9119 22.2027 56.0292 22.096C56.1572 21.9787 56.2372 21.8347 56.2692 21.664C56.3119 21.4933 56.3332 21.3067 56.3332 21.104C56.3332 20.912 56.2959 20.752 56.2212 20.624C56.1465 20.496 56.0505 20.3947 55.9332 20.32C55.8265 20.2347 55.7039 20.176 55.5652 20.144C55.4265 20.112 55.2932 20.096 55.1652 20.096C54.9519 20.096 54.7439 20.1227 54.5412 20.176C54.3492 20.2293 54.1625 20.2987 53.9812 20.384C53.8105 20.4587 53.6399 20.544 53.4692 20.64C53.2985 20.7253 53.1332 20.8053 52.9732 20.88C52.6532 21.0187 52.3492 21.0293 52.0612 20.912C51.7839 20.7947 51.5705 20.6133 51.4212 20.368C51.2825 20.1227 51.2452 19.8453 51.3092 19.536C51.3839 19.216 51.6132 18.9333 51.9972 18.688C52.1892 18.56 52.4132 18.448 52.6692 18.352C52.9359 18.2453 53.2079 18.1547 53.4852 18.08C53.7625 18.0053 54.0452 17.9467 54.3332 17.904C54.6319 17.8613 54.9092 17.84 55.1652 17.84C55.7092 17.84 56.2105 17.904 56.6692 18.032C57.1385 18.16 57.5385 18.352 57.8692 18.608C58.2105 18.864 58.4772 19.184 58.6692 19.568C58.8612 19.9413 58.9572 20.384 58.9572 20.896C58.9572 21.1947 58.9252 21.4613 58.8612 21.696C58.8079 21.9307 58.7225 22.144 58.6052 22.336C58.4985 22.528 58.3599 22.704 58.1892 22.864C58.0292 23.0133 57.8479 23.1627 57.6452 23.312C57.9225 23.3973 58.1679 23.5307 58.3812 23.712C58.5945 23.8827 58.7705 24.0907 58.9092 24.336C59.0585 24.5813 59.1652 24.8533 59.2292 25.152C59.3039 25.4507 59.3412 25.76 59.3412 26.08C59.3412 26.6773 59.2452 27.2267 59.0532 27.728C58.8612 28.2293 58.5839 28.6613 58.2212 29.024C57.8692 29.376 57.4265 29.6533 56.8932 29.856C56.3705 30.0587 55.7732 30.16 55.1012 30.16C54.3012 30.16 53.5972 29.9947 52.9892 29.664C52.3812 29.3227 51.8745 28.9173 51.4692 28.448C51.2452 28.1813 51.1119 27.92 51.0692 27.664C51.0372 27.3973 51.0639 27.1573 51.1492 26.944C51.2452 26.7307 51.3892 26.5493 51.5812 26.4C51.7839 26.2507 51.9972 26.1547 52.2212 26.112C52.4559 26.0587 52.6905 26.0693 52.9252 26.144C53.1705 26.2187 53.3839 26.368 53.5652 26.592C53.7465 26.8053 53.9599 27.0133 54.2052 27.216C54.4612 27.4187 54.7599 27.52 55.1012 27.52C55.2292 27.52 55.3785 27.504 55.5492 27.472C55.7199 27.44 55.8745 27.3707 56.0132 27.264C56.1625 27.1573 56.2852 27.0027 56.3812 26.8C56.4879 26.5973 56.5412 26.3253 56.5412 25.984C56.5412 25.8133 56.4985 25.648 56.4132 25.488C56.3279 25.3173 56.2052 25.168 56.0452 25.04C55.8959 24.9013 55.7092 24.7947 55.4852 24.72C55.2612 24.6347 55.0105 24.592 54.7332 24.592ZM60.6947 28.768C60.6947 28.352 60.828 28.0213 61.0947 27.776C61.3614 27.5307 61.7507 27.408 62.2627 27.408C62.7747 27.408 63.164 27.5307 63.4307 27.776C63.6974 28.0213 63.8307 28.352 63.8307 28.768C63.8307 29.1947 63.6974 29.5307 63.4307 29.776C63.164 30.0213 62.7747 30.144 62.2627 30.144C61.7507 30.144 61.3614 30.0213 61.0947 29.776C60.828 29.5307 60.6947 29.1947 60.6947 28.768ZM67.4241 23.52C67.4241 23.1787 67.4081 22.8427 67.3761 22.512C67.3441 22.1707 67.3067 21.8293 67.2641 21.488C67.1467 21.5413 67.0294 21.6053 66.9121 21.68C66.8054 21.7547 66.6987 21.8347 66.5921 21.92C66.5601 21.952 66.5014 21.984 66.4161 22.016C66.3307 22.0373 66.2241 22.048 66.0961 22.048C65.9787 22.0373 65.8507 21.9947 65.7121 21.92C65.5841 21.8453 65.4561 21.7173 65.3281 21.536C65.2001 21.3547 65.1307 21.1893 65.1201 21.04C65.1094 20.88 65.1254 20.7413 65.1681 20.624C65.2214 20.5067 65.2801 20.4107 65.3441 20.336C65.4187 20.2613 65.4721 20.2133 65.5041 20.192C65.6747 20.0533 65.8347 19.9413 65.9841 19.856C66.1441 19.76 66.2987 19.6533 66.4481 19.536C66.5547 19.4507 66.6401 19.3653 66.7041 19.28C66.7681 19.184 66.8321 19.088 66.8961 18.992C66.9707 18.8853 67.0507 18.7787 67.1361 18.672C67.2321 18.5653 67.3547 18.4587 67.5041 18.352C67.6214 18.2453 67.7761 18.16 67.9681 18.096C68.1707 18.032 68.4161 18 68.7041 18C69.0241 18 69.2854 18.0427 69.4881 18.128C69.7014 18.2027 69.8667 18.304 69.9841 18.432C70.1121 18.56 70.1974 18.704 70.2401 18.864C70.2827 19.0133 70.3041 19.1627 70.3041 19.312C70.3041 19.728 70.2881 20.1173 70.2561 20.48C70.2241 20.8427 70.1867 21.1947 70.1441 21.536C70.1014 21.8667 70.0641 22.1973 70.0321 22.528C70.0001 22.848 69.9841 23.1787 69.9841 23.52V24.48C69.9841 24.8213 70.0001 25.1573 70.0321 25.488C70.0641 25.808 70.1014 26.1387 70.1441 26.48C70.1867 26.8107 70.2241 27.1573 70.2561 27.52C70.2881 27.8827 70.3041 28.272 70.3041 28.688C70.3041 28.8373 70.2827 28.992 70.2401 29.152C70.1974 29.3013 70.1121 29.44 69.9841 29.568C69.8667 29.696 69.7014 29.8027 69.4881 29.888C69.2854 29.9627 69.0241 30 68.7041 30C68.3734 30 68.1014 29.9573 67.8881 29.872C67.6854 29.7867 67.5254 29.68 67.4081 29.552C67.2907 29.4133 67.2107 29.2693 67.1681 29.12C67.1254 28.96 67.1041 28.8053 67.1041 28.656C67.1041 28.2827 67.1201 27.92 67.1521 27.568C67.1841 27.216 67.2214 26.8693 67.2641 26.528C67.3067 26.176 67.3441 25.8347 67.3761 25.504C67.4081 25.1627 67.4241 24.8213 67.4241 24.48V23.52ZM24.9189 44.528C24.9189 43.9307 25.0095 43.3227 25.1909 42.704C25.3722 42.0747 25.6282 41.5093 25.9589 41.008C26.3002 40.5067 26.7055 40.096 27.1749 39.776C27.6549 39.456 28.1882 39.296 28.7749 39.296C29.1482 39.296 29.4682 39.3547 29.7349 39.472C30.0015 39.5893 30.2575 39.7493 30.5029 39.952C30.6095 39.8027 30.7642 39.68 30.9669 39.584C31.1695 39.4773 31.4522 39.424 31.8149 39.424C32.1242 39.424 32.3749 39.4613 32.5669 39.536C32.7589 39.6107 32.9135 39.7067 33.0309 39.824C33.1482 39.9413 33.2282 40.0693 33.2709 40.208C33.3135 40.3467 33.3349 40.48 33.3349 40.608C33.3349 41.0453 33.2815 41.4933 33.1749 41.952C33.0682 42.4 33.0149 42.8747 33.0149 43.376V44.064C33.0149 44.5547 33.0682 45.0293 33.1749 45.488C33.2815 45.936 33.3349 46.384 33.3349 46.832C33.3349 46.96 33.3135 47.0933 33.2709 47.232C33.2282 47.36 33.1482 47.4827 33.0309 47.6C32.9135 47.7173 32.7589 47.8133 32.5669 47.888C32.3749 47.9627 32.1242 48 31.8149 48C31.3135 48 30.9509 47.9093 30.7269 47.728C30.5135 47.536 30.3802 47.3333 30.3269 47.12C30.0602 47.4293 29.7295 47.68 29.3349 47.872C28.9509 48.064 28.4442 48.16 27.8149 48.16C27.3349 48.16 26.9135 48.1013 26.5509 47.984C26.1989 47.856 25.9002 47.6533 25.6549 47.376C25.4095 47.088 25.2229 46.7147 25.0949 46.256C24.9775 45.7867 24.9189 45.2107 24.9189 44.528ZM27.4789 44.384C27.4789 44.6613 27.5162 44.8907 27.5909 45.072C27.6655 45.2533 27.7669 45.3973 27.8949 45.504C28.0335 45.6107 28.1935 45.6853 28.3749 45.728C28.5562 45.7707 28.7482 45.792 28.9509 45.792C29.2389 45.792 29.4842 45.7387 29.6869 45.632C29.8895 45.5147 30.0549 45.3653 30.1829 45.184C30.3215 44.992 30.4229 44.7733 30.4869 44.528C30.5509 44.2827 30.5829 44.0213 30.5829 43.744C30.5829 43.392 30.5669 43.072 30.5349 42.784C30.5029 42.496 30.4335 42.2507 30.3269 42.048C30.2309 41.8453 30.0815 41.6907 29.8789 41.584C29.6869 41.4773 29.4309 41.424 29.1109 41.424C28.8655 41.424 28.6415 41.52 28.4389 41.712C28.2469 41.904 28.0762 42.144 27.9269 42.432C27.7882 42.72 27.6762 43.04 27.5909 43.392C27.5162 43.7333 27.4789 44.064 27.4789 44.384ZM37.5185 43.024C37.5185 43.0773 37.5132 43.136 37.5025 43.2C37.5025 43.264 37.5025 43.3227 37.5025 43.376V44.064C37.5025 44.5547 37.5558 45.0293 37.6625 45.488C37.7692 45.936 37.8225 46.384 37.8225 46.832C37.8225 46.96 37.8012 47.0933 37.7585 47.232C37.7158 47.36 37.6358 47.4827 37.5185 47.6C37.4012 47.7173 37.2465 47.8133 37.0545 47.888C36.8625 47.9627 36.6118 48 36.3025 48C35.9932 48 35.7372 47.9627 35.5345 47.888C35.3425 47.8133 35.1878 47.7173 35.0705 47.6C34.9638 47.472 34.8892 47.3387 34.8465 47.2C34.8038 47.0613 34.7825 46.928 34.7825 46.8C34.7825 46.608 34.7985 46.4053 34.8305 46.192C34.8625 45.9787 34.8998 45.7547 34.9425 45.52C34.9852 45.2853 35.0225 45.0453 35.0545 44.8C35.0865 44.5547 35.1025 44.3093 35.1025 44.064V43.376C35.1025 43.1307 35.0865 42.8853 35.0545 42.64C35.0225 42.384 34.9852 42.1387 34.9425 41.904C34.8998 41.6693 34.8625 41.4453 34.8305 41.232C34.7985 41.0187 34.7825 40.816 34.7825 40.624C34.7825 40.496 34.8038 40.3627 34.8465 40.224C34.8892 40.0853 34.9638 39.9573 35.0705 39.84C35.1878 39.7227 35.3425 39.6267 35.5345 39.552C35.7372 39.4667 35.9932 39.424 36.3025 39.424C36.8358 39.424 37.2092 39.5307 37.4225 39.744C37.6465 39.9573 37.7745 40.1867 37.8065 40.432C38.0198 40.144 38.2758 39.8987 38.5745 39.696C38.8838 39.4827 39.2465 39.376 39.6625 39.376C40.1958 39.376 40.5852 39.4773 40.8305 39.68C41.0865 39.872 41.2412 40.1067 41.2945 40.384C41.3585 40.6507 41.3425 40.9227 41.2465 41.2C41.1505 41.4773 41.0225 41.6907 40.8625 41.84C40.7238 41.968 40.5478 42.0373 40.3345 42.048C40.1212 42.0587 39.8972 42.0267 39.6625 41.952C39.5665 41.92 39.4492 41.888 39.3105 41.856C39.1718 41.824 39.0225 41.8187 38.8625 41.84C38.7025 41.8507 38.5318 41.8933 38.3505 41.968C38.1692 42.0427 37.9878 42.1707 37.8065 42.352C37.7212 42.4373 37.6518 42.544 37.5985 42.672C37.5558 42.7893 37.5292 42.9067 37.5185 43.024ZM46.5788 45.552C46.3761 45.808 46.1841 46.064 46.0028 46.32C45.8321 46.5653 45.6401 46.8 45.4268 47.024C45.3628 47.0987 45.2828 47.1947 45.1868 47.312C45.0908 47.4187 44.9841 47.5253 44.8668 47.632C44.7601 47.728 44.6374 47.8133 44.4988 47.888C44.3708 47.952 44.2321 47.984 44.0828 47.984C43.9334 47.984 43.7788 47.9467 43.6188 47.872C43.4694 47.7867 43.3041 47.648 43.1228 47.456C42.8668 47.168 42.7174 46.9067 42.6748 46.672C42.6321 46.4373 42.6428 46.224 42.7068 46.032C42.7814 45.84 42.8881 45.6693 43.0268 45.52C43.1654 45.3707 43.2881 45.2373 43.3948 45.12C43.6401 44.864 43.8748 44.6293 44.0988 44.416C44.3228 44.2027 44.5574 43.984 44.8028 43.76C44.9948 43.5787 44.9948 43.4027 44.8028 43.232C44.4934 42.9547 44.1948 42.688 43.9068 42.432C43.6294 42.1653 43.3841 41.9147 43.1708 41.68C43.0748 41.5733 42.9948 41.456 42.9308 41.328C42.8774 41.2 42.8508 41.0613 42.8508 40.912C42.8508 40.752 42.8881 40.5867 42.9628 40.416C43.0481 40.2453 43.1868 40.0587 43.3788 39.856C43.7094 39.5147 44.0401 39.344 44.3708 39.344C44.6481 39.344 44.9468 39.472 45.2668 39.728C45.4908 39.9093 45.7201 40.1653 45.9548 40.496C46.2001 40.8267 46.4561 41.1627 46.7228 41.504C46.7868 41.6 46.8668 41.648 46.9628 41.648C47.0588 41.648 47.1441 41.6 47.2188 41.504C47.4428 41.2267 47.6614 40.9547 47.8748 40.688C48.0988 40.4213 48.3494 40.1653 48.6268 39.92C48.7548 39.8027 48.9041 39.7013 49.0748 39.616C49.2561 39.52 49.4428 39.472 49.6348 39.472C49.8054 39.472 49.9708 39.5147 50.1308 39.6C50.2908 39.6853 50.4454 39.8347 50.5948 40.048C50.7868 40.3253 50.9094 40.5653 50.9628 40.768C51.0268 40.9707 51.0374 41.152 50.9948 41.312C50.9628 41.472 50.8934 41.6213 50.7868 41.76C50.6801 41.888 50.5574 42.016 50.4188 42.144C50.2054 42.3467 49.9814 42.544 49.7468 42.736C49.5228 42.928 49.2828 43.1307 49.0268 43.344C48.8348 43.504 48.8348 43.664 49.0268 43.824C49.3041 44.048 49.5761 44.272 49.8428 44.496C50.1094 44.7093 50.3494 44.9387 50.5628 45.184C50.6588 45.3013 50.7708 45.4453 50.8988 45.616C51.0268 45.7867 51.1174 45.9787 51.1708 46.192C51.2241 46.3947 51.2188 46.6133 51.1548 46.848C51.0908 47.0827 50.9148 47.3227 50.6268 47.568C50.4454 47.728 50.2694 47.8453 50.0988 47.92C49.9388 47.984 49.7841 48.016 49.6348 48.016C49.4854 48.016 49.3468 47.9893 49.2188 47.936C49.0908 47.8827 48.9734 47.8187 48.8668 47.744C48.7708 47.6587 48.6801 47.5733 48.5948 47.488C48.5094 47.392 48.4348 47.3067 48.3708 47.232C48.1574 46.9973 47.9441 46.736 47.7308 46.448C47.5281 46.16 47.3041 45.8613 47.0588 45.552C46.9948 45.456 46.9148 45.408 46.8188 45.408C46.7441 45.408 46.6641 45.456 46.5788 45.552ZM52.4744 46.768C52.4744 46.352 52.6077 46.0213 52.8744 45.776C53.141 45.5307 53.5304 45.408 54.0424 45.408C54.5544 45.408 54.9437 45.5307 55.2104 45.776C55.477 46.0213 55.6104 46.352 55.6104 46.768C55.6104 47.1947 55.477 47.5307 55.2104 47.776C54.9437 48.0213 54.5544 48.144 54.0424 48.144C53.5304 48.144 53.141 48.0213 52.8744 47.776C52.6077 47.5307 52.4744 47.1947 52.4744 46.768ZM65.5718 44.944C65.6464 44.6133 65.7104 44.288 65.7638 43.968C65.8171 43.6373 65.8864 43.3013 65.9718 42.96C66.0891 42.4693 66.2011 41.9947 66.3078 41.536C66.4251 41.0773 66.5744 40.64 66.7558 40.224C66.8304 40.0533 66.9531 39.888 67.1238 39.728C67.2944 39.568 67.5291 39.488 67.8278 39.488C68.0624 39.488 68.3291 39.552 68.6278 39.68C69.1931 39.9253 69.5344 40.192 69.6518 40.48C69.7798 40.7573 69.7638 41.0933 69.6038 41.488C69.4544 41.8507 69.2624 42.2667 69.0278 42.736C68.7931 43.1947 68.5798 43.6533 68.3878 44.112L68.1158 44.768C67.9238 45.2267 67.7744 45.648 67.6678 46.032C67.5718 46.4053 67.4491 46.768 67.2998 47.12C67.1931 47.3653 67.0278 47.5733 66.8038 47.744C66.5798 47.904 66.2064 47.984 65.6838 47.984C65.3104 47.984 64.9904 47.9307 64.7238 47.824C64.4571 47.7173 64.2651 47.536 64.1478 47.28C64.0944 47.152 64.0358 46.992 63.9718 46.8C63.9184 46.5973 63.8598 46.384 63.7958 46.16C63.7318 45.936 63.6678 45.7067 63.6038 45.472C63.5398 45.2373 63.4758 45.0187 63.4118 44.816C63.3798 44.6987 63.3424 44.64 63.2998 44.64C63.2571 44.64 63.2198 44.6987 63.1878 44.816C63.1238 45.0187 63.0598 45.2373 62.9958 45.472C62.9318 45.7067 62.8678 45.936 62.8038 46.16C62.7398 46.384 62.6758 46.5973 62.6118 46.8C62.5584 46.992 62.5051 47.152 62.4518 47.28C62.3451 47.5253 62.1691 47.7067 61.9238 47.824C61.6784 47.9307 61.3798 47.984 61.0278 47.984C60.4944 47.984 60.0998 47.9093 59.8438 47.76C59.5878 47.6107 59.4011 47.3973 59.2838 47.12C59.1344 46.768 59.0064 46.4053 58.8998 46.032C58.8038 45.648 58.6598 45.2267 58.4678 44.768L58.1958 44.112C58.0038 43.6533 57.7904 43.1947 57.5558 42.736C57.3211 42.2667 57.1291 41.8507 56.9798 41.488C56.8198 41.0933 56.8144 40.7573 56.9638 40.48C57.1131 40.192 57.4704 39.9253 58.0358 39.68C58.3451 39.552 58.6118 39.488 58.8358 39.488C59.1344 39.488 59.3691 39.568 59.5398 39.728C59.7104 39.888 59.8331 40.0533 59.9078 40.224C60.0891 40.64 60.2331 41.0773 60.3398 41.536C60.4571 41.9947 60.5744 42.4693 60.6918 42.96C60.7664 43.2693 60.8304 43.5787 60.8838 43.888C60.9371 44.1973 60.9958 44.5067 61.0598 44.816C61.1131 45.0613 61.1664 45.0613 61.2198 44.816C61.2838 44.5067 61.3424 44.1973 61.3958 43.888C61.4598 43.5787 61.5291 43.2587 61.6038 42.928C61.7211 42.4373 61.8331 41.9627 61.9398 41.504C62.0464 41.0347 62.1904 40.5973 62.3718 40.192C62.4464 40.0213 62.5531 39.8613 62.6918 39.712C62.8411 39.552 63.0438 39.472 63.2998 39.472C63.4918 39.472 63.7104 39.5253 63.9558 39.632C64.3718 39.8133 64.6438 40.0107 64.7718 40.224C64.8998 40.4267 64.8891 40.72 64.7398 41.104C64.7184 41.1573 64.6971 41.2107 64.6758 41.264C64.6651 41.3067 64.6491 41.3547 64.6278 41.408C64.6918 41.6533 64.7504 41.904 64.8038 42.16C64.8678 42.4053 64.9318 42.6613 64.9958 42.928C65.0811 43.2693 65.1504 43.6107 65.2038 43.952C65.2571 44.2827 65.3211 44.6133 65.3958 44.944C65.4171 45.0613 65.4438 45.12 65.4758 45.12C65.5184 45.12 65.5504 45.0613 65.5718 44.944ZM74.4202 41.968C74.3776 42.3627 74.3456 42.752 74.3242 43.136C74.3136 43.5093 74.3242 43.8507 74.3562 44.16C74.3989 44.4587 74.4682 44.7147 74.5642 44.928C74.6709 45.1307 74.8149 45.2587 74.9962 45.312C75.1776 45.3653 75.3376 45.376 75.4762 45.344C75.6149 45.3013 75.8176 45.1787 76.0842 44.976C76.2869 44.8267 76.4789 44.7573 76.6602 44.768C76.8522 44.768 77.0229 44.8267 77.1722 44.944C77.3216 45.0507 77.4496 45.2 77.5562 45.392C77.6629 45.5733 77.7322 45.776 77.7642 46C77.7962 46.2133 77.7856 46.4267 77.7322 46.64C77.6896 46.8533 77.5882 47.04 77.4282 47.2C77.2362 47.4027 77.0176 47.568 76.7722 47.696C76.5376 47.8133 76.2922 47.9093 76.0362 47.984C75.7909 48.048 75.5509 48.0907 75.3162 48.112C75.0816 48.1333 74.8682 48.144 74.6762 48.144C74.1109 48.144 73.6522 48.08 73.3002 47.952C72.9482 47.824 72.6709 47.648 72.4682 47.424C72.2656 47.1893 72.1269 46.9173 72.0522 46.608C71.9882 46.288 71.9509 45.9467 71.9402 45.584C71.9296 45.2213 71.9349 44.8427 71.9562 44.448C71.9882 44.0533 72.0042 43.6587 72.0042 43.264C72.0042 43.0613 72.0042 42.8747 72.0042 42.704C72.0042 42.5227 71.9989 42.3467 71.9882 42.176C71.9882 41.9733 71.8549 41.8293 71.5882 41.744C71.4069 41.6907 71.2629 41.584 71.1562 41.424C71.0496 41.2533 70.9909 40.9813 70.9802 40.608C70.9696 40.288 71.0016 40.048 71.0762 39.888C71.1616 39.7173 71.2789 39.5947 71.4282 39.52C71.6736 39.4133 71.7962 39.2533 71.7962 39.04V38.576C71.7962 38.4267 71.8122 38.2773 71.8442 38.128C71.8869 37.968 71.9616 37.824 72.0682 37.696C72.1749 37.568 72.3296 37.4667 72.5322 37.392C72.7349 37.3067 72.9962 37.264 73.3162 37.264C73.6469 37.264 73.9082 37.3067 74.1002 37.392C74.3029 37.4773 74.4576 37.5893 74.5642 37.728C74.6709 37.856 74.7402 38 74.7722 38.16C74.8149 38.3093 74.8362 38.4587 74.8362 38.608C74.8362 38.768 74.8202 38.9707 74.7882 39.216C74.7669 39.3333 74.7882 39.424 74.8522 39.488C74.9162 39.5413 75.0069 39.5573 75.1242 39.536C75.2949 39.504 75.4656 39.4773 75.6362 39.456C75.8176 39.4347 76.0149 39.424 76.2282 39.424C76.3776 39.424 76.5216 39.44 76.6602 39.472C76.7989 39.504 76.9216 39.5627 77.0282 39.648C77.1349 39.7333 77.2202 39.856 77.2842 40.016C77.3482 40.1653 77.3802 40.3627 77.3802 40.608C77.3802 40.8533 77.3429 41.056 77.2682 41.216C77.2042 41.3653 77.1136 41.4827 76.9962 41.568C76.8896 41.6533 76.7669 41.712 76.6282 41.744C76.4896 41.776 76.3456 41.792 76.1962 41.792C75.9616 41.792 75.7322 41.776 75.5082 41.744C75.2949 41.7013 75.0762 41.664 74.8522 41.632C74.7349 41.6107 74.6389 41.632 74.5642 41.696C74.4896 41.76 74.4416 41.8507 74.4202 41.968ZM80.308 39.2C80.3613 38.7093 80.452 38.2507 80.58 37.824C80.708 37.3973 80.884 37.024 81.108 36.704C81.3427 36.384 81.6413 36.1333 82.004 35.952C82.3667 35.76 82.8147 35.664 83.348 35.664C83.7213 35.664 84.1053 35.7227 84.5 35.84C84.8947 35.9467 85.284 36.1333 85.668 36.4C85.9027 36.56 86.036 36.7733 86.068 37.04C86.1107 37.3067 86.0733 37.5573 85.956 37.792C85.8493 38.016 85.684 38.1867 85.46 38.304C85.236 38.4213 84.9747 38.416 84.676 38.288C84.4413 38.1813 84.2333 38.1227 84.052 38.112C83.8707 38.1013 83.6893 38.1227 83.508 38.176C83.2947 38.24 83.124 38.384 82.996 38.608C82.8787 38.832 82.788 39.0987 82.724 39.408C82.7027 39.4933 82.7133 39.5627 82.756 39.616C82.7987 39.6587 82.8627 39.6693 82.948 39.648C83.1613 39.616 83.3853 39.5787 83.62 39.536C83.8547 39.4933 84.116 39.472 84.404 39.472C84.5533 39.472 84.6973 39.488 84.836 39.52C84.9747 39.552 85.0973 39.6107 85.204 39.696C85.3107 39.7813 85.396 39.904 85.46 40.064C85.524 40.2133 85.556 40.4107 85.556 40.656C85.556 40.9013 85.5187 41.104 85.444 41.264C85.38 41.4133 85.2893 41.5307 85.172 41.616C85.0653 41.7013 84.9427 41.76 84.804 41.792C84.6653 41.824 84.5213 41.84 84.372 41.84C84.116 41.84 83.86 41.8187 83.604 41.776C83.3587 41.7333 83.108 41.696 82.852 41.664C82.7667 41.6533 82.6973 41.6693 82.644 41.712C82.6013 41.7547 82.5853 41.8187 82.596 41.904V41.984C82.628 42.528 82.6653 43.008 82.708 43.424C82.7613 43.8293 82.8093 44.208 82.852 44.56C82.9053 44.912 82.948 45.2533 82.98 45.584C83.012 45.9147 83.028 46.2667 83.028 46.64C83.028 46.7893 83.0067 46.944 82.964 47.104C82.932 47.2533 82.8627 47.3973 82.756 47.536C82.6493 47.664 82.4947 47.7707 82.292 47.856C82.1 47.9413 81.8387 47.984 81.508 47.984C81.188 47.984 80.9267 47.9467 80.724 47.872C80.5213 47.7867 80.3667 47.68 80.26 47.552C80.1533 47.424 80.0787 47.2853 80.036 47.136C80.004 46.976 79.988 46.8213 79.988 46.672C79.988 46.256 79.9987 45.8667 80.02 45.504C80.0413 45.1413 80.0627 44.7947 80.084 44.464C80.116 44.1227 80.1427 43.792 80.164 43.472C80.1853 43.1413 80.196 42.8053 80.196 42.464V42.112C80.196 41.952 80.1053 41.856 79.924 41.824C79.7 41.792 79.5187 41.696 79.38 41.536C79.2413 41.3653 79.1667 41.072 79.156 40.656C79.1453 40.208 79.22 39.904 79.38 39.744C79.54 39.584 79.748 39.4933 80.004 39.472C80.1853 39.4507 80.2867 39.36 80.308 39.2Z" fill="black"/>
</svg>
