<svg width="45" height="31" viewBox="0 0 45 31" fill="none" xmlns="http://www.w3.org/2000/svg">
<path d="M3.55094 9.48C3.5936 9.82133 3.63094 10.1733 3.66294 10.536C3.69494 10.888 3.71094 11.272 3.71094 11.688C3.71094 11.8373 3.6896 11.992 3.64694 12.152C3.60427 12.3013 3.51894 12.44 3.39094 12.568C3.2736 12.696 3.10827 12.8027 2.89494 12.888C2.69227 12.9627 2.43094 13 2.11094 13C1.78027 13 1.50827 12.9573 1.29494 12.872C1.09227 12.7867 0.932271 12.68 0.814937 12.552C0.697604 12.4133 0.617604 12.2693 0.574937 12.12C0.53227 11.96 0.510937 11.8053 0.510937 11.656C0.510937 11.2827 0.526937 10.92 0.558937 10.568C0.590937 10.216 0.62827 9.86933 0.670937 9.528C0.713604 9.176 0.750937 8.83467 0.782937 8.504C0.814937 8.16267 0.830937 7.82133 0.830937 7.48V6.52C0.830937 6.17867 0.814937 5.84267 0.782937 5.512C0.750937 5.17067 0.713604 4.82933 0.670937 4.488C0.62827 4.136 0.590937 3.784 0.558937 3.432C0.526937 3.08 0.510937 2.71733 0.510937 2.344C0.510937 2.19467 0.53227 2.04533 0.574937 1.896C0.617604 1.736 0.697604 1.592 0.814937 1.464C0.942937 1.32533 1.10827 1.21333 1.31094 1.128C1.52427 1.04267 1.79627 0.999999 2.12694 0.999999H4.20694C5.8496 0.999999 7.0976 1.34667 7.95094 2.04C8.81494 2.73333 9.24694 3.74667 9.24694 5.08C9.24694 5.72 9.1136 6.296 8.84694 6.808C8.59094 7.32 8.2336 7.752 7.77494 8.104C7.32694 8.456 6.7936 8.728 6.17494 8.92C5.56694 9.112 4.91094 9.208 4.20694 9.208H3.79094C3.6096 9.208 3.5296 9.29867 3.55094 9.48ZM4.20694 7C4.62294 7 4.9696 6.94133 5.24694 6.824C5.53494 6.70667 5.7696 6.55733 5.95094 6.376C6.13227 6.184 6.26027 5.976 6.33494 5.752C6.42027 5.51733 6.46294 5.288 6.46294 5.064C6.46294 4.84 6.43094 4.62133 6.36694 4.408C6.30294 4.19467 6.1856 4.00267 6.01494 3.832C5.84427 3.66133 5.6096 3.52267 5.31094 3.416C5.02294 3.30933 4.65494 3.256 4.20694 3.256H3.95094C3.78027 3.256 3.68427 3.34667 3.66294 3.528C3.6096 4.072 3.55094 4.57867 3.48694 5.048C3.42294 5.51733 3.39094 6.008 3.39094 6.52V6.728C3.39094 6.90933 3.4816 7 3.66294 7H4.20694ZM11.0841 6.52C11.0841 6.17867 11.0681 5.84267 11.0361 5.512C11.0041 5.17067 10.9667 4.82933 10.9241 4.488C10.8814 4.136 10.8441 3.784 10.8121 3.432C10.7801 3.08 10.7641 2.71733 10.7641 2.344C10.7641 2.09867 10.8067 1.89067 10.8921 1.72C10.9774 1.54933 11.0947 1.41067 11.2441 1.304C11.3934 1.19733 11.5694 1.12267 11.7721 1.08C11.9747 1.02667 12.1881 0.999999 12.4121 0.999999C12.7214 0.999999 12.9774 1.04267 13.1801 1.128C13.3827 1.20267 13.5427 1.304 13.6601 1.432C13.7774 1.56 13.8574 1.704 13.9001 1.864C13.9427 2.01333 13.9641 2.16267 13.9641 2.312C13.9641 2.728 13.9481 3.11733 13.9161 3.48C13.8841 3.84267 13.8467 4.19467 13.8041 4.536C13.7614 4.86667 13.7241 5.19733 13.6921 5.528C13.6601 5.848 13.6441 6.17867 13.6441 6.52V7.48C13.6441 7.82133 13.6601 8.15733 13.6921 8.488C13.7241 8.808 13.7614 9.13867 13.8041 9.48C13.8467 9.81067 13.8841 10.1573 13.9161 10.52C13.9481 10.8827 13.9641 11.272 13.9641 11.688C13.9641 11.8373 13.9427 11.992 13.9001 12.152C13.8574 12.3013 13.7774 12.44 13.6601 12.568C13.5427 12.696 13.3827 12.8027 13.1801 12.888C12.9774 12.9627 12.7214 13 12.4121 13C11.9534 13 11.5641 12.8987 11.2441 12.696C10.9241 12.4933 10.7641 12.1467 10.7641 11.656C10.7641 11.2827 10.7801 10.92 10.8121 10.568C10.8441 10.216 10.8814 9.86933 10.9241 9.528C10.9667 9.176 11.0041 8.83467 11.0361 8.504C11.0681 8.16267 11.0841 7.82133 11.0841 7.48V6.52ZM18.9721 10.104C19.0361 10.1147 19.1054 10.12 19.1801 10.12C19.2547 10.12 19.3347 10.12 19.4201 10.12C19.7614 10.12 20.0334 10.104 20.2361 10.072C20.4387 10.04 20.6094 10.0027 20.7481 9.96C20.8974 9.91733 21.0414 9.88 21.1801 9.848C21.3187 9.816 21.4947 9.8 21.7081 9.8C21.8574 9.8 22.0067 9.82133 22.1561 9.864C22.3161 9.90667 22.4601 9.992 22.5881 10.12C22.7161 10.2373 22.8174 10.4027 22.8921 10.616C22.9774 10.8187 23.0201 11.08 23.0201 11.4C23.0201 11.7307 22.9774 12.0027 22.8921 12.216C22.8067 12.4187 22.6947 12.5787 22.5561 12.696C22.4281 12.8133 22.2841 12.8933 22.1241 12.936C21.9747 12.9787 21.8254 13 21.6761 13C21.5054 13 21.3561 12.984 21.2281 12.952C21.1001 12.92 20.9561 12.8827 20.7961 12.84C20.6467 12.7973 20.4654 12.76 20.2521 12.728C20.0387 12.696 19.7614 12.68 19.4201 12.68C19.1001 12.68 18.8387 12.696 18.6361 12.728C18.4334 12.7493 18.2574 12.7813 18.1081 12.824C17.8734 12.9413 17.5587 13 17.1641 13C16.7161 13 16.3374 12.8987 16.0281 12.696C15.7187 12.4827 15.5641 12.136 15.5641 11.656C15.5641 11.2827 15.5801 10.92 15.6121 10.568C15.6441 10.216 15.6814 9.86933 15.7241 9.528C15.7667 9.176 15.8041 8.83467 15.8361 8.504C15.8681 8.16267 15.8841 7.82133 15.8841 7.48V6.52C15.8841 6.17867 15.8681 5.84267 15.8361 5.512C15.8041 5.17067 15.7667 4.82933 15.7241 4.488C15.6814 4.136 15.6441 3.784 15.6121 3.432C15.5801 3.08 15.5641 2.71733 15.5641 2.344C15.5641 2.216 15.5801 2.08267 15.6121 1.944C15.6441 1.79467 15.7027 1.66133 15.7881 1.544C15.8841 1.42667 16.0067 1.32 16.1561 1.224C16.3161 1.128 16.5187 1.064 16.7641 1.032C16.8281 1.01067 16.8921 0.999999 16.9561 0.999999C17.0307 0.999999 17.1001 0.999999 17.1641 0.999999C17.4841 0.999999 17.7561 1.04267 17.9801 1.128C18.1401 1.18133 18.3214 1.22933 18.5241 1.272C18.7374 1.304 19.0467 1.32 19.4521 1.32C19.7934 1.32 20.0654 1.304 20.2681 1.272C20.4707 1.24 20.6414 1.20267 20.7801 1.16C20.9294 1.11733 21.0734 1.08 21.2121 1.048C21.3507 1.016 21.5267 0.999999 21.7401 0.999999C21.8894 0.999999 22.0387 1.016 22.1881 1.048C22.3481 1.06933 22.4921 1.13333 22.6201 1.24C22.7481 1.336 22.8494 1.48 22.9241 1.672C23.0094 1.864 23.0521 2.12 23.0521 2.44C23.0521 2.77067 23.0094 3.032 22.9241 3.224C22.8387 3.416 22.7267 3.56 22.5881 3.656C22.4601 3.752 22.3161 3.816 22.1561 3.848C22.0067 3.86933 21.8574 3.88 21.7081 3.88C21.5374 3.88 21.3881 3.864 21.2601 3.832C21.1321 3.8 20.9881 3.76267 20.8281 3.72C20.6787 3.67733 20.4974 3.64 20.2841 3.608C20.0707 3.576 19.7934 3.56 19.4521 3.56C19.3667 3.56 19.2867 3.56533 19.2121 3.576C19.1374 3.576 19.0681 3.576 19.0041 3.576C18.8014 3.59733 18.6894 3.704 18.6681 3.896C18.6467 4.14133 18.6201 4.38133 18.5881 4.616C18.5667 4.85067 18.5454 5.08533 18.5241 5.32C18.5027 5.53333 18.5934 5.64 18.7961 5.64H18.9721C19.3134 5.64 19.5854 5.624 19.7881 5.592C19.9907 5.56 20.1614 5.52267 20.3001 5.48C20.4494 5.43733 20.5934 5.4 20.7321 5.368C20.8707 5.336 21.0467 5.32 21.2601 5.32C21.4094 5.32 21.5587 5.34133 21.7081 5.384C21.8681 5.416 22.0121 5.48533 22.1401 5.592C22.2681 5.69867 22.3694 5.85333 22.4441 6.056C22.5294 6.25867 22.5721 6.52 22.5721 6.84C22.5721 7.17067 22.5294 7.43733 22.4441 7.64C22.3587 7.832 22.2467 7.98133 22.1081 8.088C21.9801 8.19467 21.8361 8.26933 21.6761 8.312C21.5267 8.344 21.3774 8.36 21.2281 8.36C21.0574 8.36 20.9081 8.344 20.7801 8.312C20.6521 8.28 20.5081 8.24267 20.3481 8.2C20.1987 8.15733 20.0174 8.12 19.8041 8.088C19.5907 8.056 19.3134 8.04 18.9721 8.04H18.7641C18.6787 8.04 18.6041 8.072 18.5401 8.136C18.4867 8.18933 18.4654 8.264 18.4761 8.36C18.4974 8.59467 18.5187 8.82933 18.5401 9.064C18.5721 9.288 18.6041 9.52267 18.6361 9.768C18.6574 9.97067 18.7694 10.0827 18.9721 10.104ZM29.2068 10.12C29.5588 10.12 29.8415 10.104 30.0548 10.072C30.2788 10.04 30.4761 10.0027 30.6468 9.96C30.8175 9.91733 30.9775 9.88 31.1268 9.848C31.2761 9.816 31.4628 9.8 31.6868 9.8C31.8361 9.8 31.9908 9.82133 32.1508 9.864C32.3108 9.90667 32.4548 9.992 32.5828 10.12C32.7108 10.2373 32.8121 10.4027 32.8868 10.616C32.9721 10.8187 33.0148 11.08 33.0148 11.4C33.0148 11.7307 32.9721 12.0027 32.8868 12.216C32.8015 12.4187 32.6895 12.5787 32.5508 12.696C32.4228 12.8133 32.2788 12.8933 32.1188 12.936C31.9695 12.9787 31.8201 13 31.6708 13C31.4895 13 31.3241 12.984 31.1748 12.952C31.0255 12.92 30.8601 12.888 30.6788 12.856C30.5081 12.824 30.3055 12.792 30.0708 12.76C29.8468 12.728 29.5588 12.712 29.2068 12.712H28.3268C27.9748 12.712 27.6815 12.728 27.4468 12.76C27.2228 12.792 27.0201 12.824 26.8388 12.856C26.6681 12.888 26.5081 12.92 26.3588 12.952C26.2201 12.984 26.0601 13 25.8788 13C25.7295 13 25.5748 12.9787 25.4148 12.936C25.2548 12.8933 25.1055 12.8133 24.9668 12.696C24.8388 12.5787 24.7321 12.4187 24.6468 12.216C24.5615 12.0027 24.5188 11.7307 24.5188 11.4C24.5188 11.1867 24.5295 11.0107 24.5508 10.872C24.5828 10.7333 24.6255 10.6107 24.6788 10.504C24.7321 10.3973 24.7908 10.3013 24.8548 10.216C24.9295 10.1307 25.0041 10.04 25.0788 9.944C25.4735 9.42133 25.8468 8.92533 26.1988 8.456C26.5508 7.98667 26.8761 7.49067 27.1748 6.968L27.7348 6.04C27.9481 5.66667 28.1295 5.29867 28.2788 4.936C28.4388 4.57333 28.6041 4.2 28.7748 3.816C28.8388 3.64533 28.7855 3.56 28.6148 3.56H28.3588C28.0068 3.56 27.7241 3.576 27.5108 3.608C27.2975 3.64 27.1108 3.67733 26.9508 3.72C26.8015 3.76267 26.6628 3.8 26.5348 3.832C26.4068 3.864 26.2521 3.88 26.0708 3.88C25.9215 3.88 25.7668 3.86933 25.6068 3.848C25.4468 3.816 25.3028 3.752 25.1748 3.656C25.0468 3.56 24.9348 3.416 24.8388 3.224C24.7535 3.032 24.7108 2.77067 24.7108 2.44C24.7108 2.12 24.7481 1.864 24.8228 1.672C24.9081 1.48 25.0148 1.336 25.1428 1.24C25.2708 1.13333 25.4148 1.06933 25.5748 1.048C25.7348 1.016 25.8895 0.999999 26.0388 0.999999C26.2521 0.999999 26.4281 1.016 26.5668 1.048C26.7055 1.06933 26.8495 1.10133 26.9988 1.144C27.1481 1.176 27.3241 1.208 27.5268 1.24C27.7295 1.26133 28.0068 1.272 28.3588 1.272H28.7588C29.0468 1.272 29.2815 1.26133 29.4628 1.24C29.6548 1.21867 29.8201 1.19733 29.9588 1.176C30.0975 1.144 30.2201 1.112 30.3268 1.08C30.4441 1.048 30.5721 1.02667 30.7108 1.016C30.8815 0.962667 31.0628 0.946666 31.2548 0.967999C31.4575 0.989333 31.6815 1.05867 31.9268 1.176C32.2148 1.31467 32.4281 1.46933 32.5668 1.64C32.7161 1.8 32.8068 1.96533 32.8388 2.136C32.8708 2.30667 32.8655 2.47733 32.8228 2.648C32.7801 2.808 32.7161 2.96267 32.6308 3.112C32.4175 3.48533 32.1935 3.83733 31.9588 4.168C31.7348 4.49867 31.5055 4.824 31.2708 5.144C31.0468 5.45333 30.8281 5.76267 30.6148 6.072C30.4015 6.38133 30.1988 6.70667 30.0068 7.048L29.4788 7.976C29.2975 8.28533 29.1321 8.6 28.9828 8.92C28.8441 9.22933 28.7001 9.544 28.5508 9.864C28.4868 10.0347 28.5401 10.12 28.7108 10.12H29.2068ZM34.4747 7C34.4747 6.17867 34.5814 5.4 34.7947 4.664C35.008 3.91733 35.328 3.26133 35.7547 2.696C36.1814 2.13067 36.7094 1.68267 37.3387 1.352C37.968 1.01067 38.6987 0.839999 39.5307 0.839999C40.352 0.839999 41.072 1.01067 41.6907 1.352C42.32 1.68267 42.848 2.13067 43.2747 2.696C43.7014 3.26133 44.0214 3.91733 44.2347 4.664C44.4587 5.4 44.5707 6.17867 44.5707 7C44.5707 7.96 44.4694 8.824 44.2667 9.592C44.0747 10.3493 43.7707 10.9947 43.3547 11.528C42.9387 12.0507 42.4107 12.456 41.7707 12.744C41.1414 13.0213 40.3947 13.16 39.5307 13.16C38.656 13.16 37.8987 13.0213 37.2587 12.744C36.6294 12.456 36.1067 12.0507 35.6907 11.528C35.2747 10.9947 34.9654 10.3493 34.7627 9.592C34.5707 8.824 34.4747 7.96 34.4747 7ZM37.2747 6.984C37.2747 7.528 37.312 8.024 37.3867 8.472C37.472 8.90933 37.6054 9.28267 37.7867 9.592C37.968 9.90133 38.1974 10.1413 38.4747 10.312C38.7627 10.4827 39.1147 10.568 39.5307 10.568C39.9467 10.568 40.2934 10.4827 40.5707 10.312C40.8587 10.1413 41.0934 9.90133 41.2747 9.592C41.456 9.28267 41.584 8.90933 41.6587 8.472C41.744 8.024 41.7867 7.528 41.7867 6.984C41.7867 6.44 41.7547 5.93333 41.6907 5.464C41.6267 4.99467 41.5094 4.584 41.3387 4.232C41.168 3.88 40.9334 3.60267 40.6347 3.4C40.3467 3.19733 39.9787 3.096 39.5307 3.096C39.0827 3.096 38.7094 3.19733 38.4107 3.4C38.1227 3.60267 37.8934 3.88 37.7227 4.232C37.552 4.584 37.4347 4.99467 37.3707 5.464C37.3067 5.93333 37.2747 6.44 37.2747 6.984ZM16.1013 24.52C16.1013 24.1787 16.0853 23.8427 16.0533 23.512C16.0213 23.1707 15.9839 22.8293 15.9413 22.488C15.8986 22.136 15.8613 21.784 15.8293 21.432C15.7973 21.08 15.7813 20.7173 15.7813 20.344C15.7813 20.0987 15.8239 19.8907 15.9093 19.72C15.9946 19.5493 16.1119 19.4107 16.2613 19.304C16.4106 19.1973 16.5866 19.1227 16.7893 19.08C16.9919 19.0267 17.2053 19 17.4293 19C17.7386 19 17.9946 19.0427 18.1973 19.128C18.3999 19.2027 18.5599 19.304 18.6773 19.432C18.7946 19.56 18.8746 19.704 18.9173 19.864C18.9599 20.0133 18.9813 20.1627 18.9813 20.312C18.9813 20.728 18.9653 21.1173 18.9333 21.48C18.9013 21.8427 18.8639 22.1947 18.8213 22.536C18.7786 22.8667 18.7413 23.1973 18.7093 23.528C18.6773 23.848 18.6613 24.1787 18.6613 24.52V25.48C18.6613 25.8213 18.6773 26.1573 18.7093 26.488C18.7413 26.808 18.7786 27.1387 18.8213 27.48C18.8639 27.8107 18.9013 28.1573 18.9333 28.52C18.9653 28.8827 18.9813 29.272 18.9813 29.688C18.9813 29.8373 18.9599 29.992 18.9173 30.152C18.8746 30.3013 18.7946 30.44 18.6773 30.568C18.5599 30.696 18.3999 30.8027 18.1973 30.888C17.9946 30.9627 17.7386 31 17.4293 31C16.9706 31 16.5813 30.8987 16.2613 30.696C15.9413 30.4933 15.7813 30.1467 15.7813 29.656C15.7813 29.2827 15.7973 28.92 15.8293 28.568C15.8613 28.216 15.8986 27.8693 15.9413 27.528C15.9839 27.176 16.0213 26.8347 16.0533 26.504C16.0853 26.1627 16.1013 25.8213 16.1013 25.48V24.52ZM26.3573 30.408C26.2826 30.3013 26.2399 30.2 26.2293 30.104L23.4453 24.28C23.4026 24.1947 23.3653 24.1573 23.3333 24.168C23.3119 24.168 23.3013 24.216 23.3013 24.312V24.52V25C23.3013 25.3413 23.3226 25.704 23.3653 26.088C23.4186 26.4613 23.4773 26.8453 23.5413 27.24C23.6053 27.6347 23.6586 28.04 23.7013 28.456C23.7546 28.8613 23.7813 29.272 23.7813 29.688C23.7813 29.8373 23.7546 29.992 23.7013 30.152C23.6479 30.3013 23.5573 30.44 23.4293 30.568C23.3013 30.696 23.1253 30.8027 22.9013 30.888C22.6879 30.9627 22.4213 31 22.1013 31C21.7706 31 21.5039 30.9573 21.3013 30.872C21.1093 30.7867 20.9599 30.68 20.8533 30.552C20.7466 30.4133 20.6719 30.2693 20.6293 30.12C20.5973 29.96 20.5813 29.8053 20.5813 29.656C20.5813 29.2827 20.5973 28.92 20.6293 28.568C20.6613 28.216 20.6986 27.8693 20.7413 27.528C20.7839 27.176 20.8213 26.8347 20.8533 26.504C20.8853 26.1627 20.9013 25.8213 20.9013 25.48V24.52C20.9013 24.1787 20.8853 23.8427 20.8533 23.512C20.8213 23.1707 20.7839 22.8293 20.7413 22.488C20.6986 22.136 20.6613 21.784 20.6293 21.432C20.5973 21.08 20.5813 20.7173 20.5813 20.344C20.5813 20.1947 20.5973 20.0453 20.6293 19.896C20.6719 19.736 20.7466 19.592 20.8533 19.464C20.9599 19.3253 21.1093 19.2133 21.3013 19.128C21.5039 19.0427 21.7706 19 22.1013 19H22.7733C22.9866 19 23.1839 19.0587 23.3653 19.176C23.5466 19.2827 23.6799 19.4267 23.7653 19.608L26.3573 24.888C26.3999 24.9733 26.4319 25.016 26.4533 25.016C26.4853 25.0053 26.5013 24.952 26.5013 24.856V24.52C26.5013 24.1787 26.4746 23.8427 26.4213 23.512C26.3786 23.1707 26.3253 22.8293 26.2613 22.488C26.1973 22.136 26.1386 21.784 26.0853 21.432C26.0426 21.08 26.0213 20.7173 26.0213 20.344C26.0213 20.1947 26.0479 20.0453 26.1013 19.896C26.1546 19.736 26.2453 19.592 26.3733 19.464C26.5013 19.3253 26.6719 19.2133 26.8853 19.128C27.0986 19.0427 27.3706 19 27.7013 19C28.0213 19 28.2826 19.0427 28.4853 19.128C28.6879 19.2027 28.8426 19.304 28.9493 19.432C29.0559 19.56 29.1253 19.704 29.1573 19.864C29.1999 20.0133 29.2213 20.1627 29.2213 20.312C29.2213 20.728 29.2053 21.1173 29.1733 21.48C29.1413 21.8427 29.1039 22.1947 29.0613 22.536C29.0186 22.8667 28.9813 23.1973 28.9493 23.528C28.9173 23.848 28.9013 24.1787 28.9013 24.52V25.48C28.9013 25.8213 28.9173 26.1573 28.9493 26.488C28.9813 26.808 29.0186 27.1387 29.0613 27.48C29.1039 27.8107 29.1413 28.1573 29.1733 28.52C29.2053 28.8827 29.2213 29.272 29.2213 29.688C29.2213 29.8267 29.2053 29.9707 29.1733 30.12C29.1413 30.2693 29.0719 30.408 28.9653 30.536C28.8693 30.664 28.7306 30.7707 28.5493 30.856C28.3786 30.9413 28.1493 30.9893 27.8613 31H27.3173C27.1359 31 26.9599 30.9467 26.7893 30.84C26.6186 30.7333 26.4746 30.5893 26.3573 30.408Z" fill="black"/>
</svg>
