<svg width="38" height="25" viewBox="0 0 38 25" fill="none" xmlns="http://www.w3.org/2000/svg">
<path d="M2.95389 7.14C2.98855 7.41733 3.01889 7.70333 3.04489 7.998C3.07089 8.284 3.08389 8.596 3.08389 8.934C3.08389 9.05533 3.06655 9.181 3.03189 9.311C2.99722 9.43233 2.92789 9.545 2.82389 9.649C2.72855 9.753 2.59422 9.83967 2.42089 9.909C2.25622 9.96967 2.04389 10 1.78389 10C1.51522 10 1.29422 9.96533 1.12089 9.896C0.956219 9.82667 0.826219 9.74 0.730886 9.636C0.635553 9.52333 0.570553 9.40633 0.535886 9.285C0.501219 9.155 0.483886 9.02933 0.483886 8.908C0.483886 8.60467 0.496886 8.31 0.522886 8.024C0.548886 7.738 0.579219 7.45633 0.613886 7.179C0.648553 6.893 0.678886 6.61567 0.704886 6.347C0.730886 6.06967 0.743886 5.79233 0.743886 5.515V4.735C0.743886 4.45767 0.730886 4.18467 0.704886 3.916C0.678886 3.63867 0.648553 3.36133 0.613886 3.084C0.579219 2.798 0.548886 2.512 0.522886 2.226C0.496886 1.94 0.483886 1.64533 0.483886 1.342C0.483886 1.22067 0.501219 1.09933 0.535886 0.978C0.570553 0.848 0.635553 0.730999 0.730886 0.627C0.834886 0.514333 0.969219 0.423333 1.13389 0.353999C1.30722 0.284666 1.52822 0.249999 1.79689 0.249999H3.48689C4.82155 0.249999 5.83555 0.531666 6.52889 1.095C7.23089 1.65833 7.58189 2.48167 7.58189 3.565C7.58189 4.085 7.47355 4.553 7.25689 4.969C7.04889 5.385 6.75855 5.736 6.38589 6.022C6.02189 6.308 5.58855 6.529 5.08589 6.685C4.59189 6.841 4.05889 6.919 3.48689 6.919H3.14889C3.00155 6.919 2.93655 6.99267 2.95389 7.14ZM3.48689 5.125C3.82489 5.125 4.10655 5.07733 4.33189 4.982C4.56589 4.88667 4.75655 4.76533 4.90389 4.618C5.05122 4.462 5.15522 4.293 5.21589 4.111C5.28522 3.92033 5.31989 3.734 5.31989 3.552C5.31989 3.37 5.29389 3.19233 5.24189 3.019C5.18989 2.84567 5.09455 2.68967 4.95589 2.551C4.81722 2.41233 4.62655 2.29967 4.38389 2.213C4.14989 2.12633 3.85089 2.083 3.48689 2.083H3.27889C3.14022 2.083 3.06222 2.15667 3.04489 2.304C3.00155 2.746 2.95389 3.15767 2.90189 3.539C2.84989 3.92033 2.82389 4.319 2.82389 4.735V4.904C2.82389 5.05133 2.89755 5.125 3.04489 5.125H3.48689ZM9.39955 4.735C9.39955 4.45767 9.38655 4.18467 9.36055 3.916C9.33455 3.63867 9.30422 3.36133 9.26955 3.084C9.23488 2.798 9.20455 2.512 9.17855 2.226C9.15255 1.94 9.13955 1.64533 9.13955 1.342C9.13955 1.14267 9.17422 0.973666 9.24355 0.834999C9.31288 0.696333 9.40822 0.583667 9.52955 0.497C9.65088 0.410333 9.79388 0.349666 9.95855 0.314999C10.1232 0.271666 10.2966 0.249999 10.4786 0.249999C10.7299 0.249999 10.9379 0.284666 11.1026 0.353999C11.2672 0.414666 11.3972 0.497 11.4926 0.600999C11.5879 0.705 11.6529 0.822 11.6876 0.951999C11.7222 1.07333 11.7396 1.19467 11.7396 1.316C11.7396 1.654 11.7266 1.97033 11.7006 2.265C11.6746 2.55967 11.6442 2.84567 11.6096 3.123C11.5749 3.39167 11.5446 3.66033 11.5186 3.929C11.4926 4.189 11.4796 4.45767 11.4796 4.735V5.515C11.4796 5.79233 11.4926 6.06533 11.5186 6.334C11.5446 6.594 11.5749 6.86267 11.6096 7.14C11.6442 7.40867 11.6746 7.69033 11.7006 7.985C11.7266 8.27967 11.7396 8.596 11.7396 8.934C11.7396 9.05533 11.7222 9.181 11.6876 9.311C11.6529 9.43233 11.5879 9.545 11.4926 9.649C11.3972 9.753 11.2672 9.83967 11.1026 9.909C10.9379 9.96967 10.7299 10 10.4786 10C10.1059 10 9.78955 9.91767 9.52955 9.753C9.26955 9.58833 9.13955 9.30667 9.13955 8.908C9.13955 8.60467 9.15255 8.31 9.17855 8.024C9.20455 7.738 9.23488 7.45633 9.26955 7.179C9.30422 6.893 9.33455 6.61567 9.36055 6.347C9.38655 6.06967 9.39955 5.79233 9.39955 5.515V4.735ZM16.1335 7.647C16.1856 7.65567 16.2419 7.66 16.3026 7.66C16.3632 7.66 16.4282 7.66 16.4975 7.66C16.7749 7.66 16.9959 7.647 17.1605 7.621C17.3252 7.595 17.4639 7.56467 17.5765 7.53C17.6979 7.49533 17.8149 7.465 17.9276 7.439C18.0402 7.413 18.1832 7.4 18.3565 7.4C18.4779 7.4 18.5992 7.41733 18.7205 7.452C18.8506 7.48667 18.9676 7.556 19.0716 7.66C19.1755 7.75533 19.2579 7.88967 19.3185 8.063C19.3879 8.22767 19.4226 8.44 19.4226 8.7C19.4226 8.96867 19.3879 9.18967 19.3185 9.363C19.2492 9.52767 19.1582 9.65767 19.0455 9.753C18.9416 9.84833 18.8246 9.91333 18.6946 9.948C18.5732 9.98267 18.4519 10 18.3305 10C18.1919 10 18.0706 9.987 17.9665 9.961C17.8625 9.935 17.7456 9.90467 17.6156 9.87C17.4942 9.83533 17.3469 9.805 17.1736 9.779C17.0002 9.753 16.7749 9.74 16.4975 9.74C16.2375 9.74 16.0252 9.753 15.8605 9.779C15.6959 9.79633 15.5529 9.82233 15.4316 9.857C15.2409 9.95233 14.9852 10 14.6645 10C14.3005 10 13.9929 9.91767 13.7415 9.753C13.4902 9.57967 13.3645 9.298 13.3645 8.908C13.3645 8.60467 13.3775 8.31 13.4035 8.024C13.4295 7.738 13.4599 7.45633 13.4945 7.179C13.5292 6.893 13.5595 6.61567 13.5855 6.347C13.6115 6.06967 13.6245 5.79233 13.6245 5.515V4.735C13.6245 4.45767 13.6115 4.18467 13.5855 3.916C13.5595 3.63867 13.5292 3.36133 13.4945 3.084C13.4599 2.798 13.4295 2.512 13.4035 2.226C13.3775 1.94 13.3645 1.64533 13.3645 1.342C13.3645 1.238 13.3775 1.12967 13.4035 1.017C13.4295 0.895666 13.4772 0.787333 13.5465 0.692C13.6245 0.596666 13.7242 0.509999 13.8455 0.431999C13.9755 0.353999 14.1402 0.301999 14.3395 0.276C14.3915 0.258666 14.4435 0.249999 14.4955 0.249999C14.5562 0.249999 14.6125 0.249999 14.6645 0.249999C14.9245 0.249999 15.1455 0.284666 15.3276 0.353999C15.4576 0.397333 15.6049 0.436333 15.7695 0.470999C15.9429 0.497 16.1942 0.51 16.5235 0.51C16.8009 0.51 17.0219 0.497 17.1865 0.470999C17.3512 0.444999 17.4899 0.414666 17.6025 0.38C17.7239 0.345333 17.8409 0.315 17.9536 0.288999C18.0662 0.262999 18.2092 0.249999 18.3826 0.249999C18.5039 0.249999 18.6252 0.262999 18.7465 0.288999C18.8766 0.306333 18.9936 0.358333 19.0976 0.445C19.2016 0.523 19.2839 0.64 19.3446 0.796C19.4139 0.951999 19.4486 1.16 19.4486 1.42C19.4486 1.68867 19.4139 1.901 19.3446 2.057C19.2752 2.213 19.1842 2.33 19.0716 2.408C18.9676 2.486 18.8506 2.538 18.7205 2.564C18.5992 2.58133 18.4779 2.59 18.3565 2.59C18.2179 2.59 18.0965 2.577 17.9925 2.551C17.8886 2.525 17.7715 2.49467 17.6415 2.46C17.5202 2.42533 17.3729 2.395 17.1996 2.369C17.0262 2.343 16.8009 2.33 16.5235 2.33C16.4542 2.33 16.3892 2.33433 16.3286 2.343C16.2679 2.343 16.2115 2.343 16.1595 2.343C15.9949 2.36033 15.9039 2.447 15.8865 2.603C15.8692 2.80233 15.8475 2.99733 15.8216 3.188C15.8042 3.37867 15.7869 3.56933 15.7695 3.76C15.7522 3.93333 15.8259 4.02 15.9905 4.02H16.1335C16.4109 4.02 16.6319 4.007 16.7965 3.981C16.9612 3.955 17.0999 3.92467 17.2125 3.89C17.3339 3.85533 17.4509 3.825 17.5636 3.799C17.6762 3.773 17.8192 3.76 17.9925 3.76C18.1139 3.76 18.2352 3.77733 18.3565 3.812C18.4866 3.838 18.6036 3.89433 18.7076 3.981C18.8116 4.06767 18.8939 4.19333 18.9545 4.358C19.0239 4.52267 19.0586 4.735 19.0586 4.995C19.0586 5.26367 19.0239 5.48033 18.9545 5.645C18.8852 5.801 18.7942 5.92233 18.6816 6.009C18.5776 6.09567 18.4606 6.15633 18.3305 6.191C18.2092 6.217 18.0879 6.23 17.9665 6.23C17.8279 6.23 17.7065 6.217 17.6025 6.191C17.4986 6.165 17.3815 6.13467 17.2515 6.1C17.1302 6.06533 16.9829 6.035 16.8096 6.009C16.6362 5.983 16.4109 5.97 16.1335 5.97H15.9645C15.8952 5.97 15.8345 5.996 15.7825 6.048C15.7392 6.09133 15.7219 6.152 15.7306 6.23C15.7479 6.42067 15.7652 6.61133 15.7825 6.802C15.8086 6.984 15.8346 7.17467 15.8605 7.374C15.8779 7.53867 15.9689 7.62967 16.1335 7.647ZM24.7743 7.66C25.0603 7.66 25.29 7.647 25.4633 7.621C25.6453 7.595 25.8056 7.56467 25.9443 7.53C26.083 7.49533 26.213 7.465 26.3343 7.439C26.4556 7.413 26.6073 7.4 26.7893 7.4C26.9106 7.4 27.0363 7.41733 27.1663 7.452C27.2963 7.48667 27.4133 7.556 27.5173 7.66C27.6213 7.75533 27.7036 7.88967 27.7643 8.063C27.8336 8.22767 27.8683 8.44 27.8683 8.7C27.8683 8.96867 27.8336 9.18967 27.7643 9.363C27.695 9.52767 27.604 9.65767 27.4913 9.753C27.3873 9.84833 27.2703 9.91333 27.1403 9.948C27.019 9.98267 26.8976 10 26.7763 10C26.629 10 26.4946 9.987 26.3733 9.961C26.252 9.935 26.1176 9.909 25.9703 9.883C25.8316 9.857 25.667 9.831 25.4763 9.805C25.2943 9.779 25.0603 9.766 24.7743 9.766H24.0593C23.7733 9.766 23.535 9.779 23.3443 9.805C23.1623 9.831 22.9976 9.857 22.8503 9.883C22.7116 9.909 22.5816 9.935 22.4603 9.961C22.3476 9.987 22.2176 10 22.0703 10C21.949 10 21.8233 9.98267 21.6933 9.948C21.5633 9.91333 21.442 9.84833 21.3293 9.753C21.2253 9.65767 21.1386 9.52767 21.0693 9.363C21 9.18967 20.9653 8.96867 20.9653 8.7C20.9653 8.52667 20.974 8.38367 20.9913 8.271C21.0173 8.15833 21.052 8.05867 21.0953 7.972C21.1386 7.88533 21.1863 7.80733 21.2383 7.738C21.299 7.66867 21.3596 7.595 21.4203 7.517C21.741 7.09233 22.0443 6.68933 22.3303 6.308C22.6163 5.92667 22.8806 5.52367 23.1233 5.099L23.5783 4.345C23.7516 4.04167 23.899 3.74267 24.0203 3.448C24.1503 3.15333 24.2846 2.85 24.4233 2.538C24.4753 2.39933 24.432 2.33 24.2933 2.33H24.0853C23.7993 2.33 23.5696 2.343 23.3963 2.369C23.223 2.395 23.0713 2.42533 22.9413 2.46C22.82 2.49467 22.7073 2.525 22.6033 2.551C22.4993 2.577 22.3736 2.59 22.2263 2.59C22.105 2.59 21.9793 2.58133 21.8493 2.564C21.7193 2.538 21.6023 2.486 21.4983 2.408C21.3943 2.33 21.3033 2.213 21.2253 2.057C21.156 1.901 21.1213 1.68867 21.1213 1.42C21.1213 1.16 21.1516 0.951999 21.2123 0.796C21.2816 0.64 21.3683 0.523 21.4723 0.445C21.5763 0.358333 21.6933 0.306333 21.8233 0.288999C21.9533 0.262999 22.079 0.249999 22.2003 0.249999C22.3736 0.249999 22.5166 0.262999 22.6293 0.288999C22.742 0.306333 22.859 0.332333 22.9803 0.366999C23.1016 0.392999 23.2446 0.419 23.4093 0.445C23.574 0.462333 23.7993 0.470999 24.0853 0.470999H24.4103C24.6443 0.470999 24.835 0.462333 24.9823 0.445C25.1383 0.427666 25.2726 0.410333 25.3853 0.393C25.498 0.367 25.5976 0.340999 25.6843 0.314999C25.7796 0.288999 25.8836 0.271666 25.9963 0.263C26.135 0.219667 26.2823 0.206666 26.4383 0.224C26.603 0.241333 26.785 0.297666 26.9843 0.393C27.2183 0.505666 27.3916 0.631333 27.5043 0.77C27.6256 0.899999 27.6993 1.03433 27.7253 1.173C27.7513 1.31167 27.747 1.45033 27.7123 1.589C27.6776 1.719 27.6256 1.84467 27.5563 1.966C27.383 2.26933 27.201 2.55533 27.0103 2.824C26.8283 3.09267 26.642 3.357 26.4513 3.617C26.2693 3.86833 26.0916 4.11967 25.9183 4.371C25.745 4.62233 25.5803 4.88667 25.4243 5.164L24.9953 5.918C24.848 6.16933 24.7136 6.425 24.5923 6.685C24.4796 6.93633 24.3626 7.192 24.2413 7.452C24.1893 7.59067 24.2326 7.66 24.3713 7.66H24.7743ZM29.3794 5.125C29.3794 4.45767 29.4661 3.825 29.6394 3.227C29.8128 2.62033 30.0728 2.08733 30.4194 1.628C30.7661 1.16867 31.1951 0.804666 31.7064 0.535999C32.2178 0.258666 32.8114 0.119999 33.4874 0.119999C34.1548 0.119999 34.7398 0.258666 35.2424 0.535999C35.7538 0.804666 36.1828 1.16867 36.5294 1.628C36.8761 2.08733 37.1361 2.62033 37.3094 3.227C37.4914 3.825 37.5824 4.45767 37.5824 5.125C37.5824 5.905 37.5001 6.607 37.3354 7.231C37.1794 7.84633 36.9324 8.37067 36.5944 8.804C36.2564 9.22867 35.8274 9.558 35.3074 9.792C34.7961 10.0173 34.1894 10.13 33.4874 10.13C32.7768 10.13 32.1614 10.0173 31.6414 9.792C31.1301 9.558 30.7054 9.22867 30.3674 8.804C30.0294 8.37067 29.7781 7.84633 29.6134 7.231C29.4574 6.607 29.3794 5.905 29.3794 5.125ZM31.6544 5.112C31.6544 5.554 31.6848 5.957 31.7454 6.321C31.8148 6.67633 31.9231 6.97967 32.0704 7.231C32.2178 7.48233 32.4041 7.67733 32.6294 7.816C32.8634 7.95467 33.1494 8.024 33.4874 8.024C33.8254 8.024 34.1071 7.95467 34.3324 7.816C34.5664 7.67733 34.7571 7.48233 34.9044 7.231C35.0518 6.97967 35.1558 6.67633 35.2164 6.321C35.2858 5.957 35.3204 5.554 35.3204 5.112C35.3204 4.67 35.2944 4.25833 35.2424 3.877C35.1904 3.49567 35.0951 3.162 34.9564 2.876C34.8178 2.59 34.6271 2.36467 34.3844 2.2C34.1504 2.03533 33.8514 1.953 33.4874 1.953C33.1234 1.953 32.8201 2.03533 32.5774 2.2C32.3434 2.36467 32.1571 2.59 32.0184 2.876C31.8798 3.162 31.7844 3.49567 31.7324 3.877C31.6804 4.25833 31.6544 4.67 31.6544 5.112ZM8.89022 20.061C8.73422 20.1043 8.59555 20.1433 8.47422 20.178C8.36155 20.204 8.22288 20.217 8.05822 20.217C7.93688 20.217 7.81122 20.204 7.68122 20.178C7.55988 20.1433 7.44288 20.0827 7.33022 19.996C7.22622 19.9093 7.13955 19.788 7.07022 19.632C7.00088 19.4673 6.96622 19.2507 6.96622 18.982C6.96622 18.722 6.99655 18.5097 7.05722 18.345C7.12655 18.1803 7.21322 18.0547 7.31722 17.968C7.42122 17.8813 7.53388 17.825 7.65522 17.799C7.78522 17.7643 7.91088 17.747 8.03222 17.747C8.20555 17.747 8.34422 17.76 8.44822 17.786C8.55222 17.812 8.64322 17.8423 8.72122 17.877C8.79922 17.9117 8.87722 17.942 8.95522 17.968C9.03322 17.994 9.12855 18.007 9.24122 18.007C9.44055 18.007 9.60955 18.0027 9.74822 17.994C9.88688 17.9767 10.0125 17.9593 10.1252 17.942C10.2379 17.916 10.3375 17.8987 10.4242 17.89C10.5109 17.8727 10.5975 17.864 10.6842 17.864C10.8402 17.864 11.0049 17.8987 11.1782 17.968C11.3429 18.0373 11.4382 18.15 11.4642 18.306C11.4902 18.462 11.4859 18.6483 11.4512 18.865C11.4252 19.0817 11.3862 19.3243 11.3342 19.593C11.2909 19.853 11.2735 20.126 11.2822 20.412C11.3255 20.8193 11.3689 21.2267 11.4122 21.634C11.4642 22.0327 11.4902 22.4573 11.4902 22.908C11.4902 23.0293 11.4729 23.155 11.4382 23.285C11.4035 23.4063 11.3385 23.5233 11.2432 23.636C11.1479 23.74 11.0135 23.8267 10.8402 23.896C10.6755 23.9653 10.4589 24 10.1902 24C9.94755 24 9.74388 23.974 9.57922 23.922C9.41455 23.87 9.28455 23.7963 9.18922 23.701C9.03322 23.831 8.84255 23.935 8.61722 24.013C8.40055 24.091 8.12755 24.13 7.79822 24.13C7.12222 24.13 6.54588 24.0173 6.06922 23.792C5.60122 23.558 5.21988 23.2287 4.92522 22.804C4.63055 22.3707 4.41388 21.8463 4.27522 21.231C4.14522 20.607 4.08022 19.905 4.08022 19.125C4.08022 18.4577 4.15822 17.825 4.31422 17.227C4.47888 16.6203 4.73022 16.0873 5.06822 15.628C5.40622 15.1687 5.83088 14.8047 6.34222 14.536C6.86222 14.2587 7.47755 14.12 8.18822 14.12C8.50022 14.12 8.76022 14.1373 8.96822 14.172C9.18488 14.2067 9.37555 14.2543 9.54022 14.315C9.70488 14.3757 9.85655 14.4493 9.99522 14.536C10.1425 14.614 10.2942 14.705 10.4502 14.809C10.7189 14.9737 10.8879 15.1687 10.9572 15.394C11.0265 15.6107 11.0309 15.8187 10.9702 16.018C10.9182 16.2173 10.8099 16.3863 10.6452 16.525C10.4892 16.6637 10.3115 16.733 10.1122 16.733C9.97355 16.733 9.82188 16.6853 9.65722 16.59C9.53588 16.512 9.42322 16.434 9.31922 16.356C9.21522 16.278 9.10688 16.2087 8.99422 16.148C8.89022 16.0873 8.77322 16.0397 8.64322 16.005C8.52188 15.9703 8.37022 15.953 8.18822 15.953C7.82422 15.953 7.52088 16.0353 7.27822 16.2C7.04422 16.3647 6.85788 16.59 6.71922 16.876C6.58055 17.162 6.48522 17.4957 6.43322 17.877C6.38122 18.2583 6.35522 18.67 6.35522 19.112C6.35522 19.554 6.37688 19.957 6.42022 20.321C6.47222 20.6763 6.55455 20.9797 6.66722 21.231C6.77988 21.4823 6.92722 21.6773 7.10922 21.816C7.29988 21.9547 7.52955 22.024 7.79822 22.024C8.06688 22.024 8.27922 21.9677 8.43522 21.855C8.59988 21.7423 8.72555 21.6037 8.81222 21.439C8.90755 21.2743 8.97255 21.101 9.00722 20.919C9.05055 20.7283 9.08088 20.5593 9.09822 20.412C9.09822 20.3947 9.09822 20.3817 9.09822 20.373C9.10688 20.3557 9.11122 20.3383 9.11122 20.321V20.256C9.12855 20.0827 9.05488 20.0177 8.89022 20.061ZM15.9148 21.725C15.8541 21.9503 15.7805 22.1887 15.6938 22.44C15.6158 22.6827 15.5075 22.9687 15.3688 23.298C15.2995 23.4713 15.1868 23.6317 15.0308 23.779C14.8835 23.9263 14.6755 24 14.4068 24C14.2248 24 14.0038 23.948 13.7438 23.844C13.5011 23.74 13.3148 23.623 13.1848 23.493C13.0548 23.3543 12.9638 23.2157 12.9118 23.077C12.8685 22.9297 12.8555 22.7867 12.8728 22.648C12.8901 22.5093 12.9248 22.3837 12.9768 22.271C13.4968 21.0577 13.9648 19.8443 14.3808 18.631C14.7968 17.4177 15.2171 16.174 15.6418 14.9C15.7111 14.7007 15.8671 14.536 16.1098 14.406C16.3525 14.276 16.6558 14.211 17.0198 14.211C17.3838 14.211 17.6871 14.276 17.9298 14.406C18.1725 14.536 18.3285 14.7007 18.3978 14.9C18.8311 16.174 19.2515 17.4177 19.6588 18.631C20.0748 19.8443 20.5428 21.0577 21.0628 22.271C21.1148 22.3837 21.1495 22.5093 21.1668 22.648C21.1841 22.7867 21.1668 22.9297 21.1148 23.077C21.0715 23.2157 20.9848 23.3543 20.8548 23.493C20.7335 23.623 20.5471 23.74 20.2958 23.844C20.0358 23.948 19.8148 24 19.6328 24C19.3641 24 19.1518 23.9263 18.9958 23.779C18.8485 23.6317 18.7401 23.4713 18.6708 23.298C18.5321 22.9687 18.4195 22.6783 18.3328 22.427C18.2548 22.1757 18.1855 21.9373 18.1248 21.712C18.0815 21.5473 17.9775 21.4563 17.8128 21.439C17.7348 21.4303 17.6525 21.426 17.5658 21.426C17.4878 21.426 17.4011 21.426 17.3058 21.426H16.7858C16.6731 21.426 16.5691 21.4303 16.4738 21.439C16.3871 21.439 16.3048 21.4433 16.2268 21.452C16.0621 21.4693 15.9581 21.5603 15.9148 21.725ZM16.9418 17.123C16.9071 17.2443 16.8681 17.396 16.8248 17.578C16.7815 17.76 16.7381 17.955 16.6948 18.163C16.6515 18.371 16.6081 18.5833 16.5648 18.8C16.5301 19.0167 16.4911 19.2247 16.4478 19.424C16.4218 19.5973 16.4868 19.684 16.6428 19.684H16.7858H17.3058H17.3968C17.5528 19.684 17.6178 19.6017 17.5918 19.437C17.5571 19.2377 17.5181 19.0297 17.4748 18.813C17.4315 18.5963 17.3881 18.384 17.3448 18.176C17.3015 17.968 17.2581 17.773 17.2148 17.591C17.1715 17.4003 17.1325 17.2443 17.0978 17.123C17.0805 17.0537 17.0545 17.019 17.0198 17.019C16.9851 17.019 16.9591 17.0537 16.9418 17.123ZM22.8718 18.735C22.8718 18.4577 22.8588 18.1847 22.8328 17.916C22.8068 17.6387 22.7765 17.3613 22.7418 17.084C22.7072 16.798 22.6768 16.512 22.6508 16.226C22.6248 15.94 22.6118 15.6453 22.6118 15.342C22.6118 15.1427 22.6465 14.9737 22.7158 14.835C22.7852 14.6963 22.8805 14.5837 23.0018 14.497C23.1232 14.4103 23.2662 14.3497 23.4308 14.315C23.5955 14.2717 23.7688 14.25 23.9508 14.25C24.2022 14.25 24.4102 14.2847 24.5748 14.354C24.7395 14.4147 24.8695 14.497 24.9648 14.601C25.0602 14.705 25.1252 14.822 25.1598 14.952C25.1945 15.0733 25.2118 15.1947 25.2118 15.316C25.2118 15.654 25.1988 15.9703 25.1728 16.265C25.1468 16.5597 25.1165 16.8457 25.0818 17.123C25.0472 17.3917 25.0168 17.6603 24.9908 17.929C24.9648 18.189 24.9518 18.4577 24.9518 18.735V19.515C24.9518 19.7923 24.9648 20.0653 24.9908 20.334C25.0168 20.594 25.0472 20.8627 25.0818 21.14C25.1165 21.4087 25.1468 21.6903 25.1728 21.985C25.1988 22.2797 25.2118 22.596 25.2118 22.934C25.2118 23.0553 25.1945 23.181 25.1598 23.311C25.1252 23.4323 25.0602 23.545 24.9648 23.649C24.8695 23.753 24.7395 23.8397 24.5748 23.909C24.4102 23.9697 24.2022 24 23.9508 24C23.5782 24 23.2618 23.9177 23.0018 23.753C22.7418 23.5883 22.6118 23.3067 22.6118 22.908C22.6118 22.6047 22.6248 22.31 22.6508 22.024C22.6768 21.738 22.7072 21.4563 22.7418 21.179C22.7765 20.893 22.8068 20.6157 22.8328 20.347C22.8588 20.0697 22.8718 19.7923 22.8718 19.515V18.735ZM31.5298 23.519C31.4691 23.4323 31.4345 23.35 31.4258 23.272L29.1638 18.54C29.1291 18.4707 29.0988 18.4403 29.0728 18.449C29.0555 18.449 29.0468 18.488 29.0468 18.566V18.735V19.125C29.0468 19.4023 29.0641 19.697 29.0988 20.009C29.1421 20.3123 29.1898 20.6243 29.2418 20.945C29.2938 21.2657 29.3371 21.595 29.3718 21.933C29.4151 22.2623 29.4368 22.596 29.4368 22.934C29.4368 23.0553 29.4151 23.181 29.3718 23.311C29.3285 23.4323 29.2548 23.545 29.1508 23.649C29.0468 23.753 28.9038 23.8397 28.7218 23.909C28.5485 23.9697 28.3318 24 28.0718 24C27.8031 24 27.5865 23.9653 27.4218 23.896C27.2658 23.8267 27.1445 23.74 27.0578 23.636C26.9711 23.5233 26.9105 23.4063 26.8758 23.285C26.8498 23.155 26.8368 23.0293 26.8368 22.908C26.8368 22.6047 26.8498 22.31 26.8758 22.024C26.9018 21.738 26.9321 21.4563 26.9668 21.179C27.0015 20.893 27.0318 20.6157 27.0578 20.347C27.0838 20.0697 27.0968 19.7923 27.0968 19.515V18.735C27.0968 18.4577 27.0838 18.1847 27.0578 17.916C27.0318 17.6387 27.0015 17.3613 26.9668 17.084C26.9321 16.798 26.9018 16.512 26.8758 16.226C26.8498 15.94 26.8368 15.6453 26.8368 15.342C26.8368 15.2207 26.8498 15.0993 26.8758 14.978C26.9105 14.848 26.9711 14.731 27.0578 14.627C27.1445 14.5143 27.2658 14.4233 27.4218 14.354C27.5865 14.2847 27.8031 14.25 28.0718 14.25H28.6178C28.7911 14.25 28.9515 14.2977 29.0988 14.393C29.2461 14.4797 29.3545 14.5967 29.4238 14.744L31.5298 19.034C31.5645 19.1033 31.5905 19.138 31.6078 19.138C31.6338 19.1293 31.6468 19.086 31.6468 19.008V18.735C31.6468 18.4577 31.6251 18.1847 31.5818 17.916C31.5471 17.6387 31.5038 17.3613 31.4518 17.084C31.3998 16.798 31.3521 16.512 31.3088 16.226C31.2741 15.94 31.2568 15.6453 31.2568 15.342C31.2568 15.2207 31.2785 15.0993 31.3218 14.978C31.3651 14.848 31.4388 14.731 31.5428 14.627C31.6468 14.5143 31.7855 14.4233 31.9588 14.354C32.1321 14.2847 32.3531 14.25 32.6218 14.25C32.8818 14.25 33.0941 14.2847 33.2588 14.354C33.4235 14.4147 33.5491 14.497 33.6358 14.601C33.7225 14.705 33.7788 14.822 33.8048 14.952C33.8395 15.0733 33.8568 15.1947 33.8568 15.316C33.8568 15.654 33.8438 15.9703 33.8178 16.265C33.7918 16.5597 33.7615 16.8457 33.7268 17.123C33.6921 17.3917 33.6618 17.6603 33.6358 17.929C33.6098 18.189 33.5968 18.4577 33.5968 18.735V19.515C33.5968 19.7923 33.6098 20.0653 33.6358 20.334C33.6618 20.594 33.6921 20.8627 33.7268 21.14C33.7615 21.4087 33.7918 21.6903 33.8178 21.985C33.8438 22.2797 33.8568 22.596 33.8568 22.934C33.8568 23.0467 33.8438 23.1637 33.8178 23.285C33.7918 23.4063 33.7355 23.519 33.6488 23.623C33.5708 23.727 33.4581 23.8137 33.3108 23.883C33.1721 23.9523 32.9858 23.9913 32.7518 24H32.3098C32.1625 24 32.0195 23.9567 31.8808 23.87C31.7421 23.7833 31.6251 23.6663 31.5298 23.519Z" fill="black"/>
</svg>
