<svg width="32" height="8" viewBox="0 0 32 8" fill="none" xmlns="http://www.w3.org/2000/svg">
<g clip-path="url(#clip0_59_819)">
<path fill-rule="evenodd" clip-rule="evenodd" d="M15.9933 2.13191C17.0491 2.13191 17.8595 2.93937 17.8595 3.99467C17.8595 5.04997 17.0491 5.86009 15.9933 5.86009C14.9376 5.86009 14.1298 5.04997 14.1298 3.99467C14.1298 2.93937 14.9376 2.13191 15.9933 2.13191Z" fill="black"/>
<path fill-rule="evenodd" clip-rule="evenodd" d="M19.2725 1.71086L19.1552 1.55097L19.0299 1.39907L18.8966 1.2525L18.7553 1.11126L18.6087 0.978014L18.4567 0.852764L18.2968 0.735509L18.1315 0.623584L17.9608 0.522318L17.7876 0.429047L17.6063 0.346435L17.4223 0.271818L17.2357 0.202531L17.0464 0.143903L16.8545 0.0986003L16.6598 0.0612918L16.4625 0.031978L16.2653 0.0133238L16.068 0.00532913L15.8707 0.00799402L15.6707 0.0186536L15.4735 0.0399727L15.2788 0.0719514L15.0842 0.111925L14.8923 0.162558L14.703 0.21852L14.5164 0.287807L14.3351 0.365089L14.1565 0.453031L13.9832 0.548967L13.8152 0.652897L13.6526 0.764823L13.4926 0.884743L13.3433 1.01266L13.1967 1.14857L13.0607 1.28981L12.9301 1.43904L12.8048 1.5936L12.6902 1.75616L12.5835 1.92405L12.4822 2.0946L12.3916 2.27049L12.3116 2.4517L12.2396 2.63558L12.1756 2.82212L12.1223 3.01399L12.0796 3.20586L12.045 3.4004L12.0183 3.5976L12.005 3.7948L11.9997 3.99467L12.005 4.19187L12.0183 4.38907L12.045 4.58628L12.077 4.78081L12.1223 4.97535L12.1756 5.16456L12.2369 5.35643L12.3089 5.54031L12.3916 5.72152L12.4822 5.8974L12.5782 6.07062L12.6848 6.23584L12.7995 6.3984L12.9221 6.55296L13.0527 6.7022L13.1914 6.8461L13.3353 6.97935L13.4873 7.10993L13.6446 7.22985L13.8072 7.34177L13.9752 7.4457L14.1511 7.54164L14.3271 7.62958L14.511 7.70686L14.695 7.77615L14.8843 7.83744L15.0762 7.88807L15.2708 7.92805L15.4681 7.96003L15.6628 7.98134L15.8627 7.992L16.06 7.99467L16.2573 7.98667L16.4546 7.96802L16.6518 7.93871L16.8465 7.9014L17.0384 7.85609L17.2304 7.80013L17.417 7.73617L17.6009 7.66156L17.7796 7.57628L17.9555 7.48301L18.1235 7.38174L18.2888 7.27248L18.4487 7.15523L18.6033 7.02731L18.75 6.89673L18.8886 6.7555L19.0219 6.60893L19.1472 6.45436L19.2672 6.29447L18.5607 5.80146L18.4647 5.92405L18.3661 6.04663L18.2621 6.16122L18.1528 6.27049L18.0382 6.37442L17.9182 6.47302L17.7929 6.56629L17.6649 6.65156L17.5289 6.73151L17.393 6.80613L17.2517 6.86742L17.1077 6.92871L16.9611 6.97935L16.8118 7.02465L16.6625 7.06196L16.5105 7.09127L16.3559 7.11259L16.2013 7.12592L16.0467 7.13391L15.8894 7.13124L15.7347 7.12325L15.5801 7.10726L15.4255 7.08328L15.2735 7.0513L15.1242 7.01132L14.9749 6.96602L14.831 6.91006L14.687 6.8461L14.5484 6.77948L14.4124 6.70486L14.2791 6.62225L14.1511 6.53431L14.0285 6.44104L13.9085 6.33977L13.7966 6.23318L13.6872 6.12125L13.5859 6.004L13.49 5.88408L13.3993 5.75616L13.3167 5.62558L13.2394 5.49234L13.1674 5.35376L13.1061 5.21252L13.0474 5.06596L12.9994 4.91939L12.9568 4.77015L12.9221 4.61825L12.8954 4.46635L12.8768 4.31179L12.8635 4.15723L12.8608 4L12.8635 3.84544L12.8768 3.69087L12.8954 3.53631L12.9221 3.38441L12.9568 3.23251L12.9994 3.08328L13.0474 2.93404L13.1034 2.79014L13.1674 2.6489L13.2394 2.51033L13.3167 2.37442L13.3993 2.24384L13.49 2.11859L13.5886 1.996L13.6926 1.87875L13.7992 1.76682L13.9139 1.66023L14.0312 1.56162L14.1538 1.46569L14.2818 1.37775L14.4151 1.2978L14.551 1.22052L14.6923 1.1539L14.8336 1.09527L14.9803 1.04197L15.1269 0.994003L15.2788 0.95403L15.4308 0.922051L15.5828 0.898067L15.7374 0.882078L15.8947 0.874083L16.0493 0.871418L16.2039 0.879413L16.3586 0.892737L16.5132 0.914057L16.6652 0.94337L16.8171 0.980679L16.9664 1.02598L17.1131 1.07661L17.257 1.13524L17.3956 1.20453L17.5343 1.27648L17.6676 1.35643L17.7955 1.44437L17.9209 1.53498L18.0408 1.63358L18.1581 1.73751L18.2674 1.84943L18.3714 1.96402L18.47 2.08394L18.558 2.20919L19.2725 1.71086Z" fill="black"/>
<path fill-rule="evenodd" clip-rule="evenodd" d="M27.993 0C30.2591 0 31.992 1.73218 31.992 3.99733C31.992 6.26249 30.2591 7.99467 27.993 7.99467C25.7269 7.99467 23.994 6.26249 23.994 3.99733C23.994 1.73218 25.7269 0 27.993 0ZM27.9903 0.876749C29.7579 0.876749 31.1095 2.22785 31.1095 3.99467C31.1095 5.76149 29.7579 7.11259 27.9903 7.11259C26.2228 7.11259 24.8711 5.76149 24.8711 3.99467C24.8711 2.22785 26.2228 0.876749 27.9903 0.876749Z" fill="black"/>
<path fill-rule="evenodd" clip-rule="evenodd" d="M3.999 0C6.2651 0 7.998 1.73218 7.998 3.99733C7.998 6.26249 6.2651 7.99467 3.999 7.99467C1.7329 7.99467 0 6.26249 0 3.99733C0 1.73218 1.7329 0 3.999 0ZM3.99633 0.876749C5.76389 0.876749 7.11555 2.22785 7.11555 3.99467C7.11555 5.76149 5.76389 7.11259 3.99633 7.11259C2.22878 7.11259 0.877114 5.76149 0.877114 3.99467C0.877114 2.22785 2.22878 0.876749 3.99633 0.876749Z" fill="black"/>
<path fill-rule="evenodd" clip-rule="evenodd" d="M9.9975 4.39707H7.7314V3.5976H12.2636V4.39707H9.9975Z" fill="black"/>
<path fill-rule="evenodd" clip-rule="evenodd" d="M20.6615 4.39707H17.1957V3.5976H24.1273V4.39707H20.6615Z" fill="black"/>
<path fill-rule="evenodd" clip-rule="evenodd" d="M3.999 4.39707H1.9995V3.5976H5.9985V4.39707H3.999Z" fill="black"/>
<path fill-rule="evenodd" clip-rule="evenodd" d="M27.993 4.39707H25.9935V3.5976H29.9925V4.39707H27.993Z" fill="black"/>
<path fill-rule="evenodd" clip-rule="evenodd" d="M3.999 5.996H3.5991V1.99867H4.3989V5.996H3.999Z" fill="black"/>
</g>
<defs>
<clipPath id="clip0_59_819">
<rect width="32" height="8" fill="white"/>
</clipPath>
</defs>
</svg>
