<svg width="34" height="10" viewBox="0 0 34 10" fill="none" xmlns="http://www.w3.org/2000/svg">
<path fill-rule="evenodd" clip-rule="evenodd" d="M0 0H34V10H0V0ZM17.1883 3.14122C18.0145 3.22098 18.6576 3.80475 18.8199 4.5976H25.0123C25.2028 2.53153 26.8622 1 28.993 1C31.2591 1 32.992 2.73218 32.992 4.99733C32.992 7.26249 31.2591 8.99467 28.993 8.99467C26.8631 8.99467 25.2042 7.46445 25.0125 5.39973H18.8182C18.6406 6.25033 17.9093 6.86008 16.9934 6.86008C15.9376 6.86008 15.1298 6.04995 15.1298 4.99466C15.1298 3.93936 15.9376 3.1319 16.9934 3.1319C17.0593 3.1319 17.1244 3.13505 17.1883 3.14122ZM20.2725 2.71087L20.1552 2.55098L20.0299 2.39908L19.8966 2.25251L19.7553 2.11127L19.6086 1.97803L19.4567 1.85278L19.2967 1.73552L19.1314 1.62359L18.9608 1.52233L18.7875 1.42906L18.6062 1.34645L18.4223 1.27183L18.2357 1.20254L18.0464 1.14391L17.8544 1.09861L17.6598 1.0613L17.4625 1.03199L17.2652 1.01334L17.0679 1.00534L16.8707 1.00801L16.6707 1.01867L16.4734 1.03998L16.2788 1.07196L16.0842 1.11194L15.8922 1.16257L15.703 1.21853L15.5163 1.28782L15.335 1.3651L15.1564 1.45304L14.9831 1.54898L14.8152 1.65291L14.6526 1.76483L14.4926 1.88475L14.3433 2.01267L14.1967 2.14858L14.0607 2.28982L13.9301 2.43905L13.8048 2.59362L13.6901 2.75617L13.5835 2.92406L13.4822 3.09461L13.3915 3.2705L13.3116 3.45171L13.2396 3.63559L13.1756 3.82213L13.1223 4.014L13.0796 4.20587L13.045 4.40041L13.0183 4.5976H8.97973C8.78919 2.53153 7.12981 1 4.999 1C2.7329 1 1 2.73218 1 4.99733C1 7.26249 2.7329 8.99467 4.999 8.99467C7.1289 8.99467 8.78777 7.46445 8.97948 5.39973H13.0197L13.045 5.58629L13.0769 5.78082L13.1223 5.97536L13.1756 6.16457L13.2369 6.35644L13.3089 6.54032L13.3915 6.72153L13.4822 6.89741L13.5782 7.07063L13.6848 7.23585L13.7994 7.39841L13.9221 7.55298L14.0527 7.70221L14.1913 7.84611L14.3353 7.97936L14.4873 8.10994L14.6446 8.22986L14.8072 8.34178L14.9751 8.44571L15.1511 8.54165L15.3271 8.62959L15.511 8.70687L15.695 8.77616L15.8842 8.83745L16.0762 8.88808L16.2708 8.92806L16.4681 8.96004L16.6627 8.98136L16.8627 8.99202L17.06 8.99468L17.2572 8.98669L17.4545 8.96803L17.6518 8.93872L17.8464 8.90141L18.0384 8.85611L18.2303 8.80014L18.4169 8.73619L18.6009 8.66157L18.7795 8.57629L18.9555 8.48302L19.1234 8.38176L19.2887 8.2725L19.4487 8.15524L19.6033 8.02733L19.7499 7.89675L19.8886 7.75551L20.0219 7.60894L20.1472 7.45437L20.2671 7.29448L19.5607 6.80148L19.4647 6.92406L19.366 7.04665L19.2621 7.16124L19.1528 7.2705L19.0381 7.37443L18.9182 7.47303L18.7929 7.5663L18.6649 7.65158L18.5289 7.73152L18.393 7.80614L18.2517 7.86743L18.1077 7.92872L17.9611 7.97936L17.8118 8.02466L17.6625 8.06197L17.5105 8.09128L17.3559 8.1126L17.2013 8.12593L17.0466 8.13392L16.8893 8.13126L16.7347 8.12326L16.5801 8.10727L16.4254 8.08329L16.2735 8.05131L16.1242 8.01134L15.9749 7.96603L15.8309 7.91007L15.687 7.84611L15.5483 7.77949L15.4124 7.70487L15.2791 7.62226L15.1511 7.53432L15.0285 7.44105L14.9085 7.33978L14.7965 7.23319L14.6872 7.12126L14.5859 7.00401L14.4899 6.88409L14.3993 6.75617L14.3166 6.62559L14.2393 6.49235L14.1673 6.35377L14.106 6.21254L14.0474 6.06597L13.9994 5.9194L13.9567 5.77016L13.9221 5.61827L13.8954 5.46637L13.8767 5.3118L13.8634 5.15724L13.8608 5.00001L13.8634 4.84545L13.8767 4.69088L13.8954 4.53632L13.9221 4.38442L13.9567 4.23252L13.9994 4.08329L14.0474 3.93405L14.1034 3.79015L14.1673 3.64891L14.2393 3.51034L14.3166 3.37443L14.3993 3.24385L14.4899 3.1186L14.5886 2.99601L14.6925 2.87876L14.7992 2.76683L14.9138 2.66024L15.0311 2.56164L15.1538 2.4657L15.2817 2.37776L15.415 2.29781L15.551 2.22053L15.6923 2.15391L15.8336 2.09528L15.9802 2.04198L16.1269 1.99401L16.2788 1.95404L16.4308 1.92206L16.5827 1.89808L16.7374 1.88209L16.8947 1.87409L17.0493 1.87143L17.2039 1.87942L17.3585 1.89275L17.5132 1.91407L17.6651 1.94338L17.8171 1.98069L17.9664 2.02599L18.113 2.07663L18.257 2.13525L18.3956 2.20454L18.5342 2.27649L18.6675 2.35644L18.7955 2.44438L18.9208 2.53499L19.0408 2.63359L19.1581 2.73752L19.2674 2.84944L19.3714 2.96403L19.47 3.08395L19.558 3.2092L20.2725 2.71087ZM28.9904 1.87675C30.7579 1.87675 32.1096 3.22785 32.1096 4.99467C32.1096 6.76149 30.7579 8.11259 28.9904 8.11259C27.2228 8.11259 25.8711 6.76149 25.8711 4.99467C25.8711 3.22785 27.2228 1.87675 28.9904 1.87675ZM4.99633 1.87675C6.76389 1.87675 8.11555 3.22785 8.11555 4.99467C8.11555 6.76149 6.76389 8.11259 4.99633 8.11259C3.22878 8.11259 1.87711 6.76149 1.87711 4.99467C1.87711 3.22785 3.22878 1.87675 4.99633 1.87675ZM7.00118 4.5976H6.99851H5.40159V2.99866H5.39892H4.59912V4.5976H2.99951V5.39706V5.39973H4.59912V6.99599V6.99866H5.40159V5.39973H7.00118V4.5976ZM30.9952 4.5976H30.9925H26.9935V5.39706V5.39973H30.9952V4.5976Z" fill="black"/>
</svg>
