<svg width="41" height="19" viewBox="0 0 41 19" fill="none" xmlns="http://www.w3.org/2000/svg">
<path fill-rule="evenodd" clip-rule="evenodd" d="M41 0H0V19H41V0ZM2.998 6.614C2.98 6.41 2.959 6.212 2.935 6.02C2.923 5.918 2.968 5.867 3.07 5.867H3.304C3.7 5.867 4.069 5.813 4.411 5.705C4.759 5.597 5.059 5.444 5.311 5.246C5.569 5.048 5.77 4.805 5.914 4.517C6.064 4.229 6.139 3.905 6.139 3.545C6.139 2.795 5.896 2.225 5.41 1.835C4.93 1.445 4.228 1.25 3.304 1.25H2.134C1.948 1.25 1.795 1.274 1.675 1.322C1.561 1.37 1.468 1.433 1.396 1.511C1.33 1.583 1.285 1.664 1.261 1.754C1.237 1.838 1.225 1.922 1.225 2.006C1.225 2.216 1.234 2.42 1.252 2.618C1.27 2.816 1.291 3.014 1.315 3.212C1.339 3.404 1.36 3.596 1.378 3.788C1.396 3.974 1.405 4.163 1.405 4.355V4.895C1.405 5.087 1.396 5.279 1.378 5.471C1.36 5.657 1.339 5.849 1.315 6.047C1.291 6.239 1.27 6.434 1.252 6.632C1.234 6.83 1.225 7.034 1.225 7.244C1.225 7.328 1.237 7.415 1.261 7.505C1.285 7.589 1.33 7.67 1.396 7.748C1.462 7.82 1.552 7.88 1.666 7.928C1.786 7.976 1.939 8 2.125 8C2.305 8 2.452 7.979 2.566 7.937C2.686 7.889 2.779 7.829 2.845 7.757C2.917 7.685 2.965 7.607 2.989 7.523C3.013 7.433 3.025 7.346 3.025 7.262C3.025 7.028 3.016 6.812 2.998 6.614ZM3.889 4.526C3.733 4.592 3.538 4.625 3.304 4.625H2.998C2.896 4.625 2.845 4.574 2.845 4.472V4.355C2.845 4.067 2.863 3.791 2.899 3.527C2.935 3.263 2.968 2.978 2.998 2.672C3.01 2.57 3.064 2.519 3.16 2.519H3.304C3.556 2.519 3.763 2.549 3.925 2.609C4.093 2.669 4.225 2.747 4.321 2.843C4.417 2.939 4.483 3.047 4.519 3.167C4.555 3.287 4.573 3.41 4.573 3.536C4.573 3.662 4.549 3.791 4.501 3.923C4.459 4.049 4.387 4.166 4.285 4.274C4.183 4.376 4.051 4.46 3.889 4.526ZM9.19738 6.416C9.17338 6.158 9.14638 5.903 9.11638 5.651C9.10438 5.555 9.14638 5.507 9.24238 5.507C9.33838 5.507 9.41638 5.543 9.47638 5.615L9.61138 5.786C9.73138 5.936 9.84238 6.089 9.94438 6.245C10.0524 6.401 10.1574 6.56 10.2594 6.722C10.3614 6.884 10.4664 7.049 10.5744 7.217C10.6884 7.385 10.8114 7.55 10.9434 7.712C10.9974 7.778 11.0604 7.838 11.1324 7.892C11.2044 7.946 11.2884 7.982 11.3844 8C11.4864 8.012 11.5974 8 11.7174 7.964C11.8434 7.928 11.9784 7.853 12.1224 7.739C12.2664 7.631 12.3684 7.523 12.4284 7.415C12.4884 7.301 12.5214 7.196 12.5274 7.1C12.5334 6.998 12.5184 6.905 12.4824 6.821C12.4524 6.737 12.4104 6.662 12.3564 6.596C12.1464 6.338 11.9394 6.113 11.7354 5.921C11.5374 5.729 11.3454 5.537 11.1594 5.345C11.0934 5.279 11.1054 5.222 11.1954 5.174C11.5554 5 11.8374 4.766 12.0414 4.472C12.2514 4.172 12.3564 3.803 12.3564 3.365C12.3564 2.621 12.1134 2.084 11.6274 1.754C11.1414 1.418 10.4394 1.25 9.52138 1.25H8.35138C8.16538 1.25 8.01238 1.274 7.89238 1.322C7.77838 1.37 7.68538 1.433 7.61338 1.511C7.54738 1.583 7.50238 1.664 7.47838 1.754C7.45438 1.838 7.44238 1.922 7.44238 2.006C7.44238 2.216 7.45138 2.42 7.46938 2.618C7.48738 2.816 7.50838 3.014 7.53238 3.212C7.55638 3.404 7.57738 3.596 7.59538 3.788C7.61338 3.974 7.62238 4.163 7.62238 4.355V4.895C7.62238 5.087 7.61338 5.279 7.59538 5.471C7.57738 5.657 7.55638 5.849 7.53238 6.047C7.50838 6.239 7.48738 6.434 7.46938 6.632C7.45138 6.83 7.44238 7.034 7.44238 7.244C7.44238 7.328 7.45438 7.415 7.47838 7.505C7.50238 7.589 7.54738 7.67 7.61338 7.748C7.67938 7.82 7.76938 7.88 7.88338 7.928C8.00338 7.976 8.15638 8 8.34238 8C8.52238 8 8.66938 7.979 8.78338 7.937C8.90338 7.889 8.99638 7.829 9.06238 7.757C9.13438 7.685 9.18238 7.607 9.20638 7.523C9.23038 7.433 9.24238 7.346 9.24238 7.262C9.24238 6.95 9.22738 6.668 9.19738 6.416ZM10.5024 4.004C10.3104 4.178 9.98338 4.265 9.52138 4.265H9.21538C9.11938 4.265 9.07138 4.214 9.07138 4.112C9.08338 3.872 9.10438 3.638 9.13438 3.41C9.16438 3.176 9.19138 2.93 9.21538 2.672C9.22738 2.57 9.28138 2.519 9.37738 2.519H9.52138C9.77338 2.519 9.98038 2.54 10.1424 2.582C10.3104 2.624 10.4424 2.681 10.5384 2.753C10.6344 2.825 10.7004 2.912 10.7364 3.014C10.7724 3.116 10.7904 3.23 10.7904 3.356C10.7904 3.608 10.6944 3.824 10.5024 4.004ZM15.8783 6.38C15.8363 6.38 15.7973 6.377 15.7613 6.371C15.6473 6.359 15.5843 6.296 15.5723 6.182C15.5543 6.044 15.5363 5.912 15.5183 5.786L15.4823 5.39C15.4763 5.336 15.4883 5.294 15.5183 5.264C15.5543 5.228 15.5963 5.21 15.6443 5.21H15.7613C15.9533 5.21 16.1093 5.219 16.2293 5.237C16.3493 5.255 16.4513 5.276 16.5353 5.3C16.6253 5.324 16.7063 5.345 16.7783 5.363C16.8503 5.381 16.9343 5.39 17.0303 5.39C17.1143 5.39 17.1983 5.381 17.2823 5.363C17.3723 5.339 17.4533 5.297 17.5253 5.237C17.6033 5.177 17.6663 5.093 17.7143 4.985C17.7623 4.871 17.7863 4.721 17.7863 4.535C17.7863 4.355 17.7623 4.208 17.7143 4.094C17.6723 3.98 17.6153 3.893 17.5433 3.833C17.4713 3.773 17.3903 3.734 17.3003 3.716C17.2163 3.692 17.1323 3.68 17.0483 3.68C16.9283 3.68 16.8293 3.689 16.7513 3.707C16.6733 3.725 16.5923 3.746 16.5083 3.77C16.4303 3.794 16.3343 3.815 16.2203 3.833C16.1063 3.851 15.9533 3.86 15.7613 3.86H15.6623C15.5483 3.86 15.4973 3.8 15.5093 3.68L15.5453 3.284C15.5633 3.152 15.5783 3.017 15.5903 2.879C15.6023 2.771 15.6653 2.711 15.7793 2.699H15.8963C15.9383 2.693 15.9833 2.69 16.0313 2.69C16.2233 2.69 16.3793 2.699 16.4993 2.717C16.6193 2.735 16.7213 2.756 16.8053 2.78C16.8953 2.804 16.9763 2.825 17.0483 2.843C17.1203 2.861 17.2043 2.87 17.3003 2.87C17.3843 2.87 17.4683 2.864 17.5523 2.852C17.6423 2.834 17.7233 2.798 17.7953 2.744C17.8733 2.69 17.9363 2.609 17.9843 2.501C18.0323 2.393 18.0563 2.246 18.0563 2.06C18.0563 1.88 18.0323 1.736 17.9843 1.628C17.9423 1.52 17.8853 1.439 17.8133 1.385C17.7413 1.325 17.6603 1.289 17.5703 1.277C17.4863 1.259 17.4023 1.25 17.3183 1.25C17.1983 1.25 17.0993 1.259 17.0213 1.277C16.9433 1.295 16.8623 1.316 16.7783 1.34C16.7003 1.364 16.6043 1.385 16.4903 1.403C16.3763 1.421 16.2233 1.43 16.0313 1.43C15.8033 1.43 15.6293 1.421 15.5093 1.403C15.3953 1.379 15.2933 1.352 15.2033 1.322C15.0773 1.274 14.9243 1.25 14.7443 1.25H14.6273C14.5913 1.25 14.5553 1.256 14.5193 1.268C14.3813 1.286 14.2673 1.322 14.1773 1.376C14.0933 1.43 14.0243 1.49 13.9703 1.556C13.9223 1.622 13.8893 1.697 13.8713 1.781C13.8533 1.859 13.8443 1.934 13.8443 2.006C13.8443 2.216 13.8533 2.42 13.8713 2.618C13.8893 2.816 13.9103 3.014 13.9343 3.212C13.9583 3.404 13.9793 3.596 13.9973 3.788C14.0153 3.974 14.0243 4.163 14.0243 4.355V4.895C14.0243 5.087 14.0153 5.279 13.9973 5.471C13.9793 5.657 13.9583 5.849 13.9343 6.047C13.9103 6.239 13.8893 6.434 13.8713 6.632C13.8533 6.83 13.8443 7.034 13.8443 7.244C13.8443 7.514 13.9313 7.709 14.1053 7.829C14.2793 7.943 14.4923 8 14.7443 8C14.9663 8 15.1433 7.967 15.2753 7.901C15.3593 7.877 15.4583 7.859 15.5723 7.847C15.6863 7.829 15.8333 7.82 16.0133 7.82C16.2053 7.82 16.3613 7.829 16.4813 7.847C16.6013 7.865 16.7033 7.886 16.7873 7.91C16.8773 7.934 16.9583 7.955 17.0303 7.973C17.1023 7.991 17.1863 8 17.2823 8C17.3663 8 17.4503 7.988 17.5343 7.964C17.6243 7.94 17.7053 7.895 17.7773 7.829C17.8553 7.763 17.9183 7.673 17.9663 7.559C18.0143 7.439 18.0383 7.286 18.0383 7.1C18.0383 6.92 18.0143 6.773 17.9663 6.659C17.9243 6.539 17.8673 6.446 17.7953 6.38C17.7233 6.308 17.6423 6.26 17.5523 6.236C17.4683 6.212 17.3843 6.2 17.3003 6.2C17.1803 6.2 17.0813 6.209 17.0033 6.227C16.9253 6.245 16.8443 6.266 16.7603 6.29C16.6823 6.314 16.5863 6.335 16.4723 6.353C16.3583 6.371 16.2053 6.38 16.0133 6.38H15.8783ZM21.1944 6.92C21.2544 6.746 21.3054 6.581 21.3474 6.425C21.3774 6.311 21.4494 6.248 21.5634 6.236C21.6174 6.23 21.6744 6.227 21.7344 6.227C21.8004 6.221 21.8724 6.218 21.9504 6.218H22.3104H22.4904C22.5504 6.218 22.6074 6.221 22.6614 6.227C22.7754 6.239 22.8474 6.302 22.8774 6.416C22.9194 6.572 22.9674 6.737 23.0214 6.911C23.0814 7.085 23.1594 7.286 23.2554 7.514C23.3034 7.634 23.3784 7.745 23.4804 7.847C23.5884 7.949 23.7354 8 23.9214 8C24.0474 8 24.2004 7.964 24.3804 7.892C24.5544 7.82 24.6834 7.739 24.7674 7.649C24.8574 7.553 24.9174 7.457 24.9474 7.361C24.9834 7.259 24.9954 7.16 24.9834 7.064C24.9714 6.968 24.9474 6.881 24.9114 6.803C24.5514 5.963 24.2274 5.123 23.9394 4.283C23.6574 3.443 23.3664 2.582 23.0664 1.7C23.0184 1.562 22.9104 1.448 22.7424 1.358C22.5744 1.268 22.3644 1.223 22.1124 1.223C21.8604 1.223 21.6504 1.268 21.4824 1.358C21.3144 1.448 21.2064 1.562 21.1584 1.7C20.8644 2.582 20.5734 3.443 20.2854 4.283C19.9974 5.123 19.6734 5.963 19.3134 6.803C19.2774 6.881 19.2534 6.968 19.2414 7.064C19.2294 7.16 19.2384 7.259 19.2684 7.361C19.3044 7.457 19.3674 7.553 19.4574 7.649C19.5474 7.739 19.6764 7.82 19.8444 7.892C20.0244 7.964 20.1774 8 20.3034 8C20.4894 8 20.6334 7.949 20.7354 7.847C20.8434 7.745 20.9214 7.634 20.9694 7.514C21.0654 7.286 21.1404 7.088 21.1944 6.92ZM21.9774 3.554C22.0074 3.428 22.0344 3.323 22.0584 3.239C22.0704 3.191 22.0884 3.167 22.1124 3.167C22.1364 3.167 22.1544 3.191 22.1664 3.239C22.1904 3.323 22.2174 3.431 22.2474 3.563C22.2774 3.689 22.3074 3.824 22.3374 3.968C22.3674 4.112 22.3974 4.259 22.4274 4.409C22.4574 4.559 22.4844 4.703 22.5084 4.841C22.5264 4.955 22.4814 5.012 22.3734 5.012H22.3104H21.9504H21.8514C21.7434 5.012 21.6984 4.952 21.7164 4.832C21.7464 4.694 21.7734 4.55 21.7974 4.4C21.8274 4.25 21.8574 4.103 21.8874 3.959C21.9174 3.815 21.9474 3.68 21.9774 3.554ZM30.3578 7.82C30.5198 7.694 30.6308 7.529 30.6908 7.325L31.6988 3.824C31.7108 3.776 31.7228 3.752 31.7348 3.752C31.7468 3.746 31.7528 3.77 31.7528 3.824C31.7588 3.914 31.7618 4.013 31.7618 4.121V4.355V4.625C31.7618 4.817 31.7468 5.021 31.7168 5.237C31.6928 5.447 31.6628 5.663 31.6268 5.885C31.5908 6.107 31.5578 6.335 31.5278 6.569C31.5038 6.797 31.4918 7.028 31.4918 7.262C31.4918 7.346 31.5068 7.433 31.5368 7.523C31.5668 7.607 31.6178 7.685 31.6898 7.757C31.7618 7.829 31.8578 7.889 31.9778 7.937C32.1038 7.979 32.2568 8 32.4368 8C32.6228 8 32.7698 7.976 32.8778 7.928C32.9918 7.88 33.0788 7.82 33.1388 7.748C33.1988 7.67 33.2378 7.589 33.2558 7.505C33.2798 7.415 33.2918 7.328 33.2918 7.244C33.2918 7.034 33.2828 6.83 33.2648 6.632C33.2468 6.434 33.2258 6.239 33.2018 6.047C33.1778 5.849 33.1568 5.657 33.1388 5.471C33.1208 5.279 33.1118 5.087 33.1118 4.895V4.355C33.1118 4.163 33.1208 3.983 33.1388 3.815C33.1568 3.641 33.1778 3.47 33.2018 3.302C33.2258 3.128 33.2468 2.951 33.2648 2.771C33.2828 2.591 33.2918 2.396 33.2918 2.186C33.2918 1.928 33.1958 1.709 33.0038 1.529C32.8178 1.349 32.5388 1.256 32.1668 1.25H31.8698C31.5938 1.25 31.3508 1.331 31.1408 1.493C30.9368 1.655 30.8018 1.871 30.7358 2.141L29.8988 5.642C29.8688 5.762 29.8358 5.822 29.7998 5.822C29.7638 5.822 29.7308 5.762 29.7008 5.642L28.8548 2.141C28.7888 1.871 28.6508 1.655 28.4408 1.493C28.2368 1.331 27.9968 1.25 27.7208 1.25H27.4238C27.0518 1.256 26.7548 1.349 26.5328 1.529C26.3168 1.709 26.2088 1.928 26.2088 2.186C26.2088 2.396 26.2178 2.591 26.2358 2.771C26.2538 2.951 26.2748 3.128 26.2988 3.302C26.3228 3.47 26.3438 3.641 26.3618 3.815C26.3798 3.983 26.3888 4.163 26.3888 4.355V4.895C26.3888 5.087 26.3798 5.279 26.3618 5.471C26.3438 5.657 26.3228 5.849 26.2988 6.047C26.2748 6.239 26.2538 6.434 26.2358 6.632C26.2178 6.83 26.2088 7.034 26.2088 7.244C26.2088 7.328 26.2208 7.415 26.2448 7.505C26.2688 7.589 26.3138 7.67 26.3798 7.748C26.4458 7.82 26.5358 7.88 26.6498 7.928C26.7698 7.976 26.9228 8 27.1088 8C27.2888 8 27.4418 7.979 27.5678 7.937C27.6938 7.889 27.7958 7.829 27.8738 7.757C27.9518 7.685 28.0088 7.607 28.0448 7.523C28.0808 7.433 28.0988 7.346 28.0988 7.262C28.0988 7.028 28.0838 6.797 28.0538 6.569C28.0298 6.335 27.9998 6.107 27.9638 5.885C27.9278 5.663 27.8948 5.447 27.8648 5.237C27.8408 5.021 27.8288 4.817 27.8288 4.625V4.355V4.121C27.8288 4.013 27.8318 3.914 27.8378 3.824C27.8378 3.77 27.8438 3.746 27.8558 3.752C27.8678 3.752 27.8798 3.776 27.8918 3.824L28.8998 7.325C28.9598 7.529 29.0708 7.694 29.2328 7.82C29.3948 7.94 29.5808 8 29.7908 8H29.7998C30.0098 8 30.1958 7.94 30.3578 7.82ZM36.414 6.614C36.396 6.41 36.375 6.212 36.351 6.02C36.339 5.918 36.384 5.867 36.486 5.867H36.72C37.116 5.867 37.485 5.813 37.827 5.705C38.175 5.597 38.475 5.444 38.727 5.246C38.985 5.048 39.186 4.805 39.33 4.517C39.48 4.229 39.555 3.905 39.555 3.545C39.555 2.795 39.312 2.225 38.826 1.835C38.346 1.445 37.644 1.25 36.72 1.25H35.55C35.364 1.25 35.211 1.274 35.091 1.322C34.977 1.37 34.884 1.433 34.812 1.511C34.746 1.583 34.701 1.664 34.677 1.754C34.653 1.838 34.641 1.922 34.641 2.006C34.641 2.216 34.65 2.42 34.668 2.618C34.686 2.816 34.707 3.014 34.731 3.212C34.755 3.404 34.776 3.596 34.794 3.788C34.812 3.974 34.821 4.163 34.821 4.355V4.895C34.821 5.087 34.812 5.279 34.794 5.471C34.776 5.657 34.755 5.849 34.731 6.047C34.707 6.239 34.686 6.434 34.668 6.632C34.65 6.83 34.641 7.034 34.641 7.244C34.641 7.328 34.653 7.415 34.677 7.505C34.701 7.589 34.746 7.67 34.812 7.748C34.878 7.82 34.968 7.88 35.082 7.928C35.202 7.976 35.355 8 35.541 8C35.721 8 35.868 7.979 35.982 7.937C36.102 7.889 36.195 7.829 36.261 7.757C36.333 7.685 36.381 7.607 36.405 7.523C36.429 7.433 36.441 7.346 36.441 7.262C36.441 7.028 36.432 6.812 36.414 6.614ZM37.305 4.526C37.149 4.592 36.954 4.625 36.72 4.625H36.414C36.312 4.625 36.261 4.574 36.261 4.472V4.355C36.261 4.067 36.279 3.791 36.315 3.527C36.351 3.263 36.384 2.978 36.414 2.672C36.426 2.57 36.48 2.519 36.576 2.519H36.72C36.972 2.519 37.179 2.549 37.341 2.609C37.509 2.669 37.641 2.747 37.737 2.843C37.833 2.939 37.899 3.047 37.935 3.167C37.971 3.287 37.989 3.41 37.989 3.536C37.989 3.662 37.965 3.791 37.917 3.923C37.875 4.049 37.803 4.166 37.701 4.274C37.599 4.376 37.467 4.46 37.305 4.526ZM1.36 13.311C1.24 13.725 1.18 14.163 1.18 14.625C1.18 15.165 1.234 15.651 1.342 16.083C1.456 16.509 1.63 16.872 1.864 17.172C2.098 17.466 2.392 17.694 2.746 17.856C3.106 18.012 3.532 18.09 4.024 18.09C4.51 18.09 4.93 18.012 5.284 17.856C5.644 17.694 5.941 17.466 6.175 17.172C6.409 16.872 6.58 16.509 6.688 16.083C6.802 15.651 6.859 15.165 6.859 14.625C6.859 14.163 6.796 13.725 6.67 13.311C6.55 12.891 6.37 12.522 6.13 12.204C5.89 11.886 5.593 11.634 5.239 11.448C4.891 11.256 4.486 11.16 4.024 11.16C3.556 11.16 3.145 11.256 2.791 11.448C2.437 11.634 2.14 11.886 1.9 12.204C1.66 12.522 1.48 12.891 1.36 13.311ZM2.818 15.453C2.776 15.201 2.755 14.922 2.755 14.616C2.755 14.31 2.773 14.025 2.809 13.761C2.845 13.497 2.911 13.266 3.007 13.068C3.103 12.87 3.232 12.714 3.394 12.6C3.562 12.486 3.772 12.429 4.024 12.429C4.276 12.429 4.483 12.486 4.645 12.6C4.813 12.714 4.945 12.87 5.041 13.068C5.137 13.266 5.203 13.497 5.239 13.761C5.275 14.025 5.293 14.31 5.293 14.616C5.293 14.922 5.269 15.201 5.221 15.453C5.179 15.699 5.107 15.909 5.005 16.083C4.903 16.257 4.771 16.392 4.609 16.488C4.453 16.584 4.258 16.632 4.024 16.632C3.79 16.632 3.592 16.584 3.43 16.488C3.274 16.392 3.145 16.257 3.043 16.083C2.941 15.909 2.866 15.699 2.818 15.453ZM11.3401 17.496C11.3461 17.55 11.3701 17.607 11.4121 17.667C11.4781 17.769 11.5591 17.85 11.6551 17.91C11.7511 17.97 11.8501 18 11.9521 18H12.2581C12.4201 17.994 12.5491 17.967 12.6451 17.919C12.7471 17.871 12.8251 17.811 12.8791 17.739C12.9391 17.667 12.9781 17.589 12.9961 17.505C13.0141 17.421 13.0231 17.34 13.0231 17.262C13.0231 17.028 13.0141 16.809 12.9961 16.605C12.9781 16.401 12.9571 16.206 12.9331 16.02C12.9091 15.828 12.8881 15.642 12.8701 15.462C12.8521 15.276 12.8431 15.087 12.8431 14.895V14.355C12.8431 14.163 12.8521 13.977 12.8701 13.797C12.8881 13.611 12.9091 13.425 12.9331 13.239C12.9571 13.047 12.9781 12.849 12.9961 12.645C13.0141 12.441 13.0231 12.222 13.0231 11.988C13.0231 11.904 13.0111 11.82 12.9871 11.736C12.9691 11.646 12.9301 11.565 12.8701 11.493C12.8101 11.421 12.7231 11.364 12.6091 11.322C12.4951 11.274 12.3481 11.25 12.1681 11.25C11.9821 11.25 11.8291 11.274 11.7091 11.322C11.5891 11.37 11.4931 11.433 11.4211 11.511C11.3491 11.583 11.2981 11.664 11.2681 11.754C11.2381 11.838 11.2231 11.922 11.2231 12.006C11.2231 12.216 11.2351 12.42 11.2591 12.618C11.2891 12.816 11.3221 13.014 11.3581 13.212C11.3941 13.404 11.4241 13.596 11.4481 13.788C11.4781 13.974 11.4931 14.163 11.4931 14.355V14.544C11.4931 14.598 11.4841 14.628 11.4661 14.634C11.4541 14.634 11.4361 14.61 11.4121 14.562L9.95409 11.592C9.90609 11.49 9.83109 11.409 9.72909 11.349C9.62709 11.283 9.51609 11.25 9.39609 11.25H9.01809C8.83209 11.25 8.68209 11.274 8.56809 11.322C8.46009 11.37 8.37609 11.433 8.31609 11.511C8.25609 11.583 8.21409 11.664 8.19009 11.754C8.17209 11.838 8.16309 11.922 8.16309 12.006C8.16309 12.216 8.17209 12.42 8.19009 12.618C8.20809 12.816 8.22909 13.014 8.25309 13.212C8.27709 13.404 8.29809 13.596 8.31609 13.788C8.33409 13.974 8.34309 14.163 8.34309 14.355V14.895C8.34309 15.087 8.33409 15.279 8.31609 15.471C8.29809 15.657 8.27709 15.849 8.25309 16.047C8.22909 16.239 8.20809 16.434 8.19009 16.632C8.17209 16.83 8.16309 17.034 8.16309 17.244C8.16309 17.328 8.17209 17.415 8.19009 17.505C8.21409 17.589 8.25609 17.67 8.31609 17.748C8.37609 17.82 8.46009 17.88 8.56809 17.928C8.68209 17.976 8.83209 18 9.01809 18C9.19809 18 9.34809 17.979 9.46809 17.937C9.59409 17.889 9.69309 17.829 9.76509 17.757C9.83709 17.685 9.88809 17.607 9.91809 17.523C9.94809 17.433 9.96309 17.346 9.96309 17.262C9.96309 17.028 9.94809 16.797 9.91809 16.569C9.89409 16.335 9.86409 16.107 9.82809 15.885C9.79209 15.663 9.75909 15.447 9.72909 15.237C9.70509 15.021 9.69309 14.817 9.69309 14.625V14.355V14.238C9.69309 14.184 9.69909 14.157 9.71109 14.157C9.72909 14.151 9.75009 14.172 9.77409 14.22L11.3401 17.496Z" fill="black"/>
</svg>
