<svg width="39" height="18" viewBox="0 0 39 18" fill="none" xmlns="http://www.w3.org/2000/svg">
<path d="M1.935 5.02C1.959 5.212 1.98 5.41 1.998 5.614C2.016 5.812 2.025 6.028 2.025 6.262C2.025 6.346 2.013 6.433 1.989 6.523C1.965 6.607 1.917 6.685 1.845 6.757C1.779 6.829 1.686 6.889 1.566 6.937C1.452 6.979 1.305 7 1.125 7C0.939 7 0.786 6.976 0.666 6.928C0.552 6.88 0.462 6.82 0.396 6.748C0.33 6.67 0.285 6.589 0.261 6.505C0.237 6.415 0.225 6.328 0.225 6.244C0.225 6.034 0.234 5.83 0.252 5.632C0.27 5.434 0.291 5.239 0.315 5.047C0.339 4.849 0.36 4.657 0.378 4.471C0.396 4.279 0.405 4.087 0.405 3.895V3.355C0.405 3.163 0.396 2.974 0.378 2.788C0.36 2.596 0.339 2.404 0.315 2.212C0.291 2.014 0.27 1.816 0.252 1.618C0.234 1.42 0.225 1.216 0.225 1.006C0.225 0.922 0.237 0.838 0.261 0.754C0.285 0.664 0.33 0.583 0.396 0.511C0.468 0.433 0.561 0.37 0.675 0.322C0.795 0.274 0.948 0.249999 1.134 0.249999H2.304C3.228 0.249999 3.93 0.444999 4.41 0.834999C4.896 1.225 5.139 1.795 5.139 2.545C5.139 2.905 5.064 3.229 4.914 3.517C4.77 3.805 4.569 4.048 4.311 4.246C4.059 4.444 3.759 4.597 3.411 4.705C3.069 4.813 2.7 4.867 2.304 4.867H2.07C1.968 4.867 1.923 4.918 1.935 5.02ZM2.304 3.625C2.538 3.625 2.733 3.592 2.889 3.526C3.051 3.46 3.183 3.376 3.285 3.274C3.387 3.166 3.459 3.049 3.501 2.923C3.549 2.791 3.573 2.662 3.573 2.536C3.573 2.41 3.555 2.287 3.519 2.167C3.483 2.047 3.417 1.939 3.321 1.843C3.225 1.747 3.093 1.669 2.925 1.609C2.763 1.549 2.556 1.519 2.304 1.519H2.16C2.064 1.519 2.01 1.57 1.998 1.672C1.968 1.978 1.935 2.263 1.899 2.527C1.863 2.791 1.845 3.067 1.845 3.355V3.472C1.845 3.574 1.896 3.625 1.998 3.625H2.304ZM8.11638 4.651C8.14638 4.903 8.17338 5.158 8.19738 5.416C8.22738 5.668 8.24238 5.95 8.24238 6.262C8.24238 6.346 8.23038 6.433 8.20638 6.523C8.18238 6.607 8.13438 6.685 8.06238 6.757C7.99638 6.829 7.90338 6.889 7.78338 6.937C7.66938 6.979 7.52238 7 7.34238 7C7.15638 7 7.00338 6.976 6.88338 6.928C6.76938 6.88 6.67938 6.82 6.61338 6.748C6.54738 6.67 6.50238 6.589 6.47838 6.505C6.45438 6.415 6.44238 6.328 6.44238 6.244C6.44238 6.034 6.45138 5.83 6.46938 5.632C6.48738 5.434 6.50838 5.239 6.53238 5.047C6.55638 4.849 6.57738 4.657 6.59538 4.471C6.61338 4.279 6.62238 4.087 6.62238 3.895V3.355C6.62238 3.163 6.61338 2.974 6.59538 2.788C6.57738 2.596 6.55638 2.404 6.53238 2.212C6.50838 2.014 6.48738 1.816 6.46938 1.618C6.45138 1.42 6.44238 1.216 6.44238 1.006C6.44238 0.922 6.45438 0.838 6.47838 0.754C6.50238 0.664 6.54738 0.583 6.61338 0.511C6.68538 0.433 6.77838 0.37 6.89238 0.322C7.01238 0.274 7.16538 0.249999 7.35138 0.249999H8.52138C9.43938 0.249999 10.1414 0.418 10.6274 0.754C11.1134 1.084 11.3564 1.621 11.3564 2.365C11.3564 2.803 11.2514 3.172 11.0414 3.472C10.8374 3.766 10.5554 4 10.1954 4.174C10.1054 4.222 10.0934 4.279 10.1594 4.345C10.3454 4.537 10.5374 4.729 10.7354 4.921C10.9394 5.113 11.1464 5.338 11.3564 5.596C11.4104 5.662 11.4524 5.737 11.4824 5.821C11.5184 5.905 11.5334 5.998 11.5274 6.1C11.5214 6.196 11.4884 6.301 11.4284 6.415C11.3684 6.523 11.2664 6.631 11.1224 6.739C10.9784 6.853 10.8434 6.928 10.7174 6.964C10.5974 7 10.4864 7.012 10.3844 7C10.2884 6.982 10.2044 6.946 10.1324 6.892C10.0604 6.838 9.99738 6.778 9.94338 6.712C9.81138 6.55 9.68838 6.385 9.57438 6.217C9.46638 6.049 9.36138 5.884 9.25938 5.722C9.15738 5.56 9.05238 5.401 8.94438 5.245C8.84238 5.089 8.73138 4.936 8.61138 4.786L8.47638 4.615C8.41638 4.543 8.33838 4.507 8.24238 4.507C8.14638 4.507 8.10438 4.555 8.11638 4.651ZM8.52138 3.265C8.98338 3.265 9.31038 3.178 9.50238 3.004C9.69438 2.824 9.79038 2.608 9.79038 2.356C9.79038 2.23 9.77238 2.116 9.73638 2.014C9.70038 1.912 9.63438 1.825 9.53838 1.753C9.44238 1.681 9.31038 1.624 9.14238 1.582C8.98038 1.54 8.77338 1.519 8.52138 1.519H8.37738C8.28138 1.519 8.22738 1.57 8.21538 1.672C8.19138 1.93 8.16438 2.176 8.13438 2.41C8.10438 2.638 8.08338 2.872 8.07138 3.112C8.07138 3.214 8.11938 3.265 8.21538 3.265H8.52138ZM14.7613 5.371C14.7973 5.377 14.8363 5.38 14.8783 5.38C14.9203 5.38 14.9653 5.38 15.0133 5.38C15.2053 5.38 15.3583 5.371 15.4723 5.353C15.5863 5.335 15.6823 5.314 15.7603 5.29C15.8443 5.266 15.9253 5.245 16.0033 5.227C16.0813 5.209 16.1803 5.2 16.3003 5.2C16.3843 5.2 16.4683 5.212 16.5523 5.236C16.6423 5.26 16.7233 5.308 16.7953 5.38C16.8673 5.446 16.9243 5.539 16.9663 5.659C17.0143 5.773 17.0383 5.92 17.0383 6.1C17.0383 6.286 17.0143 6.439 16.9663 6.559C16.9183 6.673 16.8553 6.763 16.7773 6.829C16.7053 6.895 16.6243 6.94 16.5343 6.964C16.4503 6.988 16.3663 7 16.2823 7C16.1863 7 16.1023 6.991 16.0303 6.973C15.9583 6.955 15.8773 6.934 15.7873 6.91C15.7033 6.886 15.6013 6.865 15.4813 6.847C15.3613 6.829 15.2053 6.82 15.0133 6.82C14.8333 6.82 14.6863 6.829 14.5723 6.847C14.4583 6.859 14.3593 6.877 14.2753 6.901C14.1433 6.967 13.9663 7 13.7443 7C13.4923 7 13.2793 6.943 13.1053 6.829C12.9313 6.709 12.8443 6.514 12.8443 6.244C12.8443 6.034 12.8533 5.83 12.8713 5.632C12.8893 5.434 12.9103 5.239 12.9343 5.047C12.9583 4.849 12.9793 4.657 12.9973 4.471C13.0153 4.279 13.0243 4.087 13.0243 3.895V3.355C13.0243 3.163 13.0153 2.974 12.9973 2.788C12.9793 2.596 12.9583 2.404 12.9343 2.212C12.9103 2.014 12.8893 1.816 12.8713 1.618C12.8533 1.42 12.8443 1.216 12.8443 1.006C12.8443 0.934 12.8533 0.859 12.8713 0.781C12.8893 0.697 12.9223 0.622 12.9703 0.556C13.0243 0.49 13.0933 0.429999 13.1773 0.375999C13.2673 0.321999 13.3813 0.286 13.5193 0.268C13.5553 0.256 13.5913 0.249999 13.6273 0.249999C13.6693 0.249999 13.7083 0.249999 13.7443 0.249999C13.9243 0.249999 14.0773 0.274 14.2033 0.322C14.2933 0.352 14.3953 0.379 14.5093 0.403C14.6293 0.421 14.8033 0.43 15.0313 0.43C15.2233 0.43 15.3763 0.421 15.4903 0.403C15.6043 0.385 15.7003 0.364 15.7783 0.34C15.8623 0.316 15.9433 0.295 16.0213 0.277C16.0993 0.259 16.1983 0.249999 16.3183 0.249999C16.4023 0.249999 16.4863 0.259 16.5703 0.277C16.6603 0.288999 16.7413 0.325 16.8133 0.385C16.8853 0.439 16.9423 0.52 16.9843 0.628C17.0323 0.736 17.0563 0.88 17.0563 1.06C17.0563 1.246 17.0323 1.393 16.9843 1.501C16.9363 1.609 16.8733 1.69 16.7953 1.744C16.7233 1.798 16.6423 1.834 16.5523 1.852C16.4683 1.864 16.3843 1.87 16.3003 1.87C16.2043 1.87 16.1203 1.861 16.0483 1.843C15.9763 1.825 15.8953 1.804 15.8053 1.78C15.7213 1.756 15.6193 1.735 15.4993 1.717C15.3793 1.699 15.2233 1.69 15.0313 1.69C14.9833 1.69 14.9383 1.693 14.8963 1.699C14.8543 1.699 14.8153 1.699 14.7793 1.699C14.6653 1.711 14.6023 1.771 14.5903 1.879C14.5783 2.017 14.5633 2.152 14.5453 2.284C14.5333 2.416 14.5213 2.548 14.5093 2.68C14.4973 2.8 14.5483 2.86 14.6623 2.86H14.7613C14.9533 2.86 15.1063 2.851 15.2203 2.833C15.3343 2.815 15.4303 2.794 15.5083 2.77C15.5923 2.746 15.6733 2.725 15.7513 2.707C15.8293 2.689 15.9283 2.68 16.0483 2.68C16.1323 2.68 16.2163 2.692 16.3003 2.716C16.3903 2.734 16.4713 2.773 16.5433 2.833C16.6153 2.893 16.6723 2.98 16.7143 3.094C16.7623 3.208 16.7863 3.355 16.7863 3.535C16.7863 3.721 16.7623 3.871 16.7143 3.985C16.6663 4.093 16.6033 4.177 16.5253 4.237C16.4533 4.297 16.3723 4.339 16.2823 4.363C16.1983 4.381 16.1143 4.39 16.0303 4.39C15.9343 4.39 15.8503 4.381 15.7783 4.363C15.7063 4.345 15.6253 4.324 15.5353 4.3C15.4513 4.276 15.3493 4.255 15.2293 4.237C15.1093 4.219 14.9533 4.21 14.7613 4.21H14.6443C14.5963 4.21 14.5543 4.228 14.5183 4.264C14.4883 4.294 14.4763 4.336 14.4823 4.39C14.4943 4.522 14.5063 4.654 14.5183 4.786C14.5363 4.912 14.5543 5.044 14.5723 5.182C14.5843 5.296 14.6473 5.359 14.7613 5.371ZM20.3474 5.425C20.3054 5.581 20.2544 5.746 20.1944 5.92C20.1404 6.088 20.0654 6.286 19.9694 6.514C19.9214 6.634 19.8434 6.745 19.7354 6.847C19.6334 6.949 19.4894 7 19.3034 7C19.1774 7 19.0244 6.964 18.8444 6.892C18.6764 6.82 18.5474 6.739 18.4574 6.649C18.3674 6.553 18.3044 6.457 18.2684 6.361C18.2384 6.259 18.2294 6.16 18.2414 6.064C18.2534 5.968 18.2774 5.881 18.3134 5.803C18.6734 4.963 18.9974 4.123 19.2854 3.283C19.5734 2.443 19.8644 1.582 20.1584 0.7C20.2064 0.562 20.3144 0.448 20.4824 0.358C20.6504 0.268 20.8604 0.223 21.1124 0.223C21.3644 0.223 21.5744 0.268 21.7424 0.358C21.9104 0.448 22.0184 0.562 22.0664 0.7C22.3664 1.582 22.6574 2.443 22.9394 3.283C23.2274 4.123 23.5514 4.963 23.9114 5.803C23.9474 5.881 23.9714 5.968 23.9834 6.064C23.9954 6.16 23.9834 6.259 23.9474 6.361C23.9174 6.457 23.8574 6.553 23.7674 6.649C23.6834 6.739 23.5544 6.82 23.3804 6.892C23.2004 6.964 23.0474 7 22.9214 7C22.7354 7 22.5884 6.949 22.4804 6.847C22.3784 6.745 22.3034 6.634 22.2554 6.514C22.1594 6.286 22.0814 6.085 22.0214 5.911C21.9674 5.737 21.9194 5.572 21.8774 5.416C21.8474 5.302 21.7754 5.239 21.6614 5.227C21.6074 5.221 21.5504 5.218 21.4904 5.218C21.4364 5.218 21.3764 5.218 21.3104 5.218H20.9504C20.8724 5.218 20.8004 5.221 20.7344 5.227C20.6744 5.227 20.6174 5.23 20.5634 5.236C20.4494 5.248 20.3774 5.311 20.3474 5.425ZM21.0584 2.239C21.0344 2.323 21.0074 2.428 20.9774 2.554C20.9474 2.68 20.9174 2.815 20.8874 2.959C20.8574 3.103 20.8274 3.25 20.7974 3.4C20.7734 3.55 20.7464 3.694 20.7164 3.832C20.6984 3.952 20.7434 4.012 20.8514 4.012H20.9504H21.3104H21.3734C21.4814 4.012 21.5264 3.955 21.5084 3.841C21.4844 3.703 21.4574 3.559 21.4274 3.409C21.3974 3.259 21.3674 3.112 21.3374 2.968C21.3074 2.824 21.2774 2.689 21.2474 2.563C21.2174 2.431 21.1904 2.323 21.1664 2.239C21.1544 2.191 21.1364 2.167 21.1124 2.167C21.0884 2.167 21.0704 2.191 21.0584 2.239ZM29.6908 6.325C29.6308 6.529 29.5198 6.694 29.3578 6.82C29.1958 6.94 29.0098 7 28.7998 7H28.7908C28.5808 7 28.3948 6.94 28.2328 6.82C28.0708 6.694 27.9598 6.529 27.8998 6.325L26.8918 2.824C26.8798 2.776 26.8678 2.752 26.8558 2.752C26.8438 2.746 26.8378 2.77 26.8378 2.824C26.8318 2.914 26.8288 3.013 26.8288 3.121C26.8288 3.223 26.8288 3.301 26.8288 3.355V3.625C26.8288 3.817 26.8408 4.021 26.8648 4.237C26.8948 4.447 26.9278 4.663 26.9638 4.885C26.9998 5.107 27.0298 5.335 27.0538 5.569C27.0838 5.797 27.0988 6.028 27.0988 6.262C27.0988 6.346 27.0808 6.433 27.0448 6.523C27.0088 6.607 26.9518 6.685 26.8738 6.757C26.7958 6.829 26.6938 6.889 26.5678 6.937C26.4418 6.979 26.2888 7 26.1088 7C25.9228 7 25.7698 6.976 25.6498 6.928C25.5358 6.88 25.4458 6.82 25.3798 6.748C25.3138 6.67 25.2688 6.589 25.2448 6.505C25.2208 6.415 25.2088 6.328 25.2088 6.244C25.2088 6.034 25.2178 5.83 25.2358 5.632C25.2538 5.434 25.2748 5.239 25.2988 5.047C25.3228 4.849 25.3438 4.657 25.3618 4.471C25.3798 4.279 25.3888 4.087 25.3888 3.895V3.355C25.3888 3.163 25.3798 2.983 25.3618 2.815C25.3438 2.641 25.3228 2.47 25.2988 2.302C25.2748 2.128 25.2538 1.951 25.2358 1.771C25.2178 1.591 25.2088 1.396 25.2088 1.186C25.2088 0.928 25.3168 0.709 25.5328 0.529C25.7548 0.349 26.0518 0.256 26.4238 0.249999H26.7208C26.9968 0.249999 27.2368 0.330999 27.4408 0.493C27.6508 0.655 27.7888 0.871 27.8548 1.141L28.7008 4.642C28.7308 4.762 28.7638 4.822 28.7998 4.822C28.8358 4.822 28.8688 4.762 28.8988 4.642L29.7358 1.141C29.8018 0.871 29.9368 0.655 30.1408 0.493C30.3508 0.330999 30.5938 0.249999 30.8698 0.249999H31.1668C31.5388 0.256 31.8178 0.349 32.0038 0.529C32.1958 0.709 32.2918 0.928 32.2918 1.186C32.2918 1.396 32.2828 1.591 32.2648 1.771C32.2468 1.951 32.2258 2.128 32.2018 2.302C32.1778 2.47 32.1568 2.641 32.1388 2.815C32.1208 2.983 32.1118 3.163 32.1118 3.355V3.895C32.1118 4.087 32.1208 4.279 32.1388 4.471C32.1568 4.657 32.1778 4.849 32.2018 5.047C32.2258 5.239 32.2468 5.434 32.2648 5.632C32.2828 5.83 32.2918 6.034 32.2918 6.244C32.2918 6.328 32.2798 6.415 32.2558 6.505C32.2378 6.589 32.1988 6.67 32.1388 6.748C32.0788 6.82 31.9918 6.88 31.8778 6.928C31.7698 6.976 31.6228 7 31.4368 7C31.2568 7 31.1038 6.979 30.9778 6.937C30.8578 6.889 30.7618 6.829 30.6898 6.757C30.6178 6.685 30.5668 6.607 30.5368 6.523C30.5068 6.433 30.4918 6.346 30.4918 6.262C30.4918 6.028 30.5038 5.797 30.5278 5.569C30.5578 5.335 30.5908 5.107 30.6268 4.885C30.6628 4.663 30.6928 4.447 30.7168 4.237C30.7468 4.021 30.7618 3.817 30.7618 3.625V3.355C30.7618 3.301 30.7618 3.223 30.7618 3.121C30.7618 3.013 30.7588 2.914 30.7528 2.824C30.7528 2.77 30.7468 2.746 30.7348 2.752C30.7228 2.752 30.7108 2.776 30.6988 2.824L29.6908 6.325ZM35.351 5.02C35.375 5.212 35.396 5.41 35.414 5.614C35.432 5.812 35.441 6.028 35.441 6.262C35.441 6.346 35.429 6.433 35.405 6.523C35.381 6.607 35.333 6.685 35.261 6.757C35.195 6.829 35.102 6.889 34.982 6.937C34.868 6.979 34.721 7 34.541 7C34.355 7 34.202 6.976 34.082 6.928C33.968 6.88 33.878 6.82 33.812 6.748C33.746 6.67 33.701 6.589 33.677 6.505C33.653 6.415 33.641 6.328 33.641 6.244C33.641 6.034 33.65 5.83 33.668 5.632C33.686 5.434 33.707 5.239 33.731 5.047C33.755 4.849 33.776 4.657 33.794 4.471C33.812 4.279 33.821 4.087 33.821 3.895V3.355C33.821 3.163 33.812 2.974 33.794 2.788C33.776 2.596 33.755 2.404 33.731 2.212C33.707 2.014 33.686 1.816 33.668 1.618C33.65 1.42 33.641 1.216 33.641 1.006C33.641 0.922 33.653 0.838 33.677 0.754C33.701 0.664 33.746 0.583 33.812 0.511C33.884 0.433 33.977 0.37 34.091 0.322C34.211 0.274 34.364 0.249999 34.55 0.249999H35.72C36.644 0.249999 37.346 0.444999 37.826 0.834999C38.312 1.225 38.555 1.795 38.555 2.545C38.555 2.905 38.48 3.229 38.33 3.517C38.186 3.805 37.985 4.048 37.727 4.246C37.475 4.444 37.175 4.597 36.827 4.705C36.485 4.813 36.116 4.867 35.72 4.867H35.486C35.384 4.867 35.339 4.918 35.351 5.02ZM35.72 3.625C35.954 3.625 36.149 3.592 36.305 3.526C36.467 3.46 36.599 3.376 36.701 3.274C36.803 3.166 36.875 3.049 36.917 2.923C36.965 2.791 36.989 2.662 36.989 2.536C36.989 2.41 36.971 2.287 36.935 2.167C36.899 2.047 36.833 1.939 36.737 1.843C36.641 1.747 36.509 1.669 36.341 1.609C36.179 1.549 35.972 1.519 35.72 1.519H35.576C35.48 1.519 35.426 1.57 35.414 1.672C35.384 1.978 35.351 2.263 35.315 2.527C35.279 2.791 35.261 3.067 35.261 3.355V3.472C35.261 3.574 35.312 3.625 35.414 3.625H35.72ZM0.18 13.625C0.18 13.163 0.24 12.725 0.36 12.311C0.48 11.891 0.66 11.522 0.9 11.204C1.14 10.886 1.437 10.634 1.791 10.448C2.145 10.256 2.556 10.16 3.024 10.16C3.486 10.16 3.891 10.256 4.239 10.448C4.593 10.634 4.89 10.886 5.13 11.204C5.37 11.522 5.55 11.891 5.67 12.311C5.796 12.725 5.859 13.163 5.859 13.625C5.859 14.165 5.802 14.651 5.688 15.083C5.58 15.509 5.409 15.872 5.175 16.172C4.941 16.466 4.644 16.694 4.284 16.856C3.93 17.012 3.51 17.09 3.024 17.09C2.532 17.09 2.106 17.012 1.746 16.856C1.392 16.694 1.098 16.466 0.864 16.172C0.63 15.872 0.456 15.509 0.342 15.083C0.234 14.651 0.18 14.165 0.18 13.625ZM1.755 13.616C1.755 13.922 1.776 14.201 1.818 14.453C1.866 14.699 1.941 14.909 2.043 15.083C2.145 15.257 2.274 15.392 2.43 15.488C2.592 15.584 2.79 15.632 3.024 15.632C3.258 15.632 3.453 15.584 3.609 15.488C3.771 15.392 3.903 15.257 4.005 15.083C4.107 14.909 4.179 14.699 4.221 14.453C4.269 14.201 4.293 13.922 4.293 13.616C4.293 13.31 4.275 13.025 4.239 12.761C4.203 12.497 4.137 12.266 4.041 12.068C3.945 11.87 3.813 11.714 3.645 11.6C3.483 11.486 3.276 11.429 3.024 11.429C2.772 11.429 2.562 11.486 2.394 11.6C2.232 11.714 2.103 11.87 2.007 12.068C1.911 12.266 1.845 12.497 1.809 12.761C1.773 13.025 1.755 13.31 1.755 13.616ZM10.4121 16.667C10.3701 16.607 10.3461 16.55 10.3401 16.496L8.77409 13.22C8.75009 13.172 8.72909 13.151 8.71109 13.157C8.69909 13.157 8.69309 13.184 8.69309 13.238V13.355V13.625C8.69309 13.817 8.70509 14.021 8.72909 14.237C8.75909 14.447 8.79209 14.663 8.82809 14.885C8.86409 15.107 8.89409 15.335 8.91809 15.569C8.94809 15.797 8.96309 16.028 8.96309 16.262C8.96309 16.346 8.94809 16.433 8.91809 16.523C8.88809 16.607 8.83709 16.685 8.76509 16.757C8.69309 16.829 8.59409 16.889 8.46809 16.937C8.34809 16.979 8.19809 17 8.01809 17C7.83209 17 7.68209 16.976 7.56809 16.928C7.46009 16.88 7.37609 16.82 7.31609 16.748C7.25609 16.67 7.21409 16.589 7.19009 16.505C7.17209 16.415 7.16309 16.328 7.16309 16.244C7.16309 16.034 7.17209 15.83 7.19009 15.632C7.20809 15.434 7.22909 15.239 7.25309 15.047C7.27709 14.849 7.29809 14.657 7.31609 14.471C7.33409 14.279 7.34309 14.087 7.34309 13.895V13.355C7.34309 13.163 7.33409 12.974 7.31609 12.788C7.29809 12.596 7.27709 12.404 7.25309 12.212C7.22909 12.014 7.20809 11.816 7.19009 11.618C7.17209 11.42 7.16309 11.216 7.16309 11.006C7.16309 10.922 7.17209 10.838 7.19009 10.754C7.21409 10.664 7.25609 10.583 7.31609 10.511C7.37609 10.433 7.46009 10.37 7.56809 10.322C7.68209 10.274 7.83209 10.25 8.01809 10.25H8.39609C8.51609 10.25 8.62709 10.283 8.72909 10.349C8.83109 10.409 8.90609 10.49 8.95409 10.592L10.4121 13.562C10.4361 13.61 10.4541 13.634 10.4661 13.634C10.4841 13.628 10.4931 13.598 10.4931 13.544V13.355C10.4931 13.163 10.4781 12.974 10.4481 12.788C10.4241 12.596 10.3941 12.404 10.3581 12.212C10.3221 12.014 10.2891 11.816 10.2591 11.618C10.2351 11.42 10.2231 11.216 10.2231 11.006C10.2231 10.922 10.2381 10.838 10.2681 10.754C10.2981 10.664 10.3491 10.583 10.4211 10.511C10.4931 10.433 10.5891 10.37 10.7091 10.322C10.8291 10.274 10.9821 10.25 11.1681 10.25C11.3481 10.25 11.4951 10.274 11.6091 10.322C11.7231 10.364 11.8101 10.421 11.8701 10.493C11.9301 10.565 11.9691 10.646 11.9871 10.736C12.0111 10.82 12.0231 10.904 12.0231 10.988C12.0231 11.222 12.0141 11.441 11.9961 11.645C11.9781 11.849 11.9571 12.047 11.9331 12.239C11.9091 12.425 11.8881 12.611 11.8701 12.797C11.8521 12.977 11.8431 13.163 11.8431 13.355V13.895C11.8431 14.087 11.8521 14.276 11.8701 14.462C11.8881 14.642 11.9091 14.828 11.9331 15.02C11.9571 15.206 11.9781 15.401 11.9961 15.605C12.0141 15.809 12.0231 16.028 12.0231 16.262C12.0231 16.34 12.0141 16.421 11.9961 16.505C11.9781 16.589 11.9391 16.667 11.8791 16.739C11.8251 16.811 11.7471 16.871 11.6451 16.919C11.5491 16.967 11.4201 16.994 11.2581 17H10.9521C10.8501 17 10.7511 16.97 10.6551 16.91C10.5591 16.85 10.4781 16.769 10.4121 16.667Z" fill="black"/>
</svg>
