<svg width="55" height="25" viewBox="0 0 55 25" fill="none" xmlns="http://www.w3.org/2000/svg">
<path d="M2.795 7.14C2.82967 7.41733 2.86 7.70333 2.886 7.998C2.912 8.284 2.925 8.596 2.925 8.934C2.925 9.05533 2.90767 9.181 2.873 9.311C2.83833 9.43233 2.769 9.545 2.665 9.649C2.56967 9.753 2.43533 9.83967 2.262 9.909C2.09733 9.96967 1.885 10 1.625 10C1.35633 10 1.13533 9.96533 0.962 9.896C0.797333 9.82667 0.667333 9.74 0.572 9.636C0.476667 9.52333 0.411667 9.40633 0.377 9.285C0.342333 9.155 0.325 9.02933 0.325 8.908C0.325 8.60467 0.338 8.31 0.364 8.024C0.39 7.738 0.420333 7.45633 0.455 7.179C0.489667 6.893 0.52 6.61567 0.546 6.347C0.572 6.06967 0.585 5.79233 0.585 5.515V4.735C0.585 4.45767 0.572 4.18467 0.546 3.916C0.52 3.63867 0.489667 3.36133 0.455 3.084C0.420333 2.798 0.39 2.512 0.364 2.226C0.338 1.94 0.325 1.64533 0.325 1.342C0.325 1.22067 0.342333 1.09933 0.377 0.978C0.411667 0.848 0.476667 0.730999 0.572 0.627C0.676 0.514333 0.810333 0.423333 0.975 0.353999C1.14833 0.284666 1.36933 0.249999 1.638 0.249999H3.328C4.66267 0.249999 5.67667 0.531666 6.37 1.095C7.072 1.65833 7.423 2.48167 7.423 3.565C7.423 4.085 7.31467 4.553 7.098 4.969C6.89 5.385 6.59967 5.736 6.227 6.022C5.863 6.308 5.42967 6.529 4.927 6.685C4.433 6.841 3.9 6.919 3.328 6.919H2.99C2.84267 6.919 2.77767 6.99267 2.795 7.14ZM3.328 5.125C3.666 5.125 3.94767 5.07733 4.173 4.982C4.407 4.88667 4.59767 4.76533 4.745 4.618C4.89233 4.462 4.99633 4.293 5.057 4.111C5.12633 3.92033 5.161 3.734 5.161 3.552C5.161 3.37 5.135 3.19233 5.083 3.019C5.031 2.84567 4.93567 2.68967 4.797 2.551C4.65833 2.41233 4.46767 2.29967 4.225 2.213C3.991 2.12633 3.692 2.083 3.328 2.083H3.12C2.98133 2.083 2.90333 2.15667 2.886 2.304C2.84267 2.746 2.795 3.15767 2.743 3.539C2.691 3.92033 2.665 4.319 2.665 4.735V4.904C2.665 5.05133 2.73867 5.125 2.886 5.125H3.328ZM11.3987 6.607C11.442 6.971 11.481 7.33933 11.5157 7.712C11.559 8.076 11.5807 8.48333 11.5807 8.934C11.5807 9.05533 11.5633 9.181 11.5287 9.311C11.494 9.43233 11.4247 9.545 11.3207 9.649C11.2253 9.753 11.091 9.83967 10.9177 9.909C10.753 9.96967 10.5407 10 10.2807 10C10.012 10 9.791 9.96533 9.61766 9.896C9.453 9.82667 9.323 9.74 9.22766 9.636C9.13233 9.52333 9.06733 9.40633 9.03266 9.285C8.998 9.155 8.98066 9.02933 8.98066 8.908C8.98066 8.60467 8.99366 8.31 9.01966 8.024C9.04566 7.738 9.076 7.45633 9.11066 7.179C9.14533 6.893 9.17566 6.61567 9.20166 6.347C9.22766 6.06967 9.24066 5.79233 9.24066 5.515V4.735C9.24066 4.45767 9.22766 4.18467 9.20166 3.916C9.17566 3.63867 9.14533 3.36133 9.11066 3.084C9.076 2.798 9.04566 2.512 9.01966 2.226C8.99366 1.94 8.98066 1.64533 8.98066 1.342C8.98066 1.22067 8.998 1.09933 9.03266 0.978C9.06733 0.848 9.13233 0.730999 9.22766 0.627C9.33166 0.514333 9.466 0.423333 9.63066 0.353999C9.804 0.284666 10.025 0.249999 10.2937 0.249999H11.9837C13.3097 0.249999 14.3237 0.492666 15.0257 0.978C15.7277 1.45467 16.0787 2.23033 16.0787 3.305C16.0787 3.93767 15.927 4.47067 15.6237 4.904C15.329 5.32867 14.9217 5.66667 14.4017 5.918C14.2717 5.98733 14.2543 6.06967 14.3497 6.165C14.6183 6.44233 14.8957 6.71967 15.1817 6.997C15.4763 7.27433 15.7753 7.59933 16.0787 7.972C16.1567 8.06733 16.2173 8.17567 16.2607 8.297C16.3127 8.41833 16.3343 8.55267 16.3257 8.7C16.317 8.83867 16.2693 8.99033 16.1827 9.155C16.096 9.311 15.9487 9.467 15.7407 9.623C15.5327 9.78767 15.3377 9.896 15.1557 9.948C14.9823 10 14.822 10.0173 14.6747 10C14.536 9.974 14.4147 9.922 14.3107 9.844C14.2067 9.766 14.1157 9.67933 14.0377 9.584C13.847 9.35 13.6693 9.11167 13.5047 8.869C13.3487 8.62633 13.197 8.388 13.0497 8.154C12.9023 7.92 12.7507 7.69033 12.5947 7.465C12.4473 7.23967 12.287 7.01867 12.1137 6.802L11.9187 6.555C11.832 6.451 11.7193 6.399 11.5807 6.399C11.442 6.399 11.3813 6.46833 11.3987 6.607ZM11.9837 4.605C12.651 4.605 13.1233 4.47933 13.4007 4.228C13.678 3.968 13.8167 3.656 13.8167 3.292C13.8167 3.11 13.7907 2.94533 13.7387 2.798C13.6867 2.65067 13.5913 2.525 13.4527 2.421C13.314 2.317 13.1233 2.23467 12.8807 2.174C12.6467 2.11333 12.3477 2.083 11.9837 2.083H11.7757C11.637 2.083 11.559 2.15667 11.5417 2.304C11.507 2.67667 11.468 3.032 11.4247 3.37C11.3813 3.69933 11.351 4.03733 11.3337 4.384C11.3337 4.53133 11.403 4.605 11.5417 4.605H11.9837ZM20.6719 7.647C20.7239 7.65567 20.7803 7.66 20.8409 7.66C20.9016 7.66 20.9666 7.66 21.0359 7.66C21.3133 7.66 21.5343 7.647 21.6989 7.621C21.8636 7.595 22.0023 7.56467 22.1149 7.53C22.2363 7.49533 22.3533 7.465 22.4659 7.439C22.5786 7.413 22.7216 7.4 22.8949 7.4C23.0163 7.4 23.1376 7.41733 23.2589 7.452C23.3889 7.48667 23.5059 7.556 23.6099 7.66C23.7139 7.75533 23.7963 7.88967 23.8569 8.063C23.9263 8.22767 23.9609 8.44 23.9609 8.7C23.9609 8.96867 23.9263 9.18967 23.8569 9.363C23.7876 9.52767 23.6966 9.65767 23.5839 9.753C23.4799 9.84833 23.3629 9.91333 23.2329 9.948C23.1116 9.98267 22.9903 10 22.8689 10C22.7303 10 22.6089 9.987 22.5049 9.961C22.4009 9.935 22.2839 9.90467 22.1539 9.87C22.0326 9.83533 21.8853 9.805 21.7119 9.779C21.5386 9.753 21.3133 9.74 21.0359 9.74C20.7759 9.74 20.5636 9.753 20.3989 9.779C20.2343 9.79633 20.0913 9.82233 19.9699 9.857C19.7793 9.95233 19.5236 10 19.2029 10C18.8389 10 18.5313 9.91767 18.2799 9.753C18.0286 9.57967 17.9029 9.298 17.9029 8.908C17.9029 8.60467 17.9159 8.31 17.9419 8.024C17.9679 7.738 17.9983 7.45633 18.0329 7.179C18.0676 6.893 18.0979 6.61567 18.1239 6.347C18.1499 6.06967 18.1629 5.79233 18.1629 5.515V4.735C18.1629 4.45767 18.1499 4.18467 18.1239 3.916C18.0979 3.63867 18.0676 3.36133 18.0329 3.084C17.9983 2.798 17.9679 2.512 17.9419 2.226C17.9159 1.94 17.9029 1.64533 17.9029 1.342C17.9029 1.238 17.9159 1.12967 17.9419 1.017C17.9679 0.895666 18.0156 0.787333 18.0849 0.692C18.1629 0.596666 18.2626 0.509999 18.3839 0.431999C18.5139 0.353999 18.6786 0.301999 18.8779 0.276C18.9299 0.258666 18.9819 0.249999 19.0339 0.249999C19.0946 0.249999 19.1509 0.249999 19.2029 0.249999C19.4629 0.249999 19.6839 0.284666 19.8659 0.353999C19.9959 0.397333 20.1433 0.436333 20.3079 0.470999C20.4813 0.497 20.7326 0.51 21.0619 0.51C21.3393 0.51 21.5603 0.497 21.7249 0.470999C21.8896 0.444999 22.0283 0.414666 22.1409 0.38C22.2623 0.345333 22.3793 0.315 22.4919 0.288999C22.6046 0.262999 22.7476 0.249999 22.9209 0.249999C23.0423 0.249999 23.1636 0.262999 23.2849 0.288999C23.4149 0.306333 23.5319 0.358333 23.6359 0.445C23.7399 0.523 23.8223 0.64 23.8829 0.796C23.9523 0.951999 23.9869 1.16 23.9869 1.42C23.9869 1.68867 23.9523 1.901 23.8829 2.057C23.8136 2.213 23.7226 2.33 23.6099 2.408C23.5059 2.486 23.3889 2.538 23.2589 2.564C23.1376 2.58133 23.0163 2.59 22.8949 2.59C22.7563 2.59 22.6349 2.577 22.5309 2.551C22.4269 2.525 22.3099 2.49467 22.1799 2.46C22.0586 2.42533 21.9113 2.395 21.7379 2.369C21.5646 2.343 21.3393 2.33 21.0619 2.33C20.9926 2.33 20.9276 2.33433 20.8669 2.343C20.8063 2.343 20.7499 2.343 20.6979 2.343C20.5333 2.36033 20.4423 2.447 20.4249 2.603C20.4076 2.80233 20.3859 2.99733 20.3599 3.188C20.3426 3.37867 20.3253 3.56933 20.3079 3.76C20.2906 3.93333 20.3643 4.02 20.5289 4.02H20.6719C20.9493 4.02 21.1703 4.007 21.3349 3.981C21.4996 3.955 21.6383 3.92467 21.7509 3.89C21.8723 3.85533 21.9893 3.825 22.1019 3.799C22.2146 3.773 22.3576 3.76 22.5309 3.76C22.6523 3.76 22.7736 3.77733 22.8949 3.812C23.0249 3.838 23.1419 3.89433 23.2459 3.981C23.3499 4.06767 23.4323 4.19333 23.4929 4.358C23.5623 4.52267 23.5969 4.735 23.5969 4.995C23.5969 5.26367 23.5623 5.48033 23.4929 5.645C23.4236 5.801 23.3326 5.92233 23.2199 6.009C23.1159 6.09567 22.9989 6.15633 22.8689 6.191C22.7476 6.217 22.6263 6.23 22.5049 6.23C22.3663 6.23 22.2449 6.217 22.1409 6.191C22.0369 6.165 21.9199 6.13467 21.7899 6.1C21.6686 6.06533 21.5213 6.035 21.3479 6.009C21.1746 5.983 20.9493 5.97 20.6719 5.97H20.5029C20.4336 5.97 20.3729 5.996 20.3209 6.048C20.2776 6.09133 20.2603 6.152 20.2689 6.23C20.2863 6.42067 20.3036 6.61133 20.3209 6.802C20.3469 6.984 20.3729 7.17467 20.3989 7.374C20.4163 7.53867 20.5073 7.62967 20.6719 7.647ZM28.4157 7.725C28.355 7.95033 28.2813 8.18867 28.1947 8.44C28.1167 8.68267 28.0083 8.96867 27.8697 9.298C27.8003 9.47133 27.6877 9.63167 27.5317 9.779C27.3843 9.92633 27.1763 10 26.9077 10C26.7257 10 26.5047 9.948 26.2447 9.844C26.002 9.74 25.8157 9.623 25.6857 9.493C25.5557 9.35433 25.4647 9.21567 25.4127 9.077C25.3693 8.92967 25.3563 8.78667 25.3737 8.648C25.391 8.50933 25.4257 8.38367 25.4777 8.271C25.9977 7.05767 26.4657 5.84433 26.8817 4.631C27.2977 3.41767 27.718 2.174 28.1427 0.899999C28.212 0.700666 28.368 0.535999 28.6107 0.406C28.8533 0.276 29.1567 0.211 29.5207 0.211C29.8847 0.211 30.188 0.276 30.4307 0.406C30.6733 0.535999 30.8293 0.700666 30.8987 0.899999C31.332 2.174 31.7523 3.41767 32.1597 4.631C32.5757 5.84433 33.0437 7.05767 33.5637 8.271C33.6157 8.38367 33.6503 8.50933 33.6677 8.648C33.685 8.78667 33.6677 8.92967 33.6157 9.077C33.5723 9.21567 33.4857 9.35433 33.3557 9.493C33.2343 9.623 33.048 9.74 32.7967 9.844C32.5367 9.948 32.3157 10 32.1337 10C31.865 10 31.6527 9.92633 31.4967 9.779C31.3493 9.63167 31.241 9.47133 31.1717 9.298C31.033 8.96867 30.9203 8.67833 30.8337 8.427C30.7557 8.17567 30.6863 7.93733 30.6257 7.712C30.5823 7.54733 30.4783 7.45633 30.3137 7.439C30.2357 7.43033 30.1533 7.426 30.0667 7.426C29.9887 7.426 29.902 7.426 29.8067 7.426H29.2867C29.174 7.426 29.07 7.43033 28.9747 7.439C28.888 7.439 28.8057 7.44333 28.7277 7.452C28.563 7.46933 28.459 7.56033 28.4157 7.725ZM29.4427 3.123C29.408 3.24433 29.369 3.396 29.3257 3.578C29.2823 3.76 29.239 3.955 29.1957 4.163C29.1523 4.371 29.109 4.58333 29.0657 4.8C29.031 5.01667 28.992 5.22467 28.9487 5.424C28.9227 5.59733 28.9877 5.684 29.1437 5.684H29.2867H29.8067H29.8977C30.0537 5.684 30.1187 5.60167 30.0927 5.437C30.058 5.23767 30.019 5.02967 29.9757 4.813C29.9323 4.59633 29.889 4.384 29.8457 4.176C29.8023 3.968 29.759 3.773 29.7157 3.591C29.6723 3.40033 29.6333 3.24433 29.5987 3.123C29.5813 3.05367 29.5553 3.019 29.5207 3.019C29.486 3.019 29.46 3.05367 29.4427 3.123ZM41.5867 9.025C41.5 9.31967 41.3397 9.558 41.1057 9.74C40.8717 9.91333 40.603 10 40.2997 10H40.2867C39.9834 10 39.7147 9.91333 39.4807 9.74C39.2467 9.558 39.0864 9.31967 38.9997 9.025L37.5437 3.968C37.5264 3.89867 37.509 3.864 37.4917 3.864C37.4744 3.85533 37.4657 3.89 37.4657 3.968C37.457 4.098 37.4527 4.241 37.4527 4.397C37.4527 4.54433 37.4527 4.657 37.4527 4.735V5.125C37.4527 5.40233 37.47 5.697 37.5047 6.009C37.548 6.31233 37.5957 6.62433 37.6477 6.945C37.6997 7.26567 37.743 7.595 37.7777 7.933C37.821 8.26233 37.8427 8.596 37.8427 8.934C37.8427 9.05533 37.8167 9.181 37.7647 9.311C37.7127 9.43233 37.6304 9.545 37.5177 9.649C37.405 9.753 37.2577 9.83967 37.0757 9.909C36.8937 9.96967 36.6727 10 36.4127 10C36.144 10 35.923 9.96533 35.7497 9.896C35.585 9.82667 35.455 9.74 35.3597 9.636C35.2644 9.52333 35.1994 9.40633 35.1647 9.285C35.13 9.155 35.1127 9.02933 35.1127 8.908C35.1127 8.60467 35.1257 8.31 35.1517 8.024C35.1777 7.738 35.208 7.45633 35.2427 7.179C35.2774 6.893 35.3077 6.61567 35.3337 6.347C35.3597 6.06967 35.3727 5.79233 35.3727 5.515V4.735C35.3727 4.45767 35.3597 4.19767 35.3337 3.955C35.3077 3.70367 35.2774 3.45667 35.2427 3.214C35.208 2.96267 35.1777 2.707 35.1517 2.447C35.1257 2.187 35.1127 1.90533 35.1127 1.602C35.1127 1.22933 35.2687 0.913 35.5807 0.652999C35.9014 0.393 36.3304 0.258666 36.8677 0.249999H37.2967C37.6954 0.249999 38.042 0.366999 38.3367 0.600999C38.64 0.834999 38.8394 1.147 38.9347 1.537L40.1567 6.594C40.2 6.76733 40.2477 6.854 40.2997 6.854C40.3517 6.854 40.3994 6.76733 40.4427 6.594L41.6517 1.537C41.747 1.147 41.942 0.834999 42.2367 0.600999C42.54 0.366999 42.891 0.249999 43.2897 0.249999H43.7187C44.256 0.258666 44.659 0.393 44.9277 0.652999C45.205 0.913 45.3437 1.22933 45.3437 1.602C45.3437 1.90533 45.3307 2.187 45.3047 2.447C45.2787 2.707 45.2484 2.96267 45.2137 3.214C45.179 3.45667 45.1487 3.70367 45.1227 3.955C45.0967 4.19767 45.0837 4.45767 45.0837 4.735V5.515C45.0837 5.79233 45.0967 6.06967 45.1227 6.347C45.1487 6.61567 45.179 6.893 45.2137 7.179C45.2484 7.45633 45.2787 7.738 45.3047 8.024C45.3307 8.31 45.3437 8.60467 45.3437 8.908C45.3437 9.02933 45.3264 9.155 45.2917 9.285C45.2657 9.40633 45.2094 9.52333 45.1227 9.636C45.036 9.74 44.9104 9.82667 44.7457 9.896C44.5897 9.96533 44.3774 10 44.1087 10C43.8487 10 43.6277 9.96967 43.4457 9.909C43.2724 9.83967 43.1337 9.753 43.0297 9.649C42.9257 9.545 42.852 9.43233 42.8087 9.311C42.7654 9.181 42.7437 9.05533 42.7437 8.934C42.7437 8.596 42.761 8.26233 42.7957 7.933C42.839 7.595 42.8867 7.26567 42.9387 6.945C42.9907 6.62433 43.034 6.31233 43.0687 6.009C43.112 5.697 43.1337 5.40233 43.1337 5.125V4.735C43.1337 4.657 43.1337 4.54433 43.1337 4.397C43.1337 4.241 43.1294 4.098 43.1207 3.968C43.1207 3.89 43.112 3.85533 43.0947 3.864C43.0774 3.864 43.06 3.89867 43.0427 3.968L41.5867 9.025ZM49.4376 7.14C49.4722 7.41733 49.5026 7.70333 49.5286 7.998C49.5546 8.284 49.5676 8.596 49.5676 8.934C49.5676 9.05533 49.5502 9.181 49.5156 9.311C49.4809 9.43233 49.4116 9.545 49.3076 9.649C49.2122 9.753 49.0779 9.83967 48.9046 9.909C48.7399 9.96967 48.5276 10 48.2676 10C47.9989 10 47.7779 9.96533 47.6046 9.896C47.4399 9.82667 47.3099 9.74 47.2146 9.636C47.1192 9.52333 47.0542 9.40633 47.0196 9.285C46.9849 9.155 46.9676 9.02933 46.9676 8.908C46.9676 8.60467 46.9806 8.31 47.0066 8.024C47.0326 7.738 47.0629 7.45633 47.0976 7.179C47.1322 6.893 47.1626 6.61567 47.1886 6.347C47.2146 6.06967 47.2276 5.79233 47.2276 5.515V4.735C47.2276 4.45767 47.2146 4.18467 47.1886 3.916C47.1626 3.63867 47.1322 3.36133 47.0976 3.084C47.0629 2.798 47.0326 2.512 47.0066 2.226C46.9806 1.94 46.9676 1.64533 46.9676 1.342C46.9676 1.22067 46.9849 1.09933 47.0196 0.978C47.0542 0.848 47.1192 0.730999 47.2146 0.627C47.3186 0.514333 47.4529 0.423333 47.6176 0.353999C47.7909 0.284666 48.0119 0.249999 48.2806 0.249999H49.9706C51.3052 0.249999 52.3192 0.531666 53.0126 1.095C53.7146 1.65833 54.0656 2.48167 54.0656 3.565C54.0656 4.085 53.9572 4.553 53.7406 4.969C53.5326 5.385 53.2422 5.736 52.8696 6.022C52.5056 6.308 52.0722 6.529 51.5696 6.685C51.0756 6.841 50.5426 6.919 49.9706 6.919H49.6326C49.4852 6.919 49.4202 6.99267 49.4376 7.14ZM49.9706 5.125C50.3086 5.125 50.5902 5.07733 50.8156 4.982C51.0496 4.88667 51.2402 4.76533 51.3876 4.618C51.5349 4.462 51.6389 4.293 51.6996 4.111C51.7689 3.92033 51.8036 3.734 51.8036 3.552C51.8036 3.37 51.7776 3.19233 51.7256 3.019C51.6736 2.84567 51.5782 2.68967 51.4396 2.551C51.3009 2.41233 51.1102 2.29967 50.8676 2.213C50.6336 2.12633 50.3346 2.083 49.9706 2.083H49.7626C49.6239 2.083 49.5459 2.15667 49.5286 2.304C49.4852 2.746 49.4376 3.15767 49.3856 3.539C49.3336 3.92033 49.3076 4.319 49.3076 4.735V4.904C49.3076 5.05133 49.3812 5.125 49.5286 5.125H49.9706ZM0.26 19.125C0.26 18.4577 0.346667 17.825 0.52 17.227C0.693333 16.6203 0.953333 16.0873 1.3 15.628C1.64667 15.1687 2.07567 14.8047 2.587 14.536C3.09833 14.2587 3.692 14.12 4.368 14.12C5.03533 14.12 5.62033 14.2587 6.123 14.536C6.63433 14.8047 7.06333 15.1687 7.41 15.628C7.75667 16.0873 8.01667 16.6203 8.19 17.227C8.372 17.825 8.463 18.4577 8.463 19.125C8.463 19.905 8.38067 20.607 8.216 21.231C8.06 21.8463 7.813 22.3707 7.475 22.804C7.137 23.2287 6.708 23.558 6.188 23.792C5.67667 24.0173 5.07 24.13 4.368 24.13C3.65733 24.13 3.042 24.0173 2.522 23.792C2.01067 23.558 1.586 23.2287 1.248 22.804C0.91 22.3707 0.658667 21.8463 0.494 21.231C0.338 20.607 0.26 19.905 0.26 19.125ZM2.535 19.112C2.535 19.554 2.56533 19.957 2.626 20.321C2.69533 20.6763 2.80367 20.9797 2.951 21.231C3.09833 21.4823 3.28467 21.6773 3.51 21.816C3.744 21.9547 4.03 22.024 4.368 22.024C4.706 22.024 4.98767 21.9547 5.213 21.816C5.447 21.6773 5.63767 21.4823 5.785 21.231C5.93233 20.9797 6.03633 20.6763 6.097 20.321C6.16633 19.957 6.201 19.554 6.201 19.112C6.201 18.67 6.175 18.2583 6.123 17.877C6.071 17.4957 5.97567 17.162 5.837 16.876C5.69833 16.59 5.50767 16.3647 5.265 16.2C5.031 16.0353 4.732 15.953 4.368 15.953C4.004 15.953 3.70067 16.0353 3.458 16.2C3.224 16.3647 3.03767 16.59 2.899 16.876C2.76033 17.162 2.665 17.4957 2.613 17.877C2.561 18.2583 2.535 18.67 2.535 19.112ZM14.7147 23.519C14.654 23.4323 14.6193 23.35 14.6107 23.272L12.3487 18.54C12.314 18.4707 12.2837 18.4403 12.2577 18.449C12.2403 18.449 12.2317 18.488 12.2317 18.566V18.735V19.125C12.2317 19.4023 12.249 19.697 12.2837 20.009C12.327 20.3123 12.3747 20.6243 12.4267 20.945C12.4787 21.2657 12.522 21.595 12.5567 21.933C12.6 22.2623 12.6217 22.596 12.6217 22.934C12.6217 23.0553 12.6 23.181 12.5567 23.311C12.5133 23.4323 12.4397 23.545 12.3357 23.649C12.2317 23.753 12.0887 23.8397 11.9067 23.909C11.7333 23.9697 11.5167 24 11.2567 24C10.988 24 10.7713 23.9653 10.6067 23.896C10.4507 23.8267 10.3293 23.74 10.2427 23.636C10.156 23.5233 10.0953 23.4063 10.0607 23.285C10.0347 23.155 10.0217 23.0293 10.0217 22.908C10.0217 22.6047 10.0347 22.31 10.0607 22.024C10.0867 21.738 10.117 21.4563 10.1517 21.179C10.1863 20.893 10.2167 20.6157 10.2427 20.347C10.2687 20.0697 10.2817 19.7923 10.2817 19.515V18.735C10.2817 18.4577 10.2687 18.1847 10.2427 17.916C10.2167 17.6387 10.1863 17.3613 10.1517 17.084C10.117 16.798 10.0867 16.512 10.0607 16.226C10.0347 15.94 10.0217 15.6453 10.0217 15.342C10.0217 15.2207 10.0347 15.0993 10.0607 14.978C10.0953 14.848 10.156 14.731 10.2427 14.627C10.3293 14.5143 10.4507 14.4233 10.6067 14.354C10.7713 14.2847 10.988 14.25 11.2567 14.25H11.8027C11.976 14.25 12.1363 14.2977 12.2837 14.393C12.431 14.4797 12.5393 14.5967 12.6087 14.744L14.7147 19.034C14.7493 19.1033 14.7753 19.138 14.7927 19.138C14.8187 19.1293 14.8317 19.086 14.8317 19.008V18.735C14.8317 18.4577 14.81 18.1847 14.7667 17.916C14.732 17.6387 14.6887 17.3613 14.6367 17.084C14.5847 16.798 14.537 16.512 14.4937 16.226C14.459 15.94 14.4417 15.6453 14.4417 15.342C14.4417 15.2207 14.4633 15.0993 14.5067 14.978C14.55 14.848 14.6237 14.731 14.7277 14.627C14.8317 14.5143 14.9703 14.4233 15.1437 14.354C15.317 14.2847 15.538 14.25 15.8067 14.25C16.0667 14.25 16.279 14.2847 16.4437 14.354C16.6083 14.4147 16.734 14.497 16.8207 14.601C16.9073 14.705 16.9637 14.822 16.9897 14.952C17.0243 15.0733 17.0417 15.1947 17.0417 15.316C17.0417 15.654 17.0287 15.9703 17.0027 16.265C16.9767 16.5597 16.9463 16.8457 16.9117 17.123C16.877 17.3917 16.8467 17.6603 16.8207 17.929C16.7947 18.189 16.7817 18.4577 16.7817 18.735V19.515C16.7817 19.7923 16.7947 20.0653 16.8207 20.334C16.8467 20.594 16.877 20.8627 16.9117 21.14C16.9463 21.4087 16.9767 21.6903 17.0027 21.985C17.0287 22.2797 17.0417 22.596 17.0417 22.934C17.0417 23.0467 17.0287 23.1637 17.0027 23.285C16.9767 23.4063 16.9203 23.519 16.8337 23.623C16.7557 23.727 16.643 23.8137 16.4957 23.883C16.357 23.9523 16.1707 23.9913 15.9367 24H15.4947C15.3473 24 15.2043 23.9567 15.0657 23.87C14.927 23.7833 14.81 23.6663 14.7147 23.519Z" fill="black"/>
</svg>
