<svg width="49" height="25" viewBox="0 0 49 25" fill="none" xmlns="http://www.w3.org/2000/svg">
<path d="M12.8365 2.616C12.8191 2.98867 12.7975 3.344 12.7715 3.682C12.7541 4.02 12.7455 4.371 12.7455 4.735V5.515C12.7455 5.79233 12.7585 6.06533 12.7845 6.334C12.8105 6.594 12.8408 6.86267 12.8755 7.14C12.9101 7.40867 12.9405 7.69033 12.9665 7.985C12.9925 8.27967 13.0055 8.596 13.0055 8.934C13.0055 9.05533 12.9881 9.181 12.9535 9.311C12.9188 9.43233 12.8495 9.545 12.7455 9.649C12.6501 9.753 12.5158 9.83967 12.3425 9.909C12.1778 9.96967 11.9655 10 11.7055 10C11.4368 10 11.2158 9.96533 11.0425 9.896C10.8778 9.82667 10.7478 9.74 10.6525 9.636C10.5571 9.52333 10.4921 9.40633 10.4575 9.285C10.4228 9.155 10.4055 9.02933 10.4055 8.908C10.4055 8.60467 10.4185 8.31 10.4445 8.024C10.4705 7.738 10.5008 7.45633 10.5355 7.179C10.5701 6.893 10.6005 6.61567 10.6265 6.347C10.6525 6.06967 10.6655 5.79233 10.6655 5.515V4.735C10.6655 4.37967 10.6525 4.02867 10.6265 3.682C10.6091 3.33533 10.5918 2.98 10.5745 2.616C10.5571 2.46867 10.4791 2.408 10.3405 2.434C10.1758 2.47733 10.0285 2.51633 9.89846 2.551C9.77713 2.577 9.63846 2.59 9.48246 2.59C9.36113 2.59 9.23546 2.58133 9.10546 2.564C8.98413 2.538 8.86713 2.486 8.75446 2.408C8.65046 2.33 8.56379 2.213 8.49446 2.057C8.42513 1.901 8.39046 1.68867 8.39046 1.42C8.39046 1.16 8.42079 0.951999 8.48146 0.796C8.55079 0.64 8.63746 0.523 8.74146 0.445C8.84546 0.358333 8.95813 0.306333 9.07946 0.288999C9.20946 0.262999 9.33513 0.249999 9.45646 0.249999C9.62979 0.249999 9.77713 0.262999 9.89846 0.288999C10.0285 0.306333 10.1585 0.327999 10.2885 0.353999C10.4271 0.371333 10.5831 0.393 10.7565 0.418999C10.9385 0.436333 11.1681 0.445 11.4455 0.445H11.9655C12.2428 0.445 12.4681 0.436333 12.6415 0.418999C12.8235 0.393 12.9795 0.371333 13.1095 0.353999C13.2481 0.327999 13.3781 0.306333 13.4995 0.288999C13.6295 0.262999 13.7811 0.249999 13.9545 0.249999C14.0758 0.249999 14.1971 0.262999 14.3185 0.288999C14.4485 0.306333 14.5655 0.358333 14.6695 0.445C14.7735 0.523 14.8558 0.64 14.9165 0.796C14.9858 0.951999 15.0205 1.16 15.0205 1.42C15.0205 1.68867 14.9858 1.901 14.9165 2.057C14.8471 2.213 14.7561 2.33 14.6435 2.408C14.5395 2.486 14.4225 2.538 14.2925 2.564C14.1711 2.58133 14.0498 2.59 13.9285 2.59C13.7725 2.59 13.6295 2.577 13.4995 2.551C13.3781 2.51633 13.2351 2.47733 13.0705 2.434C12.9318 2.408 12.8538 2.46867 12.8365 2.616ZM15.9952 5.125C15.9952 4.45767 16.0818 3.825 16.2552 3.227C16.4285 2.62033 16.6885 2.08733 17.0352 1.628C17.3818 1.16867 17.8108 0.804666 18.3222 0.535999C18.8335 0.258666 19.4272 0.119999 20.1032 0.119999C20.7705 0.119999 21.3555 0.258666 21.8582 0.535999C22.3695 0.804666 22.7985 1.16867 23.1452 1.628C23.4918 2.08733 23.7518 2.62033 23.9252 3.227C24.1072 3.825 24.1982 4.45767 24.1982 5.125C24.1982 5.905 24.1158 6.607 23.9512 7.231C23.7952 7.84633 23.5482 8.37067 23.2102 8.804C22.8722 9.22867 22.4432 9.558 21.9232 9.792C21.4118 10.0173 20.8052 10.13 20.1032 10.13C19.3925 10.13 18.7772 10.0173 18.2572 9.792C17.7458 9.558 17.3212 9.22867 16.9832 8.804C16.6452 8.37067 16.3938 7.84633 16.2292 7.231C16.0732 6.607 15.9952 5.905 15.9952 5.125ZM18.2702 5.112C18.2702 5.554 18.3005 5.957 18.3612 6.321C18.4305 6.67633 18.5388 6.97967 18.6862 7.231C18.8335 7.48233 19.0198 7.67733 19.2452 7.816C19.4792 7.95467 19.7652 8.024 20.1032 8.024C20.4412 8.024 20.7228 7.95467 20.9482 7.816C21.1822 7.67733 21.3728 7.48233 21.5202 7.231C21.6675 6.97967 21.7715 6.67633 21.8322 6.321C21.9015 5.957 21.9362 5.554 21.9362 5.112C21.9362 4.67 21.9102 4.25833 21.8582 3.877C21.8062 3.49567 21.7108 3.162 21.5722 2.876C21.4335 2.59 21.2428 2.36467 21.0002 2.2C20.7662 2.03533 20.4672 1.953 20.1032 1.953C19.7392 1.953 19.4358 2.03533 19.1932 2.2C18.9592 2.36467 18.7728 2.59 18.6342 2.876C18.4955 3.162 18.4002 3.49567 18.3482 3.877C18.2962 4.25833 18.2702 4.67 18.2702 5.112ZM30.4498 9.519C30.3892 9.43233 30.3545 9.35 30.3458 9.272L28.0838 4.54C28.0492 4.47067 28.0188 4.44033 27.9928 4.449C27.9755 4.449 27.9668 4.488 27.9668 4.566V4.735V5.125C27.9668 5.40233 27.9842 5.697 28.0188 6.009C28.0622 6.31233 28.1098 6.62433 28.1618 6.945C28.2138 7.26567 28.2572 7.595 28.2918 7.933C28.3352 8.26233 28.3568 8.596 28.3568 8.934C28.3568 9.05533 28.3352 9.181 28.2918 9.311C28.2485 9.43233 28.1748 9.545 28.0708 9.649C27.9668 9.753 27.8238 9.83967 27.6418 9.909C27.4685 9.96967 27.2518 10 26.9918 10C26.7232 10 26.5065 9.96533 26.3418 9.896C26.1858 9.82667 26.0645 9.74 25.9778 9.636C25.8912 9.52333 25.8305 9.40633 25.7958 9.285C25.7698 9.155 25.7568 9.02933 25.7568 8.908C25.7568 8.60467 25.7698 8.31 25.7958 8.024C25.8218 7.738 25.8522 7.45633 25.8868 7.179C25.9215 6.893 25.9518 6.61567 25.9778 6.347C26.0038 6.06967 26.0168 5.79233 26.0168 5.515V4.735C26.0168 4.45767 26.0038 4.18467 25.9778 3.916C25.9518 3.63867 25.9215 3.36133 25.8868 3.084C25.8522 2.798 25.8218 2.512 25.7958 2.226C25.7698 1.94 25.7568 1.64533 25.7568 1.342C25.7568 1.22067 25.7698 1.09933 25.7958 0.978C25.8305 0.848 25.8912 0.730999 25.9778 0.627C26.0645 0.514333 26.1858 0.423333 26.3418 0.353999C26.5065 0.284666 26.7232 0.249999 26.9918 0.249999H27.5378C27.7112 0.249999 27.8715 0.297666 28.0188 0.393C28.1662 0.479666 28.2745 0.596666 28.3438 0.744L30.4498 5.034C30.4845 5.10333 30.5105 5.138 30.5278 5.138C30.5538 5.12933 30.5668 5.086 30.5668 5.008V4.735C30.5668 4.45767 30.5452 4.18467 30.5018 3.916C30.4672 3.63867 30.4238 3.36133 30.3718 3.084C30.3198 2.798 30.2722 2.512 30.2288 2.226C30.1942 1.94 30.1768 1.64533 30.1768 1.342C30.1768 1.22067 30.1985 1.09933 30.2418 0.978C30.2852 0.848 30.3588 0.730999 30.4628 0.627C30.5668 0.514333 30.7055 0.423333 30.8788 0.353999C31.0522 0.284666 31.2732 0.249999 31.5418 0.249999C31.8018 0.249999 32.0142 0.284666 32.1788 0.353999C32.3435 0.414666 32.4692 0.497 32.5558 0.600999C32.6425 0.705 32.6988 0.822 32.7248 0.951999C32.7595 1.07333 32.7768 1.19467 32.7768 1.316C32.7768 1.654 32.7638 1.97033 32.7378 2.265C32.7118 2.55967 32.6815 2.84567 32.6468 3.123C32.6122 3.39167 32.5818 3.66033 32.5558 3.929C32.5298 4.189 32.5168 4.45767 32.5168 4.735V5.515C32.5168 5.79233 32.5298 6.06533 32.5558 6.334C32.5818 6.594 32.6122 6.86267 32.6468 7.14C32.6815 7.40867 32.7118 7.69033 32.7378 7.985C32.7638 8.27967 32.7768 8.596 32.7768 8.934C32.7768 9.04667 32.7638 9.16367 32.7378 9.285C32.7118 9.40633 32.6555 9.519 32.5688 9.623C32.4908 9.727 32.3782 9.81367 32.2308 9.883C32.0922 9.95233 31.9058 9.99133 31.6718 10H31.2298C31.0825 10 30.9395 9.95667 30.8008 9.87C30.6622 9.78333 30.5452 9.66633 30.4498 9.519ZM37.1688 7.647C37.2208 7.65567 37.2771 7.66 37.3378 7.66C37.3985 7.66 37.4635 7.66 37.5328 7.66C37.8101 7.66 38.0311 7.647 38.1958 7.621C38.3605 7.595 38.4991 7.56467 38.6118 7.53C38.7331 7.49533 38.8501 7.465 38.9628 7.439C39.0755 7.413 39.2185 7.4 39.3918 7.4C39.5131 7.4 39.6345 7.41733 39.7558 7.452C39.8858 7.48667 40.0028 7.556 40.1068 7.66C40.2108 7.75533 40.2931 7.88967 40.3538 8.063C40.4231 8.22767 40.4578 8.44 40.4578 8.7C40.4578 8.96867 40.4231 9.18967 40.3538 9.363C40.2845 9.52767 40.1935 9.65767 40.0808 9.753C39.9768 9.84833 39.8598 9.91333 39.7298 9.948C39.6085 9.98267 39.4871 10 39.3658 10C39.2271 10 39.1058 9.987 39.0018 9.961C38.8978 9.935 38.7808 9.90467 38.6508 9.87C38.5295 9.83533 38.3821 9.805 38.2088 9.779C38.0355 9.753 37.8101 9.74 37.5328 9.74C37.2728 9.74 37.0605 9.753 36.8958 9.779C36.7311 9.79633 36.5881 9.82233 36.4668 9.857C36.2761 9.95233 36.0205 10 35.6998 10C35.3358 10 35.0281 9.91767 34.7768 9.753C34.5255 9.57967 34.3998 9.298 34.3998 8.908C34.3998 8.60467 34.4128 8.31 34.4388 8.024C34.4648 7.738 34.4951 7.45633 34.5298 7.179C34.5645 6.893 34.5948 6.61567 34.6208 6.347C34.6468 6.06967 34.6598 5.79233 34.6598 5.515V4.735C34.6598 4.45767 34.6468 4.18467 34.6208 3.916C34.5948 3.63867 34.5645 3.36133 34.5298 3.084C34.4951 2.798 34.4648 2.512 34.4388 2.226C34.4128 1.94 34.3998 1.64533 34.3998 1.342C34.3998 1.238 34.4128 1.12967 34.4388 1.017C34.4648 0.895666 34.5125 0.787333 34.5818 0.692C34.6598 0.596666 34.7595 0.509999 34.8808 0.431999C35.0108 0.353999 35.1755 0.301999 35.3748 0.276C35.4268 0.258666 35.4788 0.249999 35.5308 0.249999C35.5915 0.249999 35.6478 0.249999 35.6998 0.249999C35.9598 0.249999 36.1808 0.284666 36.3628 0.353999C36.4928 0.397333 36.6401 0.436333 36.8048 0.470999C36.9781 0.497 37.2295 0.51 37.5588 0.51C37.8361 0.51 38.0571 0.497 38.2218 0.470999C38.3865 0.444999 38.5251 0.414666 38.6378 0.38C38.7591 0.345333 38.8761 0.315 38.9888 0.288999C39.1015 0.262999 39.2445 0.249999 39.4178 0.249999C39.5391 0.249999 39.6605 0.262999 39.7818 0.288999C39.9118 0.306333 40.0288 0.358333 40.1328 0.445C40.2368 0.523 40.3191 0.64 40.3798 0.796C40.4491 0.951999 40.4838 1.16 40.4838 1.42C40.4838 1.68867 40.4491 1.901 40.3798 2.057C40.3105 2.213 40.2195 2.33 40.1068 2.408C40.0028 2.486 39.8858 2.538 39.7558 2.564C39.6345 2.58133 39.5131 2.59 39.3918 2.59C39.2531 2.59 39.1318 2.577 39.0278 2.551C38.9238 2.525 38.8068 2.49467 38.6768 2.46C38.5555 2.42533 38.4081 2.395 38.2348 2.369C38.0615 2.343 37.8361 2.33 37.5588 2.33C37.4895 2.33 37.4245 2.33433 37.3638 2.343C37.3031 2.343 37.2468 2.343 37.1948 2.343C37.0301 2.36033 36.9391 2.447 36.9218 2.603C36.9045 2.80233 36.8828 2.99733 36.8568 3.188C36.8395 3.37867 36.8221 3.56933 36.8048 3.76C36.7875 3.93333 36.8611 4.02 37.0258 4.02H37.1688C37.4461 4.02 37.6671 4.007 37.8318 3.981C37.9965 3.955 38.1351 3.92467 38.2478 3.89C38.3691 3.85533 38.4861 3.825 38.5988 3.799C38.7115 3.773 38.8545 3.76 39.0278 3.76C39.1491 3.76 39.2705 3.77733 39.3918 3.812C39.5218 3.838 39.6388 3.89433 39.7428 3.981C39.8468 4.06767 39.9291 4.19333 39.9898 4.358C40.0591 4.52267 40.0938 4.735 40.0938 4.995C40.0938 5.26367 40.0591 5.48033 39.9898 5.645C39.9205 5.801 39.8295 5.92233 39.7168 6.009C39.6128 6.09567 39.4958 6.15633 39.3658 6.191C39.2445 6.217 39.1231 6.23 39.0018 6.23C38.8631 6.23 38.7418 6.217 38.6378 6.191C38.5338 6.165 38.4168 6.13467 38.2868 6.1C38.1655 6.06533 38.0181 6.035 37.8448 6.009C37.6715 5.983 37.4461 5.97 37.1688 5.97H36.9998C36.9305 5.97 36.8698 5.996 36.8178 6.048C36.7745 6.09133 36.7571 6.152 36.7658 6.23C36.7831 6.42067 36.8005 6.61133 36.8178 6.802C36.8438 6.984 36.8698 7.17467 36.8958 7.374C36.9131 7.53867 37.0041 7.62967 37.1688 7.647ZM5.6663 21.491C5.78763 21.3437 5.92197 21.2397 6.0693 21.179C6.21663 21.1097 6.3683 21.075 6.5243 21.075C6.7323 21.075 6.93163 21.1313 7.1223 21.244C7.32163 21.348 7.4733 21.491 7.5773 21.673C7.6813 21.855 7.72463 22.063 7.7073 22.297C7.68997 22.5223 7.5773 22.7563 7.3693 22.999C7.03997 23.3803 6.64997 23.6663 6.1993 23.857C5.7573 24.039 5.2113 24.13 4.5613 24.13C3.82463 24.13 3.20063 24.0173 2.6893 23.792C2.18663 23.558 1.7793 23.2287 1.4673 22.804C1.1553 22.3707 0.929967 21.8463 0.791301 21.231C0.652634 20.607 0.583301 19.905 0.583301 19.125C0.583301 18.4577 0.656967 17.825 0.804301 17.227C0.951634 16.6203 1.18563 16.0873 1.5063 15.628C1.82697 15.1687 2.23863 14.8047 2.7413 14.536C3.24397 14.2587 3.85063 14.12 4.5613 14.12C4.8733 14.12 5.14197 14.1373 5.3673 14.172C5.59263 14.2067 5.7963 14.2543 5.9783 14.315C6.1603 14.3757 6.3293 14.4493 6.4853 14.536C6.6413 14.614 6.7973 14.705 6.9533 14.809C7.22197 14.9737 7.39097 15.1687 7.4603 15.394C7.52963 15.6107 7.53397 15.8187 7.4733 16.018C7.4213 16.2173 7.31297 16.3863 7.1483 16.525C6.9923 16.6637 6.81463 16.733 6.6153 16.733C6.47663 16.733 6.32497 16.6853 6.1603 16.59C5.91763 16.4253 5.6793 16.278 5.4453 16.148C5.2113 16.018 4.91663 15.953 4.5613 15.953C4.1973 15.953 3.90263 16.0353 3.6773 16.2C3.45197 16.3647 3.27863 16.59 3.1573 16.876C3.03597 17.162 2.95363 17.4957 2.9103 17.877C2.87563 18.2583 2.8583 18.67 2.8583 19.112C2.8583 19.554 2.8843 19.957 2.9363 20.321C2.9883 20.6763 3.0793 20.9797 3.2093 21.231C3.3393 21.4823 3.51263 21.6773 3.7293 21.816C3.94597 21.9547 4.2233 22.024 4.5613 22.024C4.83863 22.024 5.0553 21.9807 5.2113 21.894C5.3673 21.7987 5.51897 21.6643 5.6663 21.491ZM12.0461 21.647C12.0981 21.6557 12.1544 21.66 12.2151 21.66C12.2757 21.66 12.3407 21.66 12.4101 21.66C12.6874 21.66 12.9084 21.647 13.0731 21.621C13.2377 21.595 13.3764 21.5647 13.4891 21.53C13.6104 21.4953 13.7274 21.465 13.8401 21.439C13.9527 21.413 14.0957 21.4 14.2691 21.4C14.3904 21.4 14.5117 21.4173 14.6331 21.452C14.7631 21.4867 14.8801 21.556 14.9841 21.66C15.0881 21.7553 15.1704 21.8897 15.2311 22.063C15.3004 22.2277 15.3351 22.44 15.3351 22.7C15.3351 22.9687 15.3004 23.1897 15.2311 23.363C15.1617 23.5277 15.0707 23.6577 14.9581 23.753C14.8541 23.8483 14.7371 23.9133 14.6071 23.948C14.4857 23.9827 14.3644 24 14.2431 24C14.1044 24 13.9831 23.987 13.8791 23.961C13.7751 23.935 13.6581 23.9047 13.5281 23.87C13.4067 23.8353 13.2594 23.805 13.0861 23.779C12.9127 23.753 12.6874 23.74 12.4101 23.74C12.1501 23.74 11.9377 23.753 11.7731 23.779C11.6084 23.7963 11.4654 23.8223 11.3441 23.857C11.1534 23.9523 10.8977 24 10.5771 24C10.2131 24 9.90538 23.9177 9.65405 23.753C9.40272 23.5797 9.27705 23.298 9.27705 22.908C9.27705 22.6047 9.29005 22.31 9.31605 22.024C9.34205 21.738 9.37238 21.4563 9.40705 21.179C9.44172 20.893 9.47205 20.6157 9.49805 20.347C9.52405 20.0697 9.53705 19.7923 9.53705 19.515V18.735C9.53705 18.4577 9.52405 18.1847 9.49805 17.916C9.47205 17.6387 9.44172 17.3613 9.40705 17.084C9.37238 16.798 9.34205 16.512 9.31605 16.226C9.29005 15.94 9.27705 15.6453 9.27705 15.342C9.27705 15.238 9.29005 15.1297 9.31605 15.017C9.34205 14.8957 9.38972 14.7873 9.45905 14.692C9.53705 14.5967 9.63672 14.51 9.75805 14.432C9.88805 14.354 10.0527 14.302 10.2521 14.276C10.3041 14.2587 10.3561 14.25 10.4081 14.25C10.4687 14.25 10.5251 14.25 10.5771 14.25C10.8371 14.25 11.0581 14.2847 11.2401 14.354C11.3701 14.3973 11.5174 14.4363 11.6821 14.471C11.8554 14.497 12.1067 14.51 12.4361 14.51C12.7134 14.51 12.9344 14.497 13.0991 14.471C13.2637 14.445 13.4024 14.4147 13.5151 14.38C13.6364 14.3453 13.7534 14.315 13.8661 14.289C13.9787 14.263 14.1217 14.25 14.2951 14.25C14.4164 14.25 14.5377 14.263 14.6591 14.289C14.7891 14.3063 14.9061 14.3583 15.0101 14.445C15.1141 14.523 15.1964 14.64 15.2571 14.796C15.3264 14.952 15.3611 15.16 15.3611 15.42C15.3611 15.6887 15.3264 15.901 15.2571 16.057C15.1877 16.213 15.0967 16.33 14.9841 16.408C14.8801 16.486 14.7631 16.538 14.6331 16.564C14.5117 16.5813 14.3904 16.59 14.2691 16.59C14.1304 16.59 14.0091 16.577 13.9051 16.551C13.8011 16.525 13.6841 16.4947 13.5541 16.46C13.4327 16.4253 13.2854 16.395 13.1121 16.369C12.9387 16.343 12.7134 16.33 12.4361 16.33C12.3667 16.33 12.3017 16.3343 12.2411 16.343C12.1804 16.343 12.1241 16.343 12.0721 16.343C11.9074 16.3603 11.8164 16.447 11.7991 16.603C11.7817 16.8023 11.7601 16.9973 11.7341 17.188C11.7167 17.3787 11.6994 17.5693 11.6821 17.76C11.6647 17.9333 11.7384 18.02 11.9031 18.02H12.0461C12.3234 18.02 12.5444 18.007 12.7091 17.981C12.8737 17.955 13.0124 17.9247 13.1251 17.89C13.2464 17.8553 13.3634 17.825 13.4761 17.799C13.5887 17.773 13.7317 17.76 13.9051 17.76C14.0264 17.76 14.1477 17.7773 14.2691 17.812C14.3991 17.838 14.5161 17.8943 14.6201 17.981C14.7241 18.0677 14.8064 18.1933 14.8671 18.358C14.9364 18.5227 14.9711 18.735 14.9711 18.995C14.9711 19.2637 14.9364 19.4803 14.8671 19.645C14.7977 19.801 14.7067 19.9223 14.5941 20.009C14.4901 20.0957 14.3731 20.1563 14.2431 20.191C14.1217 20.217 14.0004 20.23 13.8791 20.23C13.7404 20.23 13.6191 20.217 13.5151 20.191C13.4111 20.165 13.2941 20.1347 13.1641 20.1C13.0427 20.0653 12.8954 20.035 12.7221 20.009C12.5487 19.983 12.3234 19.97 12.0461 19.97H11.8771C11.8077 19.97 11.7471 19.996 11.6951 20.048C11.6517 20.0913 11.6344 20.152 11.6431 20.23C11.6604 20.4207 11.6777 20.6113 11.6951 20.802C11.7211 20.984 11.7471 21.1747 11.7731 21.374C11.7904 21.5387 11.8814 21.6297 12.0461 21.647ZM21.6228 23.519C21.5621 23.4323 21.5275 23.35 21.5188 23.272L19.2568 18.54C19.2221 18.4707 19.1918 18.4403 19.1658 18.449C19.1485 18.449 19.1398 18.488 19.1398 18.566V18.735V19.125C19.1398 19.4023 19.1571 19.697 19.1918 20.009C19.2351 20.3123 19.2828 20.6243 19.3348 20.945C19.3868 21.2657 19.4301 21.595 19.4648 21.933C19.5081 22.2623 19.5298 22.596 19.5298 22.934C19.5298 23.0553 19.5081 23.181 19.4648 23.311C19.4215 23.4323 19.3478 23.545 19.2438 23.649C19.1398 23.753 18.9968 23.8397 18.8148 23.909C18.6415 23.9697 18.4248 24 18.1648 24C17.8961 24 17.6795 23.9653 17.5148 23.896C17.3588 23.8267 17.2375 23.74 17.1508 23.636C17.0641 23.5233 17.0035 23.4063 16.9688 23.285C16.9428 23.155 16.9298 23.0293 16.9298 22.908C16.9298 22.6047 16.9428 22.31 16.9688 22.024C16.9948 21.738 17.0251 21.4563 17.0598 21.179C17.0945 20.893 17.1248 20.6157 17.1508 20.347C17.1768 20.0697 17.1898 19.7923 17.1898 19.515V18.735C17.1898 18.4577 17.1768 18.1847 17.1508 17.916C17.1248 17.6387 17.0945 17.3613 17.0598 17.084C17.0251 16.798 16.9948 16.512 16.9688 16.226C16.9428 15.94 16.9298 15.6453 16.9298 15.342C16.9298 15.2207 16.9428 15.0993 16.9688 14.978C17.0035 14.848 17.0641 14.731 17.1508 14.627C17.2375 14.5143 17.3588 14.4233 17.5148 14.354C17.6795 14.2847 17.8961 14.25 18.1648 14.25H18.7108C18.8841 14.25 19.0445 14.2977 19.1918 14.393C19.3391 14.4797 19.4475 14.5967 19.5168 14.744L21.6228 19.034C21.6575 19.1033 21.6835 19.138 21.7008 19.138C21.7268 19.1293 21.7398 19.086 21.7398 19.008V18.735C21.7398 18.4577 21.7181 18.1847 21.6748 17.916C21.6401 17.6387 21.5968 17.3613 21.5448 17.084C21.4928 16.798 21.4451 16.512 21.4018 16.226C21.3671 15.94 21.3498 15.6453 21.3498 15.342C21.3498 15.2207 21.3715 15.0993 21.4148 14.978C21.4581 14.848 21.5318 14.731 21.6358 14.627C21.7398 14.5143 21.8785 14.4233 22.0518 14.354C22.2251 14.2847 22.4461 14.25 22.7148 14.25C22.9748 14.25 23.1871 14.2847 23.3518 14.354C23.5165 14.4147 23.6421 14.497 23.7288 14.601C23.8155 14.705 23.8718 14.822 23.8978 14.952C23.9325 15.0733 23.9498 15.1947 23.9498 15.316C23.9498 15.654 23.9368 15.9703 23.9108 16.265C23.8848 16.5597 23.8545 16.8457 23.8198 17.123C23.7851 17.3917 23.7548 17.6603 23.7288 17.929C23.7028 18.189 23.6898 18.4577 23.6898 18.735V19.515C23.6898 19.7923 23.7028 20.0653 23.7288 20.334C23.7548 20.594 23.7851 20.8627 23.8198 21.14C23.8545 21.4087 23.8848 21.6903 23.9108 21.985C23.9368 22.2797 23.9498 22.596 23.9498 22.934C23.9498 23.0467 23.9368 23.1637 23.9108 23.285C23.8848 23.4063 23.8285 23.519 23.7418 23.623C23.6638 23.727 23.5511 23.8137 23.4038 23.883C23.2651 23.9523 23.0788 23.9913 22.8448 24H22.4028C22.2555 24 22.1125 23.9567 21.9738 23.87C21.8351 23.7833 21.7181 23.6663 21.6228 23.519ZM29.8368 16.616C29.8194 16.9887 29.7978 17.344 29.7718 17.682C29.7544 18.02 29.7458 18.371 29.7458 18.735V19.515C29.7458 19.7923 29.7588 20.0653 29.7848 20.334C29.8108 20.594 29.8411 20.8627 29.8758 21.14C29.9104 21.4087 29.9408 21.6903 29.9668 21.985C29.9928 22.2797 30.0058 22.596 30.0058 22.934C30.0058 23.0553 29.9884 23.181 29.9538 23.311C29.9191 23.4323 29.8498 23.545 29.7458 23.649C29.6504 23.753 29.5161 23.8397 29.3428 23.909C29.1781 23.9697 28.9658 24 28.7058 24C28.4371 24 28.2161 23.9653 28.0428 23.896C27.8781 23.8267 27.7481 23.74 27.6528 23.636C27.5574 23.5233 27.4924 23.4063 27.4578 23.285C27.4231 23.155 27.4058 23.0293 27.4058 22.908C27.4058 22.6047 27.4188 22.31 27.4448 22.024C27.4708 21.738 27.5011 21.4563 27.5358 21.179C27.5704 20.893 27.6008 20.6157 27.6268 20.347C27.6528 20.0697 27.6658 19.7923 27.6658 19.515V18.735C27.6658 18.3797 27.6528 18.0287 27.6268 17.682C27.6094 17.3353 27.5921 16.98 27.5748 16.616C27.5574 16.4687 27.4794 16.408 27.3408 16.434C27.1761 16.4773 27.0288 16.5163 26.8988 16.551C26.7774 16.577 26.6388 16.59 26.4828 16.59C26.3614 16.59 26.2358 16.5813 26.1058 16.564C25.9844 16.538 25.8674 16.486 25.7548 16.408C25.6508 16.33 25.5641 16.213 25.4948 16.057C25.4254 15.901 25.3908 15.6887 25.3908 15.42C25.3908 15.16 25.4211 14.952 25.4818 14.796C25.5511 14.64 25.6378 14.523 25.7418 14.445C25.8458 14.3583 25.9584 14.3063 26.0798 14.289C26.2098 14.263 26.3354 14.25 26.4568 14.25C26.6301 14.25 26.7774 14.263 26.8988 14.289C27.0288 14.3063 27.1588 14.328 27.2888 14.354C27.4274 14.3713 27.5834 14.393 27.7568 14.419C27.9388 14.4363 28.1684 14.445 28.4458 14.445H28.9658C29.2431 14.445 29.4684 14.4363 29.6418 14.419C29.8238 14.393 29.9798 14.3713 30.1098 14.354C30.2484 14.328 30.3784 14.3063 30.4998 14.289C30.6298 14.263 30.7814 14.25 30.9548 14.25C31.0761 14.25 31.1974 14.263 31.3188 14.289C31.4488 14.3063 31.5658 14.3583 31.6698 14.445C31.7738 14.523 31.8561 14.64 31.9168 14.796C31.9861 14.952 32.0208 15.16 32.0208 15.42C32.0208 15.6887 31.9861 15.901 31.9168 16.057C31.8474 16.213 31.7564 16.33 31.6438 16.408C31.5398 16.486 31.4228 16.538 31.2928 16.564C31.1714 16.5813 31.0501 16.59 30.9288 16.59C30.7728 16.59 30.6298 16.577 30.4998 16.551C30.3784 16.5163 30.2354 16.4773 30.0708 16.434C29.9321 16.408 29.8541 16.4687 29.8368 16.616ZM36.2357 21.647C36.2877 21.6557 36.344 21.66 36.4047 21.66C36.4654 21.66 36.5304 21.66 36.5997 21.66C36.877 21.66 37.098 21.647 37.2627 21.621C37.4274 21.595 37.566 21.5647 37.6787 21.53C37.8 21.4953 37.917 21.465 38.0297 21.439C38.1424 21.413 38.2854 21.4 38.4587 21.4C38.58 21.4 38.7014 21.4173 38.8227 21.452C38.9527 21.4867 39.0697 21.556 39.1737 21.66C39.2777 21.7553 39.36 21.8897 39.4207 22.063C39.49 22.2277 39.5247 22.44 39.5247 22.7C39.5247 22.9687 39.49 23.1897 39.4207 23.363C39.3514 23.5277 39.2604 23.6577 39.1477 23.753C39.0437 23.8483 38.9267 23.9133 38.7967 23.948C38.6754 23.9827 38.554 24 38.4327 24C38.294 24 38.1727 23.987 38.0687 23.961C37.9647 23.935 37.8477 23.9047 37.7177 23.87C37.5964 23.8353 37.449 23.805 37.2757 23.779C37.1024 23.753 36.877 23.74 36.5997 23.74C36.3397 23.74 36.1274 23.753 35.9627 23.779C35.798 23.7963 35.655 23.8223 35.5337 23.857C35.343 23.9523 35.0874 24 34.7667 24C34.4027 24 34.095 23.9177 33.8437 23.753C33.5924 23.5797 33.4667 23.298 33.4667 22.908C33.4667 22.6047 33.4797 22.31 33.5057 22.024C33.5317 21.738 33.562 21.4563 33.5967 21.179C33.6314 20.893 33.6617 20.6157 33.6877 20.347C33.7137 20.0697 33.7267 19.7923 33.7267 19.515V18.735C33.7267 18.4577 33.7137 18.1847 33.6877 17.916C33.6617 17.6387 33.6314 17.3613 33.5967 17.084C33.562 16.798 33.5317 16.512 33.5057 16.226C33.4797 15.94 33.4667 15.6453 33.4667 15.342C33.4667 15.238 33.4797 15.1297 33.5057 15.017C33.5317 14.8957 33.5794 14.7873 33.6487 14.692C33.7267 14.5967 33.8264 14.51 33.9477 14.432C34.0777 14.354 34.2424 14.302 34.4417 14.276C34.4937 14.2587 34.5457 14.25 34.5977 14.25C34.6584 14.25 34.7147 14.25 34.7667 14.25C35.0267 14.25 35.2477 14.2847 35.4297 14.354C35.5597 14.3973 35.707 14.4363 35.8717 14.471C36.045 14.497 36.2964 14.51 36.6257 14.51C36.903 14.51 37.124 14.497 37.2887 14.471C37.4534 14.445 37.592 14.4147 37.7047 14.38C37.826 14.3453 37.943 14.315 38.0557 14.289C38.1684 14.263 38.3114 14.25 38.4847 14.25C38.606 14.25 38.7274 14.263 38.8487 14.289C38.9787 14.3063 39.0957 14.3583 39.1997 14.445C39.3037 14.523 39.386 14.64 39.4467 14.796C39.516 14.952 39.5507 15.16 39.5507 15.42C39.5507 15.6887 39.516 15.901 39.4467 16.057C39.3774 16.213 39.2864 16.33 39.1737 16.408C39.0697 16.486 38.9527 16.538 38.8227 16.564C38.7014 16.5813 38.58 16.59 38.4587 16.59C38.32 16.59 38.1987 16.577 38.0947 16.551C37.9907 16.525 37.8737 16.4947 37.7437 16.46C37.6224 16.4253 37.475 16.395 37.3017 16.369C37.1284 16.343 36.903 16.33 36.6257 16.33C36.5564 16.33 36.4914 16.3343 36.4307 16.343C36.37 16.343 36.3137 16.343 36.2617 16.343C36.097 16.3603 36.006 16.447 35.9887 16.603C35.9714 16.8023 35.9497 16.9973 35.9237 17.188C35.9064 17.3787 35.889 17.5693 35.8717 17.76C35.8544 17.9333 35.928 18.02 36.0927 18.02H36.2357C36.513 18.02 36.734 18.007 36.8987 17.981C37.0634 17.955 37.202 17.9247 37.3147 17.89C37.436 17.8553 37.553 17.825 37.6657 17.799C37.7784 17.773 37.9214 17.76 38.0947 17.76C38.216 17.76 38.3374 17.7773 38.4587 17.812C38.5887 17.838 38.7057 17.8943 38.8097 17.981C38.9137 18.0677 38.996 18.1933 39.0567 18.358C39.126 18.5227 39.1607 18.735 39.1607 18.995C39.1607 19.2637 39.126 19.4803 39.0567 19.645C38.9874 19.801 38.8964 19.9223 38.7837 20.009C38.6797 20.0957 38.5627 20.1563 38.4327 20.191C38.3114 20.217 38.19 20.23 38.0687 20.23C37.93 20.23 37.8087 20.217 37.7047 20.191C37.6007 20.165 37.4837 20.1347 37.3537 20.1C37.2324 20.0653 37.085 20.035 36.9117 20.009C36.7384 19.983 36.513 19.97 36.2357 19.97H36.0667C35.9974 19.97 35.9367 19.996 35.8847 20.048C35.8414 20.0913 35.824 20.152 35.8327 20.23C35.85 20.4207 35.8674 20.6113 35.8847 20.802C35.9107 20.984 35.9367 21.1747 35.9627 21.374C35.98 21.5387 36.071 21.6297 36.2357 21.647ZM43.5374 20.607C43.5808 20.971 43.6198 21.3393 43.6544 21.712C43.6978 22.076 43.7194 22.4833 43.7194 22.934C43.7194 23.0553 43.7021 23.181 43.6674 23.311C43.6328 23.4323 43.5634 23.545 43.4594 23.649C43.3641 23.753 43.2298 23.8397 43.0564 23.909C42.8918 23.9697 42.6794 24 42.4194 24C42.1508 24 41.9298 23.9653 41.7564 23.896C41.5918 23.8267 41.4618 23.74 41.3664 23.636C41.2711 23.5233 41.2061 23.4063 41.1714 23.285C41.1368 23.155 41.1194 23.0293 41.1194 22.908C41.1194 22.6047 41.1324 22.31 41.1584 22.024C41.1844 21.738 41.2148 21.4563 41.2494 21.179C41.2841 20.893 41.3144 20.6157 41.3404 20.347C41.3664 20.0697 41.3794 19.7923 41.3794 19.515V18.735C41.3794 18.4577 41.3664 18.1847 41.3404 17.916C41.3144 17.6387 41.2841 17.3613 41.2494 17.084C41.2148 16.798 41.1844 16.512 41.1584 16.226C41.1324 15.94 41.1194 15.6453 41.1194 15.342C41.1194 15.2207 41.1368 15.0993 41.1714 14.978C41.2061 14.848 41.2711 14.731 41.3664 14.627C41.4704 14.5143 41.6048 14.4233 41.7694 14.354C41.9428 14.2847 42.1638 14.25 42.4324 14.25H44.1224C45.4484 14.25 46.4624 14.4927 47.1644 14.978C47.8664 15.4547 48.2174 16.2303 48.2174 17.305C48.2174 17.9377 48.0658 18.4707 47.7624 18.904C47.4678 19.3287 47.0604 19.6667 46.5404 19.918C46.4104 19.9873 46.3931 20.0697 46.4884 20.165C46.7571 20.4423 47.0344 20.7197 47.3204 20.997C47.6151 21.2743 47.9141 21.5993 48.2174 21.972C48.2954 22.0673 48.3561 22.1757 48.3994 22.297C48.4514 22.4183 48.4731 22.5527 48.4644 22.7C48.4558 22.8387 48.4081 22.9903 48.3214 23.155C48.2348 23.311 48.0874 23.467 47.8794 23.623C47.6714 23.7877 47.4764 23.896 47.2944 23.948C47.1211 24 46.9608 24.0173 46.8134 24C46.6748 23.974 46.5534 23.922 46.4494 23.844C46.3454 23.766 46.2544 23.6793 46.1764 23.584C45.9858 23.35 45.8081 23.1117 45.6434 22.869C45.4874 22.6263 45.3358 22.388 45.1884 22.154C45.0411 21.92 44.8894 21.6903 44.7334 21.465C44.5861 21.2397 44.4258 21.0187 44.2524 20.802L44.0574 20.555C43.9708 20.451 43.8581 20.399 43.7194 20.399C43.5808 20.399 43.5201 20.4683 43.5374 20.607ZM44.1224 18.605C44.7898 18.605 45.2621 18.4793 45.5394 18.228C45.8168 17.968 45.9554 17.656 45.9554 17.292C45.9554 17.11 45.9294 16.9453 45.8774 16.798C45.8254 16.6507 45.7301 16.525 45.5914 16.421C45.4528 16.317 45.2621 16.2347 45.0194 16.174C44.7854 16.1133 44.4864 16.083 44.1224 16.083H43.9144C43.7758 16.083 43.6978 16.1567 43.6804 16.304C43.6458 16.6767 43.6068 17.032 43.5634 17.37C43.5201 17.6993 43.4898 18.0373 43.4724 18.384C43.4724 18.5313 43.5418 18.605 43.6804 18.605H44.1224Z" fill="black"/>
</svg>
