<svg width="56" height="13" viewBox="0 0 56 13" fill="none" xmlns="http://www.w3.org/2000/svg">
<path d="M5.648 2.912C5.62667 3.37067 5.6 3.808 5.568 4.224C5.54667 4.64 5.536 5.072 5.536 5.52V6.48C5.536 6.82133 5.552 7.15733 5.584 7.488C5.616 7.808 5.65333 8.13867 5.696 8.48C5.73867 8.81067 5.776 9.15733 5.808 9.52C5.84 9.88267 5.856 10.272 5.856 10.688C5.856 10.8373 5.83467 10.992 5.792 11.152C5.74933 11.3013 5.664 11.44 5.536 11.568C5.41867 11.696 5.25333 11.8027 5.04 11.888C4.83733 11.9627 4.576 12 4.256 12C3.92533 12 3.65333 11.9573 3.44 11.872C3.23733 11.7867 3.07733 11.68 2.96 11.552C2.84267 11.4133 2.76267 11.2693 2.72 11.12C2.67733 10.96 2.656 10.8053 2.656 10.656C2.656 10.2827 2.672 9.92 2.704 9.568C2.736 9.216 2.77333 8.86933 2.816 8.528C2.85867 8.176 2.896 7.83467 2.928 7.504C2.96 7.16267 2.976 6.82133 2.976 6.48V5.52C2.976 5.08267 2.96 4.65067 2.928 4.224C2.90667 3.79733 2.88533 3.36 2.864 2.912C2.84267 2.73067 2.74667 2.656 2.576 2.688C2.37333 2.74133 2.192 2.78933 2.032 2.832C1.88267 2.864 1.712 2.88 1.52 2.88C1.37067 2.88 1.216 2.86933 1.056 2.848C0.906667 2.816 0.762667 2.752 0.624 2.656C0.496 2.56 0.389333 2.416 0.304 2.224C0.218667 2.032 0.176 1.77067 0.176 1.44C0.176 1.12 0.213333 0.863999 0.288 0.672C0.373333 0.48 0.48 0.336 0.608 0.24C0.736 0.133333 0.874667 0.0693324 1.024 0.0479994C1.184 0.0159992 1.33867 -9.53674e-07 1.488 -9.53674e-07C1.70133 -9.53674e-07 1.88267 0.0159992 2.032 0.0479994C2.192 0.0693324 2.352 0.0959991 2.512 0.127999C2.68267 0.149333 2.87467 0.176 3.088 0.207999C3.312 0.229333 3.59467 0.24 3.936 0.24H4.576C4.91733 0.24 5.19467 0.229333 5.408 0.207999C5.632 0.176 5.824 0.149333 5.984 0.127999C6.15467 0.0959991 6.31467 0.0693324 6.464 0.0479994C6.624 0.0159992 6.81067 -9.53674e-07 7.024 -9.53674e-07C7.17333 -9.53674e-07 7.32267 0.0159992 7.472 0.0479994C7.632 0.0693324 7.776 0.133333 7.904 0.24C8.032 0.336 8.13333 0.48 8.208 0.672C8.29333 0.863999 8.336 1.12 8.336 1.44C8.336 1.77067 8.29333 2.032 8.208 2.224C8.12267 2.416 8.01067 2.56 7.872 2.656C7.744 2.752 7.6 2.816 7.44 2.848C7.29067 2.86933 7.14133 2.88 6.992 2.88C6.8 2.88 6.624 2.864 6.464 2.832C6.31467 2.78933 6.13867 2.74133 5.936 2.688C5.76533 2.656 5.66933 2.73067 5.648 2.912ZM12.6916 7.824C12.745 8.272 12.793 8.72533 12.8356 9.184C12.889 9.632 12.9156 10.1333 12.9156 10.688C12.9156 10.8373 12.8943 10.992 12.8516 11.152C12.809 11.3013 12.7236 11.44 12.5956 11.568C12.4783 11.696 12.313 11.8027 12.0996 11.888C11.897 11.9627 11.6356 12 11.3156 12C10.985 12 10.713 11.9573 10.4996 11.872C10.297 11.7867 10.137 11.68 10.0196 11.552C9.90229 11.4133 9.82229 11.2693 9.77963 11.12C9.73696 10.96 9.71563 10.8053 9.71563 10.656C9.71563 10.2827 9.73163 9.92 9.76363 9.568C9.79563 9.216 9.83296 8.86933 9.87563 8.528C9.91829 8.176 9.95563 7.83467 9.98763 7.504C10.0196 7.16267 10.0356 6.82133 10.0356 6.48V5.52C10.0356 5.17867 10.0196 4.84267 9.98763 4.512C9.95563 4.17067 9.91829 3.82933 9.87563 3.488C9.83296 3.136 9.79563 2.784 9.76363 2.432C9.73163 2.08 9.71563 1.71733 9.71563 1.344C9.71563 1.19467 9.73696 1.04533 9.77963 0.896C9.82229 0.735999 9.90229 0.591999 10.0196 0.464C10.1476 0.325333 10.313 0.213333 10.5156 0.127999C10.729 0.0426658 11.001 -9.53674e-07 11.3316 -9.53674e-07H13.4116C15.0436 -9.53674e-07 16.2916 0.298666 17.1556 0.896C18.0196 1.48267 18.4516 2.43733 18.4516 3.76C18.4516 4.53867 18.265 5.19467 17.8916 5.728C17.529 6.25067 17.0276 6.66667 16.3876 6.976C16.2276 7.06133 16.2063 7.16267 16.3236 7.28C16.6543 7.62133 16.9956 7.96267 17.3476 8.304C17.7103 8.64533 18.0783 9.04533 18.4516 9.504C18.5476 9.62133 18.6223 9.75467 18.6756 9.904C18.7396 10.0533 18.7663 10.2187 18.7556 10.4C18.745 10.5707 18.6863 10.7573 18.5796 10.96C18.473 11.152 18.2916 11.344 18.0356 11.536C17.7796 11.7387 17.5396 11.872 17.3156 11.936C17.1023 12 16.905 12.0213 16.7236 12C16.553 11.968 16.4036 11.904 16.2756 11.808C16.1476 11.712 16.0356 11.6053 15.9396 11.488C15.705 11.2 15.4863 10.9067 15.2836 10.608C15.0916 10.3093 14.905 10.016 14.7236 9.728C14.5423 9.44 14.3556 9.15733 14.1636 8.88C13.9823 8.60267 13.785 8.33067 13.5716 8.064L13.3316 7.76C13.225 7.632 13.0863 7.568 12.9156 7.568C12.745 7.568 12.6703 7.65333 12.6916 7.824ZM13.4116 5.36C14.233 5.36 14.8143 5.20533 15.1556 4.896C15.497 4.576 15.6676 4.192 15.6676 3.744C15.6676 3.52 15.6356 3.31733 15.5716 3.136C15.5076 2.95467 15.3903 2.8 15.2196 2.672C15.049 2.544 14.8143 2.44267 14.5156 2.368C14.2276 2.29333 13.8596 2.256 13.4116 2.256H13.1556C12.985 2.256 12.889 2.34667 12.8676 2.528C12.825 2.98667 12.777 3.424 12.7236 3.84C12.6703 4.24533 12.633 4.66133 12.6116 5.088C12.6116 5.26933 12.697 5.36 12.8676 5.36H13.4116ZM23.7049 9.104C23.7689 9.11467 23.8382 9.12 23.9129 9.12C23.9875 9.12 24.0675 9.12 24.1529 9.12C24.4942 9.12 24.7662 9.104 24.9689 9.072C25.1715 9.04 25.3422 9.00267 25.4809 8.96C25.6302 8.91733 25.7742 8.88 25.9129 8.848C26.0515 8.816 26.2275 8.8 26.4409 8.8C26.5902 8.8 26.7395 8.82133 26.8889 8.864C27.0489 8.90667 27.1929 8.992 27.3209 9.12C27.4489 9.23733 27.5502 9.40267 27.6249 9.616C27.7102 9.81867 27.7529 10.08 27.7529 10.4C27.7529 10.7307 27.7102 11.0027 27.6249 11.216C27.5395 11.4187 27.4275 11.5787 27.2889 11.696C27.1609 11.8133 27.0169 11.8933 26.8569 11.936C26.7075 11.9787 26.5582 12 26.4089 12C26.2382 12 26.0889 11.984 25.9609 11.952C25.8329 11.92 25.6889 11.8827 25.5289 11.84C25.3795 11.7973 25.1982 11.76 24.9849 11.728C24.7715 11.696 24.4942 11.68 24.1529 11.68C23.8329 11.68 23.5715 11.696 23.3689 11.728C23.1662 11.7493 22.9902 11.7813 22.8409 11.824C22.6062 11.9413 22.2915 12 21.8969 12C21.4489 12 21.0702 11.8987 20.7609 11.696C20.4515 11.4827 20.2969 11.136 20.2969 10.656C20.2969 10.2827 20.3129 9.92 20.3449 9.568C20.3769 9.216 20.4142 8.86933 20.4569 8.528C20.4995 8.176 20.5369 7.83467 20.5689 7.504C20.6009 7.16267 20.6169 6.82133 20.6169 6.48V5.52C20.6169 5.17867 20.6009 4.84267 20.5689 4.512C20.5369 4.17067 20.4995 3.82933 20.4569 3.488C20.4142 3.136 20.3769 2.784 20.3449 2.432C20.3129 2.08 20.2969 1.71733 20.2969 1.344C20.2969 1.216 20.3129 1.08267 20.3449 0.943999C20.3769 0.794666 20.4355 0.661333 20.5209 0.544C20.6169 0.426666 20.7395 0.319999 20.8889 0.223999C21.0489 0.127999 21.2515 0.0639992 21.4969 0.0319996C21.5609 0.0106659 21.6249 -9.53674e-07 21.6889 -9.53674e-07C21.7635 -9.53674e-07 21.8329 -9.53674e-07 21.8969 -9.53674e-07C22.2169 -9.53674e-07 22.4889 0.0426658 22.7129 0.127999C22.8729 0.181333 23.0542 0.229333 23.2569 0.271999C23.4702 0.304 23.7795 0.32 24.1849 0.32C24.5262 0.32 24.7982 0.304 25.0009 0.271999C25.2035 0.239999 25.3742 0.202666 25.5129 0.16C25.6622 0.117333 25.8062 0.0799996 25.9449 0.0479994C26.0835 0.0159992 26.2595 -9.53674e-07 26.4729 -9.53674e-07C26.6222 -9.53674e-07 26.7715 0.0159992 26.9209 0.0479994C27.0809 0.0693324 27.2249 0.133333 27.3529 0.24C27.4809 0.336 27.5822 0.48 27.6569 0.672C27.7422 0.863999 27.7849 1.12 27.7849 1.44C27.7849 1.77067 27.7422 2.032 27.6569 2.224C27.5715 2.416 27.4595 2.56 27.3209 2.656C27.1929 2.752 27.0489 2.816 26.8889 2.848C26.7395 2.86933 26.5902 2.88 26.4409 2.88C26.2702 2.88 26.1209 2.864 25.9929 2.832C25.8649 2.8 25.7209 2.76267 25.5609 2.72C25.4115 2.67733 25.2302 2.64 25.0169 2.608C24.8035 2.576 24.5262 2.56 24.1849 2.56C24.0995 2.56 24.0195 2.56533 23.9449 2.576C23.8702 2.576 23.8009 2.576 23.7369 2.576C23.5342 2.59733 23.4222 2.704 23.4009 2.896C23.3795 3.14133 23.3529 3.38133 23.3209 3.616C23.2995 3.85067 23.2782 4.08533 23.2569 4.32C23.2355 4.53333 23.3262 4.64 23.5289 4.64H23.7049C24.0462 4.64 24.3182 4.624 24.5209 4.592C24.7235 4.56 24.8942 4.52267 25.0329 4.48C25.1822 4.43733 25.3262 4.4 25.4649 4.368C25.6035 4.336 25.7795 4.32 25.9929 4.32C26.1422 4.32 26.2915 4.34133 26.4409 4.384C26.6009 4.416 26.7449 4.48533 26.8729 4.592C27.0009 4.69867 27.1022 4.85333 27.1769 5.056C27.2622 5.25867 27.3049 5.52 27.3049 5.84C27.3049 6.17067 27.2622 6.43733 27.1769 6.64C27.0915 6.832 26.9795 6.98133 26.8409 7.088C26.7129 7.19467 26.5689 7.26933 26.4089 7.312C26.2595 7.344 26.1102 7.36 25.9609 7.36C25.7902 7.36 25.6409 7.344 25.5129 7.312C25.3849 7.28 25.2409 7.24267 25.0809 7.2C24.9315 7.15733 24.7502 7.12 24.5369 7.088C24.3235 7.056 24.0462 7.04 23.7049 7.04H23.4969C23.4115 7.04 23.3369 7.072 23.2729 7.136C23.2195 7.18933 23.1982 7.264 23.2089 7.36C23.2302 7.59467 23.2515 7.82933 23.2729 8.064C23.3049 8.288 23.3369 8.52267 23.3689 8.768C23.3902 8.97067 23.5022 9.08267 23.7049 9.104ZM29.6356 5.52C29.6356 5.17867 29.6196 4.84267 29.5876 4.512C29.5556 4.17067 29.5183 3.82933 29.4756 3.488C29.433 3.136 29.3956 2.784 29.3636 2.432C29.3316 2.08 29.3156 1.71733 29.3156 1.344C29.3156 1.19467 29.337 1.04533 29.3796 0.896C29.4223 0.735999 29.5023 0.591999 29.6196 0.464C29.7476 0.325333 29.913 0.213333 30.1156 0.127999C30.329 0.0426658 30.601 -9.53674e-07 30.9316 -9.53674e-07H32.5316C33.225 -9.53674e-07 33.8756 0.0639992 34.4836 0.191999C35.1023 0.309333 35.641 0.495999 36.0996 0.752C36.5583 1.008 36.9156 1.33333 37.1716 1.728C37.4383 2.112 37.5716 2.576 37.5716 3.12C37.5716 3.568 37.4543 3.97867 37.2196 4.352C36.9956 4.72533 36.697 5.05067 36.3236 5.328C36.8676 5.66933 37.289 6.10133 37.5876 6.624C37.897 7.14667 38.0516 7.73867 38.0516 8.4C38.0516 9.06133 37.9396 9.62133 37.7156 10.08C37.5023 10.5387 37.1823 10.912 36.7556 11.2C36.329 11.4773 35.801 11.68 35.1716 11.808C34.553 11.936 33.833 12 33.0116 12H30.9316C30.601 12 30.329 11.9573 30.1156 11.872C29.913 11.7867 29.7476 11.68 29.6196 11.552C29.5023 11.4133 29.4223 11.2693 29.3796 11.12C29.337 10.96 29.3156 10.8053 29.3156 10.656C29.3156 10.2827 29.3316 9.92 29.3636 9.568C29.3956 9.216 29.433 8.86933 29.4756 8.528C29.5183 8.176 29.5556 7.83467 29.5876 7.504C29.6196 7.16267 29.6356 6.82133 29.6356 6.48V5.52ZM32.5636 4.4C33.3743 4.4 33.945 4.32533 34.2756 4.176C34.617 4.016 34.7876 3.712 34.7876 3.264C34.7876 3.09333 34.7556 2.94933 34.6916 2.832C34.6383 2.704 34.5316 2.60267 34.3716 2.528C34.2223 2.44267 34.0196 2.37867 33.7636 2.336C33.5076 2.29333 33.1823 2.26667 32.7876 2.256C32.5956 2.256 32.489 2.35733 32.4676 2.56C32.4463 2.83733 32.4143 3.104 32.3716 3.36C32.3396 3.60533 32.313 3.85067 32.2916 4.096C32.2703 4.29867 32.361 4.4 32.5636 4.4ZM33.0116 9.424C33.4596 9.424 33.8276 9.38667 34.1156 9.312C34.4143 9.23733 34.649 9.136 34.8196 9.008C34.9903 8.88 35.1076 8.72533 35.1716 8.544C35.2356 8.36267 35.2676 8.16 35.2676 7.936C35.2676 7.56267 35.097 7.25333 34.7556 7.008C34.4143 6.76267 33.833 6.64 33.0116 6.64H32.4996C32.2863 6.64 32.1903 6.74133 32.2116 6.944C32.233 7.30667 32.2596 7.66933 32.2916 8.032C32.3343 8.384 32.377 8.74667 32.4196 9.12C32.441 9.32267 32.553 9.424 32.7556 9.424H33.0116ZM42.9768 9.12H43.2648C43.6061 9.12 43.8674 9.104 44.0488 9.072C44.2408 9.04 44.3954 9.00267 44.5128 8.96C44.6408 8.91733 44.7634 8.88 44.8808 8.848C45.0088 8.816 45.1794 8.8 45.3928 8.8C45.5421 8.8 45.6914 8.82133 45.8408 8.864C46.0008 8.90667 46.1448 8.992 46.2728 9.12C46.4008 9.23733 46.5021 9.40267 46.5768 9.616C46.6621 9.81867 46.7048 10.08 46.7048 10.4C46.7048 10.7307 46.6621 11.0027 46.5768 11.216C46.4914 11.4187 46.3794 11.5787 46.2408 11.696C46.1128 11.8133 45.9688 11.8933 45.8088 11.936C45.6594 11.9787 45.5101 12 45.3608 12C45.1901 12 45.0461 11.984 44.9288 11.952C44.8221 11.92 44.6994 11.8827 44.5608 11.84C44.4328 11.7973 44.2674 11.76 44.0648 11.728C43.8728 11.696 43.6061 11.68 43.2648 11.68C43.0088 11.68 42.7954 11.6907 42.6248 11.712C42.4541 11.7333 42.3101 11.7547 42.1928 11.776C41.9474 11.9253 41.6061 12 41.1688 12C40.7208 12 40.3421 11.8987 40.0328 11.696C39.7234 11.4827 39.5688 11.136 39.5688 10.656C39.5688 10.2827 39.5848 9.92 39.6168 9.568C39.6488 9.216 39.6861 8.86933 39.7288 8.528C39.7714 8.176 39.8088 7.83467 39.8408 7.504C39.8728 7.16267 39.8888 6.82133 39.8888 6.48V5.52C39.8888 5.17867 39.8728 4.84267 39.8408 4.512C39.8088 4.17067 39.7714 3.82933 39.7288 3.488C39.6861 3.136 39.6488 2.784 39.6168 2.432C39.5848 2.08 39.5688 1.71733 39.5688 1.344C39.5688 1.09867 39.6114 0.890666 39.6968 0.719999C39.7821 0.549333 39.8994 0.410666 40.0488 0.304C40.1981 0.197333 40.3741 0.122666 40.5768 0.079999C40.7794 0.0266657 40.9928 -9.53674e-07 41.2168 -9.53674e-07C41.5261 -9.53674e-07 41.7821 0.0426658 41.9848 0.127999C42.1874 0.202666 42.3474 0.304 42.4648 0.431999C42.5821 0.559999 42.6621 0.704 42.7048 0.863999C42.7474 1.01333 42.7688 1.16267 42.7688 1.312C42.7688 1.728 42.7528 2.11733 42.7208 2.48C42.6888 2.84267 42.6514 3.19467 42.6088 3.536C42.5661 3.86667 42.5288 4.19733 42.4968 4.528C42.4648 4.848 42.4488 5.17867 42.4488 5.52V6.48C42.4488 6.88533 42.4648 7.27467 42.4968 7.648C42.5394 8.01067 42.5874 8.38933 42.6408 8.784C42.6621 8.98667 42.7741 9.09867 42.9768 9.12ZM51.6518 9.104C51.7158 9.11467 51.7851 9.12 51.8598 9.12C51.9344 9.12 52.0144 9.12 52.0998 9.12C52.4411 9.12 52.7131 9.104 52.9158 9.072C53.1184 9.04 53.2891 9.00267 53.4278 8.96C53.5771 8.91733 53.7211 8.88 53.8598 8.848C53.9984 8.816 54.1744 8.8 54.3878 8.8C54.5371 8.8 54.6864 8.82133 54.8358 8.864C54.9958 8.90667 55.1398 8.992 55.2678 9.12C55.3958 9.23733 55.4971 9.40267 55.5718 9.616C55.6571 9.81867 55.6998 10.08 55.6998 10.4C55.6998 10.7307 55.6571 11.0027 55.5718 11.216C55.4864 11.4187 55.3744 11.5787 55.2358 11.696C55.1078 11.8133 54.9638 11.8933 54.8038 11.936C54.6544 11.9787 54.5051 12 54.3558 12C54.1851 12 54.0358 11.984 53.9078 11.952C53.7798 11.92 53.6358 11.8827 53.4758 11.84C53.3264 11.7973 53.1451 11.76 52.9318 11.728C52.7184 11.696 52.4411 11.68 52.0998 11.68C51.7798 11.68 51.5184 11.696 51.3158 11.728C51.1131 11.7493 50.9371 11.7813 50.7878 11.824C50.5531 11.9413 50.2384 12 49.8438 12C49.3958 12 49.0171 11.8987 48.7078 11.696C48.3984 11.4827 48.2438 11.136 48.2438 10.656C48.2438 10.2827 48.2598 9.92 48.2918 9.568C48.3238 9.216 48.3611 8.86933 48.4038 8.528C48.4464 8.176 48.4838 7.83467 48.5158 7.504C48.5478 7.16267 48.5638 6.82133 48.5638 6.48V5.52C48.5638 5.17867 48.5478 4.84267 48.5158 4.512C48.4838 4.17067 48.4464 3.82933 48.4038 3.488C48.3611 3.136 48.3238 2.784 48.2918 2.432C48.2598 2.08 48.2438 1.71733 48.2438 1.344C48.2438 1.216 48.2598 1.08267 48.2918 0.943999C48.3238 0.794666 48.3824 0.661333 48.4678 0.544C48.5638 0.426666 48.6864 0.319999 48.8358 0.223999C48.9958 0.127999 49.1984 0.0639992 49.4438 0.0319996C49.5078 0.0106659 49.5718 -9.53674e-07 49.6358 -9.53674e-07C49.7104 -9.53674e-07 49.7798 -9.53674e-07 49.8438 -9.53674e-07C50.1638 -9.53674e-07 50.4358 0.0426658 50.6598 0.127999C50.8198 0.181333 51.0011 0.229333 51.2038 0.271999C51.4171 0.304 51.7264 0.32 52.1318 0.32C52.4731 0.32 52.7451 0.304 52.9478 0.271999C53.1504 0.239999 53.3211 0.202666 53.4598 0.16C53.6091 0.117333 53.7531 0.0799996 53.8918 0.0479994C54.0304 0.0159992 54.2064 -9.53674e-07 54.4198 -9.53674e-07C54.5691 -9.53674e-07 54.7184 0.0159992 54.8678 0.0479994C55.0278 0.0693324 55.1718 0.133333 55.2998 0.24C55.4278 0.336 55.5291 0.48 55.6038 0.672C55.6891 0.863999 55.7318 1.12 55.7318 1.44C55.7318 1.77067 55.6891 2.032 55.6038 2.224C55.5184 2.416 55.4064 2.56 55.2678 2.656C55.1398 2.752 54.9958 2.816 54.8358 2.848C54.6864 2.86933 54.5371 2.88 54.3878 2.88C54.2171 2.88 54.0678 2.864 53.9398 2.832C53.8118 2.8 53.6678 2.76267 53.5078 2.72C53.3584 2.67733 53.1771 2.64 52.9638 2.608C52.7504 2.576 52.4731 2.56 52.1318 2.56C52.0464 2.56 51.9664 2.56533 51.8918 2.576C51.8171 2.576 51.7478 2.576 51.6838 2.576C51.4811 2.59733 51.3691 2.704 51.3478 2.896C51.3264 3.14133 51.2998 3.38133 51.2678 3.616C51.2464 3.85067 51.2251 4.08533 51.2038 4.32C51.1824 4.53333 51.2731 4.64 51.4758 4.64H51.6518C51.9931 4.64 52.2651 4.624 52.4678 4.592C52.6704 4.56 52.8411 4.52267 52.9798 4.48C53.1291 4.43733 53.2731 4.4 53.4118 4.368C53.5504 4.336 53.7264 4.32 53.9398 4.32C54.0891 4.32 54.2384 4.34133 54.3878 4.384C54.5478 4.416 54.6918 4.48533 54.8198 4.592C54.9478 4.69867 55.0491 4.85333 55.1238 5.056C55.2091 5.25867 55.2518 5.52 55.2518 5.84C55.2518 6.17067 55.2091 6.43733 55.1238 6.64C55.0384 6.832 54.9264 6.98133 54.7878 7.088C54.6598 7.19467 54.5158 7.26933 54.3558 7.312C54.2064 7.344 54.0571 7.36 53.9078 7.36C53.7371 7.36 53.5878 7.344 53.4598 7.312C53.3318 7.28 53.1878 7.24267 53.0278 7.2C52.8784 7.15733 52.6971 7.12 52.4838 7.088C52.2704 7.056 51.9931 7.04 51.6518 7.04H51.4438C51.3584 7.04 51.2838 7.072 51.2198 7.136C51.1664 7.18933 51.1451 7.264 51.1558 7.36C51.1771 7.59467 51.1984 7.82933 51.2198 8.064C51.2518 8.288 51.2838 8.52267 51.3158 8.768C51.3371 8.97067 51.4491 9.08267 51.6518 9.104Z" fill="black"/>
</svg>
