<svg width="38" height="19" viewBox="0 0 38 19" fill="none" xmlns="http://www.w3.org/2000/svg">
<path fill-rule="evenodd" clip-rule="evenodd" d="M38 0H0V19H38V0ZM17.1664 3.626C17.1844 3.392 17.1994 3.146 17.2114 2.888C17.2234 2.786 17.2774 2.744 17.3734 2.762C17.4874 2.792 17.5864 2.819 17.6704 2.843C17.7604 2.861 17.8594 2.87 17.9674 2.87C18.0514 2.87 18.1354 2.864 18.2194 2.852C18.3094 2.834 18.3904 2.798 18.4624 2.744C18.5404 2.69 18.6034 2.609 18.6514 2.501C18.6994 2.393 18.7234 2.246 18.7234 2.06C18.7234 1.88 18.6994 1.736 18.6514 1.628C18.6094 1.52 18.5524 1.439 18.4804 1.385C18.4084 1.325 18.3274 1.289 18.2374 1.277C18.1534 1.259 18.0694 1.25 17.9854 1.25C17.8654 1.25 17.7604 1.259 17.6704 1.277C17.5864 1.289 17.4964 1.304 17.4004 1.322C17.3104 1.334 17.2024 1.349 17.0764 1.367C16.9564 1.379 16.8004 1.385 16.6084 1.385H16.2484C16.0564 1.385 15.8974 1.379 15.7714 1.367C15.6514 1.349 15.5434 1.334 15.4474 1.322C15.3574 1.304 15.2674 1.289 15.1774 1.277C15.0934 1.259 14.9914 1.25 14.8714 1.25C14.7874 1.25 14.7004 1.259 14.6104 1.277C14.5264 1.289 14.4484 1.325 14.3764 1.385C14.3044 1.439 14.2444 1.52 14.1964 1.628C14.1544 1.736 14.1334 1.88 14.1334 2.06C14.1334 2.246 14.1574 2.393 14.2054 2.501C14.2534 2.609 14.3134 2.69 14.3854 2.744C14.4634 2.798 14.5444 2.834 14.6284 2.852C14.7184 2.864 14.8054 2.87 14.8894 2.87C14.9974 2.87 15.0934 2.861 15.1774 2.843C15.2674 2.819 15.3694 2.792 15.4834 2.762C15.5794 2.744 15.6334 2.786 15.6454 2.888C15.6574 3.14 15.6694 3.386 15.6814 3.626C15.6994 3.866 15.7084 4.109 15.7084 4.355V4.895C15.7084 5.087 15.6994 5.279 15.6814 5.471C15.6634 5.657 15.6424 5.849 15.6184 6.047C15.5944 6.239 15.5734 6.434 15.5554 6.632C15.5374 6.83 15.5284 7.034 15.5284 7.244C15.5284 7.328 15.5404 7.415 15.5644 7.505C15.5884 7.589 15.6334 7.67 15.6994 7.748C15.7654 7.82 15.8554 7.88 15.9694 7.928C16.0894 7.976 16.2424 8 16.4284 8C16.6084 8 16.7554 7.979 16.8694 7.937C16.9894 7.889 17.0824 7.829 17.1484 7.757C17.2204 7.685 17.2684 7.607 17.2924 7.523C17.3164 7.433 17.3284 7.346 17.3284 7.262C17.3284 7.028 17.3194 6.809 17.3014 6.605C17.2834 6.401 17.2624 6.206 17.2384 6.02C17.2144 5.828 17.1934 5.642 17.1754 5.462C17.1574 5.276 17.1484 5.087 17.1484 4.895V4.355C17.1484 4.103 17.1544 3.86 17.1664 3.626ZM21.7045 6.416C21.6805 6.158 21.6535 5.903 21.6235 5.651C21.6115 5.555 21.6535 5.507 21.7495 5.507C21.8455 5.507 21.9235 5.543 21.9835 5.615L22.1185 5.786C22.2385 5.936 22.3495 6.089 22.4515 6.245C22.5595 6.401 22.6645 6.56 22.7665 6.722C22.8685 6.884 22.9735 7.049 23.0815 7.217C23.1955 7.385 23.3185 7.55 23.4505 7.712C23.5045 7.778 23.5675 7.838 23.6395 7.892C23.7115 7.946 23.7955 7.982 23.8915 8C23.9935 8.012 24.1045 8 24.2245 7.964C24.3505 7.928 24.4855 7.853 24.6295 7.739C24.7735 7.631 24.8755 7.523 24.9355 7.415C24.9955 7.301 25.0285 7.196 25.0345 7.1C25.0405 6.998 25.0255 6.905 24.9895 6.821C24.9595 6.737 24.9175 6.662 24.8635 6.596C24.6535 6.338 24.4465 6.113 24.2425 5.921C24.0445 5.729 23.8525 5.537 23.6665 5.345C23.6005 5.279 23.6125 5.222 23.7025 5.174C24.0625 5 24.3445 4.766 24.5485 4.472C24.7585 4.172 24.8635 3.803 24.8635 3.365C24.8635 2.621 24.6205 2.084 24.1345 1.754C23.6485 1.418 22.9465 1.25 22.0285 1.25H20.8585C20.6725 1.25 20.5195 1.274 20.3995 1.322C20.2855 1.37 20.1925 1.433 20.1205 1.511C20.0545 1.583 20.0095 1.664 19.9855 1.754C19.9615 1.838 19.9495 1.922 19.9495 2.006C19.9495 2.216 19.9585 2.42 19.9765 2.618C19.9945 2.816 20.0155 3.014 20.0395 3.212C20.0635 3.404 20.0845 3.596 20.1025 3.788C20.1205 3.974 20.1295 4.163 20.1295 4.355V4.895C20.1295 5.087 20.1205 5.279 20.1025 5.471C20.0845 5.657 20.0635 5.849 20.0395 6.047C20.0155 6.239 19.9945 6.434 19.9765 6.632C19.9585 6.83 19.9495 7.034 19.9495 7.244C19.9495 7.328 19.9615 7.415 19.9855 7.505C20.0095 7.589 20.0545 7.67 20.1205 7.748C20.1865 7.82 20.2765 7.88 20.3905 7.928C20.5105 7.976 20.6635 8 20.8495 8C21.0295 8 21.1765 7.979 21.2905 7.937C21.4105 7.889 21.5035 7.829 21.5695 7.757C21.6415 7.685 21.6895 7.607 21.7135 7.523C21.7375 7.433 21.7495 7.346 21.7495 7.262C21.7495 6.95 21.7345 6.668 21.7045 6.416ZM23.0095 4.004C22.8175 4.178 22.4905 4.265 22.0285 4.265H21.7225C21.6265 4.265 21.5785 4.214 21.5785 4.112C21.5905 3.872 21.6115 3.638 21.6415 3.41C21.6715 3.176 21.6985 2.93 21.7225 2.672C21.7345 2.57 21.7885 2.519 21.8845 2.519H22.0285C22.2805 2.519 22.4875 2.54 22.6495 2.582C22.8175 2.624 22.9495 2.681 23.0455 2.753C23.1415 2.825 23.2075 2.912 23.2435 3.014C23.2795 3.116 23.2975 3.23 23.2975 3.356C23.2975 3.608 23.2015 3.824 23.0095 4.004ZM31.1304 6.083C31.2024 5.651 31.2264 5.165 31.2024 4.625C31.1964 4.403 31.1994 4.184 31.2114 3.968C31.2294 3.746 31.2474 3.527 31.2654 3.311C31.2894 3.095 31.3104 2.879 31.3284 2.663C31.3524 2.441 31.3644 2.222 31.3644 2.006C31.3644 1.868 31.3404 1.751 31.2924 1.655C31.2444 1.559 31.1784 1.481 31.0944 1.421C31.0104 1.361 30.9114 1.319 30.7974 1.295C30.6834 1.265 30.5634 1.25 30.4374 1.25C30.2634 1.25 30.1194 1.274 30.0054 1.322C29.8914 1.364 29.8014 1.421 29.7354 1.493C29.6694 1.565 29.6244 1.646 29.6004 1.736C29.5764 1.82 29.5644 1.904 29.5644 1.988C29.5644 2.432 29.5914 2.87 29.6454 3.302C29.7054 3.734 29.7354 4.172 29.7354 4.616C29.7354 4.922 29.7264 5.201 29.7084 5.453C29.6964 5.699 29.6604 5.909 29.6004 6.083C29.5464 6.257 29.4594 6.392 29.3394 6.488C29.2194 6.584 29.0544 6.632 28.8444 6.632C28.6344 6.632 28.4694 6.584 28.3494 6.488C28.2354 6.392 28.1484 6.257 28.0884 6.083C28.0344 5.909 28.0014 5.699 27.9894 5.453C27.9774 5.201 27.9714 4.922 27.9714 4.616C27.9714 4.172 28.0014 3.734 28.0614 3.302C28.1214 2.87 28.1514 2.432 28.1514 1.988C28.1514 1.904 28.1394 1.82 28.1154 1.736C28.0914 1.646 28.0464 1.565 27.9804 1.493C27.9144 1.421 27.8244 1.364 27.7104 1.322C27.5964 1.274 27.4524 1.25 27.2784 1.25C27.1524 1.25 27.0324 1.265 26.9184 1.295C26.8044 1.319 26.7054 1.361 26.6214 1.421C26.5374 1.481 26.4714 1.559 26.4234 1.655C26.3754 1.751 26.3514 1.868 26.3514 2.006C26.3514 2.222 26.3604 2.438 26.3784 2.654C26.4024 2.864 26.4264 3.077 26.4504 3.293C26.4744 3.509 26.4954 3.728 26.5134 3.95C26.5314 4.172 26.5344 4.397 26.5224 4.625C26.4984 5.165 26.5164 5.651 26.5764 6.083C26.6424 6.509 26.7654 6.872 26.9454 7.172C27.1254 7.466 27.3684 7.694 27.6744 7.856C27.9864 8.012 28.3764 8.09 28.8444 8.09C29.3124 8.09 29.7024 8.012 30.0144 7.856C30.3264 7.694 30.5724 7.466 30.7524 7.172C30.9384 6.872 31.0644 6.509 31.1304 6.083ZM34.7522 6.38C34.7102 6.38 34.6712 6.377 34.6352 6.371C34.5212 6.359 34.4582 6.296 34.4462 6.182C34.4282 6.044 34.4102 5.912 34.3922 5.786L34.3562 5.39C34.3502 5.336 34.3622 5.294 34.3922 5.264C34.4282 5.228 34.4702 5.21 34.5182 5.21H34.6352C34.8272 5.21 34.9832 5.219 35.1032 5.237C35.2232 5.255 35.3252 5.276 35.4092 5.3C35.4992 5.324 35.5802 5.345 35.6522 5.363C35.7242 5.381 35.8082 5.39 35.9042 5.39C35.9882 5.39 36.0722 5.381 36.1562 5.363C36.2462 5.339 36.3272 5.297 36.3992 5.237C36.4772 5.177 36.5402 5.093 36.5882 4.985C36.6362 4.871 36.6602 4.721 36.6602 4.535C36.6602 4.355 36.6362 4.208 36.5882 4.094C36.5462 3.98 36.4892 3.893 36.4172 3.833C36.3452 3.773 36.2642 3.734 36.1742 3.716C36.0902 3.692 36.0062 3.68 35.9222 3.68C35.8022 3.68 35.7032 3.689 35.6252 3.707C35.5472 3.725 35.4662 3.746 35.3822 3.77C35.3042 3.794 35.2082 3.815 35.0942 3.833C34.9802 3.851 34.8272 3.86 34.6352 3.86H34.5362C34.4222 3.86 34.3712 3.8 34.3832 3.68L34.4192 3.284C34.4372 3.152 34.4522 3.017 34.4642 2.879C34.4762 2.771 34.5392 2.711 34.6532 2.699H34.7702C34.8122 2.693 34.8572 2.69 34.9052 2.69C35.0972 2.69 35.2532 2.699 35.3732 2.717C35.4932 2.735 35.5952 2.756 35.6792 2.78C35.7692 2.804 35.8502 2.825 35.9222 2.843C35.9942 2.861 36.0782 2.87 36.1742 2.87C36.2582 2.87 36.3422 2.864 36.4262 2.852C36.5162 2.834 36.5972 2.798 36.6692 2.744C36.7472 2.69 36.8102 2.609 36.8582 2.501C36.9062 2.393 36.9302 2.246 36.9302 2.06C36.9302 1.88 36.9062 1.736 36.8582 1.628C36.8162 1.52 36.7592 1.439 36.6872 1.385C36.6152 1.325 36.5342 1.289 36.4442 1.277C36.3602 1.259 36.2762 1.25 36.1922 1.25C36.0722 1.25 35.9732 1.259 35.8952 1.277C35.8172 1.295 35.7362 1.316 35.6522 1.34C35.5742 1.364 35.4782 1.385 35.3642 1.403C35.2502 1.421 35.0972 1.43 34.9052 1.43C34.6772 1.43 34.5032 1.421 34.3832 1.403C34.2692 1.379 34.1672 1.352 34.0772 1.322C33.9512 1.274 33.7982 1.25 33.6182 1.25H33.5012C33.4652 1.25 33.4292 1.256 33.3932 1.268C33.2552 1.286 33.1412 1.322 33.0512 1.376C32.9672 1.43 32.8982 1.49 32.8442 1.556C32.7962 1.622 32.7632 1.697 32.7452 1.781C32.7272 1.859 32.7182 1.934 32.7182 2.006C32.7182 2.216 32.7272 2.42 32.7452 2.618C32.7632 2.816 32.7842 3.014 32.8082 3.212C32.8322 3.404 32.8532 3.596 32.8712 3.788C32.8892 3.974 32.8982 4.163 32.8982 4.355V4.895C32.8982 5.087 32.8892 5.279 32.8712 5.471C32.8532 5.657 32.8322 5.849 32.8082 6.047C32.7842 6.239 32.7632 6.434 32.7452 6.632C32.7272 6.83 32.7182 7.034 32.7182 7.244C32.7182 7.514 32.8052 7.709 32.9792 7.829C33.1532 7.943 33.3662 8 33.6182 8C33.8402 8 34.0172 7.967 34.1492 7.901C34.2332 7.877 34.3322 7.859 34.4462 7.847C34.5602 7.829 34.7072 7.82 34.8872 7.82C35.0792 7.82 35.2352 7.829 35.3552 7.847C35.4752 7.865 35.5772 7.886 35.6612 7.91C35.7512 7.934 35.8322 7.955 35.9042 7.973C35.9762 7.991 36.0602 8 36.1562 8C36.2402 8 36.3242 7.988 36.4082 7.964C36.4982 7.94 36.5792 7.895 36.6512 7.829C36.7292 7.763 36.7922 7.673 36.8402 7.559C36.8882 7.439 36.9122 7.286 36.9122 7.1C36.9122 6.92 36.8882 6.773 36.8402 6.659C36.7982 6.539 36.7412 6.446 36.6692 6.38C36.5972 6.308 36.5162 6.26 36.4262 6.236C36.3422 6.212 36.2582 6.2 36.1742 6.2C36.0542 6.2 35.9552 6.209 35.8772 6.227C35.7992 6.245 35.7182 6.266 35.6342 6.29C35.5562 6.314 35.4602 6.335 35.3462 6.353C35.2322 6.371 35.0792 6.38 34.8872 6.38H34.7522ZM1.6349 13.788C1.6529 13.974 1.6619 14.163 1.6619 14.355V14.895C1.6619 15.087 1.6529 15.279 1.6349 15.471C1.6169 15.657 1.5959 15.849 1.5719 16.047C1.5479 16.239 1.5269 16.434 1.5089 16.632C1.4909 16.83 1.4819 17.034 1.4819 17.244C1.4819 17.328 1.4939 17.415 1.5179 17.505C1.5419 17.589 1.5869 17.67 1.6529 17.748C1.7249 17.82 1.8179 17.88 1.9319 17.928C2.0519 17.976 2.2049 18 2.3909 18H3.5609C4.0229 18 4.4279 17.964 4.7759 17.892C5.1299 17.82 5.4269 17.706 5.6669 17.55C5.9069 17.388 6.0869 17.178 6.2069 16.92C6.3329 16.662 6.3959 16.347 6.3959 15.975C6.3959 15.603 6.3089 15.27 6.1349 14.976C5.9669 14.682 5.7299 14.439 5.4239 14.247C5.6339 14.091 5.8019 13.908 5.9279 13.698C6.0599 13.488 6.1259 13.257 6.1259 13.005C6.1259 12.699 6.0509 12.438 5.9009 12.222C5.7569 12 5.5559 11.817 5.2979 11.673C5.0399 11.529 4.7369 11.424 4.3889 11.358C4.0469 11.286 3.6809 11.25 3.2909 11.25H2.3909C2.2049 11.25 2.0519 11.274 1.9319 11.322C1.8179 11.37 1.7249 11.433 1.6529 11.511C1.5869 11.583 1.5419 11.664 1.5179 11.754C1.4939 11.838 1.4819 11.922 1.4819 12.006C1.4819 12.216 1.4909 12.42 1.5089 12.618C1.5269 12.816 1.5479 13.014 1.5719 13.212C1.5959 13.404 1.6169 13.596 1.6349 13.788ZM4.2719 13.599C4.0859 13.683 3.7649 13.725 3.3089 13.725C3.1949 13.725 3.1439 13.668 3.1559 13.554C3.1679 13.416 3.1829 13.278 3.2009 13.14C3.2249 12.996 3.2429 12.846 3.2549 12.69C3.2669 12.576 3.3269 12.519 3.4349 12.519C3.6569 12.525 3.8399 12.54 3.9839 12.564C4.1279 12.588 4.2419 12.624 4.3259 12.672C4.4159 12.714 4.4759 12.771 4.5059 12.843C4.5419 12.909 4.5599 12.99 4.5599 13.086C4.5599 13.338 4.4639 13.509 4.2719 13.599ZM4.1819 16.488C4.0199 16.53 3.8129 16.551 3.5609 16.551H3.4169C3.3029 16.551 3.2399 16.494 3.2279 16.38C3.2039 16.17 3.1799 15.966 3.1559 15.768C3.1379 15.564 3.1229 15.36 3.1109 15.156C3.0989 15.042 3.1529 14.985 3.2729 14.985H3.5609C4.0229 14.985 4.3499 15.054 4.5419 15.192C4.7339 15.33 4.8299 15.504 4.8299 15.714C4.8299 15.84 4.8119 15.954 4.7759 16.056C4.7399 16.158 4.6739 16.245 4.5779 16.317C4.4819 16.389 4.3499 16.446 4.1819 16.488ZM8.6651 14.508C8.8151 14.724 8.9591 14.955 9.0971 15.201C9.1211 15.243 9.1391 15.291 9.1511 15.345C9.1631 15.393 9.1661 15.441 9.1601 15.489C9.1301 15.777 9.0971 16.062 9.0611 16.344C9.0251 16.626 9.0071 16.926 9.0071 17.244C9.0071 17.328 9.0191 17.415 9.0431 17.505C9.0671 17.589 9.1121 17.67 9.1781 17.748C9.2441 17.82 9.3341 17.88 9.4481 17.928C9.5681 17.976 9.7211 18 9.9071 18C10.0871 18 10.2341 17.979 10.3481 17.937C10.4681 17.889 10.5611 17.829 10.6271 17.757C10.6991 17.685 10.7471 17.607 10.7711 17.523C10.7951 17.433 10.8071 17.346 10.8071 17.262C10.8071 16.92 10.7891 16.611 10.7531 16.335C10.7231 16.059 10.6931 15.786 10.6631 15.516C10.6571 15.468 10.6571 15.42 10.6631 15.372C10.6751 15.318 10.6931 15.27 10.7171 15.228C10.8611 14.976 11.0051 14.742 11.1491 14.526C11.2991 14.304 11.4521 14.085 11.6081 13.869C11.7641 13.647 11.9261 13.419 12.0941 13.185C12.2621 12.945 12.4391 12.684 12.6251 12.402C12.6731 12.33 12.7031 12.246 12.7151 12.15C12.7331 12.054 12.7241 11.958 12.6881 11.862C12.6521 11.76 12.5861 11.661 12.4901 11.565C12.4001 11.469 12.2681 11.385 12.0941 11.313C11.9261 11.241 11.7791 11.205 11.6531 11.205C11.5271 11.205 11.4191 11.229 11.3291 11.277C11.2391 11.319 11.1641 11.379 11.1041 11.457C11.0501 11.529 11.0051 11.607 10.9691 11.691C10.8431 11.985 10.7381 12.237 10.6541 12.447C10.5701 12.651 10.4921 12.837 10.4201 13.005C10.3541 13.167 10.2881 13.32 10.2221 13.464C10.1561 13.608 10.0781 13.767 9.9881 13.941C9.9401 14.025 9.8921 14.025 9.8441 13.941C9.7541 13.767 9.6761 13.608 9.6101 13.464C9.5441 13.32 9.4751 13.167 9.4031 13.005C9.3371 12.837 9.2621 12.651 9.1781 12.447C9.0941 12.237 8.9891 11.985 8.8631 11.691C8.8271 11.607 8.7791 11.529 8.7191 11.457C8.6651 11.379 8.5931 11.319 8.5031 11.277C8.4131 11.229 8.3051 11.205 8.1791 11.205C8.0531 11.205 7.9061 11.241 7.7381 11.313C7.5701 11.385 7.4381 11.469 7.3421 11.565C7.2461 11.661 7.1801 11.76 7.1441 11.862C7.1081 11.958 7.0961 12.054 7.1081 12.15C7.1261 12.246 7.1591 12.33 7.2071 12.402C7.3931 12.684 7.5701 12.942 7.7381 13.176C7.9061 13.41 8.0651 13.638 8.2151 13.86C8.3711 14.076 8.5211 14.292 8.6651 14.508ZM15.7512 16.614C15.7332 16.41 15.7122 16.212 15.6882 16.02C15.6762 15.918 15.7212 15.867 15.8232 15.867H16.0572C16.4532 15.867 16.8222 15.813 17.1642 15.705C17.5122 15.597 17.8122 15.444 18.0642 15.246C18.3222 15.048 18.5232 14.805 18.6672 14.517C18.8172 14.229 18.8922 13.905 18.8922 13.545C18.8922 12.795 18.6492 12.225 18.1632 11.835C17.6832 11.445 16.9812 11.25 16.0572 11.25H14.8872C14.7012 11.25 14.5482 11.274 14.4282 11.322C14.3142 11.37 14.2212 11.433 14.1492 11.511C14.0832 11.583 14.0382 11.664 14.0142 11.754C13.9902 11.838 13.9782 11.922 13.9782 12.006C13.9782 12.216 13.9872 12.42 14.0052 12.618C14.0232 12.816 14.0442 13.014 14.0682 13.212C14.0922 13.404 14.1132 13.596 14.1312 13.788C14.1492 13.974 14.1582 14.163 14.1582 14.355V14.895C14.1582 15.087 14.1492 15.279 14.1312 15.471C14.1132 15.657 14.0922 15.849 14.0682 16.047C14.0442 16.239 14.0232 16.434 14.0052 16.632C13.9872 16.83 13.9782 17.034 13.9782 17.244C13.9782 17.328 13.9902 17.415 14.0142 17.505C14.0382 17.589 14.0832 17.67 14.1492 17.748C14.2152 17.82 14.3052 17.88 14.4192 17.928C14.5392 17.976 14.6922 18 14.8782 18C15.0582 18 15.2052 17.979 15.3192 17.937C15.4392 17.889 15.5322 17.829 15.5982 17.757C15.6702 17.685 15.7182 17.607 15.7422 17.523C15.7662 17.433 15.7782 17.346 15.7782 17.262C15.7782 17.028 15.7692 16.812 15.7512 16.614ZM16.6422 14.526C16.4862 14.592 16.2912 14.625 16.0572 14.625H15.7512C15.6492 14.625 15.5982 14.574 15.5982 14.472V14.355C15.5982 14.067 15.6162 13.791 15.6522 13.527C15.6882 13.263 15.7212 12.978 15.7512 12.672C15.7632 12.57 15.8172 12.519 15.9132 12.519H16.0572C16.3092 12.519 16.5162 12.549 16.6782 12.609C16.8462 12.669 16.9782 12.747 17.0742 12.843C17.1702 12.939 17.2362 13.047 17.2722 13.167C17.3082 13.287 17.3262 13.41 17.3262 13.536C17.3262 13.662 17.3022 13.791 17.2542 13.923C17.2122 14.049 17.1402 14.166 17.0382 14.274C16.9362 14.376 16.8042 14.46 16.6422 14.526ZM21.1085 16.92C21.1685 16.746 21.2195 16.581 21.2615 16.425C21.2915 16.311 21.3635 16.248 21.4775 16.236C21.5315 16.23 21.5885 16.227 21.6485 16.227C21.7145 16.221 21.7865 16.218 21.8645 16.218H22.2245H22.4045C22.4645 16.218 22.5215 16.221 22.5755 16.227C22.6895 16.239 22.7615 16.302 22.7915 16.416C22.8335 16.572 22.8815 16.737 22.9355 16.911C22.9955 17.085 23.0735 17.286 23.1695 17.514C23.2175 17.634 23.2925 17.745 23.3945 17.847C23.5025 17.949 23.6495 18 23.8355 18C23.9615 18 24.1145 17.964 24.2945 17.892C24.4685 17.82 24.5975 17.739 24.6815 17.649C24.7715 17.553 24.8315 17.457 24.8615 17.361C24.8975 17.259 24.9095 17.16 24.8975 17.064C24.8855 16.968 24.8615 16.881 24.8255 16.803C24.4655 15.963 24.1415 15.123 23.8535 14.283C23.5715 13.443 23.2805 12.582 22.9805 11.7C22.9325 11.562 22.8245 11.448 22.6565 11.358C22.4885 11.268 22.2785 11.223 22.0265 11.223C21.7745 11.223 21.5645 11.268 21.3965 11.358C21.2285 11.448 21.1205 11.562 21.0725 11.7C20.7785 12.582 20.4875 13.443 20.1995 14.283C19.9115 15.123 19.5875 15.963 19.2275 16.803C19.1915 16.881 19.1675 16.968 19.1555 17.064C19.1435 17.16 19.1525 17.259 19.1825 17.361C19.2185 17.457 19.2815 17.553 19.3715 17.649C19.4615 17.739 19.5905 17.82 19.7585 17.892C19.9385 17.964 20.0915 18 20.2175 18C20.4035 18 20.5475 17.949 20.6495 17.847C20.7575 17.745 20.8355 17.634 20.8835 17.514C20.9795 17.286 21.0545 17.088 21.1085 16.92ZM21.8915 13.554C21.9215 13.428 21.9485 13.323 21.9725 13.239C21.9845 13.191 22.0025 13.167 22.0265 13.167C22.0505 13.167 22.0685 13.191 22.0805 13.239C22.1045 13.323 22.1315 13.431 22.1615 13.563C22.1915 13.689 22.2215 13.824 22.2515 13.968C22.2815 14.112 22.3115 14.259 22.3415 14.409C22.3715 14.559 22.3985 14.703 22.4225 14.841C22.4405 14.955 22.3955 15.012 22.2875 15.012H22.2245H21.8645H21.7655C21.6575 15.012 21.6125 14.952 21.6305 14.832C21.6605 14.694 21.6875 14.55 21.7115 14.4C21.7415 14.25 21.7715 14.103 21.8015 13.959C21.8315 13.815 21.8615 13.68 21.8915 13.554ZM27.9409 13.041C27.8869 12.969 27.8599 12.882 27.8599 12.78C27.8599 12.69 27.8989 12.609 27.9769 12.537C28.0549 12.465 28.2139 12.429 28.4539 12.429C28.5979 12.429 28.7299 12.447 28.8499 12.483C28.9699 12.513 29.0809 12.555 29.1829 12.609C29.2909 12.663 29.3899 12.723 29.4799 12.789C29.5699 12.849 29.6569 12.906 29.7409 12.96C29.8489 13.032 29.9569 13.065 30.0649 13.059C30.1789 13.053 30.2809 13.02 30.3709 12.96C30.4609 12.894 30.5329 12.813 30.5869 12.717C30.6469 12.615 30.6769 12.507 30.6769 12.393C30.6829 12.273 30.6559 12.156 30.5959 12.042C30.5359 11.922 30.4339 11.817 30.2899 11.727C30.1819 11.655 30.0679 11.586 29.9479 11.52C29.8339 11.454 29.7079 11.394 29.5699 11.34C29.4319 11.286 29.2789 11.244 29.1109 11.214C28.9489 11.178 28.7599 11.16 28.5439 11.16C28.2559 11.16 27.9799 11.196 27.7159 11.268C27.4519 11.34 27.2209 11.448 27.0229 11.592C26.8249 11.73 26.6659 11.907 26.5459 12.123C26.4319 12.339 26.3749 12.591 26.3749 12.879C26.3749 13.167 26.4199 13.419 26.5099 13.635C26.5999 13.845 26.7289 14.037 26.8969 14.211C27.0649 14.379 27.2659 14.535 27.4999 14.679C27.7399 14.823 28.0039 14.97 28.2919 15.12C28.5679 15.264 28.8019 15.411 28.9939 15.561C29.1859 15.711 29.2819 15.882 29.2819 16.074C29.2819 16.284 29.2129 16.425 29.0749 16.497C28.9369 16.569 28.7479 16.605 28.5079 16.605C28.4119 16.605 28.3159 16.59 28.2199 16.56C28.1239 16.524 28.0309 16.482 27.9409 16.434C27.8569 16.386 27.7759 16.332 27.6979 16.272C27.6259 16.206 27.5659 16.143 27.5179 16.083C27.4159 15.957 27.2959 15.873 27.1579 15.831C27.0259 15.789 26.8939 15.783 26.7619 15.813C26.6359 15.837 26.5159 15.891 26.4019 15.975C26.2939 16.059 26.2129 16.161 26.1589 16.281C26.1109 16.401 26.0959 16.536 26.1139 16.686C26.1379 16.83 26.2129 16.977 26.3389 17.127C26.4529 17.259 26.5879 17.385 26.7439 17.505C26.8999 17.619 27.0709 17.721 27.2569 17.811C27.4429 17.895 27.6409 17.961 27.8509 18.009C28.0669 18.063 28.2859 18.09 28.5079 18.09C28.9339 18.09 29.2939 18.045 29.5879 17.955C29.8879 17.859 30.1309 17.721 30.3169 17.541C30.5029 17.361 30.6379 17.139 30.7219 16.875C30.8119 16.611 30.8569 16.311 30.8569 15.975C30.8569 15.651 30.7999 15.369 30.6859 15.129C30.5719 14.883 30.4249 14.67 30.2449 14.49C30.0649 14.31 29.8639 14.154 29.6419 14.022C29.4259 13.89 29.2099 13.77 28.9939 13.662C28.8259 13.578 28.6729 13.503 28.5349 13.437C28.3969 13.371 28.2769 13.308 28.1749 13.248C28.0789 13.182 28.0009 13.113 27.9409 13.041ZM34.0001 13.041C33.9461 12.969 33.9191 12.882 33.9191 12.78C33.9191 12.69 33.9581 12.609 34.0361 12.537C34.1141 12.465 34.2731 12.429 34.5131 12.429C34.6571 12.429 34.7891 12.447 34.9091 12.483C35.0291 12.513 35.1401 12.555 35.2421 12.609C35.3501 12.663 35.4491 12.723 35.5391 12.789C35.6291 12.849 35.7161 12.906 35.8001 12.96C35.9081 13.032 36.0161 13.065 36.1241 13.059C36.2381 13.053 36.3401 13.02 36.4301 12.96C36.5201 12.894 36.5921 12.813 36.6461 12.717C36.7061 12.615 36.7361 12.507 36.7361 12.393C36.7421 12.273 36.7151 12.156 36.6551 12.042C36.5951 11.922 36.4931 11.817 36.3491 11.727C36.2411 11.655 36.1271 11.586 36.0071 11.52C35.8931 11.454 35.7671 11.394 35.6291 11.34C35.4911 11.286 35.3381 11.244 35.1701 11.214C35.0081 11.178 34.8191 11.16 34.6031 11.16C34.3151 11.16 34.0391 11.196 33.7751 11.268C33.5111 11.34 33.2801 11.448 33.0821 11.592C32.8841 11.73 32.7251 11.907 32.6051 12.123C32.4911 12.339 32.4341 12.591 32.4341 12.879C32.4341 13.167 32.4791 13.419 32.5691 13.635C32.6591 13.845 32.7881 14.037 32.9561 14.211C33.1241 14.379 33.3251 14.535 33.5591 14.679C33.7991 14.823 34.0631 14.97 34.3511 15.12C34.6271 15.264 34.8611 15.411 35.0531 15.561C35.2451 15.711 35.3411 15.882 35.3411 16.074C35.3411 16.284 35.2721 16.425 35.1341 16.497C34.9961 16.569 34.8071 16.605 34.5671 16.605C34.4711 16.605 34.3751 16.59 34.2791 16.56C34.1831 16.524 34.0901 16.482 34.0001 16.434C33.9161 16.386 33.8351 16.332 33.7571 16.272C33.6851 16.206 33.6251 16.143 33.5771 16.083C33.4751 15.957 33.3551 15.873 33.2171 15.831C33.0851 15.789 32.9531 15.783 32.8211 15.813C32.6951 15.837 32.5751 15.891 32.4611 15.975C32.3531 16.059 32.2721 16.161 32.2181 16.281C32.1701 16.401 32.1551 16.536 32.1731 16.686C32.1971 16.83 32.2721 16.977 32.3981 17.127C32.5121 17.259 32.6471 17.385 32.8031 17.505C32.9591 17.619 33.1301 17.721 33.3161 17.811C33.5021 17.895 33.7001 17.961 33.9101 18.009C34.1261 18.063 34.3451 18.09 34.5671 18.09C34.9931 18.09 35.3531 18.045 35.6471 17.955C35.9471 17.859 36.1901 17.721 36.3761 17.541C36.5621 17.361 36.6971 17.139 36.7811 16.875C36.8711 16.611 36.9161 16.311 36.9161 15.975C36.9161 15.651 36.8591 15.369 36.7451 15.129C36.6311 14.883 36.4841 14.67 36.3041 14.49C36.1241 14.31 35.9231 14.154 35.7011 14.022C35.4851 13.89 35.2691 13.77 35.0531 13.662C34.8851 13.578 34.7321 13.503 34.5941 13.437C34.4561 13.371 34.3361 13.308 34.2341 13.248C34.1381 13.182 34.0601 13.113 34.0001 13.041Z" fill="black"/>
</svg>
