<svg width="36" height="18" viewBox="0 0 36 18" fill="none" xmlns="http://www.w3.org/2000/svg">
<path d="M16.0952 1.888C16.0832 2.146 16.0682 2.392 16.0502 2.626C16.0382 2.86 16.0322 3.103 16.0322 3.355V3.895C16.0322 4.087 16.0412 4.276 16.0592 4.462C16.0772 4.642 16.0982 4.828 16.1222 5.02C16.1462 5.206 16.1672 5.401 16.1852 5.605C16.2032 5.809 16.2122 6.028 16.2122 6.262C16.2122 6.346 16.2002 6.433 16.1762 6.523C16.1522 6.607 16.1042 6.685 16.0322 6.757C15.9662 6.829 15.8732 6.889 15.7532 6.937C15.6392 6.979 15.4922 7 15.3122 7C15.1262 7 14.9732 6.976 14.8532 6.928C14.7392 6.88 14.6492 6.82 14.5832 6.748C14.5172 6.67 14.4722 6.589 14.4482 6.505C14.4242 6.415 14.4122 6.328 14.4122 6.244C14.4122 6.034 14.4212 5.83 14.4392 5.632C14.4572 5.434 14.4782 5.239 14.5022 5.047C14.5262 4.849 14.5472 4.657 14.5652 4.471C14.5832 4.279 14.5922 4.087 14.5922 3.895V3.355C14.5922 3.109 14.5832 2.866 14.5652 2.626C14.5532 2.386 14.5412 2.14 14.5292 1.888C14.5172 1.786 14.4632 1.744 14.3672 1.762C14.2532 1.792 14.1512 1.819 14.0612 1.843C13.9772 1.861 13.8812 1.87 13.7732 1.87C13.6892 1.87 13.6022 1.864 13.5122 1.852C13.4282 1.834 13.3472 1.798 13.2692 1.744C13.1972 1.69 13.1372 1.609 13.0892 1.501C13.0412 1.393 13.0172 1.246 13.0172 1.06C13.0172 0.88 13.0382 0.736 13.0802 0.628C13.1282 0.52 13.1882 0.439 13.2602 0.385C13.3322 0.325 13.4102 0.288999 13.4942 0.277C13.5842 0.259 13.6712 0.249999 13.7552 0.249999C13.8752 0.249999 13.9772 0.259 14.0612 0.277C14.1512 0.288999 14.2412 0.303999 14.3312 0.322C14.4272 0.334 14.5352 0.349 14.6552 0.367C14.7812 0.379 14.9402 0.385 15.1322 0.385H15.4922C15.6842 0.385 15.8402 0.379 15.9602 0.367C16.0862 0.349 16.1942 0.334 16.2842 0.322C16.3802 0.303999 16.4702 0.288999 16.5542 0.277C16.6442 0.259 16.7492 0.249999 16.8692 0.249999C16.9532 0.249999 17.0372 0.259 17.1212 0.277C17.2112 0.288999 17.2922 0.325 17.3642 0.385C17.4362 0.439 17.4932 0.52 17.5352 0.628C17.5832 0.736 17.6072 0.88 17.6072 1.06C17.6072 1.246 17.5832 1.393 17.5352 1.501C17.4872 1.609 17.4242 1.69 17.3462 1.744C17.2742 1.798 17.1932 1.834 17.1032 1.852C17.0192 1.864 16.9352 1.87 16.8512 1.87C16.7432 1.87 16.6442 1.861 16.5542 1.843C16.4702 1.819 16.3712 1.792 16.2572 1.762C16.1612 1.744 16.1072 1.786 16.0952 1.888ZM20.5072 4.651C20.5372 4.903 20.5642 5.158 20.5882 5.416C20.6182 5.668 20.6332 5.95 20.6332 6.262C20.6332 6.346 20.6212 6.433 20.5972 6.523C20.5732 6.607 20.5252 6.685 20.4532 6.757C20.3872 6.829 20.2942 6.889 20.1742 6.937C20.0602 6.979 19.9132 7 19.7332 7C19.5472 7 19.3942 6.976 19.2742 6.928C19.1602 6.88 19.0702 6.82 19.0042 6.748C18.9382 6.67 18.8932 6.589 18.8692 6.505C18.8452 6.415 18.8332 6.328 18.8332 6.244C18.8332 6.034 18.8422 5.83 18.8602 5.632C18.8782 5.434 18.8992 5.239 18.9232 5.047C18.9472 4.849 18.9682 4.657 18.9862 4.471C19.0042 4.279 19.0132 4.087 19.0132 3.895V3.355C19.0132 3.163 19.0042 2.974 18.9862 2.788C18.9682 2.596 18.9472 2.404 18.9232 2.212C18.8992 2.014 18.8782 1.816 18.8602 1.618C18.8422 1.42 18.8332 1.216 18.8332 1.006C18.8332 0.922 18.8452 0.838 18.8692 0.754C18.8932 0.664 18.9382 0.583 19.0042 0.511C19.0762 0.433 19.1692 0.37 19.2832 0.322C19.4032 0.274 19.5562 0.249999 19.7422 0.249999H20.9122C21.8302 0.249999 22.5322 0.418 23.0182 0.754C23.5042 1.084 23.7472 1.621 23.7472 2.365C23.7472 2.803 23.6422 3.172 23.4322 3.472C23.2282 3.766 22.9462 4 22.5862 4.174C22.4962 4.222 22.4842 4.279 22.5502 4.345C22.7362 4.537 22.9282 4.729 23.1262 4.921C23.3302 5.113 23.5372 5.338 23.7472 5.596C23.8012 5.662 23.8432 5.737 23.8732 5.821C23.9092 5.905 23.9242 5.998 23.9182 6.1C23.9122 6.196 23.8792 6.301 23.8192 6.415C23.7592 6.523 23.6572 6.631 23.5132 6.739C23.3692 6.853 23.2342 6.928 23.1082 6.964C22.9882 7 22.8772 7.012 22.7752 7C22.6792 6.982 22.5952 6.946 22.5232 6.892C22.4512 6.838 22.3882 6.778 22.3342 6.712C22.2022 6.55 22.0792 6.385 21.9652 6.217C21.8572 6.049 21.7522 5.884 21.6502 5.722C21.5482 5.56 21.4432 5.401 21.3352 5.245C21.2332 5.089 21.1222 4.936 21.0022 4.786L20.8672 4.615C20.8072 4.543 20.7292 4.507 20.6332 4.507C20.5372 4.507 20.4952 4.555 20.5072 4.651ZM20.9122 3.265C21.3742 3.265 21.7012 3.178 21.8932 3.004C22.0852 2.824 22.1812 2.608 22.1812 2.356C22.1812 2.23 22.1632 2.116 22.1272 2.014C22.0912 1.912 22.0252 1.825 21.9292 1.753C21.8332 1.681 21.7012 1.624 21.5332 1.582C21.3712 1.54 21.1642 1.519 20.9122 1.519H20.7682C20.6722 1.519 20.6182 1.57 20.6062 1.672C20.5822 1.93 20.5552 2.176 20.5252 2.41C20.4952 2.638 20.4742 2.872 20.4622 3.112C20.4622 3.214 20.5102 3.265 20.6062 3.265H20.9122ZM30.0862 3.625C30.1102 4.165 30.0862 4.651 30.0142 5.083C29.9482 5.509 29.8222 5.872 29.6362 6.172C29.4562 6.466 29.2102 6.694 28.8982 6.856C28.5862 7.012 28.1962 7.09 27.7282 7.09C27.2602 7.09 26.8702 7.012 26.5582 6.856C26.2522 6.694 26.0092 6.466 25.8292 6.172C25.6492 5.872 25.5262 5.509 25.4602 5.083C25.4002 4.651 25.3822 4.165 25.4062 3.625C25.4182 3.397 25.4152 3.172 25.3972 2.95C25.3792 2.728 25.3582 2.509 25.3342 2.293C25.3102 2.077 25.2862 1.864 25.2622 1.654C25.2442 1.438 25.2352 1.222 25.2352 1.006C25.2352 0.868 25.2592 0.751 25.3072 0.655C25.3552 0.559 25.4212 0.481 25.5052 0.421C25.5892 0.361 25.6882 0.318999 25.8022 0.294999C25.9162 0.264999 26.0362 0.249999 26.1622 0.249999C26.3362 0.249999 26.4802 0.274 26.5942 0.322C26.7082 0.364 26.7982 0.421 26.8642 0.493C26.9302 0.565 26.9752 0.646 26.9992 0.736C27.0232 0.82 27.0352 0.904 27.0352 0.988C27.0352 1.432 27.0052 1.87 26.9452 2.302C26.8852 2.734 26.8552 3.172 26.8552 3.616C26.8552 3.922 26.8612 4.201 26.8732 4.453C26.8852 4.699 26.9182 4.909 26.9722 5.083C27.0322 5.257 27.1192 5.392 27.2332 5.488C27.3532 5.584 27.5182 5.632 27.7282 5.632C27.9382 5.632 28.1032 5.584 28.2232 5.488C28.3432 5.392 28.4302 5.257 28.4842 5.083C28.5442 4.909 28.5802 4.699 28.5922 4.453C28.6102 4.201 28.6192 3.922 28.6192 3.616C28.6192 3.172 28.5892 2.734 28.5292 2.302C28.4752 1.87 28.4482 1.432 28.4482 0.988C28.4482 0.904 28.4602 0.82 28.4842 0.736C28.5082 0.646 28.5532 0.565 28.6192 0.493C28.6852 0.421 28.7752 0.364 28.8892 0.322C29.0032 0.274 29.1472 0.249999 29.3212 0.249999C29.4472 0.249999 29.5672 0.264999 29.6812 0.294999C29.7952 0.318999 29.8942 0.361 29.9782 0.421C30.0622 0.481 30.1282 0.559 30.1762 0.655C30.2242 0.751 30.2482 0.868 30.2482 1.006C30.2482 1.222 30.2362 1.441 30.2122 1.663C30.1942 1.879 30.1732 2.095 30.1492 2.311C30.1312 2.527 30.1132 2.746 30.0952 2.968C30.0832 3.184 30.0802 3.403 30.0862 3.625ZM33.519 5.371C33.555 5.377 33.594 5.38 33.636 5.38C33.678 5.38 33.723 5.38 33.771 5.38C33.963 5.38 34.116 5.371 34.23 5.353C34.344 5.335 34.44 5.314 34.518 5.29C34.602 5.266 34.683 5.245 34.761 5.227C34.839 5.209 34.938 5.2 35.058 5.2C35.142 5.2 35.226 5.212 35.31 5.236C35.4 5.26 35.481 5.308 35.553 5.38C35.625 5.446 35.682 5.539 35.724 5.659C35.772 5.773 35.796 5.92 35.796 6.1C35.796 6.286 35.772 6.439 35.724 6.559C35.676 6.673 35.613 6.763 35.535 6.829C35.463 6.895 35.382 6.94 35.292 6.964C35.208 6.988 35.124 7 35.04 7C34.944 7 34.86 6.991 34.788 6.973C34.716 6.955 34.635 6.934 34.545 6.91C34.461 6.886 34.359 6.865 34.239 6.847C34.119 6.829 33.963 6.82 33.771 6.82C33.591 6.82 33.444 6.829 33.33 6.847C33.216 6.859 33.117 6.877 33.033 6.901C32.901 6.967 32.724 7 32.502 7C32.25 7 32.037 6.943 31.863 6.829C31.689 6.709 31.602 6.514 31.602 6.244C31.602 6.034 31.611 5.83 31.629 5.632C31.647 5.434 31.668 5.239 31.692 5.047C31.716 4.849 31.737 4.657 31.755 4.471C31.773 4.279 31.782 4.087 31.782 3.895V3.355C31.782 3.163 31.773 2.974 31.755 2.788C31.737 2.596 31.716 2.404 31.692 2.212C31.668 2.014 31.647 1.816 31.629 1.618C31.611 1.42 31.602 1.216 31.602 1.006C31.602 0.934 31.611 0.859 31.629 0.781C31.647 0.697 31.68 0.622 31.728 0.556C31.782 0.49 31.851 0.429999 31.935 0.375999C32.025 0.321999 32.139 0.286 32.277 0.268C32.313 0.256 32.349 0.249999 32.385 0.249999C32.427 0.249999 32.466 0.249999 32.502 0.249999C32.682 0.249999 32.835 0.274 32.961 0.322C33.051 0.352 33.153 0.379 33.267 0.403C33.387 0.421 33.561 0.43 33.789 0.43C33.981 0.43 34.134 0.421 34.248 0.403C34.362 0.385 34.458 0.364 34.536 0.34C34.62 0.316 34.701 0.295 34.779 0.277C34.857 0.259 34.956 0.249999 35.076 0.249999C35.16 0.249999 35.244 0.259 35.328 0.277C35.418 0.288999 35.499 0.325 35.571 0.385C35.643 0.439 35.7 0.52 35.742 0.628C35.79 0.736 35.814 0.88 35.814 1.06C35.814 1.246 35.79 1.393 35.742 1.501C35.694 1.609 35.631 1.69 35.553 1.744C35.481 1.798 35.4 1.834 35.31 1.852C35.226 1.864 35.142 1.87 35.058 1.87C34.962 1.87 34.878 1.861 34.806 1.843C34.734 1.825 34.653 1.804 34.563 1.78C34.479 1.756 34.377 1.735 34.257 1.717C34.137 1.699 33.981 1.69 33.789 1.69C33.741 1.69 33.696 1.693 33.654 1.699C33.612 1.699 33.573 1.699 33.537 1.699C33.423 1.711 33.36 1.771 33.348 1.879C33.336 2.017 33.321 2.152 33.303 2.284C33.291 2.416 33.279 2.548 33.267 2.68C33.255 2.8 33.306 2.86 33.42 2.86H33.519C33.711 2.86 33.864 2.851 33.978 2.833C34.092 2.815 34.188 2.794 34.266 2.77C34.35 2.746 34.431 2.725 34.509 2.707C34.587 2.689 34.686 2.68 34.806 2.68C34.89 2.68 34.974 2.692 35.058 2.716C35.148 2.734 35.229 2.773 35.301 2.833C35.373 2.893 35.43 2.98 35.472 3.094C35.52 3.208 35.544 3.355 35.544 3.535C35.544 3.721 35.52 3.871 35.472 3.985C35.424 4.093 35.361 4.177 35.283 4.237C35.211 4.297 35.13 4.339 35.04 4.363C34.956 4.381 34.872 4.39 34.788 4.39C34.692 4.39 34.608 4.381 34.536 4.363C34.464 4.345 34.383 4.324 34.293 4.3C34.209 4.276 34.107 4.255 33.987 4.237C33.867 4.219 33.711 4.21 33.519 4.21H33.402C33.354 4.21 33.312 4.228 33.276 4.264C33.246 4.294 33.234 4.336 33.24 4.39C33.252 4.522 33.264 4.654 33.276 4.786C33.294 4.912 33.312 5.044 33.33 5.182C33.342 5.296 33.405 5.359 33.519 5.371ZM0.545625 13.355C0.545625 13.163 0.536625 12.974 0.518625 12.788C0.500625 12.596 0.479625 12.404 0.455625 12.212C0.431625 12.014 0.410625 11.816 0.392625 11.618C0.374625 11.42 0.365625 11.216 0.365625 11.006C0.365625 10.922 0.377625 10.838 0.401625 10.754C0.425625 10.664 0.470625 10.583 0.536625 10.511C0.608625 10.433 0.701625 10.37 0.815625 10.322C0.935625 10.274 1.08863 10.25 1.27463 10.25H2.17463C2.56463 10.25 2.93063 10.286 3.27263 10.358C3.62063 10.424 3.92363 10.529 4.18163 10.673C4.43963 10.817 4.64063 11 4.78463 11.222C4.93463 11.438 5.00963 11.699 5.00963 12.005C5.00963 12.257 4.94363 12.488 4.81163 12.698C4.68563 12.908 4.51763 13.091 4.30763 13.247C4.61363 13.439 4.85063 13.682 5.01863 13.976C5.19263 14.27 5.27963 14.603 5.27963 14.975C5.27963 15.347 5.21663 15.662 5.09063 15.92C4.97063 16.178 4.79063 16.388 4.55063 16.55C4.31063 16.706 4.01363 16.82 3.65963 16.892C3.31163 16.964 2.90663 17 2.44463 17H1.27463C1.08863 17 0.935625 16.976 0.815625 16.928C0.701625 16.88 0.608625 16.82 0.536625 16.748C0.470625 16.67 0.425625 16.589 0.401625 16.505C0.377625 16.415 0.365625 16.328 0.365625 16.244C0.365625 16.034 0.374625 15.83 0.392625 15.632C0.410625 15.434 0.431625 15.239 0.455625 15.047C0.479625 14.849 0.500625 14.657 0.518625 14.471C0.536625 14.279 0.545625 14.087 0.545625 13.895V13.355ZM2.19263 12.725C2.64863 12.725 2.96963 12.683 3.15563 12.599C3.34763 12.509 3.44363 12.338 3.44363 12.086C3.44363 11.99 3.42563 11.909 3.38963 11.843C3.35963 11.771 3.29963 11.714 3.20963 11.672C3.12563 11.624 3.01163 11.588 2.86763 11.564C2.72363 11.54 2.54063 11.525 2.31863 11.519C2.21063 11.519 2.15063 11.576 2.13863 11.69C2.12663 11.846 2.10863 11.996 2.08463 12.14C2.06663 12.278 2.05163 12.416 2.03963 12.554C2.02763 12.668 2.07863 12.725 2.19263 12.725ZM2.44463 15.551C2.69663 15.551 2.90363 15.53 3.06563 15.488C3.23363 15.446 3.36563 15.389 3.46163 15.317C3.55763 15.245 3.62363 15.158 3.65963 15.056C3.69563 14.954 3.71363 14.84 3.71363 14.714C3.71363 14.504 3.61763 14.33 3.42563 14.192C3.23363 14.054 2.90663 13.985 2.44463 13.985H2.15663C2.03663 13.985 1.98263 14.042 1.99463 14.156C2.00663 14.36 2.02163 14.564 2.03963 14.768C2.06363 14.966 2.08763 15.17 2.11163 15.38C2.12363 15.494 2.18663 15.551 2.30063 15.551H2.44463ZM7.98082 14.201C7.84282 13.955 7.69882 13.724 7.54882 13.508C7.40482 13.292 7.25482 13.076 7.09882 12.86C6.94882 12.638 6.78982 12.41 6.62182 12.176C6.45382 11.942 6.27682 11.684 6.09082 11.402C6.04282 11.33 6.00982 11.246 5.99182 11.15C5.97982 11.054 5.99182 10.958 6.02782 10.862C6.06382 10.76 6.12982 10.661 6.22582 10.565C6.32182 10.469 6.45382 10.385 6.62182 10.313C6.78982 10.241 6.93682 10.205 7.06282 10.205C7.18882 10.205 7.29682 10.229 7.38682 10.277C7.47682 10.319 7.54882 10.379 7.60282 10.457C7.66282 10.529 7.71082 10.607 7.74682 10.691C7.87282 10.985 7.97782 11.237 8.06182 11.447C8.14582 11.651 8.22082 11.837 8.28682 12.005C8.35882 12.167 8.42782 12.32 8.49382 12.464C8.55982 12.608 8.63782 12.767 8.72782 12.941C8.77582 13.025 8.82382 13.025 8.87182 12.941C8.96182 12.767 9.03982 12.608 9.10582 12.464C9.17182 12.32 9.23782 12.167 9.30382 12.005C9.37582 11.837 9.45382 11.651 9.53782 11.447C9.62182 11.237 9.72682 10.985 9.85282 10.691C9.88882 10.607 9.93382 10.529 9.98782 10.457C10.0478 10.379 10.1228 10.319 10.2128 10.277C10.3028 10.229 10.4108 10.205 10.5368 10.205C10.6628 10.205 10.8098 10.241 10.9778 10.313C11.1518 10.385 11.2838 10.469 11.3738 10.565C11.4698 10.661 11.5358 10.76 11.5718 10.862C11.6078 10.958 11.6168 11.054 11.5988 11.15C11.5868 11.246 11.5568 11.33 11.5088 11.402C11.3228 11.684 11.1458 11.945 10.9778 12.185C10.8098 12.419 10.6478 12.647 10.4918 12.869C10.3358 13.085 10.1828 13.304 10.0328 13.526C9.88882 13.742 9.74482 13.976 9.60082 14.228C9.57682 14.27 9.55882 14.318 9.54682 14.372C9.54082 14.42 9.54082 14.468 9.54682 14.516C9.57682 14.786 9.60682 15.059 9.63682 15.335C9.67282 15.611 9.69082 15.92 9.69082 16.262C9.69082 16.346 9.67882 16.433 9.65482 16.523C9.63082 16.607 9.58282 16.685 9.51082 16.757C9.44482 16.829 9.35182 16.889 9.23182 16.937C9.11782 16.979 8.97082 17 8.79082 17C8.60482 17 8.45182 16.976 8.33182 16.928C8.21782 16.88 8.12782 16.82 8.06182 16.748C7.99582 16.67 7.95082 16.589 7.92682 16.505C7.90282 16.415 7.89082 16.328 7.89082 16.244C7.89082 15.926 7.90882 15.626 7.94482 15.344C7.98082 15.062 8.01382 14.777 8.04382 14.489C8.04982 14.441 8.04682 14.393 8.03482 14.345C8.02282 14.291 8.00482 14.243 7.98082 14.201ZM14.5719 15.02C14.5959 15.212 14.6169 15.41 14.6349 15.614C14.6529 15.812 14.6619 16.028 14.6619 16.262C14.6619 16.346 14.6499 16.433 14.6259 16.523C14.6019 16.607 14.5539 16.685 14.4819 16.757C14.4159 16.829 14.3229 16.889 14.2029 16.937C14.0889 16.979 13.9419 17 13.7619 17C13.5759 17 13.4229 16.976 13.3029 16.928C13.1889 16.88 13.0989 16.82 13.0329 16.748C12.9669 16.67 12.9219 16.589 12.8979 16.505C12.8739 16.415 12.8619 16.328 12.8619 16.244C12.8619 16.034 12.8709 15.83 12.8889 15.632C12.9069 15.434 12.9279 15.239 12.9519 15.047C12.9759 14.849 12.9969 14.657 13.0149 14.471C13.0329 14.279 13.0419 14.087 13.0419 13.895V13.355C13.0419 13.163 13.0329 12.974 13.0149 12.788C12.9969 12.596 12.9759 12.404 12.9519 12.212C12.9279 12.014 12.9069 11.816 12.8889 11.618C12.8709 11.42 12.8619 11.216 12.8619 11.006C12.8619 10.922 12.8739 10.838 12.8979 10.754C12.9219 10.664 12.9669 10.583 13.0329 10.511C13.1049 10.433 13.1979 10.37 13.3119 10.322C13.4319 10.274 13.5849 10.25 13.7709 10.25H14.9409C15.8649 10.25 16.5669 10.445 17.0469 10.835C17.5329 11.225 17.7759 11.795 17.7759 12.545C17.7759 12.905 17.7009 13.229 17.5509 13.517C17.4069 13.805 17.2059 14.048 16.9479 14.246C16.6959 14.444 16.3959 14.597 16.0479 14.705C15.7059 14.813 15.3369 14.867 14.9409 14.867H14.7069C14.6049 14.867 14.5599 14.918 14.5719 15.02ZM14.9409 13.625C15.1749 13.625 15.3699 13.592 15.5259 13.526C15.6879 13.46 15.8199 13.376 15.9219 13.274C16.0239 13.166 16.0959 13.049 16.1379 12.923C16.1859 12.791 16.2099 12.662 16.2099 12.536C16.2099 12.41 16.1919 12.287 16.1559 12.167C16.1199 12.047 16.0539 11.939 15.9579 11.843C15.8619 11.747 15.7299 11.669 15.5619 11.609C15.3999 11.549 15.1929 11.519 14.9409 11.519H14.7969C14.7009 11.519 14.6469 11.57 14.6349 11.672C14.6049 11.978 14.5719 12.263 14.5359 12.527C14.4999 12.791 14.4819 13.067 14.4819 13.355V13.472C14.4819 13.574 14.5329 13.625 14.6349 13.625H14.9409ZM20.1452 15.425C20.1032 15.581 20.0522 15.746 19.9922 15.92C19.9382 16.088 19.8632 16.286 19.7672 16.514C19.7192 16.634 19.6412 16.745 19.5332 16.847C19.4312 16.949 19.2872 17 19.1012 17C18.9752 17 18.8222 16.964 18.6422 16.892C18.4742 16.82 18.3452 16.739 18.2552 16.649C18.1652 16.553 18.1022 16.457 18.0662 16.361C18.0362 16.259 18.0272 16.16 18.0392 16.064C18.0512 15.968 18.0752 15.881 18.1112 15.803C18.4712 14.963 18.7952 14.123 19.0832 13.283C19.3712 12.443 19.6622 11.582 19.9562 10.7C20.0042 10.562 20.1122 10.448 20.2802 10.358C20.4482 10.268 20.6582 10.223 20.9102 10.223C21.1622 10.223 21.3722 10.268 21.5402 10.358C21.7082 10.448 21.8162 10.562 21.8642 10.7C22.1642 11.582 22.4552 12.443 22.7372 13.283C23.0252 14.123 23.3492 14.963 23.7092 15.803C23.7452 15.881 23.7692 15.968 23.7812 16.064C23.7932 16.16 23.7812 16.259 23.7452 16.361C23.7152 16.457 23.6552 16.553 23.5652 16.649C23.4812 16.739 23.3522 16.82 23.1782 16.892C22.9982 16.964 22.8452 17 22.7192 17C22.5332 17 22.3862 16.949 22.2782 16.847C22.1762 16.745 22.1012 16.634 22.0532 16.514C21.9572 16.286 21.8792 16.085 21.8192 15.911C21.7652 15.737 21.7172 15.572 21.6752 15.416C21.6452 15.302 21.5732 15.239 21.4592 15.227C21.4052 15.221 21.3482 15.218 21.2882 15.218C21.2342 15.218 21.1742 15.218 21.1082 15.218H20.7482C20.6702 15.218 20.5982 15.221 20.5322 15.227C20.4722 15.227 20.4152 15.23 20.3612 15.236C20.2472 15.248 20.1752 15.311 20.1452 15.425ZM20.8562 12.239C20.8322 12.323 20.8052 12.428 20.7752 12.554C20.7452 12.68 20.7152 12.815 20.6852 12.959C20.6552 13.103 20.6252 13.25 20.5952 13.4C20.5712 13.55 20.5442 13.694 20.5142 13.832C20.4962 13.952 20.5412 14.012 20.6492 14.012H20.7482H21.1082H21.1712C21.2792 14.012 21.3242 13.955 21.3062 13.841C21.2822 13.703 21.2552 13.559 21.2252 13.409C21.1952 13.259 21.1652 13.112 21.1352 12.968C21.1052 12.824 21.0752 12.689 21.0452 12.563C21.0152 12.431 20.9882 12.323 20.9642 12.239C20.9522 12.191 20.9342 12.167 20.9102 12.167C20.8862 12.167 20.8682 12.191 20.8562 12.239ZM26.7436 11.78C26.7436 11.882 26.7706 11.969 26.8246 12.041C26.8846 12.113 26.9626 12.182 27.0586 12.248C27.1606 12.308 27.2806 12.371 27.4186 12.437C27.5566 12.503 27.7096 12.578 27.8776 12.662C28.0936 12.77 28.3096 12.89 28.5256 13.022C28.7476 13.154 28.9486 13.31 29.1286 13.49C29.3086 13.67 29.4556 13.883 29.5696 14.129C29.6836 14.369 29.7406 14.651 29.7406 14.975C29.7406 15.311 29.6956 15.611 29.6056 15.875C29.5216 16.139 29.3866 16.361 29.2006 16.541C29.0146 16.721 28.7716 16.859 28.4716 16.955C28.1776 17.045 27.8176 17.09 27.3916 17.09C27.1696 17.09 26.9506 17.063 26.7346 17.009C26.5246 16.961 26.3266 16.895 26.1406 16.811C25.9546 16.721 25.7836 16.619 25.6276 16.505C25.4716 16.385 25.3366 16.259 25.2226 16.127C25.0966 15.977 25.0216 15.83 24.9976 15.686C24.9796 15.536 24.9946 15.401 25.0426 15.281C25.0966 15.161 25.1776 15.059 25.2856 14.975C25.3996 14.891 25.5196 14.837 25.6456 14.813C25.7776 14.783 25.9096 14.789 26.0416 14.831C26.1796 14.873 26.2996 14.957 26.4016 15.083C26.4496 15.143 26.5096 15.206 26.5816 15.272C26.6596 15.332 26.7406 15.386 26.8246 15.434C26.9146 15.482 27.0076 15.524 27.1036 15.56C27.1996 15.59 27.2956 15.605 27.3916 15.605C27.6316 15.605 27.8206 15.569 27.9586 15.497C28.0966 15.425 28.1656 15.284 28.1656 15.074C28.1656 14.882 28.0696 14.711 27.8776 14.561C27.6856 14.411 27.4516 14.264 27.1756 14.12C26.8876 13.97 26.6236 13.823 26.3836 13.679C26.1496 13.535 25.9486 13.379 25.7806 13.211C25.6126 13.037 25.4836 12.845 25.3936 12.635C25.3036 12.419 25.2586 12.167 25.2586 11.879C25.2586 11.591 25.3156 11.339 25.4296 11.123C25.5496 10.907 25.7086 10.73 25.9066 10.592C26.1046 10.448 26.3356 10.34 26.5996 10.268C26.8636 10.196 27.1396 10.16 27.4276 10.16C27.6436 10.16 27.8326 10.178 27.9946 10.214C28.1626 10.244 28.3156 10.286 28.4536 10.34C28.5916 10.394 28.7176 10.454 28.8316 10.52C28.9516 10.586 29.0656 10.655 29.1736 10.727C29.3176 10.817 29.4196 10.922 29.4796 11.042C29.5396 11.156 29.5666 11.273 29.5606 11.393C29.5606 11.507 29.5306 11.615 29.4706 11.717C29.4166 11.813 29.3446 11.894 29.2546 11.96C29.1646 12.02 29.0626 12.053 28.9486 12.059C28.8406 12.065 28.7326 12.032 28.6246 11.96C28.5406 11.906 28.4536 11.849 28.3636 11.789C28.2736 11.723 28.1746 11.663 28.0666 11.609C27.9646 11.555 27.8536 11.513 27.7336 11.483C27.6136 11.447 27.4816 11.429 27.3376 11.429C27.0976 11.429 26.9386 11.465 26.8606 11.537C26.7826 11.609 26.7436 11.69 26.7436 11.78ZM32.8028 11.78C32.8028 11.882 32.8298 11.969 32.8838 12.041C32.9438 12.113 33.0218 12.182 33.1178 12.248C33.2198 12.308 33.3398 12.371 33.4778 12.437C33.6158 12.503 33.7688 12.578 33.9368 12.662C34.1528 12.77 34.3688 12.89 34.5848 13.022C34.8068 13.154 35.0078 13.31 35.1878 13.49C35.3678 13.67 35.5148 13.883 35.6288 14.129C35.7428 14.369 35.7998 14.651 35.7998 14.975C35.7998 15.311 35.7548 15.611 35.6648 15.875C35.5808 16.139 35.4458 16.361 35.2598 16.541C35.0738 16.721 34.8308 16.859 34.5308 16.955C34.2368 17.045 33.8768 17.09 33.4508 17.09C33.2288 17.09 33.0098 17.063 32.7938 17.009C32.5838 16.961 32.3858 16.895 32.1998 16.811C32.0138 16.721 31.8428 16.619 31.6868 16.505C31.5308 16.385 31.3958 16.259 31.2818 16.127C31.1558 15.977 31.0808 15.83 31.0568 15.686C31.0388 15.536 31.0538 15.401 31.1018 15.281C31.1558 15.161 31.2368 15.059 31.3448 14.975C31.4588 14.891 31.5788 14.837 31.7048 14.813C31.8368 14.783 31.9688 14.789 32.1008 14.831C32.2388 14.873 32.3588 14.957 32.4608 15.083C32.5088 15.143 32.5688 15.206 32.6408 15.272C32.7188 15.332 32.7998 15.386 32.8838 15.434C32.9738 15.482 33.0668 15.524 33.1628 15.56C33.2588 15.59 33.3548 15.605 33.4508 15.605C33.6908 15.605 33.8798 15.569 34.0178 15.497C34.1558 15.425 34.2248 15.284 34.2248 15.074C34.2248 14.882 34.1288 14.711 33.9368 14.561C33.7448 14.411 33.5108 14.264 33.2348 14.12C32.9468 13.97 32.6828 13.823 32.4428 13.679C32.2088 13.535 32.0078 13.379 31.8398 13.211C31.6718 13.037 31.5428 12.845 31.4528 12.635C31.3628 12.419 31.3178 12.167 31.3178 11.879C31.3178 11.591 31.3748 11.339 31.4888 11.123C31.6088 10.907 31.7678 10.73 31.9658 10.592C32.1638 10.448 32.3948 10.34 32.6588 10.268C32.9228 10.196 33.1988 10.16 33.4868 10.16C33.7028 10.16 33.8918 10.178 34.0538 10.214C34.2218 10.244 34.3748 10.286 34.5128 10.34C34.6508 10.394 34.7768 10.454 34.8908 10.52C35.0108 10.586 35.1248 10.655 35.2328 10.727C35.3768 10.817 35.4788 10.922 35.5388 11.042C35.5988 11.156 35.6258 11.273 35.6198 11.393C35.6198 11.507 35.5898 11.615 35.5298 11.717C35.4758 11.813 35.4038 11.894 35.3138 11.96C35.2238 12.02 35.1218 12.053 35.0078 12.059C34.8998 12.065 34.7918 12.032 34.6838 11.96C34.5998 11.906 34.5128 11.849 34.4228 11.789C34.3328 11.723 34.2338 11.663 34.1258 11.609C34.0238 11.555 33.9128 11.513 33.7928 11.483C33.6728 11.447 33.5408 11.429 33.3968 11.429C33.1568 11.429 32.9978 11.465 32.9198 11.537C32.8418 11.609 32.8028 11.69 32.8028 11.78Z" fill="black"/>
</svg>
