<svg width="63" height="14" viewBox="0 0 63 14" fill="none" xmlns="http://www.w3.org/2000/svg">
<path d="M5.44 9.448C5.504 9.23467 5.57333 8.94667 5.648 8.584C5.73333 8.21067 5.81333 7.82667 5.888 7.432C5.96267 7.03733 6.032 6.66933 6.096 6.328C6.17067 5.98667 6.22933 5.73067 6.272 5.56C6.35733 5.208 6.42667 4.89333 6.48 4.616C6.544 4.328 6.61333 4.04533 6.688 3.768C6.76267 3.49067 6.85333 3.19733 6.96 2.888C7.06667 2.57867 7.20533 2.22133 7.376 1.816C7.46133 1.60267 7.59467 1.40533 7.776 1.224C7.968 1.04267 8.22933 0.952 8.56 0.952C8.784 0.952 9.056 1.016 9.376 1.144C9.68533 1.272 9.91467 1.42133 10.064 1.592C10.224 1.752 10.3307 1.92267 10.384 2.104C10.448 2.27467 10.4693 2.44533 10.448 2.616C10.4267 2.776 10.384 2.93067 10.32 3.08C9.68 4.57333 9.104 6.06667 8.592 7.56C8.09067 9.05333 7.57333 10.584 7.04 12.152C6.95467 12.3973 6.76267 12.6 6.464 12.76C6.16533 12.92 5.792 13 5.344 13C4.896 13 4.52267 12.92 4.224 12.76C3.92533 12.6 3.73333 12.3973 3.648 12.152C3.12533 10.584 2.608 9.05333 2.096 7.56C1.584 6.056 1.008 4.56267 0.368 3.08C0.304 2.93067 0.261333 2.776 0.24 2.616C0.218667 2.44533 0.234667 2.27467 0.288 2.104C0.352 1.92267 0.464 1.752 0.624 1.592C0.784 1.42133 1.01333 1.272 1.312 1.144C1.632 1.016 1.904 0.952 2.128 0.952C2.45867 0.952 2.71467 1.04267 2.896 1.224C3.088 1.40533 3.22667 1.60267 3.312 1.816C3.48267 2.22133 3.62133 2.57867 3.728 2.888C3.83467 3.19733 3.92533 3.49067 4 3.768C4.07467 4.04533 4.13867 4.328 4.192 4.616C4.256 4.89333 4.33067 5.208 4.416 5.56C4.45867 5.73067 4.512 5.98667 4.576 6.328C4.65067 6.66933 4.72533 7.03733 4.8 7.432C4.87467 7.82667 4.94933 8.21067 5.024 8.584C5.10933 8.94667 5.184 9.23467 5.248 9.448C5.26933 9.53333 5.30133 9.576 5.344 9.576C5.38667 9.576 5.41867 9.53333 5.44 9.448ZM11.0575 7C11.0575 6.17867 11.1642 5.4 11.3775 4.664C11.5908 3.91733 11.9108 3.26133 12.3375 2.696C12.7642 2.13067 13.2922 1.68267 13.9215 1.352C14.5508 1.01067 15.2815 0.839999 16.1135 0.839999C16.9348 0.839999 17.6548 1.01067 18.2735 1.352C18.9028 1.68267 19.4308 2.13067 19.8575 2.696C20.2842 3.26133 20.6042 3.91733 20.8175 4.664C21.0415 5.4 21.1535 6.17867 21.1535 7C21.1535 7.96 21.0522 8.824 20.8495 9.592C20.6575 10.3493 20.3535 10.9947 19.9375 11.528C19.5215 12.0507 18.9935 12.456 18.3535 12.744C17.7242 13.0213 16.9775 13.16 16.1135 13.16C15.2388 13.16 14.4815 13.0213 13.8415 12.744C13.2122 12.456 12.6895 12.0507 12.2735 11.528C11.8575 10.9947 11.5482 10.3493 11.3455 9.592C11.1535 8.824 11.0575 7.96 11.0575 7ZM13.8575 6.984C13.8575 7.528 13.8948 8.024 13.9695 8.472C14.0548 8.90933 14.1882 9.28267 14.3695 9.592C14.5508 9.90133 14.7802 10.1413 15.0575 10.312C15.3455 10.4827 15.6975 10.568 16.1135 10.568C16.5295 10.568 16.8762 10.4827 17.1535 10.312C17.4415 10.1413 17.6762 9.90133 17.8575 9.592C18.0388 9.28267 18.1668 8.90933 18.2415 8.472C18.3268 8.024 18.3695 7.528 18.3695 6.984C18.3695 6.44 18.3375 5.93333 18.2735 5.464C18.2095 4.99467 18.0922 4.584 17.9215 4.232C17.7508 3.88 17.5162 3.60267 17.2175 3.4C16.9295 3.19733 16.5615 3.096 16.1135 3.096C15.6655 3.096 15.2922 3.19733 14.9935 3.4C14.7055 3.60267 14.4762 3.88 14.3055 4.232C14.1348 4.584 14.0175 4.99467 13.9535 5.464C13.8895 5.93333 13.8575 6.44 13.8575 6.984ZM26.0799 10.12H26.3679C26.7092 10.12 26.9705 10.104 27.1519 10.072C27.3439 10.04 27.4985 10.0027 27.6159 9.96C27.7439 9.91733 27.8665 9.88 27.9839 9.848C28.1119 9.816 28.2825 9.8 28.4959 9.8C28.6452 9.8 28.7945 9.82133 28.9439 9.864C29.1039 9.90667 29.2479 9.992 29.3759 10.12C29.5039 10.2373 29.6052 10.4027 29.6799 10.616C29.7652 10.8187 29.8079 11.08 29.8079 11.4C29.8079 11.7307 29.7652 12.0027 29.6799 12.216C29.5945 12.4187 29.4825 12.5787 29.3439 12.696C29.2159 12.8133 29.0719 12.8933 28.9119 12.936C28.7625 12.9787 28.6132 13 28.4639 13C28.2932 13 28.1492 12.984 28.0319 12.952C27.9252 12.92 27.8025 12.8827 27.6639 12.84C27.5359 12.7973 27.3705 12.76 27.1679 12.728C26.9759 12.696 26.7092 12.68 26.3679 12.68C26.1119 12.68 25.8985 12.6907 25.7279 12.712C25.5572 12.7333 25.4132 12.7547 25.2959 12.776C25.0505 12.9253 24.7092 13 24.2719 13C23.8239 13 23.4452 12.8987 23.1359 12.696C22.8265 12.4827 22.6719 12.136 22.6719 11.656C22.6719 11.2827 22.6879 10.92 22.7199 10.568C22.7519 10.216 22.7892 9.86933 22.8319 9.528C22.8745 9.176 22.9119 8.83467 22.9439 8.504C22.9759 8.16267 22.9919 7.82133 22.9919 7.48V6.52C22.9919 6.17867 22.9759 5.84267 22.9439 5.512C22.9119 5.17067 22.8745 4.82933 22.8319 4.488C22.7892 4.136 22.7519 3.784 22.7199 3.432C22.6879 3.08 22.6719 2.71733 22.6719 2.344C22.6719 2.09867 22.7145 1.89067 22.7999 1.72C22.8852 1.54933 23.0025 1.41067 23.1519 1.304C23.3012 1.19733 23.4772 1.12267 23.6799 1.08C23.8825 1.02667 24.0959 0.999999 24.3199 0.999999C24.6292 0.999999 24.8852 1.04267 25.0879 1.128C25.2905 1.20267 25.4505 1.304 25.5679 1.432C25.6852 1.56 25.7652 1.704 25.8079 1.864C25.8505 2.01333 25.8719 2.16267 25.8719 2.312C25.8719 2.728 25.8559 3.11733 25.8239 3.48C25.7919 3.84267 25.7545 4.19467 25.7119 4.536C25.6692 4.86667 25.6319 5.19733 25.5999 5.528C25.5679 5.848 25.5519 6.17867 25.5519 6.52V7.48C25.5519 7.88533 25.5679 8.27467 25.5999 8.648C25.6425 9.01067 25.6905 9.38933 25.7439 9.784C25.7652 9.98667 25.8772 10.0987 26.0799 10.12ZM39.3459 7C39.3885 7.96 39.3459 8.824 39.2179 9.592C39.1005 10.3493 38.8765 10.9947 38.5459 11.528C38.2259 12.0507 37.7885 12.456 37.2339 12.744C36.6792 13.0213 35.9859 13.16 35.1539 13.16C34.3219 13.16 33.6285 13.0213 33.0739 12.744C32.5299 12.456 32.0979 12.0507 31.7779 11.528C31.4579 10.9947 31.2392 10.3493 31.1219 9.592C31.0152 8.824 30.9832 7.96 31.0259 7C31.0472 6.59467 31.0419 6.19467 31.0099 5.8C30.9779 5.40533 30.9405 5.016 30.8979 4.632C30.8552 4.248 30.8125 3.86933 30.7699 3.496C30.7379 3.112 30.7219 2.728 30.7219 2.344C30.7219 2.09867 30.7645 1.89067 30.8499 1.72C30.9352 1.54933 31.0525 1.41067 31.2019 1.304C31.3512 1.19733 31.5272 1.12267 31.7299 1.08C31.9325 1.02667 32.1459 0.999999 32.3699 0.999999C32.6792 0.999999 32.9352 1.04267 33.1379 1.128C33.3405 1.20267 33.5005 1.304 33.6179 1.432C33.7352 1.56 33.8152 1.704 33.8579 1.864C33.9005 2.01333 33.9219 2.16267 33.9219 2.312C33.9219 3.10133 33.8685 3.88 33.7619 4.648C33.6552 5.416 33.6019 6.19467 33.6019 6.984C33.6019 7.528 33.6125 8.024 33.6339 8.472C33.6552 8.90933 33.7139 9.28267 33.8099 9.592C33.9165 9.90133 34.0712 10.1413 34.2739 10.312C34.4872 10.4827 34.7805 10.568 35.1539 10.568C35.5272 10.568 35.8205 10.4827 36.0339 10.312C36.2472 10.1413 36.4019 9.90133 36.4979 9.592C36.6045 9.28267 36.6685 8.90933 36.6899 8.472C36.7219 8.024 36.7379 7.528 36.7379 6.984C36.7379 6.19467 36.6845 5.416 36.5779 4.648C36.4819 3.88 36.4339 3.10133 36.4339 2.312C36.4339 2.16267 36.4552 2.01333 36.4979 1.864C36.5405 1.704 36.6205 1.56 36.7379 1.432C36.8552 1.304 37.0152 1.20267 37.2179 1.128C37.4205 1.04267 37.6765 0.999999 37.9859 0.999999C38.2099 0.999999 38.4232 1.02667 38.6259 1.08C38.8285 1.12267 39.0045 1.19733 39.1539 1.304C39.3032 1.41067 39.4205 1.54933 39.5059 1.72C39.5912 1.89067 39.6339 2.09867 39.6339 2.344C39.6339 2.728 39.6125 3.11733 39.5699 3.512C39.5379 3.896 39.5005 4.28 39.4579 4.664C39.4259 5.048 39.3939 5.43733 39.3619 5.832C39.3405 6.216 39.3352 6.60533 39.3459 7ZM49.2086 11.8C49.102 12.1627 48.9046 12.456 48.6166 12.68C48.3286 12.8933 47.998 13 47.6246 13H47.6086C47.2353 13 46.9046 12.8933 46.6166 12.68C46.3286 12.456 46.1313 12.1627 46.0246 11.8L44.2326 5.576C44.2113 5.49067 44.19 5.448 44.1686 5.448C44.1473 5.43733 44.1366 5.48 44.1366 5.576C44.126 5.736 44.1206 5.912 44.1206 6.104C44.1206 6.28533 44.1206 6.424 44.1206 6.52V7C44.1206 7.34133 44.142 7.704 44.1846 8.088C44.238 8.46133 44.2966 8.84533 44.3606 9.24C44.4246 9.63467 44.478 10.04 44.5206 10.456C44.574 10.8613 44.6006 11.272 44.6006 11.688C44.6006 11.8373 44.5686 11.992 44.5046 12.152C44.4406 12.3013 44.3393 12.44 44.2006 12.568C44.062 12.696 43.8806 12.8027 43.6566 12.888C43.4326 12.9627 43.1606 13 42.8406 13C42.51 13 42.238 12.9573 42.0246 12.872C41.822 12.7867 41.662 12.68 41.5446 12.552C41.4273 12.4133 41.3473 12.2693 41.3046 12.12C41.262 11.96 41.2406 11.8053 41.2406 11.656C41.2406 11.2827 41.2566 10.92 41.2886 10.568C41.3206 10.216 41.358 9.86933 41.4006 9.528C41.4433 9.176 41.4806 8.83467 41.5126 8.504C41.5446 8.16267 41.5606 7.82133 41.5606 7.48V6.52C41.5606 6.17867 41.5446 5.85867 41.5126 5.56C41.4806 5.25067 41.4433 4.94667 41.4006 4.648C41.358 4.33867 41.3206 4.024 41.2886 3.704C41.2566 3.384 41.2406 3.03733 41.2406 2.664C41.2406 2.20533 41.4326 1.816 41.8166 1.496C42.2113 1.176 42.7393 1.01067 43.4006 0.999999H43.9286C44.4193 0.999999 44.846 1.144 45.2086 1.432C45.582 1.72 45.8273 2.104 45.9446 2.584L47.4486 8.808C47.502 9.02133 47.5606 9.128 47.6246 9.128C47.6886 9.128 47.7473 9.02133 47.8006 8.808L49.2886 2.584C49.406 2.104 49.646 1.72 50.0086 1.432C50.382 1.144 50.814 0.999999 51.3046 0.999999H51.8326C52.494 1.01067 52.99 1.176 53.3206 1.496C53.662 1.816 53.8326 2.20533 53.8326 2.664C53.8326 3.03733 53.8166 3.384 53.7846 3.704C53.7526 4.024 53.7153 4.33867 53.6726 4.648C53.63 4.94667 53.5926 5.25067 53.5606 5.56C53.5286 5.85867 53.5126 6.17867 53.5126 6.52V7.48C53.5126 7.82133 53.5286 8.16267 53.5606 8.504C53.5926 8.83467 53.63 9.176 53.6726 9.528C53.7153 9.86933 53.7526 10.216 53.7846 10.568C53.8166 10.92 53.8326 11.2827 53.8326 11.656C53.8326 11.8053 53.8113 11.96 53.7686 12.12C53.7366 12.2693 53.6673 12.4133 53.5606 12.552C53.454 12.68 53.2993 12.7867 53.0966 12.872C52.9046 12.9573 52.6433 13 52.3126 13C51.9926 13 51.7206 12.9627 51.4966 12.888C51.2833 12.8027 51.1126 12.696 50.9846 12.568C50.8566 12.44 50.766 12.3013 50.7126 12.152C50.6593 11.992 50.6326 11.8373 50.6326 11.688C50.6326 11.272 50.654 10.8613 50.6966 10.456C50.75 10.04 50.8086 9.63467 50.8726 9.24C50.9366 8.84533 50.99 8.46133 51.0326 8.088C51.086 7.704 51.1126 7.34133 51.1126 7V6.52C51.1126 6.424 51.1126 6.28533 51.1126 6.104C51.1126 5.912 51.1073 5.736 51.0966 5.576C51.0966 5.48 51.086 5.43733 51.0646 5.448C51.0433 5.448 51.022 5.49067 51.0006 5.576L49.2086 11.8ZM58.8393 10.104C58.9033 10.1147 58.9726 10.12 59.0473 10.12C59.1219 10.12 59.2019 10.12 59.2873 10.12C59.6286 10.12 59.9006 10.104 60.1033 10.072C60.3059 10.04 60.4766 10.0027 60.6153 9.96C60.7646 9.91733 60.9086 9.88 61.0473 9.848C61.1859 9.816 61.3619 9.8 61.5753 9.8C61.7246 9.8 61.8739 9.82133 62.0233 9.864C62.1833 9.90667 62.3273 9.992 62.4553 10.12C62.5833 10.2373 62.6846 10.4027 62.7593 10.616C62.8446 10.8187 62.8873 11.08 62.8873 11.4C62.8873 11.7307 62.8446 12.0027 62.7593 12.216C62.6739 12.4187 62.5619 12.5787 62.4233 12.696C62.2953 12.8133 62.1513 12.8933 61.9913 12.936C61.8419 12.9787 61.6926 13 61.5433 13C61.3726 13 61.2233 12.984 61.0953 12.952C60.9673 12.92 60.8233 12.8827 60.6633 12.84C60.5139 12.7973 60.3326 12.76 60.1193 12.728C59.9059 12.696 59.6286 12.68 59.2873 12.68C58.9673 12.68 58.7059 12.696 58.5033 12.728C58.3006 12.7493 58.1246 12.7813 57.9753 12.824C57.7406 12.9413 57.4259 13 57.0312 13C56.5833 13 56.2046 12.8987 55.8953 12.696C55.5859 12.4827 55.4313 12.136 55.4313 11.656C55.4313 11.2827 55.4473 10.92 55.4793 10.568C55.5113 10.216 55.5486 9.86933 55.5913 9.528C55.6339 9.176 55.6713 8.83467 55.7033 8.504C55.7353 8.16267 55.7513 7.82133 55.7513 7.48V6.52C55.7513 6.17867 55.7353 5.84267 55.7033 5.512C55.6713 5.17067 55.6339 4.82933 55.5913 4.488C55.5486 4.136 55.5113 3.784 55.4793 3.432C55.4473 3.08 55.4313 2.71733 55.4313 2.344C55.4313 2.216 55.4473 2.08267 55.4793 1.944C55.5113 1.79467 55.5699 1.66133 55.6553 1.544C55.7513 1.42667 55.8739 1.32 56.0233 1.224C56.1833 1.128 56.3859 1.064 56.6313 1.032C56.6953 1.01067 56.7593 0.999999 56.8233 0.999999C56.8979 0.999999 56.9673 0.999999 57.0312 0.999999C57.3513 0.999999 57.6233 1.04267 57.8473 1.128C58.0073 1.18133 58.1886 1.22933 58.3913 1.272C58.6046 1.304 58.9139 1.32 59.3193 1.32C59.6606 1.32 59.9326 1.304 60.1353 1.272C60.3379 1.24 60.5086 1.20267 60.6473 1.16C60.7966 1.11733 60.9406 1.08 61.0793 1.048C61.2179 1.016 61.3939 0.999999 61.6073 0.999999C61.7566 0.999999 61.9059 1.016 62.0553 1.048C62.2153 1.06933 62.3593 1.13333 62.4873 1.24C62.6153 1.336 62.7166 1.48 62.7913 1.672C62.8766 1.864 62.9193 2.12 62.9193 2.44C62.9193 2.77067 62.8766 3.032 62.7913 3.224C62.7059 3.416 62.5939 3.56 62.4553 3.656C62.3273 3.752 62.1833 3.816 62.0233 3.848C61.8739 3.86933 61.7246 3.88 61.5753 3.88C61.4046 3.88 61.2553 3.864 61.1273 3.832C60.9993 3.8 60.8553 3.76267 60.6953 3.72C60.5459 3.67733 60.3646 3.64 60.1513 3.608C59.9379 3.576 59.6606 3.56 59.3193 3.56C59.2339 3.56 59.1539 3.56533 59.0793 3.576C59.0046 3.576 58.9353 3.576 58.8713 3.576C58.6686 3.59733 58.5566 3.704 58.5353 3.896C58.5139 4.14133 58.4873 4.38133 58.4553 4.616C58.4339 4.85067 58.4126 5.08533 58.3913 5.32C58.3699 5.53333 58.4606 5.64 58.6633 5.64H58.8393C59.1806 5.64 59.4526 5.624 59.6553 5.592C59.8579 5.56 60.0286 5.52267 60.1673 5.48C60.3166 5.43733 60.4606 5.4 60.5993 5.368C60.7379 5.336 60.9139 5.32 61.1273 5.32C61.2766 5.32 61.4259 5.34133 61.5753 5.384C61.7353 5.416 61.8793 5.48533 62.0073 5.592C62.1353 5.69867 62.2366 5.85333 62.3113 6.056C62.3966 6.25867 62.4393 6.52 62.4393 6.84C62.4393 7.17067 62.3966 7.43733 62.3113 7.64C62.2259 7.832 62.1139 7.98133 61.9753 8.088C61.8473 8.19467 61.7033 8.26933 61.5433 8.312C61.3939 8.344 61.2446 8.36 61.0953 8.36C60.9246 8.36 60.7753 8.344 60.6473 8.312C60.5193 8.28 60.3753 8.24267 60.2153 8.2C60.0659 8.15733 59.8846 8.12 59.6713 8.088C59.4579 8.056 59.1806 8.04 58.8393 8.04H58.6313C58.5459 8.04 58.4713 8.072 58.4073 8.136C58.3539 8.18933 58.3326 8.264 58.3433 8.36C58.3646 8.59467 58.3859 8.82933 58.4073 9.064C58.4393 9.288 58.4713 9.52267 58.5033 9.768C58.5246 9.97067 58.6366 10.0827 58.8393 10.104Z" fill="black"/>
</svg>
