<svg width="134" height="10" viewBox="0 0 134 10" fill="none" xmlns="http://www.w3.org/2000/svg">
<path d="M3.448 4.968C3.368 5.23467 3.29067 5.50133 3.216 5.768C3.14667 6.03467 3.07733 6.304 3.008 6.576C2.98133 6.69867 2.91467 6.8 2.808 6.88C2.70667 6.96 2.544 7 2.32 7C2.096 7 1.90933 6.96 1.76 6.88C1.61067 6.8 1.51467 6.69867 1.472 6.576C1.33867 6.18133 1.22133 5.79467 1.12 5.416C1.024 5.032 0.928 4.65333 0.832 4.28C0.741333 3.90133 0.642667 3.528 0.536 3.16C0.434667 2.78667 0.314667 2.41333 0.176 2.04C0.149333 1.96533 0.130667 1.888 0.12 1.808C0.109333 1.72267 0.117333 1.63733 0.144 1.552C0.170667 1.46133 0.224 1.376 0.304 1.296C0.384 1.21067 0.498667 1.136 0.648 1.072C0.797333 1.008 0.928 0.976 1.04 0.976C1.152 0.976 1.248 0.997333 1.328 1.04C1.408 1.07733 1.472 1.13067 1.52 1.2C1.57333 1.264 1.616 1.33333 1.648 1.408C1.696 1.51467 1.74133 1.66133 1.784 1.848C1.832 2.03467 1.87733 2.24533 1.92 2.48C1.968 2.71467 2.01333 2.96267 2.056 3.224C2.09867 3.48 2.136 3.73333 2.168 3.984C2.20533 4.22933 2.23467 4.45867 2.256 4.672C2.28267 4.88533 2.30133 5.06667 2.312 5.216C2.31733 5.28533 2.328 5.28533 2.344 5.216C2.392 4.896 2.43733 4.576 2.48 4.256C2.528 3.93067 2.57867 3.608 2.632 3.288C2.68533 2.968 2.74667 2.65067 2.816 2.336C2.88533 2.02133 2.97067 1.712 3.072 1.408C3.09867 1.33333 3.13333 1.26133 3.176 1.192C3.21867 1.12267 3.27467 1.06933 3.344 1.032C3.41867 0.989333 3.50667 0.970667 3.608 0.976C3.71467 0.976 3.84267 1.008 3.992 1.072C4.14667 1.136 4.256 1.21067 4.32 1.296C4.38933 1.376 4.432 1.45867 4.448 1.544C4.46933 1.62933 4.46933 1.71467 4.448 1.8C4.432 1.88533 4.41067 1.96533 4.384 2.04C4.35733 2.12533 4.328 2.21067 4.296 2.296C4.26933 2.38133 4.24267 2.46667 4.216 2.552C4.264 2.77067 4.30667 2.99733 4.344 3.232C4.38667 3.46667 4.424 3.69867 4.456 3.928C4.488 4.15733 4.51733 4.38133 4.544 4.6C4.57067 4.81867 4.59733 5.024 4.624 5.216C4.63467 5.296 4.64267 5.296 4.648 5.216C4.664 4.96533 4.69333 4.66667 4.736 4.32C4.784 3.968 4.84267 3.61067 4.912 3.248C4.98133 2.88533 5.056 2.53867 5.136 2.208C5.22133 1.87733 5.30667 1.61067 5.392 1.408C5.424 1.33333 5.464 1.264 5.512 1.2C5.56533 1.13067 5.632 1.07733 5.712 1.04C5.792 0.997333 5.888 0.976 6 0.976C6.112 0.976 6.24267 1.008 6.392 1.072C6.54667 1.136 6.65867 1.21067 6.728 1.296C6.79733 1.376 6.84 1.45867 6.856 1.544C6.87733 1.62933 6.87733 1.71467 6.856 1.8C6.83467 1.88533 6.81067 1.96533 6.784 2.04C6.64533 2.41333 6.52 2.78667 6.408 3.16C6.296 3.53333 6.18667 3.90933 6.08 4.288C5.97867 4.66133 5.87467 5.03733 5.768 5.416C5.66133 5.79467 5.54133 6.18133 5.408 6.576C5.36533 6.69867 5.28267 6.8 5.16 6.88C5.03733 6.96 4.864 7 4.64 7C4.416 7 4.256 6.96 4.16 6.88C4.064 6.8 3.99467 6.69867 3.952 6.576C3.87733 6.352 3.80267 6.09867 3.728 5.816C3.65867 5.528 3.58933 5.24533 3.52 4.968C3.49867 4.888 3.47467 4.888 3.448 4.968ZM9.32838 4.488C9.34438 4.78133 9.37371 5.07467 9.41638 5.368C9.45904 5.656 9.48038 5.98133 9.48038 6.344C9.48038 6.41867 9.46971 6.496 9.44838 6.576C9.43238 6.65067 9.39504 6.72 9.33638 6.784C9.28304 6.848 9.20571 6.90133 9.10438 6.944C9.00304 6.98133 8.87238 7 8.71238 7C8.54704 7 8.41371 6.97867 8.31238 6.936C8.21638 6.89333 8.13904 6.84 8.08038 6.776C8.02704 6.70667 7.98971 6.63467 7.96838 6.56C7.95238 6.48 7.94438 6.40267 7.94438 6.328C7.94438 6.12 7.95238 5.928 7.96838 5.752C7.98438 5.57067 8.00304 5.39733 8.02438 5.232C8.04571 5.06667 8.06438 4.904 8.08038 4.744C8.09638 4.57867 8.10438 4.41067 8.10438 4.24V3.6C8.10438 3.42933 8.09638 3.26133 8.08038 3.096C8.06438 2.92533 8.04571 2.75467 8.02438 2.584C8.00304 2.408 7.98438 2.232 7.96838 2.056C7.95238 1.88 7.94438 1.69867 7.94438 1.512C7.94438 1.43733 7.95238 1.36267 7.96838 1.288C7.98971 1.208 8.02704 1.136 8.08038 1.072C8.13904 1.00267 8.21638 0.946667 8.31238 0.904C8.41371 0.861333 8.54704 0.84 8.71238 0.84C8.87238 0.84 9.00304 0.861333 9.10438 0.904C9.20571 0.941333 9.28304 0.992 9.33638 1.056C9.39504 1.12 9.43238 1.192 9.44838 1.272C9.46971 1.34667 9.48038 1.42133 9.48038 1.496C9.48038 1.85333 9.45904 2.17333 9.41638 2.456C9.37371 2.73867 9.34438 3.02133 9.32838 3.304C9.43504 3.17067 9.56838 3.048 9.72838 2.936C9.88838 2.81867 10.0804 2.736 10.3044 2.688C10.4537 2.656 10.627 2.64 10.8244 2.64C11.0217 2.64 11.2084 2.672 11.3844 2.736C11.5657 2.8 11.7177 2.90133 11.8404 3.04C11.963 3.17333 12.0244 3.36 12.0244 3.6C12.0244 3.81867 11.9977 4.04267 11.9444 4.272C11.891 4.496 11.8644 4.73333 11.8644 4.984V5.032C11.8644 5.27733 11.891 5.51467 11.9444 5.744C11.9977 5.968 12.0244 6.192 12.0244 6.416C12.0244 6.48 12.0137 6.54667 11.9924 6.616C11.971 6.68 11.931 6.74133 11.8724 6.8C11.8137 6.85867 11.7364 6.90667 11.6404 6.944C11.5444 6.98133 11.419 7 11.2644 7C11.1097 7 10.9817 6.98133 10.8804 6.944C10.7844 6.90667 10.707 6.85867 10.6484 6.8C10.595 6.736 10.5577 6.66933 10.5364 6.6C10.515 6.53067 10.5044 6.464 10.5044 6.4C10.5044 6.304 10.5124 6.20267 10.5284 6.096C10.5444 5.98933 10.563 5.87733 10.5844 5.76C10.6057 5.64267 10.6244 5.52267 10.6404 5.4C10.6564 5.27733 10.6644 5.15467 10.6644 5.032V4.984C10.6644 4.25333 10.5417 3.86133 10.2964 3.808C10.195 3.78133 10.0644 3.79467 9.90438 3.848C9.74438 3.90133 9.57904 4.032 9.40838 4.24C9.34438 4.30933 9.31771 4.392 9.32838 4.488ZM13.1188 5.264C13.1188 4.96533 13.1641 4.66133 13.2548 4.352C13.3455 4.03733 13.4735 3.75467 13.6388 3.504C13.8095 3.25333 14.0121 3.048 14.2468 2.888C14.4868 2.728 14.7535 2.648 15.0468 2.648C15.2335 2.648 15.3935 2.67733 15.5268 2.736C15.6601 2.79467 15.7881 2.87467 15.9108 2.976C15.9641 2.90133 16.0415 2.84 16.1428 2.792C16.2441 2.73867 16.3855 2.712 16.5668 2.712C16.7215 2.712 16.8468 2.73067 16.9428 2.768C17.0388 2.80533 17.1161 2.85333 17.1748 2.912C17.2335 2.97067 17.2735 3.03467 17.2948 3.104C17.3161 3.17333 17.3268 3.24 17.3268 3.304C17.3268 3.52267 17.3001 3.74667 17.2468 3.976C17.1935 4.2 17.1668 4.43733 17.1668 4.688V5.032C17.1668 5.27733 17.1935 5.51467 17.2468 5.744C17.3001 5.968 17.3268 6.192 17.3268 6.416C17.3268 6.48 17.3161 6.54667 17.2948 6.616C17.2735 6.68 17.2335 6.74133 17.1748 6.8C17.1161 6.85867 17.0388 6.90667 16.9428 6.944C16.8468 6.98133 16.7215 7 16.5668 7C16.3161 7 16.1348 6.95467 16.0228 6.864C15.9161 6.768 15.8495 6.66667 15.8228 6.56C15.6895 6.71467 15.5241 6.84 15.3268 6.936C15.1348 7.032 14.8815 7.08 14.5668 7.08C14.3268 7.08 14.1161 7.05067 13.9348 6.992C13.7588 6.928 13.6095 6.82667 13.4868 6.688C13.3641 6.544 13.2708 6.35733 13.2068 6.128C13.1481 5.89333 13.1188 5.60533 13.1188 5.264ZM14.3988 5.192C14.3988 5.33067 14.4175 5.44533 14.4548 5.536C14.4921 5.62667 14.5428 5.69867 14.6068 5.752C14.6761 5.80533 14.7561 5.84267 14.8468 5.864C14.9375 5.88533 15.0335 5.896 15.1348 5.896C15.2788 5.896 15.4015 5.86933 15.5028 5.816C15.6041 5.75733 15.6868 5.68267 15.7508 5.592C15.8201 5.496 15.8708 5.38667 15.9028 5.264C15.9348 5.14133 15.9508 5.01067 15.9508 4.872C15.9508 4.696 15.9428 4.536 15.9268 4.392C15.9108 4.248 15.8761 4.12533 15.8228 4.024C15.7748 3.92267 15.7001 3.84533 15.5988 3.792C15.5028 3.73867 15.3748 3.712 15.2148 3.712C15.0921 3.712 14.9801 3.76 14.8788 3.856C14.7828 3.952 14.6975 4.072 14.6228 4.216C14.5535 4.36 14.4975 4.52 14.4548 4.696C14.4175 4.86667 14.3988 5.032 14.3988 5.192ZM20.1226 3.984C20.1013 4.18133 20.0853 4.376 20.0746 4.568C20.0693 4.75467 20.0746 4.92533 20.0906 5.08C20.112 5.22933 20.1466 5.35733 20.1946 5.464C20.248 5.56533 20.32 5.62933 20.4106 5.656C20.5013 5.68267 20.5813 5.688 20.6506 5.672C20.72 5.65067 20.8213 5.58933 20.9546 5.488C21.056 5.41333 21.152 5.37867 21.2426 5.384C21.3386 5.384 21.424 5.41333 21.4986 5.472C21.5733 5.52533 21.6373 5.6 21.6906 5.696C21.744 5.78667 21.7786 5.888 21.7946 6C21.8106 6.10667 21.8053 6.21333 21.7786 6.32C21.7573 6.42667 21.7066 6.52 21.6266 6.6C21.5306 6.70133 21.4213 6.784 21.2986 6.848C21.1813 6.90667 21.0586 6.95467 20.9306 6.992C20.808 7.024 20.688 7.04533 20.5706 7.056C20.4533 7.06667 20.3466 7.072 20.2506 7.072C19.968 7.072 19.7386 7.04 19.5626 6.976C19.3866 6.912 19.248 6.824 19.1466 6.712C19.0453 6.59467 18.976 6.45867 18.9386 6.304C18.9066 6.144 18.888 5.97333 18.8826 5.792C18.8773 5.61067 18.88 5.42133 18.8906 5.224C18.9066 5.02667 18.9146 4.82933 18.9146 4.632C18.9146 4.53067 18.9146 4.43733 18.9146 4.352C18.9146 4.26133 18.912 4.17333 18.9066 4.088C18.9066 3.98667 18.84 3.91467 18.7066 3.872C18.616 3.84533 18.544 3.792 18.4906 3.712C18.4373 3.62667 18.408 3.49067 18.4026 3.304C18.3973 3.144 18.4133 3.024 18.4506 2.944C18.4933 2.85867 18.552 2.79733 18.6266 2.76C18.7493 2.70667 18.8106 2.62667 18.8106 2.52V2.288C18.8106 2.21333 18.8186 2.13867 18.8346 2.064C18.856 1.984 18.8933 1.912 18.9466 1.848C19 1.784 19.0773 1.73333 19.1786 1.696C19.28 1.65333 19.4106 1.632 19.5706 1.632C19.736 1.632 19.8666 1.65333 19.9626 1.696C20.064 1.73867 20.1413 1.79467 20.1946 1.864C20.248 1.928 20.2826 2 20.2986 2.08C20.32 2.15467 20.3306 2.22933 20.3306 2.304C20.3306 2.384 20.3226 2.48533 20.3066 2.608C20.296 2.66667 20.3066 2.712 20.3386 2.744C20.3706 2.77067 20.416 2.77867 20.4746 2.768C20.56 2.752 20.6453 2.73867 20.7306 2.728C20.8213 2.71733 20.92 2.712 21.0266 2.712C21.1013 2.712 21.1733 2.72 21.2426 2.736C21.312 2.752 21.3733 2.78133 21.4266 2.824C21.48 2.86667 21.5226 2.928 21.5546 3.008C21.5866 3.08267 21.6026 3.18133 21.6026 3.304C21.6026 3.42667 21.584 3.528 21.5466 3.608C21.5146 3.68267 21.4693 3.74133 21.4106 3.784C21.3573 3.82667 21.296 3.856 21.2266 3.872C21.1573 3.888 21.0853 3.896 21.0106 3.896C20.8933 3.896 20.7786 3.888 20.6666 3.872C20.56 3.85067 20.4506 3.832 20.3386 3.816C20.28 3.80533 20.232 3.816 20.1946 3.848C20.1573 3.88 20.1333 3.92533 20.1226 3.984ZM28.1126 5.336C28.166 5.18133 28.214 5.024 28.2566 4.864C28.3046 4.704 28.358 4.544 28.4166 4.384C28.5073 4.13867 28.5953 3.904 28.6806 3.68C28.766 3.45067 28.8646 3.23733 28.9766 3.04C29.0193 2.96533 29.0806 2.89333 29.1606 2.824C29.246 2.75467 29.3526 2.72 29.4806 2.72C29.6193 2.72 29.774 2.77067 29.9446 2.872C30.078 2.952 30.174 3.03733 30.2326 3.128C30.2913 3.21867 30.326 3.30933 30.3366 3.4C30.3526 3.48533 30.35 3.568 30.3286 3.648C30.3126 3.72267 30.2886 3.78933 30.2566 3.848C30.1606 4.024 30.038 4.21867 29.8886 4.432C29.7446 4.64 29.6113 4.856 29.4886 5.08L29.3126 5.4C29.19 5.624 29.0833 5.85067 28.9926 6.08C28.9073 6.304 28.8166 6.50133 28.7206 6.672C28.6673 6.76267 28.5873 6.84 28.4806 6.904C28.374 6.96267 28.2273 6.992 28.0406 6.992C27.8593 6.992 27.7153 6.96267 27.6086 6.904C27.5073 6.84 27.43 6.76267 27.3766 6.672C27.2806 6.50133 27.1873 6.304 27.0966 6.08C27.0113 5.85067 26.9073 5.624 26.7846 5.4L26.6086 5.08C26.486 4.856 26.35 4.64 26.2006 4.432C26.0566 4.21867 25.9366 4.024 25.8406 3.848C25.8086 3.78933 25.782 3.72267 25.7606 3.648C25.7446 3.568 25.742 3.48533 25.7526 3.4C25.7686 3.30933 25.806 3.21867 25.8646 3.128C25.9233 3.03733 26.0193 2.952 26.1526 2.872C26.3233 2.77067 26.478 2.72 26.6166 2.72C26.7446 2.72 26.8486 2.75467 26.9286 2.824C27.014 2.89333 27.078 2.96533 27.1206 3.04C27.2326 3.23733 27.3313 3.45067 27.4166 3.68C27.502 3.90933 27.59 4.144 27.6806 4.384C27.7393 4.544 27.79 4.704 27.8326 4.864C27.8806 5.024 27.9313 5.18133 27.9846 5.336C28.0273 5.45333 28.07 5.45333 28.1126 5.336ZM31.6051 4.688C31.6051 4.56533 31.5971 4.44267 31.5811 4.32C31.5651 4.192 31.5465 4.06933 31.5251 3.952C31.5038 3.83467 31.4851 3.72267 31.4691 3.616C31.4531 3.50933 31.4451 3.408 31.4451 3.312C31.4451 3.248 31.4558 3.18133 31.4771 3.112C31.4985 3.04267 31.5358 2.97867 31.5891 2.92C31.6478 2.86133 31.7251 2.81333 31.8211 2.776C31.9225 2.73333 32.0505 2.712 32.2051 2.712C32.3598 2.712 32.4851 2.73067 32.5811 2.768C32.6771 2.80533 32.7545 2.85333 32.8131 2.912C32.8718 2.97067 32.9118 3.03467 32.9331 3.104C32.9545 3.17333 32.9651 3.24 32.9651 3.304C32.9651 3.52267 32.9385 3.74667 32.8851 3.976C32.8318 4.2 32.8051 4.43733 32.8051 4.688V5.032C32.8051 5.27733 32.8318 5.51467 32.8851 5.744C32.9385 5.968 32.9651 6.192 32.9651 6.416C32.9651 6.48 32.9545 6.54667 32.9331 6.616C32.9118 6.68 32.8718 6.74133 32.8131 6.8C32.7545 6.85867 32.6771 6.90667 32.5811 6.944C32.4851 6.98133 32.3598 7 32.2051 7C32.0505 7 31.9225 6.98133 31.8211 6.944C31.7251 6.90667 31.6478 6.85867 31.5891 6.8C31.5358 6.736 31.4985 6.66933 31.4771 6.6C31.4558 6.53067 31.4451 6.464 31.4451 6.4C31.4451 6.304 31.4531 6.20267 31.4691 6.096C31.4851 5.98933 31.5038 5.87733 31.5251 5.76C31.5465 5.64267 31.5651 5.52267 31.5811 5.4C31.5971 5.27733 31.6051 5.15467 31.6051 5.032V4.688ZM31.4131 1.72C31.4131 1.55467 31.4825 1.41867 31.6211 1.312C31.7651 1.2 31.9545 1.144 32.1891 1.144C32.4185 1.144 32.6025 1.2 32.7411 1.312C32.8851 1.41867 32.9571 1.55467 32.9571 1.72C32.9571 1.89067 32.8851 2.02933 32.7411 2.136C32.6025 2.24267 32.4185 2.296 32.1891 2.296C31.9545 2.296 31.7651 2.24267 31.6211 2.136C31.4825 2.02933 31.4131 1.89067 31.4131 1.72ZM35.5841 3.048C35.7548 2.92533 35.9495 2.82933 36.1681 2.76C36.3868 2.68533 36.6348 2.648 36.9121 2.648C37.1468 2.648 37.3708 2.69067 37.5841 2.776C37.7975 2.856 37.9868 2.98667 38.1521 3.168C38.3175 3.34933 38.4481 3.58667 38.5441 3.88C38.6455 4.168 38.6961 4.52267 38.6961 4.944C38.6961 5.39733 38.6295 5.76267 38.4961 6.04C38.3628 6.31733 38.2001 6.53333 38.0081 6.688C37.8215 6.84267 37.6268 6.94667 37.4241 7C37.2215 7.05333 37.0508 7.08 36.9121 7.08C36.6348 7.08 36.3841 7.032 36.1601 6.936C35.9415 6.83467 35.7495 6.70667 35.5841 6.552C35.5575 6.66933 35.4908 6.77333 35.3841 6.864C35.2775 6.94933 35.0988 6.99467 34.8481 7C34.6881 7 34.5575 6.98133 34.4561 6.944C34.3548 6.90133 34.2775 6.848 34.2241 6.784C34.1708 6.72 34.1335 6.65067 34.1121 6.576C34.0961 6.496 34.0881 6.41867 34.0881 6.344C34.0881 6.136 34.0961 5.94133 34.1121 5.76C34.1281 5.57867 34.1468 5.40533 34.1681 5.24C34.1895 5.06933 34.2081 4.904 34.2241 4.744C34.2401 4.57867 34.2481 4.41067 34.2481 4.24V3.6C34.2481 3.42933 34.2401 3.264 34.2241 3.104C34.2081 2.93867 34.1895 2.77333 34.1681 2.608C34.1468 2.43733 34.1281 2.26133 34.1121 2.08C34.0961 1.89867 34.0881 1.704 34.0881 1.496C34.0881 1.42133 34.0961 1.34667 34.1121 1.272C34.1335 1.192 34.1708 1.12 34.2241 1.056C34.2775 0.992 34.3548 0.941333 34.4561 0.904C34.5575 0.861333 34.6881 0.84 34.8481 0.84C35.0135 0.84 35.1441 0.861333 35.2401 0.904C35.3415 0.946667 35.4188 1.00267 35.4721 1.072C35.5255 1.136 35.5601 1.208 35.5761 1.288C35.5975 1.36267 35.6081 1.43733 35.6081 1.512C35.6081 1.784 35.5921 2.04 35.5601 2.28C35.5335 2.52 35.5068 2.76 35.4801 3C35.4695 3.08533 35.5041 3.10133 35.5841 3.048ZM37.4241 4.872C37.4241 4.472 37.3415 4.17867 37.1761 3.992C37.0161 3.80533 36.7921 3.712 36.5041 3.712C36.3815 3.712 36.2561 3.73867 36.1281 3.792C36.0001 3.84533 35.8828 3.92267 35.7761 4.024C35.6695 4.12533 35.5815 4.248 35.5121 4.392C35.4481 4.536 35.4188 4.696 35.4241 4.872C35.4348 5.21867 35.5361 5.47733 35.7281 5.648C35.9201 5.81333 36.1788 5.896 36.5041 5.896C36.6855 5.896 36.8348 5.86933 36.9521 5.816C37.0748 5.75733 37.1708 5.68267 37.2401 5.592C37.3095 5.496 37.3575 5.38667 37.3841 5.264C37.4108 5.14133 37.4241 5.01067 37.4241 4.872ZM41.1624 4.512C41.1624 4.53867 41.1597 4.568 41.1544 4.6C41.1544 4.632 41.1544 4.66133 41.1544 4.688V5.032C41.1544 5.27733 41.181 5.51467 41.2344 5.744C41.2877 5.968 41.3144 6.192 41.3144 6.416C41.3144 6.48 41.3037 6.54667 41.2824 6.616C41.261 6.68 41.221 6.74133 41.1624 6.8C41.1037 6.85867 41.0264 6.90667 40.9304 6.944C40.8344 6.98133 40.709 7 40.5544 7C40.3997 7 40.2717 6.98133 40.1704 6.944C40.0744 6.90667 39.997 6.85867 39.9384 6.8C39.885 6.736 39.8477 6.66933 39.8264 6.6C39.805 6.53067 39.7944 6.464 39.7944 6.4C39.7944 6.304 39.8024 6.20267 39.8184 6.096C39.8344 5.98933 39.853 5.87733 39.8744 5.76C39.8957 5.64267 39.9144 5.52267 39.9304 5.4C39.9464 5.27733 39.9544 5.15467 39.9544 5.032V4.688C39.9544 4.56533 39.9464 4.44267 39.9304 4.32C39.9144 4.192 39.8957 4.06933 39.8744 3.952C39.853 3.83467 39.8344 3.72267 39.8184 3.616C39.8024 3.50933 39.7944 3.408 39.7944 3.312C39.7944 3.248 39.805 3.18133 39.8264 3.112C39.8477 3.04267 39.885 2.97867 39.9384 2.92C39.997 2.86133 40.0744 2.81333 40.1704 2.776C40.2717 2.73333 40.3997 2.712 40.5544 2.712C40.821 2.712 41.0077 2.76533 41.1144 2.872C41.2264 2.97867 41.2904 3.09333 41.3064 3.216C41.413 3.072 41.541 2.94933 41.6904 2.848C41.845 2.74133 42.0264 2.688 42.2344 2.688C42.501 2.688 42.6957 2.73867 42.8184 2.84C42.9464 2.936 43.0237 3.05333 43.0504 3.192C43.0824 3.32533 43.0744 3.46133 43.0264 3.6C42.9784 3.73867 42.9144 3.84533 42.8344 3.92C42.765 3.984 42.677 4.01867 42.5704 4.024C42.4637 4.02933 42.3517 4.01333 42.2344 3.976C42.1864 3.96 42.1277 3.944 42.0584 3.928C41.989 3.912 41.9144 3.90933 41.8344 3.92C41.7544 3.92533 41.669 3.94667 41.5784 3.984C41.4877 4.02133 41.397 4.08533 41.3064 4.176C41.2637 4.21867 41.229 4.272 41.2024 4.336C41.181 4.39467 41.1677 4.45333 41.1624 4.512ZM43.836 5.264C43.836 4.96533 43.8813 4.66133 43.972 4.352C44.0627 4.03733 44.1907 3.75467 44.356 3.504C44.5267 3.25333 44.7293 3.048 44.964 2.888C45.204 2.728 45.4707 2.648 45.764 2.648C45.9507 2.648 46.1107 2.67733 46.244 2.736C46.3773 2.79467 46.5053 2.87467 46.628 2.976C46.6813 2.90133 46.7587 2.84 46.86 2.792C46.9613 2.73867 47.1027 2.712 47.284 2.712C47.4387 2.712 47.564 2.73067 47.66 2.768C47.756 2.80533 47.8333 2.85333 47.892 2.912C47.9507 2.97067 47.9907 3.03467 48.012 3.104C48.0333 3.17333 48.044 3.24 48.044 3.304C48.044 3.52267 48.0173 3.74667 47.964 3.976C47.9107 4.2 47.884 4.43733 47.884 4.688V5.032C47.884 5.27733 47.9107 5.51467 47.964 5.744C48.0173 5.968 48.044 6.192 48.044 6.416C48.044 6.48 48.0333 6.54667 48.012 6.616C47.9907 6.68 47.9507 6.74133 47.892 6.8C47.8333 6.85867 47.756 6.90667 47.66 6.944C47.564 6.98133 47.4387 7 47.284 7C47.0333 7 46.852 6.95467 46.74 6.864C46.6333 6.768 46.5667 6.66667 46.54 6.56C46.4067 6.71467 46.2413 6.84 46.044 6.936C45.852 7.032 45.5987 7.08 45.284 7.08C45.044 7.08 44.8333 7.05067 44.652 6.992C44.476 6.928 44.3267 6.82667 44.204 6.688C44.0813 6.544 43.988 6.35733 43.924 6.128C43.8653 5.89333 43.836 5.60533 43.836 5.264ZM45.116 5.192C45.116 5.33067 45.1347 5.44533 45.172 5.536C45.2093 5.62667 45.26 5.69867 45.324 5.752C45.3933 5.80533 45.4733 5.84267 45.564 5.864C45.6547 5.88533 45.7507 5.896 45.852 5.896C45.996 5.896 46.1187 5.86933 46.22 5.816C46.3213 5.75733 46.404 5.68267 46.468 5.592C46.5373 5.496 46.588 5.38667 46.62 5.264C46.652 5.14133 46.668 5.01067 46.668 4.872C46.668 4.696 46.66 4.536 46.644 4.392C46.628 4.248 46.5933 4.12533 46.54 4.024C46.492 3.92267 46.4173 3.84533 46.316 3.792C46.22 3.73867 46.092 3.712 45.932 3.712C45.8093 3.712 45.6973 3.76 45.596 3.856C45.5 3.952 45.4147 4.072 45.34 4.216C45.2707 4.36 45.2147 4.52 45.172 4.696C45.1347 4.86667 45.116 5.032 45.116 5.192ZM50.8398 3.984C50.8185 4.18133 50.8025 4.376 50.7918 4.568C50.7865 4.75467 50.7918 4.92533 50.8078 5.08C50.8291 5.22933 50.8638 5.35733 50.9118 5.464C50.9651 5.56533 51.0371 5.62933 51.1278 5.656C51.2185 5.68267 51.2985 5.688 51.3678 5.672C51.4371 5.65067 51.5385 5.58933 51.6718 5.488C51.7731 5.41333 51.8691 5.37867 51.9598 5.384C52.0558 5.384 52.1411 5.41333 52.2158 5.472C52.2905 5.52533 52.3545 5.6 52.4078 5.696C52.4611 5.78667 52.4958 5.888 52.5118 6C52.5278 6.10667 52.5225 6.21333 52.4958 6.32C52.4745 6.42667 52.4238 6.52 52.3438 6.6C52.2478 6.70133 52.1385 6.784 52.0158 6.848C51.8985 6.90667 51.7758 6.95467 51.6478 6.992C51.5251 7.024 51.4051 7.04533 51.2878 7.056C51.1705 7.06667 51.0638 7.072 50.9678 7.072C50.6851 7.072 50.4558 7.04 50.2798 6.976C50.1038 6.912 49.9651 6.824 49.8638 6.712C49.7625 6.59467 49.6931 6.45867 49.6558 6.304C49.6238 6.144 49.6051 5.97333 49.5998 5.792C49.5945 5.61067 49.5971 5.42133 49.6078 5.224C49.6238 5.02667 49.6318 4.82933 49.6318 4.632C49.6318 4.53067 49.6318 4.43733 49.6318 4.352C49.6318 4.26133 49.6291 4.17333 49.6238 4.088C49.6238 3.98667 49.5571 3.91467 49.4238 3.872C49.3331 3.84533 49.2611 3.792 49.2078 3.712C49.1545 3.62667 49.1251 3.49067 49.1198 3.304C49.1145 3.144 49.1305 3.024 49.1678 2.944C49.2105 2.85867 49.2691 2.79733 49.3438 2.76C49.4665 2.70667 49.5278 2.62667 49.5278 2.52V2.288C49.5278 2.21333 49.5358 2.13867 49.5518 2.064C49.5731 1.984 49.6105 1.912 49.6638 1.848C49.7171 1.784 49.7945 1.73333 49.8958 1.696C49.9971 1.65333 50.1278 1.632 50.2878 1.632C50.4531 1.632 50.5838 1.65333 50.6798 1.696C50.7811 1.73867 50.8585 1.79467 50.9118 1.864C50.9651 1.928 50.9998 2 51.0158 2.08C51.0371 2.15467 51.0478 2.22933 51.0478 2.304C51.0478 2.384 51.0398 2.48533 51.0238 2.608C51.0131 2.66667 51.0238 2.712 51.0558 2.744C51.0878 2.77067 51.1331 2.77867 51.1918 2.768C51.2771 2.752 51.3625 2.73867 51.4478 2.728C51.5385 2.71733 51.6371 2.712 51.7438 2.712C51.8185 2.712 51.8905 2.72 51.9598 2.736C52.0291 2.752 52.0905 2.78133 52.1438 2.824C52.1971 2.86667 52.2398 2.928 52.2718 3.008C52.3038 3.08267 52.3198 3.18133 52.3198 3.304C52.3198 3.42667 52.3011 3.528 52.2638 3.608C52.2318 3.68267 52.1865 3.74133 52.1278 3.784C52.0745 3.82667 52.0131 3.856 51.9438 3.872C51.8745 3.888 51.8025 3.896 51.7278 3.896C51.6105 3.896 51.4958 3.888 51.3838 3.872C51.2771 3.85067 51.1678 3.832 51.0558 3.816C50.9971 3.80533 50.9491 3.816 50.9118 3.848C50.8745 3.88 50.8505 3.92533 50.8398 3.984ZM53.8317 4.688C53.8317 4.56533 53.8237 4.44267 53.8077 4.32C53.7917 4.192 53.773 4.06933 53.7517 3.952C53.7304 3.83467 53.7117 3.72267 53.6957 3.616C53.6797 3.50933 53.6717 3.408 53.6717 3.312C53.6717 3.248 53.6824 3.18133 53.7037 3.112C53.725 3.04267 53.7624 2.97867 53.8157 2.92C53.8744 2.86133 53.9517 2.81333 54.0477 2.776C54.149 2.73333 54.277 2.712 54.4317 2.712C54.5864 2.712 54.7117 2.73067 54.8077 2.768C54.9037 2.80533 54.981 2.85333 55.0397 2.912C55.0984 2.97067 55.1384 3.03467 55.1597 3.104C55.181 3.17333 55.1917 3.24 55.1917 3.304C55.1917 3.52267 55.165 3.74667 55.1117 3.976C55.0584 4.2 55.0317 4.43733 55.0317 4.688V5.032C55.0317 5.27733 55.0584 5.51467 55.1117 5.744C55.165 5.968 55.1917 6.192 55.1917 6.416C55.1917 6.48 55.181 6.54667 55.1597 6.616C55.1384 6.68 55.0984 6.74133 55.0397 6.8C54.981 6.85867 54.9037 6.90667 54.8077 6.944C54.7117 6.98133 54.5864 7 54.4317 7C54.277 7 54.149 6.98133 54.0477 6.944C53.9517 6.90667 53.8744 6.85867 53.8157 6.8C53.7624 6.736 53.725 6.66933 53.7037 6.6C53.6824 6.53067 53.6717 6.464 53.6717 6.4C53.6717 6.304 53.6797 6.20267 53.6957 6.096C53.7117 5.98933 53.7304 5.87733 53.7517 5.76C53.773 5.64267 53.7917 5.52267 53.8077 5.4C53.8237 5.27733 53.8317 5.15467 53.8317 5.032V4.688ZM53.6397 1.72C53.6397 1.55467 53.709 1.41867 53.8477 1.312C53.9917 1.2 54.181 1.144 54.4157 1.144C54.645 1.144 54.829 1.2 54.9677 1.312C55.1117 1.41867 55.1837 1.55467 55.1837 1.72C55.1837 1.89067 55.1117 2.02933 54.9677 2.136C54.829 2.24267 54.645 2.296 54.4157 2.296C54.181 2.296 53.9917 2.24267 53.8477 2.136C53.709 2.02933 53.6397 1.89067 53.6397 1.72ZM56.2907 4.944C56.2907 4.60267 56.3467 4.29333 56.4587 4.016C56.5707 3.73333 56.728 3.49067 56.9307 3.288C57.1334 3.08533 57.3734 2.928 57.6507 2.816C57.9334 2.704 58.24 2.648 58.5707 2.648C58.9014 2.648 59.2054 2.704 59.4827 2.816C59.76 2.928 60 3.08533 60.2027 3.288C60.4054 3.49067 60.5627 3.73333 60.6747 4.016C60.7867 4.29333 60.8427 4.60267 60.8427 4.944C60.8427 5.32267 60.7867 5.648 60.6747 5.92C60.568 6.18667 60.4134 6.408 60.2107 6.584C60.0134 6.75467 59.7734 6.88 59.4907 6.96C59.2134 7.04 58.9067 7.08 58.5707 7.08C58.2347 7.08 57.9254 7.04 57.6427 6.96C57.3654 6.88 57.1254 6.75467 56.9227 6.584C56.7254 6.408 56.5707 6.18667 56.4587 5.92C56.3467 5.648 56.2907 5.32267 56.2907 4.944ZM57.5627 4.872C57.5627 5.01067 57.576 5.14133 57.6027 5.264C57.6347 5.38667 57.688 5.496 57.7627 5.592C57.8427 5.68267 57.9467 5.75733 58.0747 5.816C58.208 5.86933 58.376 5.896 58.5787 5.896C58.7814 5.896 58.9467 5.86933 59.0747 5.816C59.208 5.75733 59.312 5.68267 59.3867 5.592C59.4667 5.496 59.52 5.38667 59.5467 5.264C59.5787 5.14133 59.5947 5.01067 59.5947 4.872C59.5947 4.51467 59.5067 4.232 59.3307 4.024C59.1547 3.816 58.904 3.712 58.5787 3.712C58.2534 3.712 58.0027 3.816 57.8267 4.024C57.6507 4.232 57.5627 4.51467 57.5627 4.872ZM63.335 4.448C63.3297 4.49067 63.327 4.53067 63.327 4.568C63.327 4.60533 63.327 4.64533 63.327 4.688V5.032C63.327 5.27733 63.3537 5.51467 63.407 5.744C63.4603 5.968 63.487 6.192 63.487 6.416C63.487 6.48 63.4737 6.54667 63.447 6.616C63.4257 6.68 63.3857 6.74133 63.327 6.8C63.2683 6.85867 63.1883 6.90667 63.087 6.944C62.991 6.98133 62.8657 7 62.711 7C62.5563 7 62.4283 6.98133 62.327 6.944C62.231 6.90667 62.1537 6.85867 62.095 6.8C62.0363 6.736 61.9937 6.66933 61.967 6.6C61.9457 6.53067 61.935 6.464 61.935 6.4C61.935 6.304 61.943 6.20267 61.959 6.096C61.975 5.98933 61.9937 5.87733 62.015 5.76C62.0363 5.64267 62.055 5.52267 62.071 5.4C62.087 5.27733 62.095 5.15467 62.095 5.032V4.688C62.095 4.56533 62.087 4.44267 62.071 4.32C62.055 4.192 62.0363 4.06933 62.015 3.952C61.9937 3.83467 61.975 3.72267 61.959 3.616C61.943 3.50933 61.935 3.408 61.935 3.312C61.935 3.248 61.9457 3.18133 61.967 3.112C61.9937 3.04267 62.0363 2.97867 62.095 2.92C62.1537 2.86133 62.231 2.81333 62.327 2.776C62.4283 2.73333 62.5563 2.712 62.711 2.712C62.855 2.712 62.975 2.73067 63.071 2.768C63.1723 2.8 63.2523 2.84267 63.311 2.896C63.3697 2.94933 63.4123 3.008 63.439 3.072C63.4657 3.136 63.4817 3.2 63.487 3.264C63.5937 3.136 63.719 3.01867 63.863 2.912C64.007 2.80533 64.1777 2.73067 64.375 2.688C64.5243 2.656 64.6977 2.64 64.895 2.64C65.0923 2.64 65.279 2.672 65.455 2.736C65.6363 2.8 65.7883 2.90133 65.911 3.04C66.0337 3.17333 66.095 3.36 66.095 3.6C66.095 3.81867 66.0683 4.04267 66.015 4.272C65.9617 4.496 65.935 4.73333 65.935 4.984V5.032C65.935 5.27733 65.9617 5.51467 66.015 5.744C66.0683 5.968 66.095 6.192 66.095 6.416C66.095 6.48 66.0843 6.54667 66.063 6.616C66.0417 6.68 66.0017 6.74133 65.943 6.8C65.8843 6.85867 65.807 6.90667 65.711 6.944C65.615 6.98133 65.4897 7 65.335 7C65.1803 7 65.0523 6.98133 64.951 6.944C64.855 6.90667 64.7777 6.85867 64.719 6.8C64.6657 6.736 64.6283 6.66933 64.607 6.6C64.5857 6.53067 64.575 6.464 64.575 6.4C64.575 6.304 64.583 6.20267 64.599 6.096C64.615 5.98933 64.6337 5.87733 64.655 5.76C64.6763 5.64267 64.695 5.52267 64.711 5.4C64.727 5.27733 64.735 5.15467 64.735 5.032V4.984C64.735 4.25333 64.6123 3.86133 64.367 3.808C64.319 3.79733 64.2603 3.792 64.191 3.792C64.127 3.78667 64.0577 3.79467 63.983 3.816C63.9083 3.832 63.8283 3.864 63.743 3.912C63.6577 3.95467 63.5723 4.02133 63.487 4.112C63.4443 4.15467 63.4097 4.20533 63.383 4.264C63.3563 4.32267 63.3403 4.384 63.335 4.448ZM68.7316 3.864C68.7316 3.912 68.7609 3.95733 68.8196 4C68.8836 4.03733 68.9609 4.072 69.0516 4.104C69.1476 4.136 69.2516 4.168 69.3636 4.2C69.4756 4.22667 69.5849 4.256 69.6916 4.288C69.8516 4.336 70.0142 4.39467 70.1796 4.464C70.3502 4.53333 70.5022 4.62133 70.6356 4.728C70.7689 4.83467 70.8782 4.96533 70.9636 5.12C71.0489 5.26933 71.0916 5.45067 71.0916 5.664C71.0916 5.96267 71.0249 6.20533 70.8916 6.392C70.7636 6.57867 70.6089 6.72267 70.4276 6.824C70.2516 6.92533 70.0676 6.992 69.8756 7.024C69.6889 7.06133 69.5369 7.08 69.4196 7.08C69.2596 7.08 69.0889 7.06933 68.9076 7.048C68.7262 7.032 68.5449 6.99733 68.3636 6.944C68.1822 6.89067 68.0036 6.816 67.8276 6.72C67.6569 6.624 67.4969 6.49867 67.3476 6.344C67.2676 6.25333 67.2196 6.15733 67.2036 6.056C67.1876 5.94933 67.1956 5.848 67.2276 5.752C67.2649 5.65067 67.3209 5.55733 67.3956 5.472C67.4702 5.38667 67.5529 5.32267 67.6436 5.28C67.7396 5.23733 67.8382 5.22133 67.9396 5.232C68.0462 5.24267 68.1449 5.288 68.2356 5.368C68.3742 5.49067 68.5049 5.58667 68.6276 5.656C68.7502 5.72533 68.8622 5.77867 68.9636 5.816C69.0649 5.85333 69.1529 5.87733 69.2276 5.888C69.3076 5.89333 69.3689 5.896 69.4116 5.896C69.4329 5.896 69.4649 5.896 69.5076 5.896C69.5502 5.89067 69.5929 5.88267 69.6356 5.872C69.6782 5.856 69.7156 5.83467 69.7476 5.808C69.7796 5.776 69.7956 5.73067 69.7956 5.672C69.7956 5.55467 69.7236 5.46133 69.5796 5.392C69.4356 5.32267 69.2222 5.24267 68.9396 5.152C68.6836 5.06667 68.4622 4.984 68.2756 4.904C68.0889 4.81867 67.9316 4.72533 67.8036 4.624C67.6809 4.52267 67.5902 4.408 67.5316 4.28C67.4729 4.152 67.4436 4 67.4436 3.824C67.4436 3.68 67.4729 3.53867 67.5316 3.4C67.5956 3.26133 67.6942 3.136 67.8276 3.024C67.9662 2.912 68.1422 2.82133 68.3556 2.752C68.5689 2.68267 68.8276 2.648 69.1316 2.648C69.2756 2.648 69.4222 2.66133 69.5716 2.688C69.7209 2.71467 69.8622 2.74933 69.9956 2.792C70.1342 2.82933 70.2596 2.872 70.3716 2.92C70.4836 2.96267 70.5742 3 70.6436 3.032C70.8249 3.12267 70.9369 3.23733 70.9796 3.376C71.0276 3.51467 71.0249 3.64 70.9716 3.752C70.9182 3.864 70.8249 3.94667 70.6916 4C70.5582 4.048 70.4062 4.032 70.2356 3.952C70.0329 3.856 69.8329 3.78933 69.6356 3.752C69.4436 3.70933 69.2996 3.688 69.2036 3.688C69.0916 3.688 68.9849 3.69867 68.8836 3.72C68.7822 3.736 68.7316 3.784 68.7316 3.864ZM79.3812 5.472C79.4185 5.30667 79.4505 5.144 79.4772 4.984C79.5039 4.81867 79.5385 4.65067 79.5812 4.48C79.6399 4.23467 79.6959 3.99733 79.7492 3.768C79.8079 3.53867 79.8825 3.32 79.9732 3.112C80.0105 3.02667 80.0719 2.944 80.1572 2.864C80.2425 2.784 80.3599 2.744 80.5092 2.744C80.6265 2.744 80.7599 2.776 80.9092 2.84C81.1919 2.96267 81.3625 3.096 81.4212 3.24C81.4852 3.37867 81.4772 3.54667 81.3972 3.744C81.3225 3.92533 81.2265 4.13333 81.1092 4.368C80.9919 4.59733 80.8852 4.82667 80.7892 5.056L80.6532 5.384C80.5572 5.61333 80.4825 5.824 80.4292 6.016C80.3812 6.20267 80.3199 6.384 80.2452 6.56C80.1919 6.68267 80.1092 6.78667 79.9972 6.872C79.8852 6.952 79.6985 6.992 79.4372 6.992C79.2505 6.992 79.0905 6.96533 78.9572 6.912C78.8239 6.85867 78.7279 6.768 78.6692 6.64C78.6425 6.576 78.6132 6.496 78.5812 6.4C78.5545 6.29867 78.5252 6.192 78.4932 6.08C78.4612 5.968 78.4292 5.85333 78.3972 5.736C78.3652 5.61867 78.3332 5.50933 78.3012 5.408C78.2852 5.34933 78.2665 5.32 78.2452 5.32C78.2239 5.32 78.2052 5.34933 78.1892 5.408C78.1572 5.50933 78.1252 5.61867 78.0932 5.736C78.0612 5.85333 78.0292 5.968 77.9972 6.08C77.9652 6.192 77.9332 6.29867 77.9012 6.4C77.8745 6.496 77.8479 6.576 77.8212 6.64C77.7679 6.76267 77.6799 6.85333 77.5572 6.912C77.4345 6.96533 77.2852 6.992 77.1092 6.992C76.8425 6.992 76.6452 6.95467 76.5172 6.88C76.3892 6.80533 76.2959 6.69867 76.2372 6.56C76.1625 6.384 76.0985 6.20267 76.0452 6.016C75.9972 5.824 75.9252 5.61333 75.8292 5.384L75.6932 5.056C75.5972 4.82667 75.4905 4.59733 75.3732 4.368C75.2559 4.13333 75.1599 3.92533 75.0852 3.744C75.0052 3.54667 75.0025 3.37867 75.0772 3.24C75.1519 3.096 75.3305 2.96267 75.6132 2.84C75.7679 2.776 75.9012 2.744 76.0132 2.744C76.1625 2.744 76.2799 2.784 76.3652 2.864C76.4505 2.944 76.5119 3.02667 76.5492 3.112C76.6399 3.32 76.7119 3.53867 76.7652 3.768C76.8239 3.99733 76.8825 4.23467 76.9412 4.48C76.9785 4.63467 77.0105 4.78933 77.0372 4.944C77.0639 5.09867 77.0932 5.25333 77.1252 5.408C77.1519 5.53067 77.1785 5.53067 77.2052 5.408C77.2372 5.25333 77.2665 5.09867 77.2932 4.944C77.3252 4.78933 77.3599 4.62933 77.3972 4.464C77.4559 4.21867 77.5119 3.98133 77.5652 3.752C77.6185 3.51733 77.6905 3.29867 77.7812 3.096C77.8185 3.01067 77.8719 2.93067 77.9412 2.856C78.0159 2.776 78.1172 2.736 78.2452 2.736C78.3412 2.736 78.4505 2.76267 78.5732 2.816C78.7812 2.90667 78.9172 3.00533 78.9812 3.112C79.0452 3.21333 79.0399 3.36 78.9652 3.552C78.9545 3.57867 78.9439 3.60533 78.9332 3.632C78.9279 3.65333 78.9199 3.67733 78.9092 3.704C78.9412 3.82667 78.9705 3.952 78.9972 4.08C79.0292 4.20267 79.0612 4.33067 79.0932 4.464C79.1359 4.63467 79.1705 4.80533 79.1972 4.976C79.2239 5.14133 79.2559 5.30667 79.2932 5.472C79.3039 5.53067 79.3172 5.56 79.3332 5.56C79.3545 5.56 79.3705 5.53067 79.3812 5.472ZM82.7254 4.688C82.7254 4.56533 82.7174 4.44267 82.7014 4.32C82.6854 4.192 82.6668 4.06933 82.6454 3.952C82.6241 3.83467 82.6054 3.72267 82.5894 3.616C82.5734 3.50933 82.5654 3.408 82.5654 3.312C82.5654 3.248 82.5761 3.18133 82.5974 3.112C82.6188 3.04267 82.6561 2.97867 82.7094 2.92C82.7681 2.86133 82.8454 2.81333 82.9414 2.776C83.0428 2.73333 83.1708 2.712 83.3254 2.712C83.4801 2.712 83.6054 2.73067 83.7014 2.768C83.7974 2.80533 83.8748 2.85333 83.9334 2.912C83.9921 2.97067 84.0321 3.03467 84.0534 3.104C84.0748 3.17333 84.0854 3.24 84.0854 3.304C84.0854 3.52267 84.0588 3.74667 84.0054 3.976C83.9521 4.2 83.9254 4.43733 83.9254 4.688V5.032C83.9254 5.27733 83.9521 5.51467 84.0054 5.744C84.0588 5.968 84.0854 6.192 84.0854 6.416C84.0854 6.48 84.0748 6.54667 84.0534 6.616C84.0321 6.68 83.9921 6.74133 83.9334 6.8C83.8748 6.85867 83.7974 6.90667 83.7014 6.944C83.6054 6.98133 83.4801 7 83.3254 7C83.1708 7 83.0428 6.98133 82.9414 6.944C82.8454 6.90667 82.7681 6.85867 82.7094 6.8C82.6561 6.736 82.6188 6.66933 82.5974 6.6C82.5761 6.53067 82.5654 6.464 82.5654 6.4C82.5654 6.304 82.5734 6.20267 82.5894 6.096C82.6054 5.98933 82.6241 5.87733 82.6454 5.76C82.6668 5.64267 82.6854 5.52267 82.7014 5.4C82.7174 5.27733 82.7254 5.15467 82.7254 5.032V4.688ZM82.5334 1.72C82.5334 1.55467 82.6028 1.41867 82.7414 1.312C82.8854 1.2 83.0748 1.144 83.3094 1.144C83.5388 1.144 83.7228 1.2 83.8614 1.312C84.0054 1.41867 84.0774 1.55467 84.0774 1.72C84.0774 1.89067 84.0054 2.02933 83.8614 2.136C83.7228 2.24267 83.5388 2.296 83.3094 2.296C83.0748 2.296 82.8854 2.24267 82.7414 2.136C82.6028 2.02933 82.5334 1.89067 82.5334 1.72ZM85.3684 3.6C85.3684 3.42933 85.3604 3.26133 85.3444 3.096C85.3284 2.92533 85.3098 2.75467 85.2884 2.584C85.2671 2.408 85.2484 2.232 85.2324 2.056C85.2164 1.88 85.2084 1.69867 85.2084 1.512C85.2084 1.43733 85.2164 1.36267 85.2324 1.288C85.2538 1.208 85.2911 1.136 85.3444 1.072C85.4031 1.00267 85.4804 0.946667 85.5764 0.904C85.6778 0.861333 85.8111 0.84 85.9764 0.84C86.1364 0.84 86.2671 0.861333 86.3684 0.904C86.4698 0.941333 86.5471 0.992 86.6004 1.056C86.6591 1.12 86.6964 1.192 86.7124 1.272C86.7338 1.34667 86.7444 1.42133 86.7444 1.496C86.7444 1.704 86.7364 1.89867 86.7204 2.08C86.7044 2.26133 86.6858 2.43733 86.6644 2.608C86.6431 2.77333 86.6244 2.93867 86.6084 3.104C86.5924 3.264 86.5844 3.42933 86.5844 3.6V4.24C86.5844 4.41067 86.5924 4.57867 86.6084 4.744C86.6244 4.904 86.6431 5.06933 86.6644 5.24C86.6858 5.40533 86.7044 5.57867 86.7204 5.76C86.7364 5.94133 86.7444 6.136 86.7444 6.344C86.7444 6.41867 86.7338 6.496 86.7124 6.576C86.6964 6.65067 86.6591 6.72 86.6004 6.784C86.5471 6.848 86.4698 6.90133 86.3684 6.944C86.2671 6.98133 86.1364 7 85.9764 7C85.8111 7 85.6778 6.97867 85.5764 6.936C85.4804 6.89333 85.4031 6.84 85.3444 6.776C85.2911 6.70667 85.2538 6.63467 85.2324 6.56C85.2164 6.48 85.2084 6.40267 85.2084 6.328C85.2084 6.12 85.2164 5.928 85.2324 5.752C85.2484 5.57067 85.2671 5.39733 85.2884 5.232C85.3098 5.06667 85.3284 4.904 85.3444 4.744C85.3604 4.57867 85.3684 4.41067 85.3684 4.24V3.6ZM88.0278 3.6C88.0278 3.42933 88.0198 3.26133 88.0038 3.096C87.9878 2.92533 87.9691 2.75467 87.9478 2.584C87.9265 2.408 87.9078 2.232 87.8918 2.056C87.8758 1.88 87.8678 1.69867 87.8678 1.512C87.8678 1.43733 87.8758 1.36267 87.8918 1.288C87.9131 1.208 87.9505 1.136 88.0038 1.072C88.0625 1.00267 88.1398 0.946667 88.2358 0.904C88.3371 0.861333 88.4705 0.84 88.6358 0.84C88.7958 0.84 88.9265 0.861333 89.0278 0.904C89.1291 0.941333 89.2065 0.992 89.2598 1.056C89.3185 1.12 89.3558 1.192 89.3718 1.272C89.3931 1.34667 89.4038 1.42133 89.4038 1.496C89.4038 1.704 89.3958 1.89867 89.3798 2.08C89.3638 2.26133 89.3451 2.43733 89.3238 2.608C89.3025 2.77333 89.2838 2.93867 89.2678 3.104C89.2518 3.264 89.2438 3.42933 89.2438 3.6V4.24C89.2438 4.41067 89.2518 4.57867 89.2678 4.744C89.2838 4.904 89.3025 5.06933 89.3238 5.24C89.3451 5.40533 89.3638 5.57867 89.3798 5.76C89.3958 5.94133 89.4038 6.136 89.4038 6.344C89.4038 6.41867 89.3931 6.496 89.3718 6.576C89.3558 6.65067 89.3185 6.72 89.2598 6.784C89.2065 6.848 89.1291 6.90133 89.0278 6.944C88.9265 6.98133 88.7958 7 88.6358 7C88.4705 7 88.3371 6.97867 88.2358 6.936C88.1398 6.89333 88.0625 6.84 88.0038 6.776C87.9505 6.70667 87.9131 6.63467 87.8918 6.56C87.8758 6.48 87.8678 6.40267 87.8678 6.328C87.8678 6.12 87.8758 5.928 87.8918 5.752C87.9078 5.57067 87.9265 5.39733 87.9478 5.232C87.9691 5.06667 87.9878 4.904 88.0038 4.744C88.0198 4.57867 88.0278 4.41067 88.0278 4.24V3.6ZM96.0693 5.184C96.064 5.06133 96.0506 4.93333 96.0293 4.8C96.008 4.66133 95.984 4.51733 95.9573 4.368C95.936 4.21867 95.9146 4.06667 95.8933 3.912C95.8773 3.75733 95.8693 3.59733 95.8693 3.432C95.8693 3.18133 95.9386 3.00267 96.0773 2.896C96.216 2.78933 96.4053 2.736 96.6453 2.736C96.8053 2.736 96.9333 2.75733 97.0293 2.8C97.1253 2.84267 97.2 2.89867 97.2533 2.968C97.3066 3.032 97.3413 3.104 97.3573 3.184C97.3786 3.264 97.3893 3.34133 97.3893 3.416C97.3893 3.624 97.384 3.81867 97.3733 4C97.3626 4.18133 97.3493 4.35733 97.3333 4.528C97.3226 4.69333 97.312 4.85867 97.3013 5.024C97.2906 5.184 97.2853 5.34933 97.2853 5.52V6.32C97.2853 6.56 97.2826 6.79467 97.2773 7.024C97.272 7.25333 97.248 7.46933 97.2053 7.672C97.168 7.87467 97.1013 8.06133 97.0053 8.232C96.9146 8.408 96.7813 8.55733 96.6053 8.68C96.4293 8.808 96.2026 8.90667 95.9253 8.976C95.6533 9.04533 95.3146 9.08 94.9093 9.08C94.5093 9.08 94.1546 9.01333 93.8453 8.88C93.536 8.74667 93.304 8.57333 93.1493 8.36C93.0746 8.25867 93.0346 8.152 93.0293 8.04C93.024 7.928 93.0453 7.82667 93.0933 7.736C93.1413 7.64533 93.2106 7.57067 93.3013 7.512C93.3973 7.45333 93.504 7.424 93.6213 7.424C93.7226 7.424 93.8373 7.45333 93.9653 7.512C94.216 7.63467 94.432 7.70933 94.6133 7.736C94.8 7.768 94.9786 7.784 95.1493 7.784C95.3306 7.784 95.48 7.74933 95.5973 7.68C95.7146 7.616 95.808 7.528 95.8773 7.416C95.952 7.30933 96.0053 7.18667 96.0373 7.048C96.0693 6.91467 96.088 6.78133 96.0933 6.648C96.008 6.70667 95.9093 6.76267 95.7973 6.816C95.6853 6.86933 95.568 6.91467 95.4453 6.952C95.328 6.98933 95.208 7.01867 95.0853 7.04C94.9626 7.06133 94.848 7.072 94.7413 7.072C94.5973 7.072 94.4506 7.05333 94.3013 7.016C94.1573 6.984 94.024 6.928 93.9013 6.848C93.784 6.768 93.6853 6.66133 93.6053 6.528C93.5306 6.39467 93.4933 6.232 93.4933 6.04C93.4933 5.82133 93.504 5.61333 93.5253 5.416C93.5466 5.21333 93.5573 4.98667 93.5573 4.736V4.688C93.5573 4.44267 93.5306 4.208 93.4773 3.984C93.424 3.75467 93.3973 3.528 93.3973 3.304C93.3973 3.24 93.408 3.176 93.4293 3.112C93.4506 3.04267 93.4906 2.97867 93.5493 2.92C93.608 2.86133 93.6853 2.81333 93.7813 2.776C93.8826 2.73867 94.008 2.72 94.1573 2.72C94.312 2.72 94.4373 2.73867 94.5333 2.776C94.6346 2.81333 94.712 2.864 94.7653 2.928C94.824 2.98667 94.864 3.05067 94.8853 3.12C94.9066 3.18933 94.9173 3.256 94.9173 3.32C94.9173 3.416 94.9093 3.51733 94.8933 3.624C94.8773 3.73067 94.8586 3.84267 94.8373 3.96C94.816 4.07733 94.7973 4.19733 94.7813 4.32C94.7653 4.44267 94.7573 4.56533 94.7573 4.688V4.736C94.7573 5.46667 94.88 5.85867 95.1253 5.912C95.2266 5.93333 95.3493 5.92267 95.4933 5.88C95.6373 5.832 95.7893 5.71467 95.9493 5.528C96.0293 5.432 96.0693 5.31733 96.0693 5.184ZM98.486 4.944C98.486 4.60267 98.542 4.29333 98.654 4.016C98.766 3.73333 98.9233 3.49067 99.126 3.288C99.3287 3.08533 99.5687 2.928 99.846 2.816C100.129 2.704 100.435 2.648 100.766 2.648C101.097 2.648 101.401 2.704 101.678 2.816C101.955 2.928 102.195 3.08533 102.398 3.288C102.601 3.49067 102.758 3.73333 102.87 4.016C102.982 4.29333 103.038 4.60267 103.038 4.944C103.038 5.32267 102.982 5.648 102.87 5.92C102.763 6.18667 102.609 6.408 102.406 6.584C102.209 6.75467 101.969 6.88 101.686 6.96C101.409 7.04 101.102 7.08 100.766 7.08C100.43 7.08 100.121 7.04 99.838 6.96C99.5607 6.88 99.3207 6.75467 99.118 6.584C98.9207 6.408 98.766 6.18667 98.654 5.92C98.542 5.648 98.486 5.32267 98.486 4.944ZM99.758 4.872C99.758 5.01067 99.7713 5.14133 99.798 5.264C99.83 5.38667 99.8833 5.496 99.958 5.592C100.038 5.68267 100.142 5.75733 100.27 5.816C100.403 5.86933 100.571 5.896 100.774 5.896C100.977 5.896 101.142 5.86933 101.27 5.816C101.403 5.75733 101.507 5.68267 101.582 5.592C101.662 5.496 101.715 5.38667 101.742 5.264C101.774 5.14133 101.79 5.01067 101.79 4.872C101.79 4.51467 101.702 4.232 101.526 4.024C101.35 3.816 101.099 3.712 100.774 3.712C100.449 3.712 100.198 3.816 100.022 4.024C99.846 4.232 99.758 4.51467 99.758 4.872ZM106.89 4.688C106.89 4.44267 106.864 4.208 106.81 3.984C106.757 3.75467 106.73 3.528 106.73 3.304C106.73 3.24 106.741 3.176 106.762 3.112C106.784 3.04267 106.824 2.97867 106.882 2.92C106.941 2.86133 107.018 2.81333 107.114 2.776C107.216 2.73867 107.341 2.72 107.49 2.72C107.645 2.72 107.77 2.73867 107.866 2.776C107.968 2.81333 108.045 2.864 108.098 2.928C108.157 2.98667 108.197 3.05067 108.218 3.12C108.24 3.18933 108.25 3.256 108.25 3.32C108.25 3.416 108.242 3.51733 108.226 3.624C108.21 3.73067 108.192 3.84267 108.17 3.96C108.149 4.07733 108.13 4.19733 108.114 4.32C108.098 4.44267 108.09 4.56533 108.09 4.688V5.032C108.09 5.15467 108.098 5.28 108.114 5.408C108.13 5.53067 108.149 5.65067 108.17 5.768C108.192 5.88533 108.21 5.99733 108.226 6.104C108.242 6.21067 108.25 6.312 108.25 6.408C108.25 6.472 108.24 6.53867 108.218 6.608C108.197 6.67733 108.157 6.74133 108.098 6.8C108.045 6.85867 107.968 6.90933 107.866 6.952C107.77 6.98933 107.645 7.008 107.49 7.008C107.346 7.008 107.226 6.992 107.13 6.96C107.04 6.92267 106.965 6.88 106.906 6.832C106.848 6.77867 106.805 6.72 106.778 6.656C106.752 6.592 106.736 6.528 106.73 6.464C106.624 6.592 106.498 6.70933 106.354 6.816C106.21 6.91733 106.042 6.98933 105.85 7.032C105.701 7.064 105.53 7.07467 105.338 7.064C105.152 7.05867 104.973 7.01867 104.802 6.944C104.637 6.86933 104.496 6.76 104.378 6.616C104.266 6.472 104.21 6.28 104.21 6.04C104.21 5.82133 104.224 5.61333 104.25 5.416C104.277 5.21333 104.29 4.98667 104.29 4.736V4.688C104.29 4.44267 104.264 4.208 104.21 3.984C104.157 3.75467 104.13 3.528 104.13 3.304C104.13 3.24 104.141 3.176 104.162 3.112C104.184 3.04267 104.224 2.97867 104.282 2.92C104.341 2.86133 104.418 2.81333 104.514 2.776C104.616 2.73867 104.741 2.72 104.89 2.72C105.045 2.72 105.17 2.73867 105.266 2.776C105.368 2.81333 105.445 2.864 105.498 2.928C105.557 2.98667 105.597 3.05067 105.618 3.12C105.64 3.18933 105.65 3.256 105.65 3.32C105.65 3.416 105.642 3.51733 105.626 3.624C105.61 3.73067 105.592 3.84267 105.57 3.96C105.549 4.07733 105.53 4.19733 105.514 4.32C105.498 4.44267 105.49 4.56533 105.49 4.688V4.736C105.49 5.46667 105.613 5.85867 105.858 5.912C105.97 5.93867 106.114 5.89867 106.29 5.792C106.466 5.68 106.637 5.472 106.802 5.168C106.829 5.12 106.85 5.064 106.866 5C106.882 4.93067 106.89 4.864 106.89 4.8V4.688ZM112.79 2.6C112.817 2.35467 112.862 2.12533 112.926 1.912C112.99 1.69867 113.078 1.512 113.19 1.352C113.307 1.192 113.457 1.06667 113.638 0.976C113.819 0.88 114.043 0.832 114.31 0.832C114.497 0.832 114.689 0.861333 114.886 0.92C115.083 0.973333 115.278 1.06667 115.47 1.2C115.587 1.28 115.654 1.38667 115.67 1.52C115.691 1.65333 115.673 1.77867 115.614 1.896C115.561 2.008 115.478 2.09333 115.366 2.152C115.254 2.21067 115.123 2.208 114.974 2.144C114.857 2.09067 114.753 2.06133 114.662 2.056C114.571 2.05067 114.481 2.06133 114.39 2.088C114.283 2.12 114.198 2.192 114.134 2.304C114.075 2.416 114.03 2.54933 113.998 2.704C113.987 2.74667 113.993 2.78133 114.014 2.808C114.035 2.82933 114.067 2.83467 114.11 2.824C114.217 2.808 114.329 2.78933 114.446 2.768C114.563 2.74667 114.694 2.736 114.838 2.736C114.913 2.736 114.985 2.744 115.054 2.76C115.123 2.776 115.185 2.80533 115.238 2.848C115.291 2.89067 115.334 2.952 115.366 3.032C115.398 3.10667 115.414 3.20533 115.414 3.328C115.414 3.45067 115.395 3.552 115.358 3.632C115.326 3.70667 115.281 3.76533 115.222 3.808C115.169 3.85067 115.107 3.88 115.038 3.896C114.969 3.912 114.897 3.92 114.822 3.92C114.694 3.92 114.566 3.90933 114.438 3.888C114.315 3.86667 114.19 3.848 114.062 3.832C114.019 3.82667 113.985 3.83467 113.958 3.856C113.937 3.87733 113.929 3.90933 113.934 3.952V3.992C113.95 4.264 113.969 4.504 113.99 4.712C114.017 4.91467 114.041 5.104 114.062 5.28C114.089 5.456 114.11 5.62667 114.126 5.792C114.142 5.95733 114.15 6.13333 114.15 6.32C114.15 6.39467 114.139 6.472 114.118 6.552C114.102 6.62667 114.067 6.69867 114.014 6.768C113.961 6.832 113.883 6.88533 113.782 6.928C113.686 6.97067 113.555 6.992 113.39 6.992C113.23 6.992 113.099 6.97333 112.998 6.936C112.897 6.89333 112.819 6.84 112.766 6.776C112.713 6.712 112.675 6.64267 112.654 6.568C112.638 6.488 112.63 6.41067 112.63 6.336C112.63 6.128 112.635 5.93333 112.646 5.752C112.657 5.57067 112.667 5.39733 112.678 5.232C112.694 5.06133 112.707 4.896 112.718 4.736C112.729 4.57067 112.734 4.40267 112.734 4.232V4.056C112.734 3.976 112.689 3.928 112.598 3.912C112.486 3.896 112.395 3.848 112.326 3.768C112.257 3.68267 112.219 3.536 112.214 3.328C112.209 3.104 112.246 2.952 112.326 2.872C112.406 2.792 112.51 2.74667 112.638 2.736C112.729 2.72533 112.779 2.68 112.79 2.6ZM115.974 1.72C115.974 1.55467 116.043 1.41867 116.182 1.312C116.326 1.2 116.515 1.144 116.75 1.144C116.979 1.144 117.163 1.2 117.302 1.312C117.446 1.41867 117.518 1.55467 117.518 1.72C117.518 1.89067 117.446 2.02933 117.302 2.136C117.163 2.24267 116.979 2.296 116.75 2.296C116.515 2.296 116.326 2.24267 116.182 2.136C116.043 2.02933 115.974 1.89067 115.974 1.72ZM116.166 4.688C116.166 4.56533 116.158 4.44267 116.142 4.32C116.126 4.192 116.107 4.06933 116.086 3.952C116.065 3.83467 116.046 3.72267 116.03 3.616C116.014 3.50933 116.006 3.408 116.006 3.312C116.006 3.248 116.017 3.18133 116.038 3.112C116.059 3.04267 116.097 2.97867 116.15 2.92C116.209 2.86133 116.286 2.81333 116.382 2.776C116.483 2.73333 116.611 2.712 116.766 2.712C116.921 2.712 117.046 2.73067 117.142 2.768C117.238 2.80533 117.315 2.85333 117.374 2.912C117.433 2.97067 117.473 3.03467 117.494 3.104C117.515 3.17333 117.526 3.24 117.526 3.304C117.526 3.52267 117.499 3.74667 117.446 3.976C117.393 4.2 117.366 4.43733 117.366 4.688V5.032C117.366 5.27733 117.393 5.51467 117.446 5.744C117.499 5.968 117.526 6.192 117.526 6.416C117.526 6.48 117.515 6.54667 117.494 6.616C117.473 6.68 117.433 6.74133 117.374 6.8C117.315 6.85867 117.238 6.90667 117.142 6.944C117.046 6.98133 116.921 7 116.766 7C116.611 7 116.483 6.98133 116.382 6.944C116.286 6.90667 116.209 6.85867 116.15 6.8C116.097 6.736 116.059 6.66933 116.038 6.6C116.017 6.53067 116.006 6.464 116.006 6.4C116.006 6.304 116.014 6.20267 116.03 6.096C116.046 5.98933 116.065 5.87733 116.086 5.76C116.107 5.64267 116.126 5.52267 116.142 5.4C116.158 5.27733 116.166 5.15467 116.166 5.032V4.688ZM120.048 4.448C120.042 4.49067 120.04 4.53067 120.04 4.568C120.04 4.60533 120.04 4.64533 120.04 4.688V5.032C120.04 5.27733 120.066 5.51467 120.12 5.744C120.173 5.968 120.2 6.192 120.2 6.416C120.2 6.48 120.186 6.54667 120.16 6.616C120.138 6.68 120.098 6.74133 120.04 6.8C119.981 6.85867 119.901 6.90667 119.8 6.944C119.704 6.98133 119.578 7 119.424 7C119.269 7 119.141 6.98133 119.04 6.944C118.944 6.90667 118.866 6.85867 118.808 6.8C118.749 6.736 118.706 6.66933 118.68 6.6C118.658 6.53067 118.648 6.464 118.648 6.4C118.648 6.304 118.656 6.20267 118.672 6.096C118.688 5.98933 118.706 5.87733 118.728 5.76C118.749 5.64267 118.768 5.52267 118.784 5.4C118.8 5.27733 118.808 5.15467 118.808 5.032V4.688C118.808 4.56533 118.8 4.44267 118.784 4.32C118.768 4.192 118.749 4.06933 118.728 3.952C118.706 3.83467 118.688 3.72267 118.672 3.616C118.656 3.50933 118.648 3.408 118.648 3.312C118.648 3.248 118.658 3.18133 118.68 3.112C118.706 3.04267 118.749 2.97867 118.808 2.92C118.866 2.86133 118.944 2.81333 119.04 2.776C119.141 2.73333 119.269 2.712 119.424 2.712C119.568 2.712 119.688 2.73067 119.784 2.768C119.885 2.8 119.965 2.84267 120.024 2.896C120.082 2.94933 120.125 3.008 120.152 3.072C120.178 3.136 120.194 3.2 120.2 3.264C120.306 3.136 120.432 3.01867 120.576 2.912C120.72 2.80533 120.89 2.73067 121.088 2.688C121.237 2.656 121.41 2.64 121.608 2.64C121.805 2.64 121.992 2.672 122.168 2.736C122.349 2.8 122.501 2.90133 122.624 3.04C122.746 3.17333 122.808 3.36 122.808 3.6C122.808 3.81867 122.781 4.04267 122.728 4.272C122.674 4.496 122.648 4.73333 122.648 4.984V5.032C122.648 5.27733 122.674 5.51467 122.728 5.744C122.781 5.968 122.808 6.192 122.808 6.416C122.808 6.48 122.797 6.54667 122.776 6.616C122.754 6.68 122.714 6.74133 122.656 6.8C122.597 6.85867 122.52 6.90667 122.424 6.944C122.328 6.98133 122.202 7 122.048 7C121.893 7 121.765 6.98133 121.664 6.944C121.568 6.90667 121.49 6.85867 121.432 6.8C121.378 6.736 121.341 6.66933 121.32 6.6C121.298 6.53067 121.288 6.464 121.288 6.4C121.288 6.304 121.296 6.20267 121.312 6.096C121.328 5.98933 121.346 5.87733 121.368 5.76C121.389 5.64267 121.408 5.52267 121.424 5.4C121.44 5.27733 121.448 5.15467 121.448 5.032V4.984C121.448 4.25333 121.325 3.86133 121.08 3.808C121.032 3.79733 120.973 3.792 120.904 3.792C120.84 3.78667 120.77 3.79467 120.696 3.816C120.621 3.832 120.541 3.864 120.456 3.912C120.37 3.95467 120.285 4.02133 120.2 4.112C120.157 4.15467 120.122 4.20533 120.096 4.264C120.069 4.32267 120.053 4.384 120.048 4.448ZM127.116 3C127.089 2.76 127.06 2.52 127.028 2.28C127.001 2.04 126.988 1.784 126.988 1.512C126.988 1.43733 126.996 1.36267 127.012 1.288C127.033 1.208 127.071 1.136 127.124 1.072C127.177 1.00267 127.252 0.946667 127.348 0.904C127.449 0.861333 127.583 0.84 127.748 0.84C127.908 0.84 128.039 0.861333 128.14 0.904C128.241 0.941333 128.319 0.992 128.372 1.056C128.425 1.12 128.46 1.192 128.476 1.272C128.497 1.34667 128.508 1.42133 128.508 1.496C128.508 1.704 128.5 1.89867 128.484 2.08C128.468 2.26133 128.449 2.43733 128.428 2.608C128.407 2.77333 128.388 2.93867 128.372 3.104C128.356 3.264 128.348 3.42933 128.348 3.6V4.24C128.348 4.41067 128.356 4.57867 128.372 4.744C128.388 4.904 128.407 5.06933 128.428 5.24C128.449 5.40533 128.468 5.57867 128.484 5.76C128.5 5.94133 128.508 6.136 128.508 6.344C128.508 6.41867 128.497 6.496 128.476 6.576C128.46 6.65067 128.425 6.72 128.372 6.784C128.319 6.848 128.241 6.90133 128.14 6.944C128.039 6.98133 127.908 7 127.748 7C127.497 6.99467 127.319 6.94933 127.212 6.864C127.105 6.77333 127.039 6.66933 127.012 6.552C126.847 6.70667 126.652 6.83467 126.428 6.936C126.209 7.032 125.961 7.08 125.684 7.08C125.545 7.08 125.375 7.056 125.172 7.008C124.969 6.96533 124.772 6.872 124.58 6.728C124.393 6.584 124.233 6.37867 124.1 6.112C123.967 5.84 123.9 5.47733 123.9 5.024C123.9 4.60267 123.948 4.24267 124.044 3.944C124.145 3.64533 124.279 3.4 124.444 3.208C124.609 3.016 124.799 2.87467 125.012 2.784C125.231 2.69333 125.455 2.648 125.684 2.648C125.961 2.648 126.209 2.68533 126.428 2.76C126.647 2.82933 126.841 2.92533 127.012 3.048C127.092 3.10133 127.127 3.08533 127.116 3ZM125.172 4.872C125.172 5.01067 125.185 5.14133 125.212 5.264C125.239 5.38667 125.287 5.496 125.356 5.592C125.425 5.68267 125.519 5.75733 125.636 5.816C125.759 5.86933 125.911 5.896 126.092 5.896C126.417 5.896 126.676 5.81333 126.868 5.648C127.06 5.47733 127.161 5.21867 127.172 4.872C127.177 4.696 127.145 4.536 127.076 4.392C127.012 4.248 126.927 4.12533 126.82 4.024C126.713 3.92267 126.596 3.84533 126.468 3.792C126.34 3.73867 126.215 3.712 126.092 3.712C125.804 3.712 125.577 3.80533 125.412 3.992C125.252 4.17867 125.172 4.472 125.172 4.872ZM132.182 2.56C132.182 2.35733 132.113 2.208 131.974 2.112C131.836 2.016 131.66 1.968 131.446 1.968C131.361 1.968 131.273 1.984 131.182 2.016C131.092 2.04267 131.004 2.08 130.918 2.128C130.833 2.176 130.748 2.22933 130.662 2.288C130.582 2.34133 130.505 2.392 130.43 2.44C130.334 2.504 130.236 2.53333 130.134 2.528C130.038 2.52267 129.95 2.49333 129.87 2.44C129.79 2.38133 129.724 2.30933 129.67 2.224C129.622 2.13333 129.596 2.03733 129.59 1.936C129.59 1.82933 129.617 1.72533 129.67 1.624C129.724 1.51733 129.814 1.424 129.942 1.344C130.14 1.22133 130.377 1.10667 130.654 1C130.937 0.893333 131.228 0.84 131.526 0.84C131.814 0.84 132.078 0.874666 132.318 0.944C132.564 1.008 132.774 1.112 132.95 1.256C133.126 1.39467 133.262 1.576 133.358 1.8C133.454 2.024 133.502 2.29333 133.502 2.608C133.502 2.848 133.462 3.05333 133.382 3.224C133.308 3.39467 133.212 3.54133 133.094 3.664C132.977 3.78133 132.846 3.87733 132.702 3.952C132.564 4.02133 132.43 4.07733 132.302 4.12C132.174 4.15733 132.06 4.18667 131.958 4.208C131.857 4.224 131.79 4.23467 131.758 4.24V4.776C131.758 4.84 131.75 4.90667 131.734 4.976C131.718 5.04 131.686 5.10133 131.638 5.16C131.596 5.21867 131.534 5.26667 131.454 5.304C131.374 5.34133 131.268 5.36 131.134 5.36C131.001 5.36 130.894 5.34133 130.814 5.304C130.734 5.26667 130.67 5.21867 130.622 5.16C130.58 5.096 130.55 5.02933 130.534 4.96C130.524 4.89067 130.518 4.824 130.518 4.76V4.336C130.518 4.09067 130.558 3.90133 130.638 3.768C130.724 3.62933 130.828 3.52267 130.95 3.448C131.073 3.37333 131.206 3.31733 131.35 3.28C131.494 3.23733 131.628 3.192 131.75 3.144C131.873 3.09067 131.974 3.02133 132.054 2.936C132.14 2.85067 132.182 2.72533 132.182 2.56ZM130.366 6.384C130.366 6.176 130.433 6.01067 130.566 5.888C130.7 5.76533 130.894 5.704 131.15 5.704C131.406 5.704 131.601 5.76533 131.734 5.888C131.868 6.01067 131.934 6.176 131.934 6.384C131.934 6.59733 131.868 6.76533 131.734 6.888C131.601 7.01067 131.406 7.072 131.15 7.072C130.894 7.072 130.7 7.01067 130.566 6.888C130.433 6.76533 130.366 6.59733 130.366 6.384Z" fill="black"/>
</svg>
