<svg width="109" height="12" viewBox="0 0 109 12" fill="none" xmlns="http://www.w3.org/2000/svg">
<path d="M6.138 6.899C6.18933 6.67167 6.23333 6.448 6.27 6.228C6.30667 6.00067 6.35433 5.76967 6.413 5.535C6.49367 5.19767 6.57067 4.87133 6.644 4.556C6.72467 4.24067 6.82733 3.94 6.952 3.654C7.00333 3.53667 7.08767 3.423 7.205 3.313C7.32233 3.203 7.48367 3.148 7.689 3.148C7.85033 3.148 8.03367 3.192 8.239 3.28C8.62767 3.44867 8.86233 3.632 8.943 3.83C9.031 4.02067 9.02 4.25167 8.91 4.523C8.80733 4.77233 8.67533 5.05833 8.514 5.381C8.35267 5.69633 8.206 6.01167 8.074 6.327L7.887 6.778C7.755 7.09333 7.65233 7.383 7.579 7.647C7.513 7.90367 7.42867 8.153 7.326 8.395C7.25267 8.56367 7.139 8.70667 6.985 8.824C6.831 8.934 6.57433 8.989 6.215 8.989C5.95833 8.989 5.73833 8.95233 5.555 8.879C5.37167 8.80567 5.23967 8.681 5.159 8.505C5.12233 8.417 5.082 8.307 5.038 8.175C5.00133 8.03567 4.961 7.889 4.917 7.735C4.873 7.581 4.829 7.42333 4.785 7.262C4.741 7.10067 4.697 6.95033 4.653 6.811C4.631 6.73033 4.60533 6.69 4.576 6.69C4.54667 6.69 4.521 6.73033 4.499 6.811C4.455 6.95033 4.411 7.10067 4.367 7.262C4.323 7.42333 4.279 7.581 4.235 7.735C4.191 7.889 4.147 8.03567 4.103 8.175C4.06633 8.307 4.02967 8.417 3.993 8.505C3.91967 8.67367 3.79867 8.79833 3.63 8.879C3.46133 8.95233 3.256 8.989 3.014 8.989C2.64733 8.989 2.376 8.93767 2.2 8.835C2.024 8.73233 1.89567 8.58567 1.815 8.395C1.71233 8.153 1.62433 7.90367 1.551 7.647C1.485 7.383 1.386 7.09333 1.254 6.778L1.067 6.327C0.935 6.01167 0.788333 5.69633 0.627 5.381C0.465667 5.05833 0.333667 4.77233 0.231 4.523C0.121 4.25167 0.117333 4.02067 0.22 3.83C0.322667 3.632 0.568333 3.44867 0.957 3.28C1.16967 3.192 1.353 3.148 1.507 3.148C1.71233 3.148 1.87367 3.203 1.991 3.313C2.10833 3.423 2.19267 3.53667 2.244 3.654C2.36867 3.94 2.46767 4.24067 2.541 4.556C2.62167 4.87133 2.70233 5.19767 2.783 5.535C2.83433 5.74767 2.87833 5.96033 2.915 6.173C2.95167 6.38567 2.992 6.59833 3.036 6.811C3.07267 6.97967 3.10933 6.97967 3.146 6.811C3.19 6.59833 3.23033 6.38567 3.267 6.173C3.311 5.96033 3.35867 5.74033 3.41 5.513C3.49067 5.17567 3.56767 4.84933 3.641 4.534C3.71433 4.21133 3.81333 3.91067 3.938 3.632C3.98933 3.51467 4.06267 3.40467 4.158 3.302C4.26067 3.192 4.4 3.137 4.576 3.137C4.708 3.137 4.85833 3.17367 5.027 3.247C5.313 3.37167 5.5 3.50733 5.588 3.654C5.676 3.79333 5.66867 3.995 5.566 4.259C5.55133 4.29567 5.53667 4.33233 5.522 4.369C5.51467 4.39833 5.50367 4.43133 5.489 4.468C5.533 4.63667 5.57333 4.809 5.61 4.985C5.654 5.15367 5.698 5.32967 5.742 5.513C5.80067 5.74767 5.84833 5.98233 5.885 6.217C5.92167 6.44433 5.96567 6.67167 6.017 6.899C6.03167 6.97967 6.05 7.02 6.072 7.02C6.10133 7.02 6.12333 6.97967 6.138 6.899ZM10.4613 5.821C10.4613 5.65233 10.4503 5.48367 10.4283 5.315C10.4063 5.139 10.3807 4.97033 10.3513 4.809C10.322 4.64767 10.2963 4.49367 10.2743 4.347C10.2523 4.20033 10.2413 4.061 10.2413 3.929C10.2413 3.841 10.256 3.74933 10.2853 3.654C10.3147 3.55867 10.366 3.47067 10.4393 3.39C10.52 3.30933 10.6263 3.24333 10.7583 3.192C10.8977 3.13333 11.0737 3.104 11.2863 3.104C11.499 3.104 11.6713 3.12967 11.8033 3.181C11.9353 3.23233 12.0417 3.29833 12.1223 3.379C12.203 3.45967 12.258 3.54767 12.2873 3.643C12.3167 3.73833 12.3313 3.83 12.3313 3.918C12.3313 4.21867 12.2947 4.52667 12.2213 4.842C12.148 5.15 12.1113 5.47633 12.1113 5.821V6.294C12.1113 6.63133 12.148 6.95767 12.2213 7.273C12.2947 7.581 12.3313 7.889 12.3313 8.197C12.3313 8.285 12.3167 8.37667 12.2873 8.472C12.258 8.56 12.203 8.64433 12.1223 8.725C12.0417 8.80567 11.9353 8.87167 11.8033 8.923C11.6713 8.97433 11.499 9 11.2863 9C11.0737 9 10.8977 8.97433 10.7583 8.923C10.6263 8.87167 10.52 8.80567 10.4393 8.725C10.366 8.637 10.3147 8.54533 10.2853 8.45C10.256 8.35467 10.2413 8.263 10.2413 8.175C10.2413 8.043 10.2523 7.90367 10.2743 7.757C10.2963 7.61033 10.322 7.45633 10.3513 7.295C10.3807 7.13367 10.4063 6.96867 10.4283 6.8C10.4503 6.63133 10.4613 6.46267 10.4613 6.294V5.821ZM10.1973 1.74C10.1973 1.51267 10.2927 1.32567 10.4833 1.179C10.6813 1.025 10.9417 0.947999 11.2643 0.947999C11.5797 0.947999 11.8327 1.025 12.0233 1.179C12.2213 1.32567 12.3203 1.51267 12.3203 1.74C12.3203 1.97467 12.2213 2.16533 12.0233 2.312C11.8327 2.45867 11.5797 2.532 11.2643 2.532C10.9417 2.532 10.6813 2.45867 10.4833 2.312C10.2927 2.16533 10.1973 1.97467 10.1973 1.74ZM15.8995 4.853C15.8701 5.12433 15.8481 5.392 15.8335 5.656C15.8261 5.91267 15.8335 6.14733 15.8555 6.36C15.8848 6.56533 15.9325 6.74133 15.9985 6.888C16.0718 7.02733 16.1708 7.11533 16.2955 7.152C16.4201 7.18867 16.5301 7.196 16.6255 7.174C16.7208 7.14467 16.8601 7.06033 17.0435 6.921C17.1828 6.81833 17.3148 6.77067 17.4395 6.778C17.5715 6.778 17.6888 6.81833 17.7915 6.899C17.8941 6.97233 17.9821 7.075 18.0555 7.207C18.1288 7.33167 18.1765 7.471 18.1985 7.625C18.2205 7.77167 18.2131 7.91833 18.1765 8.065C18.1471 8.21167 18.0775 8.34 17.9675 8.45C17.8355 8.58933 17.6851 8.703 17.5165 8.791C17.3551 8.87167 17.1865 8.93767 17.0105 8.989C16.8418 9.033 16.6768 9.06233 16.5155 9.077C16.3541 9.09167 16.2075 9.099 16.0755 9.099C15.6868 9.099 15.3715 9.055 15.1295 8.967C14.8875 8.879 14.6968 8.758 14.5575 8.604C14.4181 8.44267 14.3228 8.25567 14.2715 8.043C14.2275 7.823 14.2018 7.58833 14.1945 7.339C14.1871 7.08967 14.1908 6.82933 14.2055 6.558C14.2275 6.28667 14.2385 6.01533 14.2385 5.744C14.2385 5.60467 14.2385 5.47633 14.2385 5.359C14.2385 5.23433 14.2348 5.11333 14.2275 4.996C14.2275 4.85667 14.1358 4.75767 13.9525 4.699C13.8278 4.66233 13.7288 4.589 13.6555 4.479C13.5821 4.36167 13.5418 4.17467 13.5345 3.918C13.5271 3.698 13.5491 3.533 13.6005 3.423C13.6591 3.30567 13.7398 3.22133 13.8425 3.17C14.0111 3.09667 14.0955 2.98667 14.0955 2.84V2.521C14.0955 2.41833 14.1065 2.31567 14.1285 2.213C14.1578 2.103 14.2091 2.004 14.2825 1.916C14.3558 1.828 14.4621 1.75833 14.6015 1.707C14.7408 1.64833 14.9205 1.619 15.1405 1.619C15.3678 1.619 15.5475 1.64833 15.6795 1.707C15.8188 1.76567 15.9251 1.84267 15.9985 1.938C16.0718 2.026 16.1195 2.125 16.1415 2.235C16.1708 2.33767 16.1855 2.44033 16.1855 2.543C16.1855 2.653 16.1745 2.79233 16.1525 2.961C16.1378 3.04167 16.1525 3.104 16.1965 3.148C16.2405 3.18467 16.3028 3.19567 16.3835 3.181C16.5008 3.159 16.6181 3.14067 16.7355 3.126C16.8601 3.11133 16.9958 3.104 17.1425 3.104C17.2451 3.104 17.3441 3.115 17.4395 3.137C17.5348 3.159 17.6191 3.19933 17.6925 3.258C17.7658 3.31667 17.8245 3.401 17.8685 3.511C17.9125 3.61367 17.9345 3.74933 17.9345 3.918C17.9345 4.08667 17.9088 4.226 17.8575 4.336C17.8135 4.43867 17.7511 4.51933 17.6705 4.578C17.5971 4.63667 17.5128 4.677 17.4175 4.699C17.3221 4.721 17.2231 4.732 17.1205 4.732C16.9591 4.732 16.8015 4.721 16.6475 4.699C16.5008 4.66967 16.3505 4.644 16.1965 4.622C16.1158 4.60733 16.0498 4.622 15.9985 4.666C15.9471 4.71 15.9141 4.77233 15.8995 4.853ZM21.3773 5.546C21.3993 5.94933 21.4396 6.35267 21.4983 6.756C21.557 7.152 21.5863 7.59933 21.5863 8.098C21.5863 8.20067 21.5716 8.307 21.5423 8.417C21.5203 8.51967 21.469 8.615 21.3883 8.703C21.315 8.791 21.2086 8.86433 21.0693 8.923C20.93 8.97433 20.7503 9 20.5303 9C20.303 9 20.1196 8.97067 19.9803 8.912C19.8483 8.85333 19.742 8.78 19.6613 8.692C19.588 8.59667 19.5366 8.49767 19.5073 8.395C19.4853 8.285 19.4743 8.17867 19.4743 8.076C19.4743 7.79 19.4853 7.526 19.5073 7.284C19.5293 7.03467 19.555 6.79633 19.5843 6.569C19.6136 6.34167 19.6393 6.118 19.6613 5.898C19.6833 5.67067 19.6943 5.43967 19.6943 5.205V4.325C19.6943 4.09033 19.6833 3.85933 19.6613 3.632C19.6393 3.39733 19.6136 3.16267 19.5843 2.928C19.555 2.686 19.5293 2.444 19.5073 2.202C19.4853 1.96 19.4743 1.71067 19.4743 1.454C19.4743 1.35133 19.4853 1.24867 19.5073 1.146C19.5366 1.036 19.588 0.937 19.6613 0.848999C19.742 0.753666 19.8483 0.676667 19.9803 0.618C20.1196 0.559333 20.303 0.53 20.5303 0.53C20.7503 0.53 20.93 0.559333 21.0693 0.618C21.2086 0.669333 21.315 0.738999 21.3883 0.827C21.469 0.915 21.5203 1.014 21.5423 1.124C21.5716 1.22667 21.5863 1.32933 21.5863 1.432C21.5863 1.92333 21.557 2.36333 21.4983 2.752C21.4396 3.14067 21.3993 3.52933 21.3773 3.918C21.524 3.73467 21.7073 3.566 21.9273 3.412C22.1473 3.25067 22.4113 3.137 22.7193 3.071C22.9246 3.027 23.163 3.005 23.4343 3.005C23.7056 3.005 23.9623 3.049 24.2043 3.137C24.4536 3.225 24.6626 3.36433 24.8313 3.555C25 3.73833 25.0843 3.995 25.0843 4.325C25.0843 4.62567 25.0476 4.93367 24.9743 5.249C24.901 5.557 24.8643 5.88333 24.8643 6.228V6.294C24.8643 6.63133 24.901 6.95767 24.9743 7.273C25.0476 7.581 25.0843 7.889 25.0843 8.197C25.0843 8.285 25.0696 8.37667 25.0403 8.472C25.011 8.56 24.956 8.64433 24.8753 8.725C24.7946 8.80567 24.6883 8.87167 24.5563 8.923C24.4243 8.97433 24.252 9 24.0393 9C23.8266 9 23.6506 8.97433 23.5113 8.923C23.3793 8.87167 23.273 8.80567 23.1923 8.725C23.119 8.637 23.0676 8.54533 23.0383 8.45C23.009 8.35467 22.9943 8.263 22.9943 8.175C22.9943 8.043 23.0053 7.90367 23.0273 7.757C23.0493 7.61033 23.075 7.45633 23.1043 7.295C23.1336 7.13367 23.1593 6.96867 23.1813 6.8C23.2033 6.63133 23.2143 6.46267 23.2143 6.294V6.228C23.2143 5.22333 23.0456 4.68433 22.7083 4.611C22.569 4.57433 22.3893 4.59267 22.1693 4.666C21.9493 4.73933 21.722 4.919 21.4873 5.205C21.3993 5.30033 21.3626 5.414 21.3773 5.546ZM30.7776 2.95C30.8142 2.61267 30.8766 2.29733 30.9646 2.004C31.0526 1.71067 31.1736 1.454 31.3276 1.234C31.4889 1.014 31.6942 0.841666 31.9436 0.717C32.1929 0.585 32.5009 0.519 32.8676 0.519C33.1242 0.519 33.3882 0.559333 33.6596 0.639999C33.9309 0.713333 34.1986 0.841666 34.4626 1.025C34.6239 1.135 34.7156 1.28167 34.7376 1.465C34.7669 1.64833 34.7412 1.82067 34.6606 1.982C34.5872 2.136 34.4736 2.25333 34.3196 2.334C34.1656 2.41467 33.9859 2.411 33.7806 2.323C33.6192 2.24967 33.4762 2.20933 33.3516 2.202C33.2269 2.19467 33.1022 2.20933 32.9776 2.246C32.8309 2.29 32.7136 2.389 32.6256 2.543C32.5449 2.697 32.4826 2.88033 32.4386 3.093C32.4239 3.15167 32.4312 3.19933 32.4606 3.236C32.4899 3.26533 32.5339 3.27267 32.5926 3.258C32.7392 3.236 32.8932 3.21033 33.0546 3.181C33.2159 3.15167 33.3956 3.137 33.5936 3.137C33.6962 3.137 33.7952 3.148 33.8906 3.17C33.9859 3.192 34.0702 3.23233 34.1436 3.291C34.2169 3.34967 34.2756 3.434 34.3196 3.544C34.3636 3.64667 34.3856 3.78233 34.3856 3.951C34.3856 4.11967 34.3599 4.259 34.3086 4.369C34.2646 4.47167 34.2022 4.55233 34.1216 4.611C34.0482 4.66967 33.9639 4.71 33.8686 4.732C33.7732 4.754 33.6742 4.765 33.5716 4.765C33.3956 4.765 33.2196 4.75033 33.0436 4.721C32.8749 4.69167 32.7026 4.666 32.5266 4.644C32.4679 4.63667 32.4202 4.64767 32.3836 4.677C32.3542 4.70633 32.3432 4.75033 32.3506 4.809V4.864C32.3726 5.238 32.3982 5.568 32.4276 5.854C32.4642 6.13267 32.4972 6.393 32.5266 6.635C32.5632 6.877 32.5926 7.11167 32.6146 7.339C32.6366 7.56633 32.6476 7.80833 32.6476 8.065C32.6476 8.16767 32.6329 8.274 32.6036 8.384C32.5816 8.48667 32.5339 8.58567 32.4606 8.681C32.3872 8.769 32.2809 8.84233 32.1416 8.901C32.0096 8.95967 31.8299 8.989 31.6026 8.989C31.3826 8.989 31.2029 8.96333 31.0636 8.912C30.9242 8.85333 30.8179 8.78 30.7446 8.692C30.6712 8.604 30.6199 8.50867 30.5906 8.406C30.5686 8.296 30.5576 8.18967 30.5576 8.087C30.5576 7.801 30.5649 7.53333 30.5796 7.284C30.5942 7.03467 30.6089 6.79633 30.6236 6.569C30.6456 6.33433 30.6639 6.107 30.6786 5.887C30.6932 5.65967 30.7006 5.42867 30.7006 5.194V4.952C30.7006 4.842 30.6382 4.776 30.5136 4.754C30.3596 4.732 30.2349 4.666 30.1396 4.556C30.0442 4.43867 29.9929 4.237 29.9856 3.951C29.9782 3.643 30.0296 3.434 30.1396 3.324C30.2496 3.214 30.3926 3.15167 30.5686 3.137C30.6932 3.12233 30.7629 3.06 30.7776 2.95ZM37.5158 5.579C37.5158 5.61567 37.5122 5.656 37.5048 5.7C37.5048 5.744 37.5048 5.78433 37.5048 5.821V6.294C37.5048 6.63133 37.5415 6.95767 37.6148 7.273C37.6882 7.581 37.7248 7.889 37.7248 8.197C37.7248 8.285 37.7102 8.37667 37.6808 8.472C37.6515 8.56 37.5965 8.64433 37.5158 8.725C37.4352 8.80567 37.3288 8.87167 37.1968 8.923C37.0648 8.97433 36.8925 9 36.6798 9C36.4672 9 36.2912 8.97433 36.1518 8.923C36.0198 8.87167 35.9135 8.80567 35.8328 8.725C35.7595 8.637 35.7082 8.54533 35.6788 8.45C35.6495 8.35467 35.6348 8.263 35.6348 8.175C35.6348 8.043 35.6458 7.90367 35.6678 7.757C35.6898 7.61033 35.7155 7.45633 35.7448 7.295C35.7742 7.13367 35.7998 6.96867 35.8218 6.8C35.8438 6.63133 35.8548 6.46267 35.8548 6.294V5.821C35.8548 5.65233 35.8438 5.48367 35.8218 5.315C35.7998 5.139 35.7742 4.97033 35.7448 4.809C35.7155 4.64767 35.6898 4.49367 35.6678 4.347C35.6458 4.20033 35.6348 4.061 35.6348 3.929C35.6348 3.841 35.6495 3.74933 35.6788 3.654C35.7082 3.55867 35.7595 3.47067 35.8328 3.39C35.9135 3.30933 36.0198 3.24333 36.1518 3.192C36.2912 3.13333 36.4672 3.104 36.6798 3.104C37.0465 3.104 37.3032 3.17733 37.4498 3.324C37.6038 3.47067 37.6918 3.62833 37.7138 3.797C37.8605 3.599 38.0365 3.43033 38.2418 3.291C38.4545 3.14433 38.7038 3.071 38.9898 3.071C39.3565 3.071 39.6242 3.14067 39.7928 3.28C39.9688 3.412 40.0752 3.57333 40.1118 3.764C40.1558 3.94733 40.1448 4.13433 40.0788 4.325C40.0128 4.51567 39.9248 4.66233 39.8148 4.765C39.7195 4.853 39.5985 4.90067 39.4518 4.908C39.3052 4.91533 39.1512 4.89333 38.9898 4.842C38.9238 4.82 38.8432 4.798 38.7478 4.776C38.6525 4.754 38.5498 4.75033 38.4398 4.765C38.3298 4.77233 38.2125 4.80167 38.0878 4.853C37.9632 4.90433 37.8385 4.99233 37.7138 5.117C37.6552 5.17567 37.6075 5.249 37.5708 5.337C37.5415 5.41767 37.5232 5.49833 37.5158 5.579ZM40.8849 6.173C40.8849 5.70367 40.9619 5.27833 41.1159 4.897C41.2699 4.50833 41.4862 4.17467 41.7649 3.896C42.0435 3.61733 42.3735 3.401 42.7549 3.247C43.1435 3.093 43.5652 3.016 44.0199 3.016C44.4745 3.016 44.8925 3.093 45.2739 3.247C45.6552 3.401 45.9852 3.61733 46.2639 3.896C46.5425 4.17467 46.7589 4.50833 46.9129 4.897C47.0669 5.27833 47.1439 5.70367 47.1439 6.173C47.1439 6.69367 47.0669 7.141 46.9129 7.515C46.7662 7.88167 46.5535 8.186 46.2749 8.428C46.0035 8.66267 45.6735 8.835 45.2849 8.945C44.9035 9.055 44.4819 9.11 44.0199 9.11C43.5579 9.11 43.1325 9.055 42.7439 8.945C42.3625 8.835 42.0325 8.66267 41.7539 8.428C41.4825 8.186 41.2699 7.88167 41.1159 7.515C40.9619 7.141 40.8849 6.69367 40.8849 6.173ZM42.6339 6.074C42.6339 6.26467 42.6522 6.44433 42.6889 6.613C42.7329 6.78167 42.8062 6.932 42.9089 7.064C43.0189 7.18867 43.1619 7.29133 43.3379 7.372C43.5212 7.44533 43.7522 7.482 44.0309 7.482C44.3095 7.482 44.5369 7.44533 44.7129 7.372C44.8962 7.29133 45.0392 7.18867 45.1419 7.064C45.2519 6.932 45.3252 6.78167 45.3619 6.613C45.4059 6.44433 45.4279 6.26467 45.4279 6.074C45.4279 5.58267 45.3069 5.194 45.0649 4.908C44.8229 4.622 44.4782 4.479 44.0309 4.479C43.5835 4.479 43.2389 4.622 42.9969 4.908C42.7549 5.194 42.6339 5.58267 42.6339 6.074ZM49.8338 9.704C50.1784 9.87267 50.4754 9.97533 50.7248 10.012C50.9814 10.056 51.2271 10.078 51.4618 10.078C51.7038 10.078 51.9018 10.034 52.0558 9.946C52.2171 9.858 52.3454 9.74067 52.4408 9.594C52.5434 9.45467 52.6168 9.29333 52.6608 9.11C52.7048 8.934 52.7341 8.75433 52.7488 8.571C52.5068 8.73967 52.2244 8.879 51.9018 8.989C51.5791 9.09167 51.2088 9.143 50.7908 9.143C50.4974 9.143 50.2041 9.088 49.9108 8.978C49.6248 8.86067 49.3644 8.67367 49.1298 8.417C48.8951 8.16033 48.7044 7.823 48.5578 7.405C48.4111 6.987 48.3378 6.47733 48.3378 5.876C48.3378 5.458 48.3818 5.09867 48.4698 4.798C48.5651 4.49733 48.6861 4.24433 48.8328 4.039C48.9794 3.82633 49.1408 3.65767 49.3168 3.533C49.5001 3.401 49.6834 3.302 49.8668 3.236C50.0501 3.16267 50.2224 3.115 50.3838 3.093C50.5451 3.06367 50.6808 3.049 50.7908 3.049C51.1574 3.049 51.4801 3.11133 51.7588 3.236C52.0448 3.35333 52.2941 3.511 52.5068 3.709C52.5581 3.555 52.6534 3.41933 52.7928 3.302C52.9394 3.18467 53.1741 3.12233 53.4968 3.115C53.7168 3.115 53.8964 3.14433 54.0358 3.203C54.1751 3.26167 54.2814 3.33867 54.3548 3.434C54.4281 3.52933 54.4758 3.63567 54.4978 3.753C54.5271 3.863 54.5418 3.96933 54.5418 4.072C54.5418 4.358 54.5344 4.62567 54.5198 4.875C54.5051 5.12433 54.4868 5.36633 54.4648 5.601C54.4501 5.82833 54.4354 6.05567 54.4208 6.283C54.4061 6.503 54.3988 6.73033 54.3988 6.965V8.065C54.3988 8.395 54.3951 8.71767 54.3878 9.033C54.3804 9.34833 54.3474 9.64533 54.2888 9.924C54.2374 10.2027 54.1458 10.4593 54.0138 10.694C53.8891 10.936 53.7058 11.1413 53.4638 11.31C53.2218 11.486 52.9101 11.6217 52.5288 11.717C52.1548 11.8123 51.6891 11.86 51.1318 11.86C50.5818 11.86 50.0941 11.7683 49.6688 11.585C49.2434 11.4017 48.9244 11.1633 48.7118 10.87C48.6091 10.7307 48.5541 10.584 48.5468 10.43C48.5394 10.276 48.5688 10.1367 48.6348 10.012C48.7008 9.88733 48.7961 9.78467 48.9208 9.704C49.0528 9.62333 49.1994 9.583 49.3608 9.583C49.5001 9.583 49.6578 9.62333 49.8338 9.704ZM50.0868 6.085C50.0868 6.35633 50.1198 6.58733 50.1858 6.778C50.2591 6.96867 50.3508 7.12267 50.4608 7.24C50.5781 7.35733 50.7138 7.44167 50.8678 7.493C51.0218 7.54433 51.1831 7.57 51.3518 7.57C51.5204 7.57 51.6928 7.54067 51.8688 7.482C52.0448 7.416 52.2024 7.32067 52.3418 7.196C52.4884 7.07133 52.6058 6.91733 52.6938 6.734C52.7818 6.54333 52.8221 6.327 52.8148 6.085C52.8074 5.90167 52.7671 5.72567 52.6938 5.557C52.6278 5.38833 52.5324 5.238 52.4078 5.106C52.2831 4.974 52.1291 4.87133 51.9458 4.798C51.7698 4.71733 51.5718 4.677 51.3518 4.677C51.1318 4.677 50.9411 4.71733 50.7798 4.798C50.6184 4.87133 50.4864 4.974 50.3838 5.106C50.2811 5.23067 50.2041 5.37733 50.1528 5.546C50.1088 5.71467 50.0868 5.89433 50.0868 6.085ZM57.8922 4.688C57.8922 4.754 57.9326 4.81633 58.0132 4.875C58.1012 4.92633 58.2076 4.974 58.3322 5.018C58.4642 5.062 58.6072 5.106 58.7612 5.15C58.9152 5.18667 59.0656 5.227 59.2122 5.271C59.4322 5.337 59.6559 5.41767 59.8832 5.513C60.1179 5.60833 60.3269 5.72933 60.5102 5.876C60.6936 6.02267 60.8439 6.20233 60.9612 6.415C61.0786 6.62033 61.1372 6.86967 61.1372 7.163C61.1372 7.57367 61.0456 7.90733 60.8622 8.164C60.6862 8.42067 60.4736 8.61867 60.2242 8.758C59.9822 8.89733 59.7292 8.989 59.4652 9.033C59.2086 9.08433 58.9996 9.11 58.8382 9.11C58.6182 9.11 58.3836 9.09533 58.1342 9.066C57.8849 9.044 57.6356 8.99633 57.3862 8.923C57.1369 8.84967 56.8912 8.747 56.6492 8.615C56.4146 8.483 56.1946 8.31067 55.9892 8.098C55.8792 7.97333 55.8132 7.84133 55.7912 7.702C55.7692 7.55533 55.7802 7.416 55.8242 7.284C55.8756 7.14467 55.9526 7.01633 56.0552 6.899C56.1579 6.78167 56.2716 6.69367 56.3962 6.635C56.5282 6.57633 56.6639 6.55433 56.8032 6.569C56.9499 6.58367 57.0856 6.646 57.2102 6.756C57.4009 6.92467 57.5806 7.05667 57.7492 7.152C57.9179 7.24733 58.0719 7.32067 58.2112 7.372C58.3506 7.42333 58.4716 7.45633 58.5742 7.471C58.6842 7.47833 58.7686 7.482 58.8272 7.482C58.8566 7.482 58.9006 7.482 58.9592 7.482C59.0179 7.47467 59.0766 7.46367 59.1352 7.449C59.1939 7.427 59.2452 7.39767 59.2892 7.361C59.3332 7.317 59.3552 7.25467 59.3552 7.174C59.3552 7.01267 59.2562 6.88433 59.0582 6.789C58.8602 6.69367 58.5669 6.58367 58.1782 6.459C57.8262 6.34167 57.5219 6.228 57.2652 6.118C57.0086 6.00067 56.7922 5.87233 56.6162 5.733C56.4476 5.59367 56.3229 5.436 56.2422 5.26C56.1616 5.084 56.1212 4.875 56.1212 4.633C56.1212 4.435 56.1616 4.24067 56.2422 4.05C56.3302 3.85933 56.4659 3.687 56.6492 3.533C56.8399 3.379 57.0819 3.25433 57.3752 3.159C57.6686 3.06367 58.0242 3.016 58.4422 3.016C58.6402 3.016 58.8419 3.03433 59.0472 3.071C59.2526 3.10767 59.4469 3.15533 59.6302 3.214C59.8209 3.26533 59.9932 3.324 60.1472 3.39C60.3012 3.44867 60.4259 3.5 60.5212 3.544C60.7706 3.66867 60.9246 3.82633 60.9832 4.017C61.0492 4.20767 61.0456 4.38 60.9722 4.534C60.8989 4.688 60.7706 4.80167 60.5872 4.875C60.4039 4.941 60.1949 4.919 59.9602 4.809C59.6816 4.677 59.4066 4.58533 59.1352 4.534C58.8712 4.47533 58.6732 4.446 58.5412 4.446C58.3872 4.446 58.2406 4.46067 58.1012 4.49C57.9619 4.512 57.8922 4.578 57.8922 4.688ZM66.7055 2.532C66.7055 2.18733 66.7825 1.89767 66.9365 1.663C67.0905 1.421 67.2811 1.22667 67.5085 1.08C67.7431 0.925999 67.9998 0.815999 68.2785 0.749999C68.5645 0.676666 68.8321 0.639999 69.0815 0.639999C69.4555 0.639999 69.7781 0.698666 70.0495 0.816C70.3208 0.933333 70.5408 1.091 70.7095 1.289C70.8855 1.487 71.0138 1.71433 71.0945 1.971C71.1825 2.22033 71.2265 2.477 71.2265 2.741C71.2265 2.939 71.1788 3.13333 71.0835 3.324C70.9955 3.50733 70.8781 3.687 70.7315 3.863C70.5848 4.03167 70.4125 4.18933 70.2145 4.336C70.0238 4.48267 69.8221 4.61833 69.6095 4.743C69.6681 4.809 69.7268 4.875 69.7855 4.941C69.8515 5.007 69.9175 5.07667 69.9835 5.15C70.1228 5.29667 70.2658 5.44333 70.4125 5.59C70.5665 5.72933 70.7205 5.86867 70.8745 6.008C70.9918 5.83933 71.1018 5.67067 71.2045 5.502C71.3145 5.326 71.4208 5.15367 71.5235 4.985C71.6261 4.80167 71.7691 4.69533 71.9525 4.666C72.1358 4.62933 72.3008 4.65133 72.4475 4.732C72.6015 4.80533 72.7151 4.93 72.7885 5.106C72.8618 5.27467 72.8398 5.47633 72.7225 5.711C72.6198 5.91633 72.5098 6.12167 72.3925 6.327C72.2751 6.525 72.1505 6.723 72.0185 6.921C72.1431 7.01633 72.2495 7.097 72.3375 7.163C72.4255 7.229 72.4988 7.28033 72.5575 7.317C72.7848 7.471 72.9131 7.658 72.9425 7.878C72.9791 8.098 72.9498 8.29967 72.8545 8.483C72.7591 8.659 72.6198 8.79467 72.4365 8.89C72.2605 8.98533 72.0698 8.98533 71.8645 8.89C71.7765 8.846 71.6555 8.76533 71.5015 8.648C71.3475 8.52333 71.1678 8.36933 70.9625 8.186L70.9515 8.175C70.6435 8.45367 70.3208 8.681 69.9835 8.857C69.6535 9.02567 69.3015 9.11 68.9275 9.11C68.4655 9.11 68.0511 9.04033 67.6845 8.901C67.3251 8.76167 67.0208 8.571 66.7715 8.329C66.5295 8.07967 66.3425 7.78267 66.2105 7.438C66.0785 7.09333 66.0125 6.71567 66.0125 6.305C66.0125 5.87967 66.1298 5.49467 66.3645 5.15C66.6065 4.80533 66.9328 4.52667 67.3435 4.314C67.1161 3.96933 66.9511 3.65767 66.8485 3.379C66.7531 3.093 66.7055 2.81067 66.7055 2.532ZM68.7405 3.676C69.0485 3.52933 69.3125 3.37533 69.5325 3.214C69.7525 3.04533 69.8625 2.85467 69.8625 2.642C69.8625 2.49533 69.8295 2.38167 69.7635 2.301C69.7048 2.213 69.6351 2.147 69.5545 2.103C69.4738 2.05167 69.3931 2.01867 69.3125 2.004C69.2318 1.98933 69.1695 1.982 69.1255 1.982C68.9201 1.982 68.7331 2.026 68.5645 2.114C68.3958 2.202 68.3115 2.35233 68.3115 2.565C68.3115 2.73367 68.3481 2.90967 68.4215 3.093C68.4948 3.269 68.6011 3.46333 68.7405 3.676ZM68.2455 5.458C68.0915 5.56067 67.9668 5.68167 67.8715 5.821C67.7761 5.953 67.7285 6.11433 67.7285 6.305C67.7285 6.415 67.7395 6.536 67.7615 6.668C67.7835 6.79267 67.8348 6.91367 67.9155 7.031C67.9961 7.141 68.1171 7.23633 68.2785 7.317C68.4471 7.39033 68.6781 7.427 68.9715 7.427C69.2648 7.427 69.5545 7.32433 69.8405 7.119C69.5618 6.855 69.2905 6.58367 69.0265 6.305C68.7625 6.02633 68.5021 5.744 68.2455 5.458ZM80.1571 4.853C80.1278 5.12433 80.1058 5.392 80.0911 5.656C80.0838 5.91267 80.0911 6.14733 80.1131 6.36C80.1424 6.56533 80.1901 6.74133 80.2561 6.888C80.3294 7.02733 80.4284 7.11533 80.5531 7.152C80.6778 7.18867 80.7878 7.196 80.8831 7.174C80.9784 7.14467 81.1178 7.06033 81.3011 6.921C81.4404 6.81833 81.5724 6.77067 81.6971 6.778C81.8291 6.778 81.9464 6.81833 82.0491 6.899C82.1518 6.97233 82.2398 7.075 82.3131 7.207C82.3864 7.33167 82.4341 7.471 82.4561 7.625C82.4781 7.77167 82.4708 7.91833 82.4341 8.065C82.4048 8.21167 82.3351 8.34 82.2251 8.45C82.0931 8.58933 81.9428 8.703 81.7741 8.791C81.6128 8.87167 81.4441 8.93767 81.2681 8.989C81.0994 9.033 80.9344 9.06233 80.7731 9.077C80.6118 9.09167 80.4651 9.099 80.3331 9.099C79.9444 9.099 79.6291 9.055 79.3871 8.967C79.1451 8.879 78.9544 8.758 78.8151 8.604C78.6758 8.44267 78.5804 8.25567 78.5291 8.043C78.4851 7.823 78.4594 7.58833 78.4521 7.339C78.4448 7.08967 78.4484 6.82933 78.4631 6.558C78.4851 6.28667 78.4961 6.01533 78.4961 5.744C78.4961 5.60467 78.4961 5.47633 78.4961 5.359C78.4961 5.23433 78.4924 5.11333 78.4851 4.996C78.4851 4.85667 78.3934 4.75767 78.2101 4.699C78.0854 4.66233 77.9864 4.589 77.9131 4.479C77.8398 4.36167 77.7994 4.17467 77.7921 3.918C77.7848 3.698 77.8068 3.533 77.8581 3.423C77.9168 3.30567 77.9974 3.22133 78.1001 3.17C78.2688 3.09667 78.3531 2.98667 78.3531 2.84V2.521C78.3531 2.41833 78.3641 2.31567 78.3861 2.213C78.4154 2.103 78.4668 2.004 78.5401 1.916C78.6134 1.828 78.7198 1.75833 78.8591 1.707C78.9984 1.64833 79.1781 1.619 79.3981 1.619C79.6254 1.619 79.8051 1.64833 79.9371 1.707C80.0764 1.76567 80.1828 1.84267 80.2561 1.938C80.3294 2.026 80.3771 2.125 80.3991 2.235C80.4284 2.33767 80.4431 2.44033 80.4431 2.543C80.4431 2.653 80.4321 2.79233 80.4101 2.961C80.3954 3.04167 80.4101 3.104 80.4541 3.148C80.4981 3.18467 80.5604 3.19567 80.6411 3.181C80.7584 3.159 80.8758 3.14067 80.9931 3.126C81.1178 3.11133 81.2534 3.104 81.4001 3.104C81.5028 3.104 81.6018 3.115 81.6971 3.137C81.7924 3.159 81.8768 3.19933 81.9501 3.258C82.0234 3.31667 82.0821 3.401 82.1261 3.511C82.1701 3.61367 82.1921 3.74933 82.1921 3.918C82.1921 4.08667 82.1664 4.226 82.1151 4.336C82.0711 4.43867 82.0088 4.51933 81.9281 4.578C81.8548 4.63667 81.7704 4.677 81.6751 4.699C81.5798 4.721 81.4808 4.732 81.3781 4.732C81.2168 4.732 81.0591 4.721 80.9051 4.699C80.7584 4.66967 80.6081 4.644 80.4541 4.622C80.3734 4.60733 80.3074 4.622 80.2561 4.666C80.2048 4.71 80.1718 4.77233 80.1571 4.853ZM85.6129 5.579C85.6129 5.61567 85.6093 5.656 85.6019 5.7C85.6019 5.744 85.6019 5.78433 85.6019 5.821V6.294C85.6019 6.63133 85.6386 6.95767 85.7119 7.273C85.7853 7.581 85.8219 7.889 85.8219 8.197C85.8219 8.285 85.8073 8.37667 85.7779 8.472C85.7486 8.56 85.6936 8.64433 85.6129 8.725C85.5323 8.80567 85.4259 8.87167 85.2939 8.923C85.1619 8.97433 84.9896 9 84.7769 9C84.5643 9 84.3883 8.97433 84.2489 8.923C84.1169 8.87167 84.0106 8.80567 83.9299 8.725C83.8566 8.637 83.8053 8.54533 83.7759 8.45C83.7466 8.35467 83.7319 8.263 83.7319 8.175C83.7319 8.043 83.7429 7.90367 83.7649 7.757C83.7869 7.61033 83.8126 7.45633 83.8419 7.295C83.8713 7.13367 83.8969 6.96867 83.9189 6.8C83.9409 6.63133 83.9519 6.46267 83.9519 6.294V5.821C83.9519 5.65233 83.9409 5.48367 83.9189 5.315C83.8969 5.139 83.8713 4.97033 83.8419 4.809C83.8126 4.64767 83.7869 4.49367 83.7649 4.347C83.7429 4.20033 83.7319 4.061 83.7319 3.929C83.7319 3.841 83.7466 3.74933 83.7759 3.654C83.8053 3.55867 83.8566 3.47067 83.9299 3.39C84.0106 3.30933 84.1169 3.24333 84.2489 3.192C84.3883 3.13333 84.5643 3.104 84.7769 3.104C85.1436 3.104 85.4003 3.17733 85.5469 3.324C85.7009 3.47067 85.7889 3.62833 85.8109 3.797C85.9576 3.599 86.1336 3.43033 86.3389 3.291C86.5516 3.14433 86.8009 3.071 87.0869 3.071C87.4536 3.071 87.7213 3.14067 87.8899 3.28C88.0659 3.412 88.1723 3.57333 88.2089 3.764C88.2529 3.94733 88.2419 4.13433 88.1759 4.325C88.1099 4.51567 88.0219 4.66233 87.9119 4.765C87.8166 4.853 87.6956 4.90067 87.5489 4.908C87.4023 4.91533 87.2483 4.89333 87.0869 4.842C87.0209 4.82 86.9403 4.798 86.8449 4.776C86.7496 4.754 86.6469 4.75033 86.5369 4.765C86.4269 4.77233 86.3096 4.80167 86.1849 4.853C86.0603 4.90433 85.9356 4.99233 85.8109 5.117C85.7523 5.17567 85.7046 5.249 85.6679 5.337C85.6386 5.41767 85.6203 5.49833 85.6129 5.579ZM91.3901 7.163C91.3315 7.17767 91.2985 7.19967 91.2911 7.229C91.2911 7.25833 91.3168 7.28767 91.3681 7.317C91.5588 7.427 91.8045 7.482 92.1051 7.482C92.3838 7.482 92.6148 7.42333 92.7981 7.306C92.9815 7.18867 93.1758 7.042 93.3811 6.866C93.5278 6.74133 93.6928 6.679 93.8761 6.679C94.0448 6.679 94.1988 6.73033 94.3381 6.833C94.4848 6.93567 94.5985 7.064 94.6791 7.218C94.7671 7.372 94.8075 7.537 94.8001 7.713C94.8001 7.889 94.7341 8.054 94.6021 8.208C94.4848 8.34 94.3271 8.46467 94.1291 8.582C93.9385 8.692 93.7258 8.78733 93.4911 8.868C93.2638 8.94133 93.0291 9 92.7871 9.044C92.5451 9.088 92.3141 9.11 92.0941 9.11C91.6541 9.11 91.2471 9.055 90.8731 8.945C90.4991 8.835 90.1728 8.66267 89.8941 8.428C89.6228 8.186 89.4065 7.88167 89.2451 7.515C89.0911 7.141 89.0141 6.69367 89.0141 6.173C89.0141 5.70367 89.0985 5.27833 89.2671 4.897C89.4431 4.50833 89.6778 4.17467 89.9711 3.896C90.2718 3.61733 90.6238 3.401 91.0271 3.247C91.4305 3.093 91.8595 3.016 92.3141 3.016C92.6735 3.016 92.9925 3.07467 93.2711 3.192C93.5498 3.302 93.7771 3.44867 93.9531 3.632C94.1365 3.81533 94.2648 4.02433 94.3381 4.259C94.4188 4.49367 94.4371 4.73567 94.3931 4.985C94.3565 5.227 94.2538 5.46533 94.0851 5.7C93.9238 5.93467 93.6891 6.14367 93.3811 6.327C93.0805 6.51033 92.7615 6.67167 92.4241 6.811C92.0868 6.95033 91.7421 7.06767 91.3901 7.163ZM90.7851 5.766C90.7705 5.89067 90.8218 5.93467 90.9391 5.898C91.1371 5.832 91.3461 5.755 91.5661 5.667C91.7935 5.579 92.0355 5.47267 92.2921 5.348C92.4095 5.28933 92.4901 5.21233 92.5341 5.117C92.5855 5.02167 92.6038 4.92633 92.5891 4.831C92.5818 4.73567 92.5451 4.655 92.4791 4.589C92.4131 4.51567 92.3251 4.479 92.2151 4.479C91.8191 4.479 91.4965 4.59267 91.2471 4.82C90.9978 5.04733 90.8438 5.36267 90.7851 5.766ZM98.3812 7.163C98.3225 7.17767 98.2895 7.19967 98.2822 7.229C98.2822 7.25833 98.3078 7.28767 98.3592 7.317C98.5498 7.427 98.7955 7.482 99.0962 7.482C99.3748 7.482 99.6058 7.42333 99.7892 7.306C99.9725 7.18867 100.167 7.042 100.372 6.866C100.519 6.74133 100.684 6.679 100.867 6.679C101.036 6.679 101.19 6.73033 101.329 6.833C101.476 6.93567 101.589 7.064 101.67 7.218C101.758 7.372 101.798 7.537 101.791 7.713C101.791 7.889 101.725 8.054 101.593 8.208C101.476 8.34 101.318 8.46467 101.12 8.582C100.929 8.692 100.717 8.78733 100.482 8.868C100.255 8.94133 100.02 9 99.7782 9.044C99.5362 9.088 99.3052 9.11 99.0852 9.11C98.6452 9.11 98.2382 9.055 97.8642 8.945C97.4902 8.835 97.1638 8.66267 96.8852 8.428C96.6138 8.186 96.3975 7.88167 96.2362 7.515C96.0822 7.141 96.0052 6.69367 96.0052 6.173C96.0052 5.70367 96.0895 5.27833 96.2582 4.897C96.4342 4.50833 96.6688 4.17467 96.9622 3.896C97.2628 3.61733 97.6148 3.401 98.0182 3.247C98.4215 3.093 98.8505 3.016 99.3052 3.016C99.6645 3.016 99.9835 3.07467 100.262 3.192C100.541 3.302 100.768 3.44867 100.944 3.632C101.127 3.81533 101.256 4.02433 101.329 4.259C101.41 4.49367 101.428 4.73567 101.384 4.985C101.347 5.227 101.245 5.46533 101.076 5.7C100.915 5.93467 100.68 6.14367 100.372 6.327C100.071 6.51033 99.7525 6.67167 99.4152 6.811C99.0778 6.95033 98.7332 7.06767 98.3812 7.163ZM97.7762 5.766C97.7615 5.89067 97.8128 5.93467 97.9302 5.898C98.1282 5.832 98.3372 5.755 98.5572 5.667C98.7845 5.579 99.0265 5.47267 99.2832 5.348C99.4005 5.28933 99.4812 5.21233 99.5252 5.117C99.5765 5.02167 99.5948 4.92633 99.5802 4.831C99.5728 4.73567 99.5362 4.655 99.4702 4.589C99.4042 4.51567 99.3162 4.479 99.2062 4.479C98.8102 4.479 98.4875 4.59267 98.2382 4.82C97.9888 5.04733 97.8348 5.36267 97.7762 5.766ZM105.119 4.688C105.119 4.754 105.16 4.81633 105.24 4.875C105.328 4.92633 105.435 4.974 105.559 5.018C105.691 5.062 105.834 5.106 105.988 5.15C106.142 5.18667 106.293 5.227 106.439 5.271C106.659 5.337 106.883 5.41767 107.11 5.513C107.345 5.60833 107.554 5.72933 107.737 5.876C107.921 6.02267 108.071 6.20233 108.188 6.415C108.306 6.62033 108.364 6.86967 108.364 7.163C108.364 7.57367 108.273 7.90733 108.089 8.164C107.913 8.42067 107.701 8.61867 107.451 8.758C107.209 8.89733 106.956 8.989 106.692 9.033C106.436 9.08433 106.227 9.11 106.065 9.11C105.845 9.11 105.611 9.09533 105.361 9.066C105.112 9.044 104.863 8.99633 104.613 8.923C104.364 8.84967 104.118 8.747 103.876 8.615C103.642 8.483 103.422 8.31067 103.216 8.098C103.106 7.97333 103.04 7.84133 103.018 7.702C102.996 7.55533 103.007 7.416 103.051 7.284C103.103 7.14467 103.18 7.01633 103.282 6.899C103.385 6.78167 103.499 6.69367 103.623 6.635C103.755 6.57633 103.891 6.55433 104.03 6.569C104.177 6.58367 104.313 6.646 104.437 6.756C104.628 6.92467 104.808 7.05667 104.976 7.152C105.145 7.24733 105.299 7.32067 105.438 7.372C105.578 7.42333 105.699 7.45633 105.801 7.471C105.911 7.47833 105.996 7.482 106.054 7.482C106.084 7.482 106.128 7.482 106.186 7.482C106.245 7.47467 106.304 7.46367 106.362 7.449C106.421 7.427 106.472 7.39767 106.516 7.361C106.56 7.317 106.582 7.25467 106.582 7.174C106.582 7.01267 106.483 6.88433 106.285 6.789C106.087 6.69367 105.794 6.58367 105.405 6.459C105.053 6.34167 104.749 6.228 104.492 6.118C104.236 6.00067 104.019 5.87233 103.843 5.733C103.675 5.59367 103.55 5.436 103.469 5.26C103.389 5.084 103.348 4.875 103.348 4.633C103.348 4.435 103.389 4.24067 103.469 4.05C103.557 3.85933 103.693 3.687 103.876 3.533C104.067 3.379 104.309 3.25433 104.602 3.159C104.896 3.06367 105.251 3.016 105.669 3.016C105.867 3.016 106.069 3.03433 106.274 3.071C106.48 3.10767 106.674 3.15533 106.857 3.214C107.048 3.26533 107.22 3.324 107.374 3.39C107.528 3.44867 107.653 3.5 107.748 3.544C107.998 3.66867 108.152 3.82633 108.21 4.017C108.276 4.20767 108.273 4.38 108.199 4.534C108.126 4.688 107.998 4.80167 107.814 4.875C107.631 4.941 107.422 4.919 107.187 4.809C106.909 4.677 106.634 4.58533 106.362 4.534C106.098 4.47533 105.9 4.446 105.768 4.446C105.614 4.446 105.468 4.46067 105.328 4.49C105.189 4.512 105.119 4.578 105.119 4.688Z" fill="black"/>
</svg>
